# Blender v3.2.1 OBJ File: 'Modeling.blend'
# www.blender.org
o Eye_Cube.004
v 0.095957 0.198645 -0.259188
v 0.054883 0.517666 -0.333222
v 0.327743 0.405329 0.016906
v 0.312365 0.520393 -0.010533
v -0.105556 0.233679 -0.002519
v -0.146588 0.552712 -0.076499
v 0.256618 0.418443 0.111765
v 0.241240 0.533508 0.084326
v 0.351595 0.592138 -0.096597
v 0.388618 0.315126 -0.030539
v 0.217388 0.346698 0.197829
v 0.180365 0.623710 0.131772
v 0.312250 0.537550 -0.043297
v 0.333843 0.375990 -0.004770
v 0.233978 0.394404 0.128419
v 0.212385 0.555964 0.089893
v 0.251887 0.133491 -0.244278
v 0.186910 0.619657 -0.360211
v -0.048627 0.188901 0.156517
v -0.113605 0.675067 0.040584
v -0.020254 0.268990 -0.257896
v -0.039499 0.431158 -0.293357
v -0.146404 0.447593 -0.169457
v -0.127195 0.285415 -0.134044
v 0.031196 0.391419 -0.633745
v 0.030713 0.421192 -0.628093
v 0.003159 0.423141 -0.640560
v 0.003626 0.393366 -0.646224
v 0.286749 0.649856 -0.289527
v 0.051211 0.219101 0.227201
v 0.351726 0.163691 -0.173594
v -0.013766 0.705266 0.111267
v -0.073038 0.350222 -0.533373
v -0.010847 0.345879 -0.503529
v -0.012335 0.413907 -0.490744
v -0.074526 0.418250 -0.520588
v -0.043054 0.313328 -0.420393
v -0.042949 0.410601 -0.412354
v -0.138242 0.412814 -0.425952
v -0.138348 0.315540 -0.433964
v -0.065283 0.306441 -0.334266
v -0.067024 0.396467 -0.342026
v -0.149720 0.398483 -0.310087
v -0.147877 0.308490 -0.302296
vt 0.222479 0.902552
vt 0.185988 0.960806
vt 0.185988 0.918517
vt 0.466589 0.911379
vt 0.305916 0.981674
vt 0.305916 0.911379
vt 0.227552 0.901416
vt 0.192470 0.975129
vt 0.192470 0.916764
vt 0.581393 0.990018
vt 0.613709 0.976632
vt 0.613709 0.976632
vt 0.059064 0.916764
vt 0.023982 0.901416
vt 0.227552 0.990478
vt 0.059064 0.975129
vt 0.165845 0.951993
vt 0.109470 0.927329
vt 0.165845 0.927329
vt 0.089327 0.960806
vt 0.109470 0.951993
vt 0.089327 0.918517
vt 0.466589 0.981674
vt 0.499051 0.897177
vt 0.499051 0.995876
vt 0.273454 0.995876
vt 0.273454 0.897177
vt 0.222479 0.976770
vt 0.052836 0.976770
vt 0.052836 0.976770
vt 0.052836 0.902552
vt 0.222478 0.902552
vt 0.052836 0.902552
vt 0.633194 0.923831
vt 0.652951 0.899387
vt 0.660678 0.923831
vt 0.712479 0.990018
vt 0.680163 0.976632
vt 0.712479 0.990018
vt 0.680163 0.976632
vt 0.581393 0.990018
vt 0.649999 0.944647
vt 0.637755 0.950003
vt 0.637755 0.944647
vt 0.660678 0.923831
vt 0.652951 0.899387
vt 0.640921 0.899387
vt 0.633194 0.923831
vt 0.640921 0.899387
vt 0.627535 0.941255
vt 0.627535 0.941255
vt 0.666337 0.941255
vt 0.666337 0.941255
vt 0.664888 0.958386
vt 0.664888 0.958386
vt 0.628984 0.958386
vt 0.628984 0.958386
vt 0.023982 0.990478
vt 0.222478 0.976770
vt 0.649999 0.950003
vn 0.9513 0.0548 -0.3033
vn 0.7924 0.2397 0.5610
vn -0.9445 -0.0461 0.3251
vn -0.9878 -0.0892 0.1274
vn -0.3690 -0.9173 -0.1498
vn -0.5529 0.6490 -0.5225
vn 0.6314 0.2587 0.7310
vn 0.7404 0.4581 0.4918
vn 0.8006 0.0080 0.5992
vn 0.9096 0.2074 0.3600
vn 0.9859 0.1496 0.0749
vn 0.7467 -0.2878 0.5997
vn 0.6147 0.6996 0.3642
vn 0.3755 0.2622 0.8890
vn -0.1289 0.9646 -0.2300
vn 0.1289 -0.9646 0.2300
vn -0.5963 0.1099 0.7952
vn -0.0014 -0.2262 -0.9741
vn 0.0805 -0.9487 -0.3058
vn -0.1787 -0.2442 -0.9531
vn -0.4994 -0.8198 -0.2802
vn -0.6087 0.5250 -0.5949
vn 0.4162 0.1761 -0.8920
vn 0.9540 -0.0409 0.2969
vn 0.0382 0.9971 0.0654
vn -0.8388 0.0828 -0.5382
vn -0.0056 0.2312 0.9729
vn 0.5763 -0.6310 0.5193
vn 0.3694 0.9171 0.1502
vn 0.5963 -0.1099 -0.7952
vn -0.8421 0.0452 -0.5375
vn 0.0137 0.9977 0.0665
vn 0.9311 -0.0476 0.3616
vn 0.0935 -0.9389 -0.3314
vn -0.0114 -0.9965 -0.0826
vn 0.9474 -0.0274 0.3188
vn 0.0742 0.9888 0.1296
vn -0.9969 -0.0268 -0.0736
vn -0.9897 -0.0934 0.1088
vn -0.2251 0.9215 -0.3165
vn 0.8775 -0.0243 -0.4790
vn -0.1608 -0.9203 -0.3565
vn -0.9463 -0.0504 0.3192
vn -0.9885 -0.1011 0.1123
vn -0.3401 -0.9299 -0.1401
vn -0.5851 0.6187 -0.5243
vn -0.0178 -0.2342 -0.9720
vn 0.0742 -0.9473 -0.3117
vn -0.1487 -0.2281 -0.9622
vn -0.4392 -0.8583 -0.2654
vn -0.6678 0.4582 -0.5866
vn 0.4161 0.1762 -0.8921
vn 0.9545 -0.0347 0.2960
vn 0.0408 0.9970 0.0657
vn -0.8377 0.0894 -0.5388
vn -0.8287 0.0858 -0.5530
vn 0.0417 0.9974 0.0583
vn 0.9360 -0.0300 0.3508
vn 0.0230 -0.9485 -0.3158
vn -0.0467 -0.9973 -0.0568
vn 0.9667 0.0405 0.2527
vn -0.0051 0.9807 0.1954
vn -0.9952 0.0091 -0.0975
vn -0.9994 -0.0179 0.0298
vn -0.1742 0.8458 -0.5043
vn 0.8592 -0.0099 -0.5115
vn -0.2625 -0.9598 -0.0994
s off
f 31/1/1 9/2/1 10/3/1
f 3/4/2 8/5/2 7/6/2
f 19/7/3 6/8/3 5/9/3
f 5/10/4 23/11/4 24/12/4
f 19/7/5 1/13/5 17/14/5
f 20/15/6 2/16/6 6/8/6
f 13/17/7 10/3/7 9/2/7
f 15/18/8 10/3/8 14/19/8
f 13/17/9 12/20/9 16/21/9
f 15/18/10 12/20/10 11/22/10
f 4/23/11 14/24/11 13/25/11
f 7/6/12 14/24/12 3/4/12
f 4/23/13 16/26/13 8/5/13
f 8/5/14 15/27/14 7/6/14
f 29/28/15 20/29/15 32/30/15
f 30/31/16 17/32/16 31/1/16
f 32/30/17 19/33/17 30/31/17
f 2/16/18 17/14/18 1/13/18
f 33/34/19 25/35/19 34/36/19
f 1/37/20 22/38/20 2/39/20
f 5/10/21 21/40/21 1/37/21
f 6/41/22 22/38/22 23/11/22
f 28/42/23 26/43/23 25/44/23
f 35/45/24 25/35/24 26/46/24
f 35/45/25 27/47/25 36/48/25
f 36/48/26 28/49/26 33/34/26
f 12/20/27 30/31/27 11/22/27
f 11/22/28 31/1/28 10/3/28
f 9/2/29 32/30/29 12/20/29
f 17/32/30 29/28/30 31/1/30
f 39/50/31 33/34/31 40/51/31
f 38/52/32 36/48/32 39/50/32
f 38/52/33 34/36/33 35/45/33
f 37/53/34 33/34/34 34/36/34
f 41/54/35 40/51/35 37/53/35
f 42/55/36 37/53/36 38/52/36
f 42/55/37 39/50/37 43/56/37
f 43/56/38 40/51/38 44/57/38
f 23/11/39 44/57/39 24/12/39
f 22/38/40 43/56/40 23/11/40
f 22/38/41 41/54/41 42/55/41
f 21/40/42 44/57/42 41/54/42
f 31/1/1 29/28/1 9/2/1
f 3/4/2 4/23/2 8/5/2
f 19/7/43 20/15/43 6/8/43
f 5/10/44 6/41/44 23/11/44
f 19/7/45 5/9/45 1/13/45
f 20/15/46 18/58/46 2/16/46
f 13/17/7 14/19/7 10/3/7
f 15/18/8 11/22/8 10/3/8
f 13/17/9 9/2/9 12/20/9
f 15/18/10 16/21/10 12/20/10
f 4/23/11 3/4/11 14/24/11
f 7/6/12 15/27/12 14/24/12
f 4/23/13 13/25/13 16/26/13
f 8/5/14 16/26/14 15/27/14
f 29/28/15 18/59/15 20/29/15
f 30/31/16 19/33/16 17/32/16
f 32/30/17 20/29/17 19/33/17
f 2/16/47 18/58/47 17/14/47
f 33/34/48 28/49/48 25/35/48
f 1/37/49 21/40/49 22/38/49
f 5/10/50 24/12/50 21/40/50
f 6/41/51 2/39/51 22/38/51
f 28/42/52 27/60/52 26/43/52
f 35/45/53 34/36/53 25/35/53
f 35/45/54 26/46/54 27/47/54
f 36/48/55 27/47/55 28/49/55
f 12/20/27 32/30/27 30/31/27
f 11/22/28 30/31/28 31/1/28
f 9/2/29 29/28/29 32/30/29
f 17/32/30 18/59/30 29/28/30
f 39/50/56 36/48/56 33/34/56
f 38/52/57 35/45/57 36/48/57
f 38/52/58 37/53/58 34/36/58
f 37/53/59 40/51/59 33/34/59
f 41/54/60 44/57/60 40/51/60
f 42/55/61 41/54/61 37/53/61
f 42/55/62 38/52/62 39/50/62
f 43/56/63 39/50/63 40/51/63
f 23/11/64 43/56/64 44/57/64
f 22/38/65 42/55/65 43/56/65
f 22/38/66 21/40/66 41/54/66
f 21/40/67 24/12/67 44/57/67
