# Blender v3.2.1 OBJ File: 'Modeling.blend'
# www.blender.org
o Eye_Cube.004
v 0.198833 0.218766 -0.061769
v 0.198526 0.548963 -0.053982
v -0.094556 0.317331 0.222695
v -0.094659 0.436584 0.225505
v -0.085790 0.222407 -0.227243
v -0.086083 0.552604 -0.219499
v -0.196700 0.318694 0.161102
v -0.196804 0.437947 0.163912
v -0.022851 0.519547 0.270827
v -0.022601 0.232451 0.264062
v -0.268509 0.235731 0.115779
v -0.268758 0.522827 0.122545
v -0.066627 0.460699 0.226225
v -0.066482 0.293258 0.222280
v -0.209900 0.295171 0.135798
v -0.210046 0.462612 0.139744
v 0.210695 0.128433 0.084830
v 0.210257 0.632297 0.096703
v -0.220881 0.134190 -0.175411
v -0.221319 0.638054 -0.163538
v 0.166730 0.302737 -0.170222
v 0.166574 0.470131 -0.166277
v 0.020409 0.471839 -0.244896
v 0.020552 0.304444 -0.248804
v 0.000527 0.386983 -0.644087
v 0.000370 0.417267 -0.642558
v -0.028214 0.416563 -0.632471
v -0.028024 0.386287 -0.634006
v 0.145181 0.629699 0.204566
v -0.285957 0.131592 -0.067549
v 0.145619 0.125835 0.192692
v -0.286395 0.635456 -0.055675
v 0.002154 0.360039 -0.494051
v 0.066107 0.361389 -0.520443
v 0.065687 0.430594 -0.517936
v 0.001733 0.429244 -0.491544
v 0.123003 0.343791 -0.424271
v 0.122564 0.441523 -0.421634
v 0.027336 0.440567 -0.402619
v 0.027773 0.342836 -0.405273
v 0.141918 0.342809 -0.309763
v 0.141577 0.433251 -0.307796
v 0.052958 0.433397 -0.321063
v 0.053346 0.342956 -0.323077
vt 0.222479 0.902552
vt 0.185988 0.960806
vt 0.185988 0.918517
vt 0.466589 0.911379
vt 0.305916 0.981674
vt 0.305916 0.911379
vt 0.227552 0.990478
vt 0.192470 0.916764
vt 0.227552 0.901416
vt 0.581393 0.990018
vt 0.613709 0.976632
vt 0.613709 0.976632
vt 0.023982 0.901416
vt 0.059064 0.916764
vt 0.023982 0.990478
vt 0.192470 0.975129
vt 0.165845 0.951993
vt 0.109470 0.927329
vt 0.165845 0.927329
vt 0.089327 0.960806
vt 0.109470 0.951993
vt 0.089327 0.918517
vt 0.499051 0.995876
vt 0.466589 0.981674
vt 0.499051 0.897177
vt 0.273454 0.995876
vt 0.273454 0.897177
vt 0.222479 0.976770
vt 0.052836 0.976770
vt 0.052836 0.976770
vt 0.052836 0.902552
vt 0.222478 0.902552
vt 0.052836 0.902552
vt 0.660678 0.923831
vt 0.640921 0.899387
vt 0.652951 0.899387
vt 0.712479 0.990018
vt 0.680163 0.976632
vt 0.712479 0.990018
vt 0.680163 0.976632
vt 0.581393 0.990018
vt 0.649999 0.950003
vt 0.637755 0.944647
vt 0.649999 0.944647
vt 0.660678 0.923831
vt 0.652951 0.899387
vt 0.640921 0.899387
vt 0.633194 0.923831
vt 0.633194 0.923831
vt 0.627535 0.941255
vt 0.627535 0.941255
vt 0.666337 0.941255
vt 0.666337 0.941255
vt 0.628984 0.958386
vt 0.664888 0.958386
vt 0.664888 0.958386
vt 0.628984 0.958386
vt 0.059064 0.975129
vt 0.222478 0.976770
vt 0.637755 0.950003
vn 0.3789 -0.0215 0.9252
vn -0.5165 -0.0206 0.8561
vn -0.3704 0.0216 -0.9286
vn -0.2154 0.0226 -0.9763
vn 0.2913 -0.8037 -0.5188
vn 0.3089 0.8126 -0.4943
vn -0.7020 -0.0174 0.7120
vn -0.5024 0.2132 0.8379
vn -0.5020 -0.2533 0.8269
vn -0.3024 -0.0227 0.9529
vn -0.0054 -0.0236 0.9997
vn -0.4433 -0.5294 0.7234
vn -0.4441 0.4940 0.7475
vn -0.8820 -0.0119 0.4711
vn -0.0009 0.9997 0.0236
vn 0.0009 -0.9997 -0.0236
vn -0.8563 0.0114 -0.5164
vn 0.9969 0.0027 -0.0790
vn -0.0403 -0.9825 -0.1820
vn 0.9604 0.0075 -0.2785
vn 0.3343 -0.6948 -0.6369
vn 0.3720 0.6868 -0.6245
vn -0.3336 0.0456 -0.9416
vn 0.8841 0.0281 -0.4664
vn -0.0533 0.9955 -0.0783
vn -0.9780 -0.0135 0.2083
vn -0.9953 -0.0031 0.0965
vn -0.3075 -0.8145 0.4919
vn -0.3089 0.7899 0.5298
vn 0.8563 -0.0114 0.5164
vn -0.9613 -0.0118 0.2751
vn -0.0653 0.9921 -0.1075
vn 0.8596 0.0237 -0.5104
vn -0.0233 -0.9858 -0.1666
vn -0.0004 -1.0000 -0.0085
vn 0.9864 0.0089 -0.1641
vn 0.0070 0.9963 0.0854
vn -0.9548 -0.0107 0.2971
vn -0.9157 0.0050 -0.4017
vn 0.0654 0.9018 -0.4272
vn 0.9845 0.0051 -0.1752
vn 0.1488 -0.9431 -0.2973
vn -0.3707 0.0214 -0.9285
vn -0.2156 0.0227 -0.9762
vn 0.3103 -0.7878 -0.5320
vn 0.2899 0.8278 -0.4804
vn 0.9969 0.0028 -0.0792
vn -0.0508 -0.9835 -0.1735
vn 0.3731 -0.6560 -0.6561
vn 0.3330 0.7246 -0.6034
vn -0.3334 0.0458 -0.9417
vn 0.8851 0.0222 -0.4649
vn -0.0524 0.9955 -0.0790
vn -0.9777 -0.0168 0.2093
vn -0.9603 -0.0159 0.2785
vn -0.0291 0.9950 -0.0957
vn 0.8619 0.0175 -0.5067
vn -0.0517 -0.9831 -0.1756
vn 0.0097 -1.0000 -0.0016
vn 0.9866 0.0073 -0.1629
vn -0.0094 0.9972 0.0740
vn -0.9543 -0.0124 0.2987
vn -0.9180 0.0085 -0.3966
vn 0.1591 0.9481 -0.2752
vn 0.9849 0.0075 -0.1730
vn 0.0642 -0.8972 -0.4369
s off
f 31/1/1 9/2/1 10/3/1
f 3/4/2 8/5/2 7/6/2
f 20/7/3 5/8/3 19/9/3
f 5/10/4 23/11/4 24/12/4
f 17/13/5 5/8/5 1/14/5
f 18/15/6 6/16/6 20/7/6
f 13/17/7 10/3/7 9/2/7
f 15/18/8 10/3/8 14/19/8
f 13/17/9 12/20/9 16/21/9
f 15/18/10 12/20/10 11/22/10
f 3/4/11 13/23/11 4/24/11
f 7/6/12 14/25/12 3/4/12
f 4/24/13 16/26/13 8/5/13
f 7/6/14 16/26/14 15/27/14
f 29/28/15 20/29/15 32/30/15
f 30/31/16 17/32/16 31/1/16
f 30/31/17 20/29/17 19/33/17
f 1/14/18 18/15/18 17/13/18
f 34/34/19 28/35/19 25/36/19
f 1/37/20 22/38/20 2/39/20
f 1/37/21 24/12/21 21/40/21
f 2/39/22 23/11/22 6/41/22
f 27/42/23 25/43/23 28/44/23
f 35/45/24 25/36/24 26/46/24
f 35/45/25 27/47/25 36/48/25
f 36/48/26 28/35/26 33/49/26
f 11/22/27 32/30/27 30/31/27
f 11/22/28 31/1/28 10/3/28
f 9/2/29 32/30/29 12/20/29
f 17/32/30 29/28/30 31/1/30
f 39/50/31 33/49/31 40/51/31
f 39/50/32 35/45/32 36/48/32
f 38/52/33 34/34/33 35/45/33
f 40/51/34 34/34/34 37/53/34
f 44/54/35 37/53/35 41/55/35
f 42/56/36 37/53/36 38/52/36
f 43/57/37 38/52/37 39/50/37
f 43/57/38 40/51/38 44/54/38
f 24/12/39 43/57/39 44/54/39
f 23/11/40 42/56/40 43/57/40
f 21/40/41 42/56/41 22/38/41
f 24/12/42 41/55/42 21/40/42
f 31/1/1 29/28/1 9/2/1
f 3/4/2 4/24/2 8/5/2
f 20/7/43 6/16/43 5/8/43
f 5/10/44 6/41/44 23/11/44
f 17/13/45 19/9/45 5/8/45
f 18/15/46 2/58/46 6/16/46
f 13/17/7 14/19/7 10/3/7
f 15/18/8 11/22/8 10/3/8
f 13/17/9 9/2/9 12/20/9
f 15/18/10 16/21/10 12/20/10
f 3/4/11 14/25/11 13/23/11
f 7/6/12 15/27/12 14/25/12
f 4/24/13 13/23/13 16/26/13
f 7/6/14 8/5/14 16/26/14
f 29/28/15 18/59/15 20/29/15
f 30/31/16 19/33/16 17/32/16
f 30/31/17 32/30/17 20/29/17
f 1/14/47 2/58/47 18/15/47
f 34/34/48 33/49/48 28/35/48
f 1/37/20 21/40/20 22/38/20
f 1/37/49 5/10/49 24/12/49
f 2/39/50 22/38/50 23/11/50
f 27/42/51 26/60/51 25/43/51
f 35/45/52 34/34/52 25/36/52
f 35/45/53 26/46/53 27/47/53
f 36/48/54 27/47/54 28/35/54
f 11/22/27 12/20/27 32/30/27
f 11/22/28 30/31/28 31/1/28
f 9/2/29 29/28/29 32/30/29
f 17/32/30 18/59/30 29/28/30
f 39/50/55 36/48/55 33/49/55
f 39/50/56 38/52/56 35/45/56
f 38/52/57 37/53/57 34/34/57
f 40/51/58 33/49/58 34/34/58
f 44/54/59 40/51/59 37/53/59
f 42/56/60 41/55/60 37/53/60
f 43/57/61 42/56/61 38/52/61
f 43/57/62 39/50/62 40/51/62
f 24/12/63 23/11/63 43/57/63
f 23/11/64 22/38/64 42/56/64
f 21/40/65 41/55/65 42/56/65
f 24/12/66 44/54/66 41/55/66
