# Blender v3.2.1 OBJ File: 'Modeling.blend'
# www.blender.org
o Eye_Cube.004
v 0.185699 0.169371 -0.060753
v 0.195304 0.478973 -0.173415
v 0.023562 0.404418 0.248242
v 0.027177 0.515919 0.206010
v -0.140578 0.160765 -0.110535
v -0.130973 0.470367 -0.223202
v -0.094216 0.401181 0.229616
v -0.090601 0.512683 0.187384
v 0.112604 0.596664 0.189398
v 0.103902 0.328228 0.291068
v -0.179643 0.320437 0.246228
v -0.170941 0.588872 0.144558
v 0.053937 0.534014 0.188001
v 0.048861 0.377456 0.247297
v -0.116508 0.372912 0.221145
v -0.111433 0.529470 0.161849
v 0.249937 0.133543 0.095770
v 0.265210 0.604655 -0.082665
v -0.247693 0.119868 0.017073
v -0.232420 0.590981 -0.161362
v 0.118996 0.217842 -0.175602
v 0.123448 0.375694 -0.228231
v -0.042133 0.371707 -0.251596
v -0.046585 0.213857 -0.198962
v 0.009704 0.400500 -0.646637
v 0.010215 0.428984 -0.636400
v -0.019884 0.428229 -0.632845
v -0.020378 0.399719 -0.643091
v 0.245609 0.649296 0.033520
v -0.267293 0.164509 0.133258
v 0.230337 0.178183 0.211955
v -0.252021 0.635621 -0.045177
v -0.023220 0.333053 -0.516763
v 0.045285 0.335319 -0.526608
v 0.046968 0.399337 -0.500338
v -0.021537 0.397071 -0.490493
v 0.075483 0.279193 -0.432714
v 0.076415 0.373848 -0.409972
v -0.020909 0.372435 -0.401539
v -0.021843 0.277782 -0.424288
v 0.082071 0.253771 -0.317571
v 0.082279 0.343741 -0.321462
v -0.008059 0.343449 -0.323792
v -0.008262 0.253466 -0.319921
vt 0.222479 0.902552
vt 0.185988 0.960806
vt 0.185988 0.918517
vt 0.466589 0.981674
vt 0.305916 0.911379
vt 0.466589 0.911379
vt 0.227552 0.901416
vt 0.192470 0.975129
vt 0.192470 0.916764
vt 0.581393 0.990018
vt 0.613709 0.976632
vt 0.613709 0.976632
vt 0.023982 0.901416
vt 0.059064 0.916764
vt 0.023982 0.990478
vt 0.227552 0.990478
vt 0.165845 0.927329
vt 0.165845 0.951993
vt 0.089327 0.918517
vt 0.089327 0.960806
vt 0.109470 0.951993
vt 0.109470 0.927329
vt 0.499051 0.995876
vt 0.499051 0.897177
vt 0.273454 0.995876
vt 0.305916 0.981674
vt 0.273454 0.897177
vt 0.222479 0.976770
vt 0.052836 0.976770
vt 0.052836 0.976770
vt 0.052836 0.902552
vt 0.222478 0.902552
vt 0.052836 0.902552
vt 0.059064 0.975129
vt 0.660678 0.923831
vt 0.640921 0.899387
vt 0.652951 0.899387
vt 0.712479 0.990018
vt 0.680163 0.976632
vt 0.712479 0.990018
vt 0.680163 0.976632
vt 0.581393 0.990018
vt 0.649999 0.950003
vt 0.637755 0.944647
vt 0.649999 0.944647
vt 0.652951 0.899387
vt 0.660678 0.923831
vt 0.640921 0.899387
vt 0.633194 0.923831
vt 0.633194 0.923831
vt 0.627535 0.941255
vt 0.627535 0.941255
vt 0.666337 0.941255
vt 0.666337 0.941255
vt 0.628984 0.958386
vt 0.664888 0.958386
vt 0.664888 0.958386
vt 0.628984 0.958386
vt 0.222478 0.976770
vt 0.637755 0.950003
vn 0.6995 0.2332 0.6756
vn -0.1556 0.3543 0.9221
vn -0.7110 -0.2209 -0.6676
vn -0.5896 -0.2405 -0.7711
vn 0.0632 -0.9669 -0.2473
vn 0.1182 0.5300 -0.8397
vn -0.3816 0.3382 0.8602
vn -0.1442 0.5626 0.8141
vn -0.1583 0.1264 0.9793
vn 0.0791 0.3508 0.9331
vn 0.3717 0.3183 0.8721
vn -0.1491 -0.1741 0.9734
vn -0.1181 0.7828 0.6110
vn -0.6390 0.2905 0.7122
vn 0.0303 0.9347 -0.3540
vn -0.0303 -0.9347 0.3540
vn -0.9874 -0.0271 -0.1561
vn 0.8958 -0.1763 -0.4080
vn -0.0324 -0.8823 -0.4695
vn 0.7802 -0.2351 -0.5797
vn 0.0820 -0.9003 -0.4276
vn 0.1297 0.3803 -0.9157
vn -0.1188 0.3376 -0.9338
vn 0.9667 0.0750 -0.2448
vn -0.0016 0.9769 0.2138
vn -0.9997 0.0214 -0.0112
vn -0.8851 0.1897 0.4250
vn -0.1171 -0.5386 0.8344
vn -0.0685 0.9615 0.2662
vn 0.9874 0.0271 0.1561
vn -0.9998 0.0055 0.0182
vn 0.0065 0.9637 0.2669
vn 0.9541 0.0919 -0.2850
vn -0.0313 -0.8623 -0.5054
vn 0.0089 -0.9763 -0.2161
vn 0.9979 0.0056 -0.0642
vn 0.0164 0.9378 0.3469
vn -0.9914 0.0079 0.1308
vn -0.9421 -0.0819 -0.3253
vn 0.0063 0.9322 -0.3619
vn 0.9170 -0.0194 -0.3983
vn 0.0598 -0.9639 -0.2595
vn -0.6942 -0.2351 -0.6803
vn -0.5520 -0.2700 -0.7889
vn 0.0666 -0.9651 -0.2534
vn 0.1131 0.5395 -0.8343
vn -0.6390 0.2905 0.7123
vn 0.8868 -0.1886 -0.4220
vn -0.0379 -0.8834 -0.4670
vn 0.8052 -0.2079 -0.5554
vn 0.0907 -0.8934 -0.4400
vn 0.1186 0.3999 -0.9089
vn -0.1187 0.3377 -0.9337
vn 0.9662 0.0716 -0.2475
vn 0.0006 0.9771 0.2127
vn -0.9996 0.0285 -0.0054
vn -0.9997 0.0210 0.0129
vn 0.0093 0.9632 0.2686
vn 0.9598 0.0566 -0.2749
vn -0.0452 -0.8578 -0.5120
vn -0.0055 -0.9741 -0.2262
vn 0.9983 -0.0048 -0.0582
vn -0.0114 0.9464 0.3227
vn -0.9878 -0.0271 0.1532
vn -0.9066 -0.0161 -0.4216
vn 0.0244 0.9423 -0.3337
vn 0.9531 -0.1196 -0.2782
vn 0.0112 -0.9513 -0.3080
s off
f 31/1/1 9/2/1 10/3/1
f 4/4/2 7/5/2 3/6/2
f 19/7/3 6/8/3 5/9/3
f 5/10/4 23/11/4 24/12/4
f 17/13/5 5/9/5 1/14/5
f 18/15/6 6/8/6 20/16/6
f 14/17/7 9/2/7 13/18/7
f 14/17/8 11/19/8 10/3/8
f 13/18/9 12/20/9 16/21/9
f 16/21/10 11/19/10 15/22/10
f 3/6/11 13/23/11 4/4/11
f 7/5/12 14/24/12 3/6/12
f 4/4/13 16/25/13 8/26/13
f 8/26/14 15/27/14 7/5/14
f 29/28/15 20/29/15 32/30/15
f 30/31/16 17/32/16 31/1/16
f 32/30/17 19/33/17 30/31/17
f 2/34/18 17/13/18 1/14/18
f 34/35/19 28/36/19 25/37/19
f 1/38/20 22/39/20 2/40/20
f 1/38/21 24/12/21 21/41/21
f 2/40/22 23/11/22 6/42/22
f 27/43/23 25/44/23 28/45/23
f 34/35/24 26/46/24 35/47/24
f 35/47/25 27/48/25 36/49/25
f 33/50/26 27/48/26 28/36/26
f 12/20/27 30/31/27 11/19/27
f 10/3/28 30/31/28 31/1/28
f 12/20/29 29/28/29 32/30/29
f 17/32/30 29/28/30 31/1/30
f 39/51/31 33/50/31 40/52/31
f 39/51/32 35/47/32 36/49/32
f 38/53/33 34/35/33 35/47/33
f 40/52/34 34/35/34 37/54/34
f 44/55/35 37/54/35 41/56/35
f 42/57/36 37/54/36 38/53/36
f 43/58/37 38/53/37 39/51/37
f 43/58/38 40/52/38 44/55/38
f 23/11/39 44/55/39 24/12/39
f 23/11/40 42/57/40 43/58/40
f 22/39/41 41/56/41 42/57/41
f 24/12/42 41/56/42 21/41/42
f 31/1/1 29/28/1 9/2/1
f 4/4/2 8/26/2 7/5/2
f 19/7/43 20/16/43 6/8/43
f 5/10/44 6/42/44 23/11/44
f 17/13/45 19/7/45 5/9/45
f 18/15/46 2/34/46 6/8/46
f 14/17/7 10/3/7 9/2/7
f 14/17/8 15/22/8 11/19/8
f 13/18/9 9/2/9 12/20/9
f 16/21/10 12/20/10 11/19/10
f 3/6/11 14/24/11 13/23/11
f 7/5/12 15/27/12 14/24/12
f 4/4/13 13/23/13 16/25/13
f 8/26/47 16/25/47 15/27/47
f 29/28/15 18/59/15 20/29/15
f 30/31/16 19/33/16 17/32/16
f 32/30/17 20/29/17 19/33/17
f 2/34/48 18/15/48 17/13/48
f 34/35/49 33/50/49 28/36/49
f 1/38/50 21/41/50 22/39/50
f 1/38/51 5/10/51 24/12/51
f 2/40/52 22/39/52 23/11/52
f 27/43/53 26/60/53 25/44/53
f 34/35/54 25/37/54 26/46/54
f 35/47/55 26/46/55 27/48/55
f 33/50/56 36/49/56 27/48/56
f 12/20/27 32/30/27 30/31/27
f 10/3/28 11/19/28 30/31/28
f 12/20/29 9/2/29 29/28/29
f 17/32/30 18/59/30 29/28/30
f 39/51/57 36/49/57 33/50/57
f 39/51/58 38/53/58 35/47/58
f 38/53/59 37/54/59 34/35/59
f 40/52/60 33/50/60 34/35/60
f 44/55/61 40/52/61 37/54/61
f 42/57/62 41/56/62 37/54/62
f 43/58/63 42/57/63 38/53/63
f 43/58/64 39/51/64 40/52/64
f 23/11/65 43/58/65 44/55/65
f 23/11/66 22/39/66 42/57/66
f 22/39/67 21/41/67 41/56/67
f 24/12/68 44/55/68 41/56/68
