# Blender v3.2.1 OBJ File: 'Modeling.blend'
# www.blender.org
o Eye_Cube.004
v 0.120689 0.209453 -0.280776
v 0.078590 0.530672 -0.344324
v 0.393485 0.404967 -0.036250
v 0.377761 0.520863 -0.059707
v -0.042939 0.244999 0.001447
v -0.084990 0.566227 -0.062053
v 0.336344 0.418237 0.067615
v 0.320620 0.534132 0.044157
v 0.406908 0.593083 -0.149307
v 0.444762 0.314070 -0.092834
v 0.307197 0.346016 0.157214
v 0.269343 0.625029 0.100742
v 0.373668 0.538596 -0.091903
v 0.395746 0.375870 -0.058967
v 0.315515 0.394502 0.086867
v 0.293437 0.557228 0.053931
v 0.275124 0.139884 -0.288417
v 0.208688 0.629560 -0.387528
v 0.033693 0.195950 0.150427
v -0.032743 0.685626 0.051316
v 0.007900 0.282581 -0.262521
v -0.011934 0.445756 -0.293230
v -0.100503 0.462534 -0.155734
v -0.080711 0.299350 -0.125068
v 0.029341 0.389830 -0.634598
v 0.029284 0.419812 -0.630103
v 0.001203 0.421448 -0.641403
v 0.001262 0.391469 -0.645896
v 0.318036 0.655891 -0.330733
v 0.143041 0.222280 0.207221
v 0.384472 0.166214 -0.231622
v 0.076605 0.711957 0.108110
v -0.071293 0.353188 -0.526469
v -0.006823 0.349919 -0.501849
v -0.007080 0.418499 -0.492324
v -0.071551 0.421768 -0.516943
v -0.031852 0.322063 -0.416677
v -0.031139 0.419607 -0.412176
v -0.127203 0.421314 -0.414929
v -0.127914 0.323769 -0.419403
v -0.044531 0.318615 -0.330429
v -0.046892 0.408620 -0.338751
v -0.124547 0.411189 -0.296174
v -0.122079 0.321212 -0.287837
vt 0.306957 0.787231
vt 0.301787 0.795483
vt 0.301787 0.789493
vt 0.466589 0.911379
vt 0.305916 0.981674
vt 0.305916 0.911379
vt 0.307676 0.787070
vt 0.302706 0.797513
vt 0.302706 0.789244
vt 0.581393 0.990018
vt 0.613709 0.976632
vt 0.613709 0.976632
vt 0.283807 0.789244
vt 0.278837 0.787070
vt 0.307676 0.799687
vt 0.283807 0.797513
vt 0.298934 0.790741
vt 0.298934 0.794235
vt 0.290948 0.790741
vt 0.288094 0.795483
vt 0.290948 0.794235
vt 0.288094 0.789493
vt 0.499051 0.995876
vt 0.466589 0.981674
vt 0.499051 0.897177
vt 0.273454 0.995876
vt 0.273454 0.897177
vt 0.282925 0.797745
vt 0.306957 0.797745
vt 0.282925 0.797745
vt 0.282925 0.787231
vt 0.306957 0.787231
vt 0.282925 0.787231
vt 0.660678 0.923831
vt 0.640921 0.899387
vt 0.652951 0.899387
vt 0.712479 0.990018
vt 0.680163 0.976632
vt 0.712479 0.990018
vt 0.680163 0.976632
vt 0.581393 0.990018
vt 0.649999 0.950003
vt 0.637755 0.944647
vt 0.649999 0.944647
vt 0.660678 0.923831
vt 0.652951 0.899387
vt 0.640921 0.899387
vt 0.633194 0.923831
vt 0.633194 0.923831
vt 0.306957 0.797745
vt 0.627535 0.941255
vt 0.627535 0.941255
vt 0.666337 0.941255
vt 0.666337 0.941255
vt 0.664888 0.958386
vt 0.664888 0.958386
vt 0.628984 0.958386
vt 0.628984 0.958386
vt 0.278837 0.799687
vt 0.637755 0.950003
vn 0.9023 0.0354 -0.4297
vn 0.8678 0.2090 0.4507
vn -0.8926 -0.0279 0.4500
vn -0.9636 -0.0683 0.2583
vn -0.4127 -0.9040 -0.1116
vn -0.5999 0.6731 -0.4324
vn 0.7321 0.2292 0.6415
vn 0.8131 0.4299 0.3924
vn 0.8746 -0.0235 0.4842
vn 0.9557 0.1773 0.2352
vn 0.9907 0.1226 -0.0584
vn 0.8130 -0.3178 0.4879
vn 0.6781 0.6768 0.2866
vn 0.5004 0.2365 0.8329
vn -0.1318 0.9716 -0.1966
vn 0.1318 -0.9716 0.1966
vn -0.4790 0.1112 0.8707
vn -0.1425 -0.2100 -0.9673
vn 0.0542 -0.9602 -0.2739
vn -0.3116 -0.2235 -0.9236
vn -0.5555 -0.8016 -0.2211
vn -0.6696 0.5506 -0.4985
vn 0.3766 0.1380 -0.9160
vn 0.9663 -0.0363 0.2547
vn 0.0422 0.9989 0.0221
vn -0.8621 0.0665 -0.5024
vn 0.1335 0.2140 0.9677
vn 0.6237 -0.6549 0.4268
vn 0.4121 0.9043 0.1112
vn 0.4790 -0.1112 -0.8707
vn -0.8868 0.0276 -0.4614
vn 0.0174 0.9998 0.0139
vn 0.9570 -0.0364 0.2878
vn 0.0636 -0.9539 -0.2933
vn -0.0165 -0.9990 -0.0424
vn 0.9781 -0.0167 0.2073
vn 0.0783 0.9935 0.0830
vn -0.9988 -0.0233 0.0438
vn -0.9689 -0.0731 0.2364
vn -0.2741 0.9174 -0.2885
vn 0.8057 -0.0335 -0.5914
vn -0.2103 -0.9215 -0.3266
vn -0.8948 -0.0313 0.4453
vn -0.9661 -0.0778 0.2461
vn -0.3819 -0.9181 -0.1058
vn -0.6325 0.6441 -0.4302
vn 0.8130 -0.3177 0.4879
vn -0.1557 -0.2162 -0.9638
vn 0.0559 -0.9602 -0.2738
vn -0.2879 -0.2108 -0.9342
vn -0.4930 -0.8430 -0.2150
vn -0.7284 0.4857 -0.4833
vn 0.9667 -0.0316 0.2538
vn 0.0491 0.9985 0.0225
vn -0.8609 0.0737 -0.5034
vn -0.8762 0.0631 -0.4777
vn 0.0502 0.9987 0.0012
vn 0.9610 -0.0198 0.2759
vn -0.0095 -0.9629 -0.2696
vn -0.0431 -0.9989 -0.0175
vn 0.9884 0.0395 0.1469
vn 0.0132 0.9885 0.1507
vn -0.9997 0.0062 0.0229
vn -0.9849 -0.0110 0.1727
vn -0.2433 0.8347 -0.4941
vn 0.7860 -0.0207 -0.6179
vn -0.2737 -0.9600 -0.0594
s off
f 31/1/1 9/2/1 10/3/1
f 3/4/2 8/5/2 7/6/2
f 19/7/3 6/8/3 5/9/3
f 5/10/4 23/11/4 24/12/4
f 19/7/5 1/13/5 17/14/5
f 20/15/6 2/16/6 6/8/6
f 14/17/7 9/2/7 13/18/7
f 15/19/8 10/3/8 14/17/8
f 13/18/9 12/20/9 16/21/9
f 15/19/10 12/20/10 11/22/10
f 3/4/11 13/23/11 4/24/11
f 7/6/12 14/25/12 3/4/12
f 4/24/13 16/26/13 8/5/13
f 8/5/14 15/27/14 7/6/14
f 32/28/15 18/29/15 20/30/15
f 30/31/16 17/32/16 31/1/16
f 32/28/17 19/33/17 30/31/17
f 2/16/18 17/14/18 1/13/18
f 34/34/19 28/35/19 25/36/19
f 1/37/20 22/38/20 2/39/20
f 5/10/21 21/40/21 1/37/21
f 6/41/22 22/38/22 23/11/22
f 27/42/23 25/43/23 28/44/23
f 35/45/24 25/36/24 26/46/24
f 35/45/25 27/47/25 36/48/25
f 36/48/26 28/35/26 33/49/26
f 12/20/27 30/31/27 11/22/27
f 11/22/28 31/1/28 10/3/28
f 9/2/29 32/28/29 12/20/29
f 17/32/30 29/50/30 31/1/30
f 39/51/31 33/49/31 40/52/31
f 38/53/32 36/48/32 39/51/32
f 38/53/33 34/34/33 35/45/33
f 37/54/34 33/49/34 34/34/34
f 41/55/35 40/52/35 37/54/35
f 42/56/36 37/54/36 38/53/36
f 42/56/37 39/51/37 43/57/37
f 43/57/38 40/52/38 44/58/38
f 23/11/39 44/58/39 24/12/39
f 22/38/40 43/57/40 23/11/40
f 22/38/41 41/55/41 42/56/41
f 21/40/42 44/58/42 41/55/42
f 31/1/1 29/50/1 9/2/1
f 3/4/2 4/24/2 8/5/2
f 19/7/43 20/15/43 6/8/43
f 5/10/44 6/41/44 23/11/44
f 19/7/45 5/9/45 1/13/45
f 20/15/46 18/59/46 2/16/46
f 14/17/7 10/3/7 9/2/7
f 15/19/8 11/22/8 10/3/8
f 13/18/9 9/2/9 12/20/9
f 15/19/10 16/21/10 12/20/10
f 3/4/11 14/25/11 13/23/11
f 7/6/47 15/27/47 14/25/47
f 4/24/13 13/23/13 16/26/13
f 8/5/14 16/26/14 15/27/14
f 32/28/15 29/50/15 18/29/15
f 30/31/16 19/33/16 17/32/16
f 32/28/17 20/30/17 19/33/17
f 2/16/48 18/59/48 17/14/48
f 34/34/49 33/49/49 28/35/49
f 1/37/50 21/40/50 22/38/50
f 5/10/51 24/12/51 21/40/51
f 6/41/52 2/39/52 22/38/52
f 27/42/23 26/60/23 25/43/23
f 35/45/53 34/34/53 25/36/53
f 35/45/54 26/46/54 27/47/54
f 36/48/55 27/47/55 28/35/55
f 12/20/27 32/28/27 30/31/27
f 11/22/28 30/31/28 31/1/28
f 9/2/29 29/50/29 32/28/29
f 17/32/30 18/29/30 29/50/30
f 39/51/56 36/48/56 33/49/56
f 38/53/57 35/45/57 36/48/57
f 38/53/58 37/54/58 34/34/58
f 37/54/59 40/52/59 33/49/59
f 41/55/60 44/58/60 40/52/60
f 42/56/61 41/55/61 37/54/61
f 42/56/62 38/53/62 39/51/62
f 43/57/63 39/51/63 40/52/63
f 23/11/64 43/57/64 44/58/64
f 22/38/65 42/56/65 43/57/65
f 22/38/66 21/40/66 41/55/66
f 21/40/67 24/12/67 44/58/67
