# Blender v3.2.1 OBJ File: 'Cube - Kopie.blend'
# www.blender.org
o Eye_Cube.004
v 0.137961 0.227246 -0.023145
v 0.155548 0.552953 -0.074514
v -0.163126 0.390730 0.221113
v -0.156539 0.508298 0.202046
v -0.137373 0.213122 -0.203562
v -0.119772 0.538825 -0.254963
v -0.261872 0.385443 0.154402
v -0.255285 0.503012 0.135334
v -0.082414 0.594755 0.235574
v -0.098272 0.311715 0.281478
v -0.335997 0.298987 0.120874
v -0.320139 0.582027 0.074969
v -0.127242 0.530777 0.199992
v -0.136490 0.365702 0.226764
v -0.275137 0.358278 0.133096
v -0.265888 0.523353 0.106324
v 0.137217 0.165312 0.138363
v 0.165049 0.662057 0.057800
v -0.279998 0.142974 -0.143503
v -0.252166 0.639718 -0.224066
v 0.116584 0.291873 -0.147078
v 0.124834 0.457169 -0.171625
v -0.016751 0.450546 -0.258616
v -0.025013 0.285254 -0.234040
v 0.003840 0.390565 -0.645404
v 0.003932 0.420626 -0.641486
v -0.025323 0.419676 -0.633599
v -0.025407 0.389617 -0.637517
v 0.094705 0.682620 0.160293
v -0.350342 0.163538 -0.041010
v 0.066873 0.185876 0.240856
v -0.322510 0.660282 -0.121573
v -0.006508 0.351827 -0.499966
v 0.060148 0.353767 -0.518434
v 0.060526 0.422495 -0.510002
v -0.006130 0.420555 -0.491535
v 0.105181 0.326027 -0.414867
v 0.104995 0.423599 -0.409867
v 0.008079 0.422656 -0.402906
v 0.008264 0.325085 -0.407925
v 0.109054 0.322248 -0.295427
v 0.109827 0.412541 -0.300575
v 0.022815 0.411735 -0.322654
v 0.022085 0.321428 -0.317540
vt 0.211879 0.138797
vt 0.174073 0.690602
vt 0.174073 0.290022
vt 0.488173 0.061259
vt 0.258769 0.978878
vt 0.258769 0.061259
vt 0.546734 0.158483
vt 0.577023 0.740357
vt 0.577023 0.279640
vt 0.559798 0.314091
vt 0.592633 0.643466
vt 0.592633 0.445432
vt 0.722491 0.158483
vt 0.692202 0.279640
vt 0.722491 0.861514
vt 0.546734 0.861514
vt 0.153203 0.373499
vt 0.153203 0.607126
vt 0.073928 0.290022
vt 0.073928 0.690602
vt 0.094797 0.607126
vt 0.094797 0.373499
vt 0.407042 0.370060
vt 0.405436 0.305921
vt 0.405436 0.380841
vt 0.407042 0.316702
vt 0.407042 0.316702
vt 0.407042 0.370060
vt 0.405436 0.380841
vt 0.405436 0.305921
vt 0.036121 0.841827
vt 0.211879 0.841827
vt 0.036121 0.841827
vt 0.036121 0.138797
vt 0.211879 0.138797
vt 0.036121 0.138797
vt 0.692202 0.740357
vt 0.587136 0.929396
vt 0.511975 0.826432
vt 0.587136 0.806267
vt 0.674977 0.314091
vt 0.642141 0.643466
vt 0.674977 0.774808
vt 0.642141 0.445432
vt 0.559798 0.774808
vt 0.519458 0.462233
vt 0.519458 0.427504
vt 0.519458 0.427504
vt 0.583576 0.865305
vt 0.507294 0.760805
vt 0.507294 0.844840
vt 0.587136 0.929396
vt 0.511975 0.826432
vt 0.511975 0.909232
vt 0.583576 0.865305
vt 0.507294 0.760805
vt 0.583576 0.740340
vt 0.211879 0.841827
vt 0.637951 0.879893
vt 0.637951 0.725752
vt 0.640712 0.943770
vt 0.587136 0.806267
vt 0.637951 0.879893
vt 0.583576 0.740340
vt 0.640712 0.943770
vt 0.640712 0.791894
vt 0.695100 0.958361
vt 0.695100 0.777302
vt 0.693150 0.894702
vt 0.637951 0.725752
vt 0.695100 0.958361
vt 0.640712 0.791893
vt 0.693150 0.894702
vt 0.693150 0.710943
vt 0.748349 0.909512
vt 0.748349 0.696133
vt 0.749488 0.972952
vt 0.695100 0.777302
vt 0.748349 0.909512
vt 0.693150 0.710943
vt 0.749488 0.972952
vt 0.749488 0.762710
vt 0.488173 0.978878
vt 0.511975 0.909232
vt 0.519458 0.462233
vt 0.507294 0.844840
vt 0.749488 0.762710
vt 0.748349 0.696133
vn 0.3311 0.1330 0.9342
vn -0.5583 0.1632 0.8134
vn -0.3299 -0.1297 -0.9350
vn -0.1770 -0.1361 -0.9747
vn 0.2712 -0.8991 -0.3435
vn 0.3804 0.6883 -0.6176
vn -0.7360 0.1484 0.6605
vn -0.5300 0.3887 0.7537
vn -0.5558 -0.0713 0.8283
vn -0.3497 0.1690 0.9215
vn -0.0559 0.1629 0.9851
vn -0.5079 -0.3642 0.7806
vn -0.4514 0.6447 0.6170
vn -0.9033 0.1175 0.4126
vn 0.0552 0.9856 -0.1598
vn -0.0552 -0.9856 0.1598
vn -0.8278 -0.0443 -0.5593
vn 0.9983 -0.0566 -0.0171
vn -0.0440 -0.9646 -0.2600
vn 0.9713 -0.0873 -0.2211
vn 0.3330 -0.8113 -0.4805
vn 0.4404 0.5436 -0.7145
vn -0.2621 0.1255 -0.9569
vn 0.9172 0.0487 -0.3955
vn -0.0329 0.9995 -0.0017
vn -0.9910 -0.0109 0.1332
vn -0.9974 0.0618 0.0367
vn -0.3775 -0.6935 0.6137
vn -0.2888 0.8883 0.3572
vn 0.8278 0.0443 0.5593
vn -0.9878 -0.0099 0.1557
vn -0.0341 0.9993 -0.0182
vn 0.9128 0.0448 -0.4059
vn -0.0089 -0.9669 -0.2551
vn 0.0176 -0.9993 -0.0322
vn 0.9990 0.0041 -0.0437
vn 0.0000 0.9909 0.1348
vn -0.9883 0.0166 0.1518
vn -0.8647 -0.0313 -0.5013
vn 0.1098 0.8786 -0.4647
vn 0.9938 -0.0148 -0.1105
vn 0.1715 -0.9634 -0.2060
vn -0.3210 -0.1341 -0.9376
vn -0.1593 -0.1455 -0.9765
vn 0.2877 -0.8893 -0.3554
vn 0.3624 0.7061 -0.6083
vn 0.9980 -0.0596 -0.0225
vn -0.0388 -0.9649 -0.2598
vn 0.9745 -0.0798 -0.2097
vn 0.3678 -0.7841 -0.4999
vn 0.4051 0.5836 -0.7038
vn -0.2620 0.1255 -0.9569
vn 0.9179 0.0433 -0.3945
vn -0.0295 0.9996 -0.0015
vn -0.9909 -0.0147 0.1340
vn -0.9872 -0.0140 0.1586
vn -0.0102 0.9999 -0.0065
vn 0.9190 0.0219 -0.3937
vn -0.0473 -0.9612 -0.2717
vn 0.0067 -0.9991 -0.0415
vn 0.9994 -0.0104 -0.0327
vn -0.0351 0.9941 0.1021
vn -0.9838 -0.0111 0.1791
vn -0.8565 -0.0223 -0.5157
vn 0.1654 0.9259 -0.3397
vn 0.9963 -0.0590 -0.0627
vn 0.0975 -0.9321 -0.3488
s off
f 31/1/1 9/2/1 10/3/1
f 3/4/2 8/5/2 7/6/2
f 19/7/3 6/8/3 5/9/3
f 5/10/4 23/11/4 24/12/4
f 17/13/5 5/9/5 1/14/5
f 18/15/6 6/8/6 20/16/6
f 14/17/7 9/2/7 13/18/7
f 14/17/8 11/19/8 10/3/8
f 13/18/9 12/20/9 16/21/9
f 15/22/10 12/20/10 11/19/10
f 4/23/11 14/24/11 13/25/11
f 7/26/12 14/24/12 3/27/12
f 8/28/13 13/25/13 16/29/13
f 8/28/14 15/30/14 7/26/14
f 32/31/15 18/32/15 20/33/15
f 31/1/16 19/34/16 17/35/16
f 32/31/17 19/34/17 30/36/17
f 2/37/18 17/13/18 1/14/18
f 33/38/19 25/39/19 34/40/19
f 1/41/20 22/42/20 2/43/20
f 1/41/21 24/12/21 21/44/21
f 2/43/22 23/11/22 6/45/22
f 27/46/23 25/47/23 28/48/23
f 35/49/24 25/50/24 26/51/24
f 36/52/25 26/53/25 27/54/25
f 36/55/26 28/56/26 33/57/26
f 12/20/27 30/36/27 11/19/27
f 11/19/28 31/1/28 10/3/28
f 9/2/29 32/31/29 12/20/29
f 17/35/30 29/58/30 31/1/30
f 39/59/31 33/57/31 40/60/31
f 39/61/32 35/62/32 36/52/32
f 38/63/33 34/64/33 35/49/33
f 40/65/34 34/40/34 37/66/34
f 44/67/35 37/66/35 41/68/35
f 42/69/36 37/70/36 38/63/36
f 43/71/37 38/72/37 39/61/37
f 43/73/38 40/60/38 44/74/38
f 23/75/39 44/74/39 24/76/39
f 23/77/40 42/78/40 43/71/40
f 22/79/41 41/80/41 42/69/41
f 24/81/42 41/68/42 21/82/42
f 31/1/1 29/58/1 9/2/1
f 3/4/2 4/83/2 8/5/2
f 19/7/43 20/16/43 6/8/43
f 5/10/44 6/45/44 23/11/44
f 17/13/45 19/7/45 5/9/45
f 18/15/46 2/37/46 6/8/46
f 14/17/7 10/3/7 9/2/7
f 14/17/8 15/22/8 11/19/8
f 13/18/9 9/2/9 12/20/9
f 15/22/10 16/21/10 12/20/10
f 4/23/11 3/27/11 14/24/11
f 7/26/12 15/30/12 14/24/12
f 8/28/13 4/23/13 13/25/13
f 8/28/14 16/29/14 15/30/14
f 32/31/15 29/58/15 18/32/15
f 31/1/16 30/36/16 19/34/16
f 32/31/17 20/33/17 19/34/17
f 2/37/47 18/15/47 17/13/47
f 33/38/48 28/84/48 25/39/48
f 1/41/49 21/44/49 22/42/49
f 1/41/50 5/10/50 24/12/50
f 2/43/51 22/42/51 23/11/51
f 27/46/52 26/85/52 25/47/52
f 35/49/53 34/64/53 25/50/53
f 36/52/54 35/62/54 26/53/54
f 36/55/55 27/86/55 28/56/55
f 12/20/27 32/31/27 30/36/27
f 11/19/28 30/36/28 31/1/28
f 9/2/29 29/58/29 32/31/29
f 17/35/30 18/32/30 29/58/30
f 39/59/56 36/55/56 33/57/56
f 39/61/57 38/72/57 35/62/57
f 38/63/58 37/70/58 34/64/58
f 40/65/59 33/38/59 34/40/59
f 44/67/60 40/65/60 37/66/60
f 42/69/61 41/80/61 37/70/61
f 43/71/62 42/78/62 38/72/62
f 43/73/63 39/59/63 40/60/63
f 23/75/64 43/73/64 44/74/64
f 23/77/65 22/87/65 42/78/65
f 22/79/66 21/88/66 41/80/66
f 24/81/67 44/67/67 41/68/67
