# Blender v3.2.1 OBJ File: 'Modeling.blend'
# www.blender.org
o Eye_Cube.004
v 0.185840 0.218622 -0.055623
v 0.184802 0.548756 -0.045577
v -0.128855 0.315181 0.206102
v -0.129229 0.434412 0.209745
v -0.085177 0.223473 -0.242212
v -0.086197 0.553608 -0.232211
v -0.225913 0.316995 0.136781
v -0.226287 0.436225 0.140424
v -0.061190 0.517041 0.261092
v -0.060289 0.230000 0.252322
v -0.293952 0.234366 0.085434
v -0.294853 0.521406 0.094205
v -0.101348 0.458517 0.212810
v -0.100822 0.291109 0.207695
v -0.237100 0.293655 0.110362
v -0.237625 0.461064 0.115478
v 0.186256 0.127239 0.090994
v 0.184674 0.631005 0.106387
v -0.223830 0.134901 -0.201900
v -0.225412 0.638667 -0.186506
v 0.162003 0.303344 -0.165794
v 0.161498 0.470707 -0.160753
v 0.021735 0.472989 -0.249783
v 0.022223 0.305624 -0.254784
v -0.000217 0.386774 -0.644009
v -0.000448 0.417064 -0.642625
v -0.028832 0.416318 -0.631991
v -0.028571 0.386036 -0.633381
v 0.111427 0.627644 0.208854
v -0.297078 0.131540 -0.099432
v 0.113009 0.123878 0.193461
v -0.298659 0.635306 -0.084039
v 0.004348 0.360610 -0.494174
v 0.067958 0.362004 -0.521346
v 0.067408 0.431216 -0.519094
v 0.003798 0.429822 -0.491922
v 0.126449 0.344875 -0.424705
v 0.125919 0.442608 -0.422137
v 0.030616 0.441623 -0.404256
v 0.031144 0.343891 -0.406843
v 0.143833 0.343916 -0.308433
v 0.143412 0.434349 -0.306179
v 0.055628 0.434593 -0.323369
v 0.056106 0.344161 -0.325669
vt 0.306957 0.787231
vt 0.301787 0.795483
vt 0.301787 0.789493
vt 0.466589 0.911379
vt 0.305916 0.981674
vt 0.305916 0.911379
vt 0.307676 0.799687
vt 0.302706 0.789244
vt 0.307676 0.787070
vt 0.581393 0.990018
vt 0.613709 0.976632
vt 0.581393 0.990018
vt 0.278837 0.787070
vt 0.283807 0.789244
vt 0.278837 0.799687
vt 0.302706 0.797513
vt 0.298934 0.794235
vt 0.290948 0.790741
vt 0.298934 0.790741
vt 0.288094 0.795483
vt 0.290948 0.794235
vt 0.288094 0.789493
vt 0.499051 0.995876
vt 0.466589 0.981674
vt 0.499051 0.897177
vt 0.273454 0.995876
vt 0.273454 0.897177
vt 0.306957 0.797745
vt 0.282925 0.797745
vt 0.282925 0.797745
vt 0.282925 0.787231
vt 0.306957 0.787231
vt 0.282925 0.787231
vt 0.660678 0.923831
vt 0.640921 0.899387
vt 0.652951 0.899387
vt 0.712479 0.990018
vt 0.680163 0.976632
vt 0.680163 0.976632
vt 0.712479 0.990018
vt 0.613709 0.976632
vt 0.649999 0.950003
vt 0.637755 0.944647
vt 0.649999 0.944647
vt 0.660678 0.923831
vt 0.652951 0.899387
vt 0.640921 0.899387
vt 0.633194 0.923831
vt 0.633194 0.923831
vt 0.627535 0.941255
vt 0.627535 0.941255
vt 0.666337 0.941255
vt 0.666337 0.941255
vt 0.628984 0.958386
vt 0.664888 0.958386
vt 0.664888 0.958386
vt 0.628984 0.958386
vt 0.283807 0.797513
vt 0.306957 0.797745
vt 0.637755 0.950003
vn 0.3060 -0.0281 0.9516
vn -0.5813 -0.0267 0.8132
vn -0.2957 0.0282 -0.9549
vn -0.1385 0.0296 -0.9899
vn 0.3299 -0.8007 -0.5000
vn 0.3462 0.8157 -0.4634
vn -0.7551 -0.0224 0.6552
vn -0.5660 0.2073 0.7979
vn -0.5646 -0.2591 0.7837
vn -0.3754 -0.0295 0.9264
vn -0.0830 -0.0307 0.9961
vn -0.4978 -0.5345 0.6830
vn -0.5010 0.4887 0.7143
vn -0.9159 -0.0151 0.4012
vn -0.0031 0.9995 0.0305
vn 0.0031 -0.9995 -0.0305
vn -0.8137 0.0152 -0.5811
vn 1.0000 0.0032 -0.0009
vn -0.0404 -0.9835 -0.1761
vn 0.9789 0.0091 -0.2042
vn 0.3797 -0.6918 -0.6142
vn 0.4190 0.6897 -0.5905
vn -0.3516 0.0399 -0.9353
vn 0.8747 0.0288 -0.4838
vn -0.0571 0.9949 -0.0826
vn -0.9737 -0.0151 0.2275
vn -0.9998 -0.0037 0.0190
vn -0.3444 -0.8180 0.4608
vn -0.3494 0.7861 0.5098
vn 0.8137 -0.0152 0.5811
vn -0.9566 -0.0129 0.2911
vn -0.0696 0.9913 -0.1121
vn 0.8547 0.0237 -0.5186
vn -0.0203 -0.9865 -0.1626
vn -0.0012 -1.0000 -0.0081
vn 0.9889 0.0093 -0.1485
vn 0.0056 0.9964 0.0849
vn -0.9557 -0.0125 0.2939
vn -0.9035 0.0061 -0.4285
vn 0.0866 0.8990 -0.4292
vn 0.9921 0.0068 -0.1251
vn 0.1689 -0.9421 -0.2895
vn -0.2963 0.0280 -0.9547
vn -0.1394 0.0292 -0.9898
vn 0.3514 -0.7834 -0.5126
vn 0.3248 0.8319 -0.4500
vn -0.0502 -0.9845 -0.1680
vn 0.9788 0.0093 -0.2046
vn 0.4231 -0.6498 -0.6315
vn 0.3755 0.7302 -0.5708
vn -0.3515 0.0401 -0.9353
vn 0.8758 0.0227 -0.4822
vn -0.9733 -0.0189 0.2286
vn -0.9555 -0.0172 0.2946
vn -0.0289 0.9946 -0.0994
vn 0.8568 0.0182 -0.5153
vn -0.0521 -0.9837 -0.1723
vn 0.0104 -0.9999 0.0001
vn 0.9890 0.0083 -0.1478
vn -0.0115 0.9973 0.0728
vn -0.9556 -0.0130 0.2944
vn -0.9063 0.0100 -0.4226
vn 0.1809 0.9486 -0.2597
vn 0.9922 0.0077 -0.1242
vn 0.0848 -0.8918 -0.4443
s off
f 31/1/1 9/2/1 10/3/1
f 3/4/2 8/5/2 7/6/2
f 20/7/3 5/8/3 19/9/3
f 6/10/4 24/11/4 5/12/4
f 17/13/5 5/8/5 1/14/5
f 18/15/6 6/16/6 20/7/6
f 13/17/7 10/3/7 9/2/7
f 15/18/8 10/3/8 14/19/8
f 13/17/9 12/20/9 16/21/9
f 15/18/10 12/20/10 11/22/10
f 3/4/11 13/23/11 4/24/11
f 7/6/12 14/25/12 3/4/12
f 4/24/13 16/26/13 8/5/13
f 7/6/14 16/26/14 15/27/14
f 29/28/15 20/29/15 32/30/15
f 30/31/16 17/32/16 31/1/16
f 32/30/17 19/33/17 30/31/17
f 1/14/18 18/15/18 17/13/18
f 34/34/19 28/35/19 25/36/19
f 2/37/20 21/38/20 22/39/20
f 1/40/21 24/11/21 21/38/21
f 2/37/22 23/41/22 6/10/22
f 27/42/23 25/43/23 28/44/23
f 35/45/24 25/36/24 26/46/24
f 35/45/25 27/47/25 36/48/25
f 36/48/26 28/35/26 33/49/26
f 11/22/27 32/30/27 30/31/27
f 11/22/28 31/1/28 10/3/28
f 9/2/29 32/30/29 12/20/29
f 17/32/30 29/28/30 31/1/30
f 39/50/31 33/49/31 40/51/31
f 39/50/32 35/45/32 36/48/32
f 38/52/33 34/34/33 35/45/33
f 40/51/34 34/34/34 37/53/34
f 44/54/35 37/53/35 41/55/35
f 42/56/36 37/53/36 38/52/36
f 43/57/37 38/52/37 39/50/37
f 43/57/38 40/51/38 44/54/38
f 24/11/39 43/57/39 44/54/39
f 23/41/40 42/56/40 43/57/40
f 21/38/41 42/56/41 22/39/41
f 24/11/42 41/55/42 21/38/42
f 31/1/1 29/28/1 9/2/1
f 3/4/2 4/24/2 8/5/2
f 20/7/43 6/16/43 5/8/43
f 6/10/44 23/41/44 24/11/44
f 17/13/45 19/9/45 5/8/45
f 18/15/46 2/58/46 6/16/46
f 13/17/7 14/19/7 10/3/7
f 15/18/8 11/22/8 10/3/8
f 13/17/9 9/2/9 12/20/9
f 15/18/10 16/21/10 12/20/10
f 3/4/11 14/25/11 13/23/11
f 7/6/12 15/27/12 14/25/12
f 4/24/13 13/23/13 16/26/13
f 7/6/14 8/5/14 16/26/14
f 29/28/15 18/59/15 20/29/15
f 30/31/16 19/33/16 17/32/16
f 32/30/17 20/29/17 19/33/17
f 1/14/18 2/58/18 18/15/18
f 34/34/47 33/49/47 28/35/47
f 2/37/48 1/40/48 21/38/48
f 1/40/49 5/12/49 24/11/49
f 2/37/50 22/39/50 23/41/50
f 27/42/51 26/60/51 25/43/51
f 35/45/52 34/34/52 25/36/52
f 35/45/25 26/46/25 27/47/25
f 36/48/53 27/47/53 28/35/53
f 11/22/27 12/20/27 32/30/27
f 11/22/28 30/31/28 31/1/28
f 9/2/29 29/28/29 32/30/29
f 17/32/30 18/59/30 29/28/30
f 39/50/54 36/48/54 33/49/54
f 39/50/55 38/52/55 35/45/55
f 38/52/56 37/53/56 34/34/56
f 40/51/57 33/49/57 34/34/57
f 44/54/58 40/51/58 37/53/58
f 42/56/59 41/55/59 37/53/59
f 43/57/60 42/56/60 38/52/60
f 43/57/61 39/50/61 40/51/61
f 24/11/62 23/41/62 43/57/62
f 23/41/63 22/39/63 42/56/63
f 21/38/64 41/55/64 42/56/64
f 24/11/65 44/54/65 41/55/65
