# Blender v3.2.1 OBJ File: 'Cube - Kopie.blend'
# www.blender.org
o Eye_Cube.004
v 0.195009 0.201488 -0.031272
v 0.218135 0.521056 -0.110195
v -0.084233 0.395384 0.218118
v -0.075537 0.510637 0.188619
v -0.092343 0.181721 -0.190749
v -0.069205 0.501283 -0.269708
v -0.187392 0.387956 0.158688
v -0.178696 0.503209 0.129188
v 0.003179 0.596971 0.209682
v -0.017757 0.319504 0.280701
v -0.266108 0.301622 0.137625
v -0.245172 0.579089 0.066606
v -0.045804 0.531831 0.182733
v -0.058015 0.370006 0.224153
v -0.202859 0.359577 0.140708
v -0.190648 0.521402 0.099288
v 0.203110 0.153510 0.135667
v 0.239853 0.640474 0.011026
v -0.232755 0.122127 -0.115436
v -0.196012 0.609091 -0.240077
v 0.166943 0.256905 -0.159331
v 0.177686 0.419366 -0.196451
v 0.030221 0.410180 -0.272014
v 0.019467 0.247724 -0.234862
v -0.000430 0.395767 -0.646823
v 0.000415 0.425201 -0.639701
v -0.028109 0.423514 -0.629558
v -0.028917 0.394069 -0.636689
v 0.177259 0.671998 0.115736
v -0.295349 0.153651 -0.010726
v 0.140516 0.185034 0.240377
v -0.258606 0.640615 -0.135366
v 0.000978 0.341043 -0.505313
v 0.064576 0.345508 -0.532224
v 0.067255 0.412494 -0.514931
v 0.003657 0.408029 -0.488020
v 0.123276 0.303640 -0.438743
v 0.124421 0.400195 -0.424767
v 0.029550 0.397607 -0.404134
v 0.028402 0.301055 -0.418128
v 0.144596 0.288699 -0.316424
v 0.145157 0.378899 -0.320732
v 0.056307 0.378138 -0.332297
v 0.055794 0.287913 -0.328037
vt 0.211879 0.138797
vt 0.174073 0.690602
vt 0.174073 0.290022
vt 0.488173 0.978878
vt 0.258769 0.061259
vt 0.488173 0.061259
vt 0.546734 0.158483
vt 0.577023 0.740357
vt 0.577023 0.279640
vt 0.559798 0.314091
vt 0.592633 0.643466
vt 0.592633 0.445432
vt 0.722491 0.158483
vt 0.692202 0.279640
vt 0.722491 0.861514
vt 0.546734 0.861514
vt 0.153203 0.373499
vt 0.153203 0.607126
vt 0.073928 0.290022
vt 0.094797 0.607126
vt 0.073928 0.690602
vt 0.094797 0.373499
vt 0.407042 0.370060
vt 0.405436 0.305921
vt 0.405436 0.380841
vt 0.407042 0.316702
vt 0.405436 0.305921
vt 0.407042 0.370060
vt 0.405436 0.380841
vt 0.407042 0.316702
vt 0.211879 0.841827
vt 0.036121 0.841827
vt 0.036121 0.841827
vt 0.036121 0.138797
vt 0.211879 0.138797
vt 0.036121 0.138797
vt 0.692202 0.740357
vt 0.587136 0.806267
vt 0.511975 0.909232
vt 0.511975 0.826432
vt 0.674977 0.314091
vt 0.642141 0.643466
vt 0.674977 0.774808
vt 0.642141 0.445432
vt 0.559798 0.774808
vt 0.519458 0.462233
vt 0.519458 0.427504
vt 0.519458 0.427504
vt 0.583576 0.740340
vt 0.507294 0.844840
vt 0.583576 0.865305
vt 0.587136 0.806267
vt 0.511975 0.909232
vt 0.587136 0.929396
vt 0.583576 0.740340
vt 0.507294 0.844840
vt 0.507294 0.760805
vt 0.637951 0.879893
vt 0.637951 0.725752
vt 0.640712 0.943770
vt 0.637951 0.879893
vt 0.640712 0.943770
vt 0.640712 0.791894
vt 0.695100 0.958361
vt 0.695100 0.777302
vt 0.693150 0.894702
vt 0.637951 0.725752
vt 0.695100 0.958361
vt 0.640712 0.791893
vt 0.693150 0.894702
vt 0.693150 0.710943
vt 0.748349 0.909512
vt 0.748349 0.696133
vt 0.749488 0.972952
vt 0.695100 0.777302
vt 0.748349 0.909512
vt 0.693150 0.710943
vt 0.749488 0.972952
vt 0.749488 0.762710
vt 0.258769 0.978878
vt 0.211879 0.841827
vt 0.587136 0.929396
vt 0.519458 0.462233
vt 0.507294 0.760805
vt 0.511975 0.826432
vt 0.583576 0.865305
vt 0.749488 0.762710
vt 0.748349 0.696133
vn 0.3975 0.1993 0.8957
vn -0.4968 0.2502 0.8310
vn -0.3991 -0.1926 -0.8965
vn -0.2555 -0.1994 -0.9460
vn 0.2193 -0.9348 -0.2793
vn 0.3596 0.6157 -0.7012
vn -0.6848 0.2288 0.6919
vn -0.4661 0.4687 0.7504
vn -0.5001 0.0179 0.8658
vn -0.2813 0.2578 0.9243
vn 0.0159 0.2468 0.9689
vn -0.4641 -0.2796 0.8405
vn -0.3895 0.7095 0.5874
vn -0.8694 0.1831 0.4589
vn 0.0729 0.9662 -0.2473
vn -0.0729 -0.9662 0.2473
vn -0.8648 -0.0623 -0.4982
vn 0.9932 -0.0902 -0.0741
vn -0.0744 -0.9281 -0.3648
vn 0.9494 -0.1384 -0.2821
vn 0.2747 -0.8590 -0.4319
vn 0.4057 0.4627 -0.7882
vn -0.3383 0.2303 -0.9124
vn 0.8819 0.0845 -0.4638
vn -0.0217 0.9933 0.1135
vn -0.9769 -0.0246 0.2124
vn -0.9904 0.0993 0.0961
vn -0.3550 -0.6260 0.6944
vn -0.2380 0.9246 0.2975
vn 0.8648 0.0623 0.4982
vn -0.9574 -0.0303 0.2873
vn -0.0155 0.9917 0.1280
vn 0.8464 0.1011 -0.5228
vn -0.0570 -0.9240 -0.3781
vn 0.0252 -0.9918 -0.1255
vn 0.9812 0.0162 -0.1923
vn 0.0283 0.9674 0.2516
vn -0.9558 0.0193 0.2934
vn -0.9279 -0.0236 -0.3720
vn 0.0511 0.8909 -0.4514
vn 0.9687 -0.0179 -0.2477
vn 0.1719 -0.9605 -0.2188
vn -0.3824 -0.2019 -0.9017
vn -0.2224 -0.2187 -0.9501
vn 0.2358 -0.9264 -0.2935
vn 0.3392 0.6390 -0.6903
vn 0.9919 -0.0961 -0.0830
vn -0.0854 -0.9305 -0.3561
vn 0.9568 -0.1234 -0.2631
vn 0.3112 -0.8330 -0.4575
vn 0.3659 0.5131 -0.7765
vn -0.3381 0.2305 -0.9124
vn 0.8824 0.0866 -0.4625
vn -0.0191 0.9936 0.1114
vn -0.9760 -0.0170 0.2172
vn -0.9561 -0.0368 0.2906
vn 0.0021 0.9910 0.1339
vn 0.8578 0.0637 -0.5101
vn -0.1001 -0.9159 -0.3886
vn -0.0041 -0.9897 -0.1431
vn 0.9847 -0.0144 -0.1734
vn -0.0353 0.9777 0.2072
vn -0.9398 -0.0381 0.3397
vn -0.9202 -0.0132 -0.3912
vn 0.1130 0.9357 -0.3342
vn 0.9818 -0.1015 -0.1602
vn 0.0574 -0.9247 -0.3765
s off
f 31/1/1 9/2/1 10/3/1
f 4/4/2 7/5/2 3/6/2
f 19/7/3 6/8/3 5/9/3
f 5/10/4 23/11/4 24/12/4
f 17/13/5 5/9/5 1/14/5
f 18/15/6 6/8/6 20/16/6
f 14/17/7 9/2/7 13/18/7
f 14/17/8 11/19/8 10/3/8
f 16/20/9 9/2/9 12/21/9
f 16/20/10 11/19/10 15/22/10
f 4/23/11 14/24/11 13/25/11
f 3/26/12 15/27/12 14/24/12
f 8/28/13 13/25/13 16/29/13
f 8/28/14 15/27/14 7/30/14
f 29/31/15 20/32/15 32/33/15
f 31/1/16 19/34/16 17/35/16
f 32/33/17 19/34/17 30/36/17
f 2/37/18 17/13/18 1/14/18
f 34/38/19 28/39/19 25/40/19
f 1/41/20 22/42/20 2/43/20
f 1/41/21 24/12/21 21/44/21
f 2/43/22 23/11/22 6/45/22
f 27/46/23 25/47/23 28/48/23
f 34/49/24 26/50/24 35/51/24
f 35/52/25 27/53/25 36/54/25
f 33/55/26 27/56/26 28/57/26
f 12/21/27 30/36/27 11/19/27
f 10/3/28 30/36/28 31/1/28
f 9/2/29 32/33/29 12/21/29
f 17/35/30 29/31/30 31/1/30
f 39/58/31 33/55/31 40/59/31
f 39/60/32 35/52/32 36/54/32
f 38/61/33 34/49/33 35/51/33
f 40/62/34 34/38/34 37/63/34
f 44/64/35 37/63/35 41/65/35
f 42/66/36 37/67/36 38/61/36
f 43/68/37 38/69/37 39/60/37
f 43/70/38 40/59/38 44/71/38
f 23/72/39 44/71/39 24/73/39
f 23/74/40 42/75/40 43/68/40
f 22/76/41 41/77/41 42/66/41
f 24/78/42 41/65/42 21/79/42
f 31/1/1 29/31/1 9/2/1
f 4/4/2 8/80/2 7/5/2
f 19/7/43 20/16/43 6/8/43
f 5/10/44 6/45/44 23/11/44
f 17/13/45 19/7/45 5/9/45
f 18/15/46 2/37/46 6/8/46
f 14/17/7 10/3/7 9/2/7
f 14/17/8 15/22/8 11/19/8
f 16/20/9 13/18/9 9/2/9
f 16/20/10 12/21/10 11/19/10
f 4/23/11 3/26/11 14/24/11
f 3/26/12 7/30/12 15/27/12
f 8/28/13 4/23/13 13/25/13
f 8/28/14 16/29/14 15/27/14
f 29/31/15 18/81/15 20/32/15
f 31/1/16 30/36/16 19/34/16
f 32/33/17 20/32/17 19/34/17
f 2/37/47 18/15/47 17/13/47
f 34/38/48 33/82/48 28/39/48
f 1/41/49 21/44/49 22/42/49
f 1/41/50 5/10/50 24/12/50
f 2/43/51 22/42/51 23/11/51
f 27/46/52 26/83/52 25/47/52
f 34/49/53 25/84/53 26/50/53
f 35/52/54 26/85/54 27/53/54
f 33/55/55 36/86/55 27/56/55
f 12/21/27 32/33/27 30/36/27
f 10/3/28 11/19/28 30/36/28
f 9/2/29 29/31/29 32/33/29
f 17/35/30 18/81/30 29/31/30
f 39/58/56 36/86/56 33/55/56
f 39/60/57 38/69/57 35/52/57
f 38/61/58 37/67/58 34/49/58
f 40/62/59 33/82/59 34/38/59
f 44/64/60 40/62/60 37/63/60
f 42/66/61 41/77/61 37/67/61
f 43/68/62 42/75/62 38/69/62
f 43/70/63 39/58/63 40/59/63
f 23/72/64 43/70/64 44/71/64
f 23/74/65 22/87/65 42/75/65
f 22/76/66 21/88/66 41/77/66
f 24/78/67 44/64/67 41/65/67
