# Blender v3.2.1 OBJ File: 'Cube - Kopie.blend'
# www.blender.org
o Eye_Cube.004
v 0.191974 0.190230 -0.057627
v 0.202136 0.511242 -0.133429
v -0.001824 0.383524 0.261507
v 0.002000 0.499319 0.233117
v -0.128763 0.181572 -0.134893
v -0.118598 0.502582 -0.210710
v -0.117520 0.380268 0.232648
v -0.113696 0.496064 0.204257
v 0.086109 0.583098 0.233447
v 0.076904 0.304327 0.301796
v -0.201628 0.296489 0.232317
v -0.192423 0.575261 0.163968
v 0.029613 0.519946 0.219705
v 0.024245 0.357360 0.259568
v -0.138202 0.352789 0.219046
v -0.132833 0.515375 0.179184
v 0.244174 0.137199 0.098179
v 0.260329 0.626453 -0.021776
v -0.244659 0.123444 -0.023758
v -0.228504 0.612699 -0.143713
v 0.133075 0.249911 -0.171139
v 0.137790 0.413047 -0.206622
v -0.025216 0.409031 -0.243036
v -0.029933 0.245897 -0.207539
v 0.007334 0.395631 -0.646283
v 0.007790 0.425053 -0.639082
v -0.022065 0.424213 -0.633870
v -0.022500 0.394777 -0.641073
v 0.229919 0.656516 0.096746
v -0.275070 0.153507 0.094764
v 0.213764 0.167262 0.216701
v -0.258915 0.642761 -0.025191
v -0.017128 0.341550 -0.507425
v 0.050594 0.343872 -0.521655
v 0.052054 0.410781 -0.503918
v -0.015667 0.408459 -0.489689
v 0.087810 0.301485 -0.424232
v 0.088518 0.397936 -0.409446
v -0.008403 0.396537 -0.397914
v -0.009112 0.300087 -0.412710
v 0.098028 0.285859 -0.309812
v 0.098223 0.376131 -0.312876
v 0.008082 0.375818 -0.317361
v 0.007898 0.285535 -0.314325
vt 0.211879 0.138797
vt 0.174073 0.690602
vt 0.174073 0.290022
vt 0.488173 0.978878
vt 0.258769 0.061259
vt 0.488173 0.061259
vt 0.546734 0.158483
vt 0.577023 0.740357
vt 0.577023 0.279640
vt 0.559798 0.314091
vt 0.592633 0.643466
vt 0.592633 0.445432
vt 0.722491 0.158483
vt 0.692202 0.279640
vt 0.722491 0.861514
vt 0.546734 0.861514
vt 0.153203 0.373499
vt 0.153203 0.607126
vt 0.094797 0.373499
vt 0.073928 0.690602
vt 0.094797 0.607126
vt 0.073928 0.290022
vt 0.407042 0.370060
vt 0.405436 0.305921
vt 0.405436 0.380841
vt 0.407042 0.316702
vt 0.407042 0.316702
vt 0.407042 0.370060
vt 0.405436 0.380841
vt 0.405436 0.305921
vt 0.211879 0.841827
vt 0.036121 0.841827
vt 0.036121 0.841827
vt 0.036121 0.138797
vt 0.211879 0.138797
vt 0.036121 0.138797
vt 0.692202 0.740357
vt 0.587136 0.806267
vt 0.511975 0.909232
vt 0.511975 0.826432
vt 0.674977 0.314091
vt 0.642141 0.643466
vt 0.674977 0.774808
vt 0.642141 0.445432
vt 0.559798 0.774808
vt 0.519458 0.462233
vt 0.519458 0.427504
vt 0.519458 0.427504
vt 0.583576 0.740340
vt 0.507294 0.844840
vt 0.583576 0.865305
vt 0.587136 0.806267
vt 0.511975 0.909232
vt 0.587136 0.929396
vt 0.583576 0.740340
vt 0.507294 0.844840
vt 0.507294 0.760805
vt 0.637951 0.879893
vt 0.637951 0.725752
vt 0.640712 0.943770
vt 0.637951 0.879893
vt 0.640712 0.943770
vt 0.640712 0.791894
vt 0.695100 0.958361
vt 0.695100 0.777302
vt 0.693150 0.894702
vt 0.637951 0.725752
vt 0.695100 0.958361
vt 0.640712 0.791893
vt 0.693150 0.894702
vt 0.693150 0.710943
vt 0.748349 0.909512
vt 0.748349 0.696133
vt 0.749488 0.972952
vt 0.695100 0.777302
vt 0.748349 0.909512
vt 0.693150 0.710943
vt 0.749488 0.972952
vt 0.749488 0.762710
vt 0.258769 0.978878
vt 0.211879 0.841827
vt 0.587136 0.929396
vt 0.519458 0.462233
vt 0.507294 0.760805
vt 0.511975 0.826432
vt 0.583576 0.865305
vt 0.749488 0.762710
vt 0.748349 0.696133
vn 0.6343 0.1643 0.7555
vn -0.2414 0.2386 0.9406
vn -0.6414 -0.1571 -0.7510
vn -0.5101 -0.1688 -0.8434
vn 0.1101 -0.9291 -0.3531
vn 0.1710 0.6310 -0.7567
vn -0.4610 0.2256 0.8582
vn -0.2272 0.4585 0.8592
vn -0.2422 0.0055 0.9702
vn -0.0084 0.2384 0.9711
vn 0.2891 0.2189 0.9319
vn -0.2238 -0.2919 0.9299
vn -0.1909 0.7018 0.6863
vn -0.7038 0.1910 0.6843
vn 0.0321 0.9707 -0.2380
vn -0.0321 -0.9707 0.2380
vn -0.9699 -0.0273 -0.2419
vn 0.9301 -0.1120 -0.3498
vn -0.0384 -0.9275 -0.3719
vn 0.8343 -0.1516 -0.5301
vn 0.1359 -0.8461 -0.5154
vn 0.1922 0.4864 -0.8523
vn -0.1737 0.2365 -0.9560
vn 0.9505 0.0601 -0.3049
vn -0.0112 0.9940 0.1091
vn -0.9991 0.0045 0.0419
vn -0.9223 0.1205 0.3672
vn -0.1697 -0.6366 0.7523
vn -0.1183 0.9213 0.3704
vn 0.9699 0.0273 0.2419
vn -0.9966 -0.0053 0.0820
vn -0.0068 0.9916 0.1294
vn 0.9337 0.0725 -0.3505
vn -0.0329 -0.9210 -0.3882
vn 0.0104 -0.9906 -0.1362
vn 0.9951 0.0078 -0.0983
vn 0.0153 0.9691 0.2461
vn -0.9852 0.0078 0.1715
vn -0.9356 -0.0490 -0.3497
vn 0.0168 0.9156 -0.4016
vn 0.9386 -0.0137 -0.3447
vn 0.0839 -0.9592 -0.2699
vn -0.6289 -0.1655 -0.7597
vn -0.4832 -0.1867 -0.8554
vn 0.1164 -0.9248 -0.3623
vn 0.1630 0.6430 -0.7484
vn 0.9254 -0.1188 -0.3598
vn -0.0455 -0.9287 -0.3680
vn 0.8484 -0.1358 -0.5116
vn 0.1508 -0.8329 -0.5324
vn 0.1752 0.5120 -0.8409
vn -0.1736 0.2367 -0.9560
vn 0.9505 0.0599 -0.3050
vn -0.0091 0.9941 0.1080
vn -0.9989 0.0098 0.0454
vn -0.9969 0.0008 0.0790
vn 0.0016 0.9910 0.1341
vn 0.9396 0.0451 -0.3393
vn -0.0520 -0.9164 -0.3968
vn -0.0031 -0.9893 -0.1458
vn 0.9960 -0.0052 -0.0896
vn -0.0144 0.9750 0.2216
vn -0.9806 -0.0227 0.1948
vn -0.9145 -0.0117 -0.4044
vn 0.0541 0.9368 -0.3456
vn 0.9605 -0.0854 -0.2649
vn 0.0205 -0.9396 -0.3415
s off
f 31/1/1 9/2/1 10/3/1
f 4/4/2 7/5/2 3/6/2
f 19/7/3 6/8/3 5/9/3
f 5/10/4 23/11/4 24/12/4
f 17/13/5 5/9/5 1/14/5
f 18/15/6 6/8/6 20/16/6
f 14/17/7 9/2/7 13/18/7
f 15/19/8 10/3/8 14/17/8
f 13/18/9 12/20/9 16/21/9
f 15/19/10 12/20/10 11/22/10
f 4/23/11 14/24/11 13/25/11
f 7/26/12 14/24/12 3/27/12
f 8/28/13 13/25/13 16/29/13
f 8/28/14 15/30/14 7/26/14
f 29/31/15 20/32/15 32/33/15
f 30/34/16 17/35/16 31/1/16
f 32/33/17 19/36/17 30/34/17
f 2/37/18 17/13/18 1/14/18
f 34/38/19 28/39/19 25/40/19
f 1/41/20 22/42/20 2/43/20
f 1/41/21 24/12/21 21/44/21
f 2/43/22 23/11/22 6/45/22
f 27/46/23 25/47/23 28/48/23
f 34/49/24 26/50/24 35/51/24
f 35/52/25 27/53/25 36/54/25
f 33/55/26 27/56/26 28/57/26
f 12/20/27 30/34/27 11/22/27
f 10/3/28 30/34/28 31/1/28
f 9/2/29 32/33/29 12/20/29
f 17/35/30 29/31/30 31/1/30
f 39/58/31 33/55/31 40/59/31
f 39/60/32 35/52/32 36/54/32
f 38/61/33 34/49/33 35/51/33
f 40/62/34 34/38/34 37/63/34
f 44/64/35 37/63/35 41/65/35
f 42/66/36 37/67/36 38/61/36
f 43/68/37 38/69/37 39/60/37
f 43/70/38 40/59/38 44/71/38
f 23/72/39 44/71/39 24/73/39
f 23/74/40 42/75/40 43/68/40
f 22/76/41 41/77/41 42/66/41
f 24/78/42 41/65/42 21/79/42
f 31/1/1 29/31/1 9/2/1
f 4/4/2 8/80/2 7/5/2
f 19/7/43 20/16/43 6/8/43
f 5/10/44 6/45/44 23/11/44
f 17/13/45 19/7/45 5/9/45
f 18/15/46 2/37/46 6/8/46
f 14/17/7 10/3/7 9/2/7
f 15/19/8 11/22/8 10/3/8
f 13/18/9 9/2/9 12/20/9
f 15/19/10 16/21/10 12/20/10
f 4/23/11 3/27/11 14/24/11
f 7/26/12 15/30/12 14/24/12
f 8/28/13 4/23/13 13/25/13
f 8/28/14 16/29/14 15/30/14
f 29/31/15 18/81/15 20/32/15
f 30/34/16 19/36/16 17/35/16
f 32/33/17 20/32/17 19/36/17
f 2/37/47 18/15/47 17/13/47
f 34/38/48 33/82/48 28/39/48
f 1/41/49 21/44/49 22/42/49
f 1/41/50 5/10/50 24/12/50
f 2/43/51 22/42/51 23/11/51
f 27/46/52 26/83/52 25/47/52
f 34/49/53 25/84/53 26/50/53
f 35/52/54 26/85/54 27/53/54
f 33/55/55 36/86/55 27/56/55
f 12/20/27 32/33/27 30/34/27
f 10/3/28 11/22/28 30/34/28
f 9/2/29 29/31/29 32/33/29
f 17/35/30 18/81/30 29/31/30
f 39/58/56 36/86/56 33/55/56
f 39/60/57 38/69/57 35/52/57
f 38/61/58 37/67/58 34/49/58
f 40/62/59 33/82/59 34/38/59
f 44/64/60 40/62/60 37/63/60
f 42/66/61 41/77/61 37/67/61
f 43/68/62 42/75/62 38/69/62
f 43/70/63 39/58/63 40/59/63
f 23/72/64 43/70/64 44/71/64
f 23/74/65 22/87/65 42/75/65
f 22/76/66 21/88/66 41/77/66
f 24/78/67 44/64/67 41/65/67
