# Blender v3.2.1 OBJ File: 'Modeling.blend'
# www.blender.org
o Eye_Cube.004
v 0.156626 0.201604 -0.118141
v 0.156060 0.531236 -0.138389
v 0.067434 0.332202 0.268865
v 0.067220 0.451241 0.261191
v -0.173381 0.201892 -0.104812
v -0.173948 0.531524 -0.125054
v -0.051747 0.332310 0.273865
v -0.051960 0.451349 0.266191
v 0.150940 0.534935 0.252271
v 0.151455 0.248355 0.270747
v -0.135467 0.248616 0.282785
v -0.135981 0.535197 0.264309
v 0.090655 0.474346 0.244314
v 0.090955 0.307205 0.255089
v -0.076384 0.307358 0.262110
v -0.076684 0.474498 0.251334
v 0.248582 0.122577 0.002200
v 0.247679 0.625536 -0.030225
v -0.254975 0.123036 0.023327
v -0.255878 0.625994 -0.009098
v 0.072162 0.278491 -0.196988
v 0.071899 0.445624 -0.206199
v -0.095410 0.445758 -0.199976
v -0.095148 0.278625 -0.190771
v 0.016608 0.390219 -0.642364
v 0.016570 0.420278 -0.638430
v -0.013723 0.420381 -0.639455
v -0.013691 0.390324 -0.643390
v 0.252957 0.633645 0.095403
v -0.249697 0.131144 0.148955
v 0.253860 0.130686 0.127828
v -0.250599 0.634103 0.116530
v -0.037955 0.352615 -0.507216
v 0.031233 0.352347 -0.504289
v 0.031131 0.421053 -0.495643
v -0.038057 0.421321 -0.498570
v 0.040947 0.324908 -0.404550
v 0.040902 0.422343 -0.396826
v -0.056825 0.422528 -0.399429
v -0.056780 0.325093 -0.407152
v 0.034312 0.318544 -0.304275
v 0.034324 0.409013 -0.303435
v -0.056131 0.409032 -0.303023
v -0.056142 0.318564 -0.303857
vt 0.222479 0.902552
vt 0.185988 0.960806
vt 0.185988 0.918517
vt 0.466589 0.981674
vt 0.305916 0.911379
vt 0.466589 0.911379
vt 0.227552 0.901416
vt 0.192470 0.975129
vt 0.192470 0.916764
vt 0.581393 0.990018
vt 0.613709 0.976632
vt 0.613709 0.976632
vt 0.059064 0.916764
vt 0.023982 0.901416
vt 0.227552 0.990478
vt 0.059064 0.975129
vt 0.165845 0.927329
vt 0.165845 0.951993
vt 0.109470 0.927329
vt 0.089327 0.960806
vt 0.109470 0.951993
vt 0.089327 0.918517
vt 0.499051 0.897177
vt 0.499051 0.995876
vt 0.273454 0.995876
vt 0.305916 0.981674
vt 0.273454 0.897177
vt 0.222479 0.976770
vt 0.052836 0.976770
vt 0.052836 0.976770
vt 0.052836 0.902552
vt 0.222478 0.902552
vt 0.052836 0.902552
vt 0.633194 0.923831
vt 0.652951 0.899387
vt 0.660678 0.923831
vt 0.712479 0.990018
vt 0.680163 0.976632
vt 0.712479 0.990018
vt 0.680163 0.976632
vt 0.581393 0.990018
vt 0.649999 0.944647
vt 0.637755 0.950003
vt 0.637755 0.944647
vt 0.660678 0.923831
vt 0.652951 0.899387
vt 0.633194 0.923831
vt 0.640921 0.899387
vt 0.640921 0.899387
vt 0.627535 0.941255
vt 0.627535 0.941255
vt 0.666337 0.941255
vt 0.666337 0.941255
vt 0.664888 0.958386
vt 0.664888 0.958386
vt 0.628984 0.958386
vt 0.628984 0.958386
vt 0.023982 0.990478
vt 0.222478 0.976770
vt 0.649999 0.950003
vn 0.8267 0.0377 0.5614
vn 0.0419 0.0644 0.9970
vn -0.8330 -0.0353 -0.5522
vn -0.7213 -0.0392 -0.6915
vn -0.0233 -0.8437 -0.5363
vn -0.0253 0.7662 -0.6421
vn -0.1924 0.0628 0.9793
vn 0.0403 0.2954 0.9545
vn 0.0412 -0.1703 0.9845
vn 0.2738 0.0624 0.9598
vn 0.5474 0.0548 0.8351
vn 0.0369 -0.4555 0.8895
vn 0.0351 0.5661 0.8236
vn -0.4754 0.0558 0.8780
vn -0.0018 0.9979 -0.0643
vn 0.0018 -0.9979 0.0643
vn -0.9991 0.0009 0.0419
vn 0.7822 -0.0369 -0.6219
vn 0.0075 -0.9642 -0.2652
vn 0.6543 -0.0452 -0.7549
vn -0.0282 -0.7306 -0.6822
vn -0.0280 0.6430 -0.7654
vn 0.0340 0.1297 -0.9910
vn 0.9947 0.0145 -0.1015
vn 0.0036 1.0000 -0.0060
vn -0.9852 0.0199 -0.1700
vn -0.7767 0.0391 0.6286
vn 0.0264 -0.7624 0.6466
vn 0.0236 0.8392 0.5434
vn 0.9991 -0.0009 -0.0419
vn -0.9834 0.0139 -0.1812
vn 0.0022 0.9999 -0.0118
vn 0.9950 0.0139 -0.0986
vn 0.0075 -0.9640 -0.2659
vn -0.0002 -0.9980 -0.0633
vn 0.9976 -0.0051 0.0695
vn 0.0008 0.9903 0.1386
vn -1.0000 0.0001 0.0062
vn -0.9430 -0.0198 -0.3322
vn -0.0119 0.9405 -0.3397
vn 0.9324 0.0032 -0.3615
vn -0.0018 -0.9371 -0.3492
vn -0.8302 -0.0373 -0.5562
vn -0.7144 -0.0441 -0.6984
vn -0.0223 -0.8450 -0.5342
vn -0.0263 0.7644 -0.6442
vn 0.7790 -0.0390 -0.6259
vn 0.0057 -0.9640 -0.2659
vn 0.6620 -0.0402 -0.7484
vn -0.0258 -0.7340 -0.6787
vn -0.0305 0.6389 -0.7687
vn 0.0340 0.1298 -0.9910
vn 0.9947 0.0142 -0.1015
vn 0.0041 1.0000 -0.0058
vn -0.9852 0.0212 -0.1703
vn -0.9823 0.0220 -0.1862
vn 0.0044 0.9999 -0.0135
vn 0.9955 0.0080 -0.0948
vn 0.0052 -0.9644 -0.2643
vn -0.0005 -0.9980 -0.0631
vn 0.9978 -0.0007 0.0660
vn -0.0019 0.9900 0.1412
vn -1.0000 -0.0010 0.0071
vn -0.9340 0.0034 -0.3572
vn -0.0014 0.9360 -0.3519
vn 0.9409 -0.0172 -0.3383
vn -0.0133 -0.9414 -0.3370
s off
f 31/1/1 9/2/1 10/3/1
f 4/4/2 7/5/2 3/6/2
f 19/7/3 6/8/3 5/9/3
f 5/10/4 23/11/4 24/12/4
f 19/7/5 1/13/5 17/14/5
f 20/15/6 2/16/6 6/8/6
f 14/17/7 9/2/7 13/18/7
f 15/19/8 10/3/8 14/17/8
f 13/18/9 12/20/9 16/21/9
f 16/21/10 11/22/10 15/19/10
f 4/4/11 14/23/11 13/24/11
f 7/5/12 14/23/12 3/6/12
f 4/4/13 16/25/13 8/26/13
f 7/5/14 16/25/14 15/27/14
f 29/28/15 20/29/15 32/30/15
f 30/31/16 17/32/16 31/1/16
f 32/30/17 19/33/17 30/31/17
f 2/16/18 17/14/18 1/13/18
f 33/34/19 25/35/19 34/36/19
f 1/37/20 22/38/20 2/39/20
f 5/10/21 21/40/21 1/37/21
f 6/41/22 22/38/22 23/11/22
f 28/42/23 26/43/23 25/44/23
f 35/45/24 25/35/24 26/46/24
f 36/47/25 26/46/25 27/48/25
f 36/47/26 28/49/26 33/34/26
f 12/20/27 30/31/27 11/22/27
f 11/22/28 31/1/28 10/3/28
f 9/2/29 32/30/29 12/20/29
f 17/32/30 29/28/30 31/1/30
f 39/50/31 33/34/31 40/51/31
f 38/52/32 36/47/32 39/50/32
f 38/52/33 34/36/33 35/45/33
f 37/53/34 33/34/34 34/36/34
f 41/54/35 40/51/35 37/53/35
f 42/55/36 37/53/36 38/52/36
f 42/55/37 39/50/37 43/56/37
f 43/56/38 40/51/38 44/57/38
f 23/11/39 44/57/39 24/12/39
f 22/38/40 43/56/40 23/11/40
f 22/38/41 41/54/41 42/55/41
f 21/40/42 44/57/42 41/54/42
f 31/1/1 29/28/1 9/2/1
f 4/4/2 8/26/2 7/5/2
f 19/7/43 20/15/43 6/8/43
f 5/10/44 6/41/44 23/11/44
f 19/7/45 5/9/45 1/13/45
f 20/15/46 18/58/46 2/16/46
f 14/17/7 10/3/7 9/2/7
f 15/19/8 11/22/8 10/3/8
f 13/18/9 9/2/9 12/20/9
f 16/21/10 12/20/10 11/22/10
f 4/4/11 3/6/11 14/23/11
f 7/5/12 15/27/12 14/23/12
f 4/4/13 13/24/13 16/25/13
f 7/5/14 8/26/14 16/25/14
f 29/28/15 18/59/15 20/29/15
f 30/31/16 19/33/16 17/32/16
f 32/30/17 20/29/17 19/33/17
f 2/16/47 18/58/47 17/14/47
f 33/34/48 28/49/48 25/35/48
f 1/37/49 21/40/49 22/38/49
f 5/10/50 24/12/50 21/40/50
f 6/41/51 2/39/51 22/38/51
f 28/42/52 27/60/52 26/43/52
f 35/45/53 34/36/53 25/35/53
f 36/47/54 35/45/54 26/46/54
f 36/47/55 27/48/55 28/49/55
f 12/20/27 32/30/27 30/31/27
f 11/22/28 30/31/28 31/1/28
f 9/2/29 29/28/29 32/30/29
f 17/32/30 18/59/30 29/28/30
f 39/50/56 36/47/56 33/34/56
f 38/52/57 35/45/57 36/47/57
f 38/52/58 37/53/58 34/36/58
f 37/53/59 40/51/59 33/34/59
f 41/54/60 44/57/60 40/51/60
f 42/55/61 41/54/61 37/53/61
f 42/55/62 38/52/62 39/50/62
f 43/56/63 39/50/63 40/51/63
f 23/11/64 43/56/64 44/57/64
f 22/38/65 42/55/65 43/56/65
f 22/38/66 21/40/66 41/54/66
f 21/40/67 24/12/67 44/57/67
