# Blender v3.2.1 OBJ File: 'Modeling.blend'
# www.blender.org
o Eye_Cube.004
v 0.117718 0.207192 -0.166919
v 0.113291 0.536684 -0.188951
v 0.134970 0.340814 0.227403
v 0.133303 0.459800 0.219112
v -0.197398 0.209708 -0.069309
v -0.201819 0.539200 -0.091312
v 0.021385 0.341761 0.263826
v 0.019719 0.460747 0.255536
v 0.212063 0.542867 0.187645
v 0.216075 0.256414 0.207605
v -0.057374 0.258694 0.295293
v -0.061386 0.545147 0.275334
v 0.151534 0.482637 0.196441
v 0.153874 0.315571 0.208082
v -0.005608 0.316901 0.259224
v -0.007948 0.483967 0.247583
v 0.237892 0.128266 -0.076073
v 0.230851 0.631002 -0.111103
v -0.242020 0.132268 0.077823
v -0.249062 0.635003 0.042794
v 0.017321 0.284143 -0.220629
v 0.015265 0.451211 -0.230816
v -0.145120 0.452376 -0.184702
v -0.143068 0.285307 -0.174541
v 0.023739 0.389209 -0.638478
v 0.023600 0.419326 -0.635025
v -0.006020 0.419952 -0.641392
v -0.005904 0.389837 -0.644854
v 0.269297 0.639878 0.008559
v -0.203573 0.141144 0.197485
v 0.276339 0.137142 0.043589
v -0.210615 0.643880 0.162456
v -0.054664 0.354897 -0.515750
v 0.012380 0.353414 -0.498541
v 0.011951 0.422249 -0.490997
v -0.055093 0.423731 -0.508206
v 0.000181 0.328044 -0.403399
v 0.000077 0.425577 -0.396979
v -0.096519 0.426510 -0.410410
v -0.096416 0.328977 -0.416820
v -0.018837 0.323460 -0.312021
v -0.018790 0.413936 -0.312088
v -0.108709 0.414041 -0.305793
v -0.108738 0.323569 -0.305693
vt 0.306957 0.787231
vt 0.301787 0.795483
vt 0.301787 0.789493
vt 0.466589 0.981674
vt 0.305916 0.911379
vt 0.466589 0.911379
vt 0.307676 0.787070
vt 0.302706 0.797513
vt 0.302706 0.789244
vt 0.581393 0.990018
vt 0.613709 0.976632
vt 0.613709 0.976632
vt 0.283807 0.789244
vt 0.278837 0.787070
vt 0.307676 0.799687
vt 0.283807 0.797513
vt 0.298934 0.790741
vt 0.298934 0.794235
vt 0.288094 0.789493
vt 0.288094 0.795483
vt 0.290948 0.794235
vt 0.290948 0.790741
vt 0.499051 0.995876
vt 0.499051 0.897177
vt 0.273454 0.995876
vt 0.305916 0.981674
vt 0.273454 0.897177
vt 0.306957 0.797745
vt 0.282925 0.797745
vt 0.282925 0.797745
vt 0.282925 0.787231
vt 0.306957 0.787231
vt 0.282925 0.787231
vt 0.633194 0.923831
vt 0.652951 0.899387
vt 0.660678 0.923831
vt 0.712479 0.990018
vt 0.680163 0.976632
vt 0.712479 0.990018
vt 0.680163 0.976632
vt 0.581393 0.990018
vt 0.649999 0.944647
vt 0.637755 0.950003
vt 0.637755 0.944647
vt 0.660678 0.923831
vt 0.652951 0.899387
vt 0.633194 0.923831
vt 0.640921 0.899387
vt 0.640921 0.899387
vt 0.627535 0.941255
vt 0.627535 0.941255
vt 0.666337 0.941255
vt 0.666337 0.941255
vt 0.664888 0.958386
vt 0.664888 0.958386
vt 0.628984 0.958386
vt 0.628984 0.958386
vt 0.278837 0.799687
vt 0.306957 0.797745
vt 0.649999 0.950003
vn 0.9462 0.0357 0.3217
vn 0.3051 0.0704 0.9497
vn -0.9514 -0.0332 -0.3060
vn -0.8758 -0.0400 -0.4809
vn -0.1701 -0.8442 -0.5084
vn -0.1839 0.7680 -0.6135
vn 0.0745 0.0704 0.9947
vn 0.2935 0.3012 0.9073
vn 0.3000 -0.1642 0.9397
vn 0.5189 0.0667 0.8522
vn 0.7495 0.0565 0.6596
vn 0.2693 -0.4500 0.8514
vn 0.2550 0.5711 0.7803
vn -0.2252 0.0646 0.9722
vn -0.0140 0.9975 -0.0695
vn 0.0140 -0.9975 0.0695
vn -0.9522 0.0079 0.3054
vn 0.5828 -0.0464 -0.8113
vn 0.0413 -0.9688 -0.2445
vn 0.4319 -0.0544 -0.9003
vn -0.2082 -0.7278 -0.6535
vn -0.2053 0.6515 -0.7303
vn 0.2113 0.1123 -0.9710
vn 0.9967 -0.0047 0.0807
vn 0.0252 0.9995 -0.0191
vn -0.9379 0.0320 -0.3455
vn -0.5820 0.0484 0.8118
vn 0.1933 -0.7584 0.6225
vn 0.1709 0.8424 0.5110
vn 0.9522 -0.0079 -0.3054
vn -0.9233 0.0242 -0.3833
vn 0.0128 0.9997 -0.0230
vn 0.9921 -0.0076 0.1256
vn 0.0434 -0.9667 -0.2522
vn -0.0026 -0.9987 -0.0507
vn 0.9765 -0.0131 0.2152
vn 0.0095 0.9928 0.1194
vn -0.9939 0.0002 -0.1102
vn -0.9650 -0.0277 -0.2607
vn -0.0864 0.9420 -0.3242
vn 0.9224 -0.0008 -0.3862
vn -0.0283 -0.9222 -0.3856
vn -0.9502 -0.0349 -0.3098
vn -0.8717 -0.0443 -0.4881
vn -0.1609 -0.8524 -0.4975
vn -0.1939 0.7568 -0.6242
vn 0.5189 0.0666 0.8522
vn 0.5783 -0.0486 -0.8144
vn 0.0331 -0.9678 -0.2494
vn 0.4416 -0.0492 -0.8959
vn -0.1880 -0.7491 -0.6352
vn -0.2264 0.6254 -0.7467
vn 0.2111 0.1124 -0.9710
vn 0.9968 -0.0026 0.0802
vn 0.0268 0.9995 -0.0181
vn -0.9374 0.0362 -0.3464
vn -0.9198 0.0371 -0.3907
vn 0.0302 0.9990 -0.0316
vn 0.9921 -0.0072 0.1253
vn 0.0245 -0.9695 -0.2437
vn -0.0047 -0.9988 -0.0491
vn 0.9790 -0.0004 0.2037
vn -0.0090 0.9910 0.1339
vn -0.9933 0.0065 -0.1150
vn -0.9576 -0.0000 -0.2880
vn -0.0274 0.9129 -0.4072
vn 0.9281 -0.0113 -0.3721
vn -0.0935 -0.9489 -0.3013
s off
f 31/1/1 9/2/1 10/3/1
f 4/4/2 7/5/2 3/6/2
f 19/7/3 6/8/3 5/9/3
f 5/10/4 23/11/4 24/12/4
f 19/7/5 1/13/5 17/14/5
f 20/15/6 2/16/6 6/8/6
f 14/17/7 9/2/7 13/18/7
f 14/17/8 11/19/8 10/3/8
f 13/18/9 12/20/9 16/21/9
f 16/21/10 11/19/10 15/22/10
f 3/6/11 13/23/11 4/4/11
f 7/5/12 14/24/12 3/6/12
f 4/4/13 16/25/13 8/26/13
f 8/26/14 15/27/14 7/5/14
f 29/28/15 20/29/15 32/30/15
f 31/1/16 19/31/16 17/32/16
f 32/30/17 19/31/17 30/33/17
f 2/16/18 17/14/18 1/13/18
f 33/34/19 25/35/19 34/36/19
f 1/37/20 22/38/20 2/39/20
f 5/10/21 21/40/21 1/37/21
f 6/41/22 22/38/22 23/11/22
f 28/42/23 26/43/23 25/44/23
f 35/45/24 25/35/24 26/46/24
f 36/47/25 26/46/25 27/48/25
f 36/47/26 28/49/26 33/34/26
f 12/20/27 30/33/27 11/19/27
f 11/19/28 31/1/28 10/3/28
f 9/2/29 32/30/29 12/20/29
f 17/32/30 29/28/30 31/1/30
f 39/50/31 33/34/31 40/51/31
f 38/52/32 36/47/32 39/50/32
f 38/52/33 34/36/33 35/45/33
f 37/53/34 33/34/34 34/36/34
f 41/54/35 40/51/35 37/53/35
f 42/55/36 37/53/36 38/52/36
f 42/55/37 39/50/37 43/56/37
f 43/56/38 40/51/38 44/57/38
f 23/11/39 44/57/39 24/12/39
f 22/38/40 43/56/40 23/11/40
f 22/38/41 41/54/41 42/55/41
f 21/40/42 44/57/42 41/54/42
f 31/1/1 29/28/1 9/2/1
f 4/4/2 8/26/2 7/5/2
f 19/7/43 20/15/43 6/8/43
f 5/10/44 6/41/44 23/11/44
f 19/7/45 5/9/45 1/13/45
f 20/15/46 18/58/46 2/16/46
f 14/17/7 10/3/7 9/2/7
f 14/17/8 15/22/8 11/19/8
f 13/18/9 9/2/9 12/20/9
f 16/21/47 12/20/47 11/19/47
f 3/6/11 14/24/11 13/23/11
f 7/5/12 15/27/12 14/24/12
f 4/4/13 13/23/13 16/25/13
f 8/26/14 16/25/14 15/27/14
f 29/28/15 18/59/15 20/29/15
f 31/1/16 30/33/16 19/31/16
f 32/30/17 20/29/17 19/31/17
f 2/16/48 18/58/48 17/14/48
f 33/34/49 28/49/49 25/35/49
f 1/37/50 21/40/50 22/38/50
f 5/10/51 24/12/51 21/40/51
f 6/41/52 2/39/52 22/38/52
f 28/42/53 27/60/53 26/43/53
f 35/45/54 34/36/54 25/35/54
f 36/47/55 35/45/55 26/46/55
f 36/47/56 27/48/56 28/49/56
f 12/20/27 32/30/27 30/33/27
f 11/19/28 30/33/28 31/1/28
f 9/2/29 29/28/29 32/30/29
f 17/32/30 18/59/30 29/28/30
f 39/50/57 36/47/57 33/34/57
f 38/52/58 35/45/58 36/47/58
f 38/52/59 37/53/59 34/36/59
f 37/53/60 40/51/60 33/34/60
f 41/54/61 44/57/61 40/51/61
f 42/55/62 41/54/62 37/53/62
f 42/55/63 38/52/63 39/50/63
f 43/56/64 39/50/64 40/51/64
f 23/11/65 43/56/65 44/57/65
f 22/38/66 42/55/66 43/56/66
f 22/38/67 21/40/67 41/54/67
f 21/40/68 24/12/68 44/57/68
