# Blender v3.2.1 OBJ File: 'Cube - Kopie.blend'
# www.blender.org
o Eye_Cube.004
v 0.173883 0.192957 -0.067914
v 0.179041 0.509427 -0.161012
v 0.030630 0.406815 0.263796
v 0.032568 0.520907 0.229031
v -0.154705 0.188428 -0.100649
v -0.149547 0.504897 -0.193748
v -0.088018 0.405114 0.251597
v -0.086080 0.519206 0.216833
v 0.117427 0.602394 0.213151
v 0.112761 0.327724 0.296844
v -0.172878 0.323628 0.267478
v -0.168212 0.598298 0.183785
v 0.058395 0.540116 0.210815
v 0.055674 0.379922 0.259627
v -0.110918 0.377533 0.242500
v -0.108196 0.537727 0.193688
v 0.246545 0.146343 0.081034
v 0.254734 0.628399 -0.065850
v -0.254762 0.139155 0.029496
v -0.246573 0.621211 -0.117389
v 0.101616 0.248636 -0.174789
v 0.104015 0.409653 -0.218667
v -0.062634 0.407550 -0.234173
v -0.065033 0.246533 -0.190293
v 0.012194 0.396096 -0.645416
v 0.012378 0.425409 -0.637771
v -0.017868 0.425068 -0.635759
v -0.018045 0.395742 -0.643405
v 0.241886 0.665133 0.053990
v -0.267609 0.175889 0.149335
v 0.233697 0.183077 0.200874
v -0.259420 0.657944 0.002451
v -0.028039 0.340777 -0.511512
v 0.040996 0.341695 -0.516875
v 0.041579 0.408335 -0.498125
v -0.027456 0.407416 -0.492762
v 0.063896 0.297642 -0.417940
v 0.064146 0.394067 -0.403348
v -0.033514 0.393560 -0.399358
v -0.033765 0.297135 -0.413954
v 0.065002 0.282444 -0.306644
v 0.065139 0.372548 -0.312150
v -0.025261 0.372379 -0.314535
v -0.025396 0.282269 -0.309040
vt 0.211879 0.138797
vt 0.174073 0.690602
vt 0.174073 0.290022
vt 0.488173 0.061259
vt 0.258769 0.978878
vt 0.258769 0.061259
vt 0.546734 0.158483
vt 0.577023 0.740357
vt 0.577023 0.279640
vt 0.559798 0.314091
vt 0.592633 0.643466
vt 0.592633 0.445432
vt 0.722491 0.158483
vt 0.692202 0.279640
vt 0.722491 0.861514
vt 0.546734 0.861514
vt 0.153203 0.373499
vt 0.153203 0.607126
vt 0.094797 0.373499
vt 0.073928 0.690602
vt 0.094797 0.607126
vt 0.073928 0.290022
vt 0.407042 0.316702
vt 0.405436 0.380841
vt 0.407042 0.370060
vt 0.407042 0.316702
vt 0.405436 0.305921
vt 0.405436 0.380841
vt 0.407042 0.370060
vt 0.405436 0.305921
vt 0.036121 0.841827
vt 0.211879 0.841827
vt 0.036121 0.841827
vt 0.036121 0.138797
vt 0.211879 0.138797
vt 0.036121 0.138797
vt 0.692202 0.740357
vt 0.587136 0.806267
vt 0.511975 0.909232
vt 0.511975 0.826432
vt 0.674977 0.314091
vt 0.642141 0.643466
vt 0.674977 0.774808
vt 0.642141 0.445432
vt 0.559798 0.774808
vt 0.519458 0.462233
vt 0.519458 0.427504
vt 0.519458 0.427504
vt 0.583576 0.740340
vt 0.507294 0.844840
vt 0.583576 0.865305
vt 0.587136 0.806267
vt 0.511975 0.909232
vt 0.587136 0.929396
vt 0.583576 0.740340
vt 0.507294 0.844840
vt 0.507294 0.760805
vt 0.211879 0.841827
vt 0.637951 0.879893
vt 0.637951 0.725752
vt 0.640712 0.943770
vt 0.637951 0.879893
vt 0.640712 0.943770
vt 0.640712 0.791894
vt 0.695100 0.958361
vt 0.695100 0.777302
vt 0.693150 0.894702
vt 0.637951 0.725752
vt 0.695100 0.958361
vt 0.640712 0.791893
vt 0.693150 0.894702
vt 0.693150 0.710943
vt 0.748349 0.909512
vt 0.748349 0.696133
vt 0.749488 0.972952
vt 0.695100 0.777302
vt 0.748349 0.909512
vt 0.693150 0.710943
vt 0.749488 0.972952
vt 0.749488 0.762710
vt 0.488173 0.978878
vt 0.587136 0.929396
vt 0.519458 0.462233
vt 0.507294 0.760805
vt 0.511975 0.826432
vt 0.583576 0.865305
vt 0.749488 0.762710
vt 0.748349 0.696133
vn 0.7373 0.1854 0.6496
vn -0.1020 0.2915 0.9511
vn -0.7469 -0.1764 -0.6411
vn -0.6268 -0.1962 -0.7541
vn 0.0448 -0.9470 -0.3182
vn 0.0742 0.5898 -0.8041
vn -0.3312 0.2802 0.9010
vn -0.0954 0.5066 0.8569
vn -0.1029 0.0603 0.9929
vn 0.1329 0.2868 0.9487
vn 0.4215 0.2578 0.8694
vn -0.0959 -0.2391 0.9663
vn -0.0793 0.7400 0.6679
vn -0.5967 0.2432 0.7647
vn 0.0162 0.9565 -0.2914
vn -0.0162 -0.9565 0.2914
vn -0.9947 -0.0143 -0.1023
vn 0.8685 -0.1529 -0.4715
vn -0.0149 -0.9220 -0.3869
vn 0.7492 -0.1981 -0.6320
vn 0.0567 -0.8692 -0.4912
vn 0.0827 0.4443 -0.8920
vn -0.0671 0.2521 -0.9654
vn 0.9789 0.0474 -0.1989
vn -0.0037 0.9925 0.1223
vn -0.9976 0.0232 -0.0659
vn -0.8590 0.1625 0.4855
vn -0.0739 -0.5935 0.8014
vn -0.0478 0.9415 0.3337
vn 0.9947 0.0143 0.1023
vn -0.9985 0.0107 -0.0538
vn -0.0018 0.9892 0.1466
vn 0.9732 0.0544 -0.2235
vn -0.0118 -0.9145 -0.4045
vn 0.0055 -0.9908 -0.1353
vn 0.9999 -0.0009 -0.0111
vn 0.0048 0.9703 0.2418
vn -0.9967 0.0064 0.0804
vn -0.9384 -0.0778 -0.3366
vn 0.0088 0.9176 -0.3975
vn 0.9265 -0.0244 -0.3756
vn 0.0362 -0.9656 -0.2576
vn -0.7356 -0.1860 -0.6514
vn -0.6006 -0.2166 -0.7696
vn 0.0467 -0.9456 -0.3221
vn 0.0716 0.5949 -0.8006
vn 0.8608 -0.1617 -0.4826
vn -0.0177 -0.9224 -0.3858
vn 0.7694 -0.1786 -0.6133
vn 0.0616 -0.8645 -0.4988
vn 0.0768 0.4549 -0.8872
vn -0.0671 0.2522 -0.9654
vn 0.9787 0.0460 -0.1999
vn -0.0031 0.9925 0.1220
vn -0.9976 0.0266 -0.0636
vn -0.9978 0.0259 -0.0609
vn 0.0009 0.9889 0.1486
vn 0.9766 0.0297 -0.2128
vn -0.0197 -0.9122 -0.4092
vn -0.0006 -0.9901 -0.1403
vn 0.9999 -0.0021 -0.0102
vn -0.0079 0.9732 0.2297
vn -0.9955 -0.0116 0.0940
vn -0.9104 -0.0238 -0.4130
vn 0.0234 0.9258 -0.3772
vn 0.9530 -0.0928 -0.2884
vn 0.0094 -0.9584 -0.2853
s off
f 31/1/1 9/2/1 10/3/1
f 3/4/2 8/5/2 7/6/2
f 19/7/3 6/8/3 5/9/3
f 5/10/4 23/11/4 24/12/4
f 17/13/5 5/9/5 1/14/5
f 18/15/6 6/8/6 20/16/6
f 14/17/7 9/2/7 13/18/7
f 15/19/8 10/3/8 14/17/8
f 13/18/9 12/20/9 16/21/9
f 15/19/10 12/20/10 11/22/10
f 3/23/11 13/24/11 4/25/11
f 7/26/12 14/27/12 3/23/12
f 4/25/13 16/28/13 8/29/13
f 8/29/14 15/30/14 7/26/14
f 32/31/15 18/32/15 20/33/15
f 30/34/16 17/35/16 31/1/16
f 32/31/17 19/36/17 30/34/17
f 2/37/18 17/13/18 1/14/18
f 34/38/19 28/39/19 25/40/19
f 1/41/20 22/42/20 2/43/20
f 1/41/21 24/12/21 21/44/21
f 2/43/22 23/11/22 6/45/22
f 27/46/23 25/47/23 28/48/23
f 34/49/24 26/50/24 35/51/24
f 35/52/25 27/53/25 36/54/25
f 33/55/26 27/56/26 28/57/26
f 12/20/27 30/34/27 11/22/27
f 11/22/28 31/1/28 10/3/28
f 9/2/29 32/31/29 12/20/29
f 17/35/30 29/58/30 31/1/30
f 39/59/31 33/55/31 40/60/31
f 39/61/32 35/52/32 36/54/32
f 38/62/33 34/49/33 35/51/33
f 40/63/34 34/38/34 37/64/34
f 44/65/35 37/64/35 41/66/35
f 42/67/36 37/68/36 38/62/36
f 43/69/37 38/70/37 39/61/37
f 43/71/38 40/60/38 44/72/38
f 23/73/39 44/72/39 24/74/39
f 23/75/40 42/76/40 43/69/40
f 22/77/41 41/78/41 42/67/41
f 24/79/42 41/66/42 21/80/42
f 31/1/1 29/58/1 9/2/1
f 3/4/2 4/81/2 8/5/2
f 19/7/43 20/16/43 6/8/43
f 5/10/44 6/45/44 23/11/44
f 17/13/45 19/7/45 5/9/45
f 18/15/46 2/37/46 6/8/46
f 14/17/7 10/3/7 9/2/7
f 15/19/8 11/22/8 10/3/8
f 13/18/9 9/2/9 12/20/9
f 15/19/10 16/21/10 12/20/10
f 3/23/11 14/27/11 13/24/11
f 7/26/12 15/30/12 14/27/12
f 4/25/13 13/24/13 16/28/13
f 8/29/14 16/28/14 15/30/14
f 32/31/15 29/58/15 18/32/15
f 30/34/16 19/36/16 17/35/16
f 32/31/17 20/33/17 19/36/17
f 2/37/47 18/15/47 17/13/47
f 34/38/48 33/82/48 28/39/48
f 1/41/49 21/44/49 22/42/49
f 1/41/50 5/10/50 24/12/50
f 2/43/51 22/42/51 23/11/51
f 27/46/52 26/83/52 25/47/52
f 34/49/53 25/84/53 26/50/53
f 35/52/54 26/85/54 27/53/54
f 33/55/55 36/86/55 27/56/55
f 12/20/27 32/31/27 30/34/27
f 11/22/28 30/34/28 31/1/28
f 9/2/29 29/58/29 32/31/29
f 17/35/30 18/32/30 29/58/30
f 39/59/56 36/86/56 33/55/56
f 39/61/57 38/70/57 35/52/57
f 38/62/58 37/68/58 34/49/58
f 40/63/59 33/82/59 34/38/59
f 44/65/60 40/63/60 37/64/60
f 42/67/61 41/78/61 37/68/61
f 43/69/62 42/76/62 38/70/62
f 43/71/63 39/59/63 40/60/63
f 23/73/64 43/71/64 44/72/64
f 23/75/65 22/87/65 42/76/65
f 22/77/66 21/88/66 41/78/66
f 24/79/67 44/65/67 41/66/67
