# Blender v3.2.1 OBJ File: 'Cube - Kopie.blend'
# www.blender.org
o Eye_Cube.004
v 0.130022 0.166383 -0.125104
v 0.122452 0.486920 -0.202824
v 0.092535 0.366902 0.240194
v 0.089684 0.482518 0.210969
v -0.195239 0.172812 -0.069067
v -0.202805 0.493352 -0.146762
v -0.024859 0.369321 0.261215
v -0.027709 0.484937 0.231990
v 0.170292 0.562177 0.175610
v 0.177154 0.283838 0.245968
v -0.105466 0.289662 0.296575
v -0.112328 0.568001 0.226216
v 0.110303 0.501865 0.187128
v 0.114305 0.339532 0.228163
v -0.050525 0.342929 0.257678
v -0.054527 0.505262 0.216643
v 0.238667 0.109887 -0.005683
v 0.226624 0.598382 -0.129164
v -0.257340 0.120110 0.083134
v -0.269383 0.608604 -0.040347
v 0.035480 0.229675 -0.204821
v 0.031975 0.392595 -0.240851
v -0.133134 0.395577 -0.214687
v -0.129631 0.232654 -0.178679
v 0.021377 0.396663 -0.642093
v 0.020894 0.425773 -0.633759
v -0.009095 0.426544 -0.638054
v -0.008632 0.397416 -0.646400
v 0.248771 0.629293 -0.009039
v -0.235193 0.151020 0.203259
v 0.260814 0.140798 0.114442
v -0.247236 0.639515 0.079778
v -0.047587 0.340645 -0.523085
v 0.020536 0.338354 -0.510886
v 0.018945 0.404259 -0.489740
v -0.049178 0.406551 -0.501940
v 0.015682 0.291540 -0.416794
v 0.014749 0.387204 -0.397776
v -0.082295 0.388735 -0.408740
v -0.081362 0.293071 -0.427752
v -0.000649 0.272107 -0.316505
v -0.000757 0.362382 -0.317479
v -0.091063 0.362626 -0.315731
v -0.090949 0.272360 -0.314735
vt 0.211879 0.138797
vt 0.174073 0.690602
vt 0.174073 0.290022
vt 0.488173 0.061259
vt 0.258769 0.978878
vt 0.258769 0.061259
vt 0.546734 0.158483
vt 0.577023 0.740357
vt 0.577023 0.279640
vt 0.559798 0.314091
vt 0.592633 0.643466
vt 0.592633 0.445432
vt 0.692202 0.279640
vt 0.722491 0.158483
vt 0.546734 0.861514
vt 0.692202 0.740357
vt 0.153203 0.373499
vt 0.153203 0.607126
vt 0.094797 0.373499
vt 0.094797 0.607126
vt 0.073928 0.690602
vt 0.073928 0.290022
vt 0.407042 0.370060
vt 0.405436 0.305921
vt 0.405436 0.380841
vt 0.407042 0.316702
vt 0.405436 0.305921
vt 0.405436 0.380841
vt 0.407042 0.370060
vt 0.407042 0.316702
vt 0.211879 0.841827
vt 0.036121 0.841827
vt 0.036121 0.841827
vt 0.036121 0.138797
vt 0.211879 0.138797
vt 0.036121 0.138797
vt 0.587136 0.929396
vt 0.511975 0.826432
vt 0.587136 0.806267
vt 0.674977 0.314091
vt 0.642141 0.643466
vt 0.674977 0.774808
vt 0.642141 0.445432
vt 0.559798 0.774808
vt 0.519458 0.427504
vt 0.519458 0.462233
vt 0.519458 0.427504
vt 0.583576 0.740340
vt 0.507294 0.844840
vt 0.583576 0.865305
vt 0.587136 0.929396
vt 0.511975 0.826432
vt 0.511975 0.909232
vt 0.583576 0.740340
vt 0.507294 0.844840
vt 0.507294 0.760805
vt 0.637951 0.879893
vt 0.637951 0.725752
vt 0.640712 0.791893
vt 0.640712 0.943770
vt 0.637951 0.879893
vt 0.640712 0.791894
vt 0.695100 0.777302
vt 0.640712 0.943770
vt 0.693150 0.894702
vt 0.637951 0.725752
vt 0.695100 0.777302
vt 0.695100 0.958361
vt 0.693150 0.894702
vt 0.693150 0.710943
vt 0.748349 0.909512
vt 0.748349 0.696133
vt 0.749488 0.762710
vt 0.749488 0.972952
vt 0.748349 0.909512
vt 0.693150 0.710943
vt 0.749488 0.762710
vt 0.695100 0.958361
vt 0.488173 0.978878
vt 0.722491 0.861514
vt 0.211879 0.841827
vt 0.511975 0.909232
vt 0.519458 0.462233
vt 0.507294 0.760805
vt 0.587136 0.806267
vt 0.583576 0.865305
vt 0.748349 0.696133
vt 0.749488 0.972952
vn 0.8946 0.1301 0.4275
vn 0.1758 0.2453 0.9534
vn -0.9038 -0.1209 -0.4106
vn -0.8132 -0.1422 -0.5644
vn -0.0841 -0.9281 -0.3626
vn -0.1189 0.6356 -0.7628
vn -0.0587 0.2433 0.9682
vn 0.1653 0.4647 0.8699
vn 0.1765 0.0124 0.9842
vn 0.4005 0.2338 0.8859
vn 0.6547 0.2004 0.7288
vn 0.1632 -0.2853 0.9444
vn 0.1388 0.7068 0.6936
vn -0.3527 0.2211 0.9092
vn -0.0239 0.9692 -0.2450
vn 0.0239 -0.9692 0.2450
vn -0.9841 0.0203 0.1762
vn 0.6934 -0.1543 -0.7038
vn 0.0419 -0.9131 -0.4055
vn 0.5394 -0.1864 -0.8212
vn -0.1088 -0.8373 -0.5357
vn -0.1263 0.5037 -0.8546
vn 0.1434 0.2746 -0.9508
vn 0.9997 0.0189 0.0163
vn 0.0045 0.9892 0.1466
vn -0.9596 0.0633 -0.2740
vn -0.6848 0.1627 0.7103
vn 0.1241 -0.6313 0.7655
vn 0.0857 0.9241 0.3723
vn 0.9841 -0.0203 -0.1762
vn -0.9492 0.0524 -0.3102
vn -0.0055 0.9826 0.1859
vn 0.9988 0.0090 0.0472
vn 0.0492 -0.8952 -0.4429
vn 0.0059 -0.9819 -0.1893
vn 0.9830 -0.0265 0.1816
vn 0.0078 0.9626 0.2710
vn -0.9964 -0.0022 -0.0849
vn -0.9515 -0.0858 -0.2955
vn -0.0340 0.9459 -0.3226
vn 0.9201 -0.0031 -0.3918
vn -0.0095 -0.9358 -0.3524
vn -0.8974 -0.1288 -0.4220
vn -0.7952 -0.1605 -0.5847
vn -0.0796 -0.9315 -0.3550
vn -0.1250 0.6257 -0.7700
vn 0.6804 -0.1638 -0.7143
vn 0.0358 -0.9120 -0.4086
vn 0.5684 -0.1660 -0.8059
vn -0.0978 -0.8477 -0.5214
vn -0.1395 0.4824 -0.8647
vn 0.1432 0.2747 -0.9508
vn 0.9998 0.0131 0.0122
vn 0.0068 0.9890 0.1478
vn -0.9598 0.0645 -0.2732
vn -0.9440 0.0799 -0.3202
vn 0.0004 0.9832 0.1824
vn 0.9987 -0.0005 0.0513
vn 0.0351 -0.8991 -0.4363
vn -0.0063 -0.9835 -0.1808
vn 0.9869 0.0029 0.1613
vn -0.0179 0.9562 0.2921
vn -0.9958 0.0085 -0.0915
vn -0.9238 -0.0054 -0.3829
vn -0.0046 0.9310 -0.3651
vn 0.9443 -0.0516 -0.3251
vn -0.0641 -0.9529 -0.2963
s off
f 31/1/1 9/2/1 10/3/1
f 3/4/2 8/5/2 7/6/2
f 19/7/3 6/8/3 5/9/3
f 5/10/4 23/11/4 24/12/4
f 19/7/5 1/13/5 17/14/5
f 20/15/6 2/16/6 6/8/6
f 14/17/7 9/2/7 13/18/7
f 15/19/8 10/3/8 14/17/8
f 16/20/9 9/2/9 12/21/9
f 15/19/10 12/21/10 11/22/10
f 4/23/11 14/24/11 13/25/11
f 3/26/12 15/27/12 14/24/12
f 4/23/13 16/28/13 8/29/13
f 8/29/14 15/27/14 7/30/14
f 29/31/15 20/32/15 32/33/15
f 30/34/16 17/35/16 31/1/16
f 32/33/17 19/36/17 30/34/17
f 2/16/18 17/14/18 1/13/18
f 33/37/19 25/38/19 34/39/19
f 1/40/20 22/41/20 2/42/20
f 5/10/21 21/43/21 1/40/21
f 6/44/22 22/41/22 23/11/22
f 28/45/23 26/46/23 25/47/23
f 34/48/24 26/49/24 35/50/24
f 36/51/25 26/52/25 27/53/25
f 33/54/26 27/55/26 28/56/26
f 12/21/27 30/34/27 11/22/27
f 11/22/28 31/1/28 10/3/28
f 9/2/29 32/33/29 12/21/29
f 17/35/30 29/31/30 31/1/30
f 39/57/31 33/54/31 40/58/31
f 38/59/32 36/51/32 39/60/32
f 38/61/33 34/48/33 35/50/33
f 37/62/34 33/37/34 34/39/34
f 41/63/35 40/64/35 37/62/35
f 42/65/36 37/66/36 38/61/36
f 42/67/37 39/60/37 43/68/37
f 43/69/38 40/58/38 44/70/38
f 23/71/39 44/70/39 24/72/39
f 22/73/40 43/68/40 23/74/40
f 22/75/41 41/76/41 42/65/41
f 21/77/42 44/78/42 41/63/42
f 31/1/1 29/31/1 9/2/1
f 3/4/2 4/79/2 8/5/2
f 19/7/43 20/15/43 6/8/43
f 5/10/44 6/44/44 23/11/44
f 19/7/45 5/9/45 1/13/45
f 20/15/46 18/80/46 2/16/46
f 14/17/7 10/3/7 9/2/7
f 15/19/8 11/22/8 10/3/8
f 16/20/9 13/18/9 9/2/9
f 15/19/10 16/20/10 12/21/10
f 4/23/11 3/26/11 14/24/11
f 3/26/12 7/30/12 15/27/12
f 4/23/13 13/25/13 16/28/13
f 8/29/14 16/28/14 15/27/14
f 29/31/15 18/81/15 20/32/15
f 30/34/16 19/36/16 17/35/16
f 32/33/17 20/32/17 19/36/17
f 2/16/47 18/80/47 17/14/47
f 33/37/48 28/82/48 25/38/48
f 1/40/49 21/43/49 22/41/49
f 5/10/50 24/12/50 21/43/50
f 6/44/51 2/42/51 22/41/51
f 28/45/52 27/83/52 26/46/52
f 34/48/53 25/84/53 26/49/53
f 36/51/54 35/85/54 26/52/54
f 33/54/55 36/86/55 27/55/55
f 12/21/27 32/33/27 30/34/27
f 11/22/28 30/34/28 31/1/28
f 9/2/29 29/31/29 32/33/29
f 17/35/30 18/81/30 29/31/30
f 39/57/56 36/86/56 33/54/56
f 38/59/57 35/85/57 36/51/57
f 38/61/58 37/66/58 34/48/58
f 37/62/59 40/64/59 33/37/59
f 41/63/60 44/78/60 40/64/60
f 42/65/61 41/76/61 37/66/61
f 42/67/62 38/59/62 39/60/62
f 43/69/63 39/57/63 40/58/63
f 23/71/64 43/69/64 44/70/64
f 22/73/65 42/67/65 43/68/65
f 22/75/66 21/87/66 41/76/66
f 21/77/67 24/88/67 44/78/67
