# Blender v3.2.1 OBJ File: 'Modeling.blend'
# www.blender.org
o Eye_Cube.004
v 0.097878 0.205791 -0.206580
v 0.087515 0.534346 -0.238201
v 0.200980 0.352888 0.168597
v 0.197085 0.471522 0.156765
v -0.188443 0.212859 -0.044010
v -0.198791 0.541416 -0.075587
v 0.098193 0.355545 0.229069
v 0.094299 0.474179 0.217238
v 0.266678 0.553138 0.105883
v 0.276054 0.267532 0.134367
v 0.028601 0.273928 0.279952
v 0.019225 0.559534 0.251468
v 0.209794 0.493489 0.129862
v 0.215262 0.326917 0.146475
v 0.070942 0.330648 0.231383
v 0.065474 0.497220 0.214771
v 0.235384 0.129570 -0.142550
v 0.218929 0.630818 -0.192541
v -0.198905 0.140795 0.112956
v -0.215360 0.642044 0.062965
v -0.011104 0.281403 -0.239289
v -0.015927 0.448036 -0.254103
v -0.162859 0.451320 -0.176749
v -0.158049 0.284685 -0.161974
v 0.027725 0.389416 -0.635827
v 0.027511 0.419487 -0.632017
v -0.001217 0.420537 -0.641591
v -0.001030 0.390467 -0.645417
v 0.282735 0.643672 -0.084654
v -0.135099 0.153650 0.220843
v 0.299189 0.142424 -0.034663
v -0.151554 0.654898 0.170852
v -0.064191 0.354500 -0.523313
v 0.000332 0.352076 -0.498418
v -0.000399 0.420794 -0.489910
v -0.064922 0.423218 -0.514804
v -0.023542 0.325614 -0.408682
v -0.023651 0.423101 -0.401821
v -0.119223 0.424528 -0.419191
v -0.119116 0.327040 -0.426035
v -0.047541 0.320639 -0.321972
v -0.047621 0.411100 -0.323272
v -0.136222 0.411388 -0.309551
v -0.136097 0.320937 -0.308207
vt 0.306957 0.787231
vt 0.301787 0.795483
vt 0.301787 0.789493
vt 0.466589 0.981674
vt 0.305916 0.911379
vt 0.466589 0.911379
vt 0.307676 0.787070
vt 0.302706 0.797513
vt 0.302706 0.789244
vt 0.581393 0.990018
vt 0.613709 0.976632
vt 0.613709 0.976632
vt 0.283807 0.789244
vt 0.278837 0.787070
vt 0.307676 0.799687
vt 0.283807 0.797513
vt 0.298934 0.794235
vt 0.290948 0.790741
vt 0.298934 0.790741
vt 0.288094 0.795483
vt 0.290948 0.794235
vt 0.288094 0.789493
vt 0.499051 0.995876
vt 0.499051 0.897177
vt 0.273454 0.995876
vt 0.305916 0.981674
vt 0.273454 0.897177
vt 0.306957 0.797745
vt 0.282925 0.797745
vt 0.282925 0.797745
vt 0.282925 0.787231
vt 0.306957 0.787231
vt 0.282925 0.787231
vt 0.633194 0.923831
vt 0.652951 0.899387
vt 0.660678 0.923831
vt 0.712479 0.990018
vt 0.680163 0.976632
vt 0.712479 0.990018
vt 0.680163 0.976632
vt 0.581393 0.990018
vt 0.649999 0.944647
vt 0.637755 0.950003
vt 0.637755 0.944647
vt 0.660678 0.923831
vt 0.652951 0.899387
vt 0.633194 0.923831
vt 0.640921 0.899387
vt 0.640921 0.899387
vt 0.627535 0.941255
vt 0.627535 0.941255
vt 0.666337 0.941255
vt 0.666337 0.941255
vt 0.664888 0.958386
vt 0.664888 0.958386
vt 0.628984 0.958386
vt 0.628984 0.958386
vt 0.278837 0.799687
vt 0.306957 0.797745
vt 0.649999 0.950003
vn 0.9936 0.0430 0.1042
vn 0.5064 0.1020 0.8562
vn -0.9956 -0.0395 -0.0845
vn -0.9589 -0.0524 -0.2790
vn -0.2757 -0.8593 -0.4308
vn -0.3123 0.7505 -0.5824
vn 0.2914 0.1044 0.9509
vn 0.4848 0.3312 0.8095
vn 0.5000 -0.1328 0.8558
vn 0.6935 0.0940 0.7143
vn 0.8761 0.0762 0.4761
vn 0.4517 -0.4214 0.7864
vn 0.4183 0.5967 0.6848
vn -0.0060 0.0990 0.9951
vn -0.0326 0.9945 -0.0992
vn 0.0326 -0.9945 0.0992
vn -0.8617 0.0223 0.5070
vn 0.3858 -0.0763 -0.9194
vn 0.0604 -0.9662 -0.2505
vn 0.2215 -0.0865 -0.9713
vn -0.3439 -0.7437 -0.5733
vn -0.3487 0.6350 -0.6894
vn 0.3180 0.1214 -0.9403
vn 0.9811 -0.0175 0.1928
vn 0.0373 0.9993 -0.0024
vn -0.8927 0.0460 -0.4482
vn -0.3892 0.0788 0.9178
vn 0.3284 -0.7372 0.5906
vn 0.2760 0.8589 0.4314
vn 0.8617 -0.0223 -0.5070
vn -0.8743 0.0330 -0.4843
vn 0.0158 0.9999 -0.0047
vn 0.9665 -0.0214 0.2557
vn 0.0665 -0.9617 -0.2659
vn -0.0043 -0.9983 -0.0585
vn 0.9571 -0.0193 0.2891
vn 0.0222 0.9922 0.1224
vn -0.9897 -0.0035 -0.1428
vn -0.9864 -0.0425 -0.1586
vn -0.1428 0.9396 -0.3112
vn 0.9101 -0.0051 -0.4143
vn -0.0659 -0.9124 -0.4039
vn -0.9952 -0.0415 -0.0888
vn -0.9559 -0.0578 -0.2880
vn -0.2584 -0.8713 -0.4172
vn -0.3310 0.7325 -0.5949
vn 0.3788 -0.0795 -0.9221
vn 0.0508 -0.9648 -0.2579
vn 0.2357 -0.0793 -0.9686
vn -0.3074 -0.7755 -0.5514
vn -0.3864 0.5933 -0.7062
vn 0.3178 0.1216 -0.9403
vn 0.9813 -0.0133 0.1920
vn 0.0382 0.9993 -0.0017
vn -0.8919 0.0516 -0.4492
vn -0.8681 0.0519 -0.4937
vn 0.0432 0.9990 -0.0148
vn 0.9675 -0.0167 0.2525
vn 0.0318 -0.9665 -0.2548
vn -0.0117 -0.9985 -0.0534
vn 0.9637 0.0047 0.2670
vn -0.0120 0.9890 0.1474
vn -0.9883 0.0096 -0.1521
vn -0.9807 -0.0043 -0.1954
vn -0.0662 0.8925 -0.4462
vn 0.9133 -0.0098 -0.4071
vn -0.1580 -0.9526 -0.2599
s off
f 31/1/1 9/2/1 10/3/1
f 4/4/2 7/5/2 3/6/2
f 19/7/3 6/8/3 5/9/3
f 5/10/4 23/11/4 24/12/4
f 19/7/5 1/13/5 17/14/5
f 20/15/6 2/16/6 6/8/6
f 13/17/7 10/3/7 9/2/7
f 15/18/8 10/3/8 14/19/8
f 13/17/9 12/20/9 16/21/9
f 16/21/10 11/22/10 15/18/10
f 3/6/11 13/23/11 4/4/11
f 7/5/12 14/24/12 3/6/12
f 4/4/13 16/25/13 8/26/13
f 8/26/14 15/27/14 7/5/14
f 29/28/15 20/29/15 32/30/15
f 30/31/16 17/32/16 31/1/16
f 32/30/17 19/33/17 30/31/17
f 2/16/18 17/14/18 1/13/18
f 33/34/19 25/35/19 34/36/19
f 1/37/20 22/38/20 2/39/20
f 5/10/21 21/40/21 1/37/21
f 6/41/22 22/38/22 23/11/22
f 28/42/23 26/43/23 25/44/23
f 35/45/24 25/35/24 26/46/24
f 36/47/25 26/46/25 27/48/25
f 36/47/26 28/49/26 33/34/26
f 12/20/27 30/31/27 11/22/27
f 10/3/28 30/31/28 31/1/28
f 9/2/29 32/30/29 12/20/29
f 17/32/30 29/28/30 31/1/30
f 39/50/31 33/34/31 40/51/31
f 38/52/32 36/47/32 39/50/32
f 38/52/33 34/36/33 35/45/33
f 37/53/34 33/34/34 34/36/34
f 41/54/35 40/51/35 37/53/35
f 42/55/36 37/53/36 38/52/36
f 42/55/37 39/50/37 43/56/37
f 43/56/38 40/51/38 44/57/38
f 23/11/39 44/57/39 24/12/39
f 22/38/40 43/56/40 23/11/40
f 22/38/41 41/54/41 42/55/41
f 21/40/42 44/57/42 41/54/42
f 31/1/1 29/28/1 9/2/1
f 4/4/2 8/26/2 7/5/2
f 19/7/43 20/15/43 6/8/43
f 5/10/44 6/41/44 23/11/44
f 19/7/45 5/9/45 1/13/45
f 20/15/46 18/58/46 2/16/46
f 13/17/7 14/19/7 10/3/7
f 15/18/8 11/22/8 10/3/8
f 13/17/9 9/2/9 12/20/9
f 16/21/10 12/20/10 11/22/10
f 3/6/11 14/24/11 13/23/11
f 7/5/12 15/27/12 14/24/12
f 4/4/13 13/23/13 16/25/13
f 8/26/14 16/25/14 15/27/14
f 29/28/15 18/59/15 20/29/15
f 30/31/16 19/33/16 17/32/16
f 32/30/17 20/29/17 19/33/17
f 2/16/47 18/58/47 17/14/47
f 33/34/48 28/49/48 25/35/48
f 1/37/49 21/40/49 22/38/49
f 5/10/50 24/12/50 21/40/50
f 6/41/51 2/39/51 22/38/51
f 28/42/52 27/60/52 26/43/52
f 35/45/53 34/36/53 25/35/53
f 36/47/54 35/45/54 26/46/54
f 36/47/55 27/48/55 28/49/55
f 12/20/27 32/30/27 30/31/27
f 10/3/28 11/22/28 30/31/28
f 9/2/29 29/28/29 32/30/29
f 17/32/30 18/59/30 29/28/30
f 39/50/56 36/47/56 33/34/56
f 38/52/57 35/45/57 36/47/57
f 38/52/58 37/53/58 34/36/58
f 37/53/59 40/51/59 33/34/59
f 41/54/60 44/57/60 40/51/60
f 42/55/61 41/54/61 37/53/61
f 42/55/62 38/52/62 39/50/62
f 43/56/63 39/50/63 40/51/63
f 23/11/64 43/56/64 44/57/64
f 22/38/65 42/55/65 43/56/65
f 22/38/66 21/40/66 41/54/66
f 21/40/67 24/12/67 44/57/67
