# Blender v3.2.1 OBJ File: 'Modeling.blend'
# www.blender.org
o Eye_Cube.004
v 0.094646 0.205604 -0.237003
v 0.076532 0.532729 -0.278234
v 0.266053 0.366848 0.105487
v 0.259259 0.484946 0.090130
v -0.156063 0.219166 -0.024652
v -0.174151 0.546296 -0.065834
v 0.176577 0.371937 0.184209
v 0.169782 0.490035 0.168852
v 0.317444 0.564474 0.023925
v 0.333802 0.280158 0.060896
v 0.118392 0.292408 0.250414
v 0.102034 0.576725 0.213443
v 0.266503 0.505852 0.060494
v 0.276044 0.340033 0.082056
v 0.150412 0.347178 0.192588
v 0.140871 0.512997 0.171026
v 0.242233 0.131738 -0.197866
v 0.213524 0.630722 -0.262751
v -0.135819 0.153237 0.134746
v -0.164528 0.652222 0.069860
v -0.018335 0.280181 -0.251223
v -0.026793 0.446147 -0.270745
v -0.156961 0.452475 -0.168934
v -0.148527 0.286506 -0.149456
v 0.029522 0.389577 -0.634421
v 0.029300 0.419608 -0.630323
v 0.001155 0.420957 -0.641470
v 0.001355 0.390926 -0.645583
v 0.296541 0.647626 -0.169485
v -0.052802 0.170141 0.228011
v 0.325250 0.148642 -0.104600
v -0.081511 0.669126 0.163126
v -0.069106 0.354118 -0.527252
v -0.005811 0.351121 -0.499529
v -0.006620 0.419754 -0.490377
v -0.069915 0.422751 -0.518099
v -0.034150 0.323931 -0.413213
v -0.034092 0.421407 -0.406456
v -0.129517 0.423053 -0.422445
v -0.129577 0.325575 -0.429181
v -0.057798 0.318953 -0.328210
v -0.058225 0.409363 -0.331180
v -0.144581 0.410005 -0.308748
v -0.144084 0.319611 -0.305736
vt 0.222479 0.902552
vt 0.185988 0.960806
vt 0.185988 0.918517
vt 0.466589 0.981674
vt 0.305916 0.911379
vt 0.466589 0.911379
vt 0.227552 0.901416
vt 0.192470 0.975129
vt 0.192470 0.916764
vt 0.581393 0.990018
vt 0.613709 0.976632
vt 0.613709 0.976632
vt 0.059064 0.916764
vt 0.023982 0.901416
vt 0.227552 0.990478
vt 0.059064 0.975129
vt 0.165845 0.927329
vt 0.165845 0.951993
vt 0.109470 0.927329
vt 0.089327 0.960806
vt 0.109470 0.951993
vt 0.089327 0.918517
vt 0.499051 0.995876
vt 0.273454 0.897177
vt 0.499051 0.897177
vt 0.273454 0.995876
vt 0.305916 0.981674
vt 0.222479 0.976770
vt 0.052836 0.976770
vt 0.052836 0.976770
vt 0.052836 0.902552
vt 0.222478 0.902552
vt 0.052836 0.902552
vt 0.633194 0.923831
vt 0.652951 0.899387
vt 0.660678 0.923831
vt 0.712479 0.990018
vt 0.680163 0.976632
vt 0.712479 0.990018
vt 0.680163 0.976632
vt 0.581393 0.990018
vt 0.649999 0.944647
vt 0.637755 0.950003
vt 0.637755 0.944647
vt 0.660678 0.923831
vt 0.652951 0.899387
vt 0.633194 0.923831
vt 0.640921 0.899387
vt 0.640921 0.899387
vt 0.627535 0.941255
vt 0.627535 0.941255
vt 0.666337 0.941255
vt 0.666337 0.941255
vt 0.664888 0.958386
vt 0.664888 0.958386
vt 0.628984 0.958386
vt 0.628984 0.958386
vt 0.023982 0.990478
vt 0.222478 0.976770
vt 0.649999 0.950003
vn 0.9951 0.0458 -0.0878
vn 0.6589 0.1342 0.7402
vn -0.9932 -0.0412 0.1091
vn -0.9938 -0.0614 -0.0932
vn -0.3477 -0.8743 -0.3387
vn -0.4183 0.7301 -0.5403
vn 0.4657 0.1404 0.8737
vn 0.6274 0.3614 0.6897
vn 0.6540 -0.1005 0.7498
vn 0.8157 0.1205 0.5658
vn 0.9499 0.0934 0.2981
vn 0.5952 -0.3915 0.7018
vn 0.5369 0.6220 0.5700
vn 0.1821 0.1371 0.9737
vn -0.0570 0.9900 -0.1287
vn 0.0570 -0.9900 0.1287
vn -0.7501 0.0427 0.6599
vn 0.2022 -0.1114 -0.9730
vn 0.0670 -0.9640 -0.2573
vn 0.0314 -0.1233 -0.9919
vn -0.4427 -0.7611 -0.4741
vn -0.4678 0.6135 -0.6362
vn 0.3707 0.1283 -0.9199
vn 0.9682 -0.0268 0.2485
vn 0.0437 0.9990 0.0106
vn -0.8654 0.0562 -0.4979
vn -0.2087 0.1143 0.9713
vn 0.4389 -0.7144 0.5450
vn 0.3475 0.8745 0.3384
vn 0.7501 -0.0427 -0.6599
vn -0.8553 0.0362 -0.5168
vn 0.0161 0.9998 0.0069
vn 0.9498 -0.0304 0.3115
vn 0.0759 -0.9579 -0.2768
vn -0.0071 -0.9981 -0.0604
vn 0.9530 -0.0215 0.3021
vn 0.0383 0.9922 0.1189
vn -0.9931 -0.0094 -0.1172
vn -0.9977 -0.0554 -0.0401
vn -0.1898 0.9346 -0.3007
vn 0.8898 -0.0108 -0.4562
vn -0.1113 -0.9093 -0.4009
vn -0.9936 -0.0436 0.1045
vn -0.9923 -0.0679 -0.1036
vn -0.3242 -0.8880 -0.3261
vn -0.4438 0.7074 -0.5502
vn 0.1928 -0.1156 -0.9744
vn 0.0587 -0.9626 -0.2645
vn 0.0495 -0.1142 -0.9922
vn -0.3942 -0.7986 -0.4547
vn -0.5171 0.5612 -0.6462
vn 0.3705 0.1285 -0.9199
vn 0.9686 -0.0216 0.2476
vn 0.0429 0.9990 0.0100
vn -0.8644 0.0625 -0.4989
vn -0.8471 0.0604 -0.5280
vn 0.0489 0.9988 -0.0037
vn 0.9519 -0.0218 0.3057
vn 0.0275 -0.9642 -0.2637
vn -0.0208 -0.9985 -0.0507
vn 0.9631 0.0134 0.2687
vn -0.0090 0.9878 0.1552
vn -0.9914 0.0096 -0.1303
vn -0.9963 -0.0083 -0.0857
vn -0.1160 0.8741 -0.4717
vn 0.8881 -0.0088 -0.4597
vn -0.2093 -0.9554 -0.2083
s off
f 31/1/1 9/2/1 10/3/1
f 4/4/2 7/5/2 3/6/2
f 19/7/3 6/8/3 5/9/3
f 5/10/4 23/11/4 24/12/4
f 19/7/5 1/13/5 17/14/5
f 20/15/6 2/16/6 6/8/6
f 14/17/7 9/2/7 13/18/7
f 15/19/8 10/3/8 14/17/8
f 13/18/9 12/20/9 16/21/9
f 16/21/10 11/22/10 15/19/10
f 3/6/11 13/23/11 4/4/11
f 3/6/12 15/24/12 14/25/12
f 4/4/13 16/26/13 8/27/13
f 7/5/14 16/26/14 15/24/14
f 29/28/15 20/29/15 32/30/15
f 30/31/16 17/32/16 31/1/16
f 32/30/17 19/33/17 30/31/17
f 2/16/18 17/14/18 1/13/18
f 33/34/19 25/35/19 34/36/19
f 1/37/20 22/38/20 2/39/20
f 5/10/21 21/40/21 1/37/21
f 6/41/22 22/38/22 23/11/22
f 28/42/23 26/43/23 25/44/23
f 35/45/24 25/35/24 26/46/24
f 36/47/25 26/46/25 27/48/25
f 36/47/26 28/49/26 33/34/26
f 12/20/27 30/31/27 11/22/27
f 11/22/28 31/1/28 10/3/28
f 9/2/29 32/30/29 12/20/29
f 17/32/30 29/28/30 31/1/30
f 39/50/31 33/34/31 40/51/31
f 38/52/32 36/47/32 39/50/32
f 38/52/33 34/36/33 35/45/33
f 37/53/34 33/34/34 34/36/34
f 41/54/35 40/51/35 37/53/35
f 42/55/36 37/53/36 38/52/36
f 42/55/37 39/50/37 43/56/37
f 43/56/38 40/51/38 44/57/38
f 23/11/39 44/57/39 24/12/39
f 22/38/40 43/56/40 23/11/40
f 22/38/41 41/54/41 42/55/41
f 21/40/42 44/57/42 41/54/42
f 31/1/1 29/28/1 9/2/1
f 4/4/2 8/27/2 7/5/2
f 19/7/43 20/15/43 6/8/43
f 5/10/44 6/41/44 23/11/44
f 19/7/45 5/9/45 1/13/45
f 20/15/46 18/58/46 2/16/46
f 14/17/7 10/3/7 9/2/7
f 15/19/8 11/22/8 10/3/8
f 13/18/9 9/2/9 12/20/9
f 16/21/10 12/20/10 11/22/10
f 3/6/11 14/25/11 13/23/11
f 3/6/12 7/5/12 15/24/12
f 4/4/13 13/23/13 16/26/13
f 7/5/14 8/27/14 16/26/14
f 29/28/15 18/59/15 20/29/15
f 30/31/16 19/33/16 17/32/16
f 32/30/17 20/29/17 19/33/17
f 2/16/47 18/58/47 17/14/47
f 33/34/48 28/49/48 25/35/48
f 1/37/49 21/40/49 22/38/49
f 5/10/50 24/12/50 21/40/50
f 6/41/51 2/39/51 22/38/51
f 28/42/52 27/60/52 26/43/52
f 35/45/53 34/36/53 25/35/53
f 36/47/54 35/45/54 26/46/54
f 36/47/55 27/48/55 28/49/55
f 12/20/27 32/30/27 30/31/27
f 11/22/28 30/31/28 31/1/28
f 9/2/29 29/28/29 32/30/29
f 17/32/30 18/59/30 29/28/30
f 39/50/56 36/47/56 33/34/56
f 38/52/57 35/45/57 36/47/57
f 38/52/58 37/53/58 34/36/58
f 37/53/59 40/51/59 33/34/59
f 41/54/60 44/57/60 40/51/60
f 42/55/61 41/54/61 37/53/61
f 42/55/62 38/52/62 39/50/62
f 43/56/63 39/50/63 40/51/63
f 23/11/64 43/56/64 44/57/64
f 22/38/65 42/55/65 43/56/65
f 22/38/66 21/40/66 41/54/66
f 21/40/67 24/12/67 44/57/67
