# Blender v3.2.1 OBJ File: 'Cube - Kopie.blend'
# www.blender.org
o Eye_Cube.004
v 0.084913 0.188411 -0.184034
v 0.074122 0.515341 -0.228820
v 0.141256 0.351355 0.195103
v 0.137193 0.469377 0.178268
v -0.218595 0.196571 -0.056110
v -0.229376 0.523505 -0.100854
v 0.032045 0.354425 0.242982
v 0.027982 0.472447 0.226147
v 0.211189 0.550272 0.132726
v 0.220970 0.266139 0.173256
v -0.041951 0.273530 0.288524
v -0.051733 0.557663 0.247994
v 0.152683 0.490550 0.152199
v 0.158388 0.324838 0.175837
v 0.005046 0.329148 0.243063
v -0.000659 0.494861 0.219425
v 0.215000 0.117251 -0.100911
v 0.197834 0.615914 -0.172042
v -0.246436 0.130222 0.101388
v -0.263602 0.628886 0.030256
v -0.020720 0.261082 -0.232488
v -0.025721 0.426964 -0.253255
v -0.180739 0.430749 -0.193232
v -0.175747 0.264865 -0.172503
v 0.027792 0.391916 -0.636842
v 0.027225 0.421707 -0.631328
v -0.001579 0.422943 -0.640631
v -0.001048 0.393147 -0.646167
v 0.248330 0.633917 -0.058016
v -0.195939 0.148225 0.215414
v 0.265497 0.135254 0.013116
v -0.213106 0.646889 0.144282
v -0.062269 0.349617 -0.527023
v 0.001881 0.346286 -0.501235
v 0.000090 0.414246 -0.488086
v -0.064060 0.417577 -0.513874
v -0.023417 0.312676 -0.411417
v -0.024313 0.409666 -0.399830
v -0.119014 0.411846 -0.422066
v -0.118121 0.314855 -0.433638
v -0.051925 0.302622 -0.323043
v -0.051974 0.393056 -0.323594
v -0.141581 0.393384 -0.317822
v -0.141498 0.302963 -0.317224
vt 0.211879 0.138797
vt 0.174073 0.690602
vt 0.174073 0.290022
vt 0.488173 0.061259
vt 0.258769 0.978878
vt 0.258769 0.061259
vt 0.546734 0.158483
vt 0.577023 0.740357
vt 0.577023 0.279640
vt 0.559798 0.314091
vt 0.592633 0.643466
vt 0.592633 0.445432
vt 0.692202 0.279640
vt 0.722491 0.158483
vt 0.546734 0.861514
vt 0.692202 0.740357
vt 0.153203 0.607126
vt 0.094797 0.373499
vt 0.153203 0.373499
vt 0.073928 0.690602
vt 0.094797 0.607126
vt 0.073928 0.290022
vt 0.407042 0.370060
vt 0.405436 0.305921
vt 0.405436 0.380841
vt 0.407042 0.316702
vt 0.407042 0.316702
vt 0.405436 0.380841
vt 0.407042 0.370060
vt 0.405436 0.305921
vt 0.211879 0.841827
vt 0.036121 0.841827
vt 0.036121 0.841827
vt 0.036121 0.138797
vt 0.211879 0.138797
vt 0.036121 0.138797
vt 0.587136 0.929396
vt 0.511975 0.826432
vt 0.587136 0.806267
vt 0.674977 0.314091
vt 0.642141 0.643466
vt 0.674977 0.774808
vt 0.642141 0.445432
vt 0.559798 0.774808
vt 0.519458 0.427504
vt 0.519458 0.462233
vt 0.519458 0.427504
vt 0.583576 0.740340
vt 0.507294 0.844840
vt 0.583576 0.865305
vt 0.587136 0.929396
vt 0.511975 0.826432
vt 0.511975 0.909232
vt 0.583576 0.740340
vt 0.507294 0.844840
vt 0.507294 0.760805
vt 0.637951 0.879893
vt 0.637951 0.725752
vt 0.640712 0.791893
vt 0.640712 0.943770
vt 0.637951 0.879893
vt 0.640712 0.791894
vt 0.695100 0.777302
vt 0.640712 0.943770
vt 0.693150 0.894702
vt 0.637951 0.725752
vt 0.695100 0.777302
vt 0.695100 0.958361
vt 0.693150 0.894702
vt 0.693150 0.710943
vt 0.748349 0.909512
vt 0.748349 0.696133
vt 0.749488 0.762710
vt 0.749488 0.972952
vt 0.748349 0.909512
vt 0.693150 0.710943
vt 0.749488 0.762710
vt 0.695100 0.958361
vt 0.488173 0.978878
vt 0.722491 0.861514
vt 0.211879 0.841827
vt 0.511975 0.909232
vt 0.519458 0.462233
vt 0.507294 0.760805
vt 0.587136 0.806267
vt 0.583576 0.865305
vt 0.748349 0.696133
vt 0.749488 0.972952
vn 0.9738 0.0646 0.2180
vn 0.4008 0.1429 0.9050
vn -0.9784 -0.0594 -0.1980
vn -0.9205 -0.0756 -0.3832
vn -0.2107 -0.8807 -0.4242
vn -0.2527 0.7209 -0.6454
vn 0.1761 0.1449 0.9736
vn 0.3818 0.3698 0.8471
vn 0.3977 -0.0919 0.9129
vn 0.6033 0.1329 0.7863
vn 0.8129 0.1096 0.5720
vn 0.3617 -0.3837 0.8497
vn 0.3269 0.6292 0.7052
vn -0.1243 0.1359 0.9829
vn -0.0341 0.9894 -0.1411
vn 0.0341 -0.9894 0.1411
vn -0.9155 0.0257 0.4014
vn 0.4955 -0.1018 -0.8626
vn 0.0735 -0.9494 -0.3054
vn 0.3327 -0.1172 -0.9357
vn -0.2648 -0.7710 -0.5791
vn -0.2755 0.6020 -0.7495
vn 0.3096 0.1787 -0.9339
vn 0.9826 -0.0100 0.1856
vn 0.0252 0.9982 0.0547
vn -0.8970 0.0652 -0.4371
vn -0.4955 0.1059 0.8621
vn 0.2665 -0.7087 0.6533
vn 0.2118 0.8792 0.4268
vn 0.9155 -0.0257 -0.4014
vn -0.8654 0.0515 -0.4984
vn 0.0073 0.9977 0.0667
vn 0.9639 -0.0259 0.2652
vn 0.0832 -0.9408 -0.3286
vn 0.0034 -0.9937 -0.1120
vn 0.9417 -0.0313 0.3349
vn 0.0150 0.9840 0.1775
vn -0.9804 -0.0022 -0.1971
vn -0.9677 -0.0597 -0.2447
vn -0.0986 0.9442 -0.3142
vn 0.9371 -0.0016 -0.3490
vn -0.0300 -0.9124 -0.4082
vn -0.9768 -0.0628 -0.2045
vn -0.9141 -0.0844 -0.3965
vn -0.1967 -0.8906 -0.4100
vn -0.2690 0.7027 -0.6586
vn 0.4853 -0.1071 -0.8678
vn 0.0613 -0.9472 -0.3146
vn 0.3536 -0.1057 -0.9294
vn -0.2341 -0.7985 -0.5547
vn -0.3087 0.5611 -0.7680
vn 0.3093 0.1791 -0.9340
vn 0.9830 -0.0151 0.1828
vn 0.0287 0.9979 0.0574
vn -0.8963 0.0614 -0.4392
vn -0.8576 0.0758 -0.5086
vn 0.0279 0.9978 0.0595
vn 0.9645 -0.0225 0.2632
vn 0.0534 -0.9459 -0.3202
vn -0.0105 -0.9946 -0.1037
vn 0.9516 0.0024 0.3073
vn -0.0254 0.9786 0.2040
vn -0.9778 0.0159 -0.2089
vn -0.9542 -0.0029 -0.2991
vn -0.0242 0.9040 -0.4268
vn 0.9435 -0.0130 -0.3311
vn -0.1321 -0.9504 -0.2815
s off
f 31/1/1 9/2/1 10/3/1
f 3/4/2 8/5/2 7/6/2
f 19/7/3 6/8/3 5/9/3
f 5/10/4 23/11/4 24/12/4
f 19/7/5 1/13/5 17/14/5
f 20/15/6 2/16/6 6/8/6
f 13/17/7 10/3/7 9/2/7
f 15/18/8 10/3/8 14/19/8
f 13/17/9 12/20/9 16/21/9
f 16/21/10 11/22/10 15/18/10
f 4/23/11 14/24/11 13/25/11
f 7/26/12 14/24/12 3/27/12
f 4/23/13 16/28/13 8/29/13
f 8/29/14 15/30/14 7/26/14
f 29/31/15 20/32/15 32/33/15
f 30/34/16 17/35/16 31/1/16
f 32/33/17 19/36/17 30/34/17
f 2/16/18 17/14/18 1/13/18
f 33/37/19 25/38/19 34/39/19
f 1/40/20 22/41/20 2/42/20
f 5/10/21 21/43/21 1/40/21
f 6/44/22 22/41/22 23/11/22
f 28/45/23 26/46/23 25/47/23
f 34/48/24 26/49/24 35/50/24
f 36/51/25 26/52/25 27/53/25
f 33/54/26 27/55/26 28/56/26
f 12/20/27 30/34/27 11/22/27
f 11/22/28 31/1/28 10/3/28
f 9/2/29 32/33/29 12/20/29
f 17/35/30 29/31/30 31/1/30
f 39/57/31 33/54/31 40/58/31
f 38/59/32 36/51/32 39/60/32
f 38/61/33 34/48/33 35/50/33
f 37/62/34 33/37/34 34/39/34
f 41/63/35 40/64/35 37/62/35
f 42/65/36 37/66/36 38/61/36
f 42/67/37 39/60/37 43/68/37
f 43/69/38 40/58/38 44/70/38
f 23/71/39 44/70/39 24/72/39
f 22/73/40 43/68/40 23/74/40
f 22/75/41 41/76/41 42/65/41
f 21/77/42 44/78/42 41/63/42
f 31/1/1 29/31/1 9/2/1
f 3/4/2 4/79/2 8/5/2
f 19/7/43 20/15/43 6/8/43
f 5/10/44 6/44/44 23/11/44
f 19/7/45 5/9/45 1/13/45
f 20/15/46 18/80/46 2/16/46
f 13/17/7 14/19/7 10/3/7
f 15/18/8 11/22/8 10/3/8
f 13/17/9 9/2/9 12/20/9
f 16/21/10 12/20/10 11/22/10
f 4/23/11 3/27/11 14/24/11
f 7/26/12 15/30/12 14/24/12
f 4/23/13 13/25/13 16/28/13
f 8/29/14 16/28/14 15/30/14
f 29/31/15 18/81/15 20/32/15
f 30/34/16 19/36/16 17/35/16
f 32/33/17 20/32/17 19/36/17
f 2/16/47 18/80/47 17/14/47
f 33/37/48 28/82/48 25/38/48
f 1/40/49 21/43/49 22/41/49
f 5/10/50 24/12/50 21/43/50
f 6/44/51 2/42/51 22/41/51
f 28/45/52 27/83/52 26/46/52
f 34/48/53 25/84/53 26/49/53
f 36/51/54 35/85/54 26/52/54
f 33/54/55 36/86/55 27/55/55
f 12/20/27 32/33/27 30/34/27
f 11/22/28 30/34/28 31/1/28
f 9/2/29 29/31/29 32/33/29
f 17/35/30 18/81/30 29/31/30
f 39/57/56 36/86/56 33/54/56
f 38/59/57 35/85/57 36/51/57
f 38/61/58 37/66/58 34/48/58
f 37/62/59 40/64/59 33/37/59
f 41/63/60 44/78/60 40/64/60
f 42/65/61 41/76/61 37/66/61
f 42/67/62 38/59/62 39/60/62
f 43/69/63 39/57/63 40/58/63
f 23/71/64 43/69/64 44/70/64
f 22/73/65 42/67/65 43/68/65
f 22/75/66 21/87/66 41/76/66
f 21/77/67 24/88/67 44/78/67
