# Blender v3.2.1 OBJ File: 'Modeling.blend'
# www.blender.org
o Eye_Cube.004
v 0.115124 0.209494 -0.275242
v 0.080692 0.533194 -0.330436
v 0.373886 0.392914 -0.007263
v 0.361016 0.509735 -0.027670
v -0.065702 0.237713 -0.002704
v -0.100089 0.561422 -0.057849
v 0.310373 0.403459 0.093155
v 0.297503 0.520279 0.072748
v 0.396655 0.584525 -0.112698
v 0.427640 0.303284 -0.063569
v 0.274734 0.328669 0.178183
v 0.243749 0.609910 0.129054
v 0.359193 0.528595 -0.059432
v 0.377264 0.364569 -0.030779
v 0.288086 0.379374 0.110216
v 0.270015 0.543400 0.081563
v 0.268887 0.138086 -0.275414
v 0.214509 0.631673 -0.361637
v 0.000532 0.182638 0.148870
v -0.053847 0.676225 0.062646
v 0.002133 0.283383 -0.261633
v -0.014060 0.447730 -0.288204
v -0.110883 0.461023 -0.155767
v -0.094728 0.296668 -0.129239
v 0.029418 0.389512 -0.634397
v 0.029367 0.419532 -0.630174
v 0.001299 0.421082 -0.641514
v 0.001348 0.391065 -0.645739
v 0.320293 0.654595 -0.297137
v 0.106316 0.205559 0.213370
v 0.374671 0.161008 -0.210914
v 0.051938 0.699147 0.127147
v -0.071130 0.353970 -0.526416
v -0.006909 0.350836 -0.501096
v -0.007201 0.419485 -0.492065
v -0.071422 0.422619 -0.517385
v -0.032647 0.323806 -0.415939
v -0.032018 0.421360 -0.411069
v -0.128102 0.422985 -0.416299
v -0.128730 0.325430 -0.421142
v -0.047500 0.320231 -0.330332
v -0.049209 0.410410 -0.336970
v -0.128797 0.412316 -0.297823
v -0.126986 0.322161 -0.291163
vt 0.222479 0.902552
vt 0.185988 0.960806
vt 0.185988 0.918517
vt 0.466589 0.981674
vt 0.305916 0.911379
vt 0.466589 0.911379
vt 0.227552 0.901416
vt 0.192470 0.975129
vt 0.192470 0.916764
vt 0.581393 0.990018
vt 0.613709 0.976632
vt 0.613709 0.976632
vt 0.059064 0.916764
vt 0.023982 0.901416
vt 0.227552 0.990478
vt 0.059064 0.975129
vt 0.165845 0.927329
vt 0.165845 0.951993
vt 0.109470 0.927329
vt 0.089327 0.960806
vt 0.109470 0.951993
vt 0.089327 0.918517
vt 0.499051 0.995876
vt 0.499051 0.897177
vt 0.273454 0.995876
vt 0.305916 0.981674
vt 0.273454 0.897177
vt 0.222479 0.976770
vt 0.052836 0.976770
vt 0.052836 0.976770
vt 0.052836 0.902552
vt 0.222478 0.902552
vt 0.052836 0.902552
vt 0.660678 0.923831
vt 0.640921 0.899387
vt 0.652951 0.899387
vt 0.712479 0.990018
vt 0.680163 0.976632
vt 0.712479 0.990018
vt 0.680163 0.976632
vt 0.581393 0.990018
vt 0.649999 0.944647
vt 0.637755 0.950003
vt 0.637755 0.944647
vt 0.660678 0.923831
vt 0.652951 0.899387
vt 0.640921 0.899387
vt 0.633194 0.923831
vt 0.633194 0.923831
vt 0.627535 0.941255
vt 0.627535 0.941255
vt 0.666337 0.941255
vt 0.666337 0.941255
vt 0.664888 0.958386
vt 0.664888 0.958386
vt 0.628984 0.958386
vt 0.628984 0.958386
vt 0.023982 0.990478
vt 0.222478 0.976770
vt 0.649999 0.950003
vn 0.9283 0.0376 -0.3700
vn 0.8396 0.1819 0.5119
vn -0.9200 -0.0312 0.3907
vn -0.9788 -0.0648 0.1943
vn -0.4153 -0.8939 -0.1688
vn -0.5638 0.6952 -0.4459
vn 0.6922 0.1975 0.6942
vn 0.7912 0.4054 0.4579
vn 0.8416 -0.0516 0.5377
vn 0.9406 0.1563 0.3014
vn 0.9938 0.1110 0.0089
vn 0.7765 -0.3450 0.5273
vn 0.6660 0.6575 0.3522
vn 0.4487 0.2015 0.8706
vn -0.1079 0.9793 -0.1711
vn 0.1079 -0.9793 0.1711
vn -0.5325 0.0884 0.8418
vn -0.0829 -0.1761 -0.9809
vn 0.0537 -0.9628 -0.2647
vn -0.2528 -0.1887 -0.9490
vn -0.5486 -0.7869 -0.2825
vn -0.6320 0.5748 -0.5197
vn 0.3776 0.1296 -0.9168
vn 0.9661 -0.0343 0.2558
vn 0.0436 0.9990 0.0132
vn -0.8615 0.0626 -0.5038
vn 0.0738 0.1795 0.9810
vn 0.5876 -0.6773 0.4428
vn 0.4144 0.8944 0.1682
vn 0.5325 -0.0884 -0.8418
vn -0.8802 0.0292 -0.4737
vn 0.0166 0.9998 0.0057
vn 0.9553 -0.0345 0.2935
vn 0.0652 -0.9566 -0.2839
vn -0.0145 -0.9989 -0.0442
vn 0.9745 -0.0175 0.2235
vn 0.0680 0.9936 0.0899
vn -0.9997 -0.0191 0.0129
vn -0.9805 -0.0665 0.1849
vn -0.2611 0.9228 -0.2835
vn 0.8205 -0.0265 -0.5711
vn -0.1950 -0.9160 -0.3505
vn -0.9218 -0.0341 0.3862
vn -0.9804 -0.0730 0.1829
vn -0.3854 -0.9085 -0.1617
vn -0.5955 0.6677 -0.4468
vn -0.0947 -0.1814 -0.9788
vn 0.0573 -0.9627 -0.2645
vn -0.2312 -0.1774 -0.9566
vn -0.4882 -0.8286 -0.2740
vn -0.6901 0.5127 -0.5108
vn 0.3776 0.1297 -0.9169
vn 0.9665 -0.0294 0.2549
vn 0.0497 0.9987 0.0135
vn -0.8604 0.0696 -0.5049
vn -0.8705 0.0605 -0.4883
vn 0.0516 0.9986 -0.0073
vn 0.9588 -0.0203 0.2833
vn -0.0021 -0.9649 -0.2627
vn -0.0364 -0.9990 -0.0246
vn 0.9846 0.0313 0.1721
vn 0.0087 0.9889 0.1481
vn -1.0000 0.0067 -0.0053
vn -0.9916 -0.0104 0.1286
vn -0.2198 0.8447 -0.4880
vn 0.8063 -0.0161 -0.5912
vn -0.2656 -0.9591 -0.0981
s off
f 31/1/1 9/2/1 10/3/1
f 4/4/2 7/5/2 3/6/2
f 19/7/3 6/8/3 5/9/3
f 5/10/4 23/11/4 24/12/4
f 19/7/5 1/13/5 17/14/5
f 20/15/6 2/16/6 6/8/6
f 14/17/7 9/2/7 13/18/7
f 15/19/8 10/3/8 14/17/8
f 13/18/9 12/20/9 16/21/9
f 15/19/10 12/20/10 11/22/10
f 3/6/11 13/23/11 4/4/11
f 7/5/12 14/24/12 3/6/12
f 4/4/13 16/25/13 8/26/13
f 8/26/14 15/27/14 7/5/14
f 29/28/15 20/29/15 32/30/15
f 30/31/16 17/32/16 31/1/16
f 32/30/17 19/33/17 30/31/17
f 2/16/18 17/14/18 1/13/18
f 34/34/19 28/35/19 25/36/19
f 1/37/20 22/38/20 2/39/20
f 5/10/21 21/40/21 1/37/21
f 6/41/22 22/38/22 23/11/22
f 28/42/23 26/43/23 25/44/23
f 35/45/24 25/36/24 26/46/24
f 35/45/25 27/47/25 36/48/25
f 36/48/26 28/35/26 33/49/26
f 12/20/27 30/31/27 11/22/27
f 11/22/28 31/1/28 10/3/28
f 9/2/29 32/30/29 12/20/29
f 17/32/30 29/28/30 31/1/30
f 39/50/31 33/49/31 40/51/31
f 38/52/32 36/48/32 39/50/32
f 38/52/33 34/34/33 35/45/33
f 37/53/34 33/49/34 34/34/34
f 41/54/35 40/51/35 37/53/35
f 42/55/36 37/53/36 38/52/36
f 42/55/37 39/50/37 43/56/37
f 43/56/38 40/51/38 44/57/38
f 23/11/39 44/57/39 24/12/39
f 22/38/40 43/56/40 23/11/40
f 22/38/41 41/54/41 42/55/41
f 21/40/42 44/57/42 41/54/42
f 31/1/1 29/28/1 9/2/1
f 4/4/2 8/26/2 7/5/2
f 19/7/43 20/15/43 6/8/43
f 5/10/44 6/41/44 23/11/44
f 19/7/45 5/9/45 1/13/45
f 20/15/46 18/58/46 2/16/46
f 14/17/7 10/3/7 9/2/7
f 15/19/8 11/22/8 10/3/8
f 13/18/9 9/2/9 12/20/9
f 15/19/10 16/21/10 12/20/10
f 3/6/11 14/24/11 13/23/11
f 7/5/12 15/27/12 14/24/12
f 4/4/13 13/23/13 16/25/13
f 8/26/14 16/25/14 15/27/14
f 29/28/15 18/59/15 20/29/15
f 30/31/16 19/33/16 17/32/16
f 32/30/17 20/29/17 19/33/17
f 2/16/47 18/58/47 17/14/47
f 34/34/48 33/49/48 28/35/48
f 1/37/49 21/40/49 22/38/49
f 5/10/50 24/12/50 21/40/50
f 6/41/51 2/39/51 22/38/51
f 28/42/52 27/60/52 26/43/52
f 35/45/53 34/34/53 25/36/53
f 35/45/54 26/46/54 27/47/54
f 36/48/55 27/47/55 28/35/55
f 12/20/27 32/30/27 30/31/27
f 11/22/28 30/31/28 31/1/28
f 9/2/29 29/28/29 32/30/29
f 17/32/30 18/59/30 29/28/30
f 39/50/56 36/48/56 33/49/56
f 38/52/57 35/45/57 36/48/57
f 38/52/58 37/53/58 34/34/58
f 37/53/59 40/51/59 33/49/59
f 41/54/60 44/57/60 40/51/60
f 42/55/61 41/54/61 37/53/61
f 42/55/62 38/52/62 39/50/62
f 43/56/63 39/50/63 40/51/63
f 23/11/64 43/56/64 44/57/64
f 22/38/65 42/55/65 43/56/65
f 22/38/66 21/40/66 41/54/66
f 21/40/67 24/12/67 44/57/67
