# Blender v3.2.1 OBJ File: 'Modeling.blend'
# www.blender.org
o Player_Cube.001
v -0.393452 0.215044 0.390381
v -0.393452 0.969696 0.433268
v -0.393452 0.225173 -0.397442
v -0.393452 1.043154 -0.340825
v 0.393452 0.215012 0.390872
v 0.393452 0.961941 0.441672
v 0.393452 0.224702 -0.397514
v 0.393452 1.044012 -0.339840
v 0.262301 0.215474 0.390955
v -0.262299 0.218579 0.087433
v 0.262301 0.218579 0.087433
v -0.087432 0.218579 0.087433
v 0.087434 0.218579 0.087433
v -0.393452 0.219264 -0.088945
v -0.262299 0.218579 -0.087435
v 0.262301 0.218579 -0.087435
v -0.087432 0.218579 -0.087435
v 0.087434 0.218579 -0.087435
v -0.262299 -0.000003 -0.087435
v 0.262301 -0.000003 -0.087435
v -0.087432 -0.000003 -0.087435
v 0.087434 -0.000003 -0.087435
v -0.262299 0.087430 0.087433
v -0.087432 0.087430 0.087433
v 0.262301 0.087430 0.087433
v 0.087434 0.087430 0.087433
v -0.087432 -0.000003 0.218583
v -0.262299 -0.000003 0.218583
v 0.262301 -0.000003 0.218583
v 0.087434 -0.000003 0.218583
v 0.262301 0.087430 0.218583
v 0.087434 0.087430 0.218583
v -0.087432 0.087430 0.218583
v -0.262299 0.087430 0.218583
v 0.032332 0.999165 0.081226
v 0.003942 1.235329 0.119113
v -0.012332 0.999080 0.080819
v -0.032284 1.244711 0.118320
v 0.032332 1.004374 0.036799
v 0.000231 1.221637 0.086367
v -0.012332 1.004457 0.036480
v -0.036913 1.232442 0.074999
v 0.017710 1.206950 0.122879
v -0.031069 1.210039 0.102891
v -0.035908 1.202277 0.066012
v 0.019294 1.206440 0.067576
v -0.351737 1.063070 0.659207
v -0.358030 1.090824 0.670575
v -0.551248 1.085521 0.656486
v -0.606911 1.122265 0.464363
v -0.569691 1.005085 0.665372
v -0.600751 1.093922 0.453451
v -0.010394 1.136605 0.087165
v -0.020576 1.140592 0.050972
v 0.023600 1.134027 0.051148
v 0.024888 1.143493 0.094717
v -0.004456 1.205306 0.453909
v -0.352779 1.201960 0.425628
v -0.377067 1.300246 0.470675
v -0.073950 1.260462 0.392598
v -0.351787 1.247630 0.088465
v -0.283724 1.288601 0.167398
v -0.150883 1.199859 0.619740
v -0.517453 1.162037 0.628947
v -0.494727 1.298361 0.296487
v -0.455690 1.103667 0.542455
v -0.203297 1.255371 0.583699
v -0.537897 1.257037 0.235365
v -0.102160 1.235105 0.190630
v -0.002115 1.244574 0.189470
v -0.112310 1.224344 0.086817
v 0.002290 1.224861 0.198301
v -0.175200 1.304945 0.282629
v -0.103342 1.244285 0.090927
v -0.393452 0.782261 -0.371043
v -0.393452 0.717722 0.409853
v 0.393452 0.715815 0.411139
v -0.393452 0.774012 -0.271395
v 0.393452 0.782489 -0.371338
v 0.350756 0.715932 0.410989
v -0.393452 0.498168 -0.393117
v 0.306528 0.474662 0.392661
v -0.393452 0.475034 0.392158
v 0.393452 0.473855 0.393363
v -0.393452 0.491698 -0.188766
v 0.393452 0.497601 -0.393796
vt 0.378055 0.327070
vt 0.378055 0.255321
vt 0.412325 0.255321
vt 0.372848 0.560781
vt 0.128949 0.712673
vt 0.128949 0.712673
vt 0.487199 0.373660
vt 0.460442 0.357693
vt 0.522874 0.357693
vt 0.461264 0.370281
vt 0.490994 0.390240
vt 0.461264 0.390240
vt 0.378297 0.480259
vt 0.623230 0.550419
vt 0.379033 0.550957
vt 0.420536 0.376487
vt 0.450265 0.329918
vt 0.450265 0.376487
vt 0.375000 0.750000
vt 0.125000 0.500000
vt 0.375000 0.500000
vt 0.522874 0.397610
vt 0.280287 0.650828
vt 0.310545 0.771859
vt 0.128998 0.771859
vt 0.435004 0.388581
vt 0.496651 0.429966
vt 0.435004 0.429966
vt 0.623140 0.774427
vt 0.376860 0.702771
vt 0.622399 0.703300
vt 0.464189 0.381871
vt 0.525836 0.423257
vt 0.464189 0.423257
vt 0.872756 0.774419
vt 0.628474 0.555428
vt 0.872756 0.556499
vt 0.487620 0.370773
vt 0.517350 0.390732
vt 0.517350 0.357468
vt 0.620876 0.779918
vt 0.595027 0.852960
vt 0.581874 0.779918
vt 0.487620 0.370773
vt 0.465323 0.357468
vt 0.517350 0.357468
vt 0.128949 0.773626
vt 0.479995 0.376487
vt 0.509725 0.329918
vt 0.509725 0.376487
vt 0.464189 0.354281
vt 0.525836 0.381871
vt 0.464189 0.381871
vt 0.435004 0.360990
vt 0.496651 0.388581
vt 0.435004 0.388581
vt 0.483209 0.350238
vt 0.518884 0.390155
vt 0.483209 0.390155
vt 0.128949 0.773626
vt 0.295416 0.650828
vt 0.690855 0.601580
vt 0.720955 0.561581
vt 0.645084 0.561581
vt 0.487802 0.532021
vt 0.499065 0.526215
vt 0.504886 0.531542
vt 0.504388 0.516216
vt 0.520723 0.370281
vt 0.550453 0.390240
vt 0.520723 0.390240
vt 0.421523 0.423015
vt 0.416672 0.425767
vt 0.419592 0.429095
vt 0.811873 0.749619
vt 0.755398 0.725109
vt 0.815036 0.748557
vt 0.445009 0.520630
vt 0.436903 0.521033
vt 0.436536 0.520630
vt 0.839447 0.640919
vt 0.830172 0.653014
vt 0.841826 0.650634
vt 0.811682 0.606523
vt 0.795713 0.604342
vt 0.797723 0.603667
vt 0.442535 0.523492
vt 0.443596 0.519667
vt 0.443352 0.527173
vt 0.657356 0.572062
vt 0.732970 0.640298
vt 0.802944 0.586634
vt 0.674484 0.586634
vt 0.645084 0.629494
vt 0.674484 0.701620
vt 0.690518 0.687267
vt 0.720955 0.561581
vt 0.504746 0.373660
vt 0.469071 0.397610
vt 0.469071 0.357693
vt 0.812791 0.598503
vt 0.819388 0.604343
vt 0.732209 0.745865
vt 0.436536 0.528214
vt 0.445009 0.528214
vt 0.849909 0.716775
vt 0.827775 0.660324
vt 0.850963 0.639568
vt 0.792249 0.693992
vt 0.786910 0.600986
vt 0.815608 0.718989
vt 0.848653 0.719529
vt 0.732209 0.639568
vt 0.621927 0.327070
vt 0.621927 0.255321
vt 0.838755 0.740427
vt 0.850585 0.740115
vt 0.645084 0.629494
vt 0.838749 0.744845
vt 0.837104 0.755825
vt 0.823001 0.597556
vt 0.819079 0.585226
vt 0.819877 0.583477
vt 0.434972 0.527113
vt 0.131195 0.589875
vt 0.130889 0.560781
vt 0.128949 0.712673
vt 0.371061 0.772907
vt 0.128949 0.712673
vt 0.379124 0.996513
vt 0.608179 0.926002
vt 0.620876 0.996513
vt 0.517350 0.390732
vt 0.460442 0.373660
vt 0.465323 0.357468
vt 0.465323 0.370773
vt 0.250029 0.650828
vt 0.128998 0.590312
vt 0.250029 0.590312
vt 0.531503 0.357693
vt 0.531503 0.373660
vt 0.465323 0.370773
vt 0.487712 0.529427
vt 0.500418 0.517318
vt 0.837009 0.753053
vt 0.486812 0.350984
vt 0.522488 0.390900
vt 0.486812 0.390900
vt 0.379124 0.926002
vt 0.376860 0.628545
vt 0.621631 0.629622
vt 0.447825 0.180996
vt 0.621927 0.180996
vt 0.620876 0.926002
vt 0.622831 0.405771
vt 0.623034 0.479370
vt 0.378055 0.180996
vt 0.483324 0.106672
vt 0.621927 0.106672
vt 0.379124 0.852960
vt 0.620876 0.852960
vt 0.377534 0.407023
vt 0.622628 0.332173
vt 0.620863 0.555943
vt 0.378055 0.106672
vt 0.490994 0.370281
vt 0.420536 0.329918
vt 0.125000 0.750000
vt 0.487199 0.397610
vt 0.496651 0.388581
vt 0.376860 0.774427
vt 0.525836 0.381871
vt 0.628474 0.773348
vt 0.487620 0.390732
vt 0.128949 0.773626
vt 0.479995 0.329918
vt 0.525836 0.354281
vt 0.496651 0.360990
vt 0.518884 0.350238
vt 0.550453 0.370281
vt 0.417617 0.419461
vt 0.823369 0.646826
vt 0.811742 0.608285
vt 0.442230 0.514087
vt 0.504746 0.397610
vt 0.820307 0.598304
vt 0.854827 0.738937
vt 0.432052 0.523786
vt 0.487620 0.390732
vt 0.522488 0.350984
vt 0.379124 0.779918
vt 0.376770 0.333788
vt 0.376860 0.554318
vn -1.0000 0.0000 0.0000
vn -0.0000 -0.9998 -0.0197
vn 1.0000 -0.0000 0.0000
vn 0.0000 1.0000 0.0000
vn 0.0011 0.1196 -0.9928
vn 0.0000 -1.0000 -0.0000
vn -0.0010 -0.9927 -0.1204
vn 0.0007 -0.9999 -0.0110
vn 0.0000 0.0000 1.0000
vn -0.0012 0.9955 0.0945
vn 0.0006 -0.0067 1.0000
vn 0.0000 -0.0000 -1.0000
vn -0.0000 -0.9999 -0.0102
vn 0.2122 -0.8489 -0.4841
vn -0.0386 0.7574 -0.6518
vn 0.6298 0.7766 0.0109
vn -0.9299 -0.2872 0.2300
vn -0.3018 0.3207 -0.8978
vn -0.0090 -0.0460 0.9989
vn -0.1126 -0.4137 0.9034
vn -0.1776 0.2746 -0.9450
vn 0.9966 0.0694 -0.0445
vn -0.0012 0.1101 0.9939
vn 0.4356 -0.7728 -0.4615
vn -0.8151 0.4779 0.3275
vn -0.7754 0.6179 0.1299
vn 0.3655 -0.2807 0.8875
vn 0.3480 0.8916 -0.2897
vn -0.1645 0.9263 -0.3390
vn 0.0073 0.1105 -0.9939
vn 0.5770 0.8131 0.0774
vn 0.2265 0.9575 0.1788
vn -0.0954 -0.9891 0.1119
vn 0.0052 -0.9909 -0.1342
vn 0.3538 0.9339 0.0521
vn -0.0823 0.9946 -0.0635
vn 0.4836 0.7498 0.4516
vn 0.0192 -0.9926 -0.1195
vn -0.2916 0.6465 0.7050
vn -0.5730 0.7265 0.3792
vn 0.2515 0.9622 -0.1048
vn 0.2924 -0.8043 -0.5173
vn -0.2124 -0.9502 0.2279
vn 0.0972 0.9588 -0.2670
vn 0.9536 0.2715 0.1305
vn -0.1096 -0.9757 0.1899
vn -0.0916 -0.9927 -0.0784
vn 0.3069 -0.8609 -0.4059
vn 0.0370 0.2232 -0.9741
vn -0.0050 -0.9998 -0.0192
vn -0.0006 -0.9998 -0.0207
vn 0.0000 -0.9998 -0.0213
vn 0.0012 -0.9999 -0.0123
vn -0.9403 0.2420 0.2393
vn 0.0466 -0.9989 0.0000
vn -0.0118 -0.1217 0.9925
vn 0.0000 -0.9999 -0.0117
vn 0.0066 -0.9999 -0.0088
vn -0.0052 -1.0000 0.0000
vn 0.9978 0.0663 0.0078
vn -0.9999 0.0140 0.0017
vn -0.0777 0.3678 0.9266
vn 0.3541 0.2779 -0.8930
vn 0.8811 0.3924 -0.2640
vn -0.9410 -0.0777 -0.3293
vn -0.0554 0.5064 0.8605
vn 0.1271 0.9584 -0.2556
vn 0.2722 0.9555 -0.1136
vn -0.1951 -0.9734 0.1200
vn 0.1027 0.9541 -0.2812
vn -0.0017 -0.0754 0.9971
vn -0.0038 -0.1231 0.9924
vn -0.0004 0.0775 -0.9970
vn -0.0007 -0.0065 1.0000
vn -0.0087 -0.0742 0.9972
vn -0.0009 0.0158 -0.9999
vn -0.0004 0.1151 -0.9934
vn 0.0030 -0.9932 -0.1165
vn 0.0087 0.9945 0.1044
vn -0.0082 -0.0096 0.9999
vn -0.0035 -0.9999 -0.0102
vn -0.9346 -0.3030 0.1864
vn 0.0796 0.8550 -0.5125
vn -0.1893 -0.1011 0.9767
vn -0.3783 -0.2944 0.8776
vn -0.1777 0.2756 -0.9447
vn 0.9946 0.1003 0.0276
vn -0.0564 -0.3894 0.9194
vn 0.2328 -0.8354 -0.4978
vn 0.2382 0.8861 -0.3975
vn -0.2715 0.8754 -0.4000
vn 0.0199 0.1070 -0.9941
vn 0.8975 0.3311 0.2915
vn 0.1389 0.9750 0.1735
vn -0.1545 -0.9790 -0.1331
vn 0.0280 0.9992 -0.0297
vn 0.4139 0.8584 0.3030
vn 0.0114 -0.9997 -0.0227
vn 0.1227 0.6911 0.7123
vn -0.6085 0.7808 0.1421
vn 0.3199 -0.8448 -0.4289
vn 0.8985 0.4385 0.0197
vn -0.1436 -0.9691 0.2008
vn 0.0095 0.2391 -0.9710
vn -0.9336 -0.2860 0.2158
vn -0.0017 -0.0925 0.9957
vn 0.9976 0.0553 -0.0415
vn -0.9615 -0.0860 0.2610
vn -0.0008 -0.0727 0.9974
vn -0.0008 0.0786 -0.9969
vn -0.0009 -0.0068 1.0000
vn -0.0037 -0.0733 0.9973
vn -0.0001 0.0136 -0.9999
s off
f 4/1/1 75/2/1 78/3/1
f 7/4/2 18/5/2 17/6/2
f 25/7/3 29/8/3 20/9/3
f 34/10/4 24/11/4 23/12/4
f 79/13/5 4/14/5 8/15/5
f 28/16/6 21/17/6 27/18/6
f 39/19/7 37/20/7 41/21/7
f 16/22/3 25/7/3 20/9/3
f 12/23/8 9/24/8 1/25/8
f 23/26/9 12/27/9 10/28/9
f 8/29/3 77/30/3 79/31/3
f 26/32/9 11/33/9 13/34/9
f 2/35/10 8/36/10 4/37/10
f 26/38/1 18/39/1 22/40/1
f 5/41/11 82/42/11 9/43/11
f 24/44/3 27/45/3 21/46/3
f 18/5/6 12/47/6 17/6/6
f 30/48/6 20/49/6 29/50/6
f 30/51/9 31/52/9 32/53/9
f 28/54/9 33/55/9 34/56/9
f 21/57/12 15/58/12 17/59/12
f 11/60/13 9/24/13 13/61/13
f 66/62/14 47/63/14 51/64/14
f 45/65/15 40/66/15 46/67/15
f 40/66/16 43/68/16 46/67/16
f 32/69/4 25/70/4 26/71/4
f 53/72/17 45/73/17 54/74/17
f 71/75/18 62/76/18 74/77/18
f 35/78/19 53/79/19 37/80/19
f 43/81/20 53/82/20 56/83/20
f 42/84/21 71/85/21 74/86/21
f 46/87/22 56/88/22 55/89/22
f 47/63/23 49/90/23 51/64/23
f 47/63/24 58/91/24 63/92/24
f 64/93/25 50/94/25 49/90/25
f 68/95/26 50/94/26 65/96/26
f 63/92/27 48/97/27 47/63/27
f 23/98/1 15/99/1 19/100/1
f 38/101/28 40/102/28 42/84/28
f 61/103/29 65/96/29 62/76/29
f 41/104/30 55/89/30 39/105/30
f 72/106/31 60/107/31 57/108/31
f 73/109/32 67/110/32 60/107/32
f 69/111/33 61/103/33 71/75/33
f 58/91/34 61/103/34 69/111/34
f 73/109/35 60/107/35 70/112/35
f 62/76/36 59/113/36 73/109/36
f 57/108/37 67/110/37 63/92/37
f 57/108/38 58/91/38 69/111/38
f 59/113/39 48/97/39 67/110/39
f 50/94/40 59/113/40 65/96/40
f 2/114/1 78/3/1 76/115/1
f 38/116/41 70/112/41 36/117/41
f 58/91/42 52/118/42 68/95/42
f 44/119/43 71/75/43 45/120/43
f 38/116/44 74/77/44 73/109/44
f 43/121/45 70/122/45 72/123/45
f 44/119/46 72/106/46 69/111/46
f 69/111/47 72/106/47 57/108/47
f 66/62/48 51/64/48 52/118/48
f 54/124/49 46/87/49 55/89/49
f 14/125/50 3/126/50 15/127/50
f 3/126/51 7/4/51 17/6/51
f 15/127/52 3/126/52 17/6/52
f 7/4/53 5/128/53 11/60/53
f 49/90/54 52/118/54 51/64/54
f 11/60/55 16/129/55 7/4/55
f 2/130/56 80/131/56 6/132/56
f 7/4/2 16/129/2 18/5/2
f 17/133/3 24/44/3 21/46/3
f 25/7/3 31/134/3 29/8/3
f 22/40/1 30/135/1 26/38/1
f 30/135/1 32/136/1 26/38/1
f 10/137/57 12/23/57 1/25/57
f 12/23/13 13/61/13 9/24/13
f 1/25/58 14/138/58 10/137/58
f 14/138/59 15/139/59 10/137/59
f 19/100/1 28/140/1 23/98/1
f 28/140/1 34/141/1 23/98/1
f 55/89/60 35/78/60 39/105/60
f 24/44/3 33/142/3 27/45/3
f 53/79/61 41/104/61 37/80/61
f 64/93/62 49/90/62 48/97/62
f 45/65/63 42/143/63 40/66/63
f 40/66/64 36/144/64 43/68/64
f 68/95/65 52/118/65 50/94/65
f 63/92/66 67/110/66 48/97/66
f 73/109/67 74/77/67 62/76/67
f 38/116/68 73/109/68 70/112/68
f 44/119/69 69/111/69 71/75/69
f 38/116/70 42/145/70 74/77/70
f 20/146/12 18/147/12 16/148/12
f 76/149/71 82/42/71 80/131/71
f 79/31/3 84/150/3 86/151/3
f 76/115/1 85/152/1 83/153/1
f 80/131/72 77/154/72 6/132/72
f 79/13/73 81/155/73 75/156/73
f 78/3/1 81/157/1 85/152/1
f 83/153/1 14/158/1 1/159/1
f 83/160/74 9/43/74 82/42/74
f 84/161/75 80/131/75 82/42/75
f 86/162/76 3/163/76 81/155/76
f 84/150/3 7/164/3 86/151/3
f 85/152/1 3/165/1 14/158/1
f 34/10/4 33/166/4 24/11/4
f 79/13/77 75/156/77 4/14/77
f 28/16/6 19/167/6 21/17/6
f 39/19/78 35/168/78 37/20/78
f 16/22/3 11/169/3 25/7/3
f 23/26/9 24/170/9 12/27/9
f 8/29/3 6/171/3 77/30/3
f 26/32/9 25/172/9 11/33/9
f 2/35/79 6/173/79 8/36/79
f 26/38/1 13/174/1 18/39/1
f 5/41/80 84/161/80 82/42/80
f 18/5/6 13/175/6 12/47/6
f 30/48/6 22/176/6 20/49/6
f 30/51/9 29/177/9 31/52/9
f 28/54/9 27/178/9 33/55/9
f 21/57/12 19/179/12 15/58/12
f 11/60/81 5/128/81 9/24/81
f 32/69/4 31/180/4 25/70/4
f 53/72/82 44/181/82 45/73/82
f 71/75/83 61/103/83 62/76/83
f 35/78/84 56/88/84 53/79/84
f 43/81/85 44/182/85 53/82/85
f 42/84/86 45/183/86 71/85/86
f 46/87/87 43/184/87 56/88/87
f 47/63/88 48/97/88 49/90/88
f 47/63/89 66/62/89 58/91/89
f 23/98/1 10/185/1 15/99/1
f 38/101/90 36/186/90 40/102/90
f 61/103/91 68/95/91 65/96/91
f 41/104/92 54/124/92 55/89/92
f 72/106/93 70/112/93 60/107/93
f 73/109/94 59/113/94 67/110/94
f 58/91/95 68/95/95 61/103/95
f 62/76/96 65/96/96 59/113/96
f 57/108/97 60/107/97 67/110/97
f 57/108/98 63/92/98 58/91/98
f 59/113/99 64/93/99 48/97/99
f 50/94/100 64/93/100 59/113/100
f 2/114/1 4/1/1 78/3/1
f 58/91/101 66/62/101 52/118/101
f 43/121/102 36/186/102 70/122/102
f 44/119/103 43/187/103 72/106/103
f 54/124/104 45/188/104 46/87/104
f 49/90/105 50/94/105 52/118/105
f 2/130/106 76/149/106 80/131/106
f 17/133/3 12/189/3 24/44/3
f 55/89/107 56/88/107 35/78/107
f 53/79/108 54/124/108 41/104/108
f 20/146/12 22/190/12 18/147/12
f 76/149/109 83/160/109 82/42/109
f 79/31/3 77/30/3 84/150/3
f 76/115/1 78/3/1 85/152/1
f 79/13/110 86/162/110 81/155/110
f 78/3/1 75/2/1 81/157/1
f 83/153/1 85/152/1 14/158/1
f 83/160/111 1/191/111 9/43/111
f 84/161/112 77/154/112 80/131/112
f 86/162/113 7/192/113 3/163/113
f 84/150/3 5/193/3 7/164/3
f 85/152/1 81/157/1 3/165/1
