# Blender v3.2.1 OBJ File: 'Modeling.blend'
# www.blender.org
o Player_Cube.001
v -0.372039 0.181678 0.360365
v -0.429733 0.845022 0.424161
v -0.363700 0.235389 -0.378797
v -0.433691 0.914178 -0.301369
v 0.378154 0.188199 0.362229
v 0.278159 0.947762 0.456273
v 0.378638 0.259352 -0.374905
v 0.291026 1.033999 -0.274801
v 0.253981 0.178178 0.361981
v -0.252219 0.205732 0.075470
v 0.251643 0.203851 0.073839
v -0.087085 0.194595 0.074655
v 0.086066 0.193704 0.073809
v -0.371463 0.222571 -0.090914
v -0.251171 0.220881 -0.089378
v 0.250812 0.218859 -0.090244
v -0.086172 0.210267 -0.090126
v 0.085058 0.208833 -0.090245
v -0.251041 0.001061 -0.076850
v 0.254150 0.002710 -0.086788
v -0.086121 0.000709 -0.076623
v 0.089180 -0.000181 -0.086448
v -0.251628 0.084022 0.086070
v -0.086769 0.083023 0.086205
v 0.253232 0.085978 0.076045
v 0.088265 0.083022 0.076420
v -0.085879 0.001063 0.212054
v -0.250767 0.001023 0.211940
v 0.253946 0.008035 0.203659
v 0.089079 0.005425 0.203780
v 0.252640 0.090433 0.201226
v 0.087773 0.087822 0.201347
v -0.085899 0.083506 0.212458
v -0.250787 0.083466 0.212344
v -0.071576 0.921148 0.121939
v -0.162475 1.099628 0.217023
v -0.111701 0.909145 0.117647
v -0.197684 1.100238 0.215171
v -0.071110 0.934147 0.081896
v -0.162125 1.097051 0.184135
v -0.111238 0.922120 0.077583
v -0.198084 1.101269 0.173063
v -0.143126 1.076954 0.213670
v -0.187841 1.074935 0.191815
v -0.189693 1.079222 0.156297
v -0.141154 1.096460 0.165027
v -0.360299 0.687361 0.606842
v -0.378866 0.700166 0.625186
v -0.530127 0.607955 0.572707
v -0.600556 0.683564 0.414463
v -0.503525 0.538339 0.548810
v -0.581539 0.670357 0.395809
v -0.148180 1.024322 0.153282
v -0.158764 1.038764 0.122454
v -0.117162 1.044844 0.124876
v -0.118323 1.036300 0.166111
v -0.158998 1.018180 0.510035
v -0.439797 0.876175 0.452867
v -0.507515 0.917033 0.521124
v -0.243618 1.048734 0.461848
v -0.488917 1.007898 0.163005
v -0.444438 1.042713 0.250065
v -0.265714 0.905475 0.649100
v -0.543191 0.689414 0.582144
v -0.610512 0.918274 0.351567
v -0.467440 0.711192 0.499320
v -0.336764 0.933549 0.627362
v -0.629821 0.885356 0.280974
v -0.261063 1.055238 0.270221
v -0.173408 1.088172 0.281431
v -0.266202 1.074916 0.173043
v -0.164505 1.069303 0.284344
v -0.354634 1.068718 0.364215
v -0.263377 1.093127 0.183109
v -0.390824 0.687742 -0.328632
v -0.394668 0.617633 0.397520
v 0.326971 0.707165 0.421660
v -0.392491 0.676505 -0.234802
v 0.337121 0.787888 -0.307085
v 0.287284 0.701914 0.420037
v -0.364985 0.469418 -0.353871
v 0.283390 0.443527 0.379826
v -0.366821 0.428547 0.371771
v 0.364415 0.447289 0.381475
v -0.368640 0.448770 -0.161503
v 0.369121 0.511236 -0.345607
vt 0.378055 0.327070
vt 0.378055 0.255321
vt 0.412325 0.255321
vt 0.372848 0.560781
vt 0.128949 0.712673
vt 0.128949 0.712673
vt 0.487199 0.373660
vt 0.460442 0.357693
vt 0.522874 0.357693
vt 0.461264 0.370281
vt 0.490994 0.390240
vt 0.461264 0.390240
vt 0.379033 0.550957
vt 0.623034 0.479370
vt 0.623230 0.550419
vt 0.420536 0.376487
vt 0.450265 0.329918
vt 0.450265 0.376487
vt 0.375000 0.500000
vt 0.125000 0.750000
vt 0.125000 0.500000
vt 0.522874 0.397610
vt 0.280287 0.650828
vt 0.310545 0.771859
vt 0.128998 0.771859
vt 0.435004 0.388581
vt 0.496651 0.429966
vt 0.435004 0.429966
vt 0.623140 0.774427
vt 0.376860 0.702771
vt 0.622399 0.703300
vt 0.464189 0.423257
vt 0.525836 0.381871
vt 0.525836 0.423257
vt 0.872756 0.774419
vt 0.628474 0.555428
vt 0.872756 0.556499
vt 0.487620 0.370773
vt 0.517350 0.390732
vt 0.517350 0.357468
vt 0.620876 0.779918
vt 0.595027 0.852960
vt 0.581874 0.779918
vt 0.487620 0.370773
vt 0.465323 0.357468
vt 0.517350 0.357468
vt 0.128949 0.773626
vt 0.509725 0.376487
vt 0.479995 0.329918
vt 0.509725 0.329918
vt 0.464189 0.354281
vt 0.525836 0.381871
vt 0.464189 0.381871
vt 0.435004 0.360990
vt 0.496651 0.388581
vt 0.435004 0.388581
vt 0.483209 0.390155
vt 0.518884 0.350238
vt 0.518884 0.390155
vt 0.128949 0.773626
vt 0.295416 0.650828
vt 0.690855 0.601580
vt 0.720955 0.561581
vt 0.645084 0.561581
vt 0.487802 0.532021
vt 0.499065 0.526215
vt 0.504886 0.531542
vt 0.504388 0.516216
vt 0.520723 0.390240
vt 0.550453 0.370281
vt 0.550453 0.390240
vt 0.421523 0.423015
vt 0.416672 0.425767
vt 0.419592 0.429095
vt 0.811873 0.749619
vt 0.755398 0.725109
vt 0.815036 0.748557
vt 0.445009 0.520630
vt 0.436903 0.521033
vt 0.436536 0.520630
vt 0.839447 0.640919
vt 0.830172 0.653014
vt 0.841826 0.650634
vt 0.811682 0.606523
vt 0.795713 0.604342
vt 0.797723 0.603667
vt 0.442535 0.523492
vt 0.443596 0.519667
vt 0.443352 0.527173
vt 0.657356 0.572062
vt 0.732970 0.640298
vt 0.802944 0.586634
vt 0.674484 0.586634
vt 0.645084 0.629494
vt 0.674484 0.701620
vt 0.690518 0.687267
vt 0.720955 0.561581
vt 0.504746 0.373660
vt 0.469071 0.397610
vt 0.469071 0.357693
vt 0.812791 0.598503
vt 0.819388 0.604343
vt 0.732209 0.745865
vt 0.436536 0.528214
vt 0.445009 0.528214
vt 0.849909 0.716775
vt 0.827775 0.660324
vt 0.850963 0.639568
vt 0.732209 0.639568
vt 0.792249 0.693992
vt 0.815608 0.718989
vt 0.848653 0.719529
vt 0.786910 0.600986
vt 0.621927 0.327070
vt 0.621927 0.255321
vt 0.838755 0.740427
vt 0.850585 0.740115
vt 0.645084 0.629494
vt 0.838749 0.744845
vt 0.837104 0.755825
vt 0.823001 0.597556
vt 0.819079 0.585226
vt 0.819877 0.583477
vt 0.434972 0.527113
vt 0.131195 0.589875
vt 0.130889 0.560781
vt 0.128949 0.712673
vt 0.371061 0.772907
vt 0.128949 0.712673
vt 0.379124 0.996513
vt 0.608179 0.926002
vt 0.620876 0.996513
vt 0.517350 0.390732
vt 0.460442 0.373660
vt 0.465323 0.357468
vt 0.465323 0.370773
vt 0.250029 0.650828
vt 0.128998 0.590312
vt 0.250029 0.590312
vt 0.531503 0.357693
vt 0.531503 0.373660
vt 0.465323 0.370773
vt 0.487712 0.529427
vt 0.500418 0.517318
vt 0.837009 0.753053
vt 0.486812 0.350984
vt 0.522488 0.390900
vt 0.486812 0.390900
vt 0.379124 0.926002
vt 0.376860 0.628545
vt 0.621631 0.629622
vt 0.447825 0.180996
vt 0.621927 0.180996
vt 0.620876 0.926002
vt 0.378297 0.480259
vt 0.622831 0.405771
vt 0.378055 0.180996
vt 0.483324 0.106672
vt 0.621927 0.106672
vt 0.379124 0.852960
vt 0.620876 0.852960
vt 0.376770 0.333788
vt 0.622628 0.332173
vt 0.376860 0.554318
vt 0.620863 0.555943
vt 0.378055 0.106672
vt 0.490994 0.370281
vt 0.420536 0.329918
vt 0.375000 0.750000
vt 0.487199 0.397610
vt 0.496651 0.388581
vt 0.376860 0.774427
vt 0.464189 0.381871
vt 0.628474 0.773348
vt 0.487620 0.390732
vt 0.128949 0.773626
vt 0.479995 0.376487
vt 0.525836 0.354281
vt 0.496651 0.360990
vt 0.483209 0.350238
vt 0.520723 0.370281
vt 0.417617 0.419461
vt 0.823369 0.646826
vt 0.811742 0.608285
vt 0.442230 0.514087
vt 0.504746 0.397610
vt 0.820307 0.598304
vt 0.854827 0.738937
vt 0.432052 0.523786
vt 0.487620 0.390732
vt 0.522488 0.350984
vt 0.377534 0.407023
vt 0.379124 0.779918
vn -0.9826 -0.1813 -0.0392
vn -0.0084 -0.9831 -0.1831
vn 0.9999 0.0100 0.0005
vn 0.0061 1.0000 0.0044
vn 0.0161 0.1225 -0.9923
vn 0.0002 -1.0000 0.0012
vn 0.3026 -0.9078 -0.2905
vn 0.9999 0.0154 -0.0022
vn -0.0055 -0.9987 -0.0506
vn 0.0108 0.0868 0.9962
vn 0.9831 0.1797 0.0336
vn -0.0013 0.0187 0.9998
vn -0.1658 0.9816 0.0945
vn -0.9998 -0.0196 0.0044
vn 0.0035 -0.0675 0.9977
vn 1.0000 0.0096 -0.0008
vn -0.0084 -0.9957 -0.0918
vn 0.0176 -0.9997 0.0183
vn 0.0003 0.0295 0.9996
vn -0.0007 -0.0049 1.0000
vn -0.0082 -0.0569 -0.9983
vn 0.0609 -0.9942 -0.0891
vn 0.6302 -0.3325 -0.7017
vn -0.2656 0.9096 -0.3196
vn 0.3528 0.8634 0.3605
vn -0.0180 0.9992 -0.0356
vn -0.7978 -0.6028 -0.0085
vn -0.4190 0.4881 -0.7656
vn -0.0126 -0.2992 0.9541
vn 0.0209 -0.7546 0.6559
vn -0.1922 0.4974 -0.8460
vn 0.9297 0.3546 0.0997
vn -0.0323 -0.3355 0.9415
vn 0.7475 -0.2015 -0.6330
vn -0.9276 -0.1863 0.3238
vn -0.9673 0.0266 0.2522
vn 0.5101 -0.3715 0.7757
vn -1.0000 -0.0008 -0.0032
vn 0.1094 0.9937 0.0233
vn -0.6037 0.7972 -0.0104
vn -0.0074 0.3593 -0.9332
vn 0.2240 0.9517 0.2101
vn -0.2938 0.8142 0.5008
vn 0.2905 -0.9347 -0.2046
vn 0.3749 -0.8184 -0.4355
vn -0.0089 0.9776 0.2102
vn -0.5036 0.8393 0.2050
vn 0.0882 0.7397 0.6671
vn 0.4787 -0.8138 -0.3295
vn -0.5324 0.0882 0.8419
vn -0.8498 0.1025 0.5170
vn -0.9885 -0.1504 -0.0174
vn 0.0078 0.9843 0.1764
vn 0.6443 -0.2427 -0.7252
vn 0.0293 -0.9922 -0.1213
vn -0.1381 0.9884 0.0636
vn 0.8429 0.4445 0.3031
vn 0.1577 -0.9825 -0.0996
vn 0.1722 -0.9598 -0.2216
vn 0.6964 -0.3281 -0.6382
vn -0.0414 0.6014 -0.7979
vn -0.0135 -0.9989 -0.0448
vn 0.0327 -0.9925 -0.1178
vn -0.0643 -0.9976 -0.0250
vn 0.0953 -0.9908 -0.0956
vn -0.9113 -0.3917 0.1267
vn 0.1107 -0.9897 -0.0911
vn -0.0236 -0.1466 0.9889
vn 0.0600 -0.9917 -0.1141
vn 1.0000 0.0005 0.0037
vn 0.9999 0.0160 0.0042
vn -0.9999 -0.0107 -0.0001
vn -0.9999 -0.0160 -0.0033
vn -0.0674 -0.9914 -0.1121
vn -0.0054 -0.9987 -0.0507
vn -0.0147 -0.9958 -0.0903
vn -0.0128 -0.9957 -0.0916
vn -1.0000 -0.0089 0.0009
vn -1.0000 -0.0003 0.0067
vn 0.9323 0.3407 0.1215
vn 1.0000 0.0003 -0.0069
vn -0.9570 -0.2724 -0.0993
vn -0.2413 -0.1498 0.9588
vn 0.2927 0.6469 -0.7042
vn 0.7568 0.6522 -0.0430
vn -0.7667 -0.4278 -0.4787
vn -0.2774 0.0411 0.9599
vn -0.2705 0.9627 -0.0065
vn -0.0203 0.9823 0.1863
vn 0.0483 -0.9785 -0.2007
vn -0.1198 0.9925 0.0254
vn 0.0010 -0.0160 -0.9999
vn -0.0136 -0.1536 0.9880
vn 0.9935 0.1126 0.0163
vn -0.9894 -0.1454 -0.0021
vn -0.0211 -0.1465 0.9890
vn 0.0134 0.1164 -0.9931
vn -0.9930 -0.1140 -0.0311
vn -0.9998 0.0211 0.0006
vn -0.0108 -0.0659 0.9978
vn -0.0130 -0.1536 0.9881
vn 0.0018 0.1059 -0.9944
vn 0.9993 0.0373 0.0043
vn -0.9996 0.0041 -0.0268
vn -0.0002 1.0000 -0.0038
vn 0.0112 0.1321 -0.9912
vn -0.0021 -1.0000 -0.0001
vn 0.3032 -0.9074 -0.2910
vn 0.9999 0.0134 -0.0038
vn -0.0002 0.1030 0.9947
vn 0.9804 0.1931 0.0400
vn 0.0019 0.0236 0.9997
vn -0.1477 0.9825 0.1133
vn -0.9998 -0.0198 0.0043
vn -0.0168 -0.0750 0.9970
vn -0.0056 -0.9955 -0.0947
vn 0.0158 -0.9997 0.0193
vn 0.0012 -0.0643 -0.9979
vn 0.0803 -0.9928 -0.0891
vn -0.0158 0.9991 -0.0384
vn -0.7981 -0.6018 -0.0310
vn -0.2703 0.9336 -0.2352
vn -0.2091 -0.4231 0.8816
vn -0.2825 -0.7113 0.6436
vn -0.2088 0.5404 -0.8151
vn 0.9189 0.3519 0.1784
vn 0.1913 -0.7034 0.6846
vn 0.6397 -0.3057 -0.7052
vn -1.0000 -0.0055 -0.0069
vn 0.0214 0.9967 -0.0779
vn -0.7099 0.6924 -0.1287
vn 0.0018 0.3597 -0.9331
vn 0.8000 0.4404 0.4076
vn -0.3340 0.8514 0.4045
vn 0.3544 -0.8272 -0.4360
vn -0.4937 0.8140 0.3059
vn -0.0220 0.8264 0.5627
vn 0.4785 -0.8248 -0.3013
vn -0.2602 0.2879 0.9216
vn -0.9238 0.2274 0.3081
vn -0.9847 -0.1738 -0.0112
vn 0.6976 -0.3001 -0.6506
vn 0.7561 0.6101 0.2369
vn 0.0848 -0.9930 -0.0818
vn -0.0730 0.6065 -0.7917
vn -0.6267 -0.7740 -0.0909
vn -0.0181 -0.1191 0.9927
vn 1.0000 0.0034 0.0059
vn 0.9346 0.3421 0.0972
vn -0.9033 -0.4129 0.1167
vn -0.0017 -0.0182 -0.9998
vn -0.0091 -0.1362 0.9906
vn 0.9900 0.1381 0.0291
vn -0.9940 -0.1085 -0.0135
vn 0.0033 0.1383 -0.9904
vn -0.9930 -0.1139 -0.0313
vn -0.9999 0.0137 0.0039
vn -0.0028 -0.0461 0.9989
vn -0.0198 -0.1556 0.9876
vn 0.0046 0.1157 -0.9933
vn 0.9986 0.0521 0.0110
vn -0.9998 -0.0034 -0.0194
s off
f 4/1/1 75/2/1 78/3/1
f 7/4/2 18/5/2 17/6/2
f 25/7/3 29/8/3 20/9/3
f 34/10/4 24/11/4 23/12/4
f 8/13/5 75/14/5 4/15/5
f 28/16/6 21/17/6 27/18/6
f 41/19/7 35/20/7 37/21/7
f 16/22/8 25/7/8 20/9/8
f 12/23/9 9/24/9 1/25/9
f 23/26/10 12/27/10 10/28/10
f 8/29/11 77/30/11 79/31/11
f 13/32/12 25/33/12 11/34/12
f 2/35/13 8/36/13 4/37/13
f 26/38/14 18/39/14 22/40/14
f 5/41/15 82/42/15 9/43/15
f 24/44/16 27/45/16 21/46/16
f 13/47/17 17/6/17 18/5/17
f 29/48/18 22/49/18 20/50/18
f 30/51/19 31/52/19 32/53/19
f 28/54/20 33/55/20 34/56/20
f 17/57/21 19/58/21 15/59/21
f 11/60/22 9/24/22 13/61/22
f 66/62/23 47/63/23 51/64/23
f 45/65/24 40/66/24 46/67/24
f 40/66/25 43/68/25 46/67/25
f 26/69/26 31/70/26 25/71/26
f 53/72/27 45/73/27 54/74/27
f 71/75/28 62/76/28 74/77/28
f 35/78/29 53/79/29 37/80/29
f 43/81/30 53/82/30 56/83/30
f 42/84/31 71/85/31 74/86/31
f 46/87/32 56/88/32 55/89/32
f 47/63/33 49/90/33 51/64/33
f 47/63/34 58/91/34 63/92/34
f 64/93/35 50/94/35 49/90/35
f 68/95/36 50/94/36 65/96/36
f 63/92/37 48/97/37 47/63/37
f 23/98/38 15/99/38 19/100/38
f 38/101/39 40/102/39 42/84/39
f 61/103/40 65/96/40 62/76/40
f 41/104/41 55/89/41 39/105/41
f 72/106/42 60/107/42 57/108/42
f 59/109/43 60/107/43 73/110/43
f 69/111/44 61/103/44 71/75/44
f 58/91/45 61/103/45 69/111/45
f 73/110/46 60/107/46 70/112/46
f 65/96/47 73/110/47 62/76/47
f 57/108/48 67/113/48 63/92/48
f 57/108/49 58/91/49 69/111/49
f 59/109/50 48/97/50 67/113/50
f 50/94/51 59/109/51 65/96/51
f 2/114/52 78/3/52 76/115/52
f 38/116/53 70/112/53 36/117/53
f 58/91/54 52/118/54 68/95/54
f 44/119/55 71/75/55 45/120/55
f 38/116/56 74/77/56 73/110/56
f 43/121/57 70/122/57 72/123/57
f 44/119/58 72/106/58 69/111/58
f 69/111/59 72/106/59 57/108/59
f 66/62/60 51/64/60 52/118/60
f 54/124/61 46/87/61 55/89/61
f 14/125/62 3/126/62 15/127/62
f 3/126/63 7/4/63 17/6/63
f 15/127/64 3/126/64 17/6/64
f 7/4/65 5/128/65 11/60/65
f 49/90/66 52/118/66 51/64/66
f 11/60/67 16/129/67 7/4/67
f 2/130/68 80/131/68 6/132/68
f 7/4/69 16/129/69 18/5/69
f 17/133/70 24/44/70 21/46/70
f 25/7/71 31/134/71 29/8/71
f 22/40/72 30/135/72 26/38/72
f 30/135/73 32/136/73 26/38/73
f 10/137/74 12/23/74 1/25/74
f 12/23/75 13/61/75 9/24/75
f 1/25/76 14/138/76 10/137/76
f 14/138/77 15/139/77 10/137/77
f 19/100/78 28/140/78 23/98/78
f 28/140/79 34/141/79 23/98/79
f 55/89/80 35/78/80 39/105/80
f 24/44/81 33/142/81 27/45/81
f 53/79/82 41/104/82 37/80/82
f 64/93/83 49/90/83 48/97/83
f 45/65/84 42/143/84 40/66/84
f 40/66/85 36/144/85 43/68/85
f 68/95/86 52/118/86 50/94/86
f 63/92/87 67/113/87 48/97/87
f 73/110/88 74/77/88 62/76/88
f 38/116/89 73/110/89 70/112/89
f 44/119/90 69/111/90 71/75/90
f 38/116/91 42/145/91 74/77/91
f 20/146/92 18/147/92 16/148/92
f 76/149/93 82/42/93 80/131/93
f 79/31/94 84/150/94 86/151/94
f 76/115/95 85/152/95 83/153/95
f 80/131/96 77/154/96 6/132/96
f 79/155/97 81/156/97 75/14/97
f 78/3/98 81/157/98 85/152/98
f 83/153/99 14/158/99 1/159/99
f 83/160/100 9/43/100 82/42/100
f 84/161/101 80/131/101 82/42/101
f 81/156/102 7/162/102 3/163/102
f 86/151/103 5/164/103 7/165/103
f 85/152/104 3/166/104 14/158/104
f 34/10/105 33/167/105 24/11/105
f 8/13/106 79/155/106 75/14/106
f 28/16/107 19/168/107 21/17/107
f 41/19/108 39/169/108 35/20/108
f 16/22/109 11/170/109 25/7/109
f 23/26/110 24/171/110 12/27/110
f 8/29/111 6/172/111 77/30/111
f 13/32/112 26/173/112 25/33/112
f 2/35/113 6/174/113 8/36/113
f 26/38/114 13/175/114 18/39/114
f 5/41/115 84/161/115 82/42/115
f 13/47/116 12/176/116 17/6/116
f 29/48/117 30/177/117 22/49/117
f 30/51/19 29/178/19 31/52/19
f 28/54/20 27/179/20 33/55/20
f 17/57/118 21/180/118 19/58/118
f 11/60/119 5/128/119 9/24/119
f 26/69/120 32/181/120 31/70/120
f 53/72/121 44/182/121 45/73/121
f 71/75/122 61/103/122 62/76/122
f 35/78/123 56/88/123 53/79/123
f 43/81/124 44/183/124 53/82/124
f 42/84/125 45/184/125 71/85/125
f 46/87/126 43/185/126 56/88/126
f 47/63/127 48/97/127 49/90/127
f 47/63/128 66/62/128 58/91/128
f 23/98/129 10/186/129 15/99/129
f 38/101/130 36/187/130 40/102/130
f 61/103/131 68/95/131 65/96/131
f 41/104/132 54/124/132 55/89/132
f 72/106/133 70/112/133 60/107/133
f 59/109/134 67/113/134 60/107/134
f 58/91/135 68/95/135 61/103/135
f 65/96/136 59/109/136 73/110/136
f 57/108/137 60/107/137 67/113/137
f 57/108/138 63/92/138 58/91/138
f 59/109/139 64/93/139 48/97/139
f 50/94/140 64/93/140 59/109/140
f 2/114/141 4/1/141 78/3/141
f 58/91/142 66/62/142 52/118/142
f 43/121/143 36/187/143 70/122/143
f 44/119/144 43/188/144 72/106/144
f 54/124/145 45/189/145 46/87/145
f 49/90/146 50/94/146 52/118/146
f 2/130/147 76/149/147 80/131/147
f 17/133/148 12/190/148 24/44/148
f 55/89/149 56/88/149 35/78/149
f 53/79/150 54/124/150 41/104/150
f 20/146/151 22/191/151 18/147/151
f 76/149/152 83/160/152 82/42/152
f 79/31/153 77/30/153 84/150/153
f 76/115/154 78/3/154 85/152/154
f 79/155/155 86/192/155 81/156/155
f 78/3/156 75/2/156 81/157/156
f 83/153/157 85/152/157 14/158/157
f 83/160/158 1/193/158 9/43/158
f 84/161/159 77/154/159 80/131/159
f 81/156/160 86/192/160 7/162/160
f 86/151/161 84/150/161 5/164/161
f 85/152/162 81/157/162 3/166/162
