# Blender v3.2.1 OBJ File: 'Modeling.blend'
# www.blender.org
o Player_Cube.001
v -0.393009 0.220639 0.394314
v -0.388154 1.028325 0.362474
v -0.393428 0.215166 -0.389782
v -0.391460 0.977153 -0.426744
v 0.392868 0.220198 0.393809
v 0.398033 1.027304 0.352368
v 0.392112 0.215096 -0.390330
v 0.393880 0.970240 -0.430863
v 0.261932 0.219531 0.393789
v -0.262011 0.218155 0.087021
v 0.261989 0.218095 0.086974
v -0.087436 0.217789 0.087031
v 0.087404 0.217761 0.087006
v -0.393018 0.218561 -0.086459
v -0.261974 0.218658 -0.087557
v 0.261960 0.218593 -0.087580
v -0.087405 0.218310 -0.087546
v 0.087369 0.218263 -0.087547
v -0.261948 0.000002 -0.087133
v 0.262054 0.000061 -0.087455
v -0.087391 -0.000008 -0.087094
v 0.087495 -0.000033 -0.087417
v -0.261998 0.087294 0.087362
v -0.087442 0.087263 0.087398
v 0.262049 0.087365 0.087038
v 0.087491 0.087269 0.087077
v -0.087437 0.000002 0.218383
v -0.261992 -0.000001 0.218348
v 0.262094 0.000237 0.218085
v 0.087540 0.000152 0.218114
v 0.262052 0.087514 0.218005
v 0.087497 0.087429 0.218034
v -0.087439 0.087279 0.218397
v -0.261994 0.087276 0.218363
v 0.035503 1.003120 -0.020843
v 0.009324 1.243015 -0.032994
v -0.009075 1.003088 -0.020980
v -0.026221 1.253484 -0.037650
v 0.035284 0.999231 -0.065319
v 0.004641 1.220827 -0.059193
v -0.009294 0.999363 -0.065408
v -0.031797 1.228661 -0.073982
v 0.021677 1.216651 -0.020271
v -0.026832 1.215715 -0.040930
v -0.032002 1.198543 -0.074331
v 0.023170 1.202673 -0.073962
v -0.359361 1.299990 0.546436
v -0.361888 1.330485 0.545463
v -0.556997 1.343243 0.519494
v -0.601446 1.302845 0.329531
v -0.586796 1.276073 0.557767
v -0.598996 1.272845 0.330348
v -0.006745 1.138671 -0.041885
v -0.017080 1.135945 -0.078081
v 0.026981 1.129264 -0.076884
v 0.028542 1.146608 -0.035878
v 0.015732 1.351176 0.282638
v -0.339778 1.332651 0.277485
v -0.350841 1.442707 0.278348
v -0.058734 1.377021 0.205081
v -0.347674 1.235210 -0.050610
v -0.279741 1.303429 0.002223
v -0.126258 1.410072 0.449332
v -0.512213 1.397550 0.466838
v -0.478235 1.368676 0.124113
v -0.457727 1.302603 0.415198
v -0.179930 1.445294 0.395028
v -0.523370 1.305362 0.088542
v -0.096269 1.271386 0.032637
v 0.003719 1.275409 0.029238
v -0.107657 1.227112 -0.061776
v 0.007289 1.259545 0.044220
v -0.169997 1.369574 0.090652
v -0.097886 1.246722 -0.064428
v -0.393251 0.726330 -0.406115
v -0.390014 0.771160 0.378976
v 0.395317 0.767634 0.374941
v -0.392792 0.731943 -0.307474
v 0.392006 0.721194 -0.408625
v 0.352693 0.767778 0.375247
v -0.393528 0.474619 -0.391931
v 0.306185 0.489005 0.391898
v -0.392363 0.489979 0.392936
v 0.392948 0.489870 0.391199
v -0.393032 0.478223 -0.191627
v 0.391718 0.473478 -0.392450
vt 0.378055 0.327070
vt 0.378055 0.255321
vt 0.412325 0.255321
vt 0.372848 0.560781
vt 0.128949 0.712673
vt 0.128949 0.712673
vt 0.487199 0.373660
vt 0.460442 0.357693
vt 0.522874 0.357693
vt 0.461264 0.370281
vt 0.490994 0.390240
vt 0.461264 0.390240
vt 0.378297 0.480259
vt 0.623230 0.550419
vt 0.379033 0.550957
vt 0.420536 0.376487
vt 0.450265 0.329918
vt 0.450265 0.376487
vt 0.375000 0.750000
vt 0.125000 0.500000
vt 0.375000 0.500000
vt 0.522874 0.397610
vt 0.280287 0.650828
vt 0.310545 0.771859
vt 0.128998 0.771859
vt 0.435004 0.388581
vt 0.496651 0.429966
vt 0.435004 0.429966
vt 0.376860 0.774427
vt 0.622399 0.703300
vt 0.623140 0.774427
vt 0.464189 0.423257
vt 0.525836 0.381871
vt 0.525836 0.423257
vt 0.872756 0.556499
vt 0.628474 0.773348
vt 0.628474 0.555428
vt 0.487620 0.370773
vt 0.517350 0.390732
vt 0.517350 0.357468
vt 0.620876 0.779918
vt 0.595027 0.852960
vt 0.581874 0.779918
vt 0.487620 0.370773
vt 0.465323 0.357468
vt 0.517350 0.357468
vt 0.128949 0.773626
vt 0.509725 0.376487
vt 0.479995 0.329918
vt 0.509725 0.329918
vt 0.464189 0.354281
vt 0.525836 0.381871
vt 0.464189 0.381871
vt 0.435004 0.360990
vt 0.496651 0.388581
vt 0.435004 0.388581
vt 0.483209 0.390155
vt 0.518884 0.350238
vt 0.518884 0.390155
vt 0.128949 0.773626
vt 0.295416 0.650828
vt 0.690855 0.601580
vt 0.720955 0.561581
vt 0.645084 0.561581
vt 0.487802 0.532021
vt 0.499065 0.526215
vt 0.504886 0.531542
vt 0.504388 0.516216
vt 0.520723 0.390240
vt 0.550453 0.370281
vt 0.550453 0.390240
vt 0.421523 0.423015
vt 0.416672 0.425767
vt 0.419592 0.429095
vt 0.811873 0.749619
vt 0.755398 0.725109
vt 0.815036 0.748557
vt 0.445009 0.520630
vt 0.436903 0.521033
vt 0.436536 0.520630
vt 0.839447 0.640919
vt 0.830172 0.653014
vt 0.841826 0.650634
vt 0.811682 0.606523
vt 0.795713 0.604342
vt 0.797723 0.603667
vt 0.442535 0.523492
vt 0.443596 0.519667
vt 0.443352 0.527173
vt 0.657356 0.572062
vt 0.732970 0.640298
vt 0.802944 0.586634
vt 0.674484 0.586634
vt 0.645084 0.629494
vt 0.674484 0.701620
vt 0.690518 0.687267
vt 0.720955 0.561581
vt 0.504746 0.373660
vt 0.469071 0.397610
vt 0.469071 0.357693
vt 0.812791 0.598503
vt 0.819388 0.604343
vt 0.732209 0.745865
vt 0.436536 0.528214
vt 0.445009 0.528214
vt 0.849909 0.716775
vt 0.827775 0.660324
vt 0.850963 0.639568
vt 0.732209 0.639568
vt 0.792249 0.693992
vt 0.815608 0.718989
vt 0.848653 0.719529
vt 0.786910 0.600986
vt 0.621927 0.327070
vt 0.621927 0.255321
vt 0.838755 0.740427
vt 0.850585 0.740115
vt 0.645084 0.629494
vt 0.838749 0.744845
vt 0.837104 0.755825
vt 0.823001 0.597556
vt 0.819079 0.585226
vt 0.819877 0.583477
vt 0.434972 0.527113
vt 0.131195 0.589875
vt 0.130889 0.560781
vt 0.128949 0.712673
vt 0.371061 0.772907
vt 0.128949 0.712673
vt 0.379124 0.996513
vt 0.608179 0.926002
vt 0.620876 0.996513
vt 0.517350 0.390732
vt 0.460442 0.373660
vt 0.465323 0.357468
vt 0.465323 0.370773
vt 0.250029 0.650828
vt 0.128998 0.590312
vt 0.250029 0.590312
vt 0.531503 0.357693
vt 0.531503 0.373660
vt 0.465323 0.370773
vt 0.487712 0.529427
vt 0.500418 0.517318
vt 0.837009 0.753053
vt 0.486812 0.350984
vt 0.522488 0.390900
vt 0.486812 0.390900
vt 0.379124 0.926002
vt 0.376860 0.702771
vt 0.621631 0.629622
vt 0.447825 0.180996
vt 0.621927 0.180996
vt 0.620876 0.926002
vt 0.622831 0.405771
vt 0.623034 0.479370
vt 0.378055 0.180996
vt 0.483324 0.106672
vt 0.621927 0.106672
vt 0.379124 0.852960
vt 0.620876 0.852960
vt 0.377534 0.407023
vt 0.622628 0.332173
vt 0.376860 0.554318
vt 0.620863 0.555943
vt 0.378055 0.106672
vt 0.490994 0.370281
vt 0.420536 0.329918
vt 0.125000 0.750000
vt 0.487199 0.397610
vt 0.496651 0.388581
vt 0.464189 0.381871
vt 0.872756 0.774419
vt 0.487620 0.390732
vt 0.128949 0.773626
vt 0.479995 0.376487
vt 0.525836 0.354281
vt 0.496651 0.360990
vt 0.483209 0.350238
vt 0.520723 0.370281
vt 0.417617 0.419461
vt 0.823369 0.646826
vt 0.811742 0.608285
vt 0.442230 0.514087
vt 0.504746 0.397610
vt 0.820307 0.598304
vt 0.854827 0.738937
vt 0.432052 0.523786
vt 0.487620 0.390732
vt 0.522488 0.350984
vt 0.376860 0.628545
vt 0.379124 0.779918
vt 0.376770 0.333788
vn -1.0000 0.0075 0.0042
vn -0.0003 -0.9999 0.0102
vn 1.0000 0.0003 -0.0001
vn 0.0002 1.0000 0.0001
vn -0.0060 -0.0889 -0.9960
vn 0.0000 -1.0000 0.0000
vn -0.0031 -0.9965 0.0835
vn 1.0000 0.0004 -0.0002
vn -0.0017 -1.0000 0.0076
vn -0.0001 0.0026 1.0000
vn 1.0000 -0.0079 -0.0047
vn 0.0002 0.0005 1.0000
vn 0.0084 0.9973 -0.0727
vn -1.0000 -0.0006 0.0003
vn -0.0002 0.0070 1.0000
vn 1.0000 0.0003 0.0001
vn -0.0003 -1.0000 -0.0029
vn 0.0005 -1.0000 0.0006
vn 0.0002 0.0009 1.0000
vn -0.0002 -0.0002 1.0000
vn 0.0001 -0.0019 -1.0000
vn 0.0019 -1.0000 0.0047
vn 0.0995 -0.9906 -0.0943
vn -0.0400 0.6057 -0.7947
vn 0.6092 0.7714 -0.1839
vn -0.0006 1.0000 -0.0011
vn -0.9290 -0.2384 0.2832
vn -0.3332 0.0386 -0.9421
vn -0.0031 0.1524 0.9883
vn -0.1137 -0.2267 0.9673
vn -0.1575 -0.0549 -0.9860
vn 0.9967 0.0542 -0.0609
vn -0.0092 0.4981 0.8671
vn 0.3974 -0.9140 -0.0821
vn -0.7533 0.6567 0.0366
vn -0.7273 0.6470 -0.2289
vn 0.3598 0.0595 0.9311
vn -1.0000 -0.0001 -0.0002
vn 0.3850 0.7334 -0.5602
vn -0.1841 0.7099 -0.6798
vn 0.0017 -0.0885 -0.9961
vn 0.5830 0.7513 -0.3094
vn 0.1613 0.9622 -0.2195
vn -0.0107 -0.9048 0.4256
vn 0.0440 -0.9580 0.2834
vn 0.3333 0.8628 -0.3802
vn -0.0619 0.8345 -0.5475
vn 0.4760 0.8742 0.0966
vn 0.0458 -0.9574 0.2851
vn -0.2624 0.8935 0.3645
vn -0.4895 0.8719 -0.0142
vn -1.0000 0.0075 0.0036
vn 0.3066 0.8553 -0.4176
vn 0.2117 -0.9752 -0.0649
vn -0.2415 -0.8473 0.4730
vn 0.1386 0.8066 -0.5746
vn 0.9651 0.2583 0.0435
vn -0.1534 -0.8522 0.5002
vn -0.1456 -0.9218 0.3594
vn 0.2044 -0.9789 0.0029
vn 0.0334 0.0415 -0.9986
vn 0.0008 -0.9999 0.0112
vn -0.0001 -0.9999 0.0105
vn -0.0020 -0.9999 0.0124
vn 0.0008 -1.0000 0.0065
vn -0.9041 0.4253 0.0425
vn -0.0335 -0.9994 -0.0028
vn 0.0129 0.0856 0.9962
vn 0.0019 -0.9999 0.0124
vn 1.0000 0.0001 0.0003
vn 1.0000 0.0005 -0.0000
vn -1.0000 -0.0003 0.0001
vn -1.0000 -0.0005 0.0000
vn -0.0021 -1.0000 0.0072
vn -0.0002 -1.0000 0.0059
vn -0.0088 -1.0000 0.0043
vn 0.0007 -1.0000 -0.0029
vn -1.0000 -0.0003 -0.0001
vn -1.0000 -0.0000 0.0000
vn 0.9980 0.0628 -0.0104
vn 1.0000 0.0000 -0.0000
vn -0.9998 0.0177 0.0034
vn -0.0462 0.7147 0.6979
vn 0.3776 0.0082 -0.9259
vn 0.8978 0.2436 -0.3668
vn -0.9475 -0.0858 -0.3079
vn -0.0427 0.8184 0.5730
vn 0.0204 0.7883 -0.6150
vn 0.3135 0.8519 -0.4195
vn -0.2349 -0.8689 0.4358
vn 0.1379 0.8078 -0.5731
vn -0.0002 -0.0006 -1.0000
vn 0.0053 0.0587 0.9983
vn 1.0000 -0.0014 -0.0041
vn -1.0000 0.0084 0.0010
vn 0.0074 0.0865 0.9962
vn -0.0036 -0.0563 -0.9984
vn -1.0000 0.0021 0.0024
vn -1.0000 0.0024 0.0000
vn 0.0015 0.0068 1.0000
vn 0.0075 0.0584 0.9983
vn -0.0007 -0.0083 -1.0000
vn 1.0000 0.0015 -0.0010
vn -1.0000 0.0005 0.0013
vn -0.0000 1.0000 -0.0001
vn -0.0037 -0.0819 -0.9966
vn -0.0001 -1.0000 -0.0000
vn 0.0005 -0.9962 0.0871
vn 1.0000 0.0005 -0.0002
vn -0.0002 0.0028 1.0000
vn 0.9999 -0.0108 -0.0036
vn 0.0005 0.9979 -0.0647
vn -1.0000 -0.0007 0.0002
vn 0.0080 0.0097 0.9999
vn -0.0002 -1.0000 -0.0030
vn 0.0002 -0.0021 -1.0000
vn 0.0051 -1.0000 0.0047
vn -0.0005 1.0000 -0.0012
vn -0.9307 -0.2460 0.2705
vn -0.0154 0.6218 -0.7830
vn -0.1875 0.0934 0.9778
vn -0.3875 -0.1124 0.9150
vn -0.1591 0.0125 -0.9872
vn 0.9953 0.0970 0.0024
vn -0.1306 0.0208 0.9912
vn 0.1218 -0.9863 -0.1109
vn 0.2921 0.7035 -0.6480
vn -0.3153 0.6257 -0.7135
vn 0.0132 -0.0916 -0.9957
vn 0.9314 0.3377 0.1357
vn 0.1535 0.9570 -0.2461
vn -0.1524 -0.9464 0.2847
vn -0.0462 0.9149 -0.4010
vn 0.3965 0.9149 -0.0758
vn 0.0432 -0.9299 0.3653
vn 0.1995 0.9004 0.3865
vn -0.5100 0.8264 -0.2386
vn -1.0000 0.0072 0.0037
vn 0.2200 -0.9752 -0.0243
vn 0.9196 0.3763 -0.1131
vn -0.2015 -0.8357 0.5109
vn 0.0022 0.0603 -0.9982
vn -0.9676 -0.0724 0.2418
vn 0.0053 0.0640 0.9979
vn 1.0000 -0.0000 0.0002
vn 0.9975 0.0425 -0.0560
vn -0.9606 -0.0291 0.2765
vn 0.0016 0.0496 0.9988
vn 1.0000 -0.0086 -0.0014
vn -1.0000 0.0027 0.0039
vn -0.0008 -0.0652 -0.9979
vn -1.0000 0.0014 0.0046
vn -1.0000 0.0004 0.0011
vn 0.0008 0.0051 1.0000
vn 0.0074 0.0584 0.9983
vn -0.0007 -0.0082 -1.0000
vn 1.0000 -0.0003 -0.0016
vn -1.0000 -0.0004 0.0025
s off
f 4/1/1 75/2/1 78/3/1
f 7/4/2 18/5/2 17/6/2
f 25/7/3 29/8/3 20/9/3
f 34/10/4 24/11/4 23/12/4
f 79/13/5 4/14/5 8/15/5
f 28/16/6 21/17/6 27/18/6
f 39/19/7 37/20/7 41/21/7
f 16/22/8 25/7/8 20/9/8
f 12/23/9 9/24/9 1/25/9
f 23/26/10 12/27/10 10/28/10
f 6/29/11 79/30/11 8/31/11
f 13/32/12 25/33/12 11/34/12
f 4/35/13 6/36/13 8/37/13
f 26/38/14 18/39/14 22/40/14
f 5/41/15 82/42/15 9/43/15
f 24/44/16 27/45/16 21/46/16
f 13/47/17 17/6/17 18/5/17
f 29/48/18 22/49/18 20/50/18
f 30/51/19 31/52/19 32/53/19
f 28/54/20 33/55/20 34/56/20
f 17/57/21 19/58/21 15/59/21
f 11/60/22 9/24/22 13/61/22
f 66/62/23 47/63/23 51/64/23
f 45/65/24 40/66/24 46/67/24
f 40/66/25 43/68/25 46/67/25
f 26/69/26 31/70/26 25/71/26
f 53/72/27 45/73/27 54/74/27
f 71/75/28 62/76/28 74/77/28
f 35/78/29 53/79/29 37/80/29
f 43/81/30 53/82/30 56/83/30
f 42/84/31 71/85/31 74/86/31
f 46/87/32 56/88/32 55/89/32
f 47/63/33 49/90/33 51/64/33
f 47/63/34 58/91/34 63/92/34
f 64/93/35 50/94/35 49/90/35
f 68/95/36 50/94/36 65/96/36
f 63/92/37 48/97/37 47/63/37
f 23/98/38 15/99/38 19/100/38
f 38/101/39 40/102/39 42/84/39
f 61/103/40 65/96/40 62/76/40
f 41/104/41 55/89/41 39/105/41
f 72/106/42 60/107/42 57/108/42
f 59/109/43 60/107/43 73/110/43
f 69/111/44 61/103/44 71/75/44
f 58/91/45 61/103/45 69/111/45
f 73/110/46 60/107/46 70/112/46
f 65/96/47 73/110/47 62/76/47
f 57/108/48 67/113/48 63/92/48
f 57/108/49 58/91/49 69/111/49
f 59/109/50 48/97/50 67/113/50
f 50/94/51 59/109/51 65/96/51
f 2/114/52 78/3/52 76/115/52
f 38/116/53 70/112/53 36/117/53
f 58/91/54 52/118/54 68/95/54
f 44/119/55 71/75/55 45/120/55
f 38/116/56 74/77/56 73/110/56
f 43/121/57 70/122/57 72/123/57
f 44/119/58 72/106/58 69/111/58
f 69/111/59 72/106/59 57/108/59
f 66/62/60 51/64/60 52/118/60
f 54/124/61 46/87/61 55/89/61
f 14/125/62 3/126/62 15/127/62
f 3/126/63 7/4/63 17/6/63
f 15/127/64 3/126/64 17/6/64
f 7/4/65 5/128/65 11/60/65
f 49/90/66 52/118/66 51/64/66
f 11/60/67 16/129/67 7/4/67
f 2/130/68 80/131/68 6/132/68
f 7/4/69 16/129/69 18/5/69
f 17/133/70 24/44/70 21/46/70
f 25/7/71 31/134/71 29/8/71
f 22/40/72 30/135/72 26/38/72
f 30/135/73 32/136/73 26/38/73
f 10/137/74 12/23/74 1/25/74
f 12/23/75 13/61/75 9/24/75
f 1/25/76 14/138/76 10/137/76
f 14/138/77 15/139/77 10/137/77
f 19/100/78 28/140/78 23/98/78
f 28/140/79 34/141/79 23/98/79
f 55/89/80 35/78/80 39/105/80
f 24/44/81 33/142/81 27/45/81
f 53/79/82 41/104/82 37/80/82
f 64/93/83 49/90/83 48/97/83
f 45/65/84 42/143/84 40/66/84
f 40/66/85 36/144/85 43/68/85
f 68/95/86 52/118/86 50/94/86
f 63/92/87 67/113/87 48/97/87
f 73/110/88 74/77/88 62/76/88
f 38/116/89 73/110/89 70/112/89
f 44/119/90 69/111/90 71/75/90
f 38/116/91 42/145/91 74/77/91
f 20/146/92 18/147/92 16/148/92
f 76/149/93 82/42/93 80/131/93
f 77/150/94 86/151/94 79/30/94
f 76/115/95 85/152/95 83/153/95
f 80/131/96 77/154/96 6/132/96
f 79/13/97 81/155/97 75/156/97
f 78/3/98 81/157/98 85/152/98
f 83/153/99 14/158/99 1/159/99
f 83/160/100 9/43/100 82/42/100
f 84/161/101 80/131/101 82/42/101
f 86/162/102 3/163/102 81/155/102
f 86/151/103 5/164/103 7/165/103
f 85/152/104 3/166/104 14/158/104
f 34/10/105 33/167/105 24/11/105
f 79/13/106 75/156/106 4/14/106
f 28/16/107 19/168/107 21/17/107
f 39/19/108 35/169/108 37/20/108
f 16/22/109 11/170/109 25/7/109
f 23/26/110 24/171/110 12/27/110
f 6/29/111 77/150/111 79/30/111
f 13/32/12 26/172/12 25/33/12
f 4/35/112 2/173/112 6/36/112
f 26/38/113 13/174/113 18/39/113
f 5/41/114 84/161/114 82/42/114
f 13/47/115 12/175/115 17/6/115
f 29/48/18 30/176/18 22/49/18
f 30/51/19 29/177/19 31/52/19
f 28/54/20 27/178/20 33/55/20
f 17/57/116 21/179/116 19/58/116
f 11/60/117 5/128/117 9/24/117
f 26/69/118 32/180/118 31/70/118
f 53/72/119 44/181/119 45/73/119
f 71/75/120 61/103/120 62/76/120
f 35/78/121 56/88/121 53/79/121
f 43/81/122 44/182/122 53/82/122
f 42/84/123 45/183/123 71/85/123
f 46/87/124 43/184/124 56/88/124
f 47/63/125 48/97/125 49/90/125
f 47/63/126 66/62/126 58/91/126
f 23/98/38 10/185/38 15/99/38
f 38/101/127 36/186/127 40/102/127
f 61/103/128 68/95/128 65/96/128
f 41/104/129 54/124/129 55/89/129
f 72/106/130 70/112/130 60/107/130
f 59/109/131 67/113/131 60/107/131
f 58/91/132 68/95/132 61/103/132
f 65/96/133 59/109/133 73/110/133
f 57/108/134 60/107/134 67/113/134
f 57/108/135 63/92/135 58/91/135
f 59/109/136 64/93/136 48/97/136
f 50/94/137 64/93/137 59/109/137
f 2/114/138 4/1/138 78/3/138
f 58/91/139 66/62/139 52/118/139
f 43/121/140 36/186/140 70/122/140
f 44/119/141 43/187/141 72/106/141
f 54/124/142 45/188/142 46/87/142
f 49/90/143 50/94/143 52/118/143
f 2/130/144 76/149/144 80/131/144
f 17/133/145 12/189/145 24/44/145
f 55/89/146 56/88/146 35/78/146
f 53/79/147 54/124/147 41/104/147
f 20/146/92 22/190/92 18/147/92
f 76/149/148 83/160/148 82/42/148
f 77/150/149 84/191/149 86/151/149
f 76/115/150 78/3/150 85/152/150
f 79/13/151 86/162/151 81/155/151
f 78/3/152 75/2/152 81/157/152
f 83/153/153 85/152/153 14/158/153
f 83/160/154 1/192/154 9/43/154
f 84/161/155 77/154/155 80/131/155
f 86/162/156 7/193/156 3/163/156
f 86/151/157 84/191/157 5/164/157
f 85/152/158 81/157/158 3/166/158
