# Blender v3.2.1 OBJ File: 'Cube - Kopie.blend'
# www.blender.org
o FinishedCube_Cube.001
v -0.393452 0.218579 0.393452
v -0.393452 1.005483 0.393452
v -0.393452 0.218579 -0.393452
v -0.393452 1.005483 -0.393452
v 0.393452 0.218579 0.393452
v 0.393452 1.005483 0.393452
v 0.393452 0.218579 -0.393452
v 0.393452 1.005483 -0.393452
v 0.262301 0.218579 0.393452
v -0.262299 0.218579 0.087433
v 0.262301 0.218579 0.087433
v -0.087432 0.218579 0.087433
v 0.087434 0.218579 0.087433
v -0.393452 0.218579 -0.087435
v -0.262299 0.218579 -0.087435
v 0.262301 0.218579 -0.087435
v -0.087432 0.218579 -0.087435
v 0.087434 0.218579 -0.087435
v -0.262299 -0.000003 -0.087435
v 0.262301 -0.000003 -0.087435
v -0.087432 -0.000003 -0.087435
v 0.087434 -0.000003 -0.087435
v -0.262299 0.087430 0.087433
v -0.087432 0.087430 0.087433
v 0.262301 0.087430 0.087433
v 0.087434 0.087430 0.087433
v -0.087432 -0.000003 0.218583
v -0.262299 -0.000003 0.218583
v 0.262301 -0.000003 0.218583
v 0.087434 -0.000003 0.218583
v 0.262301 0.087430 0.218583
v 0.087434 0.087430 0.218583
v -0.087432 0.087430 0.218583
v -0.262299 0.087430 0.218583
v 0.032332 1.004877 0.022332
v 0.004842 1.236796 0.056876
v -0.012332 1.004877 0.022332
v -0.030968 1.247523 0.055821
v 0.032332 1.004877 -0.022332
v 0.000466 1.223426 0.024730
v -0.012332 1.004877 -0.022332
v -0.036255 1.235005 0.013123
v 0.017682 1.207972 0.060860
v -0.030986 1.212605 0.040882
v -0.035964 1.205634 0.003748
v 0.019292 1.209679 0.005479
v -0.393397 1.274825 0.663622
v -0.402009 1.299505 0.654562
v -0.592640 1.261470 0.612357
v -0.598568 1.163564 0.441340
v -0.609135 1.202901 0.668807
v -0.589882 1.137028 0.450254
v -0.010394 1.139057 0.019958
v -0.020576 1.145668 -0.015848
v 0.023600 1.139093 -0.016197
v 0.024882 1.145373 0.028005
v 0.004364 1.244299 0.397043
v -0.346572 1.244242 0.399291
v -0.369413 1.346925 0.380696
v -0.065552 1.286000 0.325999
v -0.343988 1.205606 0.043914
v -0.281725 1.273853 0.108338
v -0.150726 1.308982 0.569781
v -0.555061 1.308898 0.548644
v -0.478374 1.277584 0.232209
v -0.471722 1.222895 0.532642
v -0.201500 1.346005 0.517434
v -0.510658 1.186220 0.194821
v -0.101037 1.241376 0.128321
v -0.001006 1.246731 0.126494
v -0.112343 1.227886 0.024735
v 0.002796 1.227138 0.135807
v -0.171898 1.315934 0.212701
v -0.102767 1.247392 0.028326
vt 0.378055 0.327070
vt 0.378055 0.106672
vt 0.483324 0.106672
vt 0.372848 0.560781
vt 0.128949 0.712673
vt 0.128949 0.712673
vt 0.487199 0.373660
vt 0.460442 0.357693
vt 0.522874 0.357693
vt 0.379033 0.550957
vt 0.622628 0.332173
vt 0.623230 0.550419
vt 0.450265 0.376487
vt 0.420536 0.329918
vt 0.450265 0.329918
vt 0.872756 0.556499
vt 0.628474 0.773348
vt 0.628474 0.555428
vt 0.486812 0.390900
vt 0.522488 0.350984
vt 0.522488 0.390900
vt 0.517350 0.357468
vt 0.487620 0.370773
vt 0.517350 0.390732
vt 0.280287 0.650828
vt 0.310545 0.771859
vt 0.128998 0.771859
vt 0.623140 0.774427
vt 0.376860 0.554318
vt 0.620863 0.555943
vt 0.483209 0.390155
vt 0.518884 0.350238
vt 0.518884 0.390155
vt 0.509725 0.376487
vt 0.479995 0.329918
vt 0.509725 0.329918
vt 0.435004 0.429966
vt 0.496651 0.388581
vt 0.496651 0.429966
vt 0.469071 0.357693
vt 0.504746 0.373660
vt 0.469071 0.397610
vt 0.581874 0.779918
vt 0.620876 0.779918
vt 0.620876 0.996513
vt 0.487620 0.370773
vt 0.465323 0.357468
vt 0.517350 0.357468
vt 0.464189 0.423257
vt 0.525836 0.381871
vt 0.525836 0.423257
vt 0.464189 0.381871
vt 0.525836 0.354281
vt 0.525836 0.381871
vt 0.435004 0.388581
vt 0.496651 0.360990
vt 0.496651 0.388581
vt 0.461264 0.390240
vt 0.490994 0.370281
vt 0.490994 0.390240
vt 0.520723 0.390240
vt 0.550453 0.370281
vt 0.550453 0.390240
vt 0.674484 0.586634
vt 0.720955 0.561581
vt 0.786910 0.600986
vt 0.690855 0.601580
vt 0.720955 0.561581
vt 0.645084 0.561581
vt 0.487802 0.532021
vt 0.499065 0.526215
vt 0.504886 0.531542
vt 0.504388 0.516216
vt 0.375000 0.500000
vt 0.125000 0.750000
vt 0.125000 0.500000
vt 0.812791 0.598503
vt 0.819388 0.604343
vt 0.811682 0.606523
vt 0.442535 0.523492
vt 0.443596 0.519667
vt 0.443352 0.527173
vt 0.434972 0.527113
vt 0.421523 0.423015
vt 0.416672 0.425767
vt 0.419592 0.429095
vt 0.839447 0.640919
vt 0.830172 0.653014
vt 0.841826 0.650634
vt 0.657356 0.572062
vt 0.645084 0.629494
vt 0.674484 0.701620
vt 0.645084 0.629494
vt 0.690518 0.687267
vt 0.802944 0.586634
vt 0.445009 0.520630
vt 0.436903 0.521033
vt 0.436536 0.520630
vt 0.436536 0.528214
vt 0.445009 0.528214
vt 0.849909 0.716775
vt 0.827775 0.660324
vt 0.850963 0.639568
vt 0.811873 0.749619
vt 0.755398 0.725109
vt 0.815036 0.748557
vt 0.792249 0.693992
vt 0.732209 0.639568
vt 0.815608 0.718989
vt 0.732209 0.745865
vt 0.732970 0.640298
vt 0.848653 0.719529
vt 0.838755 0.740427
vt 0.850585 0.740115
vt 0.838749 0.744845
vt 0.837104 0.755825
vt 0.795713 0.604342
vt 0.797723 0.603667
vt 0.823001 0.597556
vt 0.819079 0.585226
vt 0.819877 0.583477
vt 0.621927 0.106672
vt 0.621927 0.327070
vt 0.131195 0.589875
vt 0.130889 0.560781
vt 0.128949 0.712673
vt 0.371061 0.772907
vt 0.128949 0.773626
vt 0.128949 0.712673
vt 0.128949 0.773626
vt 0.128949 0.773626
vt 0.522874 0.397610
vt 0.487199 0.397610
vt 0.460442 0.373660
vt 0.376770 0.333788
vt 0.420536 0.376487
vt 0.872756 0.774419
vt 0.486812 0.350984
vt 0.465323 0.357468
vt 0.465323 0.370773
vt 0.487620 0.390732
vt 0.250029 0.650828
vt 0.295416 0.650828
vt 0.310545 0.650828
vt 0.128998 0.590312
vt 0.250029 0.590312
vt 0.376860 0.774427
vt 0.483209 0.350238
vt 0.479995 0.376487
vt 0.435004 0.388581
vt 0.531503 0.357693
vt 0.531503 0.373660
vt 0.504746 0.397610
vt 0.379124 0.996513
vt 0.379124 0.779918
vt 0.465323 0.370773
vt 0.517350 0.390732
vt 0.487620 0.390732
vt 0.464189 0.381871
vt 0.464189 0.354281
vt 0.435004 0.360990
vt 0.461264 0.370281
vt 0.520723 0.370281
vt 0.487712 0.529427
vt 0.500418 0.517318
vt 0.375000 0.750000
vt 0.820307 0.598304
vt 0.442230 0.514087
vt 0.432052 0.523786
vt 0.417617 0.419461
vt 0.823369 0.646826
vt 0.854827 0.738937
vt 0.837009 0.753053
vt 0.811742 0.608285
vn -1.0000 0.0000 0.0000
vn 0.0000 -1.0000 0.0000
vn 1.0000 -0.0000 0.0000
vn 0.0000 0.0000 -1.0000
vn 0.0000 1.0000 0.0000
vn 0.0000 0.0000 1.0000
vn -0.0839 0.9746 0.2077
vn 0.3150 -0.9317 0.1810
vn -0.0392 0.7947 -0.6058
vn 0.6170 0.7859 0.0422
vn 0.3724 0.8771 -0.3033
vn 0.9966 0.0729 -0.0393
vn 0.0364 0.2954 -0.9547
vn -0.9290 -0.3063 0.2076
vn -0.1149 -0.4720 0.8741
vn -0.2200 0.7084 0.6707
vn -0.9800 0.1494 -0.1314
vn 0.5776 -0.8160 0.0220
vn -0.8836 0.4190 -0.2092
vn -0.8674 0.4174 -0.2710
vn 0.0820 0.8495 0.5212
vn -0.0000 0.0177 0.9998
vn -0.9999 0.0144 -0.0000
vn 0.0000 0.0457 -0.9990
vn 0.9979 0.0649 0.0000
vn 0.5541 0.8304 -0.0579
vn -0.3440 0.3307 -0.8788
vn -0.0936 0.9536 -0.2860
vn 0.1047 -0.9876 0.1172
vn 0.0002 -0.9999 0.0108
vn 0.3422 0.9367 -0.0737
vn 0.4537 0.8880 0.0748
vn -0.3175 0.7878 -0.5277
vn -0.3473 0.9212 -0.1753
vn 0.2101 -0.9718 0.1072
vn 0.2496 -0.9651 0.0798
vn 0.1600 0.9687 -0.1900
vn 0.2882 0.9511 -0.1115
vn -0.1473 -0.9685 0.2007
vn -0.2203 -0.9529 0.2084
vn 0.1161 0.9444 -0.3076
vn -0.1693 0.2582 -0.9511
vn 0.9606 0.2470 0.1276
vn -0.2713 0.8418 0.4666
vn 0.2255 -0.9443 0.2395
vn 0.3696 0.2859 -0.8841
vn 0.8926 0.3601 -0.2713
vn 0.2737 0.8743 -0.4009
vn 0.9947 0.0977 0.0319
vn 0.0069 0.3122 -0.9500
vn -0.9318 -0.3131 0.1837
vn -0.3840 -0.3505 0.8542
vn -0.2569 0.2527 0.9328
vn -0.9514 -0.2519 0.1772
vn 0.4180 -0.8590 0.2957
vn -0.8599 0.4437 -0.2523
vn -0.8537 -0.3939 -0.3406
vn 0.4351 0.4402 0.7855
vn -0.2135 -0.0507 0.9756
vn -0.9629 -0.0684 0.2612
vn -0.0010 0.0459 -0.9989
vn 0.9978 0.0544 -0.0367
vn 0.9248 0.2941 0.2413
vn -0.1259 0.7393 -0.6615
vn -0.0206 0.9346 -0.3552
vn 0.1079 -0.9883 0.1082
vn -0.1402 -0.9879 0.0657
vn 0.2072 0.9762 0.0635
vn 0.5166 0.8503 0.1003
vn -0.6204 0.4747 -0.6243
vn -0.1760 0.9351 -0.3075
vn 0.2463 -0.9662 0.0765
vn 0.0024 -0.9358 0.3526
vn -0.0930 0.9883 0.1209
vn 0.3179 0.9399 -0.1243
vn -0.1779 -0.9613 0.2105
vn -0.2110 -0.9661 0.1488
vn 0.1101 0.9500 -0.2922
vn -0.1712 0.2981 -0.9391
vn 0.9124 0.4089 0.0183
s off
f 4/1/1 3/2/1 14/3/1
f 7/4/2 18/5/2 17/6/2
f 25/7/3 29/8/3 20/9/3
f 8/10/4 3/11/4 4/12/4
f 27/13/2 19/14/2 21/15/2
f 4/16/5 6/17/5 8/18/5
f 16/19/4 22/20/4 18/21/4
f 22/22/1 26/23/1 18/24/1
f 12/25/2 9/26/2 1/27/2
f 8/28/3 5/29/3 7/30/3
f 17/31/4 19/32/4 15/33/4
f 29/34/2 22/35/2 20/36/2
f 10/37/6 24/38/6 12/39/6
f 19/40/1 23/41/1 15/42/1
f 9/43/6 5/44/6 6/45/6
f 24/46/3 27/47/3 21/48/3
f 13/49/6 25/50/6 11/51/6
f 32/52/6 29/53/6 31/54/6
f 34/55/6 27/56/6 33/57/6
f 23/58/5 33/59/5 24/60/5
f 26/61/5 31/62/5 25/63/5
f 64/64/7 48/65/7 67/66/7
f 66/67/8 47/68/8 51/69/8
f 45/70/9 40/71/9 46/72/9
f 40/71/10 43/73/10 46/72/10
f 41/74/2 35/75/2 37/76/2
f 38/77/11 40/78/11 42/79/11
f 46/80/12 56/81/12 55/82/12
f 54/83/13 46/80/13 55/82/13
f 53/84/14 45/85/14 54/86/14
f 43/87/15 53/88/15 56/89/15
f 47/68/16 49/90/16 51/69/16
f 49/90/17 52/91/17 51/69/17
f 66/67/18 52/91/18 68/92/18
f 64/64/19 50/93/19 49/90/19
f 68/92/20 50/93/20 65/94/20
f 67/66/21 47/68/21 63/95/21
f 35/96/22 53/97/22 37/98/22
f 53/97/23 41/99/23 37/98/23
f 41/99/24 55/82/24 39/100/24
f 55/82/25 35/96/25 39/100/25
f 72/101/26 60/102/26 57/103/26
f 71/104/27 62/105/27 74/106/27
f 73/107/28 62/105/28 59/108/28
f 69/109/29 61/110/29 71/104/29
f 69/109/30 57/103/30 58/111/30
f 73/107/31 60/102/31 70/112/31
f 60/102/32 63/95/32 57/103/32
f 61/110/33 65/94/33 62/105/33
f 59/108/34 65/94/34 64/64/34
f 58/111/35 68/92/35 61/110/35
f 58/111/36 63/95/36 66/67/36
f 59/108/37 67/66/37 60/102/37
f 38/113/38 70/112/38 36/114/38
f 44/115/39 72/101/39 69/109/39
f 44/115/40 71/104/40 45/116/40
f 38/113/41 74/106/41 73/107/41
f 42/79/42 71/117/42 74/118/42
f 43/119/43 70/120/43 72/121/43
f 1/122/1 2/123/1 14/3/1
f 2/123/1 4/1/1 14/3/1
f 14/124/2 3/125/2 15/126/2
f 3/125/2 7/4/2 17/6/2
f 15/126/2 3/125/2 17/6/2
f 7/4/2 5/127/2 11/128/2
f 5/127/2 9/26/2 11/128/2
f 11/128/2 16/129/2 7/4/2
f 13/130/2 12/131/2 17/6/2
f 18/5/2 13/130/2 17/6/2
f 7/4/2 16/129/2 18/5/2
f 20/9/3 16/132/3 25/7/3
f 16/132/3 11/133/3 25/7/3
f 25/7/3 31/134/3 29/8/3
f 8/10/4 7/135/4 3/11/4
f 27/13/2 28/136/2 19/14/2
f 4/16/5 2/137/5 6/17/5
f 16/19/4 20/138/4 22/20/4
f 22/22/1 30/139/1 26/23/1
f 30/139/1 32/140/1 26/23/1
f 26/23/1 13/141/1 18/24/1
f 10/142/2 12/25/2 1/27/2
f 12/25/2 13/143/2 9/26/2
f 13/143/2 11/144/2 9/26/2
f 1/27/2 14/145/2 10/142/2
f 14/145/2 15/146/2 10/142/2
f 8/28/3 6/147/3 5/29/3
f 17/31/4 21/148/4 19/32/4
f 29/34/2 30/149/2 22/35/2
f 10/37/6 23/150/6 24/38/6
f 19/40/1 28/151/1 23/41/1
f 28/151/1 34/152/1 23/41/1
f 23/41/1 10/153/1 15/42/1
f 6/45/6 2/154/6 9/43/6
f 2/154/6 1/155/6 9/43/6
f 24/46/3 33/156/3 27/47/3
f 21/48/3 17/157/3 24/46/3
f 17/157/3 12/158/3 24/46/3
f 13/49/6 26/159/6 25/50/6
f 32/52/6 30/160/6 29/53/6
f 34/55/6 28/161/6 27/56/6
f 23/58/5 34/162/5 33/59/5
f 26/61/5 32/163/5 31/62/5
f 64/64/44 49/90/44 48/65/44
f 66/67/45 63/95/45 47/68/45
f 45/70/46 42/164/46 40/71/46
f 40/71/47 36/165/47 43/73/47
f 41/74/2 39/166/2 35/75/2
f 38/77/48 36/167/48 40/78/48
f 46/80/49 43/168/49 56/81/49
f 54/83/50 45/169/50 46/80/50
f 53/84/51 44/170/51 45/85/51
f 43/87/52 44/171/52 53/88/52
f 47/68/53 48/65/53 49/90/53
f 49/90/54 50/93/54 52/91/54
f 66/67/55 51/69/55 52/91/55
f 64/64/56 65/94/56 50/93/56
f 68/92/57 52/91/57 50/93/57
f 67/66/58 48/65/58 47/68/58
f 35/96/59 56/81/59 53/97/59
f 53/97/60 54/83/60 41/99/60
f 41/99/61 54/83/61 55/82/61
f 55/82/62 56/81/62 35/96/62
f 72/101/63 70/112/63 60/102/63
f 71/104/64 61/110/64 62/105/64
f 73/107/65 74/106/65 62/105/65
f 69/109/66 58/111/66 61/110/66
f 69/109/67 72/101/67 57/103/67
f 73/107/68 59/108/68 60/102/68
f 60/102/69 67/66/69 63/95/69
f 61/110/70 68/92/70 65/94/70
f 59/108/71 62/105/71 65/94/71
f 58/111/72 66/67/72 68/92/72
f 58/111/73 57/103/73 63/95/73
f 59/108/74 64/64/74 67/66/74
f 38/113/75 73/107/75 70/112/75
f 44/115/76 43/172/76 72/101/76
f 44/115/77 69/109/77 71/104/77
f 38/113/78 42/173/78 74/106/78
f 42/79/79 45/174/79 71/117/79
f 43/119/80 36/167/80 70/120/80
