# Blender v3.2.1 OBJ File: 'Modeling.blend'
# www.blender.org
o Player_Cube.001
v -0.391130 0.213975 0.389613
v -0.398639 0.986961 0.398669
v -0.390067 0.220600 -0.391991
v -0.399211 0.995952 -0.381341
v 0.391853 0.214822 0.389735
v 0.380108 0.999961 0.401250
v 0.391925 0.223575 -0.391823
v 0.381661 1.010994 -0.379684
v 0.261471 0.213596 0.389812
v -0.261221 0.217012 0.085916
v 0.261137 0.216789 0.085739
v -0.087443 0.215658 0.085941
v 0.087317 0.215552 0.085848
v -0.391006 0.219049 -0.088075
v -0.261085 0.218872 -0.087868
v 0.261029 0.218630 -0.087957
v -0.087328 0.217582 -0.087841
v 0.087190 0.217408 -0.087843
v -0.260995 0.000025 -0.086302
v 0.261381 0.000242 -0.087495
v -0.087281 -0.000012 -0.086170
v 0.087659 -0.000106 -0.087365
v -0.261169 0.086936 0.087179
v -0.087460 0.086821 0.087301
v 0.261356 0.087196 0.085979
v 0.087635 0.086840 0.086113
v -0.087433 0.000027 0.217841
v -0.261141 0.000016 0.217723
v 0.261517 0.000894 0.216744
v 0.087809 0.000579 0.216846
v 0.261359 0.087747 0.216448
v 0.087651 0.087432 0.216550
v -0.087438 0.086881 0.217894
v -0.261147 0.086870 0.217775
v 0.019602 0.997220 0.035571
v -0.016165 1.233501 0.054012
v -0.024729 0.995559 0.034892
v -0.052046 1.242701 0.051191
v 0.019879 0.998691 -0.008832
v -0.019639 1.215898 0.024135
v -0.024459 0.997183 -0.009445
v -0.056304 1.224481 0.010814
v -0.002543 1.206115 0.061930
v -0.050731 1.206348 0.041187
v -0.054943 1.194350 0.005539
v -0.000247 1.200467 0.007190
v -0.405125 1.316876 0.651503
v -0.407785 1.345446 0.643602
v -0.600901 1.353035 0.603973
v -0.633674 1.265337 0.427584
v -0.631982 1.296996 0.655855
v -0.630992 1.236586 0.435575
v -0.027574 1.131893 0.030598
v -0.037427 1.133284 -0.005618
v 0.006649 1.128314 -0.004663
v 0.007130 1.140396 0.037983
v -0.018032 1.295549 0.387808
v -0.370953 1.288571 0.385321
v -0.383198 1.394616 0.358419
v -0.089809 1.324465 0.308580
v -0.370871 1.193761 0.041239
v -0.304785 1.261714 0.097772
v -0.165583 1.372135 0.550768
v -0.553957 1.393505 0.542238
v -0.503338 1.312173 0.214078
v -0.495784 1.290629 0.518985
v -0.216721 1.405789 0.491657
v -0.547524 1.248145 0.180617
v -0.122419 1.244013 0.122709
v -0.023251 1.252132 0.121283
v -0.131746 1.215406 0.022948
v -0.018949 1.234353 0.133208
v -0.197223 1.325661 0.190414
v -0.122947 1.235263 0.023858
v -0.393826 0.742669 -0.385108
v -0.394292 0.733697 0.395071
v 0.385993 0.744935 0.396802
v -0.394031 0.741258 -0.286085
v 0.387226 0.755220 -0.383809
v 0.343595 0.744275 0.396678
v -0.390327 0.482447 -0.388742
v 0.304012 0.479219 0.391889
v -0.390601 0.477309 0.391152
v 0.390265 0.479695 0.392025
v -0.390765 0.479928 -0.187001
v 0.390849 0.487672 -0.388287
vt 0.378055 0.327070
vt 0.378055 0.255321
vt 0.412325 0.255321
vt 0.372848 0.560781
vt 0.128949 0.712673
vt 0.128949 0.712673
vt 0.487199 0.373660
vt 0.460442 0.357693
vt 0.522874 0.357693
vt 0.461264 0.370281
vt 0.490994 0.390240
vt 0.461264 0.390240
vt 0.379033 0.550957
vt 0.623034 0.479370
vt 0.623230 0.550419
vt 0.420536 0.376487
vt 0.450265 0.329918
vt 0.450265 0.376487
vt 0.375000 0.750000
vt 0.125000 0.500000
vt 0.375000 0.500000
vt 0.522874 0.397610
vt 0.280287 0.650828
vt 0.310545 0.771859
vt 0.128998 0.771859
vt 0.435004 0.388581
vt 0.496651 0.429966
vt 0.435004 0.429966
vt 0.623140 0.774427
vt 0.376860 0.702771
vt 0.622399 0.703300
vt 0.464189 0.423257
vt 0.525836 0.381871
vt 0.525836 0.423257
vt 0.872756 0.774419
vt 0.628474 0.555428
vt 0.872756 0.556499
vt 0.487620 0.370773
vt 0.517350 0.390732
vt 0.517350 0.357468
vt 0.620876 0.779918
vt 0.595027 0.852960
vt 0.581874 0.779918
vt 0.487620 0.370773
vt 0.465323 0.357468
vt 0.517350 0.357468
vt 0.128949 0.773626
vt 0.509725 0.376487
vt 0.479995 0.329918
vt 0.509725 0.329918
vt 0.464189 0.381871
vt 0.525836 0.354281
vt 0.525836 0.381871
vt 0.435004 0.360990
vt 0.496651 0.388581
vt 0.435004 0.388581
vt 0.483209 0.390155
vt 0.518884 0.350238
vt 0.518884 0.390155
vt 0.128949 0.773626
vt 0.295416 0.650828
vt 0.690855 0.601580
vt 0.720955 0.561581
vt 0.645084 0.561581
vt 0.487802 0.532021
vt 0.499065 0.526215
vt 0.504886 0.531542
vt 0.504388 0.516216
vt 0.520723 0.390240
vt 0.550453 0.370281
vt 0.550453 0.390240
vt 0.421523 0.423015
vt 0.416672 0.425767
vt 0.419592 0.429095
vt 0.811873 0.749619
vt 0.755398 0.725109
vt 0.815036 0.748557
vt 0.445009 0.520630
vt 0.436903 0.521033
vt 0.436536 0.520630
vt 0.839447 0.640919
vt 0.830172 0.653014
vt 0.841826 0.650634
vt 0.811682 0.606523
vt 0.795713 0.604342
vt 0.797723 0.603667
vt 0.442535 0.523492
vt 0.443596 0.519667
vt 0.443352 0.527173
vt 0.657356 0.572062
vt 0.732970 0.640298
vt 0.802944 0.586634
vt 0.674484 0.586634
vt 0.645084 0.629494
vt 0.674484 0.701620
vt 0.690518 0.687267
vt 0.720955 0.561581
vt 0.504746 0.373660
vt 0.469071 0.397610
vt 0.469071 0.357693
vt 0.812791 0.598503
vt 0.819388 0.604343
vt 0.732209 0.745865
vt 0.436536 0.528214
vt 0.445009 0.528214
vt 0.849909 0.716775
vt 0.827775 0.660324
vt 0.850963 0.639568
vt 0.732209 0.639568
vt 0.792249 0.693992
vt 0.815608 0.718989
vt 0.848653 0.719529
vt 0.786910 0.600986
vt 0.621927 0.327070
vt 0.621927 0.255321
vt 0.838755 0.740427
vt 0.850585 0.740115
vt 0.645084 0.629494
vt 0.838749 0.744845
vt 0.837104 0.755825
vt 0.823001 0.597556
vt 0.819079 0.585226
vt 0.819877 0.583477
vt 0.434972 0.527113
vt 0.131195 0.589875
vt 0.130889 0.560781
vt 0.128949 0.712673
vt 0.371061 0.772907
vt 0.128949 0.712673
vt 0.379124 0.996513
vt 0.608179 0.926002
vt 0.620876 0.996513
vt 0.517350 0.390732
vt 0.460442 0.373660
vt 0.465323 0.357468
vt 0.465323 0.370773
vt 0.250029 0.650828
vt 0.128998 0.590312
vt 0.250029 0.590312
vt 0.531503 0.357693
vt 0.531503 0.373660
vt 0.465323 0.370773
vt 0.487712 0.529427
vt 0.500418 0.517318
vt 0.837009 0.753053
vt 0.486812 0.350984
vt 0.522488 0.390900
vt 0.486812 0.390900
vt 0.379124 0.926002
vt 0.376860 0.628545
vt 0.621631 0.629622
vt 0.447825 0.180996
vt 0.621927 0.180996
vt 0.620876 0.926002
vt 0.378297 0.480259
vt 0.622831 0.405771
vt 0.378055 0.180996
vt 0.483324 0.106672
vt 0.621927 0.106672
vt 0.379124 0.852960
vt 0.620876 0.852960
vt 0.376770 0.333788
vt 0.622628 0.332173
vt 0.376860 0.554318
vt 0.620863 0.555943
vt 0.378055 0.106672
vt 0.490994 0.370281
vt 0.420536 0.329918
vt 0.125000 0.750000
vt 0.487199 0.397610
vt 0.496651 0.388581
vt 0.376860 0.774427
vt 0.464189 0.381871
vt 0.628474 0.773348
vt 0.487620 0.390732
vt 0.128949 0.773626
vt 0.479995 0.376487
vt 0.464189 0.354281
vt 0.496651 0.360990
vt 0.483209 0.350238
vt 0.520723 0.370281
vt 0.417617 0.419461
vt 0.823369 0.646826
vt 0.811742 0.608285
vt 0.442230 0.514087
vt 0.504746 0.397610
vt 0.820307 0.598304
vt 0.854827 0.738937
vt 0.432052 0.523786
vt 0.487620 0.390732
vt 0.522488 0.350984
vt 0.377534 0.407023
vt 0.379124 0.779918
vn -0.9998 -0.0212 -0.0024
vn -0.0010 -0.9998 -0.0213
vn 1.0000 0.0012 -0.0004
vn 0.0007 1.0000 0.0005
vn 0.0018 0.0149 -0.9999
vn 0.0001 -1.0000 0.0001
vn 0.0345 -0.9987 -0.0364
vn 1.0000 0.0016 -0.0007
vn -0.0006 -1.0000 -0.0061
vn -0.0001 0.0097 1.0000
vn 0.9998 0.0217 0.0019
vn 0.0006 0.0019 1.0000
vn -0.0193 0.9997 0.0115
vn -1.0000 -0.0022 0.0009
vn 0.0007 -0.0079 1.0000
vn 1.0000 0.0011 0.0005
vn -0.0010 -0.9999 -0.0107
vn 0.0020 -1.0000 0.0021
vn 0.0006 0.0034 1.0000
vn -0.0007 -0.0006 1.0000
vn 0.0001 -0.0072 -1.0000
vn 0.0071 -0.9999 -0.0105
vn 0.0891 -0.9869 0.1345
vn -0.0574 0.7045 -0.7073
vn 0.5899 0.8054 -0.0584
vn -0.0021 1.0000 -0.0042
vn -0.9210 -0.3078 0.2388
vn -0.3449 0.1949 -0.9182
vn -0.0165 0.0311 0.9994
vn -0.1107 -0.3546 0.9284
vn -0.1718 0.1209 -0.9777
vn 0.9940 0.1016 -0.0400
vn -0.0469 0.6925 0.7199
vn 0.2769 -0.9511 0.1367
vn -0.7618 0.6253 -0.1694
vn -0.7090 0.6419 -0.2920
vn 0.3165 0.2801 0.9063
vn -1.0000 -0.0004 -0.0008
vn 0.3478 0.8403 -0.4159
vn -0.1957 0.7326 -0.6519
vn 0.0127 0.0334 -0.9994
vn 0.5461 0.8141 -0.1976
vn 0.2011 0.9642 -0.1731
vn 0.1070 -0.9583 0.2648
vn 0.1073 -0.9585 0.2641
vn 0.2893 0.9230 -0.2536
vn -0.1076 0.8722 -0.4771
vn 0.5055 0.8612 0.0530
vn 0.0181 -0.9828 0.1839
vn -0.1863 0.9708 0.1513
vn -0.4781 0.8725 -0.1004
vn -0.9999 -0.0172 -0.0006
vn 0.2587 0.9376 -0.2324
vn 0.1999 -0.9796 0.0210
vn -0.1784 -0.9260 0.3327
vn 0.0793 0.8905 -0.4480
vn 0.9494 0.2973 0.1007
vn -0.1207 -0.9373 0.3269
vn -0.1138 -0.9659 0.2326
vn 0.2164 -0.9413 0.2591
vn 0.0400 0.1657 -0.9854
vn -0.0014 -1.0000 -0.0051
vn 0.0038 -0.9999 -0.0137
vn -0.0074 -1.0000 -0.0025
vn 0.0110 -0.9999 -0.0112
vn -0.9097 0.3994 -0.1136
vn 0.0132 -0.9999 -0.0106
vn -0.0030 -0.0174 0.9998
vn 0.0070 -0.9999 -0.0132
vn 1.0000 0.0002 0.0009
vn 1.0000 0.0018 -0.0000
vn -1.0000 -0.0013 0.0005
vn -1.0000 -0.0018 0.0001
vn -0.0078 -0.9999 -0.0133
vn -0.0015 -0.9999 -0.0106
vn -0.0013 -0.9999 -0.0107
vn -1.0000 -0.0010 -0.0005
vn -1.0000 -0.0001 0.0002
vn 0.9948 0.1012 0.0096
vn 1.0000 0.0001 -0.0002
vn -0.9998 -0.0211 -0.0069
vn -0.0707 0.8580 0.5087
vn 0.3723 0.1763 -0.9112
vn 0.8841 0.3504 -0.3092
vn -0.9335 -0.1742 -0.3135
vn 0.0724 0.8924 0.4454
vn -0.0790 0.8609 -0.5025
vn 0.2933 0.9241 -0.2448
vn -0.1699 -0.9430 0.2863
vn 0.0653 0.9069 -0.4162
vn -0.0006 -0.0021 -1.0000
vn -0.0019 -0.0178 0.9998
vn 0.9999 0.0135 0.0009
vn -0.9999 -0.0144 0.0002
vn -0.0027 -0.0175 0.9998
vn 0.0014 0.0140 -0.9999
vn -0.9999 -0.0134 -0.0023
vn -1.0000 0.0020 -0.0002
vn -0.0010 -0.0077 1.0000
vn -0.0015 -0.0178 0.9998
vn 0.0002 0.0124 -0.9999
vn 1.0000 0.0041 0.0001
vn -1.0000 -0.0002 -0.0031
vn -0.0001 1.0000 -0.0005
vn 0.0014 0.0162 -0.9999
vn -0.0002 -1.0000 -0.0000
vn 0.0379 -0.9987 -0.0329
vn 1.0000 0.0017 -0.0006
vn -0.0007 0.0106 0.9999
vn 0.9997 0.0230 0.0023
vn 0.0008 0.0021 1.0000
vn -0.0167 0.9998 0.0141
vn -1.0000 -0.0025 0.0007
vn -0.0015 -0.0087 1.0000
vn -0.0006 -0.9999 -0.0111
vn 0.0018 -1.0000 0.0022
vn 0.0008 -0.0077 -1.0000
vn 0.0094 -0.9999 -0.0105
vn -0.0018 1.0000 -0.0045
vn -0.9232 -0.3179 0.2161
vn -0.1172 0.7001 -0.7044
vn -0.2001 -0.0339 0.9792
vn -0.3842 -0.2461 0.8898
vn -0.1757 0.1620 -0.9710
vn 0.9904 0.1357 0.0275
vn -0.1856 0.2458 0.9514
vn 0.1114 -0.9866 0.1192
vn 0.2509 0.8210 -0.5129
vn -0.3624 0.6157 -0.6996
vn 0.0251 0.0305 -0.9992
vn 0.9172 0.3499 0.1908
vn 0.1742 0.9391 -0.2964
vn -0.0869 -0.9604 0.2646
vn -0.0478 0.8840 -0.4651
vn 0.4499 0.8892 -0.0831
vn 0.0147 -0.8997 0.4362
vn 0.1904 0.9645 0.1827
vn -0.5041 0.7285 -0.4639
vn -0.9998 -0.0201 0.0005
vn 0.2337 -0.9440 0.2328
vn 0.8981 0.4389 -0.0270
vn -0.1485 -0.9306 0.3345
vn 0.0093 0.1823 -0.9832
vn -0.9792 -0.0358 0.1997
vn -0.0020 -0.0142 0.9999
vn 1.0000 -0.0001 0.0007
vn 0.9955 0.0873 -0.0360
vn -0.9612 -0.0988 0.2577
vn -0.0007 -0.0022 -1.0000
vn -0.0010 -0.0153 0.9999
vn 0.9999 0.0161 0.0018
vn -0.9999 -0.0127 -0.0005
vn 0.0005 0.0167 -0.9999
vn -1.0000 0.0010 0.0003
vn -0.0003 -0.0058 1.0000
vn -0.0027 -0.0180 0.9998
vn 0.0005 0.0134 -0.9999
vn 1.0000 0.0060 0.0008
vn -1.0000 -0.0010 -0.0022
s off
f 4/1/1 75/2/1 78/3/1
f 7/4/2 18/5/2 17/6/2
f 25/7/3 29/8/3 20/9/3
f 34/10/4 24/11/4 23/12/4
f 8/13/5 75/14/5 4/15/5
f 28/16/6 21/17/6 27/18/6
f 39/19/7 37/20/7 41/21/7
f 16/22/8 25/7/8 20/9/8
f 12/23/9 9/24/9 1/25/9
f 23/26/10 12/27/10 10/28/10
f 8/29/11 77/30/11 79/31/11
f 13/32/12 25/33/12 11/34/12
f 2/35/13 8/36/13 4/37/13
f 26/38/14 18/39/14 22/40/14
f 5/41/15 82/42/15 9/43/15
f 24/44/16 27/45/16 21/46/16
f 13/47/17 17/6/17 18/5/17
f 29/48/18 22/49/18 20/50/18
f 32/51/19 29/52/19 31/53/19
f 28/54/20 33/55/20 34/56/20
f 17/57/21 19/58/21 15/59/21
f 11/60/22 9/24/22 13/61/22
f 66/62/23 47/63/23 51/64/23
f 45/65/24 40/66/24 46/67/24
f 40/66/25 43/68/25 46/67/25
f 26/69/26 31/70/26 25/71/26
f 53/72/27 45/73/27 54/74/27
f 71/75/28 62/76/28 74/77/28
f 35/78/29 53/79/29 37/80/29
f 43/81/30 53/82/30 56/83/30
f 42/84/31 71/85/31 74/86/31
f 46/87/32 56/88/32 55/89/32
f 47/63/33 49/90/33 51/64/33
f 47/63/34 58/91/34 63/92/34
f 64/93/35 50/94/35 49/90/35
f 68/95/36 50/94/36 65/96/36
f 63/92/37 48/97/37 47/63/37
f 23/98/38 15/99/38 19/100/38
f 38/101/39 40/102/39 42/84/39
f 61/103/40 65/96/40 62/76/40
f 41/104/41 55/89/41 39/105/41
f 72/106/42 60/107/42 57/108/42
f 59/109/43 60/107/43 73/110/43
f 69/111/44 61/103/44 71/75/44
f 58/91/45 61/103/45 69/111/45
f 73/110/46 60/107/46 70/112/46
f 62/76/47 59/109/47 73/110/47
f 57/108/48 67/113/48 63/92/48
f 57/108/49 58/91/49 69/111/49
f 59/109/50 48/97/50 67/113/50
f 50/94/51 59/109/51 65/96/51
f 2/114/52 78/3/52 76/115/52
f 38/116/53 70/112/53 36/117/53
f 58/91/54 52/118/54 68/95/54
f 44/119/55 71/75/55 45/120/55
f 38/116/56 74/77/56 73/110/56
f 43/121/57 70/122/57 72/123/57
f 44/119/58 72/106/58 69/111/58
f 69/111/59 72/106/59 57/108/59
f 66/62/60 51/64/60 52/118/60
f 54/124/61 46/87/61 55/89/61
f 14/125/62 3/126/62 15/127/62
f 3/126/63 7/4/63 17/6/63
f 15/127/64 3/126/64 17/6/64
f 7/4/65 5/128/65 11/60/65
f 49/90/66 52/118/66 51/64/66
f 11/60/67 16/129/67 7/4/67
f 2/130/68 80/131/68 6/132/68
f 7/4/69 16/129/69 18/5/69
f 17/133/70 24/44/70 21/46/70
f 25/7/71 31/134/71 29/8/71
f 22/40/72 30/135/72 26/38/72
f 30/135/73 32/136/73 26/38/73
f 10/137/74 12/23/74 1/25/74
f 12/23/9 13/61/9 9/24/9
f 1/25/75 14/138/75 10/137/75
f 14/138/76 15/139/76 10/137/76
f 19/100/77 28/140/77 23/98/77
f 28/140/78 34/141/78 23/98/78
f 55/89/79 35/78/79 39/105/79
f 24/44/80 33/142/80 27/45/80
f 53/79/81 41/104/81 37/80/81
f 64/93/82 49/90/82 48/97/82
f 45/65/83 42/143/83 40/66/83
f 40/66/84 36/144/84 43/68/84
f 68/95/85 52/118/85 50/94/85
f 63/92/86 67/113/86 48/97/86
f 73/110/87 74/77/87 62/76/87
f 38/116/88 73/110/88 70/112/88
f 44/119/89 69/111/89 71/75/89
f 38/116/90 42/145/90 74/77/90
f 20/146/91 18/147/91 16/148/91
f 76/149/92 82/42/92 80/131/92
f 79/31/93 84/150/93 86/151/93
f 76/115/94 85/152/94 83/153/94
f 80/131/95 77/154/95 6/132/95
f 79/155/96 81/156/96 75/14/96
f 78/3/97 81/157/97 85/152/97
f 83/153/98 14/158/98 1/159/98
f 83/160/99 9/43/99 82/42/99
f 84/161/100 80/131/100 82/42/100
f 81/156/101 7/162/101 3/163/101
f 86/151/102 5/164/102 7/165/102
f 85/152/103 3/166/103 14/158/103
f 34/10/104 33/167/104 24/11/104
f 8/13/105 79/155/105 75/14/105
f 28/16/106 19/168/106 21/17/106
f 39/19/107 35/169/107 37/20/107
f 16/22/108 11/170/108 25/7/108
f 23/26/109 24/171/109 12/27/109
f 8/29/110 6/172/110 77/30/110
f 13/32/111 26/173/111 25/33/111
f 2/35/112 6/174/112 8/36/112
f 26/38/113 13/175/113 18/39/113
f 5/41/114 84/161/114 82/42/114
f 13/47/115 12/176/115 17/6/115
f 29/48/116 30/177/116 22/49/116
f 32/51/19 30/178/19 29/52/19
f 28/54/20 27/179/20 33/55/20
f 17/57/117 21/180/117 19/58/117
f 11/60/118 5/128/118 9/24/118
f 26/69/119 32/181/119 31/70/119
f 53/72/120 44/182/120 45/73/120
f 71/75/121 61/103/121 62/76/121
f 35/78/122 56/88/122 53/79/122
f 43/81/123 44/183/123 53/82/123
f 42/84/124 45/184/124 71/85/124
f 46/87/125 43/185/125 56/88/125
f 47/63/126 48/97/126 49/90/126
f 47/63/127 66/62/127 58/91/127
f 23/98/38 10/186/38 15/99/38
f 38/101/128 36/187/128 40/102/128
f 61/103/129 68/95/129 65/96/129
f 41/104/130 54/124/130 55/89/130
f 72/106/131 70/112/131 60/107/131
f 59/109/132 67/113/132 60/107/132
f 58/91/133 68/95/133 61/103/133
f 62/76/134 65/96/134 59/109/134
f 57/108/135 60/107/135 67/113/135
f 57/108/136 63/92/136 58/91/136
f 59/109/137 64/93/137 48/97/137
f 50/94/138 64/93/138 59/109/138
f 2/114/139 4/1/139 78/3/139
f 58/91/140 66/62/140 52/118/140
f 43/121/141 36/187/141 70/122/141
f 44/119/142 43/188/142 72/106/142
f 54/124/143 45/189/143 46/87/143
f 49/90/144 50/94/144 52/118/144
f 2/130/145 76/149/145 80/131/145
f 17/133/146 12/190/146 24/44/146
f 55/89/147 56/88/147 35/78/147
f 53/79/148 54/124/148 41/104/148
f 20/146/149 22/191/149 18/147/149
f 76/149/150 83/160/150 82/42/150
f 79/31/151 77/30/151 84/150/151
f 76/115/152 78/3/152 85/152/152
f 79/155/153 86/192/153 81/156/153
f 78/3/97 75/2/97 81/157/97
f 83/153/154 85/152/154 14/158/154
f 83/160/155 1/193/155 9/43/155
f 84/161/156 77/154/156 80/131/156
f 81/156/157 86/192/157 7/162/157
f 86/151/158 84/150/158 5/164/158
f 85/152/159 81/157/159 3/166/159
