# Blender v3.2.1 OBJ File: 'Modeling.blend'
# www.blender.org
o Player_Cube.001
v -0.370721 0.180758 0.359173
v -0.424675 0.854161 0.413776
v -0.362322 0.234844 -0.375437
v -0.429269 0.900310 -0.312340
v 0.376388 0.186593 0.360334
v 0.280428 0.955258 0.437234
v 0.376404 0.258851 -0.372337
v 0.292491 1.014786 -0.292585
v 0.252827 0.175803 0.360026
v -0.251284 0.204702 0.074569
v 0.250675 0.202667 0.072790
v -0.087010 0.192682 0.073585
v 0.085914 0.191718 0.072663
v -0.369895 0.222954 -0.090237
v -0.250160 0.221042 -0.089362
v 0.249784 0.218856 -0.090311
v -0.086028 0.209586 -0.090270
v 0.084828 0.208038 -0.090409
v -0.250075 0.001231 -0.075882
v 0.253430 0.002997 -0.086621
v -0.086000 0.000847 -0.075727
v 0.089302 -0.000127 -0.086329
v -0.250623 0.083807 0.086029
v -0.086616 0.082725 0.086086
v 0.252366 0.085902 0.075192
v 0.088242 0.082710 0.075522
v -0.085585 0.001218 0.211474
v -0.249627 0.001179 0.211440
v 0.253073 0.008734 0.202480
v 0.089056 0.005916 0.202537
v 0.251663 0.090700 0.199856
v 0.087646 0.087882 0.199912
v -0.085605 0.083237 0.211912
v -0.249646 0.083198 0.211877
v -0.068762 0.918616 0.105587
v -0.155855 1.090998 0.205376
v -0.108632 0.906449 0.101857
v -0.190903 1.092305 0.204457
v -0.068462 0.930755 0.065541
v -0.156503 1.089847 0.172701
v -0.108320 0.918509 0.061732
v -0.192428 1.094999 0.162804
v -0.137080 1.068295 0.200586
v -0.182155 1.067937 0.179976
v -0.184987 1.073838 0.145039
v -0.136367 1.090281 0.153114
v -0.346321 0.665504 0.576472
v -0.363462 0.677815 0.596265
v -0.518698 0.591976 0.549201
v -0.595538 0.675369 0.398804
v -0.495367 0.523234 0.521045
v -0.578046 0.662669 0.378766
v -0.144133 1.019451 0.137466
v -0.155628 1.035638 0.108075
v -0.114156 1.041424 0.109409
v -0.113962 1.030509 0.149895
v -0.144835 0.996610 0.490465
v -0.429167 0.861646 0.436249
v -0.491525 0.900813 0.509599
v -0.230219 1.030716 0.447573
v -0.485090 1.008688 0.157374
v -0.437256 1.038429 0.244113
v -0.246732 0.878530 0.625178
v -0.529115 0.672805 0.562719
v -0.601664 0.911811 0.345585
v -0.458065 0.696321 0.477061
v -0.317601 0.908697 0.608036
v -0.624385 0.882924 0.274585
v -0.253335 1.046406 0.259000
v -0.165353 1.077289 0.269181
v -0.260654 1.070134 0.163395
v -0.156754 1.058262 0.271068
v -0.343656 1.057202 0.355925
v -0.257276 1.087785 0.174074
v -0.388412 0.675892 -0.330313
v -0.391370 0.626047 0.394047
v 0.326629 0.712273 0.412895
v -0.389927 0.667211 -0.236950
v 0.336227 0.771831 -0.313915
v 0.287087 0.707178 0.411578
v -0.363397 0.464587 -0.350004
v 0.281582 0.442745 0.378062
v -0.364721 0.429193 0.371277
v 0.362214 0.446857 0.379440
v -0.366755 0.445142 -0.159514
v 0.366745 0.505179 -0.343450
vt 0.378055 0.327070
vt 0.378055 0.255321
vt 0.412325 0.255321
vt 0.372848 0.560781
vt 0.128949 0.712673
vt 0.128949 0.712673
vt 0.487199 0.373660
vt 0.460442 0.357693
vt 0.522874 0.357693
vt 0.461264 0.370281
vt 0.490994 0.390240
vt 0.461264 0.390240
vt 0.379033 0.550957
vt 0.623034 0.479370
vt 0.623230 0.550419
vt 0.420536 0.376487
vt 0.450265 0.329918
vt 0.450265 0.376487
vt 0.375000 0.500000
vt 0.125000 0.750000
vt 0.125000 0.500000
vt 0.522874 0.397610
vt 0.280287 0.650828
vt 0.310545 0.771859
vt 0.128998 0.771859
vt 0.435004 0.388581
vt 0.496651 0.429966
vt 0.435004 0.429966
vt 0.623140 0.774427
vt 0.376860 0.702771
vt 0.622399 0.703300
vt 0.464189 0.423257
vt 0.525836 0.381871
vt 0.525836 0.423257
vt 0.872756 0.774419
vt 0.628474 0.555428
vt 0.872756 0.556499
vt 0.487620 0.370773
vt 0.517350 0.390732
vt 0.517350 0.357468
vt 0.620876 0.779918
vt 0.595027 0.852960
vt 0.581874 0.779918
vt 0.487620 0.370773
vt 0.465323 0.357468
vt 0.517350 0.357468
vt 0.128949 0.773626
vt 0.509725 0.376487
vt 0.479995 0.329918
vt 0.509725 0.329918
vt 0.464189 0.354281
vt 0.525836 0.381871
vt 0.464189 0.381871
vt 0.435004 0.360990
vt 0.496651 0.388581
vt 0.435004 0.388581
vt 0.483209 0.390155
vt 0.518884 0.350238
vt 0.518884 0.390155
vt 0.128949 0.773626
vt 0.295416 0.650828
vt 0.690855 0.601580
vt 0.720955 0.561581
vt 0.645084 0.561581
vt 0.487802 0.532021
vt 0.499065 0.526215
vt 0.504886 0.531542
vt 0.504388 0.516216
vt 0.520723 0.390240
vt 0.550453 0.370281
vt 0.550453 0.390240
vt 0.421523 0.423015
vt 0.416672 0.425767
vt 0.419592 0.429095
vt 0.811873 0.749619
vt 0.755398 0.725109
vt 0.815036 0.748557
vt 0.445009 0.520630
vt 0.436903 0.521033
vt 0.436536 0.520630
vt 0.839447 0.640919
vt 0.830172 0.653014
vt 0.841826 0.650634
vt 0.811682 0.606523
vt 0.795713 0.604342
vt 0.797723 0.603667
vt 0.442535 0.523492
vt 0.443596 0.519667
vt 0.443352 0.527173
vt 0.657356 0.572062
vt 0.732970 0.640298
vt 0.802944 0.586634
vt 0.674484 0.586634
vt 0.645084 0.629494
vt 0.674484 0.701620
vt 0.690518 0.687267
vt 0.720955 0.561581
vt 0.504746 0.373660
vt 0.469071 0.397610
vt 0.469071 0.357693
vt 0.812791 0.598503
vt 0.819388 0.604343
vt 0.732209 0.745865
vt 0.436536 0.528214
vt 0.445009 0.528214
vt 0.849909 0.716775
vt 0.827775 0.660324
vt 0.850963 0.639568
vt 0.732209 0.639568
vt 0.792249 0.693992
vt 0.815608 0.718989
vt 0.848653 0.719529
vt 0.786910 0.600986
vt 0.621927 0.327070
vt 0.621927 0.255321
vt 0.838755 0.740427
vt 0.850585 0.740115
vt 0.645084 0.629494
vt 0.838749 0.744845
vt 0.837104 0.755825
vt 0.823001 0.597556
vt 0.819079 0.585226
vt 0.819877 0.583477
vt 0.434972 0.527113
vt 0.131195 0.589875
vt 0.130889 0.560781
vt 0.128949 0.712673
vt 0.371061 0.772907
vt 0.128949 0.712673
vt 0.379124 0.996513
vt 0.608179 0.926002
vt 0.620876 0.996513
vt 0.517350 0.390732
vt 0.460442 0.373660
vt 0.465323 0.357468
vt 0.465323 0.370773
vt 0.250029 0.650828
vt 0.128998 0.590312
vt 0.250029 0.590312
vt 0.531503 0.357693
vt 0.531503 0.373660
vt 0.465323 0.370773
vt 0.487712 0.529427
vt 0.500418 0.517318
vt 0.837009 0.753053
vt 0.486812 0.350984
vt 0.522488 0.390900
vt 0.486812 0.390900
vt 0.379124 0.926002
vt 0.376860 0.628545
vt 0.621631 0.629622
vt 0.447825 0.180996
vt 0.621927 0.180996
vt 0.620876 0.926002
vt 0.378297 0.480259
vt 0.622831 0.405771
vt 0.378055 0.180996
vt 0.483324 0.106672
vt 0.621927 0.106672
vt 0.379124 0.852960
vt 0.620876 0.852960
vt 0.376770 0.333788
vt 0.622628 0.332173
vt 0.376860 0.554318
vt 0.620863 0.555943
vt 0.378055 0.106672
vt 0.490994 0.370281
vt 0.420536 0.329918
vt 0.375000 0.750000
vt 0.487199 0.397610
vt 0.496651 0.388581
vt 0.376860 0.774427
vt 0.464189 0.381871
vt 0.628474 0.773348
vt 0.487620 0.390732
vt 0.128949 0.773626
vt 0.479995 0.376487
vt 0.525836 0.354281
vt 0.496651 0.360990
vt 0.483209 0.350238
vt 0.520723 0.370281
vt 0.417617 0.419461
vt 0.823369 0.646826
vt 0.811742 0.608285
vt 0.442230 0.514087
vt 0.504746 0.397610
vt 0.820307 0.598304
vt 0.854827 0.738937
vt 0.432052 0.523786
vt 0.487620 0.390732
vt 0.522488 0.350984
vt 0.377534 0.407023
vt 0.379124 0.779918
vn -0.9838 -0.1765 -0.0324
vn -0.0091 -0.9824 -0.1864
vn 0.9999 0.0108 0.0010
vn 0.0066 1.0000 0.0048
vn 0.0142 0.0824 -0.9965
vn 0.0002 -1.0000 0.0013
vn 0.3041 -0.9130 -0.2721
vn 0.9999 0.0169 -0.0021
vn -0.0079 -0.9987 -0.0495
vn 0.0129 0.0944 0.9954
vn 0.9842 0.1748 0.0273
vn -0.0021 0.0205 0.9998
vn -0.1580 0.9854 0.0636
vn -0.9998 -0.0214 0.0044
vn 0.0034 -0.0678 0.9977
vn 0.9999 0.0104 -0.0015
vn -0.0091 -0.9950 -0.0995
vn 0.0191 -0.9996 0.0199
vn -0.0002 0.0320 0.9995
vn -0.0002 -0.0053 1.0000
vn -0.0098 -0.0612 -0.9981
vn 0.0661 -0.9934 -0.0934
vn 0.5806 -0.3158 -0.7505
vn -0.2708 0.9274 -0.2579
vn 0.3666 0.8421 0.3955
vn -0.0195 0.9991 -0.0386
vn -0.8006 -0.5990 -0.0168
vn -0.4298 0.5262 -0.7337
vn 0.0023 -0.2999 0.9540
vn 0.0396 -0.7924 0.6087
vn -0.2021 0.5350 -0.8203
vn 0.9342 0.3454 0.0886
vn 0.0134 -0.3751 0.9269
vn 0.7156 -0.1802 -0.6749
vn -0.9128 -0.1790 0.3671
vn -0.9563 0.0404 0.2896
vn 0.5407 -0.4195 0.7292
vn -1.0000 -0.0006 -0.0031
vn 0.1256 0.9903 0.0594
vn -0.5902 0.8058 0.0492
vn -0.0217 0.3606 -0.9324
vn 0.2485 0.9359 0.2495
vn -0.2620 0.7910 0.5529
vn 0.2619 -0.9318 -0.2513
vn 0.3455 -0.7998 -0.4910
vn 0.0168 0.9659 0.2583
vn -0.4816 0.8360 0.2628
vn 0.1259 0.6969 0.7060
vn 0.4546 -0.8028 -0.3858
vn -0.4937 0.0538 0.8680
vn -0.8224 0.1046 0.5593
vn -0.9896 -0.1435 -0.0116
vn 0.0308 0.9763 0.2143
vn 0.6051 -0.2328 -0.7613
vn 0.0077 -0.9859 -0.1671
vn -0.1176 0.9869 0.1101
vn 0.8581 0.4175 0.2989
vn 0.1381 -0.9801 -0.1426
vn 0.1509 -0.9495 -0.2750
vn 0.6527 -0.3157 -0.6887
vn -0.0661 0.6484 -0.7584
vn -0.0156 -0.9990 -0.0421
vn 0.0327 -0.9923 -0.1196
vn -0.0697 -0.9973 -0.0208
vn 0.0968 -0.9905 -0.0977
vn -0.9124 -0.3759 0.1618
vn 0.0928 -0.9908 -0.0989
vn -0.0183 -0.1033 0.9945
vn 0.0651 -0.9916 -0.1114
vn 1.0000 0.0004 0.0036
vn 0.9998 0.0174 0.0050
vn -0.9999 -0.0116 -0.0006
vn -0.9998 -0.0173 -0.0041
vn -0.0732 -0.9908 -0.1141
vn -0.0058 -0.9986 -0.0519
vn -0.0232 -0.9953 -0.0935
vn -0.0152 -0.9949 -0.0993
vn -1.0000 -0.0097 0.0016
vn -1.0000 -0.0003 0.0078
vn 0.9333 0.3416 0.1105
vn 1.0000 0.0003 -0.0080
vn -0.9579 -0.2728 -0.0894
vn -0.1896 -0.1857 0.9641
vn 0.2846 0.6731 -0.6826
vn 0.7661 0.6416 -0.0378
vn -0.8023 -0.3847 -0.4565
vn -0.2362 -0.0026 0.9717
vn -0.2479 0.9677 0.0450
vn 0.0002 0.9741 0.2259
vn 0.0241 -0.9698 -0.2425
vn -0.0987 0.9928 0.0678
vn 0.0017 -0.0171 -0.9999
vn -0.0106 -0.1255 0.9920
vn 0.9936 0.1120 0.0153
vn -0.9910 -0.1341 -0.0002
vn -0.0198 -0.1034 0.9944
vn 0.0101 0.0940 -0.9955
vn -0.9931 -0.1138 -0.0291
vn -0.9997 0.0241 0.0004
vn -0.0091 -0.0664 0.9977
vn 0.0006 0.1100 -0.9939
vn 0.9992 0.0387 0.0038
vn -0.9996 0.0059 -0.0263
vn -0.0002 1.0000 -0.0041
vn 0.0107 0.0894 -0.9959
vn -0.0023 -1.0000 -0.0002
vn 0.3063 -0.9116 -0.2740
vn 0.9999 0.0144 -0.0040
vn 0.0004 0.1130 0.9936
vn 0.9825 0.1837 0.0312
vn 0.0015 0.0263 0.9997
vn -0.1440 0.9865 0.0781
vn -0.9998 -0.0212 0.0045
vn -0.0133 -0.0739 0.9972
vn -0.0061 -0.9947 -0.1027
vn 0.0172 -0.9996 0.0209
vn 0.0008 -0.0695 -0.9976
vn 0.0868 -0.9918 -0.0934
vn -0.0172 0.9990 -0.0416
vn -0.8014 -0.5970 -0.0359
vn -0.2549 0.9491 -0.1849
vn -0.2043 -0.4306 0.8791
vn -0.2720 -0.7461 0.6078
vn -0.2186 0.5812 -0.7839
vn 0.9257 0.3378 0.1704
vn 0.2126 -0.7365 0.6422
vn 0.5905 -0.2892 -0.7534
vn -1.0000 -0.0062 -0.0075
vn 0.0382 0.9986 -0.0359
vn -0.6988 0.7123 -0.0662
vn -0.0203 0.3607 -0.9325
vn 0.8177 0.4097 0.4043
vn -0.3021 0.8309 0.4673
vn 0.3185 -0.8107 -0.4913
vn -0.4676 0.8037 0.3679
vn 0.0109 0.7931 0.6090
vn 0.4551 -0.8113 -0.3669
vn -0.1994 0.2534 0.9466
vn -0.8998 0.2341 0.3683
vn -0.9858 -0.1678 -0.0044
vn 0.6540 -0.2871 -0.6999
vn 0.7723 0.5877 0.2412
vn 0.0641 -0.9903 -0.1231
vn -0.0961 0.6530 -0.7512
vn -0.6490 -0.7558 -0.0875
vn -0.0152 -0.0884 0.9960
vn 1.0000 0.0043 0.0064
vn 0.9352 0.3430 0.0880
vn -0.9018 -0.4137 0.1249
vn -0.0014 -0.0196 -0.9998
vn -0.0080 -0.1160 0.9932
vn 0.9912 0.1299 0.0237
vn -0.9942 -0.1070 -0.0093
vn 0.0028 0.1104 -0.9939
vn -0.9930 -0.1151 -0.0268
vn -0.9999 0.0155 0.0043
vn -0.0018 -0.0486 0.9988
vn -0.0166 -0.1272 0.9917
vn 0.0024 0.1166 -0.9932
vn 0.9985 0.0536 0.0106
vn -0.9998 -0.0027 -0.0179
s off
f 4/1/1 75/2/1 78/3/1
f 7/4/2 18/5/2 17/6/2
f 25/7/3 29/8/3 20/9/3
f 34/10/4 24/11/4 23/12/4
f 8/13/5 75/14/5 4/15/5
f 28/16/6 21/17/6 27/18/6
f 41/19/7 35/20/7 37/21/7
f 16/22/8 25/7/8 20/9/8
f 12/23/9 9/24/9 1/25/9
f 23/26/10 12/27/10 10/28/10
f 8/29/11 77/30/11 79/31/11
f 13/32/12 25/33/12 11/34/12
f 2/35/13 8/36/13 4/37/13
f 26/38/14 18/39/14 22/40/14
f 5/41/15 82/42/15 9/43/15
f 24/44/16 27/45/16 21/46/16
f 13/47/17 17/6/17 18/5/17
f 29/48/18 22/49/18 20/50/18
f 30/51/19 31/52/19 32/53/19
f 28/54/20 33/55/20 34/56/20
f 17/57/21 19/58/21 15/59/21
f 11/60/22 9/24/22 13/61/22
f 66/62/23 47/63/23 51/64/23
f 45/65/24 40/66/24 46/67/24
f 40/66/25 43/68/25 46/67/25
f 26/69/26 31/70/26 25/71/26
f 53/72/27 45/73/27 54/74/27
f 71/75/28 62/76/28 74/77/28
f 35/78/29 53/79/29 37/80/29
f 43/81/30 53/82/30 56/83/30
f 42/84/31 71/85/31 74/86/31
f 46/87/32 56/88/32 55/89/32
f 47/63/33 49/90/33 51/64/33
f 47/63/34 58/91/34 63/92/34
f 64/93/35 50/94/35 49/90/35
f 68/95/36 50/94/36 65/96/36
f 63/92/37 48/97/37 47/63/37
f 23/98/38 15/99/38 19/100/38
f 38/101/39 40/102/39 42/84/39
f 61/103/40 65/96/40 62/76/40
f 41/104/41 55/89/41 39/105/41
f 72/106/42 60/107/42 57/108/42
f 59/109/43 60/107/43 73/110/43
f 69/111/44 61/103/44 71/75/44
f 58/91/45 61/103/45 69/111/45
f 73/110/46 60/107/46 70/112/46
f 65/96/47 73/110/47 62/76/47
f 57/108/48 67/113/48 63/92/48
f 57/108/49 58/91/49 69/111/49
f 59/109/50 48/97/50 67/113/50
f 50/94/51 59/109/51 65/96/51
f 2/114/52 78/3/52 76/115/52
f 38/116/53 70/112/53 36/117/53
f 58/91/54 52/118/54 68/95/54
f 44/119/55 71/75/55 45/120/55
f 38/116/56 74/77/56 73/110/56
f 43/121/57 70/122/57 72/123/57
f 44/119/58 72/106/58 69/111/58
f 69/111/59 72/106/59 57/108/59
f 66/62/60 51/64/60 52/118/60
f 54/124/61 46/87/61 55/89/61
f 14/125/62 3/126/62 15/127/62
f 3/126/63 7/4/63 17/6/63
f 15/127/64 3/126/64 17/6/64
f 7/4/65 5/128/65 11/60/65
f 49/90/66 52/118/66 51/64/66
f 11/60/67 16/129/67 7/4/67
f 2/130/68 80/131/68 6/132/68
f 7/4/69 16/129/69 18/5/69
f 17/133/70 24/44/70 21/46/70
f 25/7/71 31/134/71 29/8/71
f 22/40/72 30/135/72 26/38/72
f 30/135/73 32/136/73 26/38/73
f 10/137/74 12/23/74 1/25/74
f 12/23/75 13/61/75 9/24/75
f 1/25/76 14/138/76 10/137/76
f 14/138/77 15/139/77 10/137/77
f 19/100/78 28/140/78 23/98/78
f 28/140/79 34/141/79 23/98/79
f 55/89/80 35/78/80 39/105/80
f 24/44/81 33/142/81 27/45/81
f 53/79/82 41/104/82 37/80/82
f 64/93/83 49/90/83 48/97/83
f 45/65/84 42/143/84 40/66/84
f 40/66/85 36/144/85 43/68/85
f 68/95/86 52/118/86 50/94/86
f 63/92/87 67/113/87 48/97/87
f 73/110/88 74/77/88 62/76/88
f 38/116/89 73/110/89 70/112/89
f 44/119/90 69/111/90 71/75/90
f 38/116/91 42/145/91 74/77/91
f 20/146/92 18/147/92 16/148/92
f 76/149/93 82/42/93 80/131/93
f 79/31/94 84/150/94 86/151/94
f 76/115/95 85/152/95 83/153/95
f 80/131/96 77/154/96 6/132/96
f 79/155/97 81/156/97 75/14/97
f 78/3/98 81/157/98 85/152/98
f 83/153/99 14/158/99 1/159/99
f 83/160/100 9/43/100 82/42/100
f 84/161/93 80/131/93 82/42/93
f 81/156/101 7/162/101 3/163/101
f 86/151/102 5/164/102 7/165/102
f 85/152/103 3/166/103 14/158/103
f 34/10/104 33/167/104 24/11/104
f 8/13/105 79/155/105 75/14/105
f 28/16/106 19/168/106 21/17/106
f 41/19/107 39/169/107 35/20/107
f 16/22/108 11/170/108 25/7/108
f 23/26/109 24/171/109 12/27/109
f 8/29/110 6/172/110 77/30/110
f 13/32/111 26/173/111 25/33/111
f 2/35/112 6/174/112 8/36/112
f 26/38/113 13/175/113 18/39/113
f 5/41/114 84/161/114 82/42/114
f 13/47/115 12/176/115 17/6/115
f 29/48/116 30/177/116 22/49/116
f 30/51/19 29/178/19 31/52/19
f 28/54/20 27/179/20 33/55/20
f 17/57/117 21/180/117 19/58/117
f 11/60/118 5/128/118 9/24/118
f 26/69/119 32/181/119 31/70/119
f 53/72/120 44/182/120 45/73/120
f 71/75/121 61/103/121 62/76/121
f 35/78/122 56/88/122 53/79/122
f 43/81/123 44/183/123 53/82/123
f 42/84/124 45/184/124 71/85/124
f 46/87/125 43/185/125 56/88/125
f 47/63/126 48/97/126 49/90/126
f 47/63/127 66/62/127 58/91/127
f 23/98/128 10/186/128 15/99/128
f 38/101/129 36/187/129 40/102/129
f 61/103/130 68/95/130 65/96/130
f 41/104/131 54/124/131 55/89/131
f 72/106/132 70/112/132 60/107/132
f 59/109/133 67/113/133 60/107/133
f 58/91/134 68/95/134 61/103/134
f 65/96/135 59/109/135 73/110/135
f 57/108/136 60/107/136 67/113/136
f 57/108/137 63/92/137 58/91/137
f 59/109/138 64/93/138 48/97/138
f 50/94/139 64/93/139 59/109/139
f 2/114/140 4/1/140 78/3/140
f 58/91/141 66/62/141 52/118/141
f 43/121/142 36/187/142 70/122/142
f 44/119/143 43/188/143 72/106/143
f 54/124/144 45/189/144 46/87/144
f 49/90/145 50/94/145 52/118/145
f 2/130/146 76/149/146 80/131/146
f 17/133/147 12/190/147 24/44/147
f 55/89/148 56/88/148 35/78/148
f 53/79/149 54/124/149 41/104/149
f 20/146/150 22/191/150 18/147/150
f 76/149/151 83/160/151 82/42/151
f 79/31/152 77/30/152 84/150/152
f 76/115/153 78/3/153 85/152/153
f 79/155/154 86/192/154 81/156/154
f 78/3/155 75/2/155 81/157/155
f 83/153/156 85/152/156 14/158/156
f 83/160/157 1/193/157 9/43/157
f 84/161/158 77/154/158 80/131/158
f 81/156/159 86/192/159 7/162/159
f 86/151/160 84/150/160 5/164/160
f 85/152/161 81/157/161 3/166/161
