# Blender v3.2.1 OBJ File: 'Modeling.blend'
# www.blender.org
o Player_Cube.001
v -0.393452 0.214561 0.389847
v -0.393452 0.964095 0.438355
v -0.393452 0.226151 -0.398027
v -0.393452 1.048240 -0.333191
v 0.393452 0.214561 0.390437
v 0.393452 0.955103 0.447856
v 0.393452 0.225659 -0.398120
v 0.393452 1.049235 -0.332018
v 0.262301 0.215064 0.390526
v -0.262299 0.218579 0.087433
v 0.262301 0.218579 0.087433
v -0.087432 0.218579 0.087433
v 0.087434 0.218579 0.087433
v -0.393452 0.219372 -0.089175
v -0.262299 0.218579 -0.087435
v 0.262301 0.218579 -0.087435
v -0.087432 0.218579 -0.087435
v 0.087434 0.218579 -0.087435
v -0.262299 -0.000003 -0.087435
v 0.262301 -0.000003 -0.087435
v -0.087432 -0.000003 -0.087435
v 0.087434 -0.000003 -0.087435
v -0.262299 0.087430 0.087433
v -0.087432 0.087430 0.087433
v 0.262301 0.087430 0.087433
v 0.087434 0.087430 0.087433
v -0.087432 -0.000003 0.218583
v -0.262299 -0.000003 0.218583
v 0.262301 -0.000003 0.218583
v 0.087434 -0.000003 0.218583
v 0.262301 0.087430 0.218583
v 0.087434 0.087430 0.218583
v -0.087432 0.087430 0.218583
v -0.262299 0.087430 0.218583
v 0.032332 0.997797 0.089243
v 0.003686 1.233025 0.131700
v -0.012332 0.997719 0.088834
v -0.032631 1.242126 0.131129
v 0.032332 1.003798 0.044916
v 0.000185 1.220228 0.098461
v -0.012332 1.003887 0.044598
v -0.037026 1.231171 0.087381
v 0.017658 1.204654 0.134635
v -0.031100 1.207968 0.114627
v -0.035876 1.201200 0.077619
v 0.019303 1.205363 0.079309
v -0.344806 1.058115 0.673276
v -0.352194 1.085706 0.684078
v -0.543953 1.072433 0.673528
v -0.604188 1.103302 0.480253
v -0.558640 0.991510 0.684703
v -0.596934 1.074682 0.470056
v -0.010394 1.135109 0.097634
v -0.020576 1.139742 0.061519
v 0.023600 1.133175 0.061577
v 0.024889 1.141862 0.105306
v -0.008760 1.190062 0.465142
v -0.353898 1.191604 0.437053
v -0.381983 1.289837 0.479958
v -0.076780 1.246873 0.405541
v -0.352098 1.245896 0.098965
v -0.283764 1.284806 0.179710
v -0.155064 1.187352 0.629305
v -0.513994 1.149643 0.643592
v -0.497344 1.289428 0.307331
v -0.450776 1.091870 0.557753
v -0.207175 1.243739 0.594000
v -0.540127 1.249394 0.245467
v -0.102606 1.229708 0.202913
v -0.002612 1.239695 0.202414
v -0.112329 1.222046 0.098822
v 0.001888 1.219777 0.210622
v -0.175263 1.296094 0.297012
v -0.103487 1.241888 0.103593
v -0.393452 0.786922 -0.367853
v -0.393452 0.712967 0.411576
v 0.393452 0.710803 0.412988
v -0.393452 0.777452 -0.268319
v 0.393452 0.787230 -0.368137
v 0.350756 0.710928 0.412825
v -0.393452 0.500219 -0.393121
v 0.306528 0.473376 0.392332
v -0.393452 0.473752 0.391768
v 0.393452 0.472525 0.393114
v -0.393452 0.492725 -0.188698
v 0.393452 0.499648 -0.393866
vt 0.378055 0.327070
vt 0.378055 0.255321
vt 0.412325 0.255321
vt 0.372848 0.560781
vt 0.128949 0.712673
vt 0.128949 0.712673
vt 0.487199 0.373660
vt 0.460442 0.357693
vt 0.522874 0.357693
vt 0.461264 0.370281
vt 0.490994 0.390240
vt 0.461264 0.390240
vt 0.378297 0.480259
vt 0.623230 0.550419
vt 0.379033 0.550957
vt 0.420536 0.376487
vt 0.450265 0.329918
vt 0.450265 0.376487
vt 0.375000 0.750000
vt 0.125000 0.500000
vt 0.375000 0.500000
vt 0.522874 0.397610
vt 0.280287 0.650828
vt 0.310545 0.771859
vt 0.128998 0.771859
vt 0.435004 0.388581
vt 0.496651 0.429966
vt 0.435004 0.429966
vt 0.623140 0.774427
vt 0.376860 0.702771
vt 0.622399 0.703300
vt 0.464189 0.381871
vt 0.525836 0.423257
vt 0.464189 0.423257
vt 0.872756 0.774419
vt 0.628474 0.555428
vt 0.872756 0.556499
vt 0.487620 0.370773
vt 0.517350 0.390732
vt 0.517350 0.357468
vt 0.620876 0.779918
vt 0.595027 0.852960
vt 0.581874 0.779918
vt 0.487620 0.370773
vt 0.465323 0.357468
vt 0.517350 0.357468
vt 0.128949 0.773626
vt 0.479995 0.376487
vt 0.509725 0.329918
vt 0.509725 0.376487
vt 0.464189 0.354281
vt 0.525836 0.381871
vt 0.464189 0.381871
vt 0.435004 0.360990
vt 0.496651 0.388581
vt 0.435004 0.388581
vt 0.483209 0.350238
vt 0.518884 0.390155
vt 0.483209 0.390155
vt 0.128949 0.773626
vt 0.295416 0.650828
vt 0.690855 0.601580
vt 0.720955 0.561581
vt 0.645084 0.561581
vt 0.487802 0.532021
vt 0.499065 0.526215
vt 0.504886 0.531542
vt 0.504388 0.516216
vt 0.520723 0.370281
vt 0.550453 0.390240
vt 0.520723 0.390240
vt 0.421523 0.423015
vt 0.416672 0.425767
vt 0.419592 0.429095
vt 0.811873 0.749619
vt 0.755398 0.725109
vt 0.815036 0.748557
vt 0.445009 0.520630
vt 0.436903 0.521033
vt 0.436536 0.520630
vt 0.839447 0.640919
vt 0.830172 0.653014
vt 0.841826 0.650634
vt 0.811682 0.606523
vt 0.795713 0.604342
vt 0.797723 0.603667
vt 0.442535 0.523492
vt 0.443596 0.519667
vt 0.443352 0.527173
vt 0.657356 0.572062
vt 0.732970 0.640298
vt 0.802944 0.586634
vt 0.674484 0.586634
vt 0.645084 0.629494
vt 0.674484 0.701620
vt 0.690518 0.687267
vt 0.720955 0.561581
vt 0.504746 0.373660
vt 0.469071 0.397610
vt 0.469071 0.357693
vt 0.812791 0.598503
vt 0.819388 0.604343
vt 0.732209 0.745865
vt 0.436536 0.528214
vt 0.445009 0.528214
vt 0.849909 0.716775
vt 0.827775 0.660324
vt 0.850963 0.639568
vt 0.792249 0.693992
vt 0.786910 0.600986
vt 0.815608 0.718989
vt 0.848653 0.719529
vt 0.732209 0.639568
vt 0.621927 0.327070
vt 0.621927 0.255321
vt 0.838755 0.740427
vt 0.850585 0.740115
vt 0.645084 0.629494
vt 0.838749 0.744845
vt 0.837104 0.755825
vt 0.823001 0.597556
vt 0.819079 0.585226
vt 0.819877 0.583477
vt 0.434972 0.527113
vt 0.131195 0.589875
vt 0.130889 0.560781
vt 0.128949 0.712673
vt 0.371061 0.772907
vt 0.128949 0.712673
vt 0.379124 0.996513
vt 0.608179 0.926002
vt 0.620876 0.996513
vt 0.517350 0.390732
vt 0.460442 0.373660
vt 0.465323 0.357468
vt 0.465323 0.370773
vt 0.250029 0.650828
vt 0.128998 0.590312
vt 0.250029 0.590312
vt 0.531503 0.357693
vt 0.531503 0.373660
vt 0.465323 0.370773
vt 0.487712 0.529427
vt 0.500418 0.517318
vt 0.837009 0.753053
vt 0.486812 0.350984
vt 0.522488 0.390900
vt 0.486812 0.390900
vt 0.379124 0.926002
vt 0.376860 0.628545
vt 0.621631 0.629622
vt 0.447825 0.180996
vt 0.621927 0.180996
vt 0.620876 0.926002
vt 0.622831 0.405771
vt 0.623034 0.479370
vt 0.378055 0.180996
vt 0.483324 0.106672
vt 0.621927 0.106672
vt 0.379124 0.852960
vt 0.620876 0.852960
vt 0.377534 0.407023
vt 0.622628 0.332173
vt 0.620863 0.555943
vt 0.378055 0.106672
vt 0.490994 0.370281
vt 0.420536 0.329918
vt 0.125000 0.750000
vt 0.487199 0.397610
vt 0.496651 0.388581
vt 0.376860 0.774427
vt 0.525836 0.381871
vt 0.628474 0.773348
vt 0.487620 0.390732
vt 0.128949 0.773626
vt 0.479995 0.329918
vt 0.525836 0.354281
vt 0.496651 0.360990
vt 0.518884 0.350238
vt 0.550453 0.370281
vt 0.417617 0.419461
vt 0.823369 0.646826
vt 0.811742 0.608285
vt 0.442230 0.514087
vt 0.504746 0.397610
vt 0.820307 0.598304
vt 0.854827 0.738937
vt 0.432052 0.523786
vt 0.487620 0.390732
vt 0.522488 0.350984
vt 0.379124 0.779918
vt 0.376770 0.333788
vt 0.376860 0.554318
vn -1.0000 0.0000 0.0000
vn -0.0000 -0.9997 -0.0228
vn 1.0000 -0.0000 0.0000
vn 0.0000 1.0000 0.0000
vn 0.0013 0.1366 -0.9906
vn 0.0000 -1.0000 -0.0000
vn -0.0010 -0.9904 -0.1381
vn 0.0008 -0.9999 -0.0125
vn 0.0000 0.0000 1.0000
vn -0.0014 0.9941 0.1084
vn 0.0007 -0.0071 1.0000
vn 0.0000 -0.0000 -1.0000
vn -0.0000 -0.9999 -0.0116
vn 0.2398 -0.8503 -0.4685
vn -0.0386 0.7703 -0.6365
vn 0.6314 0.7750 0.0287
vn -0.9301 -0.2905 0.2250
vn -0.2941 0.3454 -0.8912
vn -0.0090 -0.0638 0.9979
vn -0.1122 -0.4311 0.8953
vn -0.1791 0.3048 -0.9354
vn 0.9966 0.0700 -0.0433
vn 0.0110 0.1348 0.9908
vn 0.4257 -0.7807 -0.4575
vn -0.8296 0.4500 0.3304
vn -0.7864 0.5974 0.1572
vn 0.3762 -0.2487 0.8925
vn 0.3430 0.9025 -0.2605
vn -0.1655 0.9359 -0.3109
vn 0.0073 0.1282 -0.9917
vn 0.5732 0.8108 0.1186
vn 0.2585 0.9462 0.1946
vn -0.0986 -0.9917 0.0822
vn 0.0020 -0.9874 -0.1585
vn 0.3569 0.9290 0.0975
vn -0.0633 0.9973 -0.0374
vn 0.4950 0.7413 0.4533
vn 0.0080 -0.9883 -0.1523
vn -0.2824 0.6574 0.6986
vn -0.5909 0.7045 0.3932
vn 0.2435 0.9674 -0.0696
vn 0.3061 -0.7874 -0.5351
vn -0.2052 -0.9577 0.2016
vn 0.0892 0.9672 -0.2379
vn 0.9511 0.2738 0.1429
vn -0.1049 -0.9820 0.1569
vn -0.0852 -0.9892 -0.1191
vn 0.3358 -0.8566 -0.3918
vn 0.0370 0.2404 -0.9700
vn -0.0058 -0.9997 -0.0219
vn -0.0006 -0.9997 -0.0238
vn 0.0000 -0.9997 -0.0244
vn 0.0019 -0.9999 -0.0141
vn -0.9464 0.2061 0.2487
vn 0.0539 -0.9985 0.0000
vn -0.0136 -0.1397 0.9901
vn 0.0000 -0.9999 -0.0133
vn 0.0075 -0.9999 -0.0100
vn -0.0060 -1.0000 0.0000
vn 0.9978 0.0662 0.0090
vn -0.9999 0.0140 0.0019
vn -0.0773 0.3864 0.9191
vn 0.3525 0.3020 -0.8857
vn 0.8788 0.4070 -0.2492
vn -0.9364 -0.1197 -0.3300
vn -0.0261 0.5130 0.8580
vn 0.1371 0.9659 -0.2198
vn 0.2693 0.9597 -0.0807
vn -0.1870 -0.9783 0.0895
vn 0.0942 0.9635 -0.2507
vn -0.0019 -0.0856 0.9963
vn -0.0042 -0.1413 0.9900
vn -0.0004 0.0878 -0.9961
vn -0.0008 -0.0069 1.0000
vn -0.0098 -0.0841 0.9964
vn -0.0009 0.0179 -0.9998
vn -0.0004 0.1315 -0.9913
vn 0.0030 -0.9910 -0.1342
vn 0.0099 0.9927 0.1198
vn -0.0091 -0.0104 0.9999
vn -0.0038 -0.9999 -0.0116
vn -0.9351 -0.3070 0.1768
vn 0.0860 0.8671 -0.4906
vn -0.1893 -0.1185 0.9748
vn -0.3788 -0.3110 0.8717
vn -0.1786 0.2985 -0.9375
vn 0.9945 0.1001 0.0308
vn -0.0254 -0.3704 0.9285
vn 0.2597 -0.8364 -0.4827
vn 0.2313 0.8995 -0.3707
vn -0.2785 0.8827 -0.3786
vn 0.0199 0.1248 -0.9920
vn 0.8903 0.3303 0.3134
vn 0.1352 0.9732 0.1861
vn -0.1411 -0.9774 -0.1577
vn 0.0145 0.9998 -0.0120
vn 0.4321 0.8458 0.3130
vn -0.0029 -0.9998 -0.0191
vn 0.1069 0.7108 0.6952
vn -0.6368 0.7588 0.1364
vn 0.3480 -0.8405 -0.4152
vn 0.8949 0.4446 0.0378
vn -0.1347 -0.9768 0.1664
vn 0.0103 0.2558 -0.9667
vn -0.9187 -0.3168 0.2357
vn -0.0020 -0.1060 0.9944
vn 0.9976 0.0561 -0.0406
vn -0.9615 -0.0907 0.2594
vn -0.0008 -0.0825 0.9966
vn -0.0009 0.0891 -0.9960
vn -0.0010 -0.0074 1.0000
vn -0.0041 -0.0831 0.9965
vn -0.0001 0.0155 -0.9999
s off
f 4/1/1 75/2/1 78/3/1
f 7/4/2 18/5/2 17/6/2
f 25/7/3 29/8/3 20/9/3
f 34/10/4 24/11/4 23/12/4
f 79/13/5 4/14/5 8/15/5
f 28/16/6 21/17/6 27/18/6
f 39/19/7 37/20/7 41/21/7
f 16/22/3 25/7/3 20/9/3
f 12/23/8 9/24/8 1/25/8
f 23/26/9 12/27/9 10/28/9
f 8/29/3 77/30/3 79/31/3
f 26/32/9 11/33/9 13/34/9
f 2/35/10 8/36/10 4/37/10
f 26/38/1 18/39/1 22/40/1
f 5/41/11 82/42/11 9/43/11
f 24/44/3 27/45/3 21/46/3
f 18/5/6 12/47/6 17/6/6
f 30/48/6 20/49/6 29/50/6
f 30/51/9 31/52/9 32/53/9
f 28/54/9 33/55/9 34/56/9
f 21/57/12 15/58/12 17/59/12
f 11/60/13 9/24/13 13/61/13
f 66/62/14 47/63/14 51/64/14
f 45/65/15 40/66/15 46/67/15
f 40/66/16 43/68/16 46/67/16
f 32/69/4 25/70/4 26/71/4
f 53/72/17 45/73/17 54/74/17
f 71/75/18 62/76/18 74/77/18
f 35/78/19 53/79/19 37/80/19
f 43/81/20 53/82/20 56/83/20
f 42/84/21 71/85/21 74/86/21
f 46/87/22 56/88/22 55/89/22
f 47/63/23 49/90/23 51/64/23
f 47/63/24 58/91/24 63/92/24
f 64/93/25 50/94/25 49/90/25
f 68/95/26 50/94/26 65/96/26
f 63/92/27 48/97/27 47/63/27
f 23/98/1 15/99/1 19/100/1
f 38/101/28 40/102/28 42/84/28
f 61/103/29 65/96/29 62/76/29
f 41/104/30 55/89/30 39/105/30
f 72/106/31 60/107/31 57/108/31
f 73/109/32 67/110/32 60/107/32
f 69/111/33 61/103/33 71/75/33
f 58/91/34 61/103/34 69/111/34
f 73/109/35 60/107/35 70/112/35
f 62/76/36 59/113/36 73/109/36
f 57/108/37 67/110/37 63/92/37
f 57/108/38 58/91/38 69/111/38
f 59/113/39 48/97/39 67/110/39
f 50/94/40 59/113/40 65/96/40
f 2/114/1 78/3/1 76/115/1
f 38/116/41 70/112/41 36/117/41
f 58/91/42 52/118/42 68/95/42
f 44/119/43 71/75/43 45/120/43
f 38/116/44 74/77/44 73/109/44
f 43/121/45 70/122/45 72/123/45
f 44/119/46 72/106/46 69/111/46
f 69/111/47 72/106/47 57/108/47
f 66/62/48 51/64/48 52/118/48
f 54/124/49 46/87/49 55/89/49
f 14/125/50 3/126/50 15/127/50
f 3/126/51 7/4/51 17/6/51
f 15/127/52 3/126/52 17/6/52
f 7/4/53 5/128/53 11/60/53
f 49/90/54 52/118/54 51/64/54
f 11/60/55 16/129/55 7/4/55
f 2/130/56 80/131/56 6/132/56
f 7/4/2 16/129/2 18/5/2
f 17/133/3 24/44/3 21/46/3
f 25/7/3 31/134/3 29/8/3
f 22/40/1 30/135/1 26/38/1
f 30/135/1 32/136/1 26/38/1
f 10/137/57 12/23/57 1/25/57
f 12/23/13 13/61/13 9/24/13
f 1/25/58 14/138/58 10/137/58
f 14/138/59 15/139/59 10/137/59
f 19/100/1 28/140/1 23/98/1
f 28/140/1 34/141/1 23/98/1
f 55/89/60 35/78/60 39/105/60
f 24/44/3 33/142/3 27/45/3
f 53/79/61 41/104/61 37/80/61
f 64/93/62 49/90/62 48/97/62
f 45/65/63 42/143/63 40/66/63
f 40/66/64 36/144/64 43/68/64
f 68/95/65 52/118/65 50/94/65
f 63/92/66 67/110/66 48/97/66
f 73/109/67 74/77/67 62/76/67
f 38/116/68 73/109/68 70/112/68
f 44/119/69 69/111/69 71/75/69
f 38/116/70 42/145/70 74/77/70
f 20/146/12 18/147/12 16/148/12
f 76/149/71 82/42/71 80/131/71
f 79/31/3 84/150/3 86/151/3
f 76/115/1 85/152/1 83/153/1
f 80/131/72 77/154/72 6/132/72
f 79/13/73 81/155/73 75/156/73
f 78/3/1 81/157/1 85/152/1
f 83/153/1 14/158/1 1/159/1
f 83/160/74 9/43/74 82/42/74
f 84/161/75 80/131/75 82/42/75
f 86/162/76 3/163/76 81/155/76
f 84/150/3 7/164/3 86/151/3
f 85/152/1 3/165/1 14/158/1
f 34/10/4 33/166/4 24/11/4
f 79/13/77 75/156/77 4/14/77
f 28/16/6 19/167/6 21/17/6
f 39/19/78 35/168/78 37/20/78
f 16/22/3 11/169/3 25/7/3
f 23/26/9 24/170/9 12/27/9
f 8/29/3 6/171/3 77/30/3
f 26/32/9 25/172/9 11/33/9
f 2/35/79 6/173/79 8/36/79
f 26/38/1 13/174/1 18/39/1
f 5/41/80 84/161/80 82/42/80
f 18/5/6 13/175/6 12/47/6
f 30/48/6 22/176/6 20/49/6
f 30/51/9 29/177/9 31/52/9
f 28/54/9 27/178/9 33/55/9
f 21/57/12 19/179/12 15/58/12
f 11/60/81 5/128/81 9/24/81
f 32/69/4 31/180/4 25/70/4
f 53/72/82 44/181/82 45/73/82
f 71/75/83 61/103/83 62/76/83
f 35/78/84 56/88/84 53/79/84
f 43/81/85 44/182/85 53/82/85
f 42/84/86 45/183/86 71/85/86
f 46/87/87 43/184/87 56/88/87
f 47/63/88 48/97/88 49/90/88
f 47/63/89 66/62/89 58/91/89
f 23/98/1 10/185/1 15/99/1
f 38/101/90 36/186/90 40/102/90
f 61/103/91 68/95/91 65/96/91
f 41/104/92 54/124/92 55/89/92
f 72/106/93 70/112/93 60/107/93
f 73/109/94 59/113/94 67/110/94
f 58/91/95 68/95/95 61/103/95
f 62/76/96 65/96/96 59/113/96
f 57/108/97 60/107/97 67/110/97
f 57/108/98 63/92/98 58/91/98
f 59/113/99 64/93/99 48/97/99
f 50/94/100 64/93/100 59/113/100
f 2/114/1 4/1/1 78/3/1
f 58/91/101 66/62/101 52/118/101
f 43/121/102 36/186/102 70/122/102
f 44/119/103 43/187/103 72/106/103
f 54/124/104 45/188/104 46/87/104
f 49/90/105 50/94/105 52/118/105
f 2/130/106 76/149/106 80/131/106
f 17/133/3 12/189/3 24/44/3
f 55/89/107 56/88/107 35/78/107
f 53/79/108 54/124/108 41/104/108
f 20/146/12 22/190/12 18/147/12
f 76/149/109 83/160/109 82/42/109
f 79/31/3 77/30/3 84/150/3
f 76/115/1 78/3/1 85/152/1
f 79/13/110 86/162/110 81/155/110
f 78/3/1 75/2/1 81/157/1
f 83/153/1 85/152/1 14/158/1
f 83/160/111 1/191/111 9/43/111
f 84/161/112 77/154/112 80/131/112
f 86/162/113 7/192/113 3/163/113
f 84/150/3 5/193/3 7/164/3
f 85/152/1 81/157/1 3/165/1
