# Blender v3.2.1 OBJ File: 'Cube - Kopie.blend'
# www.blender.org
o FinishedCube_Cube.001
v -0.366442 0.203574 0.366442
v -0.366442 0.936457 0.366442
v -0.366442 0.203574 -0.366442
v -0.366442 0.936457 -0.366442
v 0.366442 0.203574 0.366442
v 0.366442 0.936457 0.366442
v 0.366442 0.203574 -0.366442
v 0.366442 0.936457 -0.366442
v 0.244294 0.203574 0.366442
v -0.244292 0.203574 0.081431
v 0.244294 0.203574 0.081431
v -0.081430 0.203574 0.081431
v 0.081432 0.203574 0.081431
v -0.366442 0.203574 -0.081432
v -0.244292 0.203574 -0.081432
v 0.244294 0.203574 -0.081432
v -0.081430 0.203574 -0.081432
v 0.081432 0.203574 -0.081432
v -0.244292 -0.000003 -0.081432
v 0.244294 -0.000003 -0.081432
v -0.081430 -0.000003 -0.081432
v 0.081432 -0.000003 -0.081432
v -0.244292 0.081428 0.081431
v -0.081430 0.081428 0.081431
v 0.244294 0.081428 0.081431
v 0.081432 0.081428 0.081431
v -0.081430 -0.000003 0.203577
v -0.244292 -0.000003 0.203577
v 0.244294 -0.000003 0.203577
v 0.081432 -0.000003 0.203577
v 0.244294 0.081428 0.203577
v 0.081432 0.081428 0.203577
v -0.081430 0.081428 0.203577
v -0.244292 0.081428 0.203577
v 0.030112 0.935893 0.020799
v 0.001592 1.151236 0.054678
v -0.011485 0.935893 0.020799
v -0.032214 1.160193 0.053919
v 0.030112 0.935893 -0.020799
v -0.001826 1.139232 0.024370
v -0.011485 0.935893 -0.020799
v -0.036584 1.149141 0.013850
v 0.014925 1.124796 0.057590
v -0.030338 1.128434 0.038912
v -0.035283 1.122057 0.004517
v 0.016798 1.126987 0.005817
v -0.394118 0.962869 0.570413
v -0.395042 0.990495 0.580083
v -0.573908 1.026226 0.527198
v -0.576373 1.053615 0.348542
v -0.609708 0.957818 0.531005
v -0.574236 1.027152 0.339930
v -0.009681 1.060861 0.018588
v -0.019166 1.067017 -0.014759
v 0.021979 1.060895 -0.015085
v 0.023166 1.066755 0.026088
v 0.002264 1.126061 0.375137
v -0.328643 1.079551 0.356440
v -0.342580 1.177663 0.383647
v -0.068379 1.173338 0.311751
v -0.315504 1.127083 0.033335
v -0.265143 1.166255 0.104156
v -0.145288 1.097768 0.541905
v -0.520959 1.087540 0.510352
v -0.445143 1.163810 0.220394
v -0.463659 1.017491 0.442026
v -0.193831 1.147665 0.502982
v -0.473419 1.141396 0.161841
v -0.097341 1.151064 0.121195
v -0.004596 1.162172 0.120170
v -0.107112 1.140530 0.024392
v -0.000077 1.142592 0.128147
v -0.173290 1.200028 0.204880
v -0.098958 1.158985 0.028207
vt 0.378055 0.327070
vt 0.378055 0.106672
vt 0.483324 0.106672
vt 0.372848 0.560781
vt 0.128949 0.712673
vt 0.128949 0.712673
vt 0.487199 0.373660
vt 0.460442 0.357693
vt 0.522874 0.357693
vt 0.379033 0.550957
vt 0.622628 0.332173
vt 0.623230 0.550419
vt 0.450265 0.376487
vt 0.420536 0.329918
vt 0.450265 0.329918
vt 0.872756 0.556499
vt 0.628474 0.773348
vt 0.628474 0.555428
vt 0.486812 0.390900
vt 0.522488 0.350984
vt 0.522488 0.390900
vt 0.517350 0.357468
vt 0.487620 0.370773
vt 0.517350 0.390732
vt 0.280287 0.650828
vt 0.310545 0.771859
vt 0.128998 0.771859
vt 0.623140 0.774427
vt 0.376860 0.554318
vt 0.620863 0.555943
vt 0.483209 0.390155
vt 0.518884 0.350238
vt 0.518884 0.390155
vt 0.509725 0.376487
vt 0.479995 0.329918
vt 0.509725 0.329918
vt 0.435004 0.429966
vt 0.496651 0.388581
vt 0.496651 0.429966
vt 0.469071 0.357693
vt 0.504746 0.373660
vt 0.469071 0.397610
vt 0.581874 0.779918
vt 0.620876 0.779918
vt 0.620876 0.996513
vt 0.487620 0.370773
vt 0.465323 0.357468
vt 0.517350 0.357468
vt 0.464189 0.423257
vt 0.525836 0.381871
vt 0.525836 0.423257
vt 0.464189 0.381871
vt 0.525836 0.354281
vt 0.525836 0.381871
vt 0.435004 0.388581
vt 0.496651 0.360990
vt 0.496651 0.388581
vt 0.461264 0.390240
vt 0.490994 0.370281
vt 0.490994 0.390240
vt 0.520723 0.390240
vt 0.550453 0.370281
vt 0.550453 0.390240
vt 0.674484 0.586634
vt 0.720955 0.561581
vt 0.786910 0.600986
vt 0.690855 0.601580
vt 0.720955 0.561581
vt 0.645084 0.561581
vt 0.487802 0.532021
vt 0.499065 0.526215
vt 0.504886 0.531542
vt 0.504388 0.516216
vt 0.375000 0.500000
vt 0.125000 0.750000
vt 0.125000 0.500000
vt 0.812791 0.598503
vt 0.819388 0.604343
vt 0.811682 0.606523
vt 0.442535 0.523492
vt 0.443596 0.519667
vt 0.443352 0.527173
vt 0.434972 0.527113
vt 0.421523 0.423015
vt 0.416672 0.425767
vt 0.419592 0.429095
vt 0.839447 0.640919
vt 0.830172 0.653014
vt 0.841826 0.650634
vt 0.657356 0.572062
vt 0.645084 0.629494
vt 0.674484 0.701620
vt 0.645084 0.629494
vt 0.690518 0.687267
vt 0.802944 0.586634
vt 0.445009 0.520630
vt 0.436903 0.521033
vt 0.436536 0.520630
vt 0.436536 0.528214
vt 0.445009 0.528214
vt 0.849909 0.716775
vt 0.827775 0.660324
vt 0.850963 0.639568
vt 0.811873 0.749619
vt 0.755398 0.725109
vt 0.815036 0.748557
vt 0.792249 0.693992
vt 0.732209 0.639568
vt 0.815608 0.718989
vt 0.732209 0.745865
vt 0.732970 0.640298
vt 0.848653 0.719529
vt 0.838755 0.740427
vt 0.850585 0.740115
vt 0.838749 0.744845
vt 0.837104 0.755825
vt 0.795713 0.604342
vt 0.797723 0.603667
vt 0.820307 0.598304
vt 0.819877 0.583477
vt 0.823001 0.597556
vt 0.621927 0.106672
vt 0.621927 0.327070
vt 0.131195 0.589875
vt 0.130889 0.560781
vt 0.128949 0.712673
vt 0.371061 0.772907
vt 0.128949 0.773626
vt 0.128949 0.712673
vt 0.128949 0.773626
vt 0.128949 0.773626
vt 0.522874 0.397610
vt 0.487199 0.397610
vt 0.460442 0.373660
vt 0.376770 0.333788
vt 0.420536 0.376487
vt 0.872756 0.774419
vt 0.486812 0.350984
vt 0.465323 0.357468
vt 0.465323 0.370773
vt 0.487620 0.390732
vt 0.250029 0.650828
vt 0.295416 0.650828
vt 0.310545 0.650828
vt 0.128998 0.590312
vt 0.250029 0.590312
vt 0.376860 0.774427
vt 0.483209 0.350238
vt 0.479995 0.376487
vt 0.435004 0.388581
vt 0.531503 0.357693
vt 0.531503 0.373660
vt 0.504746 0.397610
vt 0.379124 0.996513
vt 0.379124 0.779918
vt 0.465323 0.370773
vt 0.517350 0.390732
vt 0.487620 0.390732
vt 0.464189 0.381871
vt 0.464189 0.354281
vt 0.435004 0.360990
vt 0.461264 0.370281
vt 0.520723 0.370281
vt 0.487712 0.529427
vt 0.500418 0.517318
vt 0.375000 0.750000
vt 0.442230 0.514087
vt 0.432052 0.523786
vt 0.417617 0.419461
vt 0.823369 0.646826
vt 0.854827 0.738937
vt 0.837009 0.753053
vt 0.811742 0.608285
vt 0.819079 0.585226
vn -1.0000 0.0000 0.0000
vn 0.0000 -1.0000 -0.0000
vn 1.0000 0.0000 0.0000
vn 0.0000 0.0000 -1.0000
vn 0.0000 1.0000 0.0000
vn 0.0000 0.0000 1.0000
vn -0.0755 0.5154 0.8536
vn 0.1005 -0.8948 -0.4351
vn -0.0613 0.8036 -0.5920
vn 0.5865 0.8081 0.0554
vn 0.3415 0.8959 -0.2843
vn 0.9950 0.0912 -0.0416
vn 0.0377 0.3040 -0.9519
vn -0.9195 -0.3389 0.1990
vn -0.1107 -0.4862 0.8668
vn -0.1812 0.1489 0.9721
vn -0.8859 0.4638 0.0038
vn 0.2891 -0.8718 -0.3956
vn -0.7366 0.6670 0.1124
vn -0.6362 0.7715 0.0119
vn 0.2723 -0.3098 0.9110
vn -0.0000 0.0177 0.9998
vn -0.9999 0.0144 -0.0000
vn 0.0000 0.0457 -0.9990
vn 0.9979 0.0649 0.0000
vn 0.5228 0.8509 0.0520
vn -0.3777 0.3445 -0.8594
vn -0.2391 0.9652 -0.1056
vn 0.0684 -0.9925 0.1011
vn 0.1460 -0.9773 -0.1535
vn 0.2281 0.9734 0.0192
vn 0.4036 0.7737 0.4884
vn -0.1877 0.9442 -0.2708
vn -0.3602 0.9211 0.1481
vn -0.2102 -0.9660 -0.1507
vn 0.2991 -0.9321 -0.2041
vn 0.0605 0.9833 0.1717
vn 0.2566 0.9570 -0.1355
vn -0.0986 -0.9771 0.1885
vn -0.1901 -0.9601 0.2053
vn 0.0601 0.9776 -0.2018
vn -0.1747 0.2728 -0.9461
vn 0.8872 0.4555 0.0737
vn -0.1839 0.4049 0.8957
vn 0.3590 -0.7728 -0.5233
vn 0.3568 0.3196 -0.8778
vn 0.8731 0.4115 -0.2615
vn 0.2448 0.8917 -0.3808
vn 0.9921 0.1187 0.0409
vn -0.0075 0.3286 -0.9445
vn -0.9199 -0.3400 0.1953
vn -0.3796 -0.3710 0.8475
vn -0.3270 -0.3219 0.8885
vn -0.9967 -0.0809 0.0013
vn 0.1972 -0.9327 -0.3018
vn -0.6157 0.7866 0.0459
vn -0.8878 0.0760 -0.4539
vn -0.1069 0.5448 0.8317
vn -0.2137 -0.0508 0.9756
vn -0.9628 -0.0684 0.2612
vn -0.0011 0.0459 -0.9989
vn 0.9978 0.0544 -0.0365
vn 0.9033 0.3234 0.2819
vn -0.0766 0.8946 -0.4403
vn -0.0745 0.9640 -0.2553
vn 0.1626 -0.9771 -0.1371
vn -0.0819 -0.9945 -0.0658
vn 0.0634 0.9811 0.1828
vn 0.3090 0.8946 0.3228
vn -0.2074 0.9110 -0.3564
vn -0.0485 0.9974 -0.0542
vn 0.1581 -0.9010 -0.4040
vn 0.1414 -0.9890 -0.0427
vn -0.1551 0.8950 0.4183
vn 0.1698 0.9804 -0.1001
vn -0.1635 -0.9643 0.2084
vn -0.1773 -0.9763 0.1241
vn 0.0881 0.9577 -0.2738
vn -0.1777 0.3130 -0.9330
vn 0.9684 0.2442 0.0507
s off
f 4/1/1 3/2/1 14/3/1
f 7/4/2 18/5/2 17/6/2
f 25/7/3 29/8/3 20/9/3
f 8/10/4 3/11/4 4/12/4
f 27/13/2 19/14/2 21/15/2
f 4/16/5 6/17/5 8/18/5
f 16/19/4 22/20/4 18/21/4
f 22/22/1 26/23/1 18/24/1
f 12/25/2 9/26/2 1/27/2
f 8/28/3 5/29/3 7/30/3
f 17/31/4 19/32/4 15/33/4
f 29/34/2 22/35/2 20/36/2
f 10/37/6 24/38/6 12/39/6
f 19/40/1 23/41/1 15/42/1
f 9/43/6 5/44/6 6/45/6
f 24/46/3 27/47/3 21/48/3
f 13/49/6 25/50/6 11/51/6
f 32/52/6 29/53/6 31/54/6
f 34/55/6 27/56/6 33/57/6
f 23/58/5 33/59/5 24/60/5
f 26/61/5 31/62/5 25/63/5
f 64/64/7 48/65/7 67/66/7
f 66/67/8 47/68/8 51/69/8
f 45/70/9 40/71/9 46/72/9
f 40/71/10 43/73/10 46/72/10
f 41/74/2 35/75/2 37/76/2
f 38/77/11 40/78/11 42/79/11
f 46/80/12 56/81/12 55/82/12
f 54/83/13 46/80/13 55/82/13
f 53/84/14 45/85/14 54/86/14
f 43/87/15 53/88/15 56/89/15
f 47/68/16 49/90/16 51/69/16
f 49/90/17 52/91/17 51/69/17
f 66/67/18 52/91/18 68/92/18
f 64/64/19 50/93/19 49/90/19
f 68/92/20 50/93/20 65/94/20
f 63/95/21 48/65/21 47/68/21
f 35/96/22 53/97/22 37/98/22
f 53/97/23 41/99/23 37/98/23
f 41/99/24 55/82/24 39/100/24
f 55/82/25 35/96/25 39/100/25
f 72/101/26 60/102/26 57/103/26
f 71/104/27 62/105/27 74/106/27
f 73/107/28 62/105/28 59/108/28
f 69/109/29 61/110/29 71/104/29
f 69/109/30 57/103/30 58/111/30
f 73/107/31 60/102/31 70/112/31
f 57/103/32 67/66/32 63/95/32
f 62/105/33 68/92/33 65/94/33
f 59/108/34 65/94/34 64/64/34
f 58/111/35 68/92/35 61/110/35
f 58/111/36 63/95/36 66/67/36
f 59/108/37 67/66/37 60/102/37
f 38/113/38 70/112/38 36/114/38
f 44/115/39 72/101/39 69/109/39
f 44/115/40 71/104/40 45/116/40
f 38/113/41 74/106/41 73/107/41
f 42/79/42 71/117/42 74/118/42
f 36/119/43 72/120/43 43/121/43
f 1/122/1 2/123/1 14/3/1
f 2/123/1 4/1/1 14/3/1
f 14/124/2 3/125/2 15/126/2
f 3/125/2 7/4/2 17/6/2
f 15/126/2 3/125/2 17/6/2
f 7/4/2 5/127/2 11/128/2
f 5/127/2 9/26/2 11/128/2
f 11/128/2 16/129/2 7/4/2
f 13/130/2 12/131/2 17/6/2
f 18/5/2 13/130/2 17/6/2
f 7/4/2 16/129/2 18/5/2
f 20/9/3 16/132/3 25/7/3
f 16/132/3 11/133/3 25/7/3
f 25/7/3 31/134/3 29/8/3
f 8/10/4 7/135/4 3/11/4
f 27/13/2 28/136/2 19/14/2
f 4/16/5 2/137/5 6/17/5
f 16/19/4 20/138/4 22/20/4
f 22/22/1 30/139/1 26/23/1
f 30/139/1 32/140/1 26/23/1
f 26/23/1 13/141/1 18/24/1
f 10/142/2 12/25/2 1/27/2
f 12/25/2 13/143/2 9/26/2
f 13/143/2 11/144/2 9/26/2
f 1/27/2 14/145/2 10/142/2
f 14/145/2 15/146/2 10/142/2
f 8/28/3 6/147/3 5/29/3
f 17/31/4 21/148/4 19/32/4
f 29/34/2 30/149/2 22/35/2
f 10/37/6 23/150/6 24/38/6
f 19/40/1 28/151/1 23/41/1
f 28/151/1 34/152/1 23/41/1
f 23/41/1 10/153/1 15/42/1
f 6/45/6 2/154/6 9/43/6
f 2/154/6 1/155/6 9/43/6
f 24/46/3 33/156/3 27/47/3
f 21/48/3 17/157/3 24/46/3
f 17/157/3 12/158/3 24/46/3
f 13/49/6 26/159/6 25/50/6
f 32/52/6 30/160/6 29/53/6
f 34/55/6 28/161/6 27/56/6
f 23/58/5 34/162/5 33/59/5
f 26/61/5 32/163/5 31/62/5
f 64/64/44 49/90/44 48/65/44
f 66/67/45 63/95/45 47/68/45
f 45/70/46 42/164/46 40/71/46
f 40/71/47 36/165/47 43/73/47
f 41/74/2 39/166/2 35/75/2
f 38/77/48 36/119/48 40/78/48
f 46/80/49 43/167/49 56/81/49
f 54/83/50 45/168/50 46/80/50
f 53/84/51 44/169/51 45/85/51
f 43/87/52 44/170/52 53/88/52
f 47/68/53 48/65/53 49/90/53
f 49/90/54 50/93/54 52/91/54
f 66/67/55 51/69/55 52/91/55
f 64/64/56 65/94/56 50/93/56
f 68/92/57 52/91/57 50/93/57
f 63/95/58 67/66/58 48/65/58
f 35/96/59 56/81/59 53/97/59
f 53/97/60 54/83/60 41/99/60
f 41/99/61 54/83/61 55/82/61
f 55/82/62 56/81/62 35/96/62
f 72/101/63 70/112/63 60/102/63
f 71/104/64 61/110/64 62/105/64
f 73/107/65 74/106/65 62/105/65
f 69/109/66 58/111/66 61/110/66
f 69/109/67 72/101/67 57/103/67
f 73/107/68 59/108/68 60/102/68
f 57/103/69 60/102/69 67/66/69
f 62/105/70 61/110/70 68/92/70
f 59/108/71 62/105/71 65/94/71
f 58/111/72 66/67/72 68/92/72
f 58/111/73 57/103/73 63/95/73
f 59/108/74 64/64/74 67/66/74
f 38/113/75 73/107/75 70/112/75
f 44/115/76 43/171/76 72/101/76
f 44/115/77 69/109/77 71/104/77
f 38/113/78 42/172/78 74/106/78
f 42/79/79 45/173/79 71/117/79
f 36/119/80 70/174/80 72/120/80
