# Blender v3.2.1 OBJ File: 'Modeling.blend'
# www.blender.org
o Player_Cube.001
v -0.393452 0.219763 0.394727
v -0.393452 1.015542 0.384239
v -0.393452 0.217080 -0.391556
v -0.393452 0.992943 -0.404013
v 0.393452 0.219330 0.394412
v 0.393452 1.017903 0.382010
v 0.393452 0.216806 -0.391407
v 0.393452 0.992404 -0.404564
v 0.262301 0.219447 0.394445
v -0.262299 0.218579 0.087433
v 0.262301 0.218579 0.087433
v -0.087432 0.218579 0.087433
v 0.087434 0.218579 0.087433
v -0.393452 0.218505 -0.086846
v -0.262299 0.218579 -0.087435
v 0.262301 0.218579 -0.087435
v -0.087432 0.218579 -0.087435
v 0.087434 0.218579 -0.087435
v -0.262299 -0.000003 -0.087435
v 0.262301 -0.000003 -0.087435
v -0.087432 -0.000003 -0.087435
v 0.087434 -0.000003 -0.087435
v -0.262299 0.087430 0.087433
v -0.087432 0.087430 0.087433
v 0.262301 0.087430 0.087433
v 0.087434 0.087430 0.087433
v -0.087432 -0.000003 0.218583
v -0.262299 -0.000003 0.218583
v 0.262301 -0.000003 0.218583
v 0.087434 -0.000003 0.218583
v 0.262301 0.087430 0.218583
v 0.087434 0.087430 0.218583
v -0.087432 0.087430 0.218583
v -0.262299 0.087430 0.218583
v 0.032332 1.005570 0.009687
v 0.004608 1.245609 0.008038
v -0.012332 1.005422 0.009298
v -0.031308 1.255556 0.004828
v 0.032332 1.003718 -0.035006
v 0.000413 1.225601 -0.020655
v -0.012332 1.003750 -0.035334
v -0.036405 1.234269 -0.034384
v 0.017672 1.218384 0.017999
v -0.031014 1.218287 -0.002463
v -0.035945 1.203419 -0.037170
v 0.019296 1.207766 -0.036377
v -0.382582 1.383299 0.599305
v -0.383852 1.411674 0.589735
v -0.577180 1.427854 0.551682
v -0.617661 1.331768 0.378855
v -0.610802 1.376310 0.607377
v -0.616440 1.303202 0.388700
v -0.010394 1.142231 -0.006094
v -0.020576 1.140468 -0.042463
v 0.023600 1.134012 -0.041255
v 0.024884 1.150221 0.000290
v 0.002404 1.325429 0.342528
v -0.352699 1.337833 0.333169
v -0.359493 1.443409 0.300170
v -0.066919 1.353472 0.260486
v -0.352965 1.220840 -0.005364
v -0.283012 1.289533 0.048114
v -0.143713 1.419282 0.497537
v -0.528615 1.462323 0.486810
v -0.483189 1.359410 0.158071
v -0.476180 1.354500 0.468724
v -0.192444 1.452589 0.435399
v -0.530846 1.295834 0.127323
v -0.101393 1.264143 0.077064
v -0.001348 1.269307 0.074562
v -0.112337 1.228183 -0.020809
v 0.002577 1.252265 0.087806
v -0.172164 1.353449 0.140064
v -0.102894 1.247937 -0.021424
v -0.393452 0.739175 -0.395440
v -0.393452 0.758678 0.391112
v 0.393452 0.758985 0.391131
v -0.393452 0.741813 -0.295740
v 0.393452 0.738631 -0.395735
v 0.350756 0.759029 0.391091
v -0.393452 0.480312 -0.391502
v 0.306528 0.486364 0.394654
v -0.393452 0.486744 0.394636
v 0.393452 0.485885 0.394715
v -0.393452 0.482907 -0.188626
v 0.393452 0.479779 -0.391530
vt 0.378055 0.327070
vt 0.378055 0.255321
vt 0.412325 0.255321
vt 0.372848 0.560781
vt 0.128949 0.712673
vt 0.128949 0.712673
vt 0.487199 0.373660
vt 0.460442 0.357693
vt 0.522874 0.357693
vt 0.461264 0.370281
vt 0.490994 0.390240
vt 0.461264 0.390240
vt 0.379033 0.550957
vt 0.623034 0.479370
vt 0.623230 0.550419
vt 0.420536 0.376487
vt 0.450265 0.329918
vt 0.450265 0.376487
vt 0.375000 0.750000
vt 0.125000 0.500000
vt 0.375000 0.500000
vt 0.522874 0.397610
vt 0.280287 0.650828
vt 0.310545 0.771859
vt 0.128998 0.771859
vt 0.435004 0.388581
vt 0.496651 0.429966
vt 0.435004 0.429966
vt 0.376860 0.774427
vt 0.622399 0.703300
vt 0.623140 0.774427
vt 0.464189 0.381871
vt 0.525836 0.423257
vt 0.464189 0.423257
vt 0.872756 0.556499
vt 0.628474 0.773348
vt 0.628474 0.555428
vt 0.487620 0.370773
vt 0.517350 0.390732
vt 0.517350 0.357468
vt 0.620876 0.779918
vt 0.595027 0.852960
vt 0.581874 0.779918
vt 0.487620 0.370773
vt 0.465323 0.357468
vt 0.517350 0.357468
vt 0.128949 0.773626
vt 0.479995 0.376487
vt 0.509725 0.329918
vt 0.509725 0.376487
vt 0.464189 0.354281
vt 0.525836 0.381871
vt 0.464189 0.381871
vt 0.435004 0.360990
vt 0.496651 0.388581
vt 0.435004 0.388581
vt 0.483209 0.350238
vt 0.518884 0.390155
vt 0.483209 0.390155
vt 0.128949 0.773626
vt 0.295416 0.650828
vt 0.690855 0.601580
vt 0.720955 0.561581
vt 0.645084 0.561581
vt 0.487802 0.532021
vt 0.499065 0.526215
vt 0.504886 0.531542
vt 0.504388 0.516216
vt 0.520723 0.370281
vt 0.550453 0.390240
vt 0.520723 0.390240
vt 0.421523 0.423015
vt 0.416672 0.425767
vt 0.419592 0.429095
vt 0.811873 0.749619
vt 0.755398 0.725109
vt 0.815036 0.748557
vt 0.445009 0.520630
vt 0.436903 0.521033
vt 0.436536 0.520630
vt 0.839447 0.640919
vt 0.830172 0.653014
vt 0.841826 0.650634
vt 0.811682 0.606523
vt 0.795713 0.604342
vt 0.797723 0.603667
vt 0.442535 0.523492
vt 0.443596 0.519667
vt 0.443352 0.527173
vt 0.657356 0.572062
vt 0.732970 0.640298
vt 0.802944 0.586634
vt 0.674484 0.586634
vt 0.645084 0.629494
vt 0.674484 0.701620
vt 0.690518 0.687267
vt 0.720955 0.561581
vt 0.504746 0.373660
vt 0.469071 0.397610
vt 0.469071 0.357693
vt 0.812791 0.598503
vt 0.819388 0.604343
vt 0.732209 0.745865
vt 0.436536 0.528214
vt 0.445009 0.528214
vt 0.849909 0.716775
vt 0.827775 0.660324
vt 0.850963 0.639568
vt 0.732209 0.639568
vt 0.792249 0.693992
vt 0.815608 0.718989
vt 0.848653 0.719529
vt 0.786910 0.600986
vt 0.621927 0.327070
vt 0.621927 0.255321
vt 0.838755 0.740427
vt 0.850585 0.740115
vt 0.645084 0.629494
vt 0.838749 0.744845
vt 0.837104 0.755825
vt 0.823001 0.597556
vt 0.819079 0.585226
vt 0.819877 0.583477
vt 0.434972 0.527113
vt 0.131195 0.589875
vt 0.130889 0.560781
vt 0.128949 0.712673
vt 0.371061 0.772907
vt 0.128949 0.712673
vt 0.379124 0.996513
vt 0.608179 0.926002
vt 0.620876 0.996513
vt 0.517350 0.390732
vt 0.460442 0.373660
vt 0.465323 0.357468
vt 0.465323 0.370773
vt 0.250029 0.650828
vt 0.128998 0.590312
vt 0.250029 0.590312
vt 0.531503 0.357693
vt 0.531503 0.373660
vt 0.465323 0.370773
vt 0.487712 0.529427
vt 0.500418 0.517318
vt 0.837009 0.753053
vt 0.486812 0.350984
vt 0.522488 0.390900
vt 0.486812 0.390900
vt 0.379124 0.926002
vt 0.376860 0.628545
vt 0.621631 0.629622
vt 0.447825 0.180996
vt 0.621927 0.180996
vt 0.620876 0.926002
vt 0.378297 0.480259
vt 0.622831 0.405771
vt 0.378055 0.180996
vt 0.483324 0.106672
vt 0.621927 0.106672
vt 0.379124 0.852960
vt 0.620876 0.852960
vt 0.377534 0.407023
vt 0.622628 0.332173
vt 0.376860 0.554318
vt 0.620863 0.555943
vt 0.378055 0.106672
vt 0.490994 0.370281
vt 0.420536 0.329918
vt 0.125000 0.750000
vt 0.487199 0.397610
vt 0.496651 0.388581
vt 0.376860 0.702771
vt 0.525836 0.381871
vt 0.872756 0.774419
vt 0.487620 0.390732
vt 0.128949 0.773626
vt 0.479995 0.329918
vt 0.525836 0.354281
vt 0.496651 0.360990
vt 0.518884 0.350238
vt 0.550453 0.370281
vt 0.417617 0.419461
vt 0.823369 0.646826
vt 0.811742 0.608285
vt 0.442230 0.514087
vt 0.504746 0.397610
vt 0.820307 0.598304
vt 0.854827 0.738937
vt 0.432052 0.523786
vt 0.487620 0.390732
vt 0.522488 0.350984
vt 0.379124 0.779918
vt 0.376770 0.333788
vn -1.0000 0.0000 0.0000
vn -0.0000 -1.0000 0.0058
vn 1.0000 -0.0000 0.0000
vn 0.0000 1.0000 0.0000
vn -0.0007 -0.0338 -0.9994
vn 0.0000 -1.0000 -0.0000
vn -0.0010 -0.9993 0.0374
vn -0.0005 -1.0000 0.0034
vn 0.0000 0.0000 1.0000
vn 0.0007 0.9995 -0.0324
vn 0.0003 -0.0008 1.0000
vn 0.0000 -0.0000 -1.0000
vn -0.0000 -1.0000 0.0028
vn 0.0368 -0.9811 0.1900
vn -0.0391 0.6371 -0.7698
vn 0.6201 0.7733 -0.1325
vn -0.9292 -0.2498 0.2723
vn -0.3310 0.1292 -0.9347
vn -0.0090 0.1119 0.9937
vn -0.1143 -0.2611 0.9585
vn -0.1800 0.0555 -0.9821
vn 0.9966 0.0618 -0.0549
vn 0.0016 0.7335 0.6797
vn 0.2243 -0.9561 0.1885
vn -0.7276 0.6577 -0.1952
vn -0.6734 0.6630 -0.3271
vn 0.3315 0.3148 0.8894
vn 0.3667 0.7968 -0.4802
vn -0.1442 0.6951 -0.7043
vn 0.0073 -0.0474 -0.9988
vn 0.5817 0.7819 -0.2242
vn 0.2581 0.9394 -0.2258
vn 0.0505 -0.9393 0.3395
vn 0.0556 -0.9437 0.3261
vn 0.3312 0.8980 -0.2897
vn -0.0475 0.8461 -0.5309
vn 0.5514 0.8341 0.0147
vn -0.0402 -0.9700 0.2397
vn -0.1327 0.9864 0.0969
vn -0.4308 0.8897 -0.1510
vn 0.2794 0.9121 -0.2999
vn 0.1454 -0.9865 0.0754
vn -0.2007 -0.8899 0.4097
vn 0.0980 0.8519 -0.5145
vn 0.9581 0.2771 0.0727
vn -0.1445 -0.9072 0.3952
vn -0.1370 -0.9521 0.2734
vn 0.1663 -0.9365 0.3088
vn 0.0372 0.0681 -0.9970
vn 0.0006 -1.0000 0.0047
vn -0.0003 -1.0000 0.0053
vn 0.0000 -1.0000 0.0049
vn -0.0018 -1.0000 0.0032
vn -0.8875 0.4434 -0.1254
vn -0.0135 -0.9999 0.0000
vn 0.0027 0.0346 0.9994
vn 0.0000 -1.0000 0.0039
vn -0.0029 -1.0000 0.0026
vn 0.0006 -1.0000 0.0000
vn 0.9978 0.0667 -0.0028
vn -0.9999 0.0141 -0.0005
vn -0.0162 0.8879 0.4597
vn 0.3663 0.0891 -0.9262
vn 0.8901 0.3024 -0.3410
vn -0.9415 -0.1451 -0.3042
vn 0.1220 0.9115 0.3929
vn -0.0213 0.8328 -0.5532
vn 0.3200 0.8939 -0.3138
vn -0.1918 -0.9141 0.3573
vn 0.0847 0.8710 -0.4839
vn 0.0000 0.0131 0.9999
vn -0.0009 0.0352 0.9994
vn -0.0004 -0.0152 -0.9999
vn -0.0000 -0.0008 1.0000
vn -0.0006 0.0132 0.9999
vn -0.0000 0.0002 -1.0000
vn -0.0004 -0.0348 -0.9994
vn 0.0030 -0.9991 0.0414
vn -0.0031 0.9996 -0.0287
vn -0.0007 -0.0011 1.0000
vn -0.0009 -1.0000 0.0028
vn -0.9325 -0.2646 0.2458
vn -0.0683 0.6552 -0.7523
vn -0.1896 0.0539 0.9804
vn -0.3830 -0.1474 0.9119
vn -0.1820 0.0858 -0.9796
vn 0.9947 0.1027 0.0096
vn -0.1587 0.3091 0.9377
vn 0.0589 -0.9829 0.1745
vn 0.2655 0.7722 -0.5773
vn -0.3072 0.5910 -0.7459
vn 0.0199 -0.0509 -0.9985
vn 0.9233 0.3445 0.1697
vn 0.2320 0.9083 -0.3482
vn -0.1529 -0.9340 0.3229
vn 0.0141 0.8553 -0.5179
vn 0.4985 0.8574 -0.1281
vn -0.0433 -0.8722 0.4873
vn 0.2466 0.9609 0.1261
vn -0.4676 0.7305 -0.4977
vn 0.1831 -0.9416 0.2826
vn 0.9088 0.4121 -0.0655
vn -0.1668 -0.9007 0.4011
vn 0.0076 0.0856 -0.9963
vn -0.9769 0.0311 0.2115
vn 0.0000 0.0267 0.9996
vn 0.9976 0.0481 -0.0496
vn -0.9615 -0.0438 0.2713
vn -0.0000 0.0130 0.9999
vn -0.0000 -0.0162 -0.9999
vn 0.0004 0.0003 1.0000
vn -0.0009 0.0131 0.9999
vn 0.0002 -0.0005 -1.0000
s off
f 4/1/1 75/2/1 78/3/1
f 7/4/2 18/5/2 17/6/2
f 25/7/3 29/8/3 20/9/3
f 34/10/4 24/11/4 23/12/4
f 8/13/5 75/14/5 4/15/5
f 28/16/6 21/17/6 27/18/6
f 39/19/7 37/20/7 41/21/7
f 16/22/3 25/7/3 20/9/3
f 12/23/8 9/24/8 1/25/8
f 23/26/9 12/27/9 10/28/9
f 6/29/3 79/30/3 8/31/3
f 26/32/9 11/33/9 13/34/9
f 4/35/10 6/36/10 8/37/10
f 26/38/1 18/39/1 22/40/1
f 5/41/11 82/42/11 9/43/11
f 24/44/3 27/45/3 21/46/3
f 18/5/6 12/47/6 17/6/6
f 30/48/6 20/49/6 29/50/6
f 30/51/9 31/52/9 32/53/9
f 28/54/9 33/55/9 34/56/9
f 21/57/12 15/58/12 17/59/12
f 11/60/13 9/24/13 13/61/13
f 66/62/14 47/63/14 51/64/14
f 45/65/15 40/66/15 46/67/15
f 40/66/16 43/68/16 46/67/16
f 32/69/4 25/70/4 26/71/4
f 53/72/17 45/73/17 54/74/17
f 71/75/18 62/76/18 74/77/18
f 35/78/19 53/79/19 37/80/19
f 43/81/20 53/82/20 56/83/20
f 42/84/21 71/85/21 74/86/21
f 46/87/22 56/88/22 55/89/22
f 47/63/23 49/90/23 51/64/23
f 47/63/24 58/91/24 63/92/24
f 64/93/25 50/94/25 49/90/25
f 68/95/26 50/94/26 65/96/26
f 63/92/27 48/97/27 47/63/27
f 23/98/1 15/99/1 19/100/1
f 38/101/28 40/102/28 42/84/28
f 61/103/29 65/96/29 62/76/29
f 41/104/30 55/89/30 39/105/30
f 72/106/31 60/107/31 57/108/31
f 59/109/32 60/107/32 73/110/32
f 69/111/33 61/103/33 71/75/33
f 58/91/34 61/103/34 69/111/34
f 73/110/35 60/107/35 70/112/35
f 62/76/36 59/109/36 73/110/36
f 57/108/37 67/113/37 63/92/37
f 57/108/38 58/91/38 69/111/38
f 59/109/39 48/97/39 67/113/39
f 50/94/40 59/109/40 65/96/40
f 2/114/1 78/3/1 76/115/1
f 38/116/41 70/112/41 36/117/41
f 58/91/42 52/118/42 68/95/42
f 44/119/43 71/75/43 45/120/43
f 38/116/44 74/77/44 73/110/44
f 43/121/45 70/122/45 72/123/45
f 44/119/46 72/106/46 69/111/46
f 69/111/47 72/106/47 57/108/47
f 66/62/48 51/64/48 52/118/48
f 54/124/49 46/87/49 55/89/49
f 14/125/50 3/126/50 15/127/50
f 3/126/51 7/4/51 17/6/51
f 15/127/52 3/126/52 17/6/52
f 7/4/53 5/128/53 11/60/53
f 49/90/54 52/118/54 51/64/54
f 11/60/55 16/129/55 7/4/55
f 2/130/56 80/131/56 6/132/56
f 7/4/2 16/129/2 18/5/2
f 17/133/3 24/44/3 21/46/3
f 25/7/3 31/134/3 29/8/3
f 22/40/1 30/135/1 26/38/1
f 30/135/1 32/136/1 26/38/1
f 10/137/57 12/23/57 1/25/57
f 12/23/13 13/61/13 9/24/13
f 1/25/58 14/138/58 10/137/58
f 14/138/59 15/139/59 10/137/59
f 19/100/1 28/140/1 23/98/1
f 28/140/1 34/141/1 23/98/1
f 55/89/60 35/78/60 39/105/60
f 24/44/3 33/142/3 27/45/3
f 53/79/61 41/104/61 37/80/61
f 64/93/62 49/90/62 48/97/62
f 45/65/63 42/143/63 40/66/63
f 40/66/64 36/144/64 43/68/64
f 68/95/65 52/118/65 50/94/65
f 63/92/66 67/113/66 48/97/66
f 73/110/67 74/77/67 62/76/67
f 38/116/68 73/110/68 70/112/68
f 44/119/69 69/111/69 71/75/69
f 38/116/70 42/145/70 74/77/70
f 20/146/12 18/147/12 16/148/12
f 76/149/71 82/42/71 80/131/71
f 79/30/3 84/150/3 86/151/3
f 76/115/1 85/152/1 83/153/1
f 80/131/72 77/154/72 6/132/72
f 79/155/73 81/156/73 75/14/73
f 78/3/1 81/157/1 85/152/1
f 83/153/1 14/158/1 1/159/1
f 83/160/74 9/43/74 82/42/74
f 84/161/75 80/131/75 82/42/75
f 86/162/76 3/163/76 81/156/76
f 86/151/3 5/164/3 7/165/3
f 85/152/1 3/166/1 14/158/1
f 34/10/4 33/167/4 24/11/4
f 8/13/77 79/155/77 75/14/77
f 28/16/6 19/168/6 21/17/6
f 39/19/78 35/169/78 37/20/78
f 16/22/3 11/170/3 25/7/3
f 23/26/9 24/171/9 12/27/9
f 6/29/3 77/172/3 79/30/3
f 26/32/9 25/173/9 11/33/9
f 4/35/79 2/174/79 6/36/79
f 26/38/1 13/175/1 18/39/1
f 5/41/80 84/161/80 82/42/80
f 18/5/6 13/176/6 12/47/6
f 30/48/6 22/177/6 20/49/6
f 30/51/9 29/178/9 31/52/9
f 28/54/9 27/179/9 33/55/9
f 21/57/12 19/180/12 15/58/12
f 11/60/81 5/128/81 9/24/81
f 32/69/4 31/181/4 25/70/4
f 53/72/82 44/182/82 45/73/82
f 71/75/83 61/103/83 62/76/83
f 35/78/84 56/88/84 53/79/84
f 43/81/85 44/183/85 53/82/85
f 42/84/86 45/184/86 71/85/86
f 46/87/87 43/185/87 56/88/87
f 47/63/88 48/97/88 49/90/88
f 47/63/89 66/62/89 58/91/89
f 23/98/1 10/186/1 15/99/1
f 38/101/90 36/187/90 40/102/90
f 61/103/91 68/95/91 65/96/91
f 41/104/92 54/124/92 55/89/92
f 72/106/93 70/112/93 60/107/93
f 59/109/94 67/113/94 60/107/94
f 58/91/95 68/95/95 61/103/95
f 62/76/96 65/96/96 59/109/96
f 57/108/97 60/107/97 67/113/97
f 57/108/98 63/92/98 58/91/98
f 59/109/99 64/93/99 48/97/99
f 50/94/100 64/93/100 59/109/100
f 2/114/1 4/1/1 78/3/1
f 58/91/101 66/62/101 52/118/101
f 43/121/102 36/187/102 70/122/102
f 44/119/103 43/188/103 72/106/103
f 54/124/104 45/189/104 46/87/104
f 49/90/105 50/94/105 52/118/105
f 2/130/106 76/149/106 80/131/106
f 17/133/3 12/190/3 24/44/3
f 55/89/107 56/88/107 35/78/107
f 53/79/108 54/124/108 41/104/108
f 20/146/12 22/191/12 18/147/12
f 76/149/109 83/160/109 82/42/109
f 79/30/3 77/172/3 84/150/3
f 76/115/1 78/3/1 85/152/1
f 79/155/110 86/162/110 81/156/110
f 78/3/1 75/2/1 81/157/1
f 83/153/1 85/152/1 14/158/1
f 83/160/111 1/192/111 9/43/111
f 84/161/112 77/154/112 80/131/112
f 86/162/113 7/193/113 3/163/113
f 86/151/3 84/150/3 5/164/3
f 85/152/1 81/157/1 3/166/1
