# Blender v3.2.1 OBJ File: 'Modeling.blend'
# www.blender.org
o Player_Cube.001
v -0.389668 0.221211 0.390694
v -0.358709 1.060855 0.303973
v -0.392204 0.214461 -0.379575
v -0.380975 0.923432 -0.470574
v 0.389042 0.217605 0.388766
v 0.420046 1.035011 0.266691
v 0.384023 0.212409 -0.382430
v 0.392561 0.880575 -0.490188
v 0.259577 0.214532 0.388849
v -0.260032 0.215348 0.084321
v 0.259862 0.214887 0.083949
v -0.087440 0.212552 0.084335
v 0.087178 0.212334 0.084140
v -0.389784 0.220460 -0.085091
v -0.259754 0.219182 -0.088272
v 0.259642 0.218682 -0.088461
v -0.087204 0.216518 -0.088251
v 0.086918 0.216160 -0.088258
v -0.259592 0.000084 -0.085050
v 0.260384 0.000529 -0.087518
v -0.087120 0.000007 -0.084807
v 0.087897 -0.000191 -0.087276
v -0.259921 0.086437 0.086937
v -0.087461 0.086196 0.087157
v 0.260307 0.086967 0.084454
v 0.087820 0.086231 0.084704
v -0.087380 0.000093 0.217041
v -0.259841 0.000072 0.216827
v 0.260618 0.001875 0.214797
v 0.088158 0.001223 0.214982
v 0.260291 0.088102 0.214186
v 0.087832 0.087450 0.214371
v -0.087391 0.086323 0.217147
v -0.259852 0.086302 0.216933
v 0.050554 0.980830 -0.097451
v 0.029885 1.214219 -0.126936
v 0.006577 0.981395 -0.096286
v -0.004852 1.225553 -0.132281
v 0.049164 0.971152 -0.140429
v 0.023947 1.190611 -0.150351
v 0.005179 0.971777 -0.139250
v -0.011922 1.198261 -0.165245
v 0.041251 1.188943 -0.112142
v -0.006984 1.188149 -0.131859
v -0.013309 1.169439 -0.163467
v 0.041291 1.171897 -0.164377
v -0.286731 1.411266 0.448901
v -0.290861 1.439049 0.438851
v -0.484233 1.443935 0.432664
v -0.547210 1.342901 0.272464
v -0.505840 1.393572 0.493471
v -0.543150 1.315088 0.282921
v 0.010338 1.110845 -0.130460
v -0.000695 1.107504 -0.165921
v 0.042608 1.099484 -0.165439
v 0.045554 1.117688 -0.125431
v 0.049472 1.361103 0.163590
v -0.296636 1.357315 0.186403
v -0.313098 1.459999 0.152772
v -0.026820 1.376270 0.087922
v -0.327313 1.206930 -0.127904
v -0.255842 1.280974 -0.089763
v -0.077176 1.462332 0.316210
v -0.448802 1.477784 0.360955
v -0.447117 1.358823 0.033936
v -0.395955 1.373081 0.337603
v -0.133597 1.486871 0.258911
v -0.494143 1.291410 0.015478
v -0.072267 1.252707 -0.064143
v 0.026413 1.252115 -0.069104
v -0.086864 1.200183 -0.152347
v 0.029580 1.237885 -0.052837
v -0.141067 1.356973 -0.017684
v -0.076542 1.218725 -0.156997
v -0.391485 0.687401 -0.415349
v -0.369927 0.807414 0.348865
v 0.403701 0.779151 0.330869
v -0.388441 0.702180 -0.320852
v 0.381744 0.654036 -0.428859
v 0.361614 0.780501 0.332109
v -0.392773 0.461091 -0.381025
v 0.303521 0.489869 0.383765
v -0.385085 0.498133 0.387936
v 0.389185 0.492442 0.381519
v -0.389539 0.467971 -0.189045
v 0.381048 0.451251 -0.384902
vt 0.378055 0.327070
vt 0.378055 0.255321
vt 0.412325 0.255321
vt 0.372848 0.560781
vt 0.128949 0.712673
vt 0.128949 0.712673
vt 0.487199 0.373660
vt 0.460442 0.357693
vt 0.522874 0.357693
vt 0.461264 0.370281
vt 0.490994 0.390240
vt 0.461264 0.390240
vt 0.378297 0.480259
vt 0.623230 0.550419
vt 0.379033 0.550957
vt 0.420536 0.376487
vt 0.450265 0.329918
vt 0.450265 0.376487
vt 0.375000 0.750000
vt 0.125000 0.500000
vt 0.375000 0.500000
vt 0.522874 0.397610
vt 0.280287 0.650828
vt 0.310545 0.771859
vt 0.128998 0.771859
vt 0.435004 0.388581
vt 0.496651 0.429966
vt 0.435004 0.429966
vt 0.376860 0.774427
vt 0.622399 0.703300
vt 0.623140 0.774427
vt 0.464189 0.423257
vt 0.525836 0.381871
vt 0.525836 0.423257
vt 0.872756 0.556499
vt 0.628474 0.773348
vt 0.628474 0.555428
vt 0.487620 0.370773
vt 0.517350 0.390732
vt 0.517350 0.357468
vt 0.620876 0.779918
vt 0.595027 0.852960
vt 0.581874 0.779918
vt 0.487620 0.370773
vt 0.465323 0.357468
vt 0.517350 0.357468
vt 0.128949 0.773626
vt 0.509725 0.376487
vt 0.479995 0.329918
vt 0.509725 0.329918
vt 0.464189 0.354281
vt 0.525836 0.381871
vt 0.464189 0.381871
vt 0.435004 0.388581
vt 0.496651 0.360990
vt 0.496651 0.388581
vt 0.483209 0.390155
vt 0.518884 0.350238
vt 0.518884 0.390155
vt 0.128949 0.773626
vt 0.295416 0.650828
vt 0.690855 0.601580
vt 0.720955 0.561581
vt 0.645084 0.561581
vt 0.487802 0.532021
vt 0.499065 0.526215
vt 0.504886 0.531542
vt 0.504388 0.516216
vt 0.520723 0.390240
vt 0.550453 0.370281
vt 0.550453 0.390240
vt 0.421523 0.423015
vt 0.416672 0.425767
vt 0.419592 0.429095
vt 0.811873 0.749619
vt 0.755398 0.725109
vt 0.815036 0.748557
vt 0.445009 0.520630
vt 0.436903 0.521033
vt 0.436536 0.520630
vt 0.839447 0.640919
vt 0.830172 0.653014
vt 0.841826 0.650634
vt 0.811682 0.606523
vt 0.795713 0.604342
vt 0.797723 0.603667
vt 0.442535 0.523492
vt 0.443596 0.519667
vt 0.443352 0.527173
vt 0.657356 0.572062
vt 0.732970 0.640298
vt 0.802944 0.586634
vt 0.674484 0.586634
vt 0.645084 0.629494
vt 0.674484 0.701620
vt 0.690518 0.687267
vt 0.720955 0.561581
vt 0.504746 0.373660
vt 0.469071 0.397610
vt 0.469071 0.357693
vt 0.812791 0.598503
vt 0.819388 0.604343
vt 0.732209 0.745865
vt 0.436536 0.528214
vt 0.445009 0.528214
vt 0.849909 0.716775
vt 0.827775 0.660324
vt 0.850963 0.639568
vt 0.732209 0.639568
vt 0.792249 0.693992
vt 0.815608 0.718989
vt 0.848653 0.719529
vt 0.786910 0.600986
vt 0.621927 0.327070
vt 0.621927 0.255321
vt 0.838755 0.740427
vt 0.850585 0.740115
vt 0.645084 0.629494
vt 0.838749 0.744845
vt 0.837104 0.755825
vt 0.823001 0.597556
vt 0.819079 0.585226
vt 0.819877 0.583477
vt 0.434972 0.527113
vt 0.131195 0.589875
vt 0.130889 0.560781
vt 0.128949 0.712673
vt 0.371061 0.772907
vt 0.128949 0.712673
vt 0.379124 0.996513
vt 0.608179 0.926002
vt 0.620876 0.996513
vt 0.517350 0.390732
vt 0.460442 0.373660
vt 0.465323 0.357468
vt 0.465323 0.370773
vt 0.250029 0.650828
vt 0.128998 0.590312
vt 0.250029 0.590312
vt 0.531503 0.357693
vt 0.531503 0.373660
vt 0.465323 0.370773
vt 0.487712 0.529427
vt 0.500418 0.517318
vt 0.837009 0.753053
vt 0.486812 0.350984
vt 0.522488 0.390900
vt 0.486812 0.390900
vt 0.379124 0.926002
vt 0.376860 0.702771
vt 0.621631 0.629622
vt 0.447825 0.180996
vt 0.621927 0.180996
vt 0.620876 0.926002
vt 0.622831 0.405771
vt 0.623034 0.479370
vt 0.378055 0.180996
vt 0.483324 0.106672
vt 0.621927 0.106672
vt 0.379124 0.852960
vt 0.620876 0.852960
vt 0.377534 0.407023
vt 0.622628 0.332173
vt 0.376860 0.554318
vt 0.620863 0.555943
vt 0.378055 0.106672
vt 0.490994 0.370281
vt 0.420536 0.329918
vt 0.125000 0.750000
vt 0.487199 0.397610
vt 0.496651 0.388581
vt 0.464189 0.381871
vt 0.872756 0.774419
vt 0.487620 0.390732
vt 0.128949 0.773626
vt 0.479995 0.376487
vt 0.525836 0.354281
vt 0.435004 0.360990
vt 0.483209 0.350238
vt 0.520723 0.370281
vt 0.417617 0.419461
vt 0.823369 0.646826
vt 0.811742 0.608285
vt 0.442230 0.514087
vt 0.504746 0.397610
vt 0.820307 0.598304
vt 0.854827 0.738937
vt 0.432052 0.523786
vt 0.487620 0.390732
vt 0.522488 0.350984
vt 0.376860 0.628545
vt 0.379124 0.779918
vt 0.376770 0.333788
vn -0.9984 0.0501 0.0243
vn -0.0021 -0.9999 0.0107
vn 1.0000 0.0025 -0.0008
vn 0.0014 1.0000 0.0010
vn -0.0388 -0.2594 -0.9650
vn 0.0001 -1.0000 0.0003
vn -0.0080 -0.9758 0.2187
vn 1.0000 0.0034 -0.0013
vn -0.0102 -0.9998 0.0182
vn 0.0002 0.0203 0.9998
vn 0.9982 -0.0545 -0.0251
vn 0.0011 0.0040 1.0000
vn 0.0491 0.9783 -0.2014
vn -1.0000 -0.0045 0.0018
vn 0.0002 0.0184 0.9998
vn 1.0000 0.0022 0.0009
vn -0.0021 -0.9998 -0.0222
vn 0.0042 -1.0000 0.0044
vn 0.0010 0.0071 1.0000
vn -0.0012 -0.0012 1.0000
vn -0.0001 -0.0147 -0.9999
vn 0.0148 -0.9999 -0.0011
vn 0.1217 -0.9694 0.2132
vn -0.0395 0.5756 -0.8168
vn 0.6128 0.7514 -0.2447
vn -0.0043 1.0000 -0.0087
vn -0.9297 -0.2016 0.3082
vn -0.3609 -0.0328 -0.9320
vn 0.0289 0.2544 0.9667
vn -0.1029 -0.1884 0.9767
vn -0.1714 -0.1488 -0.9739
vn 0.9964 0.0193 -0.0822
vn 0.0714 0.7556 0.6512
vn 0.3375 -0.9245 0.1773
vn -0.7761 0.6244 -0.0887
vn -0.7515 0.5996 -0.2753
vn 0.4338 0.3628 0.8247
vn -1.0000 -0.0008 -0.0015
vn 0.4038 0.6603 -0.6333
vn -0.2360 0.6153 -0.7522
vn -0.0290 -0.1926 -0.9808
vn 0.5764 0.6862 -0.4437
vn 0.1840 0.9123 -0.3658
vn 0.0275 -0.8609 0.5081
vn 0.0554 -0.9028 0.4265
vn 0.3383 0.7906 -0.5104
vn -0.1352 0.7817 -0.6089
vn 0.5105 0.8486 -0.1392
vn 0.0372 -0.9099 0.4132
vn -0.1975 0.9764 0.0869
vn -0.5041 0.8496 -0.1548
vn -0.9987 0.0478 0.0201
vn 0.3371 0.7966 -0.5018
vn 0.2149 -0.9686 0.1251
vn -0.2576 -0.8080 0.5299
vn 0.1568 0.7364 -0.6581
vn 0.9745 0.2244 0.0066
vn -0.1800 -0.7928 0.5823
vn -0.1788 -0.8479 0.4991
vn 0.2518 -0.9206 0.2985
vn 0.0139 0.0149 -0.9998
vn -0.0093 -0.9997 0.0204
vn -0.0026 -0.9999 0.0098
vn -0.0154 -0.9996 0.0232
vn 0.0052 -1.0000 0.0067
vn -0.9141 0.4053 0.0109
vn -0.1016 -0.9946 -0.0218
vn 0.0543 0.2369 0.9700
vn 0.0146 -0.9995 0.0275
vn 1.0000 0.0004 0.0018
vn 1.0000 0.0038 0.0001
vn -1.0000 -0.0026 0.0009
vn -1.0000 -0.0038 0.0001
vn -0.0162 -0.9998 0.0123
vn -0.0012 -1.0000 0.0079
vn -0.0414 -0.9991 0.0016
vn -0.0104 -0.9997 -0.0222
vn -1.0000 -0.0022 -0.0008
vn -1.0000 -0.0001 0.0005
vn 0.9982 0.0428 -0.0419
vn 1.0000 0.0001 -0.0005
vn -0.9991 0.0355 0.0246
vn 0.0090 0.9026 0.4305
vn 0.3687 -0.0749 -0.9265
vn 0.9004 0.1706 -0.4003
vn -0.9665 -0.2010 -0.1593
vn 0.0824 0.9429 0.3226
vn -0.0213 0.7047 -0.7092
vn 0.3424 0.7935 -0.5031
vn -0.2570 -0.8111 0.5255
vn 0.1530 0.7448 -0.6495
vn -0.0011 -0.0043 -1.0000
vn 0.0288 0.1693 0.9851
vn 0.9996 -0.0094 -0.0273
vn -0.9988 0.0496 0.0051
vn 0.0363 0.2410 0.9699
vn -0.0237 -0.1498 -0.9884
vn -0.9998 0.0139 0.0163
vn -0.9999 0.0166 0.0002
vn 0.0063 0.0175 0.9998
vn 0.0207 0.1709 0.9851
vn -0.0051 -0.0059 -1.0000
vn 0.9999 0.0124 -0.0066
vn -1.0000 0.0044 0.0081
vn -0.0001 1.0000 -0.0010
vn -0.0268 -0.2266 -0.9736
vn -0.0004 -1.0000 -0.0000
vn -0.0067 -0.9755 0.2199
vn 1.0000 0.0035 -0.0012
vn -0.0012 0.0223 0.9997
vn 0.9975 -0.0681 -0.0176
vn 0.0014 0.0045 1.0000
vn 0.0243 0.9842 -0.1753
vn -1.0000 -0.0051 0.0014
vn 0.0254 0.0263 0.9993
vn -0.0013 -0.9997 -0.0230
vn 0.0038 -1.0000 0.0047
vn 0.0014 -0.0159 -0.9999
vn 0.0237 -0.9997 -0.0011
vn -0.0038 0.9999 -0.0094
vn -0.9301 -0.2029 0.3062
vn -0.0727 0.5113 -0.8563
vn -0.1751 0.1911 0.9658
vn -0.3766 -0.0677 0.9239
vn -0.1707 -0.0525 -0.9839
vn 0.9977 0.0640 -0.0201
vn -0.0216 0.3372 0.9412
vn 0.1415 -0.9707 0.1942
vn -1.0000 -0.0009 -0.0016
vn 0.3144 0.6275 -0.7124
vn -0.4085 0.4949 -0.7669
vn -0.0250 -0.1938 -0.9807
vn 0.9491 0.3042 0.0813
vn 0.1479 0.8700 -0.4704
vn -0.0787 -0.8963 0.4365
vn -0.0660 0.7953 -0.6026
vn 0.4428 0.8533 -0.2754
vn 0.0471 -0.8140 0.5790
vn 0.2122 0.9757 0.0550
vn -0.5702 0.6991 -0.4314
vn -0.9987 0.0474 0.0203
vn 0.2644 -0.9258 0.2702
vn 0.9319 0.3265 -0.1580
vn -0.2294 -0.7724 0.5923
vn -0.0183 0.0359 -0.9992
vn -0.9310 0.0014 0.3651
vn 0.0289 0.1731 0.9845
vn 1.0000 -0.0001 0.0014
vn 0.9964 0.0196 -0.0823
vn -0.9552 0.0167 0.2956
vn -0.0014 -0.0045 -1.0000
vn 0.0075 0.1250 0.9921
vn 0.9986 -0.0519 -0.0078
vn -0.9995 0.0186 0.0247
vn -0.0076 -0.2118 -0.9773
vn -0.9995 0.0103 0.0306
vn -1.0000 0.0041 0.0075
vn 0.0029 0.0099 0.9999
vn 0.0345 0.1722 0.9845
vn -0.0037 -0.0104 -0.9999
vn 0.9999 -0.0008 -0.0106
vn -0.9999 -0.0022 0.0169
s off
f 4/1/1 75/2/1 78/3/1
f 7/4/2 18/5/2 17/6/2
f 25/7/3 29/8/3 20/9/3
f 34/10/4 24/11/4 23/12/4
f 79/13/5 4/14/5 8/15/5
f 28/16/6 21/17/6 27/18/6
f 39/19/7 37/20/7 41/21/7
f 16/22/8 25/7/8 20/9/8
f 12/23/9 9/24/9 1/25/9
f 23/26/10 12/27/10 10/28/10
f 6/29/11 79/30/11 8/31/11
f 13/32/12 25/33/12 11/34/12
f 4/35/13 6/36/13 8/37/13
f 26/38/14 18/39/14 22/40/14
f 5/41/15 82/42/15 9/43/15
f 24/44/16 27/45/16 21/46/16
f 13/47/17 17/6/17 18/5/17
f 29/48/18 22/49/18 20/50/18
f 30/51/19 31/52/19 32/53/19
f 34/54/20 27/55/20 33/56/20
f 17/57/21 19/58/21 15/59/21
f 11/60/22 9/24/22 13/61/22
f 66/62/23 47/63/23 51/64/23
f 45/65/24 40/66/24 46/67/24
f 40/66/25 43/68/25 46/67/25
f 26/69/26 31/70/26 25/71/26
f 53/72/27 45/73/27 54/74/27
f 71/75/28 62/76/28 74/77/28
f 35/78/29 53/79/29 37/80/29
f 43/81/30 53/82/30 56/83/30
f 42/84/31 71/85/31 74/86/31
f 46/87/32 56/88/32 55/89/32
f 47/63/33 49/90/33 51/64/33
f 47/63/34 58/91/34 63/92/34
f 64/93/35 50/94/35 49/90/35
f 68/95/36 50/94/36 65/96/36
f 63/92/37 48/97/37 47/63/37
f 23/98/38 15/99/38 19/100/38
f 38/101/39 40/102/39 42/84/39
f 61/103/40 65/96/40 62/76/40
f 41/104/41 55/89/41 39/105/41
f 72/106/42 60/107/42 57/108/42
f 59/109/43 60/107/43 73/110/43
f 69/111/44 61/103/44 71/75/44
f 58/91/45 61/103/45 69/111/45
f 73/110/46 60/107/46 70/112/46
f 62/76/47 59/109/47 73/110/47
f 57/108/48 67/113/48 63/92/48
f 57/108/49 58/91/49 69/111/49
f 59/109/50 48/97/50 67/113/50
f 50/94/51 59/109/51 65/96/51
f 2/114/52 78/3/52 76/115/52
f 38/116/53 70/112/53 36/117/53
f 58/91/54 52/118/54 68/95/54
f 44/119/55 71/75/55 45/120/55
f 38/116/56 74/77/56 73/110/56
f 43/121/57 70/122/57 72/123/57
f 44/119/58 72/106/58 69/111/58
f 69/111/59 72/106/59 57/108/59
f 66/62/60 51/64/60 52/118/60
f 54/124/61 46/87/61 55/89/61
f 14/125/62 3/126/62 15/127/62
f 3/126/63 7/4/63 17/6/63
f 15/127/64 3/126/64 17/6/64
f 7/4/65 5/128/65 11/60/65
f 49/90/66 52/118/66 51/64/66
f 11/60/67 16/129/67 7/4/67
f 2/130/68 80/131/68 6/132/68
f 7/4/69 16/129/69 18/5/69
f 17/133/70 24/44/70 21/46/70
f 25/7/71 31/134/71 29/8/71
f 22/40/72 30/135/72 26/38/72
f 30/135/73 32/136/73 26/38/73
f 10/137/74 12/23/74 1/25/74
f 12/23/75 13/61/75 9/24/75
f 1/25/76 14/138/76 10/137/76
f 14/138/77 15/139/77 10/137/77
f 19/100/78 28/140/78 23/98/78
f 28/140/79 34/141/79 23/98/79
f 55/89/80 35/78/80 39/105/80
f 24/44/81 33/142/81 27/45/81
f 53/79/82 41/104/82 37/80/82
f 64/93/83 49/90/83 48/97/83
f 45/65/84 42/143/84 40/66/84
f 40/66/85 36/144/85 43/68/85
f 68/95/86 52/118/86 50/94/86
f 63/92/87 67/113/87 48/97/87
f 73/110/88 74/77/88 62/76/88
f 38/116/89 73/110/89 70/112/89
f 44/119/90 69/111/90 71/75/90
f 38/116/91 42/145/91 74/77/91
f 20/146/92 18/147/92 16/148/92
f 76/149/93 82/42/93 80/131/93
f 77/150/94 86/151/94 79/30/94
f 76/115/95 85/152/95 83/153/95
f 80/131/96 77/154/96 6/132/96
f 79/13/97 81/155/97 75/156/97
f 78/3/98 81/157/98 85/152/98
f 83/153/99 14/158/99 1/159/99
f 83/160/100 9/43/100 82/42/100
f 84/161/101 80/131/101 82/42/101
f 86/162/102 3/163/102 81/155/102
f 86/151/103 5/164/103 7/165/103
f 85/152/104 3/166/104 14/158/104
f 34/10/105 33/167/105 24/11/105
f 79/13/106 75/156/106 4/14/106
f 28/16/107 19/168/107 21/17/107
f 39/19/108 35/169/108 37/20/108
f 16/22/109 11/170/109 25/7/109
f 23/26/110 24/171/110 12/27/110
f 6/29/111 77/150/111 79/30/111
f 13/32/112 26/172/112 25/33/112
f 4/35/113 2/173/113 6/36/113
f 26/38/114 13/174/114 18/39/114
f 5/41/115 84/161/115 82/42/115
f 13/47/116 12/175/116 17/6/116
f 29/48/117 30/176/117 22/49/117
f 30/51/19 29/177/19 31/52/19
f 34/54/20 28/178/20 27/55/20
f 17/57/118 21/179/118 19/58/118
f 11/60/119 5/128/119 9/24/119
f 26/69/120 32/180/120 31/70/120
f 53/72/121 44/181/121 45/73/121
f 71/75/122 61/103/122 62/76/122
f 35/78/123 56/88/123 53/79/123
f 43/81/124 44/182/124 53/82/124
f 42/84/125 45/183/125 71/85/125
f 46/87/126 43/184/126 56/88/126
f 47/63/127 48/97/127 49/90/127
f 47/63/128 66/62/128 58/91/128
f 23/98/129 10/185/129 15/99/129
f 38/101/130 36/186/130 40/102/130
f 61/103/131 68/95/131 65/96/131
f 41/104/132 54/124/132 55/89/132
f 72/106/133 70/112/133 60/107/133
f 59/109/134 67/113/134 60/107/134
f 58/91/135 68/95/135 61/103/135
f 62/76/136 65/96/136 59/109/136
f 57/108/137 60/107/137 67/113/137
f 57/108/138 63/92/138 58/91/138
f 59/109/139 64/93/139 48/97/139
f 50/94/140 64/93/140 59/109/140
f 2/114/141 4/1/141 78/3/141
f 58/91/142 66/62/142 52/118/142
f 43/121/143 36/186/143 70/122/143
f 44/119/144 43/187/144 72/106/144
f 54/124/145 45/188/145 46/87/145
f 49/90/146 50/94/146 52/118/146
f 2/130/147 76/149/147 80/131/147
f 17/133/148 12/189/148 24/44/148
f 55/89/149 56/88/149 35/78/149
f 53/79/150 54/124/150 41/104/150
f 20/146/151 22/190/151 18/147/151
f 76/149/152 83/160/152 82/42/152
f 77/150/153 84/191/153 86/151/153
f 76/115/154 78/3/154 85/152/154
f 79/13/155 86/162/155 81/155/155
f 78/3/156 75/2/156 81/157/156
f 83/153/157 85/152/157 14/158/157
f 83/160/158 1/192/158 9/43/158
f 84/161/159 77/154/159 80/131/159
f 86/162/160 7/193/160 3/163/160
f 86/151/161 84/191/161 5/164/161
f 85/152/162 81/157/162 3/166/162
