# Blender v3.2.1 OBJ File: 'Modeling.blend'
# www.blender.org
o Player_Cube.001
v -0.393452 0.216415 0.391724
v -0.393452 0.984579 0.418267
v -0.393452 0.222503 -0.395853
v -0.393452 1.028661 -0.361936
v 0.393452 0.216350 0.391984
v 0.393452 0.980077 0.423475
v 0.393452 0.222161 -0.395882
v 0.393452 1.029163 -0.361402
v 0.262301 0.216660 0.392041
v -0.262299 0.218579 0.087433
v 0.262301 0.218579 0.087433
v -0.087432 0.218579 0.087433
v 0.087434 0.218579 0.087433
v -0.393452 0.218976 -0.088330
v -0.262299 0.218579 -0.087435
v 0.262301 0.218579 -0.087435
v -0.087432 0.218579 -0.087435
v 0.087434 0.218579 -0.087435
v -0.262299 -0.000003 -0.087435
v 0.262301 -0.000003 -0.087435
v -0.087432 -0.000003 -0.087435
v 0.087434 -0.000003 -0.087435
v -0.262299 0.087430 0.087433
v -0.087432 0.087430 0.087433
v 0.262301 0.087430 0.087433
v 0.087434 0.087430 0.087433
v -0.087432 -0.000003 0.218583
v -0.262299 -0.000003 0.218583
v 0.262301 -0.000003 0.218583
v 0.087434 -0.000003 0.218583
v 0.262301 0.087430 0.218583
v 0.087434 0.087430 0.218583
v -0.087432 0.087430 0.218583
v -0.262299 0.087430 0.218583
v 0.032332 1.002251 0.058428
v 0.004454 1.240516 0.083819
v -0.012332 1.002146 0.058025
v -0.031568 1.250468 0.082233
v 0.032332 1.005294 0.013801
v 0.000338 1.224470 0.052500
v -0.012332 1.005362 0.013478
v -0.036629 1.234750 0.040266
v 0.017766 1.212300 0.089875
v -0.031011 1.214598 0.069781
v -0.035960 1.204226 0.033441
v 0.019284 1.208419 0.034713
v -0.370371 1.104389 0.629420
v -0.374227 1.133028 0.640118
v -0.568791 1.145152 0.618050
v -0.613004 1.181196 0.425872
v -0.595504 1.067107 0.627236
v -0.609245 1.152799 0.415318
v -0.010394 1.139818 0.057677
v -0.020576 1.142040 0.021334
v 0.023600 1.135491 0.021829
v 0.024885 1.147063 0.064891
v 0.001980 1.245861 0.420765
v -0.351822 1.237597 0.393058
v -0.367718 1.338509 0.435976
v -0.069248 1.295511 0.353872
v -0.350372 1.249535 0.056792
v -0.282845 1.296967 0.130154
v -0.145921 1.247227 0.589781
v -0.526565 1.217475 0.590820
v -0.488316 1.325762 0.259917
v -0.468030 1.151895 0.507300
v -0.197829 1.299597 0.549539
v -0.532335 1.279665 0.202754
v -0.101357 1.248225 0.155228
v -0.001222 1.256107 0.152893
v -0.112193 1.228746 0.052688
v 0.002932 1.237122 0.163399
v -0.174634 1.326898 0.239777
v -0.102936 1.248812 0.055025
v -0.393452 0.769276 -0.379991
v -0.393452 0.730591 0.404164
v 0.393452 0.729425 0.405014
v -0.393452 0.764354 -0.280193
v 0.393452 0.769355 -0.380235
v 0.350756 0.729505 0.404912
v -0.393452 0.492497 -0.393213
v 0.306528 0.478296 0.393257
v -0.393452 0.478579 0.392941
v 0.393452 0.477723 0.393708
v -0.393452 0.488720 -0.189278
v 0.393452 0.492059 -0.393660
vt 0.378055 0.327070
vt 0.378055 0.255321
vt 0.412325 0.255321
vt 0.372848 0.560781
vt 0.128949 0.712673
vt 0.128949 0.712673
vt 0.487199 0.373660
vt 0.460442 0.357693
vt 0.522874 0.357693
vt 0.461264 0.370281
vt 0.490994 0.390240
vt 0.461264 0.390240
vt 0.378297 0.480259
vt 0.623230 0.550419
vt 0.379033 0.550957
vt 0.420536 0.376487
vt 0.450265 0.329918
vt 0.450265 0.376487
vt 0.375000 0.750000
vt 0.125000 0.500000
vt 0.375000 0.500000
vt 0.522874 0.397610
vt 0.280287 0.650828
vt 0.310545 0.771859
vt 0.128998 0.771859
vt 0.435004 0.388581
vt 0.496651 0.429966
vt 0.435004 0.429966
vt 0.623140 0.774427
vt 0.376860 0.702771
vt 0.622399 0.703300
vt 0.464189 0.381871
vt 0.525836 0.423257
vt 0.464189 0.423257
vt 0.872756 0.774419
vt 0.628474 0.555428
vt 0.872756 0.556499
vt 0.487620 0.370773
vt 0.517350 0.390732
vt 0.517350 0.357468
vt 0.620876 0.779918
vt 0.595027 0.852960
vt 0.581874 0.779918
vt 0.487620 0.370773
vt 0.465323 0.357468
vt 0.517350 0.357468
vt 0.128949 0.773626
vt 0.479995 0.376487
vt 0.509725 0.329918
vt 0.509725 0.376487
vt 0.464189 0.354281
vt 0.525836 0.381871
vt 0.464189 0.381871
vt 0.435004 0.360990
vt 0.496651 0.388581
vt 0.435004 0.388581
vt 0.483209 0.350238
vt 0.518884 0.390155
vt 0.483209 0.390155
vt 0.128949 0.773626
vt 0.295416 0.650828
vt 0.690855 0.601580
vt 0.720955 0.561581
vt 0.645084 0.561581
vt 0.487802 0.532021
vt 0.499065 0.526215
vt 0.504886 0.531542
vt 0.504388 0.516216
vt 0.520723 0.370281
vt 0.550453 0.390240
vt 0.520723 0.390240
vt 0.421523 0.423015
vt 0.416672 0.425767
vt 0.419592 0.429095
vt 0.811873 0.749619
vt 0.755398 0.725109
vt 0.815036 0.748557
vt 0.445009 0.520630
vt 0.436903 0.521033
vt 0.436536 0.520630
vt 0.839447 0.640919
vt 0.830172 0.653014
vt 0.841826 0.650634
vt 0.811682 0.606523
vt 0.795713 0.604342
vt 0.797723 0.603667
vt 0.442535 0.523492
vt 0.443596 0.519667
vt 0.443352 0.527173
vt 0.657356 0.572062
vt 0.732970 0.640298
vt 0.802944 0.586634
vt 0.674484 0.586634
vt 0.645084 0.629494
vt 0.674484 0.701620
vt 0.690518 0.687267
vt 0.720955 0.561581
vt 0.504746 0.373660
vt 0.469071 0.397610
vt 0.469071 0.357693
vt 0.812791 0.598503
vt 0.819388 0.604343
vt 0.732209 0.745865
vt 0.436536 0.528214
vt 0.445009 0.528214
vt 0.849909 0.716775
vt 0.827775 0.660324
vt 0.850963 0.639568
vt 0.732209 0.639568
vt 0.792249 0.693992
vt 0.815608 0.718989
vt 0.848653 0.719529
vt 0.786910 0.600986
vt 0.621927 0.327070
vt 0.621927 0.255321
vt 0.838755 0.740427
vt 0.850585 0.740115
vt 0.645084 0.629494
vt 0.838749 0.744845
vt 0.837104 0.755825
vt 0.823001 0.597556
vt 0.819079 0.585226
vt 0.819877 0.583477
vt 0.434972 0.527113
vt 0.131195 0.589875
vt 0.130889 0.560781
vt 0.128949 0.712673
vt 0.371061 0.772907
vt 0.128949 0.712673
vt 0.379124 0.996513
vt 0.608179 0.926002
vt 0.620876 0.996513
vt 0.517350 0.390732
vt 0.460442 0.373660
vt 0.465323 0.357468
vt 0.465323 0.370773
vt 0.250029 0.650828
vt 0.128998 0.590312
vt 0.250029 0.590312
vt 0.531503 0.357693
vt 0.531503 0.373660
vt 0.465323 0.370773
vt 0.487712 0.529427
vt 0.500418 0.517318
vt 0.837009 0.753053
vt 0.486812 0.350984
vt 0.522488 0.390900
vt 0.486812 0.390900
vt 0.379124 0.926002
vt 0.376860 0.628545
vt 0.621631 0.629622
vt 0.447825 0.180996
vt 0.621927 0.180996
vt 0.620876 0.926002
vt 0.622831 0.405771
vt 0.623034 0.479370
vt 0.378055 0.180996
vt 0.483324 0.106672
vt 0.621927 0.106672
vt 0.379124 0.852960
vt 0.620876 0.852960
vt 0.377534 0.407023
vt 0.622628 0.332173
vt 0.620863 0.555943
vt 0.378055 0.106672
vt 0.490994 0.370281
vt 0.420536 0.329918
vt 0.125000 0.750000
vt 0.487199 0.397610
vt 0.496651 0.388581
vt 0.376860 0.774427
vt 0.525836 0.381871
vt 0.628474 0.773348
vt 0.487620 0.390732
vt 0.128949 0.773626
vt 0.479995 0.329918
vt 0.525836 0.354281
vt 0.496651 0.360990
vt 0.518884 0.350238
vt 0.550453 0.370281
vt 0.417617 0.419461
vt 0.823369 0.646826
vt 0.811742 0.608285
vt 0.442230 0.514087
vt 0.504746 0.397610
vt 0.820307 0.598304
vt 0.854827 0.738937
vt 0.432052 0.523786
vt 0.487620 0.390732
vt 0.522488 0.350984
vt 0.379124 0.779918
vt 0.376770 0.333788
vt 0.376860 0.554318
vn -1.0000 0.0000 0.0000
vn -0.0000 -0.9999 -0.0116
vn 1.0000 -0.0000 0.0000
vn 0.0000 1.0000 0.0000
vn 0.0006 0.0723 -0.9974
vn 0.0000 -1.0000 -0.0000
vn -0.0010 -0.9974 -0.0720
vn 0.0004 -1.0000 -0.0067
vn 0.0000 0.0000 1.0000
vn -0.0007 0.9984 0.0564
vn 0.0004 -0.0047 1.0000
vn 0.0000 -0.0000 -1.0000
vn -0.0000 -1.0000 -0.0063
vn 0.1494 -0.8753 -0.4600
vn -0.0388 0.7209 -0.6919
vn 0.6252 0.7796 -0.0376
vn -0.9294 -0.2773 0.2434
vn -0.3148 0.2518 -0.9152
vn -0.0090 0.0027 1.0000
vn -0.1137 -0.3661 0.9236
vn -0.1741 0.1928 -0.9657
vn 0.9966 0.0674 -0.0479
vn -0.0307 0.1272 0.9914
vn 0.4348 -0.7987 -0.4160
vn -0.7776 0.5610 0.2841
vn -0.7404 0.6715 0.0287
vn 0.3414 -0.2882 0.8946
vn 0.3596 0.8588 -0.3650
vn -0.1505 0.8876 -0.4353
vn 0.0073 0.0620 -0.9980
vn 0.5875 0.8088 -0.0253
vn 0.1715 0.9789 0.1109
vn -0.0820 -0.9775 0.1944
vn 0.0088 -0.9993 -0.0354
vn 0.3490 0.9349 -0.0652
vn -0.1064 0.9809 -0.1628
vn 0.4727 0.7815 0.4073
vn 0.0248 -0.9995 -0.0185
vn -0.2947 0.6782 0.6732
vn -0.5236 0.7971 0.3009
vn 0.2692 0.9440 -0.1909
vn 0.2491 -0.8686 -0.4283
vn -0.2241 -0.9287 0.2956
vn 0.1118 0.9302 -0.3498
vn 0.9582 0.2668 0.1033
vn -0.1230 -0.9538 0.2741
vn -0.1084 -0.9935 0.0333
vn 0.2400 -0.8945 -0.3773
vn 0.0371 0.1760 -0.9837
vn -0.0029 -0.9999 -0.0115
vn -0.0004 -0.9999 -0.0123
vn 0.0000 -0.9999 -0.0127
vn 0.0001 -1.0000 -0.0074
vn -0.9204 0.3381 0.1964
vn 0.0273 -0.9996 0.0000
vn -0.0070 -0.0727 0.9973
vn 0.0000 -1.0000 -0.0071
vn 0.0041 -1.0000 -0.0053
vn -0.0030 -1.0000 0.0000
vn 0.9978 0.0666 0.0045
vn -0.9999 0.0141 0.0010
vn -0.0796 0.3916 0.9167
vn 0.3595 0.2111 -0.9089
vn 0.8864 0.3542 -0.2980
vn -0.9406 0.0016 -0.3394
vn -0.0911 0.5485 0.8312
vn 0.1012 0.9299 -0.3537
vn 0.2843 0.9383 -0.1970
vn -0.2096 -0.9563 0.2038
vn 0.1160 0.9255 -0.3606
vn -0.0011 -0.0462 0.9989
vn -0.0025 -0.0735 0.9973
vn -0.0003 0.0477 -0.9989
vn -0.0005 -0.0046 1.0000
vn -0.0055 -0.0454 0.9990
vn -0.0006 0.0098 -1.0000
vn -0.0003 0.0694 -0.9976
vn 0.0030 -0.9977 -0.0680
vn 0.0053 0.9980 0.0624
vn -0.0052 -0.0066 1.0000
vn -0.0024 -1.0000 -0.0063
vn -0.9332 -0.2913 0.2103
vn 0.0608 0.8117 -0.5808
vn -0.1895 -0.0535 0.9804
vn -0.3789 -0.2487 0.8914
vn -0.1749 0.2112 -0.9617
vn 0.9947 0.1008 0.0203
vn -0.1273 -0.3621 0.9234
vn 0.1717 -0.8639 -0.4734
vn 0.2545 0.8467 -0.4672
vn -0.2495 0.8387 -0.4842
vn 0.0199 0.0586 -0.9981
vn 0.9109 0.3337 0.2429
vn 0.1658 0.9822 0.0885
vn -0.1910 -0.9809 -0.0356
vn 0.0653 0.9910 -0.1165
vn 0.3933 0.8875 0.2399
vn 0.0213 -0.9994 0.0267
vn 0.1569 0.6936 0.7031
vn -0.5401 0.8357 0.0992
vn 0.2553 -0.8800 -0.4005
vn 0.9059 0.4229 -0.0210
vn -0.1623 -0.9444 0.2861
vn 0.0079 0.1930 -0.9812
vn -0.9630 -0.1961 0.1848
vn -0.0011 -0.0554 0.9985
vn 0.9976 0.0533 -0.0441
vn -0.9615 -0.0732 0.2649
vn -0.0005 -0.0445 0.9990
vn -0.0005 0.0484 -0.9988
vn -0.0024 -0.0449 0.9990
vn -0.0000 0.0082 -1.0000
s off
f 4/1/1 75/2/1 78/3/1
f 7/4/2 18/5/2 17/6/2
f 25/7/3 29/8/3 20/9/3
f 34/10/4 24/11/4 23/12/4
f 79/13/5 4/14/5 8/15/5
f 28/16/6 21/17/6 27/18/6
f 39/19/7 37/20/7 41/21/7
f 16/22/3 25/7/3 20/9/3
f 12/23/8 9/24/8 1/25/8
f 23/26/9 12/27/9 10/28/9
f 8/29/3 77/30/3 79/31/3
f 26/32/9 11/33/9 13/34/9
f 2/35/10 8/36/10 4/37/10
f 26/38/1 18/39/1 22/40/1
f 5/41/11 82/42/11 9/43/11
f 24/44/3 27/45/3 21/46/3
f 18/5/6 12/47/6 17/6/6
f 30/48/6 20/49/6 29/50/6
f 30/51/9 31/52/9 32/53/9
f 28/54/9 33/55/9 34/56/9
f 21/57/12 15/58/12 17/59/12
f 11/60/13 9/24/13 13/61/13
f 66/62/14 47/63/14 51/64/14
f 45/65/15 40/66/15 46/67/15
f 40/66/16 43/68/16 46/67/16
f 32/69/4 25/70/4 26/71/4
f 53/72/17 45/73/17 54/74/17
f 71/75/18 62/76/18 74/77/18
f 35/78/19 53/79/19 37/80/19
f 43/81/20 53/82/20 56/83/20
f 42/84/21 71/85/21 74/86/21
f 46/87/22 56/88/22 55/89/22
f 47/63/23 49/90/23 51/64/23
f 47/63/24 58/91/24 63/92/24
f 64/93/25 50/94/25 49/90/25
f 68/95/26 50/94/26 65/96/26
f 63/92/27 48/97/27 47/63/27
f 23/98/1 15/99/1 19/100/1
f 38/101/28 40/102/28 42/84/28
f 61/103/29 65/96/29 62/76/29
f 41/104/30 55/89/30 39/105/30
f 72/106/31 60/107/31 57/108/31
f 59/109/32 60/107/32 73/110/32
f 69/111/33 61/103/33 71/75/33
f 58/91/34 61/103/34 69/111/34
f 73/110/35 60/107/35 70/112/35
f 62/76/36 59/109/36 73/110/36
f 57/108/37 67/113/37 63/92/37
f 57/108/38 58/91/38 69/111/38
f 59/109/39 48/97/39 67/113/39
f 50/94/40 59/109/40 65/96/40
f 2/114/1 78/3/1 76/115/1
f 38/116/41 70/112/41 36/117/41
f 58/91/42 52/118/42 68/95/42
f 44/119/43 71/75/43 45/120/43
f 38/116/44 74/77/44 73/110/44
f 43/121/45 70/122/45 72/123/45
f 44/119/46 72/106/46 69/111/46
f 69/111/47 72/106/47 57/108/47
f 66/62/48 51/64/48 52/118/48
f 54/124/49 46/87/49 55/89/49
f 14/125/50 3/126/50 15/127/50
f 3/126/51 7/4/51 17/6/51
f 15/127/52 3/126/52 17/6/52
f 7/4/53 5/128/53 11/60/53
f 49/90/54 52/118/54 51/64/54
f 11/60/55 16/129/55 7/4/55
f 2/130/56 80/131/56 6/132/56
f 7/4/2 16/129/2 18/5/2
f 17/133/3 24/44/3 21/46/3
f 25/7/3 31/134/3 29/8/3
f 22/40/1 30/135/1 26/38/1
f 30/135/1 32/136/1 26/38/1
f 10/137/57 12/23/57 1/25/57
f 12/23/13 13/61/13 9/24/13
f 1/25/58 14/138/58 10/137/58
f 14/138/59 15/139/59 10/137/59
f 19/100/1 28/140/1 23/98/1
f 28/140/1 34/141/1 23/98/1
f 55/89/60 35/78/60 39/105/60
f 24/44/3 33/142/3 27/45/3
f 53/79/61 41/104/61 37/80/61
f 64/93/62 49/90/62 48/97/62
f 45/65/63 42/143/63 40/66/63
f 40/66/64 36/144/64 43/68/64
f 68/95/65 52/118/65 50/94/65
f 63/92/66 67/113/66 48/97/66
f 73/110/67 74/77/67 62/76/67
f 38/116/68 73/110/68 70/112/68
f 44/119/69 69/111/69 71/75/69
f 38/116/70 42/145/70 74/77/70
f 20/146/12 18/147/12 16/148/12
f 76/149/71 82/42/71 80/131/71
f 79/31/3 84/150/3 86/151/3
f 76/115/1 85/152/1 83/153/1
f 80/131/72 77/154/72 6/132/72
f 79/13/73 81/155/73 75/156/73
f 78/3/1 81/157/1 85/152/1
f 83/153/1 14/158/1 1/159/1
f 83/160/74 9/43/74 82/42/74
f 84/161/75 80/131/75 82/42/75
f 86/162/76 3/163/76 81/155/76
f 84/150/3 7/164/3 86/151/3
f 85/152/1 3/165/1 14/158/1
f 34/10/4 33/166/4 24/11/4
f 79/13/77 75/156/77 4/14/77
f 28/16/6 19/167/6 21/17/6
f 39/19/78 35/168/78 37/20/78
f 16/22/3 11/169/3 25/7/3
f 23/26/9 24/170/9 12/27/9
f 8/29/3 6/171/3 77/30/3
f 26/32/9 25/172/9 11/33/9
f 2/35/79 6/173/79 8/36/79
f 26/38/1 13/174/1 18/39/1
f 5/41/80 84/161/80 82/42/80
f 18/5/6 13/175/6 12/47/6
f 30/48/6 22/176/6 20/49/6
f 30/51/9 29/177/9 31/52/9
f 28/54/9 27/178/9 33/55/9
f 21/57/12 19/179/12 15/58/12
f 11/60/81 5/128/81 9/24/81
f 32/69/4 31/180/4 25/70/4
f 53/72/82 44/181/82 45/73/82
f 71/75/83 61/103/83 62/76/83
f 35/78/84 56/88/84 53/79/84
f 43/81/85 44/182/85 53/82/85
f 42/84/86 45/183/86 71/85/86
f 46/87/87 43/184/87 56/88/87
f 47/63/88 48/97/88 49/90/88
f 47/63/89 66/62/89 58/91/89
f 23/98/1 10/185/1 15/99/1
f 38/101/90 36/186/90 40/102/90
f 61/103/91 68/95/91 65/96/91
f 41/104/92 54/124/92 55/89/92
f 72/106/93 70/112/93 60/107/93
f 59/109/94 67/113/94 60/107/94
f 58/91/95 68/95/95 61/103/95
f 62/76/96 65/96/96 59/109/96
f 57/108/97 60/107/97 67/113/97
f 57/108/98 63/92/98 58/91/98
f 59/109/99 64/93/99 48/97/99
f 50/94/100 64/93/100 59/109/100
f 2/114/1 4/1/1 78/3/1
f 58/91/101 66/62/101 52/118/101
f 43/121/102 36/186/102 70/122/102
f 44/119/103 43/187/103 72/106/103
f 54/124/104 45/188/104 46/87/104
f 49/90/105 50/94/105 52/118/105
f 2/130/106 76/149/106 80/131/106
f 17/133/3 12/189/3 24/44/3
f 55/89/107 56/88/107 35/78/107
f 53/79/108 54/124/108 41/104/108
f 20/146/12 22/190/12 18/147/12
f 76/149/109 83/160/109 82/42/109
f 79/31/3 77/30/3 84/150/3
f 76/115/1 78/3/1 85/152/1
f 79/13/110 86/162/110 81/155/110
f 78/3/1 75/2/1 81/157/1
f 83/153/1 85/152/1 14/158/1
f 83/160/74 1/191/74 9/43/74
f 84/161/111 77/154/111 80/131/111
f 86/162/112 7/192/112 3/163/112
f 84/150/3 5/193/3 7/164/3
f 85/152/1 81/157/1 3/165/1
