# Blender v3.2.1 OBJ File: 'Modeling.blend'
# www.blender.org
o Player_Cube.001
v -0.393452 0.218952 0.393857
v -0.393452 1.008738 0.390492
v -0.393452 0.218088 -0.392863
v -0.393452 1.001534 -0.396948
v 0.393452 0.218822 0.393758
v 0.393452 1.009498 0.389782
v 0.393452 0.218007 -0.392817
v 0.393452 1.001368 -0.397121
v 0.262301 0.218855 0.393768
v -0.262299 0.218579 0.087433
v 0.262301 0.218579 0.087433
v -0.087432 0.218579 0.087433
v 0.087434 0.218579 0.087433
v -0.393452 0.218552 -0.087249
v -0.262299 0.218579 -0.087435
v 0.262301 0.218579 -0.087435
v -0.087432 0.218579 -0.087435
v 0.087434 0.218579 -0.087435
v -0.262299 -0.000003 -0.087435
v 0.262301 -0.000003 -0.087435
v -0.087432 -0.000003 -0.087435
v 0.087434 -0.000003 -0.087435
v -0.262299 0.087430 0.087433
v -0.087432 0.087430 0.087433
v 0.262301 0.087430 0.087433
v 0.087434 0.087430 0.087433
v -0.087432 -0.000003 0.218583
v -0.262299 -0.000003 0.218583
v 0.262301 -0.000003 0.218583
v 0.087434 -0.000003 0.218583
v 0.262301 0.087430 0.218583
v 0.087434 0.087430 0.218583
v -0.087432 0.087430 0.218583
v -0.262299 0.087430 0.218583
v 0.032332 1.005253 0.018487
v 0.004776 1.245423 0.022556
v -0.012332 1.005115 0.018095
v -0.031063 1.255637 0.019409
v 0.032332 1.004541 -0.026238
v 0.000452 1.225880 -0.006313
v -0.012332 1.004581 -0.026565
v -0.036297 1.234861 -0.019976
v 0.017679 1.217999 0.032193
v -0.030994 1.218449 0.011702
v -0.035959 1.204166 -0.023269
v 0.019293 1.208482 -0.022390
v -0.386268 1.404240 0.613895
v -0.386615 1.431929 0.602701
v -0.579391 1.450793 0.558397
v -0.617439 1.344548 0.391543
v -0.615585 1.403467 0.616184
v -0.617106 1.316733 0.402874
v -0.010394 1.142271 0.006198
v -0.020576 1.141437 -0.030203
v 0.023600 1.134953 -0.029161
v 0.024883 1.150096 0.012787
v 0.004976 1.328131 0.356980
v -0.351639 1.342836 0.351715
v -0.355170 1.446338 0.312271
v -0.064965 1.354672 0.274154
v -0.353346 1.216403 0.014218
v -0.283213 1.285990 0.065556
v -0.140604 1.428474 0.511681
v -0.528427 1.480201 0.492876
v -0.480674 1.357975 0.174771
v -0.478066 1.370370 0.482706
v -0.189182 1.459783 0.448370
v -0.528977 1.293658 0.146676
v -0.101139 1.263845 0.091699
v -0.001103 1.268333 0.089277
v -0.112342 1.228706 -0.006398
v 0.002733 1.251162 0.102366
v -0.171856 1.352451 0.154040
v -0.102803 1.248357 -0.006822
v -0.393452 0.746088 -0.394195
v -0.393452 0.752315 0.392688
v 0.393452 0.752418 0.392688
v -0.393452 0.746928 -0.294542
v 0.393452 0.745923 -0.394284
v 0.350756 0.752430 0.392677
v -0.393452 0.482771 -0.392875
v 0.306528 0.484721 0.393827
v -0.393452 0.484834 0.393825
v 0.393452 0.484581 0.393842
v -0.393452 0.483589 -0.190039
v 0.393452 0.482612 -0.392880
vt 0.378055 0.327070
vt 0.378055 0.255321
vt 0.412325 0.255321
vt 0.372848 0.560781
vt 0.128949 0.712673
vt 0.128949 0.712673
vt 0.487199 0.373660
vt 0.460442 0.357693
vt 0.522874 0.357693
vt 0.461264 0.370281
vt 0.490994 0.390240
vt 0.461264 0.390240
vt 0.379033 0.550957
vt 0.623034 0.479370
vt 0.623230 0.550419
vt 0.420536 0.376487
vt 0.450265 0.329918
vt 0.450265 0.376487
vt 0.375000 0.750000
vt 0.125000 0.500000
vt 0.375000 0.500000
vt 0.522874 0.397610
vt 0.280287 0.650828
vt 0.310545 0.771859
vt 0.128998 0.771859
vt 0.435004 0.388581
vt 0.496651 0.429966
vt 0.435004 0.429966
vt 0.376860 0.774427
vt 0.622399 0.703300
vt 0.623140 0.774427
vt 0.464189 0.381871
vt 0.525836 0.423257
vt 0.464189 0.423257
vt 0.872756 0.556499
vt 0.628474 0.773348
vt 0.628474 0.555428
vt 0.487620 0.370773
vt 0.517350 0.390732
vt 0.517350 0.357468
vt 0.620876 0.779918
vt 0.595027 0.852960
vt 0.581874 0.779918
vt 0.487620 0.370773
vt 0.465323 0.357468
vt 0.517350 0.357468
vt 0.128949 0.773626
vt 0.479995 0.376487
vt 0.509725 0.329918
vt 0.509725 0.376487
vt 0.464189 0.354281
vt 0.525836 0.381871
vt 0.464189 0.381871
vt 0.435004 0.360990
vt 0.496651 0.388581
vt 0.435004 0.388581
vt 0.483209 0.350238
vt 0.518884 0.390155
vt 0.483209 0.390155
vt 0.128949 0.773626
vt 0.295416 0.650828
vt 0.690855 0.601580
vt 0.720955 0.561581
vt 0.645084 0.561581
vt 0.487802 0.532021
vt 0.499065 0.526215
vt 0.504886 0.531542
vt 0.504388 0.516216
vt 0.520723 0.370281
vt 0.550453 0.390240
vt 0.520723 0.390240
vt 0.421523 0.423015
vt 0.416672 0.425767
vt 0.419592 0.429095
vt 0.811873 0.749619
vt 0.755398 0.725109
vt 0.815036 0.748557
vt 0.445009 0.520630
vt 0.436903 0.521033
vt 0.436536 0.520630
vt 0.839447 0.640919
vt 0.830172 0.653014
vt 0.841826 0.650634
vt 0.811682 0.606523
vt 0.795713 0.604342
vt 0.797723 0.603667
vt 0.442535 0.523492
vt 0.443596 0.519667
vt 0.443352 0.527173
vt 0.657356 0.572062
vt 0.732970 0.640298
vt 0.802944 0.586634
vt 0.674484 0.586634
vt 0.645084 0.629494
vt 0.674484 0.701620
vt 0.690518 0.687267
vt 0.720955 0.561581
vt 0.504746 0.373660
vt 0.469071 0.397610
vt 0.469071 0.357693
vt 0.812791 0.598503
vt 0.819388 0.604343
vt 0.732209 0.745865
vt 0.436536 0.528214
vt 0.445009 0.528214
vt 0.849909 0.716775
vt 0.827775 0.660324
vt 0.850963 0.639568
vt 0.732209 0.639568
vt 0.792249 0.693992
vt 0.815608 0.718989
vt 0.848653 0.719529
vt 0.786910 0.600986
vt 0.621927 0.327070
vt 0.621927 0.255321
vt 0.838755 0.740427
vt 0.850585 0.740115
vt 0.645084 0.629494
vt 0.838749 0.744845
vt 0.837104 0.755825
vt 0.823001 0.597556
vt 0.819079 0.585226
vt 0.819877 0.583477
vt 0.434972 0.527113
vt 0.131195 0.589875
vt 0.130889 0.560781
vt 0.128949 0.712673
vt 0.371061 0.772907
vt 0.128949 0.712673
vt 0.379124 0.996513
vt 0.608179 0.926002
vt 0.620876 0.996513
vt 0.517350 0.390732
vt 0.460442 0.373660
vt 0.465323 0.357468
vt 0.465323 0.370773
vt 0.250029 0.650828
vt 0.128998 0.590312
vt 0.250029 0.590312
vt 0.531503 0.357693
vt 0.531503 0.373660
vt 0.465323 0.370773
vt 0.487712 0.529427
vt 0.500418 0.517318
vt 0.837009 0.753053
vt 0.486812 0.350984
vt 0.522488 0.390900
vt 0.486812 0.390900
vt 0.379124 0.926002
vt 0.376860 0.628545
vt 0.621631 0.629622
vt 0.447825 0.180996
vt 0.621927 0.180996
vt 0.620876 0.926002
vt 0.378297 0.480259
vt 0.622831 0.405771
vt 0.378055 0.180996
vt 0.483324 0.106672
vt 0.621927 0.106672
vt 0.379124 0.852960
vt 0.620876 0.852960
vt 0.377534 0.407023
vt 0.622628 0.332173
vt 0.376860 0.554318
vt 0.620863 0.555943
vt 0.378055 0.106672
vt 0.490994 0.370281
vt 0.420536 0.329918
vt 0.125000 0.750000
vt 0.487199 0.397610
vt 0.496651 0.388581
vt 0.376860 0.702771
vt 0.525836 0.381871
vt 0.872756 0.774419
vt 0.487620 0.390732
vt 0.128949 0.773626
vt 0.479995 0.329918
vt 0.525836 0.354281
vt 0.496651 0.360990
vt 0.518884 0.350238
vt 0.550453 0.370281
vt 0.417617 0.419461
vt 0.823369 0.646826
vt 0.811742 0.608285
vt 0.442230 0.514087
vt 0.504746 0.397610
vt 0.820307 0.598304
vt 0.854827 0.738937
vt 0.432052 0.523786
vt 0.487620 0.390732
vt 0.522488 0.350984
vt 0.379124 0.779918
vt 0.376770 0.333788
vn -1.0000 0.0000 0.0000
vn -0.0000 -1.0000 0.0019
vn 1.0000 -0.0000 0.0000
vn 0.0000 1.0000 0.0000
vn -0.0002 -0.0108 -0.9999
vn 0.0000 -1.0000 -0.0000
vn -0.0010 -0.9999 0.0119
vn -0.0001 -1.0000 0.0011
vn 0.0000 0.0000 1.0000
vn 0.0002 0.9999 -0.0103
vn 0.0001 -0.0002 1.0000
vn 0.0000 -0.0000 -1.0000
vn -0.0000 -1.0000 0.0009
vn 0.0057 -0.9692 0.2462
vn -0.0392 0.6550 -0.7547
vn 0.6178 0.7775 -0.1173
vn -0.9291 -0.2572 0.2658
vn -0.3420 0.1460 -0.9283
vn -0.0090 0.0865 0.9962
vn -0.1147 -0.2842 0.9519
vn -0.1806 0.0665 -0.9813
vn 0.9966 0.0633 -0.0533
vn 0.0037 0.7725 0.6350
vn 0.1968 -0.9485 0.2481
vn -0.7090 0.6569 -0.2566
vn -0.6561 0.6558 -0.3733
vn 0.3285 0.3575 0.8742
vn 0.3708 0.8002 -0.4714
vn -0.1492 0.6800 -0.7179
vn 0.0073 -0.0219 -0.9997
vn 0.5800 0.7783 -0.2404
vn 0.2616 0.9322 -0.2501
vn 0.0762 -0.9414 0.3285
vn 0.0683 -0.9344 0.3497
vn 0.3249 0.8950 -0.3057
vn -0.0542 0.8299 -0.5552
vn 0.5561 0.8310 -0.0157
vn -0.0436 -0.9668 0.2517
vn -0.1110 0.9931 0.0373
vn -0.4067 0.8911 -0.2014
vn 0.2858 0.9138 -0.2886
vn 0.1219 -0.9839 0.1306
vn -0.2009 -0.8966 0.3947
vn 0.0998 0.8544 -0.5100
vn 0.9593 0.2720 0.0758
vn -0.1507 -0.9107 0.3846
vn -0.1451 -0.9467 0.2875
vn 0.1403 -0.9175 0.3721
vn 0.0372 0.0938 -0.9949
vn 0.0002 -1.0000 0.0015
vn -0.0001 -1.0000 0.0017
vn 0.0000 -1.0000 0.0016
vn -0.0006 -1.0000 0.0010
vn -0.8742 0.4519 -0.1775
vn -0.0044 -1.0000 0.0000
vn 0.0009 0.0111 0.9999
vn 0.0000 -1.0000 0.0012
vn -0.0009 -1.0000 0.0008
vn 0.0002 -1.0000 0.0000
vn 0.9978 0.0668 -0.0011
vn -0.9999 0.0141 -0.0002
vn -0.0041 0.9135 0.4068
vn 0.3687 0.1032 -0.9238
vn 0.8919 0.3011 -0.3374
vn -0.9403 -0.1380 -0.3110
vn 0.1421 0.9263 0.3490
vn -0.0510 0.8283 -0.5579
vn 0.3263 0.8955 -0.3027
vn -0.1935 -0.9164 0.3504
vn 0.0842 0.8767 -0.4736
vn 0.0000 0.0043 1.0000
vn -0.0003 0.0113 0.9999
vn -0.0001 -0.0050 -1.0000
vn -0.0000 -0.0002 1.0000
vn -0.0002 0.0043 1.0000
vn -0.0001 -0.0111 -0.9999
vn 0.0030 -0.9999 0.0159
vn -0.0010 1.0000 -0.0091
vn -0.0002 -0.0003 1.0000
vn -0.0003 -1.0000 0.0009
vn -0.9320 -0.2695 0.2424
vn -0.0976 0.6527 -0.7513
vn -0.1897 0.0289 0.9814
vn -0.3837 -0.1694 0.9078
vn -0.1829 0.1029 -0.9777
vn 0.9947 0.1022 0.0116
vn -0.1741 0.3672 0.9137
vn 0.0280 -0.9724 0.2315
vn 0.2714 0.7777 -0.5671
vn -0.3196 0.5705 -0.7565
vn 0.0199 -0.0254 -0.9995
vn 0.9283 0.3332 0.1651
vn 0.2342 0.8972 -0.3743
vn -0.1452 -0.9263 0.3477
vn 0.0051 0.8391 -0.5439
vn 0.5041 0.8499 -0.1533
vn -0.0429 -0.8562 0.5149
vn 0.2676 0.9605 0.0766
vn -0.4414 0.7046 -0.5556
vn 0.1577 -0.9247 0.3466
vn 0.9112 0.4077 -0.0597
vn -0.1728 -0.9042 0.3905
vn 0.0071 0.1116 -0.9937
vn -0.9810 0.0630 0.1836
vn 0.0000 0.0086 1.0000
vn 0.9976 0.0494 -0.0484
vn -0.9615 -0.0507 0.2701
vn -0.0000 0.0042 1.0000
vn -0.0000 -0.0053 -1.0000
vn 0.0001 0.0001 1.0000
vn -0.0003 0.0043 1.0000
vn 0.0001 -0.0002 -1.0000
s off
f 4/1/1 75/2/1 78/3/1
f 7/4/2 18/5/2 17/6/2
f 25/7/3 29/8/3 20/9/3
f 34/10/4 24/11/4 23/12/4
f 8/13/5 75/14/5 4/15/5
f 28/16/6 21/17/6 27/18/6
f 39/19/7 37/20/7 41/21/7
f 16/22/3 25/7/3 20/9/3
f 12/23/8 9/24/8 1/25/8
f 23/26/9 12/27/9 10/28/9
f 6/29/3 79/30/3 8/31/3
f 26/32/9 11/33/9 13/34/9
f 4/35/10 6/36/10 8/37/10
f 26/38/1 18/39/1 22/40/1
f 5/41/11 82/42/11 9/43/11
f 24/44/3 27/45/3 21/46/3
f 18/5/6 12/47/6 17/6/6
f 30/48/6 20/49/6 29/50/6
f 30/51/9 31/52/9 32/53/9
f 28/54/9 33/55/9 34/56/9
f 21/57/12 15/58/12 17/59/12
f 11/60/13 9/24/13 13/61/13
f 66/62/14 47/63/14 51/64/14
f 45/65/15 40/66/15 46/67/15
f 40/66/16 43/68/16 46/67/16
f 32/69/4 25/70/4 26/71/4
f 53/72/17 45/73/17 54/74/17
f 71/75/18 62/76/18 74/77/18
f 35/78/19 53/79/19 37/80/19
f 43/81/20 53/82/20 56/83/20
f 42/84/21 71/85/21 74/86/21
f 46/87/22 56/88/22 55/89/22
f 47/63/23 49/90/23 51/64/23
f 47/63/24 58/91/24 63/92/24
f 64/93/25 50/94/25 49/90/25
f 68/95/26 50/94/26 65/96/26
f 63/92/27 48/97/27 47/63/27
f 23/98/1 15/99/1 19/100/1
f 38/101/28 40/102/28 42/84/28
f 61/103/29 65/96/29 62/76/29
f 41/104/30 55/89/30 39/105/30
f 72/106/31 60/107/31 57/108/31
f 59/109/32 60/107/32 73/110/32
f 69/111/33 61/103/33 71/75/33
f 58/91/34 61/103/34 69/111/34
f 73/110/35 60/107/35 70/112/35
f 62/76/36 59/109/36 73/110/36
f 57/108/37 67/113/37 63/92/37
f 57/108/38 58/91/38 69/111/38
f 59/109/39 48/97/39 67/113/39
f 50/94/40 59/109/40 65/96/40
f 2/114/1 78/3/1 76/115/1
f 38/116/41 70/112/41 36/117/41
f 58/91/42 52/118/42 68/95/42
f 44/119/43 71/75/43 45/120/43
f 38/116/44 74/77/44 73/110/44
f 43/121/45 70/122/45 72/123/45
f 44/119/46 72/106/46 69/111/46
f 69/111/47 72/106/47 57/108/47
f 66/62/48 51/64/48 52/118/48
f 54/124/49 46/87/49 55/89/49
f 14/125/50 3/126/50 15/127/50
f 3/126/51 7/4/51 17/6/51
f 15/127/52 3/126/52 17/6/52
f 7/4/53 5/128/53 11/60/53
f 49/90/54 52/118/54 51/64/54
f 11/60/55 16/129/55 7/4/55
f 2/130/56 80/131/56 6/132/56
f 7/4/2 16/129/2 18/5/2
f 17/133/3 24/44/3 21/46/3
f 25/7/3 31/134/3 29/8/3
f 22/40/1 30/135/1 26/38/1
f 30/135/1 32/136/1 26/38/1
f 10/137/57 12/23/57 1/25/57
f 12/23/13 13/61/13 9/24/13
f 1/25/58 14/138/58 10/137/58
f 14/138/59 15/139/59 10/137/59
f 19/100/1 28/140/1 23/98/1
f 28/140/1 34/141/1 23/98/1
f 55/89/60 35/78/60 39/105/60
f 24/44/3 33/142/3 27/45/3
f 53/79/61 41/104/61 37/80/61
f 64/93/62 49/90/62 48/97/62
f 45/65/63 42/143/63 40/66/63
f 40/66/64 36/144/64 43/68/64
f 68/95/65 52/118/65 50/94/65
f 63/92/66 67/113/66 48/97/66
f 73/110/67 74/77/67 62/76/67
f 38/116/68 73/110/68 70/112/68
f 44/119/69 69/111/69 71/75/69
f 38/116/70 42/145/70 74/77/70
f 20/146/12 18/147/12 16/148/12
f 76/149/71 82/42/71 80/131/71
f 79/30/3 84/150/3 86/151/3
f 76/115/1 85/152/1 83/153/1
f 80/131/72 77/154/72 6/132/72
f 79/155/73 81/156/73 75/14/73
f 78/3/1 81/157/1 85/152/1
f 83/153/1 14/158/1 1/159/1
f 83/160/74 9/43/74 82/42/74
f 84/161/75 80/131/75 82/42/75
f 86/162/12 3/163/12 81/156/12
f 86/151/3 5/164/3 7/165/3
f 85/152/1 3/166/1 14/158/1
f 34/10/4 33/167/4 24/11/4
f 8/13/76 79/155/76 75/14/76
f 28/16/6 19/168/6 21/17/6
f 39/19/77 35/169/77 37/20/77
f 16/22/3 11/170/3 25/7/3
f 23/26/9 24/171/9 12/27/9
f 6/29/3 77/172/3 79/30/3
f 26/32/9 25/173/9 11/33/9
f 4/35/78 2/174/78 6/36/78
f 26/38/1 13/175/1 18/39/1
f 5/41/79 84/161/79 82/42/79
f 18/5/6 13/176/6 12/47/6
f 30/48/6 22/177/6 20/49/6
f 30/51/9 29/178/9 31/52/9
f 28/54/9 27/179/9 33/55/9
f 21/57/12 19/180/12 15/58/12
f 11/60/80 5/128/80 9/24/80
f 32/69/4 31/181/4 25/70/4
f 53/72/81 44/182/81 45/73/81
f 71/75/82 61/103/82 62/76/82
f 35/78/83 56/88/83 53/79/83
f 43/81/84 44/183/84 53/82/84
f 42/84/85 45/184/85 71/85/85
f 46/87/86 43/185/86 56/88/86
f 47/63/87 48/97/87 49/90/87
f 47/63/88 66/62/88 58/91/88
f 23/98/1 10/186/1 15/99/1
f 38/101/89 36/187/89 40/102/89
f 61/103/90 68/95/90 65/96/90
f 41/104/91 54/124/91 55/89/91
f 72/106/92 70/112/92 60/107/92
f 59/109/93 67/113/93 60/107/93
f 58/91/94 68/95/94 61/103/94
f 62/76/95 65/96/95 59/109/95
f 57/108/96 60/107/96 67/113/96
f 57/108/97 63/92/97 58/91/97
f 59/109/98 64/93/98 48/97/98
f 50/94/99 64/93/99 59/109/99
f 2/114/1 4/1/1 78/3/1
f 58/91/100 66/62/100 52/118/100
f 43/121/101 36/187/101 70/122/101
f 44/119/102 43/188/102 72/106/102
f 54/124/103 45/189/103 46/87/103
f 49/90/104 50/94/104 52/118/104
f 2/130/105 76/149/105 80/131/105
f 17/133/3 12/190/3 24/44/3
f 55/89/106 56/88/106 35/78/106
f 53/79/107 54/124/107 41/104/107
f 20/146/12 22/191/12 18/147/12
f 76/149/108 83/160/108 82/42/108
f 79/30/3 77/172/3 84/150/3
f 76/115/1 78/3/1 85/152/1
f 79/155/109 86/162/109 81/156/109
f 78/3/1 75/2/1 81/157/1
f 83/153/1 85/152/1 14/158/1
f 83/160/110 1/192/110 9/43/110
f 84/161/111 77/154/111 80/131/111
f 86/162/112 7/193/112 3/163/112
f 86/151/3 84/150/3 5/164/3
f 85/152/1 81/157/1 3/166/1
