# Blender v3.2.1 OBJ File: 'Modeling.blend'
# www.blender.org
o Player_Cube.001
v -0.391714 0.221617 0.393344
v -0.375093 1.048119 0.331145
v -0.393131 0.213821 -0.384851
v -0.386795 0.948686 -0.453289
v 0.391312 0.219818 0.392092
v 0.408541 1.036855 0.307000
v 0.388671 0.212877 -0.386550
v 0.393974 0.925495 -0.465250
v 0.260967 0.218073 0.392119
v -0.261221 0.217012 0.085916
v 0.261137 0.216789 0.085739
v -0.087443 0.215658 0.085941
v 0.087317 0.215552 0.085848
v -0.391768 0.219260 -0.085638
v -0.261085 0.218872 -0.087868
v 0.261029 0.218630 -0.087957
v -0.087328 0.217582 -0.087841
v 0.087190 0.217408 -0.087843
v -0.260995 0.000025 -0.086302
v 0.261381 0.000242 -0.087495
v -0.087281 -0.000012 -0.086170
v 0.087659 -0.000106 -0.087365
v -0.261169 0.086936 0.087179
v -0.087460 0.086821 0.087301
v 0.261356 0.087196 0.085979
v 0.087635 0.086840 0.086113
v -0.087433 0.000027 0.217841
v -0.261141 0.000016 0.217723
v 0.261517 0.000894 0.216744
v 0.087809 0.000579 0.216846
v 0.261359 0.087747 0.216448
v 0.087651 0.087432 0.216550
v -0.087438 0.086881 0.217894
v -0.261147 0.086870 0.217775
v 0.042675 0.994290 -0.063406
v 0.019153 1.231486 -0.088445
v -0.001664 0.994548 -0.062948
v -0.016014 1.242271 -0.093898
v 0.041918 0.987014 -0.107216
v 0.013859 1.207828 -0.112509
v -0.002424 0.987394 -0.106728
v -0.022296 1.215081 -0.127689
v 0.030981 1.206049 -0.073819
v -0.017410 1.204562 -0.094093
v -0.023120 1.185753 -0.126149
v 0.031832 1.189172 -0.126492
v -0.319823 1.390422 0.491234
v -0.323442 1.419376 0.483473
v -0.518306 1.424760 0.468962
v -0.574150 1.338939 0.297053
v -0.543004 1.368645 0.524091
v -0.570617 1.310113 0.304990
v 0.001440 1.127192 -0.092326
v -0.009244 1.123468 -0.128139
v 0.034509 1.116200 -0.127160
v 0.036725 1.134754 -0.086935
v 0.032446 1.371976 0.209570
v -0.318330 1.359945 0.222692
v -0.333077 1.466203 0.197978
v -0.043383 1.388719 0.132167
v -0.339170 1.220710 -0.096248
v -0.269286 1.294648 -0.053952
v -0.100878 1.461763 0.366789
v -0.479235 1.465253 0.401980
v -0.464581 1.369151 0.067367
v -0.425248 1.362110 0.371072
v -0.156509 1.488566 0.309244
v -0.510701 1.301614 0.044101
v -0.085002 1.267157 -0.025413
v 0.014457 1.268682 -0.029545
v -0.097857 1.215546 -0.115281
v 0.017789 1.254132 -0.013378
v -0.156615 1.370230 0.023035
v -0.087785 1.234522 -0.119566
v -0.392672 0.704968 -0.413377
v -0.381289 0.791974 0.363395
v 0.399495 0.777576 0.352266
v -0.391064 0.715772 -0.316593
v 0.387867 0.687115 -0.421416
v 0.357080 0.778245 0.353052
v -0.393469 0.466773 -0.387411
v 0.305191 0.491004 0.388325
v -0.389393 0.495107 0.391015
v 0.391511 0.492773 0.386806
v -0.391746 0.472743 -0.191003
v 0.387201 0.461808 -0.389598
vt 0.378055 0.327070
vt 0.378055 0.255321
vt 0.412325 0.255321
vt 0.372848 0.560781
vt 0.128949 0.712673
vt 0.128949 0.712673
vt 0.487199 0.373660
vt 0.460442 0.357693
vt 0.522874 0.357693
vt 0.461264 0.370281
vt 0.490994 0.390240
vt 0.461264 0.390240
vt 0.378297 0.480259
vt 0.623230 0.550419
vt 0.379033 0.550957
vt 0.420536 0.376487
vt 0.450265 0.329918
vt 0.450265 0.376487
vt 0.375000 0.750000
vt 0.125000 0.500000
vt 0.375000 0.500000
vt 0.522874 0.397610
vt 0.280287 0.650828
vt 0.310545 0.771859
vt 0.128998 0.771859
vt 0.435004 0.388581
vt 0.496651 0.429966
vt 0.435004 0.429966
vt 0.376860 0.774427
vt 0.622399 0.703300
vt 0.623140 0.774427
vt 0.464189 0.423257
vt 0.525836 0.381871
vt 0.525836 0.423257
vt 0.872756 0.556499
vt 0.628474 0.773348
vt 0.628474 0.555428
vt 0.487620 0.370773
vt 0.517350 0.390732
vt 0.517350 0.357468
vt 0.620876 0.779918
vt 0.595027 0.852960
vt 0.581874 0.779918
vt 0.487620 0.370773
vt 0.465323 0.357468
vt 0.517350 0.357468
vt 0.128949 0.773626
vt 0.509725 0.376487
vt 0.479995 0.329918
vt 0.509725 0.329918
vt 0.464189 0.381871
vt 0.525836 0.354281
vt 0.525836 0.381871
vt 0.435004 0.360990
vt 0.496651 0.388581
vt 0.435004 0.388581
vt 0.483209 0.390155
vt 0.518884 0.350238
vt 0.518884 0.390155
vt 0.128949 0.773626
vt 0.295416 0.650828
vt 0.690855 0.601580
vt 0.720955 0.561581
vt 0.645084 0.561581
vt 0.487802 0.532021
vt 0.499065 0.526215
vt 0.504886 0.531542
vt 0.504388 0.516216
vt 0.520723 0.390240
vt 0.550453 0.370281
vt 0.550453 0.390240
vt 0.421523 0.423015
vt 0.416672 0.425767
vt 0.419592 0.429095
vt 0.811873 0.749619
vt 0.755398 0.725109
vt 0.815036 0.748557
vt 0.445009 0.520630
vt 0.436903 0.521033
vt 0.436536 0.520630
vt 0.839447 0.640919
vt 0.830172 0.653014
vt 0.841826 0.650634
vt 0.811682 0.606523
vt 0.795713 0.604342
vt 0.797723 0.603667
vt 0.442535 0.523492
vt 0.443596 0.519667
vt 0.443352 0.527173
vt 0.657356 0.572062
vt 0.732970 0.640298
vt 0.802944 0.586634
vt 0.674484 0.586634
vt 0.645084 0.629494
vt 0.674484 0.701620
vt 0.690518 0.687267
vt 0.720955 0.561581
vt 0.504746 0.373660
vt 0.469071 0.397610
vt 0.469071 0.357693
vt 0.812791 0.598503
vt 0.819388 0.604343
vt 0.732209 0.745865
vt 0.436536 0.528214
vt 0.445009 0.528214
vt 0.849909 0.716775
vt 0.827775 0.660324
vt 0.850963 0.639568
vt 0.732209 0.639568
vt 0.792249 0.693992
vt 0.815608 0.718989
vt 0.848653 0.719529
vt 0.786910 0.600986
vt 0.621927 0.327070
vt 0.621927 0.255321
vt 0.838755 0.740427
vt 0.850585 0.740115
vt 0.645084 0.629494
vt 0.838749 0.744845
vt 0.837104 0.755825
vt 0.823001 0.597556
vt 0.819079 0.585226
vt 0.819877 0.583477
vt 0.434972 0.527113
vt 0.131195 0.589875
vt 0.130889 0.560781
vt 0.128949 0.712673
vt 0.371061 0.772907
vt 0.128949 0.712673
vt 0.379124 0.996513
vt 0.608179 0.926002
vt 0.620876 0.996513
vt 0.517350 0.390732
vt 0.460442 0.373660
vt 0.465323 0.357468
vt 0.465323 0.370773
vt 0.250029 0.650828
vt 0.128998 0.590312
vt 0.250029 0.590312
vt 0.531503 0.357693
vt 0.531503 0.373660
vt 0.465323 0.370773
vt 0.487712 0.529427
vt 0.500418 0.517318
vt 0.837009 0.753053
vt 0.486812 0.350984
vt 0.522488 0.390900
vt 0.486812 0.390900
vt 0.379124 0.926002
vt 0.376860 0.702771
vt 0.621631 0.629622
vt 0.447825 0.180996
vt 0.621927 0.180996
vt 0.620876 0.926002
vt 0.622831 0.405771
vt 0.623034 0.479370
vt 0.378055 0.180996
vt 0.483324 0.106672
vt 0.621927 0.106672
vt 0.379124 0.852960
vt 0.620876 0.852960
vt 0.377534 0.407023
vt 0.622628 0.332173
vt 0.376860 0.554318
vt 0.620863 0.555943
vt 0.378055 0.106672
vt 0.490994 0.370281
vt 0.420536 0.329918
vt 0.125000 0.750000
vt 0.487199 0.397610
vt 0.496651 0.388581
vt 0.464189 0.381871
vt 0.872756 0.774419
vt 0.487620 0.390732
vt 0.128949 0.773626
vt 0.479995 0.376487
vt 0.464189 0.354281
vt 0.496651 0.360990
vt 0.483209 0.350238
vt 0.520723 0.370281
vt 0.417617 0.419461
vt 0.823369 0.646826
vt 0.811742 0.608285
vt 0.442230 0.514087
vt 0.504746 0.397610
vt 0.820307 0.598304
vt 0.854827 0.738937
vt 0.432052 0.523786
vt 0.487620 0.390732
vt 0.522488 0.350984
vt 0.376860 0.628545
vt 0.379124 0.779918
vt 0.376770 0.333788
vn -0.9996 0.0263 0.0137
vn -0.0010 -0.9999 0.0142
vn 1.0000 0.0012 -0.0004
vn 0.0007 1.0000 0.0005
vn -0.0204 -0.1803 -0.9834
vn 0.0001 -1.0000 0.0001
vn -0.0067 -0.9869 0.1614
vn 1.0000 0.0016 -0.0007
vn -0.0054 -0.9999 0.0140
vn -0.0001 0.0097 1.0000
vn 0.9995 -0.0283 -0.0148
vn 0.0006 0.0019 1.0000
vn 0.0272 0.9893 -0.1432
vn -1.0000 -0.0022 0.0009
vn 0.0000 0.0139 0.9999
vn 1.0000 0.0011 0.0005
vn -0.0010 -0.9999 -0.0107
vn 0.0020 -1.0000 0.0021
vn 0.0006 0.0034 1.0000
vn -0.0007 -0.0006 1.0000
vn 0.0001 -0.0072 -1.0000
vn 0.0071 -1.0000 0.0042
vn 0.1153 -0.9847 0.1308
vn -0.0408 0.5738 -0.8180
vn 0.6068 0.7597 -0.2336
vn -0.0021 1.0000 -0.0042
vn -0.9291 -0.2166 0.2997
vn -0.3478 -0.0270 -0.9372
vn 0.0114 0.2160 0.9763
vn -0.1088 -0.1883 0.9761
vn -0.1614 -0.1351 -0.9776
vn 0.9967 0.0372 -0.0721
vn 0.0387 0.6916 0.7213
vn 0.3625 -0.9258 0.1071
vn -0.7705 0.6340 -0.0662
vn -0.7466 0.6051 -0.2766
vn 0.4023 0.2836 0.8705
vn -1.0000 -0.0004 -0.0008
vn 0.3960 0.6780 -0.6192
vn -0.2199 0.6327 -0.7426
vn -0.0122 -0.1532 -0.9881
vn 0.5759 0.7065 -0.4113
vn 0.1717 0.9264 -0.3351
vn 0.0205 -0.8683 0.4957
vn 0.0570 -0.9163 0.3963
vn 0.3327 0.8103 -0.4825
vn -0.1404 0.8015 -0.5813
vn 0.4947 0.8658 -0.0750
vn 0.0461 -0.9207 0.3876
vn -0.2256 0.9601 0.1651
vn -0.5036 0.8544 -0.1278
vn -0.9996 0.0256 0.0115
vn 0.3243 0.8113 -0.4865
vn 0.2188 -0.9723 0.0819
vn -0.2490 -0.8153 0.5227
vn 0.1489 0.7512 -0.6431
vn 0.9699 0.2428 0.0186
vn -0.1686 -0.8055 0.5682
vn -0.1649 -0.8675 0.4694
vn 0.2370 -0.9456 0.2228
vn 0.0240 0.0100 -0.9997
vn -0.0027 -0.9998 0.0182
vn -0.0012 -0.9999 0.0139
vn -0.0074 -0.9998 0.0203
vn 0.0023 -1.0000 0.0089
vn -0.9130 0.4079 0.0061
vn -0.0696 -0.9975 -0.0105
vn 0.0328 0.1689 0.9851
vn 0.0070 -0.9997 0.0223
vn 1.0000 0.0002 0.0009
vn 1.0000 0.0018 -0.0000
vn -1.0000 -0.0013 0.0005
vn -1.0000 -0.0018 0.0001
vn -0.0078 -0.9999 0.0117
vn -0.0006 -1.0000 0.0086
vn -0.0237 -0.9997 0.0049
vn -0.0032 -0.9999 -0.0107
vn -1.0000 -0.0010 -0.0005
vn -1.0000 -0.0001 0.0002
vn 0.9982 0.0532 -0.0261
vn 1.0000 0.0001 -0.0002
vn -0.9996 0.0263 0.0131
vn -0.0143 0.8594 0.5112
vn 0.3763 -0.0591 -0.9246
vn 0.9002 0.1947 -0.3894
vn -0.9605 -0.1769 -0.2148
vn 0.0327 0.9177 0.3958
vn -0.0112 0.7217 -0.6922
vn 0.3298 0.8082 -0.4879
vn -0.2467 -0.8247 0.5089
vn 0.1459 0.7573 -0.6365
vn -0.0006 -0.0021 -1.0000
vn 0.0161 0.1190 0.9928
vn 0.9999 -0.0050 -0.0144
vn -0.9996 0.0276 0.0030
vn 0.0210 0.1712 0.9850
vn -0.0127 -0.1083 -0.9940
vn -0.9999 0.0072 0.0086
vn -1.0000 0.0085 0.0001
vn 0.0040 0.0133 0.9999
vn 0.0150 0.1192 0.9928
vn -0.0029 -0.0101 -0.9999
vn 1.0000 0.0059 -0.0034
vn -1.0000 0.0020 0.0045
vn -0.0001 1.0000 -0.0005
vn -0.0139 -0.1613 -0.9868
vn -0.0002 -1.0000 -0.0000
vn -0.0040 -0.9865 0.1639
vn 1.0000 0.0017 -0.0006
vn -0.0007 0.0106 0.9999
vn 0.9993 -0.0367 -0.0107
vn 0.0008 0.0021 1.0000
vn 0.0104 0.9920 -0.1259
vn -1.0000 -0.0025 0.0007
vn 0.0172 0.0193 0.9997
vn -0.0006 -0.9999 -0.0111
vn 0.0018 -1.0000 0.0022
vn 0.0008 -0.0077 -1.0000
vn 0.0134 -0.9999 0.0042
vn -0.0018 1.0000 -0.0045
vn -0.9300 -0.2198 0.2946
vn -0.0551 0.5345 -0.8434
vn -0.1816 0.1550 0.9711
vn -0.3835 -0.0724 0.9207
vn -0.1621 -0.0472 -0.9856
vn 0.9966 0.0822 -0.0102
vn -0.0650 0.2508 0.9659
vn 0.1361 -0.9843 0.1125
vn 0.3063 0.6443 -0.7008
vn -0.3790 0.5220 -0.7641
vn -0.0037 -0.1556 -0.9878
vn 0.9414 0.3232 0.0968
vn 0.1465 0.8988 -0.4132
vn -0.0988 -0.9096 0.4035
vn -0.0405 0.8211 -0.5694
vn 0.4231 0.8778 -0.2246
vn 0.0488 -0.8489 0.5262
vn 0.2054 0.9669 0.1517
vn -0.5502 0.7380 -0.3907
vn -0.9996 0.0252 0.0117
vn 0.2508 -0.9483 0.1945
vn 0.9264 0.3472 -0.1454
vn -0.2180 -0.7864 0.5780
vn -0.0081 0.0301 -0.9995
vn -0.9466 -0.0276 0.3213
vn 0.0162 0.1245 0.9921
vn 1.0000 -0.0001 0.0007
vn 0.9971 0.0307 -0.0691
vn -0.9582 -0.0030 0.2861
vn -0.0007 -0.0022 -1.0000
vn 0.0044 0.0925 0.9957
vn 0.9996 -0.0286 -0.0044
vn -0.9999 0.0097 0.0133
vn -0.0037 -0.1398 -0.9902
vn -0.9999 0.0051 0.0160
vn -1.0000 0.0017 0.0040
vn 0.0019 0.0085 1.0000
vn 0.0203 0.1198 0.9926
vn -0.0022 -0.0123 -0.9999
vn 1.0000 -0.0008 -0.0055
vn -1.0000 -0.0012 0.0088
s off
f 4/1/1 75/2/1 78/3/1
f 7/4/2 18/5/2 17/6/2
f 25/7/3 29/8/3 20/9/3
f 34/10/4 24/11/4 23/12/4
f 79/13/5 4/14/5 8/15/5
f 28/16/6 21/17/6 27/18/6
f 39/19/7 37/20/7 41/21/7
f 16/22/8 25/7/8 20/9/8
f 12/23/9 9/24/9 1/25/9
f 23/26/10 12/27/10 10/28/10
f 6/29/11 79/30/11 8/31/11
f 13/32/12 25/33/12 11/34/12
f 4/35/13 6/36/13 8/37/13
f 26/38/14 18/39/14 22/40/14
f 5/41/15 82/42/15 9/43/15
f 24/44/16 27/45/16 21/46/16
f 13/47/17 17/6/17 18/5/17
f 29/48/18 22/49/18 20/50/18
f 32/51/19 29/52/19 31/53/19
f 28/54/20 33/55/20 34/56/20
f 17/57/21 19/58/21 15/59/21
f 11/60/22 9/24/22 13/61/22
f 66/62/23 47/63/23 51/64/23
f 45/65/24 40/66/24 46/67/24
f 40/66/25 43/68/25 46/67/25
f 26/69/26 31/70/26 25/71/26
f 53/72/27 45/73/27 54/74/27
f 71/75/28 62/76/28 74/77/28
f 35/78/29 53/79/29 37/80/29
f 43/81/30 53/82/30 56/83/30
f 42/84/31 71/85/31 74/86/31
f 46/87/32 56/88/32 55/89/32
f 47/63/33 49/90/33 51/64/33
f 47/63/34 58/91/34 63/92/34
f 64/93/35 50/94/35 49/90/35
f 68/95/36 50/94/36 65/96/36
f 63/92/37 48/97/37 47/63/37
f 23/98/38 15/99/38 19/100/38
f 38/101/39 40/102/39 42/84/39
f 61/103/40 65/96/40 62/76/40
f 41/104/41 55/89/41 39/105/41
f 72/106/42 60/107/42 57/108/42
f 59/109/43 60/107/43 73/110/43
f 69/111/44 61/103/44 71/75/44
f 58/91/45 61/103/45 69/111/45
f 73/110/46 60/107/46 70/112/46
f 62/76/47 59/109/47 73/110/47
f 57/108/48 67/113/48 63/92/48
f 57/108/49 58/91/49 69/111/49
f 59/109/50 48/97/50 67/113/50
f 50/94/51 59/109/51 65/96/51
f 2/114/52 78/3/52 76/115/52
f 38/116/53 70/112/53 36/117/53
f 58/91/54 52/118/54 68/95/54
f 44/119/55 71/75/55 45/120/55
f 38/116/56 74/77/56 73/110/56
f 43/121/57 70/122/57 72/123/57
f 44/119/58 72/106/58 69/111/58
f 69/111/59 72/106/59 57/108/59
f 66/62/60 51/64/60 52/118/60
f 54/124/61 46/87/61 55/89/61
f 14/125/62 3/126/62 15/127/62
f 3/126/63 7/4/63 17/6/63
f 15/127/64 3/126/64 17/6/64
f 7/4/65 5/128/65 11/60/65
f 49/90/66 52/118/66 51/64/66
f 11/60/67 16/129/67 7/4/67
f 2/130/68 80/131/68 6/132/68
f 7/4/69 16/129/69 18/5/69
f 17/133/70 24/44/70 21/46/70
f 25/7/71 31/134/71 29/8/71
f 22/40/72 30/135/72 26/38/72
f 30/135/73 32/136/73 26/38/73
f 10/137/74 12/23/74 1/25/74
f 12/23/75 13/61/75 9/24/75
f 1/25/76 14/138/76 10/137/76
f 14/138/77 15/139/77 10/137/77
f 19/100/78 28/140/78 23/98/78
f 28/140/79 34/141/79 23/98/79
f 55/89/80 35/78/80 39/105/80
f 24/44/81 33/142/81 27/45/81
f 53/79/82 41/104/82 37/80/82
f 64/93/83 49/90/83 48/97/83
f 45/65/84 42/143/84 40/66/84
f 40/66/85 36/144/85 43/68/85
f 68/95/86 52/118/86 50/94/86
f 63/92/87 67/113/87 48/97/87
f 73/110/88 74/77/88 62/76/88
f 38/116/89 73/110/89 70/112/89
f 44/119/90 69/111/90 71/75/90
f 38/116/91 42/145/91 74/77/91
f 20/146/92 18/147/92 16/148/92
f 76/149/93 82/42/93 80/131/93
f 77/150/94 86/151/94 79/30/94
f 76/115/95 85/152/95 83/153/95
f 80/131/96 77/154/96 6/132/96
f 79/13/97 81/155/97 75/156/97
f 78/3/98 81/157/98 85/152/98
f 83/153/99 14/158/99 1/159/99
f 83/160/100 9/43/100 82/42/100
f 84/161/101 80/131/101 82/42/101
f 86/162/102 3/163/102 81/155/102
f 86/151/103 5/164/103 7/165/103
f 85/152/104 3/166/104 14/158/104
f 34/10/105 33/167/105 24/11/105
f 79/13/106 75/156/106 4/14/106
f 28/16/107 19/168/107 21/17/107
f 39/19/108 35/169/108 37/20/108
f 16/22/109 11/170/109 25/7/109
f 23/26/110 24/171/110 12/27/110
f 6/29/111 77/150/111 79/30/111
f 13/32/112 26/172/112 25/33/112
f 4/35/113 2/173/113 6/36/113
f 26/38/114 13/174/114 18/39/114
f 5/41/115 84/161/115 82/42/115
f 13/47/116 12/175/116 17/6/116
f 29/48/117 30/176/117 22/49/117
f 32/51/19 30/177/19 29/52/19
f 28/54/20 27/178/20 33/55/20
f 17/57/118 21/179/118 19/58/118
f 11/60/119 5/128/119 9/24/119
f 26/69/120 32/180/120 31/70/120
f 53/72/121 44/181/121 45/73/121
f 71/75/122 61/103/122 62/76/122
f 35/78/123 56/88/123 53/79/123
f 43/81/124 44/182/124 53/82/124
f 42/84/125 45/183/125 71/85/125
f 46/87/126 43/184/126 56/88/126
f 47/63/127 48/97/127 49/90/127
f 47/63/128 66/62/128 58/91/128
f 23/98/38 10/185/38 15/99/38
f 38/101/129 36/186/129 40/102/129
f 61/103/130 68/95/130 65/96/130
f 41/104/131 54/124/131 55/89/131
f 72/106/132 70/112/132 60/107/132
f 59/109/133 67/113/133 60/107/133
f 58/91/134 68/95/134 61/103/134
f 62/76/135 65/96/135 59/109/135
f 57/108/136 60/107/136 67/113/136
f 57/108/137 63/92/137 58/91/137
f 59/109/138 64/93/138 48/97/138
f 50/94/139 64/93/139 59/109/139
f 2/114/140 4/1/140 78/3/140
f 58/91/141 66/62/141 52/118/141
f 43/121/142 36/186/142 70/122/142
f 44/119/143 43/187/143 72/106/143
f 54/124/144 45/188/144 46/87/144
f 49/90/145 50/94/145 52/118/145
f 2/130/146 76/149/146 80/131/146
f 17/133/147 12/189/147 24/44/147
f 55/89/148 56/88/148 35/78/148
f 53/79/149 54/124/149 41/104/149
f 20/146/150 22/190/150 18/147/150
f 76/149/151 83/160/151 82/42/151
f 77/150/152 84/191/152 86/151/152
f 76/115/153 78/3/153 85/152/153
f 79/13/154 86/162/154 81/155/154
f 78/3/155 75/2/155 81/157/155
f 83/153/156 85/152/156 14/158/156
f 83/160/157 1/192/157 9/43/157
f 84/161/158 77/154/158 80/131/158
f 86/162/159 7/193/159 3/163/159
f 86/151/160 84/191/160 5/164/160
f 85/152/161 81/157/161 3/166/161
