# Blender v3.2.1 OBJ File: 'Modeling.blend'
# www.blender.org
o Player_Cube.001
v -0.381033 0.207264 0.376441
v -0.344601 1.025735 0.308295
v -0.382108 0.223650 -0.370394
v -0.375042 0.897699 -0.441871
v 0.380610 0.202069 0.373844
v 0.408371 1.001132 0.263999
v 0.373236 0.225397 -0.374230
v 0.374395 0.855506 -0.469215
v 0.254525 0.194769 0.373895
v -0.255185 0.209151 0.078533
v 0.254733 0.207780 0.077375
v -0.087281 0.200968 0.078167
v 0.086524 0.200319 0.077565
v -0.380458 0.223725 -0.085907
v -0.254399 0.220309 -0.089237
v 0.254111 0.218831 -0.089843
v -0.086603 0.212511 -0.089565
v 0.085776 0.211459 -0.089628
v -0.254174 0.000587 -0.079945
v 0.256465 0.001832 -0.087219
v -0.086498 0.000340 -0.079580
v 0.088748 -0.000287 -0.086802
v -0.254797 0.084793 0.086275
v -0.087162 0.084069 0.086573
v 0.255952 0.086268 0.078947
v 0.088237 0.084102 0.079389
v -0.086662 0.000612 0.213909
v -0.254311 0.000572 0.213628
v 0.256619 0.005761 0.207593
v 0.088981 0.003846 0.207847
v 0.255659 0.089561 0.205804
v 0.088020 0.087646 0.206058
v -0.086682 0.084436 0.214205
v -0.254332 0.084396 0.213925
v 0.041342 0.950606 -0.074359
v 0.014690 1.169576 -0.048919
v -0.001282 0.948795 -0.072752
v -0.019108 1.181499 -0.050421
v 0.040168 0.946557 -0.116919
v 0.009208 1.155375 -0.078348
v -0.002481 0.944641 -0.115354
v -0.025566 1.167028 -0.089755
v 0.025809 1.141690 -0.043425
v -0.020915 1.147103 -0.062258
v -0.026804 1.139273 -0.097120
v 0.026209 1.142226 -0.097004
v -0.273321 1.041019 0.499294
v -0.279063 1.068161 0.509086
v -0.466333 1.058090 0.511491
v -0.534916 1.079075 0.332148
v -0.481323 0.981288 0.525945
v -0.529241 1.051874 0.322605
v -0.003083 1.075266 -0.083204
v -0.013830 1.082259 -0.117109
v 0.028353 1.075204 -0.118928
v 0.031070 1.080604 -0.076498
v 0.034913 1.194776 0.256883
v -0.298205 1.160010 0.268592
v -0.320127 1.256173 0.308073
v -0.041931 1.238191 0.200709
v -0.334850 1.181254 -0.058835
v -0.266644 1.228974 0.007243
v -0.083533 1.189254 0.431556
v -0.438096 1.130361 0.478207
v -0.451937 1.231367 0.155139
v -0.384718 1.070717 0.393901
v -0.141737 1.234866 0.399133
v -0.495842 1.183288 0.105151
v -0.085450 1.183884 0.020091
v 0.010378 1.186761 0.016038
v -0.098674 1.166469 -0.078445
v 0.013491 1.168209 0.026188
v -0.155403 1.263135 0.103147
v -0.088820 1.185272 -0.076400
v -0.383891 0.670438 -0.389341
v -0.355450 0.780396 0.348983
v 0.392027 0.752219 0.325934
v -0.379975 0.683372 -0.297875
v 0.365000 0.638164 -0.408748
v 0.351076 0.753417 0.327390
v -0.382318 0.457831 -0.361111
v 0.293780 0.469738 0.374835
v -0.372056 0.481465 0.379285
v 0.376961 0.473397 0.372677
v -0.378196 0.457999 -0.176044
v 0.367137 0.449840 -0.366903
vt 0.378055 0.327070
vt 0.378055 0.255321
vt 0.412325 0.255321
vt 0.372848 0.560781
vt 0.128949 0.712673
vt 0.128949 0.712673
vt 0.487199 0.373660
vt 0.460442 0.357693
vt 0.522874 0.357693
vt 0.461264 0.370281
vt 0.490994 0.390240
vt 0.461264 0.390240
vt 0.379033 0.550957
vt 0.623034 0.479370
vt 0.623230 0.550419
vt 0.420536 0.376487
vt 0.450265 0.329918
vt 0.450265 0.376487
vt 0.375000 0.500000
vt 0.125000 0.750000
vt 0.125000 0.500000
vt 0.522874 0.397610
vt 0.280287 0.650828
vt 0.310545 0.771859
vt 0.128998 0.771859
vt 0.435004 0.388581
vt 0.496651 0.429966
vt 0.435004 0.429966
vt 0.376860 0.774427
vt 0.622399 0.703300
vt 0.623140 0.774427
vt 0.464189 0.423257
vt 0.525836 0.381871
vt 0.525836 0.423257
vt 0.872756 0.556499
vt 0.628474 0.773348
vt 0.628474 0.555428
vt 0.487620 0.370773
vt 0.517350 0.390732
vt 0.517350 0.357468
vt 0.620876 0.779918
vt 0.595027 0.852960
vt 0.581874 0.779918
vt 0.487620 0.370773
vt 0.465323 0.357468
vt 0.517350 0.357468
vt 0.128949 0.773626
vt 0.509725 0.376487
vt 0.479995 0.329918
vt 0.509725 0.329918
vt 0.464189 0.381871
vt 0.525836 0.354281
vt 0.525836 0.381871
vt 0.435004 0.388581
vt 0.496651 0.360990
vt 0.496651 0.388581
vt 0.483209 0.390155
vt 0.518884 0.350238
vt 0.518884 0.390155
vt 0.128949 0.773626
vt 0.295416 0.650828
vt 0.690855 0.601580
vt 0.720955 0.561581
vt 0.645084 0.561581
vt 0.487802 0.532021
vt 0.499065 0.526215
vt 0.504886 0.531542
vt 0.504388 0.516216
vt 0.520723 0.390240
vt 0.550453 0.370281
vt 0.550453 0.390240
vt 0.421523 0.423015
vt 0.416672 0.425767
vt 0.419592 0.429095
vt 0.811873 0.749619
vt 0.755398 0.725109
vt 0.815036 0.748557
vt 0.445009 0.520630
vt 0.436903 0.521033
vt 0.436536 0.520630
vt 0.839447 0.640919
vt 0.830172 0.653014
vt 0.841826 0.650634
vt 0.811682 0.606523
vt 0.795713 0.604342
vt 0.797723 0.603667
vt 0.442535 0.523492
vt 0.443596 0.519667
vt 0.443352 0.527173
vt 0.657356 0.572062
vt 0.732970 0.640298
vt 0.802944 0.586634
vt 0.674484 0.586634
vt 0.645084 0.629494
vt 0.674484 0.701620
vt 0.690518 0.687267
vt 0.720955 0.561581
vt 0.504746 0.373660
vt 0.469071 0.397610
vt 0.469071 0.357693
vt 0.812791 0.598503
vt 0.819388 0.604343
vt 0.732209 0.745865
vt 0.436536 0.528214
vt 0.445009 0.528214
vt 0.849909 0.716775
vt 0.827775 0.660324
vt 0.850963 0.639568
vt 0.732209 0.639568
vt 0.792249 0.693992
vt 0.815608 0.718989
vt 0.848653 0.719529
vt 0.786910 0.600986
vt 0.621927 0.327070
vt 0.621927 0.255321
vt 0.838755 0.740427
vt 0.850585 0.740115
vt 0.645084 0.629494
vt 0.838749 0.744845
vt 0.837104 0.755825
vt 0.823001 0.597556
vt 0.819079 0.585226
vt 0.819877 0.583477
vt 0.434972 0.527113
vt 0.131195 0.589875
vt 0.130889 0.560781
vt 0.128949 0.712673
vt 0.371061 0.772907
vt 0.128949 0.712673
vt 0.379124 0.996513
vt 0.608179 0.926002
vt 0.620876 0.996513
vt 0.517350 0.390732
vt 0.460442 0.373660
vt 0.465323 0.357468
vt 0.465323 0.370773
vt 0.250029 0.650828
vt 0.128998 0.590312
vt 0.250029 0.590312
vt 0.531503 0.357693
vt 0.531503 0.373660
vt 0.465323 0.370773
vt 0.487712 0.529427
vt 0.500418 0.517318
vt 0.837009 0.753053
vt 0.486812 0.350984
vt 0.522488 0.390900
vt 0.486812 0.390900
vt 0.379124 0.926002
vt 0.376860 0.702771
vt 0.621631 0.629622
vt 0.447825 0.180996
vt 0.621927 0.180996
vt 0.620876 0.926002
vt 0.378297 0.480259
vt 0.622831 0.405771
vt 0.378055 0.180996
vt 0.483324 0.106672
vt 0.621927 0.106672
vt 0.379124 0.852960
vt 0.620876 0.852960
vt 0.377534 0.407023
vt 0.622628 0.332173
vt 0.376860 0.554318
vt 0.620863 0.555943
vt 0.378055 0.106672
vt 0.490994 0.370281
vt 0.420536 0.329918
vt 0.375000 0.750000
vt 0.487199 0.397610
vt 0.496651 0.388581
vt 0.464189 0.381871
vt 0.872756 0.774419
vt 0.487620 0.390732
vt 0.128949 0.773626
vt 0.479995 0.376487
vt 0.464189 0.354281
vt 0.435004 0.360990
vt 0.483209 0.350238
vt 0.520723 0.370281
vt 0.417617 0.419461
vt 0.823369 0.646826
vt 0.811742 0.608285
vt 0.442230 0.514087
vt 0.504746 0.397610
vt 0.820307 0.598304
vt 0.854827 0.738937
vt 0.432052 0.523786
vt 0.487620 0.390732
vt 0.522488 0.350984
vt 0.376860 0.628545
vt 0.379124 0.779918
vt 0.376770 0.333788
vn -0.9982 0.0472 0.0361
vn -0.0061 -0.9985 -0.0551
vn 1.0000 0.0073 -0.0006
vn 0.0043 1.0000 0.0031
vn -0.0481 -0.2232 -0.9736
vn 0.0002 -1.0000 0.0009
vn 0.0459 -0.9944 0.0957
vn 0.9999 0.0108 -0.0024
vn -0.0196 -0.9998 0.0018
vn 0.0052 0.0622 0.9981
vn 0.9980 -0.0531 -0.0357
vn 0.0006 0.0129 0.9999
vn 0.0480 0.9793 -0.1967
vn -0.9999 -0.0140 0.0040
vn 0.0006 -0.0035 1.0000
vn 1.0000 0.0068 0.0006
vn -0.0061 -0.9978 -0.0665
vn 0.0127 -0.9998 0.0133
vn 0.0013 0.0214 0.9998
vn -0.0017 -0.0035 1.0000
vn -0.0039 -0.0423 -0.9991
vn 0.0442 -0.9981 -0.0438
vn 0.1928 -0.8722 -0.4496
vn -0.0431 0.7977 -0.6015
vn 0.6203 0.7843 0.0125
vn -0.0130 0.9996 -0.0260
vn -0.9272 -0.2929 0.2335
vn -0.3510 0.2811 -0.8932
vn 0.0340 0.0828 0.9960
vn -0.0961 -0.4803 0.8718
vn -0.1516 0.1851 -0.9710
vn 0.9960 0.0550 -0.0708
vn 0.0771 0.1698 0.9825
vn 0.4456 -0.7752 -0.4479
vn -0.7997 0.4791 0.3619
vn -0.7969 0.5892 0.1333
vn 0.4700 -0.2099 0.8574
vn -1.0000 -0.0012 -0.0032
vn 0.4026 0.8357 -0.3736
vn -0.2755 0.8915 -0.3595
vn -0.0358 -0.0189 -0.9992
vn 0.5654 0.8118 -0.1460
vn 0.1112 0.9862 0.1229
vn -0.0466 -0.9826 0.1799
vn 0.0321 -0.9971 -0.0683
vn 0.3419 0.9258 -0.1610
vn -0.1934 0.9735 -0.1224
vn 0.4576 0.8231 0.3363
vn 0.1036 -0.9946 -0.0069
vn -0.2698 0.6751 0.6866
vn -0.5664 0.7371 0.3686
vn -0.9983 0.0492 0.0305
vn 0.3332 0.9167 -0.2204
vn 0.2844 -0.8392 -0.4635
vn -0.2834 -0.9243 0.2555
vn 0.1754 0.9253 -0.3362
vn 0.9728 0.2130 0.0910
vn -0.1672 -0.9423 0.2899
vn -0.1629 -0.9783 0.1278
vn 0.2994 -0.8773 -0.3751
vn 0.0111 0.3112 -0.9503
vn -0.0271 -0.9996 0.0004
vn 0.0021 -0.9991 -0.0418
vn -0.0464 -0.9989 0.0092
vn 0.0287 -0.9991 -0.0314
vn -0.9241 0.2368 0.3000
vn -0.1010 -0.9927 -0.0652
vn 0.0647 0.2333 0.9702
vn 0.0437 -0.9990 -0.0047
vn 1.0000 0.0007 0.0037
vn 0.9999 0.0115 0.0020
vn -1.0000 -0.0078 0.0009
vn -0.9999 -0.0115 -0.0014
vn -0.0487 -0.9985 -0.0269
vn -0.0038 -0.9999 -0.0166
vn -0.0693 -0.9970 -0.0356
vn -0.0288 -0.9974 -0.0665
vn -1.0000 -0.0065 -0.0005
vn -1.0000 -0.0003 0.0036
vn 0.9952 0.0908 -0.0361
vn 1.0000 0.0003 -0.0038
vn -0.9995 -0.0118 0.0293
vn -0.0110 0.4218 0.9066
vn 0.3704 0.2228 -0.9017
vn 0.9021 0.2982 -0.3119
vn -0.9669 -0.1234 -0.2231
vn -0.0202 0.5620 0.8269
vn 0.0467 0.9226 -0.3828
vn 0.3144 0.9251 -0.2127
vn -0.2762 -0.9394 0.2031
vn 0.1857 0.9119 -0.3660
vn -0.0007 -0.0121 -0.9999
vn 0.0362 0.1577 0.9868
vn 0.9993 0.0031 -0.0372
vn -0.9984 0.0563 0.0087
vn 0.0415 0.2387 0.9702
vn -0.0314 -0.1318 -0.9908
vn -0.9997 0.0041 0.0223
vn -0.9995 0.0327 -0.0001
vn 0.0066 -0.0044 1.0000
vn 0.0185 0.1613 0.9867
vn -0.0073 0.0396 -0.9992
vn 0.9996 0.0275 -0.0090
vn -0.9999 0.0119 0.0058
vn -0.0002 1.0000 -0.0029
vn -0.0364 -0.2664 -0.9632
vn -0.0015 -1.0000 -0.0001
vn 0.0481 -0.9945 0.0933
vn 0.9999 0.0100 -0.0031
vn -0.0015 0.0717 0.9974
vn 0.9971 -0.0718 -0.0255
vn 0.0024 0.0157 0.9999
vn 0.0222 0.9854 -0.1691
vn -0.9999 -0.0147 0.0035
vn 0.0257 0.0046 0.9997
vn -0.0040 -0.9976 -0.0687
vn 0.0114 -0.9998 0.0140
vn 0.0021 -0.0470 -0.9989
vn 0.0577 -0.9974 -0.0437
vn -0.0115 0.9995 -0.0280
vn -0.9288 -0.2957 0.2233
vn 0.0020 0.8097 -0.5868
vn -0.1928 0.0009 0.9812
vn -0.3850 -0.3452 0.8560
vn -0.1496 0.2598 -0.9540
vn 0.9966 0.0814 0.0083
vn 0.0300 -0.3336 0.9422
vn 0.2118 -0.8591 -0.4659
vn -1.0000 -0.0034 -0.0049
vn 0.3136 0.8310 -0.4594
vn -0.4134 0.8100 -0.4159
vn -0.0458 -0.0165 -0.9988
vn 0.9447 0.2646 0.1939
vn 0.0877 0.9943 0.0608
vn -0.0704 -0.9959 -0.0567
vn -0.0685 0.9924 -0.1019
vn 0.3671 0.9084 0.1999
vn 0.1051 -0.9937 0.0399
vn 0.1608 0.7370 0.6565
vn -0.6205 0.7716 0.1404
vn -0.9984 0.0450 0.0328
vn 0.3100 -0.8623 -0.4004
vn 0.9307 0.3643 -0.0346
vn -0.2318 -0.9220 0.3102
vn -0.0162 0.3275 -0.9447
vn -0.9029 -0.2973 0.3105
vn 0.0363 0.1619 0.9861
vn 1.0000 0.0013 0.0041
vn 0.9943 0.0774 -0.0735
vn -0.9549 -0.0751 0.2872
vn -0.0023 -0.0134 -0.9999
vn 0.0084 0.1004 0.9949
vn 0.9984 -0.0559 -0.0115
vn -0.9993 0.0117 0.0361
vn -0.0099 -0.2170 -0.9761
vn -0.9991 -0.0017 0.0430
vn -0.9999 0.0137 0.0105
vn 0.0038 -0.0105 0.9999
vn 0.0398 0.1631 0.9858
vn -0.0052 0.0325 -0.9995
vn 0.9998 0.0134 -0.0137
vn -0.9998 -0.0018 0.0223
s off
f 4/1/1 75/2/1 78/3/1
f 7/4/2 18/5/2 17/6/2
f 25/7/3 29/8/3 20/9/3
f 34/10/4 24/11/4 23/12/4
f 8/13/5 75/14/5 4/15/5
f 28/16/6 21/17/6 27/18/6
f 41/19/7 35/20/7 37/21/7
f 16/22/8 25/7/8 20/9/8
f 12/23/9 9/24/9 1/25/9
f 23/26/10 12/27/10 10/28/10
f 6/29/11 79/30/11 8/31/11
f 13/32/12 25/33/12 11/34/12
f 4/35/13 6/36/13 8/37/13
f 26/38/14 18/39/14 22/40/14
f 5/41/15 82/42/15 9/43/15
f 24/44/16 27/45/16 21/46/16
f 13/47/17 17/6/17 18/5/17
f 29/48/18 22/49/18 20/50/18
f 32/51/19 29/52/19 31/53/19
f 34/54/20 27/55/20 33/56/20
f 17/57/21 19/58/21 15/59/21
f 11/60/22 9/24/22 13/61/22
f 66/62/23 47/63/23 51/64/23
f 45/65/24 40/66/24 46/67/24
f 40/66/25 43/68/25 46/67/25
f 26/69/26 31/70/26 25/71/26
f 53/72/27 45/73/27 54/74/27
f 71/75/28 62/76/28 74/77/28
f 35/78/29 53/79/29 37/80/29
f 43/81/30 53/82/30 56/83/30
f 42/84/31 71/85/31 74/86/31
f 46/87/32 56/88/32 55/89/32
f 47/63/33 49/90/33 51/64/33
f 47/63/34 58/91/34 63/92/34
f 64/93/35 50/94/35 49/90/35
f 68/95/36 50/94/36 65/96/36
f 63/92/37 48/97/37 47/63/37
f 23/98/38 15/99/38 19/100/38
f 38/101/39 40/102/39 42/84/39
f 61/103/40 65/96/40 62/76/40
f 41/104/41 55/89/41 39/105/41
f 72/106/42 60/107/42 57/108/42
f 59/109/43 60/107/43 73/110/43
f 69/111/44 61/103/44 71/75/44
f 58/91/45 61/103/45 69/111/45
f 73/110/46 60/107/46 70/112/46
f 62/76/47 59/109/47 73/110/47
f 57/108/48 67/113/48 63/92/48
f 57/108/49 58/91/49 69/111/49
f 59/109/50 48/97/50 67/113/50
f 50/94/51 59/109/51 65/96/51
f 2/114/52 78/3/52 76/115/52
f 38/116/53 70/112/53 36/117/53
f 58/91/54 52/118/54 68/95/54
f 44/119/55 71/75/55 45/120/55
f 38/116/56 74/77/56 73/110/56
f 43/121/57 70/122/57 72/123/57
f 44/119/58 72/106/58 69/111/58
f 69/111/59 72/106/59 57/108/59
f 66/62/60 51/64/60 52/118/60
f 54/124/61 46/87/61 55/89/61
f 14/125/62 3/126/62 15/127/62
f 3/126/63 7/4/63 17/6/63
f 15/127/64 3/126/64 17/6/64
f 7/4/65 5/128/65 11/60/65
f 49/90/66 52/118/66 51/64/66
f 11/60/67 16/129/67 7/4/67
f 2/130/68 80/131/68 6/132/68
f 7/4/69 16/129/69 18/5/69
f 17/133/70 24/44/70 21/46/70
f 25/7/71 31/134/71 29/8/71
f 22/40/72 30/135/72 26/38/72
f 30/135/73 32/136/73 26/38/73
f 10/137/74 12/23/74 1/25/74
f 12/23/75 13/61/75 9/24/75
f 1/25/76 14/138/76 10/137/76
f 14/138/77 15/139/77 10/137/77
f 19/100/78 28/140/78 23/98/78
f 28/140/79 34/141/79 23/98/79
f 55/89/80 35/78/80 39/105/80
f 24/44/81 33/142/81 27/45/81
f 53/79/82 41/104/82 37/80/82
f 64/93/83 49/90/83 48/97/83
f 45/65/84 42/143/84 40/66/84
f 40/66/85 36/144/85 43/68/85
f 68/95/86 52/118/86 50/94/86
f 63/92/87 67/113/87 48/97/87
f 73/110/88 74/77/88 62/76/88
f 38/116/89 73/110/89 70/112/89
f 44/119/90 69/111/90 71/75/90
f 38/116/91 42/145/91 74/77/91
f 20/146/92 18/147/92 16/148/92
f 76/149/93 82/42/93 80/131/93
f 77/150/94 86/151/94 79/30/94
f 76/115/95 85/152/95 83/153/95
f 80/131/96 77/154/96 6/132/96
f 79/155/97 81/156/97 75/14/97
f 78/3/98 81/157/98 85/152/98
f 83/153/99 14/158/99 1/159/99
f 83/160/100 9/43/100 82/42/100
f 84/161/101 80/131/101 82/42/101
f 86/162/102 3/163/102 81/156/102
f 86/151/103 5/164/103 7/165/103
f 85/152/104 3/166/104 14/158/104
f 34/10/105 33/167/105 24/11/105
f 8/13/106 79/155/106 75/14/106
f 28/16/107 19/168/107 21/17/107
f 41/19/108 39/169/108 35/20/108
f 16/22/109 11/170/109 25/7/109
f 23/26/110 24/171/110 12/27/110
f 6/29/111 77/150/111 79/30/111
f 13/32/112 26/172/112 25/33/112
f 4/35/113 2/173/113 6/36/113
f 26/38/114 13/174/114 18/39/114
f 5/41/115 84/161/115 82/42/115
f 13/47/116 12/175/116 17/6/116
f 29/48/117 30/176/117 22/49/117
f 32/51/19 30/177/19 29/52/19
f 34/54/20 28/178/20 27/55/20
f 17/57/118 21/179/118 19/58/118
f 11/60/119 5/128/119 9/24/119
f 26/69/120 32/180/120 31/70/120
f 53/72/121 44/181/121 45/73/121
f 71/75/122 61/103/122 62/76/122
f 35/78/123 56/88/123 53/79/123
f 43/81/124 44/182/124 53/82/124
f 42/84/125 45/183/125 71/85/125
f 46/87/126 43/184/126 56/88/126
f 47/63/127 48/97/127 49/90/127
f 47/63/128 66/62/128 58/91/128
f 23/98/129 10/185/129 15/99/129
f 38/101/130 36/186/130 40/102/130
f 61/103/131 68/95/131 65/96/131
f 41/104/132 54/124/132 55/89/132
f 72/106/133 70/112/133 60/107/133
f 59/109/134 67/113/134 60/107/134
f 58/91/135 68/95/135 61/103/135
f 62/76/136 65/96/136 59/109/136
f 57/108/137 60/107/137 67/113/137
f 57/108/138 63/92/138 58/91/138
f 59/109/139 64/93/139 48/97/139
f 50/94/140 64/93/140 59/109/140
f 2/114/141 4/1/141 78/3/141
f 58/91/142 66/62/142 52/118/142
f 43/121/143 36/186/143 70/122/143
f 44/119/144 43/187/144 72/106/144
f 54/124/145 45/188/145 46/87/145
f 49/90/146 50/94/146 52/118/146
f 2/130/147 76/149/147 80/131/147
f 17/133/148 12/189/148 24/44/148
f 55/89/149 56/88/149 35/78/149
f 53/79/150 54/124/150 41/104/150
f 20/146/151 22/190/151 18/147/151
f 76/149/152 83/160/152 82/42/152
f 77/150/153 84/191/153 86/151/153
f 76/115/154 78/3/154 85/152/154
f 79/155/155 86/162/155 81/156/155
f 78/3/156 75/2/156 81/157/156
f 83/153/157 85/152/157 14/158/157
f 83/160/158 1/192/158 9/43/158
f 84/161/159 77/154/159 80/131/159
f 86/162/160 7/193/160 3/163/160
f 86/151/161 84/191/161 5/164/161
f 85/152/162 81/157/162 3/166/162
