# Blender v3.2.1 OBJ File: 'Modeling.blend'
# www.blender.org
o Player_Cube.001
v -0.377488 0.197339 0.370484
v -0.371898 0.973496 0.348703
v -0.375110 0.227124 -0.371405
v -0.391667 0.901259 -0.397713
v 0.378610 0.195722 0.368456
v 0.367549 0.992329 0.320038
v 0.373953 0.236490 -0.374015
v 0.351486 0.911298 -0.417503
v 0.253542 0.187000 0.368447
v -0.253575 0.207265 0.076830
v 0.253051 0.205613 0.075415
v -0.087183 0.197449 0.076238
v 0.086280 0.196666 0.075503
v -0.376481 0.223487 -0.087236
v -0.252643 0.220631 -0.089351
v 0.252313 0.218853 -0.090098
v -0.086374 0.211276 -0.089890
v 0.085388 0.210013 -0.089982
v -0.252459 0.000831 -0.078260
v 0.255202 0.002303 -0.087005
v -0.086294 0.000527 -0.077953
v 0.088991 -0.000243 -0.086615
v -0.253080 0.084356 0.086148
v -0.086967 0.083481 0.086375
v 0.254480 0.086100 0.077333
v 0.088271 0.083498 0.077754
v -0.086266 0.000849 0.212898
v -0.252401 0.000807 0.212691
v 0.255187 0.007006 0.205419
v 0.089068 0.004707 0.205615
v 0.254035 0.090038 0.203273
v 0.087916 0.087738 0.203469
v -0.086287 0.083915 0.213253
v -0.252422 0.083874 0.213046
v 0.006379 0.945512 -0.011277
v -0.037819 1.151116 0.049803
v -0.035565 0.940048 -0.010904
v -0.072147 1.160312 0.049902
v 0.005949 0.948198 -0.053563
v -0.041891 1.142506 0.018258
v -0.036010 0.942621 -0.053256
v -0.077098 1.153306 0.008657
v -0.024639 1.123904 0.050094
v -0.071095 1.129119 0.031781
v -0.076038 1.127438 -0.003746
v -0.023908 1.134293 -0.001976
v -0.320779 0.923581 0.571900
v -0.328409 0.948736 0.584215
v -0.513113 0.927668 0.581305
v -0.578942 0.962364 0.404613
v -0.523073 0.849678 0.587360
v -0.571347 0.936986 0.392534
v -0.047621 1.064452 -0.000786
v -0.058537 1.076357 -0.032870
v -0.016298 1.073057 -0.034972
v -0.014361 1.071095 0.007412
v -0.022051 1.119038 0.353026
v -0.349104 1.063781 0.356644
v -0.377948 1.152866 0.404775
v -0.100363 1.166040 0.303652
v -0.384531 1.134318 0.035436
v -0.320737 1.174933 0.109214
v -0.140627 1.082587 0.522940
v -0.489397 1.003996 0.556575
v -0.504780 1.141304 0.250199
v -0.431041 0.957470 0.468821
v -0.200722 1.128842 0.496392
v -0.544783 1.098758 0.193649
v -0.138331 1.143929 0.117440
v -0.043870 1.154518 0.116060
v -0.149373 1.144558 0.017993
v -0.039400 1.134871 0.122494
v -0.213422 1.200009 0.210564
v -0.141136 1.163098 0.023744
v -0.384790 0.671991 -0.368259
v -0.368617 0.731188 0.369025
v 0.370740 0.741305 0.353909
v -0.382910 0.678127 -0.275665
v 0.358112 0.682356 -0.382368
v 0.330142 0.740387 0.354773
v -0.375575 0.459118 -0.356109
v 0.289100 0.459813 0.375510
v -0.369621 0.463334 0.377667
v 0.371360 0.463723 0.374438
v -0.373986 0.453060 -0.169273
v 0.367269 0.467276 -0.360294
vt 0.378055 0.327070
vt 0.378055 0.255321
vt 0.412325 0.255321
vt 0.372848 0.560781
vt 0.128949 0.712673
vt 0.128949 0.712673
vt 0.487199 0.373660
vt 0.460442 0.357693
vt 0.522874 0.357693
vt 0.461264 0.370281
vt 0.490994 0.390240
vt 0.461264 0.390240
vt 0.379033 0.550957
vt 0.623034 0.479370
vt 0.623230 0.550419
vt 0.420536 0.376487
vt 0.450265 0.329918
vt 0.450265 0.376487
vt 0.375000 0.500000
vt 0.125000 0.750000
vt 0.125000 0.500000
vt 0.522874 0.397610
vt 0.280287 0.650828
vt 0.310545 0.771859
vt 0.128998 0.771859
vt 0.435004 0.388581
vt 0.496651 0.429966
vt 0.435004 0.429966
vt 0.376860 0.774427
vt 0.622399 0.703300
vt 0.623140 0.774427
vt 0.464189 0.423257
vt 0.525836 0.381871
vt 0.525836 0.423257
vt 0.872756 0.556499
vt 0.628474 0.773348
vt 0.628474 0.555428
vt 0.487620 0.370773
vt 0.517350 0.390732
vt 0.517350 0.357468
vt 0.620876 0.779918
vt 0.595027 0.852960
vt 0.581874 0.779918
vt 0.487620 0.370773
vt 0.465323 0.357468
vt 0.517350 0.357468
vt 0.128949 0.773626
vt 0.509725 0.376487
vt 0.479995 0.329918
vt 0.509725 0.329918
vt 0.464189 0.381871
vt 0.525836 0.354281
vt 0.525836 0.381871
vt 0.435004 0.360990
vt 0.496651 0.388581
vt 0.435004 0.388581
vt 0.483209 0.390155
vt 0.518884 0.350238
vt 0.518884 0.390155
vt 0.128949 0.773626
vt 0.295416 0.650828
vt 0.690855 0.601580
vt 0.720955 0.561581
vt 0.645084 0.561581
vt 0.487802 0.532021
vt 0.499065 0.526215
vt 0.504886 0.531542
vt 0.504388 0.516216
vt 0.520723 0.390240
vt 0.550453 0.370281
vt 0.550453 0.390240
vt 0.421523 0.423015
vt 0.416672 0.425767
vt 0.419592 0.429095
vt 0.811873 0.749619
vt 0.755398 0.725109
vt 0.815036 0.748557
vt 0.445009 0.520630
vt 0.436903 0.521033
vt 0.436536 0.520630
vt 0.839447 0.640919
vt 0.830172 0.653014
vt 0.841826 0.650634
vt 0.811682 0.606523
vt 0.795713 0.604342
vt 0.797723 0.603667
vt 0.442535 0.523492
vt 0.443596 0.519667
vt 0.443352 0.527173
vt 0.657356 0.572062
vt 0.732970 0.640298
vt 0.802944 0.586634
vt 0.674484 0.586634
vt 0.645084 0.629494
vt 0.674484 0.701620
vt 0.690518 0.687267
vt 0.720955 0.561581
vt 0.504746 0.373660
vt 0.469071 0.397610
vt 0.469071 0.357693
vt 0.812791 0.598503
vt 0.819388 0.604343
vt 0.732209 0.745865
vt 0.436536 0.528214
vt 0.445009 0.528214
vt 0.849909 0.716775
vt 0.827775 0.660324
vt 0.850963 0.639568
vt 0.732209 0.639568
vt 0.792249 0.693992
vt 0.815608 0.718989
vt 0.848653 0.719529
vt 0.786910 0.600986
vt 0.621927 0.327070
vt 0.621927 0.255321
vt 0.838755 0.740427
vt 0.850585 0.740115
vt 0.645084 0.629494
vt 0.838749 0.744845
vt 0.837104 0.755825
vt 0.823001 0.597556
vt 0.819079 0.585226
vt 0.819877 0.583477
vt 0.434972 0.527113
vt 0.131195 0.589875
vt 0.130889 0.560781
vt 0.128949 0.712673
vt 0.371061 0.772907
vt 0.128949 0.712673
vt 0.379124 0.996513
vt 0.608179 0.926002
vt 0.620876 0.996513
vt 0.517350 0.390732
vt 0.460442 0.373660
vt 0.465323 0.357468
vt 0.465323 0.370773
vt 0.250029 0.650828
vt 0.128998 0.590312
vt 0.250029 0.590312
vt 0.531503 0.357693
vt 0.531503 0.373660
vt 0.465323 0.370773
vt 0.487712 0.529427
vt 0.500418 0.517318
vt 0.837009 0.753053
vt 0.486812 0.350984
vt 0.522488 0.390900
vt 0.486812 0.390900
vt 0.379124 0.926002
vt 0.376860 0.702771
vt 0.621631 0.629622
vt 0.447825 0.180996
vt 0.621927 0.180996
vt 0.620876 0.926002
vt 0.378297 0.480259
vt 0.622831 0.405771
vt 0.378055 0.180996
vt 0.483324 0.106672
vt 0.621927 0.106672
vt 0.379124 0.852960
vt 0.620876 0.852960
vt 0.377534 0.407023
vt 0.622628 0.332173
vt 0.376860 0.554318
vt 0.620863 0.555943
vt 0.378055 0.106672
vt 0.490994 0.370281
vt 0.420536 0.329918
vt 0.375000 0.750000
vt 0.487199 0.397610
vt 0.496651 0.388581
vt 0.464189 0.381871
vt 0.872756 0.774419
vt 0.487620 0.390732
vt 0.128949 0.773626
vt 0.479995 0.376487
vt 0.464189 0.354281
vt 0.496651 0.360990
vt 0.483209 0.350238
vt 0.520723 0.370281
vt 0.417617 0.419461
vt 0.823369 0.646826
vt 0.811742 0.608285
vt 0.442230 0.514087
vt 0.504746 0.397610
vt 0.820307 0.598304
vt 0.854827 0.738937
vt 0.432052 0.523786
vt 0.487620 0.390732
vt 0.522488 0.350984
vt 0.376860 0.628545
vt 0.379124 0.779918
vt 0.376770 0.333788
vn -0.9994 -0.0271 0.0221
vn -0.0074 -0.9949 -0.1002
vn 1.0000 0.0088 -0.0001
vn 0.0053 1.0000 0.0038
vn -0.0247 -0.1281 -0.9915
vn 0.0002 -1.0000 0.0011
vn 0.1284 -0.9898 -0.0615
vn 0.9999 0.0133 -0.0024
vn -0.0164 -0.9997 -0.0166
vn 0.0080 0.0756 0.9971
vn 0.9994 0.0252 -0.0245
vn -0.0003 0.0160 0.9999
vn -0.0163 0.9939 -0.1088
vn -0.9998 -0.0171 0.0043
vn 0.0017 -0.0261 0.9997
vn 1.0000 0.0083 -0.0001
vn -0.0074 -0.9967 -0.0803
vn 0.0154 -0.9998 0.0161
vn 0.0008 0.0258 0.9997
vn -0.0012 -0.0043 1.0000
vn -0.0061 -0.0504 -0.9987
vn 0.0534 -0.9966 -0.0634
vn 0.2533 -0.8055 -0.5358
vn -0.1014 0.8872 -0.4502
vn 0.5609 0.8104 0.1696
vn -0.0157 0.9994 -0.0313
vn -0.9027 -0.3998 0.1588
vn -0.3671 0.4205 -0.8297
vn 0.0192 -0.0792 0.9967
vn -0.0630 -0.6347 0.7702
vn -0.1621 0.3573 -0.9198
vn 0.9889 0.1436 -0.0385
vn 0.0502 0.0709 0.9962
vn 0.4801 -0.7048 -0.5222
vn -0.8372 0.3857 0.3877
vn -0.8323 0.5172 0.1996
vn 0.4674 -0.2703 0.8417
vn -1.0000 -0.0010 -0.0033
vn 0.3362 0.9210 -0.1968
vn -0.3336 0.9175 -0.2166
vn -0.0262 0.1427 -0.9894
vn 0.5046 0.8631 0.0213
vn 0.0568 0.9581 0.2807
vn 0.0427 -0.9990 -0.0111
vn 0.1127 -0.9678 -0.2250
vn 0.2707 0.9624 0.0224
vn -0.2490 0.9682 0.0241
vn 0.4083 0.7915 0.4548
vn 0.1618 -0.9698 -0.1823
vn -0.3086 0.5847 0.7503
vn -0.6129 0.6463 0.4546
vn -0.9997 -0.0116 0.0231
vn 0.2586 0.9656 -0.0260
vn 0.3375 -0.7518 -0.5665
vn -0.2056 -0.9758 0.0748
vn 0.0988 0.9828 -0.1559
vn 0.9514 0.2668 0.1536
vn -0.0956 -0.9908 0.0962
vn -0.0879 -0.9942 -0.0617
vn 0.3657 -0.8122 -0.4546
vn -0.0068 0.4737 -0.8807
vn -0.0233 -0.9996 -0.0129
vn 0.0122 -0.9976 -0.0687
vn -0.0562 -0.9984 0.0014
vn 0.0500 -0.9972 -0.0551
vn -0.9436 0.1437 0.2982
vn -0.0411 -0.9960 -0.0795
vn 0.0351 0.1314 0.9907
vn 0.0528 -0.9978 -0.0394
vn 1.0000 0.0006 0.0038
vn 0.9999 0.0140 0.0031
vn -1.0000 -0.0094 0.0004
vn -0.9999 -0.0139 -0.0024
vn -0.0590 -0.9965 -0.0586
vn -0.0046 -0.9995 -0.0303
vn -0.0554 -0.9968 -0.0571
vn -0.0244 -0.9965 -0.0803
vn -1.0000 -0.0078 0.0002
vn -1.0000 -0.0003 0.0052
vn 0.9845 0.1752 0.0011
vn 1.0000 0.0003 -0.0054
vn -0.9953 -0.0968 0.0046
vn -0.0517 0.3223 0.9452
vn 0.3558 0.4159 -0.8369
vn 0.8771 0.4224 -0.2285
vn -0.9523 -0.1618 -0.2588
vn -0.0381 0.4597 0.8873
vn -0.0337 0.9779 -0.2063
vn 0.2480 0.9685 -0.0212
vn -0.1961 -0.9805 0.0156
vn 0.1074 0.9780 -0.1790
vn 0.0001 -0.0143 -0.9999
vn 0.0194 0.0709 0.9973
vn 0.9990 0.0404 -0.0204
vn -1.0000 0.0040 0.0079
vn 0.0181 0.1339 0.9908
vn -0.0182 -0.0578 -0.9982
vn -0.9993 -0.0362 0.0073
vn -0.9996 0.0296 -0.0005
vn 0.0031 -0.0263 0.9996
vn 0.0096 0.0723 0.9973
vn -0.0063 0.0658 -0.9978
vn 0.9996 0.0292 -0.0047
vn -0.9999 0.0092 -0.0047
vn -0.0002 1.0000 -0.0034
vn -0.0166 -0.1521 -0.9882
vn -0.0018 -1.0000 -0.0001
vn 0.1310 -0.9893 -0.0642
vn 0.9999 0.0119 -0.0035
vn -0.0009 0.0886 0.9961
vn 0.9998 0.0103 -0.0180
vn 0.0022 0.0199 0.9998
vn -0.0290 0.9950 -0.0955
vn -0.9998 -0.0175 0.0040
vn 0.0141 -0.0219 0.9997
vn -0.0048 -0.9965 -0.0830
vn 0.0139 -0.9998 0.0169
vn 0.0017 -0.0565 -0.9984
vn 0.0694 -0.9956 -0.0634
vn -0.0139 0.9993 -0.0337
vn -0.9045 -0.4012 0.1448
vn -0.0712 0.8985 -0.4331
vn -0.2021 -0.1767 0.9633
vn -0.3630 -0.5209 0.7726
vn -0.1661 0.4208 -0.8918
vn 0.9868 0.1557 0.0449
vn 0.0349 -0.4309 0.9017
vn 0.2715 -0.7897 -0.5501
vn -1.0000 -0.0045 -0.0060
vn 0.2473 0.9262 -0.2847
vn -0.4724 0.8317 -0.2916
vn -0.0379 0.1443 -0.9888
vn 0.9200 0.2941 0.2590
vn 0.0276 0.9787 0.2033
vn 0.0045 -0.9766 -0.2150
vn -0.1457 0.9883 0.0456
vn 0.3191 0.8857 0.3371
vn 0.1648 -0.9817 -0.0956
vn 0.1042 0.6708 0.7343
vn -0.6738 0.7107 0.2023
vn -0.9993 -0.0235 0.0287
vn 0.3758 -0.7939 -0.4780
vn 0.8981 0.4357 0.0597
vn -0.1561 -0.9808 0.1167
vn -0.0343 0.4861 -0.8732
vn -0.8865 -0.3864 0.2544
vn 0.0192 0.0838 0.9963
vn 1.0000 0.0023 0.0051
vn 0.9850 0.1682 -0.0372
vn -0.9481 -0.1977 0.2492
vn -0.0021 -0.0160 -0.9999
vn 0.0034 0.0322 0.9995
vn 1.0000 0.0018 -0.0056
vn -0.9993 -0.0281 0.0245
vn -0.0045 -0.1023 -0.9947
vn -0.9989 -0.0419 0.0231
vn -0.9999 0.0136 0.0077
vn 0.0028 -0.0271 0.9996
vn 0.0196 0.0738 0.9971
vn -0.0042 0.0592 -0.9982
vn 0.9996 0.0272 -0.0054
vn -1.0000 -0.0026 0.0084
s off
f 4/1/1 75/2/1 78/3/1
f 7/4/2 18/5/2 17/6/2
f 25/7/3 29/8/3 20/9/3
f 34/10/4 24/11/4 23/12/4
f 8/13/5 75/14/5 4/15/5
f 28/16/6 21/17/6 27/18/6
f 41/19/7 35/20/7 37/21/7
f 16/22/8 25/7/8 20/9/8
f 12/23/9 9/24/9 1/25/9
f 23/26/10 12/27/10 10/28/10
f 6/29/11 79/30/11 8/31/11
f 13/32/12 25/33/12 11/34/12
f 4/35/13 6/36/13 8/37/13
f 26/38/14 18/39/14 22/40/14
f 5/41/15 82/42/15 9/43/15
f 24/44/16 27/45/16 21/46/16
f 13/47/17 17/6/17 18/5/17
f 29/48/18 22/49/18 20/50/18
f 32/51/19 29/52/19 31/53/19
f 28/54/20 33/55/20 34/56/20
f 17/57/21 19/58/21 15/59/21
f 11/60/22 9/24/22 13/61/22
f 66/62/23 47/63/23 51/64/23
f 45/65/24 40/66/24 46/67/24
f 40/66/25 43/68/25 46/67/25
f 26/69/26 31/70/26 25/71/26
f 53/72/27 45/73/27 54/74/27
f 71/75/28 62/76/28 74/77/28
f 35/78/29 53/79/29 37/80/29
f 43/81/30 53/82/30 56/83/30
f 42/84/31 71/85/31 74/86/31
f 46/87/32 56/88/32 55/89/32
f 47/63/33 49/90/33 51/64/33
f 47/63/34 58/91/34 63/92/34
f 64/93/35 50/94/35 49/90/35
f 68/95/36 50/94/36 65/96/36
f 63/92/37 48/97/37 47/63/37
f 23/98/38 15/99/38 19/100/38
f 38/101/39 40/102/39 42/84/39
f 61/103/40 65/96/40 62/76/40
f 41/104/41 55/89/41 39/105/41
f 72/106/42 60/107/42 57/108/42
f 59/109/43 60/107/43 73/110/43
f 69/111/44 61/103/44 71/75/44
f 58/91/45 61/103/45 69/111/45
f 73/110/46 60/107/46 70/112/46
f 62/76/47 59/109/47 73/110/47
f 57/108/48 67/113/48 63/92/48
f 57/108/49 58/91/49 69/111/49
f 59/109/50 48/97/50 67/113/50
f 50/94/51 59/109/51 65/96/51
f 2/114/52 78/3/52 76/115/52
f 38/116/53 70/112/53 36/117/53
f 58/91/54 52/118/54 68/95/54
f 44/119/55 71/75/55 45/120/55
f 38/116/56 74/77/56 73/110/56
f 43/121/57 70/122/57 72/123/57
f 44/119/58 72/106/58 69/111/58
f 69/111/59 72/106/59 57/108/59
f 66/62/60 51/64/60 52/118/60
f 54/124/61 46/87/61 55/89/61
f 14/125/62 3/126/62 15/127/62
f 3/126/63 7/4/63 17/6/63
f 15/127/64 3/126/64 17/6/64
f 7/4/65 5/128/65 11/60/65
f 49/90/66 52/118/66 51/64/66
f 11/60/67 16/129/67 7/4/67
f 2/130/68 80/131/68 6/132/68
f 7/4/69 16/129/69 18/5/69
f 17/133/70 24/44/70 21/46/70
f 25/7/71 31/134/71 29/8/71
f 22/40/72 30/135/72 26/38/72
f 30/135/73 32/136/73 26/38/73
f 10/137/74 12/23/74 1/25/74
f 12/23/75 13/61/75 9/24/75
f 1/25/76 14/138/76 10/137/76
f 14/138/77 15/139/77 10/137/77
f 19/100/78 28/140/78 23/98/78
f 28/140/79 34/141/79 23/98/79
f 55/89/80 35/78/80 39/105/80
f 24/44/81 33/142/81 27/45/81
f 53/79/82 41/104/82 37/80/82
f 64/93/83 49/90/83 48/97/83
f 45/65/84 42/143/84 40/66/84
f 40/66/85 36/144/85 43/68/85
f 68/95/86 52/118/86 50/94/86
f 63/92/87 67/113/87 48/97/87
f 73/110/88 74/77/88 62/76/88
f 38/116/89 73/110/89 70/112/89
f 44/119/90 69/111/90 71/75/90
f 38/116/91 42/145/91 74/77/91
f 20/146/92 18/147/92 16/148/92
f 76/149/93 82/42/93 80/131/93
f 77/150/94 86/151/94 79/30/94
f 76/115/95 85/152/95 83/153/95
f 80/131/96 77/154/96 6/132/96
f 79/155/97 81/156/97 75/14/97
f 78/3/98 81/157/98 85/152/98
f 83/153/99 14/158/99 1/159/99
f 83/160/100 9/43/100 82/42/100
f 84/161/101 80/131/101 82/42/101
f 86/162/102 3/163/102 81/156/102
f 86/151/103 5/164/103 7/165/103
f 85/152/104 3/166/104 14/158/104
f 34/10/105 33/167/105 24/11/105
f 8/13/106 79/155/106 75/14/106
f 28/16/107 19/168/107 21/17/107
f 41/19/108 39/169/108 35/20/108
f 16/22/109 11/170/109 25/7/109
f 23/26/110 24/171/110 12/27/110
f 6/29/111 77/150/111 79/30/111
f 13/32/112 26/172/112 25/33/112
f 4/35/113 2/173/113 6/36/113
f 26/38/114 13/174/114 18/39/114
f 5/41/115 84/161/115 82/42/115
f 13/47/116 12/175/116 17/6/116
f 29/48/117 30/176/117 22/49/117
f 32/51/19 30/177/19 29/52/19
f 28/54/20 27/178/20 33/55/20
f 17/57/118 21/179/118 19/58/118
f 11/60/119 5/128/119 9/24/119
f 26/69/120 32/180/120 31/70/120
f 53/72/121 44/181/121 45/73/121
f 71/75/122 61/103/122 62/76/122
f 35/78/123 56/88/123 53/79/123
f 43/81/124 44/182/124 53/82/124
f 42/84/125 45/183/125 71/85/125
f 46/87/126 43/184/126 56/88/126
f 47/63/127 48/97/127 49/90/127
f 47/63/128 66/62/128 58/91/128
f 23/98/129 10/185/129 15/99/129
f 38/101/130 36/186/130 40/102/130
f 61/103/131 68/95/131 65/96/131
f 41/104/132 54/124/132 55/89/132
f 72/106/133 70/112/133 60/107/133
f 59/109/134 67/113/134 60/107/134
f 58/91/135 68/95/135 61/103/135
f 62/76/136 65/96/136 59/109/136
f 57/108/137 60/107/137 67/113/137
f 57/108/138 63/92/138 58/91/138
f 59/109/139 64/93/139 48/97/139
f 50/94/140 64/93/140 59/109/140
f 2/114/141 4/1/141 78/3/141
f 58/91/142 66/62/142 52/118/142
f 43/121/143 36/186/143 70/122/143
f 44/119/144 43/187/144 72/106/144
f 54/124/145 45/188/145 46/87/145
f 49/90/146 50/94/146 52/118/146
f 2/130/147 76/149/147 80/131/147
f 17/133/148 12/189/148 24/44/148
f 55/89/149 56/88/149 35/78/149
f 53/79/150 54/124/150 41/104/150
f 20/146/151 22/190/151 18/147/151
f 76/149/152 83/160/152 82/42/152
f 77/150/153 84/191/153 86/151/153
f 76/115/154 78/3/154 85/152/154
f 79/155/155 86/162/155 81/156/155
f 78/3/156 75/2/156 81/157/156
f 83/153/157 85/152/157 14/158/157
f 83/160/158 1/192/158 9/43/158
f 84/161/159 77/154/159 80/131/159
f 86/162/160 7/193/160 3/163/160
f 86/151/161 84/191/161 5/164/161
f 85/152/162 81/157/162 3/166/162
