# Blender v3.2.1 OBJ File: 'Modeling.blend'
# www.blender.org
o Player_Cube.001
v -0.393452 0.218902 0.394455
v -0.393452 1.008009 0.397021
v -0.393452 0.218792 -0.392114
v -0.393452 1.002223 -0.389061
v 0.393452 0.218127 0.394079
v 0.393452 1.008903 0.397276
v 0.393452 0.218053 -0.391891
v 0.393452 1.001708 -0.389651
v 0.262301 0.218561 0.394184
v -0.262299 0.218579 0.087433
v 0.262301 0.218579 0.087433
v -0.087432 0.218579 0.087433
v 0.087434 0.218579 0.087433
v -0.393452 0.218702 -0.087099
v -0.262299 0.218579 -0.087435
v 0.262301 0.218579 -0.087435
v -0.087432 0.218579 -0.087435
v 0.087434 0.218579 -0.087435
v -0.262299 -0.000003 -0.087435
v 0.262301 -0.000003 -0.087435
v -0.087432 -0.000003 -0.087435
v 0.087434 -0.000003 -0.087435
v -0.262299 0.087430 0.087433
v -0.087432 0.087430 0.087433
v 0.262301 0.087430 0.087433
v 0.087434 0.087430 0.087433
v -0.087432 -0.000003 0.218583
v -0.262299 -0.000003 0.218583
v 0.262301 -0.000003 0.218583
v 0.087434 -0.000003 0.218583
v 0.262301 0.087430 0.218583
v 0.087434 0.087430 0.218583
v -0.087432 0.087430 0.218583
v -0.262299 0.087430 0.218583
v 0.032332 1.005105 0.027073
v 0.003910 1.244315 0.033550
v -0.012332 1.004967 0.026681
v -0.032311 1.253515 0.031388
v 0.032332 1.004451 -0.017653
v 0.000243 1.226300 0.003002
v -0.012332 1.004492 -0.017980
v -0.036871 1.235447 -0.009807
v 0.017658 1.216711 0.041191
v -0.031083 1.217052 0.020870
v -0.035892 1.204425 -0.014611
v 0.019302 1.208782 -0.013594
v -0.359975 1.210927 0.612209
v -0.365522 1.240735 0.614431
v -0.558678 1.238574 0.600038
v -0.611972 1.214786 0.404603
v -0.579497 1.165450 0.633332
v -0.606568 1.184276 0.403076
v -0.010394 1.142139 0.014961
v -0.020576 1.141352 -0.021442
v 0.023600 1.134866 -0.020407
v 0.024888 1.149957 0.021548
v -0.007594 1.267206 0.372465
v -0.355312 1.271883 0.347498
v -0.377065 1.379910 0.359226
v -0.074944 1.310832 0.300248
v -0.351566 1.243343 0.001855
v -0.282658 1.298616 0.071679
v -0.154958 1.310030 0.534811
v -0.522496 1.301752 0.550494
v -0.493510 1.338560 0.192908
v -0.461836 1.217711 0.487565
v -0.205190 1.357621 0.485452
v -0.537857 1.285345 0.143319
v -0.102341 1.253948 0.104185
v -0.002313 1.262405 0.102151
v -0.112299 1.228097 0.003043
v 0.002020 1.244204 0.113672
v -0.173890 1.336079 0.182361
v -0.103283 1.248275 0.004335
v -0.393452 0.747065 -0.387623
v -0.393452 0.751702 0.398239
v 0.393452 0.751367 0.398941
v -0.393452 0.747925 -0.287519
v 0.393452 0.746201 -0.388350
v 0.350756 0.751503 0.398798
v -0.393452 0.483974 -0.390221
v 0.306528 0.483807 0.395594
v -0.393452 0.484674 0.395345
v 0.393452 0.482551 0.396015
v -0.393452 0.485631 -0.186267
v 0.393452 0.482721 -0.390634
vt 0.378055 0.327070
vt 0.378055 0.255321
vt 0.412325 0.255321
vt 0.372848 0.560781
vt 0.128949 0.712673
vt 0.128949 0.712673
vt 0.487199 0.373660
vt 0.460442 0.357693
vt 0.522874 0.357693
vt 0.461264 0.370281
vt 0.490994 0.390240
vt 0.461264 0.390240
vt 0.379033 0.550957
vt 0.623034 0.479370
vt 0.623230 0.550419
vt 0.420536 0.376487
vt 0.450265 0.329918
vt 0.450265 0.376487
vt 0.375000 0.750000
vt 0.125000 0.500000
vt 0.375000 0.500000
vt 0.522874 0.397610
vt 0.280287 0.650828
vt 0.310545 0.771859
vt 0.128998 0.771859
vt 0.435004 0.388581
vt 0.496651 0.429966
vt 0.435004 0.429966
vt 0.623140 0.774427
vt 0.376860 0.702771
vt 0.622399 0.703300
vt 0.464189 0.381871
vt 0.525836 0.423257
vt 0.464189 0.423257
vt 0.872756 0.556499
vt 0.628474 0.773348
vt 0.628474 0.555428
vt 0.487620 0.370773
vt 0.517350 0.390732
vt 0.517350 0.357468
vt 0.620876 0.779918
vt 0.595027 0.852960
vt 0.581874 0.779918
vt 0.487620 0.370773
vt 0.465323 0.357468
vt 0.517350 0.357468
vt 0.128949 0.773626
vt 0.479995 0.376487
vt 0.509725 0.329918
vt 0.509725 0.376487
vt 0.464189 0.354281
vt 0.525836 0.381871
vt 0.464189 0.381871
vt 0.435004 0.360990
vt 0.496651 0.388581
vt 0.435004 0.388581
vt 0.483209 0.350238
vt 0.518884 0.390155
vt 0.483209 0.390155
vt 0.128949 0.773626
vt 0.295416 0.650828
vt 0.690855 0.601580
vt 0.720955 0.561581
vt 0.645084 0.561581
vt 0.487802 0.532021
vt 0.499065 0.526215
vt 0.504886 0.531542
vt 0.504388 0.516216
vt 0.520723 0.370281
vt 0.550453 0.390240
vt 0.520723 0.390240
vt 0.421523 0.423015
vt 0.416672 0.425767
vt 0.419592 0.429095
vt 0.811873 0.749619
vt 0.755398 0.725109
vt 0.815036 0.748557
vt 0.445009 0.520630
vt 0.436903 0.521033
vt 0.436536 0.520630
vt 0.839447 0.640919
vt 0.830172 0.653014
vt 0.841826 0.650634
vt 0.811682 0.606523
vt 0.795713 0.604342
vt 0.797723 0.603667
vt 0.442535 0.523492
vt 0.443596 0.519667
vt 0.443352 0.527173
vt 0.657356 0.572062
vt 0.732970 0.640298
vt 0.802944 0.586634
vt 0.674484 0.586634
vt 0.645084 0.629494
vt 0.674484 0.701620
vt 0.690518 0.687267
vt 0.720955 0.561581
vt 0.504746 0.373660
vt 0.469071 0.397610
vt 0.469071 0.357693
vt 0.812791 0.598503
vt 0.819388 0.604343
vt 0.732209 0.745865
vt 0.436536 0.528214
vt 0.445009 0.528214
vt 0.849909 0.716775
vt 0.827775 0.660324
vt 0.850963 0.639568
vt 0.792249 0.693992
vt 0.786910 0.600986
vt 0.815608 0.718989
vt 0.848653 0.719529
vt 0.732209 0.639568
vt 0.621927 0.327070
vt 0.621927 0.255321
vt 0.838755 0.740427
vt 0.850585 0.740115
vt 0.645084 0.629494
vt 0.838749 0.744845
vt 0.837104 0.755825
vt 0.823001 0.597556
vt 0.819079 0.585226
vt 0.819877 0.583477
vt 0.434972 0.527113
vt 0.131195 0.589875
vt 0.130889 0.560781
vt 0.128949 0.712673
vt 0.371061 0.772907
vt 0.128949 0.712673
vt 0.379124 0.996513
vt 0.608179 0.926002
vt 0.620876 0.996513
vt 0.517350 0.390732
vt 0.460442 0.373660
vt 0.465323 0.357468
vt 0.465323 0.370773
vt 0.250029 0.650828
vt 0.128998 0.590312
vt 0.250029 0.590312
vt 0.531503 0.357693
vt 0.531503 0.373660
vt 0.465323 0.370773
vt 0.487712 0.529427
vt 0.500418 0.517318
vt 0.837009 0.753053
vt 0.486812 0.350984
vt 0.522488 0.390900
vt 0.486812 0.390900
vt 0.379124 0.926002
vt 0.376860 0.628545
vt 0.621631 0.629622
vt 0.447825 0.180996
vt 0.621927 0.180996
vt 0.620876 0.926002
vt 0.378297 0.480259
vt 0.622831 0.405771
vt 0.378055 0.180996
vt 0.483324 0.106672
vt 0.621927 0.106672
vt 0.379124 0.852960
vt 0.620876 0.852960
vt 0.377534 0.407023
vt 0.622628 0.332173
vt 0.376860 0.554318
vt 0.620863 0.555943
vt 0.378055 0.106672
vt 0.490994 0.370281
vt 0.420536 0.329918
vt 0.125000 0.750000
vt 0.487199 0.397610
vt 0.496651 0.388581
vt 0.376860 0.774427
vt 0.525836 0.381871
vt 0.872756 0.774419
vt 0.487620 0.390732
vt 0.128949 0.773626
vt 0.479995 0.329918
vt 0.525836 0.354281
vt 0.496651 0.360990
vt 0.518884 0.350238
vt 0.550453 0.370281
vt 0.417617 0.419461
vt 0.823369 0.646826
vt 0.811742 0.608285
vt 0.442230 0.514087
vt 0.504746 0.397610
vt 0.820307 0.598304
vt 0.854827 0.738937
vt 0.432052 0.523786
vt 0.487620 0.390732
vt 0.522488 0.350984
vt 0.379124 0.779918
vt 0.376770 0.333788
vn -1.0000 0.0000 0.0000
vn -0.0000 -1.0000 0.0017
vn 1.0000 -0.0000 0.0000
vn 0.0000 1.0000 0.0000
vn -0.0008 -0.0056 -1.0000
vn 0.0000 -1.0000 -0.0000
vn -0.0010 -0.9999 0.0106
vn -0.0005 -1.0000 0.0005
vn 0.0000 0.0000 1.0000
vn 0.0006 1.0000 -0.0091
vn 0.0008 -0.0054 1.0000
vn 0.0000 -0.0000 -1.0000
vn -0.0000 -1.0000 -0.0001
vn 0.1803 -0.9631 -0.1998
vn -0.0387 0.6647 -0.7461
vn 0.6288 0.7720 -0.0928
vn -0.9299 -0.2546 0.2656
vn -0.2971 0.1926 -0.9352
vn -0.0090 0.0852 0.9963
vn -0.1127 -0.2917 0.9498
vn -0.1797 0.1426 -0.9733
vn 0.9966 0.0628 -0.0532
vn 0.0018 0.4139 0.9103
vn 0.3630 -0.9094 -0.2030
vn -0.8033 0.5767 0.1488
vn -0.7514 0.6589 -0.0352
vn 0.3547 -0.0037 0.9350
vn 0.3489 0.8434 -0.4085
vn -0.1423 0.8396 -0.5242
vn 0.0073 -0.0206 -0.9998
vn 0.5807 0.8126 -0.0507
vn 0.2894 0.9564 -0.0381
vn -0.0628 -0.9654 0.2529
vn 0.0086 -0.9966 0.0824
vn 0.3538 0.9302 -0.0977
vn -0.0407 0.9579 -0.2842
vn 0.5197 0.8149 0.2568
vn -0.0174 -0.9983 0.0555
vn -0.2376 0.8482 0.4733
vn -0.5431 0.8210 0.1761
vn 0.2525 0.9410 -0.2252
vn 0.2571 -0.9217 -0.2906
vn -0.2017 -0.9138 0.3525
vn 0.0900 0.9069 -0.4116
vn 0.9528 0.2878 0.0964
vn -0.1167 -0.9412 0.3170
vn -0.1002 -0.9914 0.0844
vn 0.2849 -0.9521 -0.1113
vn 0.0371 0.0939 -0.9949
vn -0.0009 -1.0000 -0.0003
vn -0.0009 -1.0000 0.0002
vn 0.0000 -1.0000 -0.0007
vn -0.0037 -1.0000 0.0001
vn -0.9346 0.3283 0.1367
vn -0.0040 -1.0000 0.0000
vn -0.0003 0.0060 1.0000
vn 0.0000 -1.0000 0.0011
vn -0.0015 -1.0000 0.0004
vn -0.0009 -1.0000 0.0000
vn 0.9978 0.0668 -0.0010
vn -0.9999 0.0141 -0.0002
vn -0.0643 0.6384 0.7671
vn 0.3560 0.1540 -0.9217
vn 0.8818 0.3523 -0.3136
vn -0.9396 -0.1510 -0.3073
vn 0.0187 0.7292 0.6841
vn 0.1018 0.9076 -0.4073
vn 0.2870 0.9278 -0.2382
vn -0.1860 -0.9474 0.2605
vn 0.0886 0.9085 -0.4083
vn -0.0008 -0.0118 0.9999
vn -0.0033 0.0065 1.0000
vn -0.0009 0.0099 -1.0000
vn -0.0004 -0.0053 1.0000
vn -0.0050 -0.0111 0.9999
vn -0.0005 0.0071 -1.0000
vn -0.0009 -0.0051 -1.0000
vn 0.0030 -0.9999 0.0146
vn -0.0011 1.0000 -0.0074
vn -0.0050 -0.0073 1.0000
vn -0.0033 -1.0000 -0.0001
vn -0.9345 -0.2758 0.2248
vn 0.0515 0.7577 -0.6506
vn -0.1894 0.0277 0.9815
vn -0.3798 -0.1765 0.9081
vn -0.1799 0.1450 -0.9729
vn 0.9945 0.1033 0.0149
vn -0.0730 -0.0876 0.9935
vn 0.2012 -0.9553 -0.2164
vn 0.2398 0.8234 -0.5144
vn -0.2693 0.7671 -0.5823
vn 0.0199 -0.0241 -0.9995
vn 0.8991 0.3661 0.2402
vn 0.1665 0.9846 -0.0528
vn -0.1614 -0.9837 0.0795
vn 0.0320 0.9645 -0.2622
vn 0.4615 0.8813 0.1019
vn -0.0296 -0.9728 0.2298
vn 0.1478 0.8711 0.4684
vn -0.5862 0.8015 -0.1182
vn 0.2987 -0.9443 -0.1380
vn 0.8983 0.4380 -0.0340
vn -0.1417 -0.9353 0.3242
vn 0.0096 0.1100 -0.9939
vn -0.9430 -0.1810 0.2792
vn -0.0008 0.0048 1.0000
vn 0.9976 0.0494 -0.0484
vn -0.9615 -0.0511 0.2700
vn -0.0004 -0.0108 0.9999
vn -0.0005 0.0087 -1.0000
vn 0.0004 -0.0034 1.0000
vn -0.0034 -0.0109 0.9999
vn 0.0003 0.0048 -1.0000
s off
f 4/1/1 75/2/1 78/3/1
f 7/4/2 18/5/2 17/6/2
f 25/7/3 29/8/3 20/9/3
f 34/10/4 24/11/4 23/12/4
f 8/13/5 75/14/5 4/15/5
f 28/16/6 21/17/6 27/18/6
f 39/19/7 37/20/7 41/21/7
f 16/22/3 25/7/3 20/9/3
f 12/23/8 9/24/8 1/25/8
f 23/26/9 12/27/9 10/28/9
f 8/29/3 77/30/3 79/31/3
f 26/32/9 11/33/9 13/34/9
f 4/35/10 6/36/10 8/37/10
f 26/38/1 18/39/1 22/40/1
f 5/41/11 82/42/11 9/43/11
f 24/44/3 27/45/3 21/46/3
f 18/5/6 12/47/6 17/6/6
f 30/48/6 20/49/6 29/50/6
f 30/51/9 31/52/9 32/53/9
f 28/54/9 33/55/9 34/56/9
f 21/57/12 15/58/12 17/59/12
f 11/60/13 9/24/13 13/61/13
f 66/62/14 47/63/14 51/64/14
f 45/65/15 40/66/15 46/67/15
f 40/66/16 43/68/16 46/67/16
f 32/69/4 25/70/4 26/71/4
f 53/72/17 45/73/17 54/74/17
f 71/75/18 62/76/18 74/77/18
f 35/78/19 53/79/19 37/80/19
f 43/81/20 53/82/20 56/83/20
f 42/84/21 71/85/21 74/86/21
f 46/87/22 56/88/22 55/89/22
f 47/63/23 49/90/23 51/64/23
f 47/63/24 58/91/24 63/92/24
f 64/93/25 50/94/25 49/90/25
f 68/95/26 50/94/26 65/96/26
f 63/92/27 48/97/27 47/63/27
f 23/98/1 15/99/1 19/100/1
f 38/101/28 40/102/28 42/84/28
f 61/103/29 65/96/29 62/76/29
f 41/104/30 55/89/30 39/105/30
f 72/106/31 60/107/31 57/108/31
f 73/109/32 67/110/32 60/107/32
f 69/111/33 61/103/33 71/75/33
f 58/91/34 61/103/34 69/111/34
f 73/109/35 60/107/35 70/112/35
f 62/76/36 59/113/36 73/109/36
f 57/108/37 67/110/37 63/92/37
f 57/108/38 58/91/38 69/111/38
f 59/113/39 48/97/39 67/110/39
f 50/94/40 59/113/40 65/96/40
f 2/114/1 78/3/1 76/115/1
f 38/116/41 70/112/41 36/117/41
f 58/91/42 52/118/42 68/95/42
f 44/119/43 71/75/43 45/120/43
f 38/116/44 74/77/44 73/109/44
f 43/121/45 70/122/45 72/123/45
f 44/119/46 72/106/46 69/111/46
f 69/111/47 72/106/47 57/108/47
f 66/62/48 51/64/48 52/118/48
f 54/124/49 46/87/49 55/89/49
f 14/125/50 3/126/50 15/127/50
f 3/126/51 7/4/51 17/6/51
f 15/127/52 3/126/52 17/6/52
f 7/4/53 5/128/53 11/60/53
f 49/90/54 52/118/54 51/64/54
f 11/60/55 16/129/55 7/4/55
f 2/130/56 80/131/56 6/132/56
f 7/4/2 16/129/2 18/5/2
f 17/133/3 24/44/3 21/46/3
f 25/7/3 31/134/3 29/8/3
f 22/40/1 30/135/1 26/38/1
f 30/135/1 32/136/1 26/38/1
f 10/137/57 12/23/57 1/25/57
f 12/23/13 13/61/13 9/24/13
f 1/25/58 14/138/58 10/137/58
f 14/138/59 15/139/59 10/137/59
f 19/100/1 28/140/1 23/98/1
f 28/140/1 34/141/1 23/98/1
f 55/89/60 35/78/60 39/105/60
f 24/44/3 33/142/3 27/45/3
f 53/79/61 41/104/61 37/80/61
f 64/93/62 49/90/62 48/97/62
f 45/65/63 42/143/63 40/66/63
f 40/66/64 36/144/64 43/68/64
f 68/95/65 52/118/65 50/94/65
f 63/92/66 67/110/66 48/97/66
f 73/109/67 74/77/67 62/76/67
f 38/116/68 73/109/68 70/112/68
f 44/119/69 69/111/69 71/75/69
f 38/116/70 42/145/70 74/77/70
f 20/146/12 18/147/12 16/148/12
f 76/149/71 82/42/71 80/131/71
f 79/31/3 84/150/3 86/151/3
f 76/115/1 85/152/1 83/153/1
f 80/131/72 77/154/72 6/132/72
f 79/155/73 81/156/73 75/14/73
f 78/3/1 81/157/1 85/152/1
f 83/153/1 14/158/1 1/159/1
f 83/160/74 9/43/74 82/42/74
f 84/161/75 80/131/75 82/42/75
f 86/162/76 3/163/76 81/156/76
f 86/151/3 5/164/3 7/165/3
f 85/152/1 3/166/1 14/158/1
f 34/10/4 33/167/4 24/11/4
f 8/13/77 79/155/77 75/14/77
f 28/16/6 19/168/6 21/17/6
f 39/19/78 35/169/78 37/20/78
f 16/22/3 11/170/3 25/7/3
f 23/26/9 24/171/9 12/27/9
f 8/29/3 6/172/3 77/30/3
f 26/32/9 25/173/9 11/33/9
f 4/35/79 2/174/79 6/36/79
f 26/38/1 13/175/1 18/39/1
f 5/41/80 84/161/80 82/42/80
f 18/5/6 13/176/6 12/47/6
f 30/48/6 22/177/6 20/49/6
f 30/51/9 29/178/9 31/52/9
f 28/54/9 27/179/9 33/55/9
f 21/57/12 19/180/12 15/58/12
f 11/60/81 5/128/81 9/24/81
f 32/69/4 31/181/4 25/70/4
f 53/72/82 44/182/82 45/73/82
f 71/75/83 61/103/83 62/76/83
f 35/78/84 56/88/84 53/79/84
f 43/81/85 44/183/85 53/82/85
f 42/84/86 45/184/86 71/85/86
f 46/87/87 43/185/87 56/88/87
f 47/63/88 48/97/88 49/90/88
f 47/63/89 66/62/89 58/91/89
f 23/98/1 10/186/1 15/99/1
f 38/101/90 36/187/90 40/102/90
f 61/103/91 68/95/91 65/96/91
f 41/104/92 54/124/92 55/89/92
f 72/106/93 70/112/93 60/107/93
f 73/109/94 59/113/94 67/110/94
f 58/91/95 68/95/95 61/103/95
f 62/76/96 65/96/96 59/113/96
f 57/108/97 60/107/97 67/110/97
f 57/108/98 63/92/98 58/91/98
f 59/113/99 64/93/99 48/97/99
f 50/94/100 64/93/100 59/113/100
f 2/114/1 4/1/1 78/3/1
f 58/91/101 66/62/101 52/118/101
f 43/121/102 36/187/102 70/122/102
f 44/119/103 43/188/103 72/106/103
f 54/124/104 45/189/104 46/87/104
f 49/90/105 50/94/105 52/118/105
f 2/130/106 76/149/106 80/131/106
f 17/133/3 12/190/3 24/44/3
f 55/89/107 56/88/107 35/78/107
f 53/79/108 54/124/108 41/104/108
f 20/146/12 22/191/12 18/147/12
f 76/149/109 83/160/109 82/42/109
f 79/31/3 77/30/3 84/150/3
f 76/115/1 78/3/1 85/152/1
f 79/155/110 86/162/110 81/156/110
f 78/3/1 75/2/1 81/157/1
f 83/153/1 85/152/1 14/158/1
f 83/160/111 1/192/111 9/43/111
f 84/161/112 77/154/112 80/131/112
f 86/162/113 7/193/113 3/163/113
f 86/151/3 84/150/3 5/164/3
f 85/152/1 81/157/1 3/166/1
