# Blender v3.2.1 OBJ File: 'Modeling.blend'
# www.blender.org
o Obelisk_Cube.027
v -0.083456 1.116065 -0.558594
v 0.558594 1.116065 -0.083456
v -0.558594 1.116065 0.083456
v 0.083456 1.116065 0.558594
v 0.000000 1.730192 0.000000
v 0.000000 0.000000 0.000000
v 0.424768 1.193973 0.012213
v 0.085082 1.567429 0.062963
v 0.402649 1.193973 -0.135832
v -0.424768 1.193973 -0.012213
v -0.085082 1.567429 -0.062963
v -0.402649 1.193973 0.135832
v -0.012213 1.193973 0.424768
v -0.435972 1.028566 0.135248
v -0.058335 0.274051 0.078828
v 0.435972 1.028566 -0.135248
v 0.058335 0.274051 -0.078828
v 0.001915 1.028566 -0.456465
v -0.456465 1.028566 -0.001915
v 0.135248 1.028566 0.435972
v 0.135832 1.193973 0.402649
v 0.012213 1.193973 -0.424768
v 0.062963 1.567429 -0.085082
v -0.135832 1.193973 -0.402649
v -0.062963 1.567429 0.085082
v -0.001915 1.028566 0.456465
v -0.135248 1.028566 -0.435972
v -0.078828 0.274051 -0.058335
v 0.456465 1.028566 0.001915
v 0.078828 0.274051 0.058335
v -0.080074 1.053127 -0.395142
v -0.023654 0.298612 -0.017505
v -0.401291 1.053127 0.038916
v -0.030502 1.147276 -0.367046
v 0.020248 1.520732 -0.027361
v 0.391730 1.055180 -0.075464
v 0.039543 1.137393 0.354830
v -0.350893 1.137393 0.065895
v 0.360903 1.142306 -0.035049
v 0.067878 1.058557 0.386116
v -0.042306 1.094229 -0.279793
v 0.279793 1.094229 -0.042306
v -0.279793 1.094229 0.042306
v 0.042306 1.094229 0.279793
v 0.000000 0.462365 0.000000
v 0.000000 1.335981 0.000000
vt 0.414008 0.950650
vt 0.471892 0.953722
vt 0.485999 0.950650
vt 0.450003 0.968448
vt 0.428114 0.953722
vt 0.450003 0.974866
vt 0.414008 0.950650
vt 0.471892 0.953722
vt 0.485999 0.950650
vt 0.450003 0.968448
vt 0.428114 0.953722
vt 0.485999 0.950650
vt 0.428114 0.953722
vt 0.450003 0.968448
vt 0.471892 0.953722
vt 0.428114 0.953722
vt 0.414008 0.950650
vt 0.450003 0.968448
vt 0.471892 0.953722
vt 0.450003 0.917447
vt 0.425668 0.947200
vt 0.450003 0.906641
vt 0.474338 0.947200
vt 0.450003 0.917447
vt 0.474338 0.947200
vt 0.425668 0.947200
vt 0.450003 0.917447
vt 0.425668 0.947200
vt 0.474338 0.947200
vt 0.450003 0.917447
vt 0.425668 0.947200
vt 0.474338 0.947200
vt 0.459543 0.968448
vt 0.474271 0.951684
vt 0.481432 0.953722
vt 0.440463 0.968448
vt 0.425046 0.951880
vt 0.418574 0.953722
vt 0.440463 0.968448
vt 0.428114 0.951491
vt 0.418574 0.953722
vt 0.459543 0.968448
vt 0.473590 0.951491
vt 0.481432 0.953722
vt 0.458842 0.917447
vt 0.474338 0.948382
vt 0.450003 0.918416
vt 0.441164 0.917447
vt 0.425668 0.948168
vt 0.416830 0.947200
vt 0.447351 0.918416
vt 0.441164 0.917447
vt 0.425668 0.955267
vt 0.474338 0.951962
vt 0.423533 0.951400
vt 0.425668 0.926240
vt 0.474338 0.928947
vt 0.474338 0.926240
vt 0.423016 0.948168
vt 0.416830 0.947200
vt 0.418574 0.953722
vt 0.450003 0.966607
vt 0.428114 0.927003
vt 0.473590 0.931177
vt 0.425046 0.931177
vt 0.418574 0.953722
vt 0.446935 0.966607
vt 0.418574 0.950330
vt 0.428114 0.951371
vt 0.416830 0.930107
vt 0.425668 0.928947
vt 0.423533 0.948249
vt 0.416830 0.947200
vt 0.483177 0.930107
vt 0.483177 0.951400
vt 0.483177 0.947200
vt 0.474338 0.948168
vt 0.473590 0.951491
vt 0.481432 0.931177
vt 0.473590 0.950330
vt 0.471892 0.951491
vt 0.471892 0.954504
vt 0.458842 0.917447
vt 0.475623 0.948382
vt 0.483177 0.947200
vt 0.474338 0.948249
vt 0.428114 0.951880
vt 0.428114 0.951684
vt 0.423016 0.948168
vt 0.875000 0.500000
vt 0.625000 0.750000
vt 0.875000 0.750000
vt 0.520833 0.760417
vt 0.520833 0.760417
vt 0.520833 0.760417
vt 0.520833 0.760417
vt 0.520833 0.760417
vt 0.520833 0.760417
vt 0.483177 0.947200
vt 0.416830 0.947200
vt 0.474338 0.955267
vt 0.471892 0.927003
vt 0.418574 0.931177
vt 0.416830 0.951400
vt 0.481432 0.953722
vt 0.481432 0.950330
vt 0.481432 0.953722
vt 0.428114 0.954504
vt 0.483177 0.947200
vt 0.625000 0.500000
vn 0.6739 0.5452 0.4987
vn 0.4987 0.5452 -0.6739
vn -0.6739 0.5452 -0.4987
vn -0.4987 0.5452 0.6739
vn -0.5601 -0.3369 0.7568
vn 0.5601 -0.3369 -0.7568
vn -0.7568 -0.3369 -0.5601
vn 0.7568 -0.3369 0.5601
vn -0.3125 -0.4013 0.8610
vn 0.8610 -0.4013 0.3125
vn 0.4266 -0.4913 -0.7594
vn -0.8610 -0.4013 -0.3125
vn -0.9287 0.2549 -0.2694
vn 0.6238 0.3866 0.6792
vn 0.4773 0.3006 -0.8257
vn -0.2202 -0.9642 -0.1474
vn 0.2708 -0.9415 0.2004
vn -0.6502 0.3006 0.6978
vn -0.4766 -0.5552 0.6816
vn 0.3181 0.9128 0.2562
vn -0.5505 -0.4013 -0.7320
vn -0.2800 0.8964 0.3436
vn -0.1358 -0.9690 0.2066
vn -0.6978 0.3006 -0.6502
vn 0.1740 -0.9563 -0.2351
vn 0.8319 0.3866 0.3981
vn 0.6216 -0.4449 0.6448
vn 0.3243 0.8383 -0.4382
vn 0.8352 -0.3667 -0.4099
vn -0.3711 0.8806 -0.2948
vn 0.6502 0.3006 -0.6978
vn -0.5060 0.3386 0.7933
vn -0.5627 -0.5033 0.6558
vn -0.6789 -0.4684 -0.5655
vn 0.6674 -0.5573 0.4939
vn 0.5927 -0.0986 -0.7994
vn 0.0000 -1.0000 0.0000
vn 0.6200 0.6376 0.4572
vn 0.4572 0.6376 -0.6200
vn -0.6200 0.6376 -0.4572
vn -0.4572 0.6376 0.6200
vn 0.7673 -0.3019 0.5658
vn -0.7673 -0.3019 -0.5658
vn -0.5658 -0.3019 0.7673
vn 0.5658 -0.3019 -0.7673
vn -0.5518 -0.5101 0.6598
vn 0.1479 -0.3667 -0.9185
vn -0.7983 -0.4449 -0.4060
vn -0.7356 0.3464 -0.5821
vn -0.2708 -0.9415 -0.2004
vn 0.3789 0.8819 0.2804
vn -0.6287 -0.5549 -0.5449
vn -0.3243 0.8383 0.4382
vn -0.2004 -0.9415 0.2708
vn -0.5369 0.2326 -0.8110
vn 0.1533 -0.9694 -0.1920
vn 0.5505 -0.4013 0.7320
vn 0.6015 -0.4913 -0.6300
vn -0.4382 0.8383 -0.3243
vn 0.6123 0.3120 -0.7264
vn -0.6447 0.3726 0.6675
vn -0.5604 0.0483 0.8268
vn -0.8185 -0.0233 -0.5741
vn 0.6944 -0.5155 0.5021
vn 0.5916 -0.1046 -0.7994
s off
f 2/1/1 21/2/1 4/3/1
f 2/1/1 8/4/1 7/5/1
f 4/3/1 8/4/1 5/6/1
f 1/7/2 9/8/2 2/9/2
f 1/7/2 23/10/2 22/11/2
f 2/9/2 23/10/2 5/6/2
f 3/12/3 24/13/3 1/7/3
f 3/12/3 11/14/3 10/15/3
f 1/7/3 11/14/3 5/6/3
f 4/3/4 12/16/4 3/17/4
f 4/3/4 25/18/4 13/19/4
f 3/17/4 25/18/4 5/6/4
f 3/17/5 15/20/5 14/21/5
f 4/3/5 15/20/5 6/22/5
f 3/17/5 26/23/5 4/3/5
f 2/9/6 17/24/6 16/25/6
f 1/7/6 17/24/6 6/22/6
f 2/9/6 18/26/6 1/7/6
f 1/7/7 28/27/7 27/28/7
f 3/12/7 28/27/7 6/22/7
f 1/7/7 19/29/7 3/12/7
f 2/1/8 30/30/8 6/22/8
f 4/3/8 29/31/8 2/1/8
f 4/3/8 30/30/8 20/32/8
f 8/33/9 39/34/9 7/35/9
f 23/36/10 34/37/10 22/38/10
f 11/39/11 38/40/11 10/41/11
f 25/42/12 37/43/12 13/44/12
f 15/45/13 40/46/13 32/47/13
f 17/48/14 31/49/14 32/47/14
f 19/50/15 32/51/15 28/52/15
f 29/53/16 40/54/16 36/55/16
f 27/56/17 33/57/17 19/58/17
f 28/52/18 31/59/18 27/60/18
f 24/61/19 35/62/19 11/39/19
f 24/63/20 38/64/20 34/65/20
f 9/66/21 35/67/21 23/36/21
f 9/68/22 34/65/22 39/69/22
f 18/70/23 36/55/23 31/71/23
f 17/48/24 36/72/24 16/73/24
f 14/74/25 40/54/25 26/75/25
f 14/76/26 32/47/26 33/77/26
f 25/42/27 38/78/27 35/67/27
f 12/79/28 37/80/28 38/64/28
f 8/33/29 37/81/29 35/62/29
f 21/82/30 39/69/30 37/80/30
f 30/83/31 40/84/31 20/85/31
f 30/83/32 36/86/32 32/51/32
f 34/87/33 36/86/33 39/34/33
f 39/88/34 40/46/34 37/43/34
f 31/49/35 38/78/35 33/77/35
f 38/40/36 40/84/36 33/89/36
f 42/90/37 43/91/37 41/92/37
f 44/93/38 42/94/38 46/95/38
f 42/94/39 41/96/39 46/95/39
f 41/96/40 43/97/40 46/95/40
f 43/97/41 44/93/41 46/95/41
f 45/98/42 42/94/42 44/93/42
f 41/96/43 45/98/43 43/97/43
f 45/98/44 44/93/44 43/97/44
f 45/98/45 41/96/45 42/94/45
f 2/1/1 7/5/1 21/2/1
f 2/1/1 5/6/1 8/4/1
f 4/3/1 21/2/1 8/4/1
f 1/7/2 22/11/2 9/8/2
f 1/7/2 5/6/2 23/10/2
f 2/9/2 9/8/2 23/10/2
f 3/12/3 10/15/3 24/13/3
f 3/12/3 5/6/3 11/14/3
f 1/7/3 24/13/3 11/14/3
f 4/3/4 13/19/4 12/16/4
f 4/3/4 5/6/4 25/18/4
f 3/17/4 12/16/4 25/18/4
f 3/17/5 6/22/5 15/20/5
f 4/3/5 26/23/5 15/20/5
f 3/17/5 14/21/5 26/23/5
f 2/9/6 6/22/6 17/24/6
f 1/7/6 18/26/6 17/24/6
f 2/9/6 16/25/6 18/26/6
f 1/7/7 6/22/7 28/27/7
f 3/12/7 19/29/7 28/27/7
f 1/7/7 27/28/7 19/29/7
f 2/1/8 29/31/8 30/30/8
f 4/3/8 20/32/8 29/31/8
f 4/3/8 6/22/8 30/30/8
f 8/33/46 35/62/46 39/34/46
f 23/36/10 35/67/10 34/37/10
f 11/39/47 35/62/47 38/40/47
f 25/42/48 35/67/48 37/43/48
f 15/45/49 26/99/49 40/46/49
f 17/48/14 18/100/14 31/49/14
f 19/50/15 33/89/15 32/51/15
f 29/53/50 20/101/50 40/54/50
f 27/56/17 31/71/17 33/57/17
f 28/52/18 32/51/18 31/59/18
f 24/61/19 34/87/19 35/62/19
f 24/63/51 10/102/51 38/64/51
f 9/66/52 39/88/52 35/67/52
f 9/68/53 22/103/53 34/65/53
f 18/70/54 16/104/54 36/55/54
f 17/48/55 32/47/55 36/72/55
f 14/74/56 33/57/56 40/54/56
f 14/76/26 15/45/26 32/47/26
f 25/42/57 12/105/57 38/78/57
f 12/79/28 13/106/28 37/80/28
f 8/33/58 21/107/58 37/81/58
f 21/82/59 7/108/59 39/69/59
f 30/83/60 32/51/60 40/84/60
f 30/83/61 29/109/61 36/86/61
f 34/87/62 31/59/62 36/86/62
f 39/88/63 36/72/63 40/46/63
f 31/49/64 34/37/64 38/78/64
f 38/40/65 37/81/65 40/84/65
f 42/90/37 44/110/37 43/91/37
