# Blender v3.2.1 OBJ File: 'Cube - Kopie.blend'
# www.blender.org
o Golem_Cube.013
v -0.107631 -0.000011 -0.261282
v -0.107631 0.215252 -0.261282
v -0.107631 -0.000011 -0.046020
v -0.107631 0.215252 -0.046020
v 0.107631 -0.000011 -0.261282
v 0.107631 0.215252 -0.261282
v 0.107631 -0.000011 -0.046020
v 0.107631 0.215252 -0.046020
v -0.267428 0.166373 0.361349
v -0.267428 0.858747 0.361349
v -0.267428 0.166373 -0.361349
v -0.267428 0.858747 -0.361349
v 0.267428 0.166373 0.361349
v 0.267428 0.858747 0.361349
v 0.267428 0.166373 -0.361349
v 0.267428 0.858747 -0.361349
v -0.450303 0.626424 0.189875
v -0.450303 1.006173 0.189875
v -0.450303 0.626424 -0.189875
v -0.450303 1.006173 -0.189875
v -0.070553 0.626424 0.189875
v -0.070553 1.006173 0.189875
v -0.070553 0.626424 -0.189875
v -0.070553 1.006173 -0.189875
v -0.133588 0.723804 0.608259
v -0.135194 0.986704 0.542598
v -0.136398 0.639321 0.270065
v -0.138004 0.902221 0.204405
v 0.137379 0.724832 0.605751
v 0.135773 0.987733 0.540090
v 0.134569 0.640350 0.267557
v 0.132963 0.903250 0.201896
v -0.073569 0.251019 0.655770
v -0.075100 0.713024 0.533005
v -0.074970 0.206546 0.511941
v -0.076501 0.686513 0.384811
v 0.076974 0.251615 0.654119
v 0.075444 0.713818 0.531440
v 0.075574 0.207142 0.510291
v 0.074043 0.687307 0.383246
v -0.107631 -0.000011 0.271579
v -0.107631 0.215252 0.271579
v -0.107631 -0.000011 0.056316
v -0.107631 0.215252 0.056316
v 0.107631 -0.000011 0.271579
v 0.107631 0.215252 0.271579
v 0.107631 -0.000011 0.056316
v 0.107631 0.215252 0.056316
v -0.146622 0.264543 -0.645473
v -0.089578 0.723015 -0.522709
v -0.153649 0.220607 -0.501644
v -0.094328 0.696896 -0.374514
v 0.002783 0.246052 -0.643822
v 0.059852 0.704721 -0.521144
v -0.004244 0.202116 -0.499994
v 0.055102 0.678601 -0.372949
v -0.146229 0.741122 -0.597963
v -0.114497 1.002105 -0.532302
v -0.159725 0.657677 -0.259769
v -0.127993 0.918660 -0.194108
v 0.122683 0.707796 -0.595454
v 0.154414 0.968779 -0.529793
v 0.109187 0.624351 -0.257260
v 0.140918 0.885334 -0.191600
vt 0.504793 0.327954
vt 0.496597 0.327954
vt 0.496597 0.336151
vt 0.504793 0.336151
vt 0.496597 0.344347
vt 0.313065 0.355978
vt 0.297352 0.355978
vt 0.297352 0.371691
vt 0.504793 0.352543
vt 0.496597 0.352543
vt 0.496597 0.360739
vt 0.488401 0.344347
vt 0.488401 0.352543
vt 0.328778 0.355978
vt 0.313065 0.371691
vt 0.313065 0.324552
vt 0.297352 0.324552
vt 0.297352 0.340265
vt 0.313065 0.340265
vt 0.297352 0.355978
vt 0.313065 0.355978
vt 0.297352 0.371691
vt 0.313065 0.371691
vt 0.297352 0.387405
vt 0.281639 0.355978
vt 0.281639 0.371691
vt 0.328778 0.355978
vt 0.456312 0.649001
vt 0.456312 0.457392
vt 0.343688 0.457392
vt 0.402166 0.475467
vt 0.393970 0.475467
vt 0.393970 0.483663
vt 0.402166 0.483663
vt 0.393970 0.491859
vt 0.402166 0.491859
vt 0.393970 0.500055
vt 0.385773 0.483663
vt 0.385773 0.491859
vt 0.410362 0.483663
vt 0.438346 0.321539
vt 0.438346 0.337252
vt 0.454059 0.337252
vt 0.438346 0.352966
vt 0.454059 0.352966
vt 0.438346 0.368679
vt 0.454059 0.368679
vt 0.438346 0.384392
vt 0.422632 0.352966
vt 0.422632 0.368679
vt 0.469772 0.352966
vt 0.393262 0.322395
vt 0.377549 0.322395
vt 0.377549 0.338108
vt 0.393262 0.338108
vt 0.377549 0.353821
vt 0.377549 0.369535
vt 0.393262 0.369535
vt 0.377549 0.385248
vt 0.393262 0.385248
vt 0.361835 0.353821
vt 0.361835 0.369535
vt 0.328778 0.355978
vt 0.313065 0.355978
vt 0.313065 0.371691
vt 0.504793 0.327954
vt 0.496597 0.327954
vt 0.496597 0.336151
vt 0.504793 0.336151
vt 0.496597 0.344347
vt 0.504793 0.344347
vt 0.496597 0.352543
vt 0.504793 0.352543
vt 0.496597 0.360739
vt 0.488401 0.344347
vt 0.488401 0.352543
vt 0.512990 0.344347
vt 0.393262 0.322395
vt 0.377549 0.322395
vt 0.377549 0.338108
vt 0.393262 0.338108
vt 0.377549 0.353821
vt 0.377549 0.369535
vt 0.393262 0.369535
vt 0.377549 0.385248
vt 0.393262 0.385248
vt 0.361835 0.353821
vt 0.361835 0.369535
vt 0.313065 0.355978
vt 0.313065 0.371691
vt 0.328778 0.371691
vt 0.439999 0.322618
vt 0.439999 0.338331
vt 0.455712 0.338331
vt 0.439999 0.354044
vt 0.455712 0.354044
vt 0.439999 0.369757
vt 0.455712 0.369757
vt 0.439999 0.385470
vt 0.424286 0.354044
vt 0.424286 0.369757
vt 0.471426 0.354044
vt 0.504793 0.344347
vt 0.504793 0.360739
vt 0.328778 0.371691
vt 0.313065 0.387405
vt 0.328778 0.371691
vt 0.343688 0.649001
vt 0.402166 0.500055
vt 0.410362 0.491859
vt 0.454059 0.321539
vt 0.454059 0.384392
vt 0.469772 0.368679
vt 0.393262 0.353821
vt 0.328778 0.371691
vt 0.504793 0.360739
vt 0.512990 0.352543
vt 0.393262 0.353821
vt 0.328778 0.355978
vt 0.455712 0.322618
vt 0.455712 0.385470
vt 0.471426 0.369757
vn -1.0000 0.0000 0.0000
vn 0.0000 0.0000 1.0000
vn 1.0000 0.0000 0.0000
vn 0.0000 0.0000 -1.0000
vn 0.0000 -1.0000 0.0000
vn 0.0000 1.0000 0.0000
vn 0.9999 0.0038 -0.0093
vn 0.0081 0.2424 0.9702
vn -0.9999 -0.0038 0.0093
vn -0.0081 -0.2423 -0.9702
vn -0.0059 0.9702 -0.2423
vn 0.0059 -0.9702 0.2423
vn 1.0000 0.0007 -0.0099
vn 0.0096 0.2561 0.9666
vn -1.0000 -0.0007 0.0099
vn -0.0096 -0.2568 -0.9664
vn -0.0070 0.9554 -0.2953
vn 0.0070 -0.9844 0.1760
vn -0.9920 0.1261 -0.0099
vn -0.0420 -0.2528 0.9666
vn 0.9920 -0.1261 0.0099
vn 0.0421 0.2535 -0.9664
vn -0.1141 -0.9486 -0.2953
vn 0.1178 0.9773 0.1760
vn -0.9924 0.1230 -0.0093
vn -0.0387 -0.2394 0.9702
vn 0.9924 -0.1230 0.0093
vn 0.0387 0.2394 -0.9702
vn -0.1171 -0.9631 -0.2423
vn 0.1171 0.9631 0.2423
vn -0.0081 -0.2424 -0.9702
vn 1.0000 0.0007 -0.0096
vn 0.0087 0.2558 0.9667
vn -1.0000 -0.0007 0.0096
vn -0.0087 -0.2566 -0.9665
vn -0.9920 0.1261 -0.0096
vn -0.0411 -0.2526 0.9667
vn 0.9920 -0.1261 0.0096
vn 0.0411 0.2534 -0.9665
s off
f 2/1/1 1/2/1 3/3/1
f 4/4/2 3/3/2 7/5/2
f 8/6/3 7/7/3 5/8/3
f 6/9/4 5/10/4 1/11/4
f 7/5/5 3/12/5 1/13/5
f 4/14/6 8/6/6 6/15/6
f 10/16/3 9/17/3 11/18/3
f 12/19/2 11/18/2 15/20/2
f 16/21/1 15/20/1 13/22/1
f 14/23/4 13/22/4 9/24/4
f 15/20/6 11/25/6 9/26/6
f 12/27/5 16/21/5 14/23/5
f 18/28/3 17/29/3 19/30/3
f 20/31/2 19/32/2 23/33/2
f 24/34/1 23/33/1 21/35/1
f 22/36/4 21/35/4 17/37/4
f 23/33/6 19/38/6 17/39/6
f 20/40/5 24/34/5 22/36/5
f 25/41/7 27/42/7 28/43/7
f 28/43/8 27/42/8 31/44/8
f 32/45/9 31/44/9 29/46/9
f 30/47/10 29/46/10 25/48/10
f 31/44/11 27/49/11 25/50/11
f 28/51/12 32/45/12 30/47/12
f 34/52/13 33/53/13 35/54/13
f 36/55/14 35/54/14 39/56/14
f 39/56/15 37/57/15 38/58/15
f 37/57/16 33/59/16 34/60/16
f 39/56/17 35/61/17 33/62/17
f 36/63/18 40/64/18 38/65/18
f 42/66/3 41/67/3 43/68/3
f 44/69/2 43/68/2 47/70/2
f 48/71/1 47/70/1 45/72/1
f 46/73/4 45/72/4 41/74/4
f 47/70/6 43/75/6 41/76/6
f 44/77/5 48/71/5 46/73/5
f 50/78/19 49/79/19 51/80/19
f 52/81/20 51/80/20 55/82/20
f 55/82/21 53/83/21 54/84/21
f 53/83/22 49/85/22 50/86/22
f 55/82/23 51/87/23 49/88/23
f 56/89/24 54/90/24 50/91/24
f 57/92/25 59/93/25 60/94/25
f 60/94/26 59/93/26 63/95/26
f 64/96/27 63/95/27 61/97/27
f 62/98/28 61/97/28 57/99/28
f 59/100/29 57/101/29 61/97/29
f 60/102/30 64/96/30 62/98/30
f 2/1/1 3/3/1 4/4/1
f 4/4/2 7/5/2 8/103/2
f 8/6/3 5/8/3 6/15/3
f 6/9/4 1/11/4 2/104/4
f 7/5/5 1/13/5 5/10/5
f 4/14/6 6/15/6 2/105/6
f 10/16/3 11/18/3 12/19/3
f 12/19/2 15/20/2 16/21/2
f 16/21/1 13/22/1 14/23/1
f 14/23/4 9/24/4 10/106/4
f 15/20/6 9/26/6 13/22/6
f 12/27/5 14/23/5 10/107/5
f 18/28/3 19/30/3 20/108/3
f 20/31/2 23/33/2 24/34/2
f 24/34/1 21/35/1 22/36/1
f 22/36/4 17/37/4 18/109/4
f 23/33/6 17/39/6 21/35/6
f 20/40/5 22/36/5 18/110/5
f 25/41/7 28/43/7 26/111/7
f 28/43/8 31/44/8 32/45/8
f 32/45/9 29/46/9 30/47/9
f 30/47/31 25/48/31 26/112/31
f 31/44/11 25/50/11 29/46/11
f 28/51/12 30/47/12 26/113/12
f 34/52/32 35/54/32 36/55/32
f 36/55/33 39/56/33 40/114/33
f 39/56/34 38/58/34 40/114/34
f 37/57/35 34/60/35 38/58/35
f 39/56/17 33/62/17 37/57/17
f 36/63/18 38/65/18 34/115/18
f 42/66/3 43/68/3 44/69/3
f 44/69/2 47/70/2 48/71/2
f 48/71/1 45/72/1 46/73/1
f 46/73/4 41/74/4 42/116/4
f 47/70/6 41/76/6 45/72/6
f 44/77/5 46/73/5 42/117/5
f 50/78/36 51/80/36 52/81/36
f 52/81/37 55/82/37 56/118/37
f 55/82/38 54/84/38 56/118/38
f 53/83/39 50/86/39 54/84/39
f 55/82/23 49/88/23 53/83/23
f 56/89/24 50/91/24 52/119/24
f 57/92/25 60/94/25 58/120/25
f 60/94/26 63/95/26 64/96/26
f 64/96/27 61/97/27 62/98/27
f 62/98/28 57/99/28 58/121/28
f 59/100/29 61/97/29 63/95/29
f 60/102/30 62/98/30 58/122/30
