# Blender v3.2.1 OBJ File: 'Modeling.blend'
# www.blender.org
o Golem_Cube.013
v -0.262962 0.007432 0.090544
v -0.262962 0.220622 0.084905
v -0.049887 0.007670 0.099531
v -0.049887 0.220859 0.093892
v -0.253971 0.001798 -0.122456
v -0.253971 0.214987 -0.128095
v -0.040897 0.002035 -0.113469
v -0.040897 0.215225 -0.119108
v 0.346667 0.158973 0.259731
v 0.346667 0.844386 0.286751
v -0.368685 0.160162 0.229570
v -0.368685 0.845575 0.256590
v 0.369005 0.179827 -0.269279
v 0.369005 0.865241 -0.242259
v -0.346346 0.181016 -0.299439
v -0.346346 0.866430 -0.272419
v 0.169298 0.601417 0.448748
v 0.169298 0.977110 0.468745
v -0.206592 0.602260 0.432910
v -0.206592 0.977953 0.452907
v 0.185158 0.621397 0.073390
v 0.185158 0.997089 0.093386
v -0.190732 0.622240 0.057551
v -0.190732 0.997932 0.077548
v 0.595977 0.740506 0.176525
v 0.532954 0.998494 0.137233
v 0.260451 0.658676 0.177414
v 0.197428 0.916664 0.138122
v 0.604623 0.702171 -0.089048
v 0.541599 0.960158 -0.128340
v 0.269097 0.620341 -0.088159
v 0.206074 0.878328 -0.127451
v 0.641807 0.268376 0.188301
v 0.523805 0.721572 0.117678
v 0.499039 0.225232 0.190119
v 0.376854 0.696038 0.116710
v 0.646357 0.247102 0.040740
v 0.528441 0.700492 -0.029908
v 0.503588 0.203958 0.042558
v 0.381490 0.674958 -0.030876
v 0.264483 0.007988 0.112771
v 0.264483 0.221177 0.107131
v 0.051409 0.007750 0.103783
v 0.051409 0.220940 0.098144
v 0.273474 0.002353 -0.100229
v 0.273474 0.215543 -0.105869
v 0.060399 0.002116 -0.109217
v 0.060399 0.215305 -0.114856
v -0.647197 0.277153 0.157695
v -0.521410 0.726958 0.079263
v -0.505305 0.233884 0.173246
v -0.375028 0.701166 0.091690
v -0.639431 0.249984 0.011240
v -0.513727 0.699982 -0.067232
v -0.497539 0.206715 0.026791
v -0.367344 0.674190 -0.054805
v -0.598178 0.748355 0.131022
v -0.530785 1.004456 0.086930
v -0.264329 0.666080 0.163420
v -0.196935 0.922180 0.119329
v -0.584658 0.699411 -0.132597
v -0.517264 0.955511 -0.176689
v -0.250808 0.617135 -0.100199
v -0.183414 0.873236 -0.144291
vt 0.332623 0.799770
vt 0.332623 0.791075
vt 0.352496 0.791075
vt 0.352496 0.799770
vt 0.352496 0.791075
vt 0.352496 0.799770
vt 0.332623 0.791075
vt 0.332623 0.799770
vt 0.286290 0.788489
vt 0.292030 0.788489
vt 0.292030 0.790895
vt 0.286290 0.788489
vt 0.286290 0.790895
vt 0.292030 0.788489
vt 0.286290 0.790895
vt 0.292030 0.790895
vt 0.317054 0.830042
vt 0.444875 0.830042
vt 0.444875 0.885963
vt 0.317054 0.885963
vt 0.317054 0.885963
vt 0.444875 0.830042
vt 0.317054 0.830042
vt 0.444875 0.885963
vt 0.500566 0.789383
vt 0.494303 0.800354
vt 0.462042 0.796829
vt 0.468066 0.785900
vt 0.468305 0.785857
vt 0.500327 0.789425
vt 0.461802 0.796871
vt 0.494063 0.800397
vt 0.307275 0.793059
vt 0.310610 0.793510
vt 0.307764 0.798198
vt 0.307237 0.793065
vt 0.304327 0.797929
vt 0.304291 0.797937
vt 0.307727 0.798206
vt 0.310572 0.793516
vt 0.361943 0.791075
vt 0.381817 0.791075
vt 0.381817 0.799770
vt 0.361943 0.791075
vt 0.361943 0.799770
vt 0.361943 0.799770
vt 0.381817 0.799770
vt 0.381817 0.791075
vt 0.274749 0.795890
vt 0.273897 0.790418
vt 0.277822 0.790231
vt 0.278697 0.795915
vt 0.277861 0.790242
vt 0.273937 0.790428
vt 0.274786 0.795902
vt 0.278733 0.795927
vt 0.460897 0.789634
vt 0.493158 0.786109
vt 0.499421 0.797080
vt 0.493397 0.786151
vt 0.499661 0.797123
vt 0.461136 0.789677
vt 0.467160 0.800606
vt 0.467400 0.800649
vn -0.0422 0.0264 0.9988
vn 0.9991 0.0011 0.0421
vn 0.0422 -0.0264 -0.9988
vn -0.9991 -0.0011 -0.0421
vn 0.0000 -0.9997 0.0264
vn -0.0000 0.9997 -0.0264
vn -0.0422 -0.0394 0.9983
vn -0.9991 0.0017 -0.0421
vn 0.0422 0.0394 -0.9983
vn 0.9991 -0.0017 0.0421
vn -0.0000 -0.9992 -0.0394
vn 0.0000 0.9992 0.0394
vn -0.0422 -0.0531 0.9977
vn -0.9991 0.0022 -0.0421
vn 0.0422 0.0531 -0.9977
vn 0.9991 -0.0022 0.0421
vn -0.0000 -0.9986 -0.0532
vn -0.0000 0.9986 0.0532
vn -0.0322 0.1428 0.9892
vn -0.9715 -0.2369 0.0026
vn 0.0322 -0.1428 -0.9892
vn 0.9715 0.2369 -0.0026
vn 0.2348 -0.9610 0.1464
vn -0.2348 0.9610 -0.1464
vn -0.0315 0.1459 0.9888
vn -0.9682 -0.2503 0.0062
vn 0.0319 -0.1459 -0.9888
vn 0.9680 0.2509 -0.0054
vn 0.2879 -0.9466 0.1453
vn -0.1685 0.9750 -0.1446
vn -0.0510 0.1854 0.9813
vn 0.9629 -0.2514 0.0977
vn 0.0510 -0.1854 -0.9813
vn -0.9627 0.2522 -0.0978
vn -0.3038 -0.9395 0.1582
vn 0.1849 0.9682 -0.1686
vn -0.0504 0.1823 0.9820
vn 0.9667 -0.2382 0.0938
vn 0.0504 -0.1823 -0.9820
vn -0.9667 0.2382 -0.0938
vn -0.2510 -0.9539 0.1642
vn 0.2510 0.9539 -0.1642
vn -0.0319 0.1459 0.9888
vn -0.9682 -0.2502 0.0053
vn 0.0315 -0.1459 -0.9888
vn 0.9680 0.2510 -0.0063
vn -0.0506 0.1854 0.9814
vn 0.9631 -0.2513 0.0968
vn 0.0506 -0.1854 -0.9814
vn -0.9628 0.2521 -0.0969
s off
f 2/1/1 1/2/1 3/3/1
f 4/4/2 3/3/2 7/5/2
f 8/6/3 7/5/3 5/7/3
f 5/7/4 1/2/4 2/1/4
f 7/5/5 3/3/5 1/2/5
f 4/4/6 8/6/6 6/8/6
f 11/9/7 9/10/7 10/11/7
f 15/12/8 11/9/8 12/13/8
f 13/14/9 15/12/9 16/15/9
f 9/10/10 13/14/10 14/16/10
f 9/10/11 11/9/11 15/12/11
f 14/16/12 16/15/12 12/13/12
f 19/17/13 17/18/13 18/19/13
f 19/17/14 20/20/14 24/21/14
f 21/22/15 23/23/15 24/21/15
f 17/18/16 21/22/16 22/24/16
f 17/18/17 19/17/17 23/23/17
f 22/24/18 24/21/18 20/20/18
f 25/25/19 26/26/19 28/27/19
f 31/28/20 27/29/20 28/27/20
f 29/30/21 31/28/21 32/31/21
f 25/25/22 29/30/22 30/32/22
f 25/25/23 27/29/23 31/28/23
f 30/32/24 32/31/24 28/27/24
f 35/33/25 33/34/25 34/35/25
f 39/36/26 35/33/26 36/37/26
f 39/36/27 40/38/27 38/39/27
f 37/40/28 38/39/28 34/35/28
f 33/34/29 35/33/29 39/36/29
f 38/39/30 40/38/30 36/37/30
f 43/41/1 41/42/1 42/43/1
f 47/44/4 43/41/4 44/45/4
f 47/44/3 48/46/3 46/47/3
f 41/42/2 45/48/2 46/47/2
f 41/42/5 43/41/5 47/44/5
f 46/47/6 48/46/6 44/45/6
f 50/49/31 49/50/31 51/51/31
f 52/52/32 51/51/32 55/53/32
f 55/53/33 53/54/33 54/55/33
f 53/54/34 49/50/34 50/49/34
f 55/53/35 51/51/35 49/50/35
f 52/52/36 56/56/36 54/55/36
f 57/57/37 59/58/37 60/59/37
f 60/59/38 59/58/38 63/60/38
f 64/61/39 63/60/39 61/62/39
f 61/62/40 57/57/40 58/63/40
f 59/58/41 57/57/41 61/62/41
f 64/61/42 62/64/42 58/63/42
f 2/1/1 3/3/1 4/4/1
f 4/4/2 7/5/2 8/6/2
f 8/6/3 5/7/3 6/8/3
f 5/7/4 2/1/4 6/8/4
f 7/5/5 1/2/5 5/7/5
f 4/4/6 6/8/6 2/1/6
f 11/9/7 10/11/7 12/13/7
f 15/12/8 12/13/8 16/15/8
f 13/14/9 16/15/9 14/16/9
f 9/10/10 14/16/10 10/11/10
f 9/10/11 15/12/11 13/14/11
f 14/16/12 12/13/12 10/11/12
f 19/17/13 18/19/13 20/20/13
f 19/17/14 24/21/14 23/23/14
f 21/22/15 24/21/15 22/24/15
f 17/18/16 22/24/16 18/19/16
f 17/18/17 23/23/17 21/22/17
f 22/24/18 20/20/18 18/19/18
f 25/25/19 28/27/19 27/29/19
f 31/28/20 28/27/20 32/31/20
f 29/30/21 32/31/21 30/32/21
f 25/25/22 30/32/22 26/26/22
f 25/25/23 31/28/23 29/30/23
f 30/32/24 28/27/24 26/26/24
f 35/33/43 34/35/43 36/37/43
f 39/36/44 36/37/44 40/38/44
f 39/36/45 38/39/45 37/40/45
f 37/40/46 34/35/46 33/34/46
f 33/34/29 39/36/29 37/40/29
f 38/39/30 36/37/30 34/35/30
f 43/41/1 42/43/1 44/45/1
f 47/44/4 44/45/4 48/46/4
f 47/44/3 46/47/3 45/48/3
f 41/42/2 46/47/2 42/43/2
f 41/42/5 47/44/5 45/48/5
f 46/47/6 44/45/6 42/43/6
f 50/49/47 51/51/47 52/52/47
f 52/52/48 55/53/48 56/56/48
f 55/53/49 54/55/49 56/56/49
f 53/54/50 50/49/50 54/55/50
f 55/53/35 49/50/35 53/54/35
f 52/52/36 54/55/36 50/49/36
f 57/57/37 60/59/37 58/63/37
f 60/59/38 63/60/38 64/61/38
f 64/61/39 61/62/39 62/64/39
f 61/62/40 58/63/40 62/64/40
f 59/58/41 61/62/41 63/60/41
f 64/61/42 58/63/42 60/59/42
