# Blender v3.2.1 OBJ File: 'Modeling.blend'
# www.blender.org
o Golem_Cube.013
v -0.262962 0.005994 0.093002
v -0.262962 0.219238 0.090060
v -0.049887 0.006118 0.101992
v -0.049887 0.219362 0.099050
v -0.253971 0.003055 -0.120052
v -0.253971 0.216299 -0.122994
v -0.040897 0.003179 -0.111063
v -0.040897 0.216423 -0.114004
v 0.346667 0.163886 0.269400
v 0.346667 0.849687 0.283500
v -0.368685 0.164507 0.239223
v -0.368685 0.850308 0.253323
v 0.369005 0.174769 -0.259908
v 0.369005 0.860570 -0.245808
v -0.346346 0.175389 -0.290086
v -0.346346 0.861190 -0.275986
v 0.169298 0.612766 0.451272
v 0.169298 0.988846 0.461709
v -0.206592 0.613206 0.435418
v -0.206592 0.989286 0.445855
v 0.185158 0.623194 0.075527
v 0.185158 0.999273 0.085964
v -0.190732 0.623633 0.059673
v -0.190732 0.999713 0.070109
v 0.596105 0.738114 0.172099
v 0.532651 0.996761 0.138207
v 0.260717 0.655721 0.171254
v 0.197262 0.914368 0.137361
v 0.604824 0.705356 -0.094217
v 0.541369 0.964003 -0.128109
v 0.269436 0.622963 -0.095062
v 0.205981 0.881610 -0.128955
v 0.642727 0.265918 0.174001
v 0.523967 0.720294 0.112865
v 0.500031 0.222507 0.174907
v 0.377059 0.694540 0.111352
v 0.647317 0.247743 0.026028
v 0.528643 0.702313 -0.035130
v 0.504621 0.204331 0.026934
v 0.381735 0.676559 -0.036642
v 0.264483 0.006272 0.115237
v 0.264483 0.219516 0.112296
v 0.051409 0.006148 0.106248
v 0.051409 0.219392 0.103306
v 0.273474 0.003333 -0.097817
v 0.273474 0.216577 -0.100759
v 0.060399 0.003209 -0.106807
v 0.060399 0.216453 -0.109748
v -0.646709 0.276323 0.153502
v -0.521321 0.726420 0.076111
v -0.504778 0.233145 0.168957
v -0.374916 0.700730 0.088482
v -0.638915 0.249499 0.006984
v -0.513610 0.699789 -0.070446
v -0.496984 0.206321 0.022440
v -0.367205 0.674099 -0.058074
v -0.598110 0.747630 0.127917
v -0.530944 1.003891 0.084418
v -0.264188 0.665577 0.160134
v -0.197021 0.921839 0.116636
v -0.584539 0.699306 -0.135814
v -0.517372 0.955567 -0.179313
v -0.250616 0.617253 -0.103597
v -0.183450 0.873515 -0.147095
vt 0.332623 0.799770
vt 0.332623 0.791075
vt 0.352496 0.791075
vt 0.352496 0.799770
vt 0.352496 0.791075
vt 0.352496 0.799770
vt 0.332623 0.791075
vt 0.332623 0.799770
vt 0.286290 0.788489
vt 0.292030 0.788489
vt 0.292030 0.790895
vt 0.286290 0.788489
vt 0.286290 0.790895
vt 0.292030 0.788489
vt 0.286290 0.790895
vt 0.292030 0.790895
vt 0.317054 0.830042
vt 0.444875 0.830042
vt 0.444875 0.885963
vt 0.317054 0.830042
vt 0.317054 0.885963
vt 0.444875 0.830042
vt 0.317054 0.885963
vt 0.444875 0.885963
vt 0.500566 0.789383
vt 0.494303 0.800354
vt 0.462042 0.796829
vt 0.468066 0.785900
vt 0.468305 0.785857
vt 0.500327 0.789425
vt 0.461802 0.796871
vt 0.494063 0.800397
vt 0.307275 0.793059
vt 0.310610 0.793510
vt 0.307764 0.798198
vt 0.307237 0.793065
vt 0.304327 0.797929
vt 0.304291 0.797937
vt 0.307727 0.798206
vt 0.310572 0.793516
vt 0.361943 0.791075
vt 0.381817 0.791075
vt 0.381817 0.799770
vt 0.361943 0.791075
vt 0.361943 0.799770
vt 0.381817 0.791075
vt 0.361943 0.799770
vt 0.381817 0.799770
vt 0.274749 0.795890
vt 0.273897 0.790418
vt 0.277822 0.790231
vt 0.278697 0.795915
vt 0.277861 0.790242
vt 0.273937 0.790428
vt 0.274786 0.795902
vt 0.278733 0.795927
vt 0.460897 0.789634
vt 0.493158 0.786109
vt 0.499421 0.797080
vt 0.493397 0.786151
vt 0.499661 0.797123
vt 0.461136 0.789677
vt 0.467160 0.800606
vt 0.467400 0.800649
vn -0.0422 0.0138 0.9990
vn 0.9991 0.0006 0.0422
vn 0.0422 -0.0138 -0.9990
vn -0.9991 -0.0006 -0.0422
vn 0.0000 -0.9999 0.0138
vn 0.0000 0.9999 -0.0138
vn -0.0422 -0.0205 0.9989
vn -0.9991 0.0009 -0.0421
vn 0.0422 0.0205 -0.9989
vn 0.9991 -0.0009 0.0421
vn -0.0000 -0.9998 -0.0206
vn 0.0000 0.9998 0.0206
vn -0.0422 -0.0277 0.9987
vn -0.9991 0.0012 -0.0421
vn 0.0422 0.0277 -0.9987
vn 0.9991 -0.0012 0.0421
vn -0.0000 -0.9996 -0.0277
vn 0.0000 0.9996 0.0277
vn -0.0325 0.1220 0.9920
vn -0.9711 -0.2386 -0.0024
vn 0.0325 -0.1220 -0.9920
vn 0.9711 0.2386 0.0024
vn 0.2364 -0.9634 0.1262
vn -0.2364 0.9634 -0.1262
vn -0.0318 0.1251 0.9916
vn -0.9677 -0.2520 0.0009
vn 0.0321 -0.1251 -0.9916
vn 0.9676 0.2526 -0.0001
vn 0.2895 -0.9489 0.1255
vn -0.1701 0.9776 -0.1241
vn -0.0512 0.1831 0.9818
vn 0.9632 -0.2508 0.0971
vn 0.0512 -0.1831 -0.9818
vn -0.9629 0.2515 -0.0973
vn -0.3030 -0.9401 0.1560
vn 0.1840 0.9687 -0.1663
vn -0.0506 0.1800 0.9824
vn 0.9669 -0.2376 0.0933
vn 0.0506 -0.1800 -0.9824
vn -0.9669 0.2376 -0.0933
vn -0.2502 -0.9545 0.1620
vn 0.2502 0.9545 -0.1620
vn -0.0321 0.1251 0.9916
vn -0.9678 -0.2518 0.0000
vn 0.0318 -0.1251 -0.9916
vn 0.9675 0.2527 -0.0010
vn -0.0508 0.1831 0.9818
vn 0.9633 -0.2507 0.0962
vn 0.0508 -0.1831 -0.9818
vn -0.9631 0.2514 -0.0964
s off
f 2/1/1 1/2/1 3/3/1
f 4/4/2 3/3/2 7/5/2
f 8/6/3 7/5/3 5/7/3
f 6/8/4 5/7/4 1/2/4
f 7/5/5 3/3/5 1/2/5
f 8/6/6 6/8/6 2/1/6
f 11/9/7 9/10/7 10/11/7
f 15/12/8 11/9/8 12/13/8
f 13/14/9 15/12/9 16/15/9
f 13/14/10 14/16/10 10/11/10
f 9/10/11 11/9/11 15/12/11
f 14/16/12 16/15/12 12/13/12
f 19/17/13 17/18/13 18/19/13
f 23/20/14 19/17/14 20/21/14
f 21/22/15 23/20/15 24/23/15
f 21/22/16 22/24/16 18/19/16
f 17/18/17 19/17/17 23/20/17
f 22/24/18 24/23/18 20/21/18
f 25/25/19 26/26/19 28/27/19
f 31/28/20 27/29/20 28/27/20
f 29/30/21 31/28/21 32/31/21
f 29/30/22 30/32/22 26/26/22
f 25/25/23 27/29/23 31/28/23
f 30/32/24 32/31/24 28/27/24
f 35/33/25 33/34/25 34/35/25
f 39/36/26 35/33/26 36/37/26
f 39/36/27 40/38/27 38/39/27
f 37/40/28 38/39/28 34/35/28
f 33/34/29 35/33/29 39/36/29
f 38/39/30 40/38/30 36/37/30
f 43/41/1 41/42/1 42/43/1
f 47/44/4 43/41/4 44/45/4
f 45/46/3 47/44/3 48/47/3
f 45/46/2 46/48/2 42/43/2
f 41/42/5 43/41/5 47/44/5
f 46/48/6 48/47/6 44/45/6
f 50/49/31 49/50/31 51/51/31
f 52/52/32 51/51/32 55/53/32
f 55/53/33 53/54/33 54/55/33
f 53/54/34 49/50/34 50/49/34
f 51/51/35 49/50/35 53/54/35
f 52/52/36 56/56/36 54/55/36
f 57/57/37 59/58/37 60/59/37
f 60/59/38 59/58/38 63/60/38
f 64/61/39 63/60/39 61/62/39
f 61/62/40 57/57/40 58/63/40
f 59/58/41 57/57/41 61/62/41
f 60/59/42 64/61/42 62/64/42
f 2/1/1 3/3/1 4/4/1
f 4/4/2 7/5/2 8/6/2
f 8/6/3 5/7/3 6/8/3
f 6/8/4 1/2/4 2/1/4
f 7/5/5 1/2/5 5/7/5
f 8/6/6 2/1/6 4/4/6
f 11/9/7 10/11/7 12/13/7
f 15/12/8 12/13/8 16/15/8
f 13/14/9 16/15/9 14/16/9
f 13/14/10 10/11/10 9/10/10
f 9/10/11 15/12/11 13/14/11
f 14/16/12 12/13/12 10/11/12
f 19/17/13 18/19/13 20/21/13
f 23/20/14 20/21/14 24/23/14
f 21/22/15 24/23/15 22/24/15
f 21/22/16 18/19/16 17/18/16
f 17/18/17 23/20/17 21/22/17
f 22/24/18 20/21/18 18/19/18
f 25/25/19 28/27/19 27/29/19
f 31/28/20 28/27/20 32/31/20
f 29/30/21 32/31/21 30/32/21
f 29/30/22 26/26/22 25/25/22
f 25/25/23 31/28/23 29/30/23
f 30/32/24 28/27/24 26/26/24
f 35/33/43 34/35/43 36/37/43
f 39/36/44 36/37/44 40/38/44
f 39/36/45 38/39/45 37/40/45
f 37/40/46 34/35/46 33/34/46
f 33/34/29 39/36/29 37/40/29
f 38/39/30 36/37/30 34/35/30
f 43/41/1 42/43/1 44/45/1
f 47/44/4 44/45/4 48/47/4
f 45/46/3 48/47/3 46/48/3
f 45/46/2 42/43/2 41/42/2
f 41/42/5 47/44/5 45/46/5
f 46/48/6 44/45/6 42/43/6
f 50/49/47 51/51/47 52/52/47
f 52/52/48 55/53/48 56/56/48
f 55/53/49 54/55/49 56/56/49
f 53/54/50 50/49/50 54/55/50
f 51/51/35 53/54/35 55/53/35
f 52/52/36 54/55/36 50/49/36
f 57/57/37 60/59/37 58/63/37
f 60/59/38 63/60/38 64/61/38
f 64/61/39 61/62/39 62/64/39
f 61/62/40 58/63/40 62/64/40
f 59/58/41 61/62/41 63/60/41
f 60/59/42 62/64/42 58/63/42
