# Blender v3.2.1 OBJ File: 'Modeling.blend'
# www.blender.org
o Golem_Cube.013
v -0.262962 0.007842 0.089887
v -0.262962 0.221012 0.083529
v -0.049887 0.008110 0.098873
v -0.049887 0.221280 0.092516
v -0.253971 0.001491 -0.123093
v -0.253971 0.214660 -0.129450
v -0.040897 0.001759 -0.114107
v -0.040897 0.214928 -0.120464
v 0.346667 0.157696 0.257142
v 0.346667 0.842965 0.287599
v -0.368685 0.159036 0.226988
v -0.368685 0.844306 0.257445
v 0.369005 0.181203 -0.271756
v 0.369005 0.866472 -0.241299
v -0.346346 0.182543 -0.301911
v -0.346346 0.867813 -0.271453
v 0.169298 0.598411 0.448028
v 0.169298 0.973959 0.470567
v -0.206592 0.599361 0.432196
v -0.206592 0.974910 0.454735
v 0.185158 0.620930 0.072813
v 0.185158 0.996479 0.095352
v -0.190732 0.621880 0.056981
v -0.190732 0.997429 0.079520
v 0.595667 0.756041 0.184933
v 0.533847 1.008611 0.118152
v 0.259759 0.676374 0.194588
v 0.197938 0.928945 0.127807
v 0.604011 0.689359 -0.074985
v 0.542190 0.941930 -0.141766
v 0.268103 0.609693 -0.065330
v 0.206282 0.862263 -0.132111
v 0.639270 0.287695 0.247359
v 0.523380 0.731238 0.128457
v 0.496300 0.245675 0.253794
v 0.376309 0.706446 0.130229
v 0.643652 0.250672 0.102937
v 0.527849 0.694405 -0.016011
v 0.500682 0.208652 0.109372
v 0.380778 0.669613 -0.014239
v 0.264483 0.008475 0.112113
v 0.264483 0.221645 0.105756
v 0.051409 0.008207 0.103126
v 0.051409 0.221377 0.096769
v 0.273474 0.002124 -0.100867
v 0.273474 0.215293 -0.107224
v 0.060399 0.001856 -0.109853
v 0.060399 0.215025 -0.116211
v -0.648561 0.287708 0.188551
v -0.521653 0.732207 0.085530
v -0.506775 0.244999 0.206450
v -0.375334 0.706766 0.099349
v -0.640889 0.252517 0.043809
v -0.514063 0.697207 -0.059263
v -0.499103 0.209809 0.061708
v -0.367744 0.671767 -0.045444
v -0.598358 0.756609 0.136038
v -0.530326 1.009730 0.077946
v -0.264711 0.675392 0.172894
v -0.196679 0.928514 0.114802
v -0.585007 0.693227 -0.124495
v -0.516975 0.946348 -0.182588
v -0.251360 0.612010 -0.087640
v -0.183328 0.865131 -0.145732
vt 0.332623 0.799770
vt 0.332623 0.791075
vt 0.352496 0.791075
vt 0.352496 0.799770
vt 0.352496 0.791075
vt 0.352496 0.799770
vt 0.332623 0.791075
vt 0.332623 0.799770
vt 0.343834 0.811802
vt 0.379825 0.811802
vt 0.379825 0.826888
vt 0.343834 0.811802
vt 0.343834 0.826888
vt 0.379825 0.811802
vt 0.343834 0.826888
vt 0.379825 0.826888
vt 0.444875 0.830042
vt 0.444875 0.885963
vt 0.317054 0.885963
vt 0.317054 0.830042
vt 0.317054 0.830042
vt 0.444875 0.830042
vt 0.317054 0.885963
vt 0.444875 0.885963
vt 0.500566 0.789383
vt 0.494303 0.800354
vt 0.462042 0.796829
vt 0.468305 0.785857
vt 0.461802 0.796871
vt 0.500327 0.789425
vt 0.468066 0.785900
vt 0.494063 0.800397
vt 0.475418 0.840458
vt 0.496331 0.843287
vt 0.478481 0.872677
vt 0.475178 0.840496
vt 0.456932 0.870991
vt 0.456705 0.871041
vt 0.478253 0.872728
vt 0.496091 0.843325
vt 0.361943 0.791075
vt 0.381817 0.791075
vt 0.381817 0.799770
vt 0.361943 0.791075
vt 0.361943 0.799770
vt 0.381817 0.791075
vt 0.361943 0.799770
vt 0.381817 0.799770
vt 0.271473 0.858204
vt 0.266129 0.823895
vt 0.290739 0.822725
vt 0.296224 0.858363
vt 0.290986 0.822790
vt 0.266377 0.823960
vt 0.271700 0.858282
vt 0.296452 0.858441
vt 0.460897 0.789634
vt 0.493158 0.786109
vt 0.499421 0.797080
vt 0.493397 0.786151
vt 0.499661 0.797123
vt 0.461136 0.789677
vt 0.467400 0.800649
vt 0.467160 0.800606
vn -0.0422 0.0298 0.9987
vn 0.9991 0.0013 0.0421
vn 0.0422 -0.0298 -0.9987
vn -0.9991 -0.0013 -0.0421
vn 0.0000 -0.9996 0.0298
vn -0.0000 0.9996 -0.0298
vn -0.0422 -0.0444 0.9981
vn -0.9991 0.0019 -0.0421
vn 0.0422 0.0444 -0.9981
vn 0.9991 -0.0019 0.0421
vn 0.0000 -0.9990 -0.0444
vn 0.0000 0.9990 0.0444
vn -0.0422 -0.0599 0.9973
vn -0.9991 0.0025 -0.0421
vn 0.0422 0.0599 -0.9973
vn 0.9991 -0.0025 0.0421
vn -0.0000 -0.9982 -0.0599
vn 0.0000 0.9982 0.0599
vn -0.0311 0.2484 0.9682
vn -0.9726 -0.2307 0.0280
vn 0.0311 -0.2484 -0.9682
vn 0.9726 0.2307 -0.0280
vn 0.2303 -0.9408 0.2488
vn -0.2303 0.9408 -0.2488
vn -0.0304 0.2514 0.9674
vn -0.9693 -0.2436 0.0330
vn 0.0307 -0.2514 -0.9674
vn 0.9692 0.2443 -0.0323
vn 0.2835 -0.9268 0.2462
vn -0.1639 0.9547 -0.2485
vn -0.0504 0.2391 0.9697
vn 0.9623 -0.2481 0.1113
vn 0.0504 -0.2391 -0.9697
vn -0.9621 0.2488 -0.1115
vn -0.3062 -0.9286 0.2095
vn 0.1873 0.9570 -0.2215
vn -0.0497 0.2361 0.9705
vn 0.9661 -0.2352 0.1067
vn 0.0497 -0.2361 -0.9705
vn -0.9661 0.2352 -0.1067
vn -0.2534 -0.9428 0.2164
vn 0.2534 0.9428 -0.2164
vn -0.0307 0.2514 0.9674
vn -0.9694 -0.2435 0.0321
vn 0.0304 -0.2514 -0.9674
vn 0.9691 0.2443 -0.0332
vn -0.0500 0.2391 0.9697
vn 0.9624 -0.2481 0.1104
vn 0.0500 -0.2391 -0.9697
vn -0.9622 0.2488 -0.1106
s off
f 2/1/1 1/2/1 3/3/1
f 4/4/2 3/3/2 7/5/2
f 8/6/3 7/5/3 5/7/3
f 5/7/4 1/2/4 2/1/4
f 7/5/5 3/3/5 1/2/5
f 4/4/6 8/6/6 6/8/6
f 11/9/7 9/10/7 10/11/7
f 15/12/8 11/9/8 12/13/8
f 13/14/9 15/12/9 16/15/9
f 9/10/10 13/14/10 14/16/10
f 11/9/11 15/12/11 13/14/11
f 14/16/12 16/15/12 12/13/12
f 17/17/13 18/18/13 20/19/13
f 23/20/14 19/21/14 20/19/14
f 21/22/15 23/20/15 24/23/15
f 17/17/16 21/22/16 22/24/16
f 17/17/17 19/21/17 23/20/17
f 24/23/18 20/19/18 18/18/18
f 25/25/19 26/26/19 28/27/19
f 27/28/20 28/27/20 32/29/20
f 29/30/21 31/31/21 32/29/21
f 29/30/22 30/32/22 26/26/22
f 25/25/23 27/28/23 31/31/23
f 30/32/24 32/29/24 28/27/24
f 35/33/25 33/34/25 34/35/25
f 39/36/26 35/33/26 36/37/26
f 39/36/27 40/38/27 38/39/27
f 37/40/28 38/39/28 34/35/28
f 33/34/29 35/33/29 39/36/29
f 38/39/30 40/38/30 36/37/30
f 43/41/1 41/42/1 42/43/1
f 47/44/4 43/41/4 44/45/4
f 45/46/3 47/44/3 48/47/3
f 41/42/2 45/46/2 46/48/2
f 41/42/5 43/41/5 47/44/5
f 46/48/6 48/47/6 44/45/6
f 50/49/31 49/50/31 51/51/31
f 52/52/32 51/51/32 55/53/32
f 55/53/33 53/54/33 54/55/33
f 53/54/34 49/50/34 50/49/34
f 55/53/35 51/51/35 49/50/35
f 52/52/36 56/56/36 54/55/36
f 57/57/37 59/58/37 60/59/37
f 60/59/38 59/58/38 63/60/38
f 64/61/39 63/60/39 61/62/39
f 62/63/40 61/62/40 57/57/40
f 63/60/41 59/58/41 57/57/41
f 60/59/42 64/61/42 62/63/42
f 2/1/1 3/3/1 4/4/1
f 4/4/2 7/5/2 8/6/2
f 8/6/3 5/7/3 6/8/3
f 5/7/4 2/1/4 6/8/4
f 7/5/5 1/2/5 5/7/5
f 4/4/6 6/8/6 2/1/6
f 11/9/7 10/11/7 12/13/7
f 15/12/8 12/13/8 16/15/8
f 13/14/9 16/15/9 14/16/9
f 9/10/10 14/16/10 10/11/10
f 11/9/11 13/14/11 9/10/11
f 14/16/12 12/13/12 10/11/12
f 17/17/13 20/19/13 19/21/13
f 23/20/14 20/19/14 24/23/14
f 21/22/15 24/23/15 22/24/15
f 17/17/16 22/24/16 18/18/16
f 17/17/17 23/20/17 21/22/17
f 24/23/18 18/18/18 22/24/18
f 25/25/19 28/27/19 27/28/19
f 27/28/20 32/29/20 31/31/20
f 29/30/21 32/29/21 30/32/21
f 29/30/22 26/26/22 25/25/22
f 25/25/23 31/31/23 29/30/23
f 30/32/24 28/27/24 26/26/24
f 35/33/43 34/35/43 36/37/43
f 39/36/44 36/37/44 40/38/44
f 39/36/45 38/39/45 37/40/45
f 37/40/46 34/35/46 33/34/46
f 33/34/29 39/36/29 37/40/29
f 38/39/30 36/37/30 34/35/30
f 43/41/1 42/43/1 44/45/1
f 47/44/4 44/45/4 48/47/4
f 45/46/3 48/47/3 46/48/3
f 41/42/2 46/48/2 42/43/2
f 41/42/5 47/44/5 45/46/5
f 46/48/6 44/45/6 42/43/6
f 50/49/47 51/51/47 52/52/47
f 52/52/48 55/53/48 56/56/48
f 55/53/49 54/55/49 56/56/49
f 53/54/50 50/49/50 54/55/50
f 55/53/35 49/50/35 53/54/35
f 52/52/36 54/55/36 50/49/36
f 57/57/37 60/59/37 58/64/37
f 60/59/38 63/60/38 64/61/38
f 64/61/39 61/62/39 62/63/39
f 62/63/40 57/57/40 58/64/40
f 63/60/41 57/57/41 61/62/41
f 60/59/42 62/63/42 58/64/42
