# Blender v3.2.1 OBJ File: 'Modeling.blend'
# www.blender.org
o Golem_Cube.013
v -0.262962 0.006361 0.092350
v -0.262962 0.219593 0.088690
v -0.049887 0.006515 0.101339
v -0.049887 0.219748 0.097679
v -0.253971 0.002704 -0.120694
v -0.253971 0.215937 -0.124353
v -0.040897 0.002859 -0.111704
v -0.040897 0.216091 -0.115364
v 0.346667 0.162561 0.266836
v 0.346667 0.848283 0.284375
v -0.368685 0.163333 0.236662
v -0.368685 0.849054 0.254201
v 0.369005 0.176098 -0.262411
v 0.369005 0.861819 -0.244872
v -0.346346 0.176869 -0.292585
v -0.346346 0.862591 -0.275046
v 0.169298 0.609738 0.450629
v 0.169298 0.985738 0.463611
v -0.206592 0.610285 0.434778
v -0.206592 0.986286 0.447760
v 0.185158 0.622708 0.074963
v 0.185158 0.998709 0.087944
v -0.190732 0.623256 0.059112
v -0.190732 0.999256 0.072093
v 0.596204 0.733278 0.169972
v 0.532435 0.992846 0.144846
v 0.260916 0.650554 0.166324
v 0.197147 0.910122 0.141197
v 0.604965 0.709558 -0.097299
v 0.541196 0.969127 -0.122426
v 0.269677 0.626834 -0.100948
v 0.205908 0.886402 -0.126074
v 0.643400 0.261345 0.155902
v 0.524088 0.717385 0.110165
v 0.500757 0.217755 0.155332
v 0.377212 0.691518 0.107775
v 0.648013 0.248192 0.007398
v 0.528787 0.704426 -0.038353
v 0.505370 0.204601 0.006828
v 0.381910 0.678559 -0.040743
v 0.264483 0.006711 0.114582
v 0.264483 0.219944 0.110922
v 0.051409 0.006557 0.105592
v 0.051409 0.219789 0.101933
v 0.273474 0.003055 -0.098461
v 0.273474 0.216287 -0.102121
v 0.060399 0.002900 -0.107451
v 0.060399 0.216133 -0.111110
v -0.646353 0.273020 0.142989
v -0.521256 0.724680 0.074777
v -0.504394 0.229628 0.157566
v -0.374834 0.698838 0.086627
v -0.638540 0.249189 -0.004043
v -0.513526 0.701042 -0.072291
v -0.496581 0.205797 0.010533
v -0.367104 0.675200 -0.060442
v -0.598058 0.744781 0.127003
v -0.531058 1.001918 0.088730
v -0.264083 0.662306 0.157551
v -0.197083 0.919443 0.119278
v -0.584454 0.701843 -0.137657
v -0.517453 0.958980 -0.175930
v -0.250479 0.619368 -0.107109
v -0.183478 0.876505 -0.145382
vt 0.332623 0.799770
vt 0.332623 0.791075
vt 0.352496 0.791075
vt 0.352496 0.799770
vt 0.352496 0.791075
vt 0.352496 0.799770
vt 0.332623 0.791075
vt 0.332623 0.799770
vt 0.286290 0.788489
vt 0.292030 0.788489
vt 0.292030 0.790895
vt 0.286290 0.788489
vt 0.286290 0.790895
vt 0.286290 0.790895
vt 0.292030 0.790895
vt 0.292030 0.788489
vt 0.444875 0.830042
vt 0.444875 0.885963
vt 0.317054 0.885963
vt 0.317054 0.830042
vt 0.317054 0.830042
vt 0.444875 0.830042
vt 0.317054 0.885963
vt 0.444875 0.885963
vt 0.468305 0.785857
vt 0.500566 0.789383
vt 0.494303 0.800354
vt 0.468066 0.785900
vt 0.462042 0.796829
vt 0.500327 0.789425
vt 0.461802 0.796871
vt 0.494063 0.800397
vt 0.307275 0.793059
vt 0.310610 0.793510
vt 0.307764 0.798198
vt 0.307237 0.793065
vt 0.304327 0.797929
vt 0.304291 0.797937
vt 0.307727 0.798206
vt 0.310572 0.793516
vt 0.381817 0.791075
vt 0.381817 0.799770
vt 0.361943 0.799770
vt 0.361943 0.791075
vt 0.361943 0.791075
vt 0.381817 0.791075
vt 0.361943 0.799770
vt 0.381817 0.799770
vt 0.274749 0.795890
vt 0.273897 0.790418
vt 0.277822 0.790231
vt 0.278697 0.795915
vt 0.277861 0.790242
vt 0.273937 0.790428
vt 0.274786 0.795902
vt 0.278733 0.795927
vt 0.460897 0.789634
vt 0.493158 0.786109
vt 0.499421 0.797080
vt 0.493397 0.786151
vt 0.499661 0.797123
vt 0.461136 0.789677
vt 0.467400 0.800649
vt 0.467160 0.800606
vn -0.0422 0.0171 0.9990
vn 0.9991 0.0007 0.0422
vn 0.0422 -0.0171 -0.9990
vn -0.9991 -0.0007 -0.0422
vn 0.0000 -0.9999 0.0172
vn 0.0000 0.9999 -0.0172
vn -0.0422 -0.0255 0.9988
vn -0.9991 0.0011 -0.0421
vn 0.0422 0.0255 -0.9988
vn 0.9991 -0.0011 0.0421
vn -0.0000 -0.9997 -0.0256
vn -0.0000 0.9997 0.0256
vn -0.0422 -0.0345 0.9985
vn -0.9991 0.0015 -0.0421
vn 0.0422 0.0345 -0.9985
vn 0.9991 -0.0015 0.0421
vn -0.0000 -0.9994 -0.0345
vn 0.0000 0.9994 0.0345
vn -0.0326 0.0884 0.9956
vn -0.9708 -0.2395 -0.0106
vn 0.0326 -0.0884 -0.9956
vn 0.9708 0.2395 0.0106
vn 0.2375 -0.9669 0.0936
vn -0.2375 0.9669 -0.0936
vn -0.0319 0.0915 0.9953
vn -0.9674 -0.2530 -0.0076
vn 0.0323 -0.0915 -0.9953
vn 0.9673 0.2536 0.0085
vn 0.2906 -0.9523 0.0934
vn -0.1713 0.9810 -0.0910
vn -0.0513 0.1630 0.9853
vn 0.9633 -0.2521 0.0920
vn 0.0513 -0.1630 -0.9853
vn -0.9631 0.2528 -0.0922
vn -0.3024 -0.9433 0.1368
vn 0.1834 0.9720 -0.1466
vn -0.0507 0.1599 0.9858
vn 0.9670 -0.2388 0.0885
vn 0.0507 -0.1599 -0.9858
vn -0.9670 0.2388 -0.0885
vn -0.2496 -0.9578 0.1426
vn 0.2496 0.9578 -0.1426
vn -0.0323 0.0915 0.9953
vn -0.9675 -0.2529 -0.0085
vn 0.0319 -0.0915 -0.9953
vn 0.9672 0.2538 0.0076
vn -0.0510 0.1630 0.9853
vn 0.9634 -0.2520 0.0911
vn 0.0510 -0.1630 -0.9853
vn -0.9632 0.2527 -0.0912
s off
f 2/1/1 1/2/1 3/3/1
f 4/4/2 3/3/2 7/5/2
f 8/6/3 7/5/3 5/7/3
f 5/7/4 1/2/4 2/1/4
f 7/5/5 3/3/5 1/2/5
f 4/4/6 8/6/6 6/8/6
f 11/9/7 9/10/7 10/11/7
f 15/12/8 11/9/8 12/13/8
f 15/12/9 16/14/9 14/15/9
f 9/10/10 13/16/10 14/15/10
f 11/9/11 15/12/11 13/16/11
f 14/15/12 16/14/12 12/13/12
f 17/17/13 18/18/13 20/19/13
f 23/20/14 19/21/14 20/19/14
f 21/22/15 23/20/15 24/23/15
f 17/17/16 21/22/16 22/24/16
f 17/17/17 19/21/17 23/20/17
f 22/24/18 24/23/18 20/19/18
f 27/25/19 25/26/19 26/27/19
f 31/28/20 27/25/20 28/29/20
f 29/30/21 31/28/21 32/31/21
f 29/30/22 30/32/22 26/27/22
f 27/25/23 31/28/23 29/30/23
f 30/32/24 32/31/24 28/29/24
f 35/33/25 33/34/25 34/35/25
f 39/36/26 35/33/26 36/37/26
f 39/36/27 40/38/27 38/39/27
f 37/40/28 38/39/28 34/35/28
f 33/34/29 35/33/29 39/36/29
f 38/39/30 40/38/30 36/37/30
f 41/41/1 42/42/1 44/43/1
f 47/44/4 43/45/4 44/43/4
f 45/46/3 47/44/3 48/47/3
f 41/41/2 45/46/2 46/48/2
f 41/41/5 43/45/5 47/44/5
f 46/48/6 48/47/6 44/43/6
f 50/49/31 49/50/31 51/51/31
f 52/52/32 51/51/32 55/53/32
f 55/53/33 53/54/33 54/55/33
f 53/54/34 49/50/34 50/49/34
f 51/51/35 49/50/35 53/54/35
f 52/52/36 56/56/36 54/55/36
f 57/57/37 59/58/37 60/59/37
f 59/58/38 63/60/38 64/61/38
f 64/61/39 63/60/39 61/62/39
f 62/63/40 61/62/40 57/57/40
f 63/60/41 59/58/41 57/57/41
f 64/61/42 62/63/42 58/64/42
f 2/1/1 3/3/1 4/4/1
f 4/4/2 7/5/2 8/6/2
f 8/6/3 5/7/3 6/8/3
f 5/7/4 2/1/4 6/8/4
f 7/5/5 1/2/5 5/7/5
f 4/4/6 6/8/6 2/1/6
f 11/9/7 10/11/7 12/13/7
f 15/12/8 12/13/8 16/14/8
f 15/12/9 14/15/9 13/16/9
f 9/10/10 14/15/10 10/11/10
f 11/9/11 13/16/11 9/10/11
f 14/15/12 12/13/12 10/11/12
f 17/17/13 20/19/13 19/21/13
f 23/20/14 20/19/14 24/23/14
f 21/22/15 24/23/15 22/24/15
f 17/17/16 22/24/16 18/18/16
f 17/17/17 23/20/17 21/22/17
f 22/24/18 20/19/18 18/18/18
f 27/25/19 26/27/19 28/29/19
f 31/28/20 28/29/20 32/31/20
f 29/30/21 32/31/21 30/32/21
f 29/30/22 26/27/22 25/26/22
f 27/25/23 29/30/23 25/26/23
f 30/32/24 28/29/24 26/27/24
f 35/33/43 34/35/43 36/37/43
f 39/36/44 36/37/44 40/38/44
f 39/36/45 38/39/45 37/40/45
f 37/40/46 34/35/46 33/34/46
f 33/34/29 39/36/29 37/40/29
f 38/39/30 36/37/30 34/35/30
f 41/41/1 44/43/1 43/45/1
f 47/44/4 44/43/4 48/47/4
f 45/46/3 48/47/3 46/48/3
f 41/41/2 46/48/2 42/42/2
f 41/41/5 47/44/5 45/46/5
f 46/48/6 44/43/6 42/42/6
f 50/49/47 51/51/47 52/52/47
f 52/52/48 55/53/48 56/56/48
f 55/53/49 54/55/49 56/56/49
f 53/54/50 50/49/50 54/55/50
f 51/51/35 53/54/35 55/53/35
f 52/52/36 54/55/36 50/49/36
f 57/57/37 60/59/37 58/64/37
f 59/58/38 64/61/38 60/59/38
f 64/61/39 61/62/39 62/63/39
f 62/63/40 57/57/40 58/64/40
f 63/60/41 57/57/41 61/62/41
f 64/61/42 58/64/42 60/59/42
