# Blender v3.2.1 OBJ File: 'Modeling.blend'
# www.blender.org
o Golem_Cube.013
v -0.262962 0.008493 0.088878
v -0.262962 0.221627 0.081422
v -0.049887 0.008807 0.097863
v -0.049887 0.221941 0.090407
v -0.253971 0.001044 -0.124067
v -0.253971 0.214178 -0.131522
v -0.040897 0.001358 -0.115081
v -0.040897 0.214492 -0.122537
v 0.346667 0.155766 0.253166
v 0.346667 0.840782 0.288884
v -0.368685 0.157338 0.223023
v -0.368685 0.842353 0.258741
v 0.369005 0.183333 -0.275536
v 0.369005 0.868349 -0.239819
v -0.346346 0.184905 -0.305679
v -0.346346 0.869920 -0.269962
v 0.169298 0.593820 0.446886
v 0.169298 0.969115 0.473315
v -0.206592 0.594934 0.431065
v -0.206592 0.970229 0.457494
v 0.185158 0.620226 0.071925
v 0.185158 0.995520 0.098354
v -0.190732 0.621340 0.056103
v -0.190732 0.996635 0.082532
v 0.595779 0.748147 0.182564
v 0.533492 1.003718 0.128925
v 0.260019 0.667466 0.188039
v 0.197731 0.923037 0.134401
v 0.604258 0.695012 -0.080454
v 0.541970 0.950583 -0.134093
v 0.268497 0.614331 -0.074978
v 0.206210 0.869902 -0.128617
v 0.640249 0.277282 0.220691
v 0.523540 0.726165 0.124870
v 0.497357 0.234720 0.224924
v 0.376516 0.701042 0.125337
v 0.644706 0.247785 0.074549
v 0.528084 0.696860 -0.021308
v 0.501814 0.205224 0.078782
v 0.381059 0.671737 -0.020841
v 0.264483 0.009247 0.111104
v 0.264483 0.222381 0.103649
v 0.051409 0.008933 0.102119
v 0.051409 0.222067 0.094664
v 0.273474 0.001798 -0.101840
v 0.273474 0.214932 -0.109295
v 0.060399 0.001484 -0.110825
v 0.060399 0.214618 -0.118281
v -0.648031 0.281733 0.172762
v -0.521560 0.729350 0.083643
v -0.506204 0.238628 0.189331
v -0.375216 0.703636 0.096672
v -0.640320 0.251075 0.026995
v -0.513931 0.698884 -0.062170
v -0.498492 0.207970 0.043564
v -0.367587 0.673170 -0.049140
v -0.598290 0.752091 0.134882
v -0.530507 1.006966 0.084705
v -0.264565 0.670096 0.169211
v -0.196781 0.924971 0.119035
v -0.584868 0.696867 -0.127499
v -0.517085 0.951742 -0.177675
v -0.251142 0.614872 -0.093169
v -0.183359 0.869747 -0.143346
vt 0.332623 0.791075
vt 0.352496 0.791075
vt 0.352496 0.799770
vt 0.352496 0.791075
vt 0.352496 0.799770
vt 0.332623 0.791075
vt 0.332623 0.799770
vt 0.332623 0.799770
vt 0.343834 0.811802
vt 0.379825 0.811802
vt 0.379825 0.826888
vt 0.343834 0.811802
vt 0.343834 0.826888
vt 0.379825 0.811802
vt 0.343834 0.826888
vt 0.379825 0.826888
vt 0.317054 0.830042
vt 0.444875 0.830042
vt 0.444875 0.885963
vt 0.317054 0.830042
vt 0.317054 0.885963
vt 0.444875 0.830042
vt 0.317054 0.885963
vt 0.444875 0.885963
vt 0.468305 0.785857
vt 0.500566 0.789383
vt 0.494303 0.800354
vt 0.468066 0.785900
vt 0.462042 0.796829
vt 0.500327 0.789425
vt 0.461802 0.796871
vt 0.494063 0.800397
vt 0.475418 0.840458
vt 0.496331 0.843287
vt 0.478481 0.872677
vt 0.475178 0.840496
vt 0.456932 0.870991
vt 0.456705 0.871041
vt 0.478253 0.872728
vt 0.496091 0.843325
vt 0.361943 0.791075
vt 0.381817 0.791075
vt 0.381817 0.799770
vt 0.361943 0.791075
vt 0.361943 0.799770
vt 0.381817 0.791075
vt 0.361943 0.799770
vt 0.381817 0.799770
vt 0.271473 0.858204
vt 0.266129 0.823895
vt 0.290739 0.822725
vt 0.296224 0.858363
vt 0.290986 0.822790
vt 0.266377 0.823960
vt 0.271700 0.858282
vt 0.296452 0.858441
vt 0.460897 0.789634
vt 0.493158 0.786109
vt 0.499421 0.797080
vt 0.493397 0.786151
vt 0.499661 0.797123
vt 0.461136 0.789677
vt 0.467160 0.800606
vt 0.467400 0.800649
vn -0.0422 0.0349 0.9985
vn 0.9991 0.0015 0.0421
vn 0.0422 -0.0349 -0.9985
vn -0.9991 -0.0015 -0.0421
vn -0.0000 -0.9994 0.0350
vn 0.0000 0.9994 -0.0350
vn -0.0422 -0.0520 0.9978
vn -0.9991 0.0022 -0.0421
vn 0.0422 0.0520 -0.9978
vn 0.9991 -0.0022 0.0421
vn -0.0000 -0.9986 -0.0521
vn -0.0000 0.9986 0.0521
vn -0.0422 -0.0702 0.9966
vn -0.9991 0.0030 -0.0421
vn 0.0422 0.0702 -0.9966
vn 0.9991 -0.0030 0.0421
vn 0.0000 -0.9975 -0.0702
vn -0.0000 0.9975 0.0702
vn -0.0316 0.1979 0.9797
vn -0.9722 -0.2336 0.0159
vn 0.0316 -0.1979 -0.9797
vn 0.9722 0.2336 -0.0159
vn 0.2320 -0.9520 0.1998
vn -0.2320 0.9520 -0.1998
vn -0.0309 0.2010 0.9791
vn -0.9689 -0.2467 0.0203
vn 0.0312 -0.2010 -0.9791
vn 0.9687 0.2474 -0.0195
vn 0.2852 -0.9378 0.1980
vn -0.1657 0.9659 -0.1988
vn -0.0506 0.2088 0.9767
vn 0.9626 -0.2505 0.1036
vn 0.0507 -0.2088 -0.9767
vn -0.9623 0.2512 -0.1038
vn -0.3053 -0.9350 0.1805
vn 0.1864 0.9636 -0.1916
vn -0.0500 0.2057 0.9773
vn 0.9663 -0.2374 0.0994
vn 0.0500 -0.2057 -0.9773
vn -0.9663 0.2374 -0.0994
vn -0.2525 -0.9494 0.1869
vn 0.2525 0.9494 -0.1869
vn -0.0312 0.2010 0.9791
vn -0.9689 -0.2467 0.0193
vn 0.0309 -0.2010 -0.9791
vn 0.9687 0.2475 -0.0204
vn -0.0503 0.2088 0.9767
vn 0.9627 -0.2504 0.1027
vn 0.0503 -0.2088 -0.9767
vn -0.9625 0.2512 -0.1028
s off
f 1/1/1 3/2/1 4/3/1
f 4/3/2 3/2/2 7/4/2
f 8/5/3 7/4/3 5/6/3
f 5/6/4 1/1/4 2/7/4
f 7/4/5 3/2/5 1/1/5
f 4/3/6 8/5/6 6/8/6
f 11/9/7 9/10/7 10/11/7
f 15/12/8 11/9/8 12/13/8
f 13/14/9 15/12/9 16/15/9
f 9/10/10 13/14/10 14/16/10
f 9/10/11 11/9/11 15/12/11
f 16/15/12 12/13/12 10/11/12
f 19/17/13 17/18/13 18/19/13
f 23/20/14 19/17/14 20/21/14
f 21/22/15 23/20/15 24/23/15
f 17/18/16 21/22/16 22/24/16
f 17/18/17 19/17/17 23/20/17
f 24/23/18 20/21/18 18/19/18
f 27/25/19 25/26/19 26/27/19
f 31/28/20 27/25/20 28/29/20
f 29/30/21 31/28/21 32/31/21
f 25/26/22 29/30/22 30/32/22
f 25/26/23 27/25/23 31/28/23
f 32/31/24 28/29/24 26/27/24
f 35/33/25 33/34/25 34/35/25
f 39/36/26 35/33/26 36/37/26
f 39/36/27 40/38/27 38/39/27
f 37/40/28 38/39/28 34/35/28
f 33/34/29 35/33/29 39/36/29
f 38/39/30 40/38/30 36/37/30
f 43/41/1 41/42/1 42/43/1
f 47/44/4 43/41/4 44/45/4
f 45/46/3 47/44/3 48/47/3
f 41/42/2 45/46/2 46/48/2
f 43/41/5 47/44/5 45/46/5
f 46/48/6 48/47/6 44/45/6
f 50/49/31 49/50/31 51/51/31
f 52/52/32 51/51/32 55/53/32
f 55/53/33 53/54/33 54/55/33
f 53/54/34 49/50/34 50/49/34
f 55/53/35 51/51/35 49/50/35
f 52/52/36 56/56/36 54/55/36
f 57/57/37 59/58/37 60/59/37
f 60/59/38 59/58/38 63/60/38
f 64/61/39 63/60/39 61/62/39
f 61/62/40 57/57/40 58/63/40
f 63/60/41 59/58/41 57/57/41
f 60/59/42 64/61/42 62/64/42
f 1/1/1 4/3/1 2/7/1
f 4/3/2 7/4/2 8/5/2
f 8/5/3 5/6/3 6/8/3
f 5/6/4 2/7/4 6/8/4
f 7/4/5 1/1/5 5/6/5
f 4/3/6 6/8/6 2/7/6
f 11/9/7 10/11/7 12/13/7
f 15/12/8 12/13/8 16/15/8
f 13/14/9 16/15/9 14/16/9
f 9/10/10 14/16/10 10/11/10
f 9/10/11 15/12/11 13/14/11
f 16/15/12 10/11/12 14/16/12
f 19/17/13 18/19/13 20/21/13
f 23/20/14 20/21/14 24/23/14
f 21/22/15 24/23/15 22/24/15
f 17/18/16 22/24/16 18/19/16
f 17/18/17 23/20/17 21/22/17
f 24/23/18 18/19/18 22/24/18
f 27/25/19 26/27/19 28/29/19
f 31/28/20 28/29/20 32/31/20
f 29/30/21 32/31/21 30/32/21
f 25/26/22 30/32/22 26/27/22
f 25/26/23 31/28/23 29/30/23
f 32/31/24 26/27/24 30/32/24
f 35/33/43 34/35/43 36/37/43
f 39/36/44 36/37/44 40/38/44
f 39/36/45 38/39/45 37/40/45
f 37/40/46 34/35/46 33/34/46
f 33/34/29 39/36/29 37/40/29
f 38/39/30 36/37/30 34/35/30
f 43/41/1 42/43/1 44/45/1
f 47/44/4 44/45/4 48/47/4
f 45/46/3 48/47/3 46/48/3
f 41/42/2 46/48/2 42/43/2
f 43/41/5 45/46/5 41/42/5
f 46/48/6 44/45/6 42/43/6
f 50/49/47 51/51/47 52/52/47
f 52/52/48 55/53/48 56/56/48
f 55/53/49 54/55/49 56/56/49
f 53/54/50 50/49/50 54/55/50
f 55/53/35 49/50/35 53/54/35
f 52/52/36 54/55/36 50/49/36
f 57/57/37 60/59/37 58/63/37
f 60/59/38 63/60/38 64/61/38
f 64/61/39 61/62/39 62/64/39
f 61/62/40 58/63/40 62/64/40
f 63/60/41 57/57/41 61/62/41
f 60/59/42 62/64/42 58/63/42
