# Blender v3.2.1 OBJ File: 'Modeling.blend'
# www.blender.org
o Golem_Cube.013
v -0.262962 0.005455 0.093998
v -0.262962 0.218712 0.092156
v -0.049887 0.005533 0.102989
v -0.049887 0.218789 0.101146
v -0.253971 0.003614 -0.119068
v -0.253971 0.216870 -0.120911
v -0.040897 0.003692 -0.110078
v -0.040897 0.216948 -0.111921
v 0.346667 0.165940 0.273313
v 0.346667 0.851829 0.282147
v -0.368685 0.166329 0.243132
v -0.368685 0.852218 0.251966
v 0.369005 0.172759 -0.256064
v 0.369005 0.858648 -0.247229
v -0.346346 0.173147 -0.286245
v -0.346346 0.859037 -0.277410
v 0.169298 0.617412 0.452218
v 0.169298 0.993579 0.458757
v -0.206592 0.617687 0.436360
v -0.206592 0.993855 0.442899
v 0.185158 0.623945 0.076384
v 0.185158 1.000113 0.082924
v -0.190732 0.624221 0.060526
v -0.190732 1.000389 0.067066
v 0.596424 0.727280 0.163893
v 0.532001 0.987581 0.150985
v 0.261346 0.643975 0.156326
v 0.196923 0.904275 0.143417
v 0.605242 0.716167 -0.104196
v 0.540819 0.976468 -0.117105
v 0.270163 0.632862 -0.111764
v 0.205740 0.893163 -0.124673
v 0.644808 0.256650 0.127667
v 0.524348 0.714033 0.103398
v 0.502275 0.212775 0.125034
v 0.377537 0.687937 0.099779
v 0.649453 0.250500 -0.021290
v 0.529078 0.708079 -0.045564
v 0.506920 0.206626 -0.023923
v 0.382267 0.681983 -0.049183
v 0.264483 0.005627 0.116240
v 0.264483 0.218883 0.114397
v 0.051409 0.005549 0.107249
v 0.051409 0.218805 0.105407
v 0.273474 0.003786 -0.096827
v 0.273474 0.217042 -0.098670
v 0.060399 0.003708 -0.105817
v 0.060399 0.216964 -0.107660
v -0.645608 0.269707 0.130361
v -0.521117 0.722756 0.070802
v -0.503592 0.226235 0.144110
v -0.374660 0.696889 0.082160
v -0.637761 0.248702 -0.017100
v -0.513353 0.701945 -0.076691
v -0.495745 0.205230 -0.003351
v -0.366897 0.676078 -0.065333
v -0.597947 0.741752 0.123399
v -0.531291 0.999663 0.090051
v -0.263862 0.659156 0.152377
v -0.197206 0.917067 0.119030
v -0.584281 0.703900 -0.142033
v -0.517625 0.961812 -0.175380
v -0.250196 0.621305 -0.113054
v -0.183540 0.879216 -0.146401
vt 0.332623 0.799770
vt 0.332623 0.791075
vt 0.352496 0.791075
vt 0.352496 0.799770
vt 0.352496 0.791075
vt 0.352496 0.799770
vt 0.332623 0.791075
vt 0.332623 0.799770
vt 0.286290 0.788489
vt 0.292030 0.788489
vt 0.292030 0.790895
vt 0.286290 0.790895
vt 0.286290 0.790895
vt 0.292030 0.788489
vt 0.286290 0.788489
vt 0.292030 0.790895
vt 0.317054 0.830042
vt 0.444875 0.830042
vt 0.444875 0.885963
vt 0.317054 0.830042
vt 0.317054 0.885963
vt 0.444875 0.830042
vt 0.317054 0.885963
vt 0.444875 0.885963
vt 0.500566 0.789383
vt 0.494303 0.800354
vt 0.462042 0.796829
vt 0.468066 0.785900
vt 0.468305 0.785857
vt 0.500327 0.789425
vt 0.461802 0.796871
vt 0.494063 0.800397
vt 0.307275 0.793059
vt 0.310610 0.793510
vt 0.307764 0.798198
vt 0.307237 0.793065
vt 0.304327 0.797929
vt 0.304291 0.797937
vt 0.307727 0.798206
vt 0.310572 0.793516
vt 0.361943 0.791075
vt 0.381817 0.791075
vt 0.381817 0.799770
vt 0.361943 0.791075
vt 0.361943 0.799770
vt 0.381817 0.791075
vt 0.361943 0.799770
vt 0.381817 0.799770
vt 0.274749 0.795890
vt 0.273897 0.790418
vt 0.277822 0.790231
vt 0.278697 0.795915
vt 0.277861 0.790242
vt 0.273937 0.790428
vt 0.274786 0.795902
vt 0.278733 0.795927
vt 0.467160 0.800606
vt 0.460897 0.789634
vt 0.493158 0.786109
vt 0.499421 0.797080
vt 0.493397 0.786151
vt 0.499661 0.797123
vt 0.461136 0.789677
vt 0.467400 0.800649
vn -0.0422 0.0086 0.9991
vn 0.9991 0.0004 0.0422
vn 0.0422 -0.0086 -0.9991
vn -0.9991 -0.0004 -0.0422
vn -0.0000 -1.0000 0.0086
vn -0.0000 1.0000 -0.0086
vn -0.0422 -0.0129 0.9990
vn -0.9991 0.0005 -0.0422
vn 0.0422 0.0129 -0.9990
vn 0.9991 -0.0005 0.0422
vn 0.0000 -0.9999 -0.0129
vn -0.0000 0.9999 0.0129
vn -0.0422 -0.0174 0.9990
vn -0.9991 0.0007 -0.0422
vn 0.0422 0.0174 -0.9990
vn 0.9991 -0.0007 0.0422
vn 0.0000 -0.9998 -0.0174
vn 0.0000 0.9998 0.0174
vn -0.0328 0.0414 0.9986
vn -0.9702 -0.2412 -0.0219
vn 0.0328 -0.0414 -0.9986
vn 0.9702 0.2412 0.0219
vn 0.2400 -0.9696 0.0481
vn -0.2400 0.9696 -0.0481
vn -0.0321 0.0445 0.9985
vn -0.9668 -0.2548 -0.0196
vn 0.0325 -0.0445 -0.9985
vn 0.9666 0.2554 0.0205
vn 0.2930 -0.9549 0.0486
vn -0.1738 0.9838 -0.0448
vn -0.0516 0.1441 0.9882
vn 0.9637 -0.2525 0.0872
vn 0.0516 -0.1441 -0.9882
vn -0.9634 0.2533 -0.0873
vn -0.3011 -0.9462 0.1188
vn 0.1821 0.9749 -0.1280
vn -0.0509 0.1410 0.9887
vn 0.9673 -0.2392 0.0839
vn 0.0509 -0.1410 -0.9887
vn -0.9673 0.2392 -0.0839
vn -0.2483 -0.9607 0.1242
vn 0.2483 0.9607 -0.1242
vn -0.0325 0.0445 0.9985
vn -0.9668 -0.2546 -0.0205
vn 0.0321 -0.0445 -0.9985
vn 0.9666 0.2556 0.0196
vn -0.0512 0.1441 0.9882
vn 0.9638 -0.2524 0.0863
vn 0.0512 -0.1441 -0.9882
vn -0.9636 0.2531 -0.0864
s off
f 2/1/1 1/2/1 3/3/1
f 4/4/2 3/3/2 7/5/2
f 8/6/3 7/5/3 5/7/3
f 6/8/4 5/7/4 1/2/4
f 7/5/5 3/3/5 1/2/5
f 4/4/6 8/6/6 6/8/6
f 11/9/7 9/10/7 10/11/7
f 11/9/8 12/12/8 16/13/8
f 13/14/9 15/15/9 16/13/9
f 9/10/10 13/14/10 14/16/10
f 9/10/11 11/9/11 15/15/11
f 14/16/12 16/13/12 12/12/12
f 19/17/13 17/18/13 18/19/13
f 23/20/14 19/17/14 20/21/14
f 21/22/15 23/20/15 24/23/15
f 17/18/16 21/22/16 22/24/16
f 17/18/17 19/17/17 23/20/17
f 22/24/18 24/23/18 20/21/18
f 25/25/19 26/26/19 28/27/19
f 31/28/20 27/29/20 28/27/20
f 29/30/21 31/28/21 32/31/21
f 25/25/22 29/30/22 30/32/22
f 27/29/23 31/28/23 29/30/23
f 30/32/24 32/31/24 28/27/24
f 35/33/25 33/34/25 34/35/25
f 39/36/26 35/33/26 36/37/26
f 39/36/27 40/38/27 38/39/27
f 37/40/28 38/39/28 34/35/28
f 33/34/29 35/33/29 39/36/29
f 38/39/30 40/38/30 36/37/30
f 43/41/1 41/42/1 42/43/1
f 47/44/4 43/41/4 44/45/4
f 45/46/3 47/44/3 48/47/3
f 41/42/2 45/46/2 46/48/2
f 41/42/5 43/41/5 47/44/5
f 46/48/6 48/47/6 44/45/6
f 50/49/31 49/50/31 51/51/31
f 52/52/32 51/51/32 55/53/32
f 55/53/33 53/54/33 54/55/33
f 53/54/34 49/50/34 50/49/34
f 51/51/35 49/50/35 53/54/35
f 56/56/36 54/55/36 50/49/36
f 58/57/37 57/58/37 59/59/37
f 60/60/38 59/59/38 63/61/38
f 64/62/39 63/61/39 61/63/39
f 61/63/40 57/58/40 58/57/40
f 63/61/41 59/59/41 57/58/41
f 64/62/42 62/64/42 58/57/42
f 2/1/1 3/3/1 4/4/1
f 4/4/2 7/5/2 8/6/2
f 8/6/3 5/7/3 6/8/3
f 6/8/4 1/2/4 2/1/4
f 7/5/5 1/2/5 5/7/5
f 4/4/6 6/8/6 2/1/6
f 11/9/7 10/11/7 12/12/7
f 11/9/8 16/13/8 15/15/8
f 13/14/9 16/13/9 14/16/9
f 9/10/10 14/16/10 10/11/10
f 9/10/11 15/15/11 13/14/11
f 14/16/12 12/12/12 10/11/12
f 19/17/13 18/19/13 20/21/13
f 23/20/14 20/21/14 24/23/14
f 21/22/15 24/23/15 22/24/15
f 17/18/16 22/24/16 18/19/16
f 17/18/17 23/20/17 21/22/17
f 22/24/18 20/21/18 18/19/18
f 25/25/19 28/27/19 27/29/19
f 31/28/20 28/27/20 32/31/20
f 29/30/21 32/31/21 30/32/21
f 25/25/22 30/32/22 26/26/22
f 27/29/23 29/30/23 25/25/23
f 30/32/24 28/27/24 26/26/24
f 35/33/43 34/35/43 36/37/43
f 39/36/44 36/37/44 40/38/44
f 39/36/45 38/39/45 37/40/45
f 37/40/46 34/35/46 33/34/46
f 33/34/29 39/36/29 37/40/29
f 38/39/30 36/37/30 34/35/30
f 43/41/1 42/43/1 44/45/1
f 47/44/4 44/45/4 48/47/4
f 45/46/3 48/47/3 46/48/3
f 41/42/2 46/48/2 42/43/2
f 41/42/5 47/44/5 45/46/5
f 46/48/6 44/45/6 42/43/6
f 50/49/47 51/51/47 52/52/47
f 52/52/48 55/53/48 56/56/48
f 55/53/49 54/55/49 56/56/49
f 53/54/50 50/49/50 54/55/50
f 51/51/35 53/54/35 55/53/35
f 56/56/36 50/49/36 52/52/36
f 58/57/37 59/59/37 60/60/37
f 60/60/38 63/61/38 64/62/38
f 64/62/39 61/63/39 62/64/39
f 61/63/40 58/57/40 62/64/40
f 63/61/41 57/58/41 61/63/41
f 64/62/42 58/57/42 60/60/42
