# Blender v3.2.1 OBJ File: 'Cube - Kopie.blend'
# www.blender.org
o Golem_Cube.013
v -0.112664 -0.013052 -0.253321
v -0.115535 0.200646 -0.253321
v -0.112664 -0.013052 -0.039604
v -0.115535 0.200646 -0.039604
v 0.101034 -0.010181 -0.253321
v 0.098163 0.203516 -0.253321
v 0.101034 -0.010181 -0.039604
v 0.098163 0.203516 -0.039604
v -0.265689 0.159079 0.345256
v -0.265689 0.820617 0.345256
v -0.265689 0.159079 -0.345256
v -0.265689 0.820617 -0.345256
v 0.245347 0.159079 0.345256
v 0.245347 0.820617 0.345256
v 0.245347 0.159079 -0.345256
v 0.245347 0.820617 -0.345256
v -0.451233 0.615755 0.169924
v -0.430180 0.977572 0.187132
v -0.447352 0.632766 -0.192494
v -0.426299 0.994583 -0.175285
v -0.089028 0.594543 0.172807
v -0.067975 0.956359 0.190016
v -0.085147 0.611554 -0.189610
v -0.064094 0.973371 -0.172402
v -0.110761 0.671755 0.585925
v -0.149921 0.921839 0.531520
v -0.125642 0.598800 0.261281
v -0.164802 0.848884 0.206877
v 0.144911 0.707493 0.566175
v 0.105751 0.957577 0.511770
v 0.130030 0.634538 0.241531
v 0.090871 0.884622 0.187126
v 0.008853 0.230875 0.612857
v -0.059243 0.670684 0.510138
v 0.003409 0.191735 0.474542
v -0.067251 0.648641 0.368214
v 0.150879 0.250759 0.601640
v 0.082763 0.690754 0.499009
v 0.145434 0.211619 0.463325
v 0.074756 0.668711 0.357085
v -0.133563 -0.003448 0.262387
v -0.122209 0.207994 0.262387
v -0.133563 -0.003448 0.050640
v -0.122209 0.207994 0.050640
v 0.077880 -0.014802 0.262387
v 0.089233 0.196641 0.262387
v 0.077880 -0.014802 0.050640
v 0.089233 0.196641 0.050640
v -0.190857 0.270418 -0.630505
v -0.103770 0.699840 -0.501536
v -0.199626 0.225137 -0.494251
v -0.109101 0.671254 -0.360657
v -0.049763 0.242400 -0.630735
v 0.037361 0.672010 -0.501842
v -0.058533 0.197119 -0.494481
v 0.032030 0.643423 -0.360964
v -0.157006 0.723065 -0.572426
v -0.108167 0.967678 -0.503037
v -0.173362 0.635305 -0.251540
v -0.124523 0.879918 -0.182151
v 0.096940 0.672606 -0.573283
v 0.145779 0.917218 -0.503894
v 0.080584 0.584846 -0.252397
v 0.129423 0.829458 -0.183008
vt 0.504793 0.327954
vt 0.496597 0.327954
vt 0.496597 0.336151
vt 0.504793 0.336151
vt 0.496597 0.344347
vt 0.313065 0.355978
vt 0.297352 0.355978
vt 0.297352 0.371691
vt 0.496597 0.352543
vt 0.496597 0.360739
vt 0.504793 0.360739
vt 0.488401 0.344347
vt 0.488401 0.352543
vt 0.328778 0.355978
vt 0.313065 0.371691
vt 0.313065 0.324552
vt 0.297352 0.324552
vt 0.297352 0.340265
vt 0.313065 0.340265
vt 0.297352 0.355978
vt 0.313065 0.355978
vt 0.297352 0.371691
vt 0.313065 0.371691
vt 0.297352 0.387405
vt 0.281639 0.355978
vt 0.281639 0.371691
vt 0.328778 0.355978
vt 0.456312 0.649001
vt 0.456312 0.457392
vt 0.343688 0.457392
vt 0.402166 0.475467
vt 0.393970 0.475467
vt 0.393970 0.483663
vt 0.402166 0.483663
vt 0.393970 0.491859
vt 0.402166 0.491859
vt 0.393970 0.500055
vt 0.385773 0.483663
vt 0.385773 0.491859
vt 0.410362 0.491859
vt 0.438346 0.321539
vt 0.438346 0.337252
vt 0.454059 0.337252
vt 0.438346 0.352966
vt 0.438346 0.368679
vt 0.454059 0.368679
vt 0.438346 0.384392
vt 0.454059 0.384392
vt 0.422632 0.352966
vt 0.422632 0.368679
vt 0.469772 0.352966
vt 0.454059 0.352966
vt 0.393262 0.322395
vt 0.377549 0.322395
vt 0.377549 0.338108
vt 0.393262 0.338108
vt 0.377549 0.353821
vt 0.377549 0.369535
vt 0.393262 0.369535
vt 0.377549 0.385248
vt 0.393262 0.385248
vt 0.361835 0.353821
vt 0.361835 0.369535
vt 0.328778 0.355978
vt 0.313065 0.355978
vt 0.313065 0.371691
vt 0.504793 0.327954
vt 0.496597 0.327954
vt 0.496597 0.336151
vt 0.504793 0.336151
vt 0.496597 0.344347
vt 0.504793 0.344347
vt 0.496597 0.352543
vt 0.504793 0.352543
vt 0.496597 0.360739
vt 0.488401 0.344347
vt 0.488401 0.352543
vt 0.512990 0.344347
vt 0.393262 0.322395
vt 0.377549 0.322395
vt 0.377549 0.338108
vt 0.393262 0.338108
vt 0.377549 0.353821
vt 0.377549 0.369535
vt 0.393262 0.369535
vt 0.377549 0.385248
vt 0.393262 0.385248
vt 0.361835 0.353821
vt 0.361835 0.369535
vt 0.328778 0.355978
vt 0.313065 0.355978
vt 0.313065 0.371691
vt 0.455712 0.322618
vt 0.439999 0.322618
vt 0.439999 0.338331
vt 0.455712 0.338331
vt 0.439999 0.354044
vt 0.455712 0.354044
vt 0.439999 0.369757
vt 0.455712 0.369757
vt 0.439999 0.385470
vt 0.424286 0.354044
vt 0.424286 0.369757
vt 0.471426 0.354044
vt 0.504793 0.344347
vt 0.504793 0.352543
vt 0.328778 0.371691
vt 0.313065 0.387405
vt 0.328778 0.371691
vt 0.343688 0.649001
vt 0.402166 0.500055
vt 0.410362 0.483663
vt 0.454059 0.321539
vt 0.469772 0.368679
vt 0.393262 0.353821
vt 0.328778 0.371691
vt 0.504793 0.360739
vt 0.512990 0.352543
vt 0.393262 0.353821
vt 0.328778 0.371691
vt 0.455712 0.385470
vt 0.471426 0.369757
vn -0.9999 -0.0134 -0.0000
vn 0.0000 0.0000 1.0000
vn 0.9999 0.0134 0.0000
vn 0.0000 0.0000 -1.0000
vn 0.0134 -0.9999 0.0000
vn -0.0134 0.9999 -0.0000
vn 1.0000 0.0000 0.0000
vn -1.0000 0.0000 0.0000
vn 0.0000 1.0000 0.0000
vn 0.0000 -1.0000 0.0000
vn 0.9983 -0.0585 0.0079
vn -0.0107 -0.0469 0.9988
vn -0.9983 0.0585 -0.0079
vn 0.0107 0.0469 -0.9988
vn 0.0580 0.9972 0.0474
vn -0.0580 -0.9972 -0.0474
vn 0.9875 0.1380 -0.0763
vn 0.0447 0.2190 0.9747
vn -0.9875 -0.1380 0.0763
vn -0.0447 -0.2190 -0.9747
vn -0.1512 0.9659 -0.2101
vn 0.1512 -0.9659 0.2101
vn 0.9879 0.1349 -0.0771
vn 0.0441 0.2329 0.9715
vn -0.9879 -0.1350 0.0771
vn -0.0440 -0.2337 -0.9713
vn -0.1541 0.9523 -0.2634
vn 0.1495 -0.9783 0.1435
vn 0.9986 -0.0536 0.0000
vn -0.9986 0.0536 -0.0000
vn 0.0536 0.9986 -0.0000
vn -0.0536 -0.9986 -0.0000
vn -0.9802 0.1980 0.0027
vn -0.0533 -0.2765 0.9595
vn 0.9802 -0.1980 -0.0027
vn 0.0535 0.2773 -0.9593
vn -0.1850 -0.9290 -0.3206
vn 0.1899 0.9608 0.2021
vn -0.9808 0.1949 0.0033
vn -0.0491 -0.2635 0.9634
vn 0.9808 -0.1949 -0.0033
vn 0.0491 0.2635 -0.9634
vn -0.1886 -0.9448 -0.2680
vn 0.1886 0.9448 0.2680
vn 0.9879 0.1349 -0.0767
vn 0.0433 0.2325 0.9716
vn -0.9879 -0.1349 0.0767
vn -0.0432 -0.2333 -0.9715
vn -0.9802 0.1980 0.0031
vn -0.0524 -0.2764 0.9596
vn 0.9802 -0.1980 -0.0031
vn 0.0526 0.2772 -0.9594
s off
f 2/1/1 1/2/1 3/3/1
f 4/4/2 3/3/2 7/5/2
f 8/6/3 7/7/3 5/8/3
f 5/9/4 1/10/4 2/11/4
f 3/12/5 1/13/5 5/9/5
f 4/14/6 8/6/6 6/15/6
f 10/16/7 9/17/7 11/18/7
f 12/19/2 11/18/2 15/20/2
f 16/21/8 15/20/8 13/22/8
f 14/23/4 13/22/4 9/24/4
f 15/20/9 11/25/9 9/26/9
f 12/27/10 16/21/10 14/23/10
f 18/28/11 17/29/11 19/30/11
f 20/31/12 19/32/12 23/33/12
f 24/34/13 23/33/13 21/35/13
f 22/36/14 21/35/14 17/37/14
f 23/33/15 19/38/15 17/39/15
f 24/34/16 22/36/16 18/40/16
f 25/41/17 27/42/17 28/43/17
f 28/43/18 27/42/18 31/44/18
f 31/44/19 29/45/19 30/46/19
f 29/45/20 25/47/20 26/48/20
f 31/44/21 27/49/21 25/50/21
f 28/51/22 32/52/22 30/46/22
f 34/53/23 33/54/23 35/55/23
f 36/56/24 35/55/24 39/57/24
f 39/57/25 37/58/25 38/59/25
f 37/58/26 33/60/26 34/61/26
f 39/57/27 35/62/27 33/63/27
f 36/64/28 40/65/28 38/66/28
f 42/67/29 41/68/29 43/69/29
f 44/70/2 43/69/2 47/71/2
f 48/72/30 47/71/30 45/73/30
f 46/74/4 45/73/4 41/75/4
f 47/71/31 43/76/31 41/77/31
f 44/78/32 48/72/32 46/74/32
f 50/79/33 49/80/33 51/81/33
f 52/82/34 51/81/34 55/83/34
f 55/83/35 53/84/35 54/85/35
f 53/84/36 49/86/36 50/87/36
f 55/83/37 51/88/37 49/89/37
f 52/90/38 56/91/38 54/92/38
f 58/93/39 57/94/39 59/95/39
f 60/96/40 59/95/40 63/97/40
f 64/98/41 63/97/41 61/99/41
f 62/100/42 61/99/42 57/101/42
f 63/97/43 59/102/43 57/103/43
f 60/104/44 64/98/44 62/100/44
f 2/1/1 3/3/1 4/4/1
f 4/4/2 7/5/2 8/105/2
f 8/6/3 5/8/3 6/15/3
f 5/9/4 2/11/4 6/106/4
f 3/12/5 5/9/5 7/5/5
f 4/14/6 6/15/6 2/107/6
f 10/16/7 11/18/7 12/19/7
f 12/19/2 15/20/2 16/21/2
f 16/21/8 13/22/8 14/23/8
f 14/23/4 9/24/4 10/108/4
f 15/20/9 9/26/9 13/22/9
f 12/27/10 14/23/10 10/109/10
f 18/28/11 19/30/11 20/110/11
f 20/31/12 23/33/12 24/34/12
f 24/34/13 21/35/13 22/36/13
f 22/36/14 17/37/14 18/111/14
f 23/33/15 17/39/15 21/35/15
f 24/34/16 18/40/16 20/112/16
f 25/41/17 28/43/17 26/113/17
f 28/43/18 31/44/18 32/52/18
f 31/44/19 30/46/19 32/52/19
f 29/45/20 26/48/20 30/46/20
f 31/44/21 25/50/21 29/45/21
f 28/51/22 30/46/22 26/114/22
f 34/53/45 35/55/45 36/56/45
f 36/56/46 39/57/46 40/115/46
f 39/57/47 38/59/47 40/115/47
f 37/58/48 34/61/48 38/59/48
f 39/57/27 33/63/27 37/58/27
f 36/64/28 38/66/28 34/116/28
f 42/67/29 43/69/29 44/70/29
f 44/70/2 47/71/2 48/72/2
f 48/72/30 45/73/30 46/74/30
f 46/74/4 41/75/4 42/117/4
f 47/71/31 41/77/31 45/73/31
f 44/78/32 46/74/32 42/118/32
f 50/79/49 51/81/49 52/82/49
f 52/82/50 55/83/50 56/119/50
f 55/83/51 54/85/51 56/119/51
f 53/84/52 50/87/52 54/85/52
f 55/83/37 49/89/37 53/84/37
f 52/90/38 54/92/38 50/120/38
f 58/93/39 59/95/39 60/96/39
f 60/96/40 63/97/40 64/98/40
f 64/98/41 61/99/41 62/100/41
f 62/100/42 57/101/42 58/121/42
f 63/97/43 57/103/43 61/99/43
f 60/104/44 62/100/44 58/122/44
