# Blender v3.2.1 OBJ File: 'Cube - Kopie.blend'
# www.blender.org
o Golem_Cube.013
v -0.110187 -0.006679 -0.257345
v -0.111628 0.207900 -0.257345
v -0.110187 -0.006679 -0.042761
v -0.111628 0.207900 -0.042761
v 0.104392 -0.005237 -0.257345
v 0.102951 0.209341 -0.257345
v 0.104392 -0.005237 -0.042761
v 0.102951 0.209341 -0.042761
v -0.266559 0.162726 0.353302
v -0.266559 0.839682 0.353302
v -0.266559 0.162726 -0.353302
v -0.266559 0.839682 -0.353302
v 0.256388 0.162726 0.353302
v 0.256388 0.839682 0.353302
v 0.256388 0.162726 -0.353302
v 0.256388 0.839682 -0.353302
v -0.451036 0.621139 0.179675
v -0.440236 0.992171 0.188461
v -0.449176 0.629874 -0.191511
v -0.438376 1.000907 -0.182725
v -0.079904 0.610298 0.181279
v -0.069104 0.981330 0.190065
v -0.078044 0.619034 -0.189907
v -0.067244 0.990066 -0.181121
v -0.122243 0.697101 0.597457
v -0.143157 0.954254 0.537192
v -0.131084 0.618676 0.265886
v -0.151998 0.875828 0.205620
v 0.141787 0.715883 0.585975
v 0.120873 0.973036 0.525709
v 0.132946 0.637459 0.254403
v 0.112032 0.894611 0.194138
v -0.031351 0.239265 0.634977
v -0.067098 0.691344 0.521821
v -0.034756 0.197565 0.493847
v -0.071821 0.667219 0.376687
v 0.115328 0.249727 0.628347
v 0.079571 0.701999 0.515277
v 0.111923 0.208027 0.487217
v 0.074849 0.677873 0.370143
v -0.120747 -0.001934 0.267017
v -0.115020 0.211565 0.267017
v -0.120747 -0.001934 0.053441
v -0.115020 0.211565 0.053441
v 0.092751 -0.007662 0.267017
v 0.098479 0.205837 0.267017
v 0.092751 -0.007662 0.053441
v 0.098479 0.205837 0.053441
v -0.169361 0.267257 -0.638255
v -0.096848 0.711450 -0.512187
v -0.177252 0.222587 -0.498218
v -0.101864 0.684044 -0.367647
v -0.024033 0.243860 -0.637531
v 0.048511 0.688245 -0.511544
v -0.031923 0.199190 -0.497493
v 0.043496 0.660839 -0.367003
v -0.151837 0.732196 -0.585268
v -0.111299 0.985136 -0.517629
v -0.166726 0.646460 -0.255729
v -0.126188 0.899399 -0.188090
v 0.109733 0.690047 -0.584416
v 0.150272 0.942986 -0.516777
v 0.094844 0.604311 -0.254877
v 0.135383 0.857249 -0.187238
vt 0.504793 0.327954
vt 0.496597 0.327954
vt 0.496597 0.336151
vt 0.504793 0.336151
vt 0.496597 0.344347
vt 0.313065 0.355978
vt 0.297352 0.355978
vt 0.297352 0.371691
vt 0.504793 0.352543
vt 0.496597 0.352543
vt 0.496597 0.360739
vt 0.488401 0.344347
vt 0.488401 0.352543
vt 0.328778 0.355978
vt 0.313065 0.371691
vt 0.313065 0.324552
vt 0.297352 0.324552
vt 0.297352 0.340265
vt 0.313065 0.340265
vt 0.297352 0.355978
vt 0.313065 0.355978
vt 0.297352 0.371691
vt 0.313065 0.371691
vt 0.297352 0.387405
vt 0.281639 0.355978
vt 0.281639 0.371691
vt 0.328778 0.355978
vt 0.456312 0.649001
vt 0.456312 0.457392
vt 0.343688 0.457392
vt 0.402166 0.475467
vt 0.393970 0.475467
vt 0.393970 0.483663
vt 0.393970 0.491859
vt 0.402166 0.491859
vt 0.393970 0.500055
vt 0.402166 0.500055
vt 0.385773 0.483663
vt 0.385773 0.491859
vt 0.410362 0.483663
vt 0.402166 0.483663
vt 0.438346 0.321539
vt 0.438346 0.337252
vt 0.454059 0.337252
vt 0.438346 0.352966
vt 0.438346 0.368679
vt 0.454059 0.368679
vt 0.438346 0.384392
vt 0.422632 0.352966
vt 0.422632 0.368679
vt 0.469772 0.352966
vt 0.454059 0.352966
vt 0.393262 0.322395
vt 0.377549 0.322395
vt 0.377549 0.338108
vt 0.393262 0.338108
vt 0.377549 0.353821
vt 0.377549 0.369535
vt 0.393262 0.369535
vt 0.377549 0.385248
vt 0.393262 0.385248
vt 0.361835 0.353821
vt 0.361835 0.369535
vt 0.313065 0.355978
vt 0.313065 0.371691
vt 0.328778 0.371691
vt 0.504793 0.327954
vt 0.496597 0.327954
vt 0.496597 0.336151
vt 0.504793 0.336151
vt 0.496597 0.344347
vt 0.504793 0.344347
vt 0.496597 0.352543
vt 0.504793 0.352543
vt 0.496597 0.360739
vt 0.488401 0.344347
vt 0.488401 0.352543
vt 0.512990 0.344347
vt 0.393262 0.322395
vt 0.377549 0.322395
vt 0.377549 0.338108
vt 0.393262 0.338108
vt 0.377549 0.353821
vt 0.377549 0.369535
vt 0.393262 0.369535
vt 0.377549 0.385248
vt 0.393262 0.385248
vt 0.361835 0.353821
vt 0.361835 0.369535
vt 0.328778 0.355978
vt 0.313065 0.355978
vt 0.313065 0.371691
vt 0.455712 0.322618
vt 0.439999 0.322618
vt 0.439999 0.338331
vt 0.455712 0.338331
vt 0.439999 0.354044
vt 0.455712 0.354044
vt 0.439999 0.369757
vt 0.455712 0.369757
vt 0.439999 0.385470
vt 0.424286 0.354044
vt 0.424286 0.369757
vt 0.471426 0.354044
vt 0.504793 0.344347
vt 0.504793 0.360739
vt 0.328778 0.371691
vt 0.313065 0.387405
vt 0.328778 0.371691
vt 0.343688 0.649001
vt 0.410362 0.491859
vt 0.454059 0.321539
vt 0.454059 0.384392
vt 0.469772 0.368679
vt 0.393262 0.353821
vt 0.328778 0.355978
vt 0.504793 0.360739
vt 0.512990 0.352543
vt 0.393262 0.353821
vt 0.328778 0.371691
vt 0.455712 0.385470
vt 0.471426 0.369757
vn -1.0000 -0.0067 0.0000
vn 0.0000 0.0000 1.0000
vn 1.0000 0.0067 0.0000
vn -0.0000 0.0000 -1.0000
vn 0.0067 -1.0000 0.0000
vn -0.0067 1.0000 0.0000
vn 1.0000 0.0000 0.0000
vn -1.0000 0.0000 0.0000
vn 0.0000 1.0000 0.0000
vn 0.0000 -1.0000 0.0000
vn 0.9996 -0.0292 0.0043
vn -0.0050 -0.0235 0.9997
vn -0.9996 0.0292 -0.0043
vn 0.0050 0.0235 -0.9997
vn 0.0291 0.9993 0.0237
vn -0.0291 -0.9993 -0.0237
vn 0.9965 0.0709 -0.0433
vn 0.0259 0.2301 0.9728
vn -0.9965 -0.0709 0.0433
vn -0.0259 -0.2301 -0.9728
vn -0.0789 0.9706 -0.2275
vn 0.0789 -0.9706 0.2275
vn 0.9967 0.0678 -0.0441
vn 0.0264 0.2439 0.9694
vn -0.9967 -0.0678 0.0441
vn -0.0264 -0.2447 -0.9692
vn -0.0809 0.9564 -0.2806
vn 0.0786 -0.9838 0.1610
vn 0.9996 -0.0268 0.0000
vn -0.9996 0.0268 -0.0000
vn 0.0268 0.9996 -0.0000
vn -0.0268 -0.9996 -0.0000
vn -0.9868 0.1622 -0.0039
vn -0.0474 -0.2648 0.9631
vn 0.9868 -0.1622 0.0039
vn 0.0476 0.2655 -0.9629
vn -0.1497 -0.9395 -0.3081
vn 0.1540 0.9698 0.1892
vn -0.9873 0.1591 -0.0032
vn -0.0437 -0.2515 0.9669
vn 0.9873 -0.1591 0.0032
vn 0.0437 0.2515 -0.9669
vn -0.1530 -0.9547 -0.2553
vn 0.1530 0.9547 0.2553
vn 0.9967 0.0678 -0.0437
vn 0.0256 0.2436 0.9695
vn -0.9967 -0.0678 0.0437
vn -0.0255 -0.2444 -0.9693
vn -0.9868 0.1622 -0.0035
vn -0.0465 -0.2647 0.9632
vn 0.9868 -0.1622 0.0035
vn 0.0466 0.2654 -0.9630
s off
f 2/1/1 1/2/1 3/3/1
f 4/4/2 3/3/2 7/5/2
f 8/6/3 7/7/3 5/8/3
f 6/9/4 5/10/4 1/11/4
f 7/5/5 3/12/5 1/13/5
f 4/14/6 8/6/6 6/15/6
f 10/16/7 9/17/7 11/18/7
f 12/19/2 11/18/2 15/20/2
f 16/21/8 15/20/8 13/22/8
f 14/23/4 13/22/4 9/24/4
f 15/20/9 11/25/9 9/26/9
f 12/27/10 16/21/10 14/23/10
f 18/28/11 17/29/11 19/30/11
f 20/31/12 19/32/12 23/33/12
f 23/33/13 21/34/13 22/35/13
f 21/34/14 17/36/14 18/37/14
f 19/38/15 17/39/15 21/34/15
f 20/40/16 24/41/16 22/35/16
f 25/42/17 27/43/17 28/44/17
f 28/44/18 27/43/18 31/45/18
f 31/45/19 29/46/19 30/47/19
f 30/47/20 29/46/20 25/48/20
f 27/49/21 25/50/21 29/46/21
f 28/51/22 32/52/22 30/47/22
f 34/53/23 33/54/23 35/55/23
f 36/56/24 35/55/24 39/57/24
f 39/57/25 37/58/25 38/59/25
f 37/58/26 33/60/26 34/61/26
f 39/57/27 35/62/27 33/63/27
f 40/64/28 38/65/28 34/66/28
f 42/67/29 41/68/29 43/69/29
f 44/70/2 43/69/2 47/71/2
f 48/72/30 47/71/30 45/73/30
f 46/74/4 45/73/4 41/75/4
f 43/76/31 41/77/31 45/73/31
f 44/78/32 48/72/32 46/74/32
f 50/79/33 49/80/33 51/81/33
f 52/82/34 51/81/34 55/83/34
f 55/83/35 53/84/35 54/85/35
f 53/84/36 49/86/36 50/87/36
f 55/83/37 51/88/37 49/89/37
f 52/90/38 56/91/38 54/92/38
f 58/93/39 57/94/39 59/95/39
f 60/96/40 59/95/40 63/97/40
f 64/98/41 63/97/41 61/99/41
f 62/100/42 61/99/42 57/101/42
f 63/97/43 59/102/43 57/103/43
f 60/104/44 64/98/44 62/100/44
f 2/1/1 3/3/1 4/4/1
f 4/4/2 7/5/2 8/105/2
f 8/6/3 5/8/3 6/15/3
f 6/9/4 1/11/4 2/106/4
f 7/5/5 1/13/5 5/10/5
f 4/14/6 6/15/6 2/107/6
f 10/16/7 11/18/7 12/19/7
f 12/19/2 15/20/2 16/21/2
f 16/21/8 13/22/8 14/23/8
f 14/23/4 9/24/4 10/108/4
f 15/20/9 9/26/9 13/22/9
f 12/27/10 14/23/10 10/109/10
f 18/28/11 19/30/11 20/110/11
f 20/31/12 23/33/12 24/41/12
f 23/33/13 22/35/13 24/41/13
f 21/34/14 18/37/14 22/35/14
f 19/38/15 21/34/15 23/33/15
f 20/40/16 22/35/16 18/111/16
f 25/42/17 28/44/17 26/112/17
f 28/44/18 31/45/18 32/52/18
f 31/45/19 30/47/19 32/52/19
f 30/47/20 25/48/20 26/113/20
f 27/49/21 29/46/21 31/45/21
f 28/51/22 30/47/22 26/114/22
f 34/53/45 35/55/45 36/56/45
f 36/56/46 39/57/46 40/115/46
f 39/57/47 38/59/47 40/115/47
f 37/58/48 34/61/48 38/59/48
f 39/57/27 33/63/27 37/58/27
f 40/64/28 34/66/28 36/116/28
f 42/67/29 43/69/29 44/70/29
f 44/70/2 47/71/2 48/72/2
f 48/72/30 45/73/30 46/74/30
f 46/74/4 41/75/4 42/117/4
f 43/76/31 45/73/31 47/71/31
f 44/78/32 46/74/32 42/118/32
f 50/79/49 51/81/49 52/82/49
f 52/82/50 55/83/50 56/119/50
f 55/83/51 54/85/51 56/119/51
f 53/84/52 50/87/52 54/85/52
f 55/83/37 49/89/37 53/84/37
f 52/90/38 54/92/38 50/120/38
f 58/93/39 59/95/39 60/96/39
f 60/96/40 63/97/40 64/98/40
f 64/98/41 61/99/41 62/100/41
f 62/100/42 57/101/42 58/121/42
f 63/97/43 57/103/43 61/99/43
f 60/104/44 62/100/44 58/122/44
