# Blender v3.2.1 OBJ File: 'Modeling.blend'
# www.blender.org
o Golem_Cube.013
v -0.262962 0.004789 0.095303
v -0.262962 0.218053 0.094904
v -0.049887 0.004806 0.104294
v -0.049887 0.218070 0.103895
v -0.253971 0.004390 -0.117771
v -0.253971 0.217654 -0.118170
v -0.040897 0.004407 -0.108780
v -0.040897 0.217671 -0.109180
v 0.346667 0.168684 0.278430
v 0.346667 0.854628 0.280345
v -0.368685 0.168769 0.248246
v -0.368685 0.854712 0.250161
v 0.369005 0.170162 -0.250988
v 0.369005 0.856106 -0.249074
v -0.346346 0.170246 -0.281172
v -0.346346 0.856190 -0.279257
v 0.169298 0.623535 0.453387
v 0.169298 0.999756 0.454804
v -0.206592 0.623595 0.437526
v -0.206592 0.999816 0.438944
v 0.185158 0.624951 0.077499
v 0.185158 1.001173 0.078917
v -0.190732 0.625011 0.061639
v -0.190732 1.001232 0.063056
v 0.596573 0.723937 0.159819
v 0.531738 0.984391 0.154044
v 0.261626 0.640340 0.149961
v 0.196792 0.900795 0.144186
v 0.605405 0.720186 -0.108474
v 0.540571 0.980641 -0.114250
v 0.270459 0.636590 -0.118332
v 0.205624 0.897044 -0.124108
v 0.645701 0.254553 0.110717
v 0.524517 0.712238 0.098981
v 0.503237 0.210541 0.106878
v 0.377747 0.686019 0.094644
v 0.650354 0.252493 -0.038353
v 0.529255 0.710375 -0.050088
v 0.507890 0.208482 -0.042191
v 0.382485 0.684156 -0.054425
v 0.264483 0.004826 0.117555
v 0.264483 0.218089 0.117156
v 0.051409 0.004809 0.108565
v 0.051409 0.218072 0.108165
v 0.273474 0.004427 -0.095519
v 0.273474 0.217690 -0.095918
v 0.060399 0.004410 -0.104509
v 0.060399 0.217674 -0.104909
v -0.645136 0.267966 0.123243
v -0.521027 0.721689 0.068186
v -0.503083 0.224479 0.136562
v -0.374549 0.695834 0.079289
v -0.637271 0.248432 -0.024419
v -0.513246 0.702349 -0.079506
v -0.495218 0.204945 -0.011100
v -0.366768 0.676494 -0.068403
v -0.597873 0.740096 0.120969
v -0.531435 0.998382 0.090184
v -0.263719 0.657499 0.149130
v -0.197281 0.915785 0.118345
v -0.584175 0.704893 -0.144825
v -0.517737 0.963179 -0.175610
v -0.250021 0.622296 -0.116665
v -0.183582 0.880582 -0.147449
vt 0.332623 0.799770
vt 0.332623 0.791075
vt 0.352496 0.791075
vt 0.352496 0.799770
vt 0.352496 0.791075
vt 0.352496 0.799770
vt 0.332623 0.791075
vt 0.332623 0.799770
vt 0.292030 0.788489
vt 0.292030 0.790895
vt 0.286290 0.790895
vt 0.286290 0.788489
vt 0.286290 0.788489
vt 0.292030 0.788489
vt 0.286290 0.790895
vt 0.292030 0.790895
vt 0.317054 0.830042
vt 0.444875 0.830042
vt 0.444875 0.885963
vt 0.317054 0.885963
vt 0.317054 0.885963
vt 0.444875 0.830042
vt 0.317054 0.830042
vt 0.444875 0.885963
vt 0.500566 0.789383
vt 0.494303 0.800354
vt 0.462042 0.796829
vt 0.468066 0.785900
vt 0.468305 0.785857
vt 0.500327 0.789425
vt 0.461802 0.796871
vt 0.494063 0.800397
vt 0.307275 0.793059
vt 0.310610 0.793510
vt 0.307764 0.798198
vt 0.307237 0.793065
vt 0.304327 0.797929
vt 0.304291 0.797937
vt 0.307727 0.798206
vt 0.310572 0.793516
vt 0.361943 0.791075
vt 0.381817 0.791075
vt 0.381817 0.799770
vt 0.361943 0.791075
vt 0.361943 0.799770
vt 0.381817 0.791075
vt 0.361943 0.799770
vt 0.381817 0.799770
vt 0.274749 0.795890
vt 0.273897 0.790418
vt 0.277822 0.790231
vt 0.278697 0.795915
vt 0.277861 0.790242
vt 0.273937 0.790428
vt 0.274786 0.795902
vt 0.278733 0.795927
vt 0.467160 0.800606
vt 0.460897 0.789634
vt 0.493158 0.786109
vt 0.499421 0.797080
vt 0.493397 0.786151
vt 0.499661 0.797123
vt 0.461136 0.789677
vt 0.467400 0.800649
vn -0.0422 0.0019 0.9991
vn 0.9991 0.0001 0.0422
vn 0.0422 -0.0019 -0.9991
vn -0.9991 -0.0001 -0.0422
vn 0.0000 -1.0000 0.0019
vn 0.0000 1.0000 -0.0019
vn -0.0422 -0.0028 0.9991
vn -0.9991 0.0001 -0.0422
vn 0.0422 0.0028 -0.9991
vn 0.9991 -0.0001 0.0422
vn 0.0000 -1.0000 -0.0028
vn -0.0000 1.0000 0.0028
vn -0.0422 -0.0038 0.9991
vn -0.9991 0.0002 -0.0422
vn 0.0422 0.0038 -0.9991
vn 0.9991 -0.0002 0.0422
vn 0.0000 -1.0000 -0.0038
vn -0.0000 1.0000 0.0038
vn -0.0329 0.0140 0.9994
vn -0.9698 -0.2421 -0.0285
vn 0.0329 -0.0140 -0.9994
vn 0.9698 0.2421 0.0285
vn 0.2415 -0.9702 0.0215
vn -0.2415 0.9702 -0.0215
vn -0.0322 0.0171 0.9993
vn -0.9664 -0.2557 -0.0266
vn 0.0326 -0.0171 -0.9993
vn 0.9662 0.2562 0.0275
vn 0.2945 -0.9554 0.0224
vn -0.1753 0.9843 -0.0179
vn -0.0517 0.1342 0.9896
vn 0.9639 -0.2525 0.0847
vn 0.0517 -0.1342 -0.9896
vn -0.9637 0.2533 -0.0848
vn -0.3003 -0.9475 0.1094
vn 0.1813 0.9763 -0.1183
vn -0.0510 0.1311 0.9901
vn 0.9675 -0.2392 0.0815
vn 0.0510 -0.1311 -0.9901
vn -0.9675 0.2392 -0.0815
vn -0.2475 -0.9621 0.1147
vn 0.2475 0.9621 -0.1147
vn -0.0326 0.0171 0.9993
vn -0.9664 -0.2555 -0.0275
vn 0.0322 -0.0171 -0.9993
vn 0.9662 0.2565 0.0266
vn -0.0513 0.1342 0.9896
vn 0.9640 -0.2524 0.0838
vn 0.0513 -0.1342 -0.9896
vn -0.9638 0.2532 -0.0839
s off
f 2/1/1 1/2/1 3/3/1
f 4/4/2 3/3/2 7/5/2
f 8/6/3 7/5/3 5/7/3
f 6/8/4 5/7/4 1/2/4
f 7/5/5 3/3/5 1/2/5
f 8/6/6 6/8/6 2/1/6
f 9/9/7 10/10/7 12/11/7
f 15/12/8 11/13/8 12/11/8
f 13/14/9 15/12/9 16/15/9
f 9/9/10 13/14/10 14/16/10
f 9/9/11 11/13/11 15/12/11
f 14/16/12 16/15/12 12/11/12
f 19/17/13 17/18/13 18/19/13
f 19/17/14 20/20/14 24/21/14
f 21/22/15 23/23/15 24/21/15
f 21/22/16 22/24/16 18/19/16
f 17/18/17 19/17/17 23/23/17
f 22/24/18 24/21/18 20/20/18
f 25/25/19 26/26/19 28/27/19
f 31/28/20 27/29/20 28/27/20
f 29/30/21 31/28/21 32/31/21
f 25/25/22 29/30/22 30/32/22
f 25/25/23 27/29/23 31/28/23
f 30/32/24 32/31/24 28/27/24
f 35/33/25 33/34/25 34/35/25
f 39/36/26 35/33/26 36/37/26
f 39/36/27 40/38/27 38/39/27
f 37/40/28 38/39/28 34/35/28
f 35/33/29 39/36/29 37/40/29
f 38/39/30 40/38/30 36/37/30
f 43/41/1 41/42/1 42/43/1
f 47/44/4 43/41/4 44/45/4
f 45/46/3 47/44/3 48/47/3
f 41/42/2 45/46/2 46/48/2
f 41/42/5 43/41/5 47/44/5
f 46/48/6 48/47/6 44/45/6
f 50/49/31 49/50/31 51/51/31
f 52/52/32 51/51/32 55/53/32
f 55/53/33 53/54/33 54/55/33
f 53/54/34 49/50/34 50/49/34
f 51/51/35 49/50/35 53/54/35
f 52/52/36 56/56/36 54/55/36
f 58/57/37 57/58/37 59/59/37
f 60/60/38 59/59/38 63/61/38
f 64/62/39 63/61/39 61/63/39
f 61/63/40 57/58/40 58/57/40
f 63/61/41 59/59/41 57/58/41
f 60/60/42 64/62/42 62/64/42
f 2/1/1 3/3/1 4/4/1
f 4/4/2 7/5/2 8/6/2
f 8/6/3 5/7/3 6/8/3
f 6/8/4 1/2/4 2/1/4
f 7/5/5 1/2/5 5/7/5
f 8/6/6 2/1/6 4/4/6
f 9/9/7 12/11/7 11/13/7
f 15/12/8 12/11/8 16/15/8
f 13/14/9 16/15/9 14/16/9
f 9/9/10 14/16/10 10/10/10
f 9/9/11 15/12/11 13/14/11
f 14/16/12 12/11/12 10/10/12
f 19/17/13 18/19/13 20/20/13
f 19/17/14 24/21/14 23/23/14
f 21/22/15 24/21/15 22/24/15
f 21/22/16 18/19/16 17/18/16
f 17/18/17 23/23/17 21/22/17
f 22/24/18 20/20/18 18/19/18
f 25/25/19 28/27/19 27/29/19
f 31/28/20 28/27/20 32/31/20
f 29/30/21 32/31/21 30/32/21
f 25/25/22 30/32/22 26/26/22
f 25/25/23 31/28/23 29/30/23
f 30/32/24 28/27/24 26/26/24
f 35/33/43 34/35/43 36/37/43
f 39/36/44 36/37/44 40/38/44
f 39/36/45 38/39/45 37/40/45
f 37/40/46 34/35/46 33/34/46
f 35/33/29 37/40/29 33/34/29
f 38/39/30 36/37/30 34/35/30
f 43/41/1 42/43/1 44/45/1
f 47/44/4 44/45/4 48/47/4
f 45/46/3 48/47/3 46/48/3
f 41/42/2 46/48/2 42/43/2
f 41/42/5 47/44/5 45/46/5
f 46/48/6 44/45/6 42/43/6
f 50/49/47 51/51/47 52/52/47
f 52/52/48 55/53/48 56/56/48
f 55/53/49 54/55/49 56/56/49
f 53/54/50 50/49/50 54/55/50
f 51/51/35 53/54/35 55/53/35
f 52/52/36 54/55/36 50/49/36
f 58/57/37 59/59/37 60/60/37
f 60/60/38 63/61/38 64/62/38
f 64/62/39 61/63/39 62/64/39
f 61/63/40 58/57/40 62/64/40
f 63/61/41 57/58/41 61/63/41
f 60/60/42 62/64/42 58/57/42
