# Blender v3.2.1 OBJ File: 'Modeling.blend'
# www.blender.org
o Golem_Cube.013
v -0.262962 0.009645 0.087178
v -0.262962 0.222706 0.077880
v -0.049887 0.010037 0.096160
v -0.049887 0.223098 0.086862
v -0.253971 0.000356 -0.125694
v -0.253971 0.213417 -0.134992
v -0.040897 0.000748 -0.116712
v -0.040897 0.213809 -0.126010
v 0.346667 0.152598 0.246464
v 0.346667 0.837097 0.291001
v -0.368685 0.154558 0.216343
v -0.368685 0.839056 0.260881
v 0.369005 0.186972 -0.281840
v 0.369005 0.871471 -0.237302
v -0.346346 0.188932 -0.311960
v -0.346346 0.873431 -0.267422
v 0.169298 0.586151 0.444863
v 0.169298 0.960929 0.477812
v -0.206592 0.587540 0.429064
v -0.206592 0.962318 0.462013
v 0.185158 0.619070 0.070418
v 0.185158 0.993849 0.103367
v -0.190732 0.620459 0.054618
v -0.190732 0.995238 0.087567
v 0.595540 0.760961 0.190161
v 0.534321 1.011024 0.114044
v 0.259440 0.682526 0.202800
v 0.198222 0.932590 0.126683
v 0.603675 0.684645 -0.067100
v 0.542457 0.934709 -0.143217
v 0.267576 0.606210 -0.054461
v 0.206357 0.856274 -0.130578
v 0.638016 0.295154 0.269947
v 0.523183 0.734253 0.134652
v 0.494945 0.253750 0.277951
v 0.376052 0.709901 0.137357
v 0.642282 0.252779 0.127000
v 0.527536 0.692065 -0.008347
v 0.499211 0.211375 0.135005
v 0.380406 0.667714 -0.005642
v 0.264483 0.010610 0.109409
v 0.264483 0.223671 0.100111
v 0.051409 0.010218 0.100427
v 0.051409 0.223279 0.091129
v 0.273474 0.001321 -0.103463
v 0.273474 0.214382 -0.112760
v 0.060399 0.000929 -0.112445
v 0.060399 0.213990 -0.121743
v -0.649249 0.290232 0.197298
v -0.521772 0.733485 0.089712
v -0.507517 0.247525 0.215625
v -0.375484 0.707997 0.103782
v -0.641634 0.253548 0.052924
v -0.514239 0.696991 -0.054714
v -0.499902 0.210841 0.071251
v -0.367951 0.671503 -0.040644
v -0.598441 0.758503 0.139973
v -0.530085 1.010926 0.079281
v -0.264897 0.677236 0.177638
v -0.196541 0.929659 0.116947
v -0.585192 0.692433 -0.119898
v -0.516837 0.944856 -0.180589
v -0.251649 0.611166 -0.082232
v -0.183293 0.863589 -0.142924
vt 0.332623 0.791075
vt 0.352496 0.791075
vt 0.352496 0.799770
vt 0.352496 0.791075
vt 0.352496 0.799770
vt 0.332623 0.791075
vt 0.332623 0.799770
vt 0.332623 0.799770
vt 0.379825 0.811802
vt 0.379825 0.826888
vt 0.343834 0.826888
vt 0.343834 0.811802
vt 0.343834 0.811802
vt 0.379825 0.811802
vt 0.343834 0.826888
vt 0.379825 0.826888
vt 0.317054 0.830042
vt 0.444875 0.830042
vt 0.444875 0.885963
vt 0.317054 0.830042
vt 0.317054 0.885963
vt 0.444875 0.830042
vt 0.317054 0.885963
vt 0.444875 0.885963
vt 0.468305 0.785857
vt 0.500566 0.789383
vt 0.494303 0.800354
vt 0.462042 0.796829
vt 0.461802 0.796871
vt 0.500327 0.789425
vt 0.468066 0.785900
vt 0.494063 0.800397
vt 0.475418 0.840458
vt 0.496331 0.843287
vt 0.478481 0.872677
vt 0.475178 0.840496
vt 0.456932 0.870991
vt 0.456705 0.871041
vt 0.478253 0.872728
vt 0.496091 0.843325
vt 0.361943 0.791075
vt 0.381817 0.791075
vt 0.381817 0.799770
vt 0.361943 0.791075
vt 0.361943 0.799770
vt 0.381817 0.791075
vt 0.361943 0.799770
vt 0.381817 0.799770
vt 0.271473 0.858204
vt 0.266129 0.823895
vt 0.290739 0.822725
vt 0.296224 0.858363
vt 0.290986 0.822790
vt 0.266377 0.823960
vt 0.271700 0.858282
vt 0.296452 0.858441
vt 0.460897 0.789634
vt 0.493158 0.786109
vt 0.499421 0.797080
vt 0.493397 0.786151
vt 0.499661 0.797123
vt 0.461136 0.789677
vt 0.467160 0.800606
vt 0.467400 0.800649
vn -0.0422 0.0436 0.9982
vn 0.9991 0.0018 0.0421
vn 0.0422 -0.0436 -0.9982
vn -0.9991 -0.0018 -0.0421
vn 0.0000 -0.9990 0.0436
vn -0.0000 0.9990 -0.0436
vn -0.0422 -0.0649 0.9970
vn -0.9991 0.0027 -0.0421
vn 0.0422 0.0649 -0.9970
vn 0.9991 -0.0027 0.0421
vn -0.0000 -0.9979 -0.0649
vn 0.0000 0.9979 0.0649
vn -0.0422 -0.0875 0.9953
vn -0.9991 0.0037 -0.0420
vn 0.0422 0.0875 -0.9953
vn 0.9991 -0.0037 0.0420
vn 0.0000 -0.9962 -0.0876
vn 0.0000 0.9962 0.0876
vn -0.0303 0.2843 0.9583
vn -0.9732 -0.2271 0.0366
vn 0.0303 -0.2843 -0.9583
vn 0.9732 0.2271 -0.0366
vn 0.2280 -0.9315 0.2835
vn -0.2280 0.9315 -0.2835
vn -0.0296 0.2873 0.9574
vn -0.9699 -0.2398 0.0421
vn 0.0299 -0.2873 -0.9574
vn 0.9698 0.2405 -0.0414
vn 0.2813 -0.9177 0.2804
vn -0.1616 0.9452 -0.2838
vn -0.0500 0.2491 0.9672
vn 0.9620 -0.2482 0.1138
vn 0.0500 -0.2491 -0.9672
vn -0.9618 0.2489 -0.1140
vn -0.3074 -0.9260 0.2191
vn 0.1885 0.9544 -0.2313
vn -0.0493 0.2461 0.9680
vn 0.9658 -0.2353 0.1091
vn 0.0493 -0.2461 -0.9680
vn -0.9658 0.2353 -0.1091
vn -0.2546 -0.9402 0.2261
vn 0.2546 0.9402 -0.2261
vn -0.0299 0.2873 0.9574
vn -0.9699 -0.2398 0.0412
vn 0.0296 -0.2873 -0.9574
vn 0.9697 0.2405 -0.0424
vn -0.0496 0.2491 0.9672
vn 0.9621 -0.2482 0.1129
vn 0.0496 -0.2491 -0.9672
vn -0.9619 0.2489 -0.1131
s off
f 1/1/1 3/2/1 4/3/1
f 4/3/2 3/2/2 7/4/2
f 8/5/3 7/4/3 5/6/3
f 6/7/4 5/6/4 1/1/4
f 7/4/5 3/2/5 1/1/5
f 8/5/6 6/7/6 2/8/6
f 9/9/7 10/10/7 12/11/7
f 15/12/8 11/13/8 12/11/8
f 13/14/9 15/12/9 16/15/9
f 13/14/10 14/16/10 10/10/10
f 9/9/11 11/13/11 15/12/11
f 14/16/12 16/15/12 12/11/12
f 19/17/13 17/18/13 18/19/13
f 23/20/14 19/17/14 20/21/14
f 21/22/15 23/20/15 24/23/15
f 17/18/16 21/22/16 22/24/16
f 19/17/17 23/20/17 21/22/17
f 24/23/18 20/21/18 18/19/18
f 27/25/19 25/26/19 26/27/19
f 27/25/20 28/28/20 32/29/20
f 29/30/21 31/31/21 32/29/21
f 29/30/22 30/32/22 26/27/22
f 25/26/23 27/25/23 31/31/23
f 32/29/24 28/28/24 26/27/24
f 35/33/25 33/34/25 34/35/25
f 39/36/26 35/33/26 36/37/26
f 39/36/27 40/38/27 38/39/27
f 37/40/28 38/39/28 34/35/28
f 33/34/29 35/33/29 39/36/29
f 40/38/30 36/37/30 34/35/30
f 43/41/1 41/42/1 42/43/1
f 47/44/4 43/41/4 44/45/4
f 45/46/3 47/44/3 48/47/3
f 41/42/2 45/46/2 46/48/2
f 41/42/5 43/41/5 47/44/5
f 46/48/6 48/47/6 44/45/6
f 50/49/31 49/50/31 51/51/31
f 52/52/32 51/51/32 55/53/32
f 55/53/33 53/54/33 54/55/33
f 53/54/34 49/50/34 50/49/34
f 51/51/35 49/50/35 53/54/35
f 52/52/36 56/56/36 54/55/36
f 57/57/37 59/58/37 60/59/37
f 60/59/38 59/58/38 63/60/38
f 64/61/39 63/60/39 61/62/39
f 61/62/40 57/57/40 58/63/40
f 59/58/41 57/57/41 61/62/41
f 60/59/42 64/61/42 62/64/42
f 1/1/1 4/3/1 2/8/1
f 4/3/2 7/4/2 8/5/2
f 8/5/3 5/6/3 6/7/3
f 6/7/4 1/1/4 2/8/4
f 7/4/5 1/1/5 5/6/5
f 8/5/6 2/8/6 4/3/6
f 9/9/7 12/11/7 11/13/7
f 15/12/8 12/11/8 16/15/8
f 13/14/9 16/15/9 14/16/9
f 13/14/10 10/10/10 9/9/10
f 9/9/11 15/12/11 13/14/11
f 14/16/12 12/11/12 10/10/12
f 19/17/13 18/19/13 20/21/13
f 23/20/14 20/21/14 24/23/14
f 21/22/15 24/23/15 22/24/15
f 17/18/16 22/24/16 18/19/16
f 19/17/17 21/22/17 17/18/17
f 24/23/18 18/19/18 22/24/18
f 27/25/19 26/27/19 28/28/19
f 27/25/20 32/29/20 31/31/20
f 29/30/21 32/29/21 30/32/21
f 29/30/22 26/27/22 25/26/22
f 25/26/23 31/31/23 29/30/23
f 32/29/24 26/27/24 30/32/24
f 35/33/43 34/35/43 36/37/43
f 39/36/44 36/37/44 40/38/44
f 39/36/45 38/39/45 37/40/45
f 37/40/46 34/35/46 33/34/46
f 33/34/29 39/36/29 37/40/29
f 40/38/30 34/35/30 38/39/30
f 43/41/1 42/43/1 44/45/1
f 47/44/4 44/45/4 48/47/4
f 45/46/3 48/47/3 46/48/3
f 41/42/2 46/48/2 42/43/2
f 41/42/5 47/44/5 45/46/5
f 46/48/6 44/45/6 42/43/6
f 50/49/47 51/51/47 52/52/47
f 52/52/48 55/53/48 56/56/48
f 55/53/49 54/55/49 56/56/49
f 53/54/50 50/49/50 54/55/50
f 51/51/35 53/54/35 55/53/35
f 52/52/36 54/55/36 50/49/36
f 57/57/37 60/59/37 58/63/37
f 60/59/38 63/60/38 64/61/38
f 64/61/39 61/62/39 62/64/39
f 61/62/40 58/63/40 62/64/40
f 59/58/41 61/62/41 63/60/41
f 60/59/42 62/64/42 58/63/42
