# Blender v3.2.1 OBJ File: 'Modeling.blend'
# www.blender.org
o Golem_Cube.013
v -0.262962 0.006885 0.091448
v -0.262962 0.220099 0.086798
v -0.049887 0.007081 0.100436
v -0.049887 0.220295 0.095787
v -0.253971 0.002240 -0.121576
v -0.253971 0.215453 -0.126225
v -0.040897 0.002436 -0.112587
v -0.040897 0.215649 -0.117237
v 0.346667 0.160755 0.263290
v 0.346667 0.846339 0.285570
v -0.368685 0.161735 0.233122
v -0.368685 0.847319 0.255402
v 0.369005 0.177951 -0.265851
v 0.369005 0.863535 -0.243571
v -0.346346 0.178931 -0.296019
v -0.346346 0.864515 -0.273739
v 0.169298 0.605572 0.449708
v 0.169298 0.981435 0.466198
v -0.206592 0.606268 0.433863
v -0.206592 0.982130 0.450353
v 0.185158 0.622048 0.074179
v 0.185158 0.997910 0.090669
v -0.190732 0.622743 0.058334
v -0.190732 0.998606 0.074824
v 0.595859 0.747419 0.179059
v 0.533263 1.003398 0.127774
v 0.260196 0.666283 0.183772
v 0.197601 0.922261 0.132487
v 0.604414 0.696719 -0.084436
v 0.541819 0.952698 -0.135722
v 0.268752 0.615583 -0.079723
v 0.206156 0.871562 -0.131008
v 0.640900 0.276276 0.212850
v 0.523650 0.725881 0.121162
v 0.498059 0.233504 0.216683
v 0.376656 0.700576 0.121389
v 0.645399 0.248133 0.066442
v 0.528235 0.697930 -0.025280
v 0.502558 0.205361 0.070275
v 0.381241 0.672625 -0.025053
v 0.264483 0.007337 0.113677
v 0.264483 0.220550 0.109027
v 0.051409 0.007141 0.104688
v 0.051409 0.220354 0.100039
v 0.273474 0.002691 -0.099347
v 0.273474 0.215905 -0.103997
v 0.060399 0.002495 -0.108335
v 0.060399 0.215709 -0.112985
v -0.647682 0.282133 0.172059
v -0.521498 0.729448 0.081032
v -0.505828 0.239191 0.188815
v -0.375137 0.703884 0.094175
v -0.639947 0.250859 0.026423
v -0.513845 0.698365 -0.064648
v -0.498092 0.207916 0.043180
v -0.367484 0.672801 -0.051505
v -0.598244 0.752358 0.132172
v -0.530625 1.007060 0.080909
v -0.264467 0.670726 0.166860
v -0.196847 0.925428 0.115597
v -0.584779 0.696023 -0.129970
v -0.517159 0.950725 -0.181233
v -0.251001 0.614391 -0.095282
v -0.183381 0.869093 -0.146545
vt 0.332623 0.799770
vt 0.332623 0.791075
vt 0.352496 0.791075
vt 0.352496 0.799770
vt 0.352496 0.791075
vt 0.332623 0.791075
vt 0.332623 0.799770
vt 0.352496 0.799770
vt 0.286290 0.788489
vt 0.292030 0.788489
vt 0.292030 0.790895
vt 0.286290 0.790895
vt 0.286290 0.790895
vt 0.286290 0.788489
vt 0.292030 0.790895
vt 0.292030 0.788489
vt 0.444875 0.830042
vt 0.444875 0.885963
vt 0.317054 0.885963
vt 0.317054 0.830042
vt 0.317054 0.830042
vt 0.444875 0.830042
vt 0.317054 0.885963
vt 0.444875 0.885963
vt 0.500566 0.789383
vt 0.494303 0.800354
vt 0.462042 0.796829
vt 0.468066 0.785900
vt 0.468305 0.785857
vt 0.500327 0.789425
vt 0.461802 0.796871
vt 0.494063 0.800397
vt 0.307275 0.793059
vt 0.310610 0.793510
vt 0.307764 0.798198
vt 0.307237 0.793065
vt 0.304327 0.797929
vt 0.304291 0.797937
vt 0.307727 0.798206
vt 0.310572 0.793516
vt 0.361943 0.791075
vt 0.381817 0.791075
vt 0.381817 0.799770
vt 0.361943 0.799770
vt 0.361943 0.799770
vt 0.381817 0.791075
vt 0.361943 0.791075
vt 0.381817 0.799770
vt 0.274749 0.795890
vt 0.273897 0.790418
vt 0.277822 0.790231
vt 0.278697 0.795915
vt 0.277861 0.790242
vt 0.273937 0.790428
vt 0.274786 0.795902
vt 0.278733 0.795927
vt 0.460897 0.789634
vt 0.493158 0.786109
vt 0.499421 0.797080
vt 0.493397 0.786151
vt 0.499661 0.797123
vt 0.461136 0.789677
vt 0.467160 0.800606
vt 0.467400 0.800649
vn -0.0422 0.0218 0.9989
vn 0.9991 0.0009 0.0421
vn 0.0422 -0.0218 -0.9989
vn -0.9991 -0.0009 -0.0421
vn 0.0000 -0.9998 0.0218
vn 0.0000 0.9998 -0.0218
vn -0.0422 -0.0325 0.9986
vn -0.9991 0.0014 -0.0421
vn 0.0422 0.0325 -0.9986
vn 0.9991 -0.0014 0.0421
vn -0.0000 -0.9995 -0.0325
vn -0.0000 0.9995 0.0325
vn -0.0422 -0.0438 0.9982
vn -0.9991 0.0018 -0.0421
vn 0.0422 0.0438 -0.9982
vn 0.9991 -0.0018 0.0421
vn -0.0000 -0.9990 -0.0438
vn 0.0000 0.9990 0.0438
vn -0.0319 0.1888 0.9815
vn -0.9719 -0.2349 0.0136
vn 0.0319 -0.1888 -0.9815
vn 0.9719 0.2349 -0.0136
vn 0.2332 -0.9535 0.1910
vn -0.2332 0.9535 -0.1910
vn -0.0311 0.1919 0.9809
vn -0.9686 -0.2481 0.0179
vn 0.0315 -0.1919 -0.9809
vn 0.9684 0.2488 -0.0172
vn 0.2863 -0.9392 0.1893
vn -0.1669 0.9675 -0.1899
vn -0.0508 0.2129 0.9758
vn 0.9627 -0.2494 0.1047
vn 0.0508 -0.2129 -0.9758
vn -0.9625 0.2502 -0.1049
vn -0.3047 -0.9344 0.1845
vn 0.1858 0.9629 -0.1957
vn -0.0502 0.2098 0.9764
vn 0.9665 -0.2364 0.1004
vn 0.0502 -0.2098 -0.9764
vn -0.9665 0.2364 -0.1004
vn -0.2519 -0.9487 0.1909
vn 0.2519 0.9487 -0.1909
vn -0.0315 0.1919 0.9809
vn -0.9686 -0.2480 0.0170
vn 0.0311 -0.1919 -0.9809
vn 0.9684 0.2488 -0.0181
vn -0.0504 0.2129 0.9758
vn 0.9628 -0.2494 0.1038
vn 0.0504 -0.2129 -0.9758
vn -0.9626 0.2501 -0.1039
s off
f 2/1/1 1/2/1 3/3/1
f 4/4/2 3/3/2 7/5/2
f 7/5/3 5/6/3 6/7/3
f 6/7/4 5/6/4 1/2/4
f 7/5/5 3/3/5 1/2/5
f 8/8/6 6/7/6 2/1/6
f 11/9/7 9/10/7 10/11/7
f 11/9/8 12/12/8 16/13/8
f 15/14/9 16/13/9 14/15/9
f 9/10/10 13/16/10 14/15/10
f 11/9/11 15/14/11 13/16/11
f 14/15/12 16/13/12 12/12/12
f 17/17/13 18/18/13 20/19/13
f 23/20/14 19/21/14 20/19/14
f 21/22/15 23/20/15 24/23/15
f 21/22/16 22/24/16 18/18/16
f 19/21/17 23/20/17 21/22/17
f 22/24/18 24/23/18 20/19/18
f 25/25/19 26/26/19 28/27/19
f 31/28/20 27/29/20 28/27/20
f 29/30/21 31/28/21 32/31/21
f 25/25/22 29/30/22 30/32/22
f 25/25/23 27/29/23 31/28/23
f 30/32/24 32/31/24 28/27/24
f 35/33/25 33/34/25 34/35/25
f 39/36/26 35/33/26 36/37/26
f 39/36/27 40/38/27 38/39/27
f 37/40/28 38/39/28 34/35/28
f 35/33/29 39/36/29 37/40/29
f 38/39/30 40/38/30 36/37/30
f 43/41/1 41/42/1 42/43/1
f 43/41/4 44/44/4 48/45/4
f 45/46/3 47/47/3 48/45/3
f 45/46/2 46/48/2 42/43/2
f 41/42/5 43/41/5 47/47/5
f 46/48/6 48/45/6 44/44/6
f 50/49/31 49/50/31 51/51/31
f 52/52/32 51/51/32 55/53/32
f 55/53/33 53/54/33 54/55/33
f 53/54/34 49/50/34 50/49/34
f 55/53/35 51/51/35 49/50/35
f 52/52/36 56/56/36 54/55/36
f 57/57/37 59/58/37 60/59/37
f 60/59/38 59/58/38 63/60/38
f 64/61/39 63/60/39 61/62/39
f 61/62/40 57/57/40 58/63/40
f 59/58/41 57/57/41 61/62/41
f 60/59/42 64/61/42 62/64/42
f 2/1/1 3/3/1 4/4/1
f 4/4/2 7/5/2 8/8/2
f 7/5/3 6/7/3 8/8/3
f 6/7/4 1/2/4 2/1/4
f 7/5/5 1/2/5 5/6/5
f 8/8/6 2/1/6 4/4/6
f 11/9/7 10/11/7 12/12/7
f 11/9/8 16/13/8 15/14/8
f 15/14/9 14/15/9 13/16/9
f 9/10/10 14/15/10 10/11/10
f 11/9/11 13/16/11 9/10/11
f 14/15/12 12/12/12 10/11/12
f 17/17/13 20/19/13 19/21/13
f 23/20/14 20/19/14 24/23/14
f 21/22/15 24/23/15 22/24/15
f 21/22/16 18/18/16 17/17/16
f 19/21/17 21/22/17 17/17/17
f 22/24/18 20/19/18 18/18/18
f 25/25/19 28/27/19 27/29/19
f 31/28/20 28/27/20 32/31/20
f 29/30/21 32/31/21 30/32/21
f 25/25/22 30/32/22 26/26/22
f 25/25/23 31/28/23 29/30/23
f 30/32/24 28/27/24 26/26/24
f 35/33/43 34/35/43 36/37/43
f 39/36/44 36/37/44 40/38/44
f 39/36/45 38/39/45 37/40/45
f 37/40/46 34/35/46 33/34/46
f 35/33/29 37/40/29 33/34/29
f 38/39/30 36/37/30 34/35/30
f 43/41/1 42/43/1 44/44/1
f 43/41/4 48/45/4 47/47/4
f 45/46/3 48/45/3 46/48/3
f 45/46/2 42/43/2 41/42/2
f 41/42/5 47/47/5 45/46/5
f 46/48/6 44/44/6 42/43/6
f 50/49/47 51/51/47 52/52/47
f 52/52/48 55/53/48 56/56/48
f 55/53/49 54/55/49 56/56/49
f 53/54/50 50/49/50 54/55/50
f 55/53/35 49/50/35 53/54/35
f 52/52/36 54/55/36 50/49/36
f 57/57/37 60/59/37 58/63/37
f 60/59/38 63/60/38 64/61/38
f 64/61/39 61/62/39 62/64/39
f 61/62/40 58/63/40 62/64/40
f 59/58/41 61/62/41 63/60/41
f 60/59/42 62/64/42 58/63/42
