# Blender v3.2.1 OBJ File: 'Modeling.blend'
# www.blender.org
o Golem_Cube.013
v -0.262962 0.005271 0.094352
v -0.262962 0.218530 0.092900
v -0.049887 0.005332 0.103342
v -0.049887 0.218591 0.101890
v -0.253971 0.003820 -0.118718
v -0.253971 0.217079 -0.120170
v -0.040897 0.003881 -0.109727
v -0.040897 0.217140 -0.111180
v 0.346667 0.166677 0.274700
v 0.346667 0.852588 0.281663
v -0.368685 0.166984 0.244518
v -0.368685 0.852894 0.251480
v 0.369005 0.172051 -0.254693
v 0.369005 0.857962 -0.247730
v -0.346346 0.172358 -0.284876
v -0.346346 0.858268 -0.277913
v 0.169298 0.619066 0.452542
v 0.169298 0.995255 0.457696
v -0.206592 0.619283 0.436683
v -0.206592 0.995472 0.441837
v 0.185158 0.624216 0.076687
v 0.185158 1.000405 0.081842
v -0.190732 0.624433 0.060828
v -0.190732 1.000622 0.065983
v 0.596364 0.729812 0.165183
v 0.532113 0.989874 0.147496
v 0.261231 0.646603 0.159147
v 0.196980 0.906665 0.141460
v 0.605171 0.713771 -0.102657
v 0.540920 0.973834 -0.120344
v 0.270038 0.630563 -0.108693
v 0.205786 0.890625 -0.126380
v 0.644438 0.258564 0.137607
v 0.524279 0.715503 0.104941
v 0.501876 0.214742 0.135781
v 0.377450 0.689442 0.101803
v 0.649076 0.249677 -0.011212
v 0.529002 0.706812 -0.043886
v 0.506514 0.205855 -0.013038
v 0.382174 0.680751 -0.047025
v 0.264483 0.005405 0.116596
v 0.264483 0.218664 0.115144
v 0.051409 0.005344 0.107605
v 0.051409 0.218603 0.106153
v 0.273474 0.003954 -0.096474
v 0.273474 0.217213 -0.097926
v 0.060399 0.003893 -0.105464
v 0.060399 0.217152 -0.106916
v -0.645804 0.271352 0.136121
v -0.521153 0.723670 0.071550
v -0.503803 0.227985 0.150351
v -0.374706 0.697879 0.083195
v -0.637966 0.248713 -0.011099
v -0.513398 0.701225 -0.075703
v -0.495964 0.205346 0.003131
v -0.366951 0.675434 -0.064059
v -0.597977 0.743274 0.123934
v -0.531230 1.000777 0.087734
v -0.263921 0.660886 0.153825
v -0.197174 0.918389 0.117625
v -0.584326 0.702482 -0.141062
v -0.517579 0.959985 -0.177262
v -0.250270 0.620094 -0.111172
v -0.183523 0.877597 -0.147372
vt 0.332623 0.799770
vt 0.332623 0.791075
vt 0.352496 0.791075
vt 0.352496 0.799770
vt 0.352496 0.791075
vt 0.352496 0.799770
vt 0.332623 0.791075
vt 0.332623 0.799770
vt 0.292030 0.788489
vt 0.292030 0.790895
vt 0.286290 0.790895
vt 0.286290 0.788489
vt 0.286290 0.788489
vt 0.292030 0.788489
vt 0.286290 0.790895
vt 0.292030 0.790895
vt 0.317054 0.830042
vt 0.444875 0.830042
vt 0.444875 0.885963
vt 0.317054 0.885963
vt 0.317054 0.885963
vt 0.444875 0.830042
vt 0.317054 0.830042
vt 0.444875 0.885963
vt 0.500566 0.789383
vt 0.494303 0.800354
vt 0.462042 0.796829
vt 0.468066 0.785900
vt 0.468305 0.785857
vt 0.500327 0.789425
vt 0.461802 0.796871
vt 0.494063 0.800397
vt 0.307275 0.793059
vt 0.310610 0.793510
vt 0.307764 0.798198
vt 0.307237 0.793065
vt 0.304327 0.797929
vt 0.304291 0.797937
vt 0.307727 0.798206
vt 0.310572 0.793516
vt 0.361943 0.791075
vt 0.381817 0.791075
vt 0.381817 0.799770
vt 0.361943 0.799770
vt 0.361943 0.799770
vt 0.381817 0.791075
vt 0.361943 0.791075
vt 0.381817 0.799770
vt 0.274749 0.795890
vt 0.273897 0.790418
vt 0.277822 0.790231
vt 0.278697 0.795915
vt 0.277861 0.790242
vt 0.273937 0.790428
vt 0.274786 0.795902
vt 0.278733 0.795927
vt 0.467160 0.800606
vt 0.460897 0.789634
vt 0.493158 0.786109
vt 0.499421 0.797080
vt 0.493397 0.786151
vt 0.499661 0.797123
vt 0.461136 0.789677
vt 0.467400 0.800649
vn -0.0422 0.0068 0.9991
vn 0.9991 0.0003 0.0422
vn 0.0422 -0.0068 -0.9991
vn -0.9991 -0.0003 -0.0422
vn -0.0000 -1.0000 0.0068
vn -0.0000 1.0000 -0.0068
vn -0.0422 -0.0101 0.9991
vn -0.9991 0.0004 -0.0422
vn 0.0422 0.0101 -0.9991
vn 0.9991 -0.0004 0.0422
vn 0.0000 -0.9999 -0.0102
vn -0.0000 0.9999 0.0102
vn -0.0422 -0.0137 0.9990
vn -0.9991 0.0006 -0.0422
vn 0.0422 0.0137 -0.9990
vn 0.9991 -0.0006 0.0422
vn -0.0000 -0.9999 -0.0137
vn 0.0000 0.9999 0.0137
vn -0.0328 0.0597 0.9977
vn -0.9704 -0.2409 -0.0175
vn 0.0328 -0.0597 -0.9977
vn 0.9704 0.2409 0.0175
vn 0.2393 -0.9687 0.0659
vn -0.2393 0.9687 -0.0659
vn -0.0321 0.0629 0.9975
vn -0.9670 -0.2545 -0.0149
vn 0.0325 -0.0629 -0.9975
vn 0.9668 0.2551 0.0158
vn 0.2924 -0.9540 0.0661
vn -0.1731 0.9829 -0.0629
vn -0.0515 0.1550 0.9866
vn 0.9636 -0.2519 0.0900
vn 0.0515 -0.1550 -0.9866
vn -0.9634 0.2526 -0.0901
vn -0.3015 -0.9447 0.1292
vn 0.1825 0.9734 -0.1388
vn -0.0508 0.1519 0.9871
vn 0.9673 -0.2386 0.0865
vn 0.0508 -0.1519 -0.9871
vn -0.9673 0.2386 -0.0865
vn -0.2486 -0.9592 0.1348
vn 0.2486 0.9592 -0.1348
vn -0.0325 0.0629 0.9975
vn -0.9670 -0.2543 -0.0158
vn 0.0321 -0.0629 -0.9975
vn 0.9668 0.2553 0.0149
vn -0.0511 0.1550 0.9866
vn 0.9637 -0.2517 0.0891
vn 0.0511 -0.1550 -0.9866
vn -0.9635 0.2525 -0.0892
s off
f 2/1/1 1/2/1 3/3/1
f 4/4/2 3/3/2 7/5/2
f 8/6/3 7/5/3 5/7/3
f 6/8/4 5/7/4 1/2/4
f 7/5/5 3/3/5 1/2/5
f 4/4/6 8/6/6 6/8/6
f 9/9/7 10/10/7 12/11/7
f 15/12/8 11/13/8 12/11/8
f 13/14/9 15/12/9 16/15/9
f 9/9/10 13/14/10 14/16/10
f 9/9/11 11/13/11 15/12/11
f 14/16/12 16/15/12 12/11/12
f 19/17/13 17/18/13 18/19/13
f 19/17/14 20/20/14 24/21/14
f 21/22/15 23/23/15 24/21/15
f 17/18/16 21/22/16 22/24/16
f 19/17/17 23/23/17 21/22/17
f 22/24/18 24/21/18 20/20/18
f 25/25/19 26/26/19 28/27/19
f 31/28/20 27/29/20 28/27/20
f 29/30/21 31/28/21 32/31/21
f 29/30/22 30/32/22 26/26/22
f 25/25/23 27/29/23 31/28/23
f 32/31/24 28/27/24 26/26/24
f 35/33/25 33/34/25 34/35/25
f 39/36/26 35/33/26 36/37/26
f 39/36/27 40/38/27 38/39/27
f 37/40/28 38/39/28 34/35/28
f 33/34/29 35/33/29 39/36/29
f 38/39/30 40/38/30 36/37/30
f 43/41/1 41/42/1 42/43/1
f 43/41/4 44/44/4 48/45/4
f 45/46/3 47/47/3 48/45/3
f 41/42/2 45/46/2 46/48/2
f 41/42/5 43/41/5 47/47/5
f 46/48/6 48/45/6 44/44/6
f 50/49/31 49/50/31 51/51/31
f 52/52/32 51/51/32 55/53/32
f 55/53/33 53/54/33 54/55/33
f 53/54/34 49/50/34 50/49/34
f 55/53/35 51/51/35 49/50/35
f 52/52/36 56/56/36 54/55/36
f 58/57/37 57/58/37 59/59/37
f 60/60/38 59/59/38 63/61/38
f 64/62/39 63/61/39 61/63/39
f 62/64/40 61/63/40 57/58/40
f 59/59/41 57/58/41 61/63/41
f 60/60/42 64/62/42 62/64/42
f 2/1/1 3/3/1 4/4/1
f 4/4/2 7/5/2 8/6/2
f 8/6/3 5/7/3 6/8/3
f 6/8/4 1/2/4 2/1/4
f 7/5/5 1/2/5 5/7/5
f 4/4/6 6/8/6 2/1/6
f 9/9/7 12/11/7 11/13/7
f 15/12/8 12/11/8 16/15/8
f 13/14/9 16/15/9 14/16/9
f 9/9/10 14/16/10 10/10/10
f 9/9/11 15/12/11 13/14/11
f 14/16/12 12/11/12 10/10/12
f 19/17/13 18/19/13 20/20/13
f 19/17/14 24/21/14 23/23/14
f 21/22/15 24/21/15 22/24/15
f 17/18/16 22/24/16 18/19/16
f 19/17/17 21/22/17 17/18/17
f 22/24/18 20/20/18 18/19/18
f 25/25/19 28/27/19 27/29/19
f 31/28/20 28/27/20 32/31/20
f 29/30/21 32/31/21 30/32/21
f 29/30/22 26/26/22 25/25/22
f 25/25/23 31/28/23 29/30/23
f 32/31/24 26/26/24 30/32/24
f 35/33/43 34/35/43 36/37/43
f 39/36/44 36/37/44 40/38/44
f 39/36/45 38/39/45 37/40/45
f 37/40/46 34/35/46 33/34/46
f 33/34/29 39/36/29 37/40/29
f 38/39/30 36/37/30 34/35/30
f 43/41/1 42/43/1 44/44/1
f 43/41/4 48/45/4 47/47/4
f 45/46/3 48/45/3 46/48/3
f 41/42/2 46/48/2 42/43/2
f 41/42/5 47/47/5 45/46/5
f 46/48/6 44/44/6 42/43/6
f 50/49/47 51/51/47 52/52/47
f 52/52/48 55/53/48 56/56/48
f 55/53/49 54/55/49 56/56/49
f 53/54/50 50/49/50 54/55/50
f 55/53/35 49/50/35 53/54/35
f 52/52/36 54/55/36 50/49/36
f 58/57/37 59/59/37 60/60/37
f 60/60/38 63/61/38 64/62/38
f 64/62/39 61/63/39 62/64/39
f 62/64/40 57/58/40 58/57/40
f 59/59/41 61/63/41 63/61/41
f 60/60/42 62/64/42 58/57/42
