# Blender v3.2.1 OBJ File: 'Modeling.blend'
# www.blender.org
o Golem_Cube.013
v -0.262962 0.009389 0.087547
v -0.262962 0.222467 0.078649
v -0.049887 0.009764 0.096530
v -0.049887 0.222842 0.087631
v -0.253971 0.000498 -0.125342
v -0.253971 0.213577 -0.134240
v -0.040897 0.000873 -0.116359
v -0.040897 0.213952 -0.125258
v 0.346667 0.153277 0.247920
v 0.346667 0.837898 0.290546
v -0.368685 0.155153 0.217794
v -0.368685 0.839773 0.260421
v 0.369005 0.186177 -0.280477
v 0.369005 0.870797 -0.237851
v -0.346346 0.188053 -0.310603
v -0.346346 0.872673 -0.267977
v 0.169298 0.587809 0.445313
v 0.169298 0.962709 0.476850
v -0.206592 0.589139 0.429508
v -0.206592 0.964039 0.461045
v 0.185158 0.619318 0.070746
v 0.185158 0.994218 0.102283
v -0.190732 0.620647 0.054941
v -0.190732 0.995547 0.086478
v 0.595509 0.763908 0.190815
v 0.534454 1.012544 0.110032
v 0.259357 0.685949 0.204932
v 0.198302 0.934585 0.124149
v 0.603580 0.682784 -0.064973
v 0.542525 0.931420 -0.145755
v 0.267429 0.604825 -0.050856
v 0.206374 0.853461 -0.131638
v 0.637676 0.299648 0.279305
v 0.523131 0.736214 0.135818
v 0.494578 0.258497 0.288088
v 0.375984 0.712016 0.138983
v 0.641907 0.254601 0.137177
v 0.527449 0.691353 -0.006367
v 0.498809 0.213450 0.145960
v 0.380303 0.667156 -0.003201
v 0.264483 0.010307 0.109777
v 0.264483 0.223386 0.100878
v 0.051409 0.009932 0.100794
v 0.051409 0.223011 0.091896
v 0.273474 0.001417 -0.103112
v 0.273474 0.214495 -0.112011
v 0.060399 0.001042 -0.112095
v 0.060399 0.214120 -0.120993
v -0.649437 0.292602 0.202958
v -0.521804 0.734564 0.090362
v -0.507721 0.250054 0.221765
v -0.375525 0.709185 0.104717
v -0.641839 0.254284 0.059008
v -0.514287 0.696436 -0.053643
v -0.500122 0.211737 0.077815
v -0.368009 0.671056 -0.039288
v -0.598463 0.760177 0.140338
v -0.530018 1.011872 0.076793
v -0.264947 0.679221 0.178914
v -0.196502 0.930917 0.115369
v -0.585244 0.691166 -0.118769
v -0.516800 0.942862 -0.182314
v -0.251729 0.610211 -0.080193
v -0.183284 0.861907 -0.143738
vt 0.332623 0.791075
vt 0.352496 0.791075
vt 0.352496 0.799770
vt 0.352496 0.791075
vt 0.352496 0.799770
vt 0.332623 0.791075
vt 0.332623 0.799770
vt 0.343834 0.811802
vt 0.379825 0.811802
vt 0.379825 0.826888
vt 0.343834 0.811802
vt 0.343834 0.826888
vt 0.379825 0.811802
vt 0.343834 0.826888
vt 0.379825 0.826888
vt 0.317054 0.830042
vt 0.444875 0.830042
vt 0.444875 0.885963
vt 0.317054 0.885963
vt 0.317054 0.885963
vt 0.444875 0.830042
vt 0.317054 0.830042
vt 0.444875 0.885963
vt 0.500566 0.789383
vt 0.494303 0.800354
vt 0.462042 0.796829
vt 0.468066 0.785900
vt 0.468305 0.785857
vt 0.500327 0.789425
vt 0.461802 0.796871
vt 0.494063 0.800397
vt 0.475418 0.840458
vt 0.496331 0.843287
vt 0.478481 0.872677
vt 0.475178 0.840496
vt 0.456932 0.870991
vt 0.456705 0.871041
vt 0.478253 0.872728
vt 0.496091 0.843325
vt 0.361943 0.791075
vt 0.381817 0.791075
vt 0.381817 0.799770
vt 0.361943 0.799770
vt 0.361943 0.799770
vt 0.381817 0.791075
vt 0.361943 0.791075
vt 0.381817 0.799770
vt 0.271473 0.858204
vt 0.266129 0.823895
vt 0.290739 0.822725
vt 0.296224 0.858363
vt 0.290986 0.822790
vt 0.266377 0.823960
vt 0.271700 0.858282
vt 0.296452 0.858441
vt 0.460897 0.789634
vt 0.493158 0.786109
vt 0.499421 0.797080
vt 0.493397 0.786151
vt 0.499661 0.797123
vt 0.461136 0.789677
vt 0.467400 0.800649
vt 0.332623 0.799770
vt 0.467160 0.800606
vn -0.0422 0.0417 0.9982
vn 0.9991 0.0018 0.0421
vn 0.0422 -0.0417 -0.9982
vn -0.9991 -0.0018 -0.0421
vn 0.0000 -0.9991 0.0417
vn 0.0000 0.9991 -0.0417
vn -0.0422 -0.0621 0.9972
vn -0.9991 0.0026 -0.0421
vn 0.0422 0.0621 -0.9972
vn 0.9991 -0.0026 0.0421
vn 0.0000 -0.9981 -0.0621
vn 0.0000 0.9981 0.0621
vn -0.0422 -0.0837 0.9956
vn -0.9991 0.0035 -0.0420
vn 0.0422 0.0837 -0.9956
vn 0.9991 -0.0035 0.0420
vn -0.0000 -0.9965 -0.0838
vn -0.0000 0.9965 0.0838
vn -0.0301 0.3022 0.9528
vn -0.9733 -0.2257 0.0409
vn 0.0301 -0.3022 -0.9528
vn 0.9733 0.2257 -0.0409
vn 0.2274 -0.9261 0.3009
vn -0.2274 0.9261 -0.3009
vn -0.0293 0.3052 0.9519
vn -0.9701 -0.2383 0.0467
vn 0.0297 -0.3052 -0.9518
vn 0.9699 0.2391 -0.0460
vn 0.2807 -0.9125 0.2976
vn -0.1610 0.9398 -0.3014
vn -0.0499 0.2601 0.9643
vn 0.9619 -0.2472 0.1166
vn 0.0499 -0.2601 -0.9643
vn -0.9617 0.2480 -0.1168
vn -0.3077 -0.9234 0.2296
vn 0.1889 0.9517 -0.2421
vn -0.0492 0.2571 0.9651
vn 0.9657 -0.2344 0.1117
vn 0.0492 -0.2571 -0.9651
vn -0.9657 0.2344 -0.1117
vn -0.2549 -0.9375 0.2367
vn 0.2549 0.9375 -0.2367
vn -0.0297 0.3052 0.9518
vn -0.9701 -0.2383 0.0457
vn 0.0293 -0.3052 -0.9519
vn 0.9699 0.2391 -0.0469
vn -0.0495 0.2601 0.9643
vn 0.9620 -0.2472 0.1157
vn 0.0495 -0.2601 -0.9643
vn -0.9618 0.2479 -0.1159
s off
f 1/1/1 3/2/1 4/3/1
f 4/3/2 3/2/2 7/4/2
f 8/5/3 7/4/3 5/6/3
f 6/7/4 5/6/4 1/1/4
f 7/4/5 3/2/5 1/1/5
f 4/3/6 8/5/6 6/7/6
f 11/8/7 9/9/7 10/10/7
f 15/11/8 11/8/8 12/12/8
f 13/13/9 15/11/9 16/14/9
f 13/13/10 14/15/10 10/10/10
f 9/9/11 11/8/11 15/11/11
f 14/15/12 16/14/12 12/12/12
f 19/16/13 17/17/13 18/18/13
f 19/16/14 20/19/14 24/20/14
f 21/21/15 23/22/15 24/20/15
f 21/21/16 22/23/16 18/18/16
f 17/17/17 19/16/17 23/22/17
f 22/23/18 24/20/18 20/19/18
f 25/24/19 26/25/19 28/26/19
f 31/27/20 27/28/20 28/26/20
f 29/29/21 31/27/21 32/30/21
f 25/24/22 29/29/22 30/31/22
f 25/24/23 27/28/23 31/27/23
f 32/30/24 28/26/24 26/25/24
f 35/32/25 33/33/25 34/34/25
f 39/35/26 35/32/26 36/36/26
f 39/35/27 40/37/27 38/38/27
f 37/39/28 38/38/28 34/34/28
f 33/33/29 35/32/29 39/35/29
f 40/37/30 36/36/30 34/34/30
f 43/40/1 41/41/1 42/42/1
f 43/40/4 44/43/4 48/44/4
f 45/45/3 47/46/3 48/44/3
f 41/41/2 45/45/2 46/47/2
f 41/41/5 43/40/5 47/46/5
f 46/47/6 48/44/6 44/43/6
f 50/48/31 49/49/31 51/50/31
f 52/51/32 51/50/32 55/52/32
f 55/52/33 53/53/33 54/54/33
f 53/53/34 49/49/34 50/48/34
f 51/50/35 49/49/35 53/53/35
f 52/51/36 56/55/36 54/54/36
f 57/56/37 59/57/37 60/58/37
f 59/57/38 63/59/38 64/60/38
f 64/60/39 63/59/39 61/61/39
f 62/62/40 61/61/40 57/56/40
f 63/59/41 59/57/41 57/56/41
f 60/58/42 64/60/42 62/62/42
f 1/1/1 4/3/1 2/63/1
f 4/3/2 7/4/2 8/5/2
f 8/5/3 5/6/3 6/7/3
f 6/7/4 1/1/4 2/63/4
f 7/4/5 1/1/5 5/6/5
f 4/3/6 6/7/6 2/63/6
f 11/8/7 10/10/7 12/12/7
f 15/11/8 12/12/8 16/14/8
f 13/13/9 16/14/9 14/15/9
f 13/13/10 10/10/10 9/9/10
f 9/9/11 15/11/11 13/13/11
f 14/15/12 12/12/12 10/10/12
f 19/16/13 18/18/13 20/19/13
f 19/16/14 24/20/14 23/22/14
f 21/21/15 24/20/15 22/23/15
f 21/21/16 18/18/16 17/17/16
f 17/17/17 23/22/17 21/21/17
f 22/23/18 20/19/18 18/18/18
f 25/24/19 28/26/19 27/28/19
f 31/27/20 28/26/20 32/30/20
f 29/29/21 32/30/21 30/31/21
f 25/24/22 30/31/22 26/25/22
f 25/24/23 31/27/23 29/29/23
f 32/30/24 26/25/24 30/31/24
f 35/32/43 34/34/43 36/36/43
f 39/35/44 36/36/44 40/37/44
f 39/35/45 38/38/45 37/39/45
f 37/39/46 34/34/46 33/33/46
f 33/33/29 39/35/29 37/39/29
f 40/37/30 34/34/30 38/38/30
f 43/40/1 42/42/1 44/43/1
f 43/40/4 48/44/4 47/46/4
f 45/45/3 48/44/3 46/47/3
f 41/41/2 46/47/2 42/42/2
f 41/41/5 47/46/5 45/45/5
f 46/47/6 44/43/6 42/42/6
f 50/48/47 51/50/47 52/51/47
f 52/51/48 55/52/48 56/55/48
f 55/52/49 54/54/49 56/55/49
f 53/53/50 50/48/50 54/54/50
f 51/50/35 53/53/35 55/52/35
f 52/51/36 54/54/36 50/48/36
f 57/56/37 60/58/37 58/64/37
f 59/57/38 64/60/38 60/58/38
f 64/60/39 61/61/39 62/62/39
f 62/62/40 57/56/40 58/64/40
f 63/59/41 57/56/41 61/61/41
f 60/58/42 62/62/42 58/64/42
