# Blender v3.2.1 OBJ File: 'Modeling.blend'
# www.blender.org
o Golem_Cube.013
v -0.262962 0.004613 0.095664
v -0.262962 0.217877 0.095664
v -0.049887 0.004613 0.104654
v -0.049887 0.217877 0.104654
v -0.253971 0.004613 -0.117411
v -0.253971 0.217877 -0.117411
v -0.040897 0.004613 -0.108420
v -0.040897 0.217877 -0.108420
v 0.346667 0.169453 0.279841
v 0.346667 0.855399 0.279841
v -0.368685 0.169453 0.249657
v -0.368685 0.855399 0.249657
v 0.369005 0.169453 -0.249579
v 0.369005 0.855399 -0.249579
v -0.346346 0.169453 -0.279763
v -0.346346 0.855399 -0.279763
v 0.169298 0.625232 0.453695
v 0.169298 1.001457 0.453695
v -0.206592 0.625232 0.437835
v -0.206592 1.001457 0.437835
v 0.185158 0.625232 0.077805
v 0.185158 1.001457 0.077805
v -0.190732 0.625232 0.061945
v -0.190732 1.001457 0.061945
v 0.596657 0.721708 0.157674
v 0.531597 0.982168 0.156521
v 0.261784 0.638010 0.146330
v 0.196723 0.898470 0.145178
v 0.605491 0.722728 -0.110644
v 0.540431 0.983187 -0.111797
v 0.270618 0.639029 -0.121987
v 0.205557 0.899489 -0.123140
v 0.646192 0.253312 0.100249
v 0.524612 0.711029 0.096637
v 0.503767 0.209253 0.095629
v 0.377865 0.684764 0.091834
v 0.650846 0.253903 -0.048833
v 0.529350 0.711815 -0.052442
v 0.508420 0.209843 -0.053454
v 0.382603 0.685550 -0.057245
v 0.264483 0.004613 0.117919
v 0.264483 0.217877 0.117919
v 0.051409 0.004613 0.108928
v 0.051409 0.217877 0.108928
v 0.273474 0.004613 -0.095156
v 0.273474 0.217877 -0.095156
v 0.060399 0.004613 -0.104146
v 0.060399 0.217877 -0.104146
v -0.644876 0.266711 0.118212
v -0.520977 0.720927 0.066876
v -0.502803 0.223183 0.131175
v -0.374487 0.695050 0.077767
v -0.637002 0.248392 -0.029605
v -0.513187 0.702803 -0.080970
v -0.494929 0.204863 -0.016643
v -0.366697 0.676925 -0.070079
v -0.597832 0.738866 0.119807
v -0.531514 0.997426 0.091141
v -0.263639 0.656196 0.147291
v -0.197321 0.914756 0.118624
v -0.584118 0.705849 -0.146267
v -0.517799 0.964409 -0.174933
v -0.249925 0.623179 -0.118783
v -0.183607 0.881739 -0.147449
vt 0.332623 0.799770
vt 0.332623 0.791075
vt 0.352496 0.791075
vt 0.352496 0.799770
vt 0.352496 0.791075
vt 0.352496 0.799770
vt 0.332623 0.791075
vt 0.332623 0.799770
vt 0.286290 0.788489
vt 0.292030 0.788489
vt 0.292030 0.790895
vt 0.286290 0.788489
vt 0.286290 0.790895
vt 0.292030 0.788489
vt 0.286290 0.790895
vt 0.292030 0.790895
vt 0.317054 0.830042
vt 0.444875 0.830042
vt 0.444875 0.885963
vt 0.317054 0.830042
vt 0.317054 0.885963
vt 0.444875 0.830042
vt 0.317054 0.885963
vt 0.444875 0.885963
vt 0.468305 0.785857
vt 0.500566 0.789383
vt 0.494303 0.800354
vt 0.468066 0.785900
vt 0.462042 0.796829
vt 0.500327 0.789425
vt 0.461802 0.796871
vt 0.494063 0.800397
vt 0.307275 0.793059
vt 0.310610 0.793510
vt 0.307764 0.798198
vt 0.307237 0.793065
vt 0.304327 0.797929
vt 0.304291 0.797937
vt 0.307727 0.798206
vt 0.310572 0.793516
vt 0.361943 0.791075
vt 0.381817 0.791075
vt 0.381817 0.799770
vt 0.361943 0.791075
vt 0.361943 0.799770
vt 0.381817 0.791075
vt 0.361943 0.799770
vt 0.381817 0.799770
vt 0.274749 0.795890
vt 0.273897 0.790418
vt 0.277822 0.790231
vt 0.278697 0.795915
vt 0.277861 0.790242
vt 0.273937 0.790428
vt 0.274786 0.795902
vt 0.278733 0.795927
vt 0.467160 0.800606
vt 0.460897 0.789634
vt 0.493158 0.786109
vt 0.499421 0.797080
vt 0.493397 0.786151
vt 0.499661 0.797123
vt 0.461136 0.789677
vt 0.467400 0.800649
vn -0.0422 0.0000 0.9991
vn 0.9991 0.0000 0.0422
vn 0.0422 0.0000 -0.9991
vn -0.9991 0.0000 -0.0422
vn -0.0000 -1.0000 0.0000
vn 0.0000 1.0000 0.0000
vn -0.0329 -0.0038 0.9995
vn -0.9696 -0.2424 -0.0328
vn 0.0329 0.0038 -0.9995
vn 0.9696 0.2424 0.0328
vn 0.2423 -0.9702 0.0043
vn -0.2423 0.9702 -0.0043
vn -0.0322 -0.0007 0.9995
vn -0.9662 -0.2561 -0.0312
vn 0.0326 0.0007 -0.9995
vn 0.9660 0.2566 0.0321
vn 0.2954 -0.9554 0.0054
vn -0.1762 0.9844 -0.0004
vn -0.0518 0.1261 0.9907
vn 0.9640 -0.2528 0.0827
vn 0.0518 -0.1261 -0.9907
vn -0.9638 0.2535 -0.0828
vn -0.2999 -0.9486 0.1016
vn 0.1808 0.9773 -0.1103
vn -0.0511 0.1230 0.9911
vn 0.9677 -0.2394 0.0796
vn 0.0511 -0.1230 -0.9911
vn -0.9677 0.2394 -0.0796
vn -0.2470 -0.9631 0.1068
vn 0.2470 0.9631 -0.1068
vn 0.9696 0.2423 0.0328
vn -0.0326 -0.0007 0.9995
vn -0.9662 -0.2558 -0.0321
vn 0.0322 0.0007 -0.9995
vn 0.9660 0.2568 0.0312
vn -0.0514 0.1261 0.9907
vn 0.9641 -0.2526 0.0818
vn 0.0514 -0.1261 -0.9907
vn -0.9639 0.2534 -0.0819
s off
f 2/1/1 1/2/1 3/3/1
f 4/4/2 3/3/2 7/5/2
f 8/6/3 7/5/3 5/7/3
f 6/8/4 5/7/4 1/2/4
f 7/5/5 3/3/5 1/2/5
f 4/4/6 8/6/6 6/8/6
f 11/9/1 9/10/1 10/11/1
f 15/12/4 11/9/4 12/13/4
f 13/14/3 15/12/3 16/15/3
f 9/10/2 13/14/2 14/16/2
f 11/9/5 15/12/5 13/14/5
f 14/16/6 16/15/6 12/13/6
f 19/17/1 17/18/1 18/19/1
f 23/20/4 19/17/4 20/21/4
f 21/22/3 23/20/3 24/23/3
f 17/18/2 21/22/2 22/24/2
f 17/18/5 19/17/5 23/20/5
f 22/24/6 24/23/6 20/21/6
f 27/25/7 25/26/7 26/27/7
f 31/28/8 27/25/8 28/29/8
f 29/30/9 31/28/9 32/31/9
f 29/30/10 30/32/10 26/27/10
f 25/26/11 27/25/11 31/28/11
f 30/32/12 32/31/12 28/29/12
f 35/33/13 33/34/13 34/35/13
f 39/36/14 35/33/14 36/37/14
f 39/36/15 40/38/15 38/39/15
f 37/40/16 38/39/16 34/35/16
f 35/33/17 39/36/17 37/40/17
f 38/39/18 40/38/18 36/37/18
f 43/41/1 41/42/1 42/43/1
f 47/44/4 43/41/4 44/45/4
f 45/46/3 47/44/3 48/47/3
f 41/42/2 45/46/2 46/48/2
f 41/42/5 43/41/5 47/44/5
f 46/48/6 48/47/6 44/45/6
f 50/49/19 49/50/19 51/51/19
f 52/52/20 51/51/20 55/53/20
f 55/53/21 53/54/21 54/55/21
f 53/54/22 49/50/22 50/49/22
f 55/53/23 51/51/23 49/50/23
f 52/52/24 56/56/24 54/55/24
f 58/57/25 57/58/25 59/59/25
f 60/60/26 59/59/26 63/61/26
f 64/62/27 63/61/27 61/63/27
f 61/63/28 57/58/28 58/57/28
f 59/59/29 57/58/29 61/63/29
f 60/60/30 64/62/30 62/64/30
f 2/1/1 3/3/1 4/4/1
f 4/4/2 7/5/2 8/6/2
f 8/6/3 5/7/3 6/8/3
f 6/8/4 1/2/4 2/1/4
f 7/5/5 1/2/5 5/7/5
f 4/4/6 6/8/6 2/1/6
f 11/9/1 10/11/1 12/13/1
f 15/12/4 12/13/4 16/15/4
f 13/14/3 16/15/3 14/16/3
f 9/10/2 14/16/2 10/11/2
f 11/9/5 13/14/5 9/10/5
f 14/16/6 12/13/6 10/11/6
f 19/17/1 18/19/1 20/21/1
f 23/20/4 20/21/4 24/23/4
f 21/22/3 24/23/3 22/24/3
f 17/18/2 22/24/2 18/19/2
f 17/18/5 23/20/5 21/22/5
f 22/24/6 20/21/6 18/19/6
f 27/25/7 26/27/7 28/29/7
f 31/28/8 28/29/8 32/31/8
f 29/30/9 32/31/9 30/32/9
f 29/30/31 26/27/31 25/26/31
f 25/26/11 31/28/11 29/30/11
f 30/32/12 28/29/12 26/27/12
f 35/33/32 34/35/32 36/37/32
f 39/36/33 36/37/33 40/38/33
f 39/36/34 38/39/34 37/40/34
f 37/40/35 34/35/35 33/34/35
f 35/33/17 37/40/17 33/34/17
f 38/39/18 36/37/18 34/35/18
f 43/41/1 42/43/1 44/45/1
f 47/44/4 44/45/4 48/47/4
f 45/46/3 48/47/3 46/48/3
f 41/42/2 46/48/2 42/43/2
f 41/42/5 47/44/5 45/46/5
f 46/48/6 44/45/6 42/43/6
f 50/49/36 51/51/36 52/52/36
f 52/52/37 55/53/37 56/56/37
f 55/53/38 54/55/38 56/56/38
f 53/54/39 50/49/39 54/55/39
f 55/53/23 49/50/23 53/54/23
f 52/52/24 54/55/24 50/49/24
f 58/57/25 59/59/25 60/60/25
f 60/60/26 63/61/26 64/62/26
f 64/62/27 61/63/27 62/64/27
f 61/63/28 58/57/28 62/64/28
f 59/59/29 61/63/29 63/61/29
f 60/60/30 62/64/30 58/57/30
