# Blender v3.2.1 OBJ File: 'Modeling.blend'
# www.blender.org
o Slime_Cube.009
v -0.492941 0.077022 0.473452
v -0.469233 0.281021 0.452661
v -0.494705 0.098558 -0.508200
v -0.470282 0.305597 -0.480263
v 0.493967 0.073015 0.470806
v 0.470099 0.278148 0.451387
v 0.492302 0.094527 -0.509395
v 0.469046 0.302695 -0.481720
v -0.539495 0.280519 0.522915
v -0.540799 0.306554 -0.549970
v 0.539349 0.303138 -0.551758
v 0.540692 0.277121 0.521458
v -0.380406 0.416422 0.371935
v -0.380865 0.467643 -0.383257
v 0.380372 0.463532 -0.384785
v 0.380950 0.412341 0.370728
v -0.468734 0.420624 0.457931
v -0.469513 0.463971 -0.473606
v 0.468898 0.459529 -0.475526
v 0.469744 0.416207 0.456704
v -0.280483 0.510308 0.296150
v -0.280222 0.595025 -0.256958
v 0.281711 0.589287 -0.258274
v 0.281511 0.504585 0.294966
v -0.379742 0.510723 0.387929
v -0.379972 0.595763 -0.364355
v 0.380938 0.590191 -0.366081
v 0.381247 0.505178 0.386434
v -0.189988 0.594405 0.240301
v -0.188676 0.682043 -0.134678
v 0.194333 0.674190 -0.136038
v 0.193017 0.586444 0.239967
v -0.279321 0.587251 0.317399
v -0.278233 0.691975 -0.233301
v 0.282766 0.683809 -0.234787
v 0.281685 0.579017 0.316712
v -0.186969 0.643721 0.260689
v -0.185483 0.741236 -0.114558
v 0.195541 0.730872 -0.116563
v 0.193815 0.633137 0.259975
v -0.541454 0.101876 -0.555205
v -0.539570 0.074190 0.518831
v 0.538868 0.097537 -0.556610
v 0.540658 0.069873 0.516062
v -0.494831 0.014207 -0.507219
v -0.493036 0.003887 0.475908
v 0.492319 0.009584 -0.507593
v 0.493901 -0.000708 0.472601
vt 0.661625 0.483720
vt 0.316519 0.454769
vt 0.661625 0.454769
vt 0.661227 0.484999
vt 0.323755 0.456688
vt 0.661227 0.456688
vt 0.897196 0.472493
vt 0.590571 0.446770
vt 0.897196 0.446770
vt 0.659105 0.482249
vt 0.298417 0.451990
vt 0.659105 0.451990
vt 0.338333 0.456688
vt 0.646648 0.445860
vt 0.646648 0.456688
vt 0.635603 0.482249
vt 0.321920 0.504062
vt 0.321920 0.482249
vt 0.034197 0.536342
vt 0.019814 0.446066
vt 0.034197 0.452358
vt 0.226160 0.536342
vt 0.019814 0.542634
vt 0.226160 0.452358
vt 0.240543 0.542634
vt 0.240543 0.446066
vt 0.871651 0.508301
vt 0.614542 0.524885
vt 0.614542 0.508301
vt 0.639237 0.484999
vt 0.345744 0.505407
vt 0.345744 0.484999
vt 0.946364 0.475620
vt 0.556364 0.508278
vt 0.556364 0.476123
vt 0.639137 0.483720
vt 0.339006 0.504590
vt 0.339006 0.483720
vt 0.052267 0.528436
vt 0.034197 0.452358
vt 0.052267 0.460264
vt 0.208090 0.528436
vt 0.034197 0.536342
vt 0.208090 0.460264
vt 0.226160 0.536342
vt 0.226160 0.452358
vt 0.838040 0.524885
vt 0.648153 0.537948
vt 0.648153 0.524885
vt 0.610885 0.504590
vt 0.367259 0.520305
vt 0.367259 0.504590
vt 0.606075 0.504062
vt 0.351447 0.520485
vt 0.351447 0.504062
vt 0.611609 0.505407
vt 0.373372 0.520774
vt 0.373372 0.505407
vt 0.072637 0.519524
vt 0.052267 0.460264
vt 0.072637 0.469176
vt 0.187720 0.519524
vt 0.052267 0.528436
vt 0.187720 0.469176
vt 0.208090 0.528436
vt 0.208090 0.460264
vt 0.543094 0.533422
vt 0.414429 0.541552
vt 0.414429 0.533422
vt 0.579037 0.520305
vt 0.399107 0.532683
vt 0.399107 0.520305
vt 0.572789 0.520485
vt 0.384734 0.533422
vt 0.384734 0.520485
vt 0.580466 0.520774
vt 0.404516 0.532878
vt 0.404516 0.520774
vt 0.090809 0.511574
vt 0.072637 0.469176
vt 0.090809 0.477126
vt 0.169548 0.511574
vt 0.072637 0.519524
vt 0.169548 0.477126
vt 0.187720 0.519524
vt 0.187720 0.469176
vt 0.090809 0.511574
vt 0.169548 0.477126
vt 0.169548 0.511574
vt 0.552682 0.532878
vt 0.432299 0.540484
vt 0.432299 0.532878
vt 0.808056 0.537948
vt 0.678137 0.546157
vt 0.678137 0.537948
vt 0.550625 0.532683
vt 0.427519 0.540461
vt 0.427519 0.532683
vt 0.406997 0.449262
vt 0.406476 0.454315
vt 0.406476 0.449034
vt 0.418026 0.449262
vt 0.418547 0.449034
vt 0.418026 0.454087
vt 0.418547 0.454315
vt 0.406997 0.454087
vt 0.418026 0.449262
vt 0.406997 0.454087
vt 0.406997 0.449262
vt 0.576727 0.455722
vt 0.909465 0.444037
vt 0.909465 0.455722
vt 0.331427 0.454769
vt 0.646717 0.443696
vt 0.646717 0.454769
vt 0.313998 0.451990
vt 0.643524 0.440417
vt 0.643524 0.451990
vt 0.316519 0.483720
vt 0.323755 0.484999
vt 0.590571 0.472493
vt 0.298417 0.482249
vt 0.338333 0.445860
vt 0.635603 0.504062
vt 0.871651 0.524885
vt 0.639237 0.505407
vt 0.946364 0.507775
vt 0.639137 0.504590
vt 0.838040 0.537948
vt 0.610885 0.520305
vt 0.606075 0.520485
vt 0.611609 0.520774
vt 0.543094 0.541552
vt 0.579037 0.532683
vt 0.572789 0.533422
vt 0.580466 0.532878
vt 0.090809 0.477126
vt 0.552682 0.540484
vt 0.808056 0.546157
vt 0.550625 0.540461
vt 0.418026 0.454087
vt 0.576727 0.444037
vt 0.331427 0.443696
vt 0.313998 0.440417
vn -1.0000 0.0003 0.0018
vn -0.0012 0.0256 -0.9997
vn 1.0000 -0.0023 -0.0017
vn 0.0025 -0.0260 0.9997
vn -0.0013 -0.0116 -0.9999
vn 0.0012 -0.0377 0.9993
vn 0.0192 0.9995 0.0263
vn 0.0031 0.9999 0.0106
vn 0.0199 0.9995 0.0263
vn 0.0031 0.9999 0.0116
vn 1.0000 -0.0030 -0.0010
vn -0.0014 0.0395 -0.9992
vn 1.0000 0.0026 -0.0011
vn -1.0000 0.0048 0.0013
vn 0.1126 0.9914 0.0672
vn 0.0053 0.9989 -0.0458
vn 0.1136 0.9913 0.0671
vn 0.0053 0.9987 -0.0504
vn 1.0000 -0.0023 0.0000
vn -1.0000 0.0068 0.0011
vn 0.0007 -0.1672 0.9859
vn -0.0012 0.1461 -0.9893
vn 0.1427 0.9783 0.1499
vn 0.0102 0.9999 -0.0026
vn 0.1536 0.9767 0.1496
vn 0.0101 0.9998 -0.0175
vn -0.0071 -0.3817 0.9243
vn -0.9998 0.0199 0.0026
vn -0.0007 -0.2662 0.9639
vn 0.0002 0.2411 -0.9705
vn 0.1180 0.9669 0.2264
vn 0.0207 0.9965 0.0815
vn 0.1468 0.9632 0.2253
vn 0.0208 0.9972 0.0725
vn 0.0276 0.9675 0.2513
vn 0.0033 0.3249 -0.9457
vn 0.9999 -0.0169 -0.0004
vn -0.9987 0.0510 0.0084
vn -0.0451 -0.9987 -0.0257
vn -0.0041 -0.9977 -0.0677
vn -0.0423 -0.9988 -0.0257
vn -0.0042 -0.9978 -0.0665
vn -0.0047 -0.9999 -0.0105
vn 1.0000 0.0002 -0.0017
vn -1.0000 0.0014 0.0018
vn 0.0028 0.0243 0.9997
vn -1.0000 0.0032 0.0013
vn -0.0016 0.0236 -0.9997
vn 1.0000 -0.0001 -0.0013
vn 0.0013 -0.0198 0.9998
vn -0.0005 -0.0212 -0.9998
vn 0.0011 -0.0385 0.9993
vn -0.0104 0.9997 0.0243
vn 0.0032 0.9999 0.0095
vn -0.0095 0.9997 0.0242
vn 0.0032 0.9999 0.0103
vn 1.0000 -0.0043 -0.0009
vn -0.0018 0.0420 -0.9991
vn 1.0000 0.0010 -0.0009
vn -1.0000 0.0035 0.0010
vn -0.0885 0.9950 0.0464
vn 0.0046 0.9992 -0.0396
vn -0.0882 0.9950 0.0463
vn 0.0046 0.9990 -0.0440
vn 0.9999 -0.0111 -0.0002
vn -1.0000 0.0069 0.0011
vn 0.0007 -0.1668 0.9860
vn -0.0012 0.1460 -0.9893
vn -0.1129 0.9873 0.1116
vn 0.0074 0.9999 0.0152
vn -0.1083 0.9878 0.1116
vn 0.0073 1.0000 0.0034
vn -0.0092 -0.3937 0.9192
vn -0.9999 0.0149 0.0009
vn -0.0029 -0.2804 0.9599
vn 0.0009 0.2370 -0.9715
vn -0.0961 0.9779 0.1858
vn 0.0148 0.9938 0.1100
vn -0.0789 0.9794 0.1859
vn 0.0147 0.9939 0.1093
vn 0.0274 0.9675 0.2515
vn 0.0038 0.3216 -0.9469
vn 0.9998 -0.0210 -0.0009
vn -0.9983 0.0567 0.0108
vn 0.0393 -0.9990 -0.0220
vn -0.0042 -0.9978 -0.0663
vn 0.0423 -0.9989 -0.0220
vn -0.0042 -0.9979 -0.0649
vn 1.0000 -0.0009 -0.0016
vn -1.0000 0.0015 0.0018
vn 0.0035 0.0336 0.9994
s off
f 9/1/1 41/2/1 42/3/1
f 10/4/2 43/5/2 41/6/2
f 11/7/3 44/8/3 43/9/3
f 12/10/4 42/11/4 44/12/4
f 7/13/5 45/14/5 3/15/5
f 6/16/6 17/17/6 2/18/6
f 4/19/7 9/20/7 2/21/7
f 8/22/8 10/23/8 4/19/8
f 6/24/9 11/25/9 8/22/9
f 2/21/10 12/26/10 6/24/10
f 15/27/11 28/28/11 16/29/11
f 4/30/12 19/31/12 8/32/12
f 8/33/13 20/34/13 6/35/13
f 2/36/14 18/37/14 4/38/14
f 14/39/15 17/40/15 13/41/15
f 15/42/16 18/43/16 14/39/16
f 16/44/17 19/45/17 15/42/17
f 13/41/18 20/46/18 16/44/18
f 23/47/19 36/48/19 24/49/19
f 13/50/20 26/51/20 14/52/20
f 16/53/21 25/54/21 13/55/21
f 14/56/22 27/57/22 15/58/22
f 22/59/23 25/60/23 21/61/23
f 23/62/24 26/63/24 22/59/24
f 24/64/25 27/65/25 23/62/25
f 21/61/26 28/66/26 24/64/26
f 32/67/27 37/68/27 29/69/27
f 21/70/28 34/71/28 22/72/28
f 24/73/29 33/74/29 21/75/29
f 22/76/30 35/77/30 23/78/30
f 30/79/31 33/80/31 29/81/31
f 31/82/32 34/83/32 30/79/32
f 32/84/33 35/85/33 31/82/33
f 29/81/34 36/86/34 32/84/34
f 38/87/35 40/88/35 39/89/35
f 30/90/36 39/91/36 31/92/36
f 31/93/37 40/94/37 32/95/37
f 29/96/38 38/97/38 30/98/38
f 3/99/39 42/100/39 41/101/39
f 7/102/40 41/101/40 43/103/40
f 5/104/41 43/103/41 44/105/41
f 1/106/42 44/105/42 42/100/42
f 47/107/43 46/108/43 45/109/43
f 5/110/44 47/111/44 7/112/44
f 3/113/45 46/114/45 1/115/45
f 1/116/46 48/117/46 5/118/46
f 9/1/47 10/119/47 41/2/47
f 10/4/48 11/120/48 43/5/48
f 11/7/49 12/121/49 44/8/49
f 12/10/50 9/122/50 42/11/50
f 7/13/51 47/123/51 45/14/51
f 6/16/52 20/124/52 17/17/52
f 4/19/53 10/23/53 9/20/53
f 8/22/54 11/25/54 10/23/54
f 6/24/55 12/26/55 11/25/55
f 2/21/56 9/20/56 12/26/56
f 15/27/57 27/125/57 28/28/57
f 4/30/58 18/126/58 19/31/58
f 8/33/59 19/127/59 20/34/59
f 2/36/60 17/128/60 18/37/60
f 14/39/61 18/43/61 17/40/61
f 15/42/62 19/45/62 18/43/62
f 16/44/63 20/46/63 19/45/63
f 13/41/64 17/40/64 20/46/64
f 23/47/65 35/129/65 36/48/65
f 13/50/66 25/130/66 26/51/66
f 16/53/67 28/131/67 25/54/67
f 14/56/68 26/132/68 27/57/68
f 22/59/69 26/63/69 25/60/69
f 23/62/70 27/65/70 26/63/70
f 24/64/71 28/66/71 27/65/71
f 21/61/72 25/60/72 28/66/72
f 32/67/73 40/133/73 37/68/73
f 21/70/74 33/134/74 34/71/74
f 24/73/75 36/135/75 33/74/75
f 22/76/76 34/136/76 35/77/76
f 30/79/77 34/83/77 33/80/77
f 31/82/78 35/85/78 34/83/78
f 32/84/79 36/86/79 35/85/79
f 29/81/80 33/80/80 36/86/80
f 38/87/81 37/137/81 40/88/81
f 30/90/82 38/138/82 39/91/82
f 31/93/83 39/139/83 40/94/83
f 29/96/84 37/140/84 38/97/84
f 3/99/85 1/106/85 42/100/85
f 7/102/86 3/99/86 41/101/86
f 5/104/87 7/102/87 43/103/87
f 1/106/88 5/104/88 44/105/88
f 47/107/43 48/141/43 46/108/43
f 5/110/89 48/142/89 47/111/89
f 3/113/90 45/143/90 46/114/90
f 1/116/91 46/144/91 48/117/91
