# Blender v3.2.1 OBJ File: 'Modeling.blend'
# www.blender.org
o PurpleSlime_Cube.010
v -0.492652 0.089478 0.499404
v -0.454940 0.307632 0.480768
v -0.494726 0.088838 -0.455926
v -0.454618 0.305746 -0.447892
v 0.494910 0.066651 0.511920
v 0.481233 0.257791 0.478526
v 0.490888 0.068417 -0.467137
v 0.482511 0.254971 -0.441609
v -0.524829 0.306710 0.551051
v -0.525565 0.304080 -0.517489
v 0.552890 0.255663 -0.509470
v 0.552519 0.259508 0.547313
v -0.356097 0.470914 0.385792
v -0.348622 0.447946 -0.369965
v 0.408200 0.383289 -0.355825
v 0.399108 0.407685 0.392340
v -0.443801 0.462021 0.480720
v -0.438318 0.458339 -0.450657
v 0.496197 0.391328 -0.436525
v 0.488784 0.396892 0.480814
v -0.244124 0.592839 0.266469
v -0.226025 0.556726 -0.292807
v 0.328037 0.482534 -0.267614
v 0.309195 0.519329 0.287368
v -0.344843 0.597843 0.371650
v -0.329710 0.557968 -0.386290
v 0.424039 0.476820 -0.361645
v 0.407691 0.517869 0.387249
v -0.134472 0.673229 0.168924
v -0.107188 0.646446 -0.217873
v 0.264937 0.574861 -0.183996
v 0.238373 0.601648 0.197261
v -0.229787 0.684722 0.258340
v -0.200857 0.651456 -0.304013
v 0.348627 0.563495 -0.267548
v 0.319915 0.597046 0.288613
v -0.117942 0.733459 0.162767
v -0.084786 0.698501 -0.228840
v 0.281635 0.621661 -0.187046
v 0.252021 0.654980 0.194372
v -0.541476 0.089285 -0.503126
v -0.539653 0.094690 0.545278
v 0.537171 0.063141 -0.512811
v 0.540847 0.066267 0.558090
v -0.500180 0.008082 -0.449290
v -0.498435 -0.002104 0.489582
v 0.485415 0.007248 -0.476020
v 0.491649 -0.008352 0.516080
vt 0.660914 0.600881
vt 0.305602 0.571073
vt 0.660914 0.571073
vt 0.649076 0.600209
vt 0.294476 0.570461
vt 0.649076 0.570461
vt 0.653515 0.599960
vt 0.288630 0.569349
vt 0.653515 0.569349
vt 0.649263 0.598581
vt 0.284351 0.567968
vt 0.649263 0.567968
vt 0.309794 0.570461
vt 0.633758 0.559083
vt 0.633758 0.570461
vt 0.892670 0.588599
vt 0.579634 0.623252
vt 0.579634 0.589268
vt 0.025624 0.652803
vt 0.010485 0.557782
vt 0.025624 0.564405
vt 0.227675 0.652803
vt 0.010485 0.659426
vt 0.227675 0.564405
vt 0.242814 0.659426
vt 0.242814 0.557782
vt 0.599867 0.622026
vt 0.342278 0.638641
vt 0.342278 0.622026
vt 0.625970 0.600209
vt 0.317582 0.621653
vt 0.317582 0.600209
vt 0.629738 0.599960
vt 0.312406 0.622026
vt 0.312406 0.599960
vt 0.637762 0.600881
vt 0.328755 0.622368
vt 0.328755 0.600881
vt 0.044643 0.644482
vt 0.025624 0.564405
vt 0.044643 0.572726
vt 0.208656 0.644482
vt 0.025624 0.652803
vt 0.208656 0.572726
vt 0.227675 0.652803
vt 0.227675 0.564405
vt 0.566193 0.638641
vt 0.375951 0.651729
vt 0.375951 0.638641
vt 0.608674 0.622368
vt 0.357843 0.638547
vt 0.357843 0.622368
vt 0.595611 0.620649
vt 0.338002 0.637265
vt 0.338002 0.620649
vt 0.596940 0.621653
vt 0.346612 0.637800
vt 0.346612 0.621653
vt 0.066084 0.635101
vt 0.044643 0.572726
vt 0.066084 0.582106
vt 0.187215 0.635101
vt 0.044643 0.644482
vt 0.187215 0.582106
vt 0.208656 0.644482
vt 0.208656 0.572726
vt 0.531893 0.650354
vt 0.401721 0.658578
vt 0.401721 0.650354
vt 0.575884 0.638547
vt 0.390633 0.651291
vt 0.390633 0.638547
vt 0.561935 0.637265
vt 0.371678 0.650354
vt 0.371678 0.637265
vt 0.564216 0.637800
vt 0.379336 0.650518
vt 0.379336 0.637800
vt 0.085211 0.626733
vt 0.066084 0.582106
vt 0.085211 0.590475
vt 0.168088 0.626733
vt 0.066084 0.635101
vt 0.168088 0.590475
vt 0.187215 0.635101
vt 0.187215 0.582106
vt 0.085211 0.626733
vt 0.168088 0.590475
vt 0.168088 0.626733
vt 0.535022 0.650518
vt 0.408530 0.658511
vt 0.408530 0.650518
vt 0.536153 0.651729
vt 0.405992 0.659953
vt 0.405992 0.651729
vt 0.546632 0.651291
vt 0.419885 0.659299
vt 0.419885 0.651291
vt 0.399251 0.559577
vt 0.398373 0.568088
vt 0.398373 0.559192
vt 0.417827 0.559577
vt 0.418705 0.559192
vt 0.417827 0.567703
vt 0.418705 0.568088
vt 0.399251 0.567703
vt 0.417827 0.559577
vt 0.399251 0.567703
vt 0.399251 0.559577
vt 0.304393 0.569349
vt 0.637752 0.557642
vt 0.637752 0.569349
vt 0.320951 0.571073
vt 0.645566 0.559673
vt 0.645566 0.571073
vt 0.300114 0.567968
vt 0.633499 0.556260
vt 0.633499 0.567968
vt 0.305602 0.600881
vt 0.294476 0.600209
vt 0.288630 0.599960
vt 0.284351 0.598581
vt 0.309794 0.559083
vt 0.892670 0.622584
vt 0.599867 0.638641
vt 0.625970 0.621653
vt 0.629738 0.622026
vt 0.637762 0.622368
vt 0.566193 0.651729
vt 0.608674 0.638547
vt 0.595611 0.637265
vt 0.596940 0.637800
vt 0.531893 0.658578
vt 0.575884 0.651291
vt 0.561935 0.650354
vt 0.564216 0.650518
vt 0.085211 0.590475
vt 0.535022 0.658511
vt 0.536153 0.659953
vt 0.546632 0.659299
vt 0.417827 0.567703
vt 0.304393 0.557642
vt 0.320951 0.559673
vt 0.300114 0.556260
vn -0.9976 0.0697 0.0014
vn -0.0106 -0.0659 -0.9978
vn 0.9967 -0.0813 -0.0032
vn -0.0104 0.0563 0.9984
vn -0.0130 -0.0810 -0.9966
vn 0.0024 0.0001 1.0000
vn -0.0152 0.9999 -0.0020
vn 0.0545 0.9954 -0.0794
vn -0.0128 0.9999 -0.0031
vn 0.0528 0.9954 -0.0796
vn 0.9969 -0.0770 0.0146
vn 0.0087 0.0364 -0.9993
vn 0.9985 -0.0542 0.0016
vn -0.9943 0.1062 -0.0006
vn -0.1344 0.9904 -0.0314
vn 0.0844 0.9958 0.0344
vn -0.1217 0.9920 -0.0338
vn 0.0831 0.9958 0.0373
vn 0.9896 -0.1372 0.0427
vn -0.9858 0.1672 -0.0148
vn 0.0006 0.1107 0.9939
vn 0.0131 -0.0643 -0.9978
vn -0.0183 0.9977 -0.0650
vn 0.1377 0.9806 -0.1396
vn -0.0056 0.9978 -0.0663
vn 0.1352 0.9837 -0.1189
vn -0.0531 0.1160 0.9918
vn -0.9668 0.2512 -0.0475
vn -0.0254 0.0920 0.9954
vn 0.0440 -0.0104 -0.9990
vn 0.0593 0.9961 -0.0648
vn 0.2006 0.9662 -0.1619
vn 0.0702 0.9954 -0.0650
vn 0.1963 0.9724 -0.1262
vn 0.2123 0.9748 -0.0687
vn 0.0730 -0.0908 -0.9932
vn 0.9664 -0.2428 0.0844
vn -0.9216 0.3774 -0.0911
vn -0.0148 -0.9999 0.0052
vn -0.0233 -0.9955 0.0914
vn -0.0113 -0.9999 0.0030
vn -0.0272 -0.9960 0.0853
vn -0.0011 -0.9999 -0.0108
vn 0.9961 -0.0885 -0.0043
vn -0.9980 0.0628 0.0021
vn -0.0114 0.0559 0.9984
vn -0.9973 0.0739 0.0005
vn 0.0082 0.0167 -0.9998
vn 0.9982 -0.0603 0.0006
vn 0.0023 -0.0274 0.9996
vn -0.0267 0.1460 -0.9889
vn -0.0012 -0.0164 0.9999
vn -0.0211 0.9998 -0.0024
vn 0.0444 0.9974 0.0562
vn -0.0206 0.9998 -0.0036
vn 0.0439 0.9974 0.0567
vn 0.9858 -0.1650 0.0306
vn 0.0137 -0.0196 -0.9997
vn 0.9949 -0.1002 0.0086
vn -0.9974 0.0720 -0.0062
vn 0.1180 0.9930 -0.0032
vn 0.0679 0.9828 0.1719
vn 0.1244 0.9922 -0.0050
vn 0.0688 0.9854 0.1559
vn 0.9671 -0.2460 0.0648
vn -0.9960 0.0856 -0.0244
vn -0.0157 0.0474 0.9988
vn 0.0162 -0.1495 -0.9886
vn 0.0582 0.9970 -0.0513
vn 0.1054 0.9933 0.0472
vn 0.0686 0.9962 -0.0531
vn 0.1044 0.9931 0.0528
vn -0.0698 0.0718 0.9950
vn -0.9871 0.1487 -0.0596
vn -0.0563 -0.0082 0.9984
vn 0.0451 -0.1292 -0.9906
vn 0.1023 0.9933 -0.0535
vn 0.1566 0.9874 0.0225
vn 0.1163 0.9918 -0.0538
vn 0.1553 0.9871 0.0387
vn 0.2127 0.9747 -0.0690
vn 0.0622 -0.2313 -0.9709
vn 0.9391 -0.3284 0.1016
vn -0.9618 0.2533 -0.1040
vn -0.1094 -0.9940 0.0009
vn -0.0206 -0.9997 0.0109
vn -0.1145 -0.9934 -0.0013
vn -0.0233 -0.9996 0.0149
vn -0.0059 -0.9999 -0.0157
vn 0.9990 -0.0438 -0.0070
vn -0.9977 0.0676 0.0026
vn -0.0273 -0.1049 0.9941
s off
f 9/1/1 41/2/1 42/3/1
f 10/4/2 43/5/2 41/6/2
f 11/7/3 44/8/3 43/9/3
f 12/10/4 42/11/4 44/12/4
f 7/13/5 45/14/5 3/15/5
f 6/16/6 17/17/6 2/18/6
f 4/19/7 9/20/7 2/21/7
f 8/22/8 10/23/8 4/19/8
f 6/24/9 11/25/9 8/22/9
f 2/21/10 12/26/10 6/24/10
f 15/27/11 28/28/11 16/29/11
f 4/30/12 19/31/12 8/32/12
f 8/33/13 20/34/13 6/35/13
f 2/36/14 18/37/14 4/38/14
f 14/39/15 17/40/15 13/41/15
f 15/42/16 18/43/16 14/39/16
f 16/44/17 19/45/17 15/42/17
f 13/41/18 20/46/18 16/44/18
f 23/47/19 36/48/19 24/49/19
f 13/50/20 26/51/20 14/52/20
f 16/53/21 25/54/21 13/55/21
f 14/56/22 27/57/22 15/58/22
f 22/59/23 25/60/23 21/61/23
f 23/62/24 26/63/24 22/59/24
f 24/64/25 27/65/25 23/62/25
f 21/61/26 28/66/26 24/64/26
f 32/67/27 37/68/27 29/69/27
f 21/70/28 34/71/28 22/72/28
f 24/73/29 33/74/29 21/75/29
f 22/76/30 35/77/30 23/78/30
f 30/79/31 33/80/31 29/81/31
f 31/82/32 34/83/32 30/79/32
f 32/84/33 35/85/33 31/82/33
f 29/81/34 36/86/34 32/84/34
f 38/87/35 40/88/35 39/89/35
f 30/90/36 39/91/36 31/92/36
f 31/93/37 40/94/37 32/95/37
f 29/96/38 38/97/38 30/98/38
f 3/99/39 42/100/39 41/101/39
f 7/102/40 41/101/40 43/103/40
f 5/104/41 43/103/41 44/105/41
f 1/106/42 44/105/42 42/100/42
f 47/107/43 46/108/43 45/109/43
f 5/110/44 47/111/44 7/112/44
f 3/113/45 46/114/45 1/115/45
f 1/116/46 48/117/46 5/118/46
f 9/1/47 10/119/47 41/2/47
f 10/4/48 11/120/48 43/5/48
f 11/7/49 12/121/49 44/8/49
f 12/10/50 9/122/50 42/11/50
f 7/13/51 47/123/51 45/14/51
f 6/16/52 20/124/52 17/17/52
f 4/19/53 10/23/53 9/20/53
f 8/22/54 11/25/54 10/23/54
f 6/24/55 12/26/55 11/25/55
f 2/21/56 9/20/56 12/26/56
f 15/27/57 27/125/57 28/28/57
f 4/30/58 18/126/58 19/31/58
f 8/33/59 19/127/59 20/34/59
f 2/36/60 17/128/60 18/37/60
f 14/39/61 18/43/61 17/40/61
f 15/42/62 19/45/62 18/43/62
f 16/44/63 20/46/63 19/45/63
f 13/41/64 17/40/64 20/46/64
f 23/47/65 35/129/65 36/48/65
f 13/50/66 25/130/66 26/51/66
f 16/53/67 28/131/67 25/54/67
f 14/56/68 26/132/68 27/57/68
f 22/59/69 26/63/69 25/60/69
f 23/62/70 27/65/70 26/63/70
f 24/64/71 28/66/71 27/65/71
f 21/61/72 25/60/72 28/66/72
f 32/67/73 40/133/73 37/68/73
f 21/70/74 33/134/74 34/71/74
f 24/73/75 36/135/75 33/74/75
f 22/76/76 34/136/76 35/77/76
f 30/79/77 34/83/77 33/80/77
f 31/82/78 35/85/78 34/83/78
f 32/84/79 36/86/79 35/85/79
f 29/81/80 33/80/80 36/86/80
f 38/87/81 37/137/81 40/88/81
f 30/90/82 38/138/82 39/91/82
f 31/93/83 39/139/83 40/94/83
f 29/96/84 37/140/84 38/97/84
f 3/99/85 1/106/85 42/100/85
f 7/102/86 3/99/86 41/101/86
f 5/104/87 7/102/87 43/103/87
f 1/106/88 5/104/88 44/105/88
f 47/107/89 48/141/89 46/108/89
f 5/110/90 48/142/90 47/111/90
f 3/113/91 45/143/91 46/114/91
f 1/116/92 46/144/92 48/117/92
