# Blender v3.2.1 OBJ File: 'Modeling.blend'
# www.blender.org
o PurpleSlime_Cube.010
v -0.490722 0.050831 0.438377
v -0.465465 0.243251 0.417781
v -0.504001 0.170888 -0.507056
v -0.473886 0.372580 -0.446098
v 0.497166 0.018980 0.413157
v 0.474032 0.222818 0.398742
v 0.484818 0.138267 -0.522172
v 0.465406 0.351720 -0.467951
v -0.535113 0.239502 0.487716
v -0.545301 0.379629 -0.512874
v 0.535183 0.353508 -0.537103
v 0.545752 0.213450 0.467561
v -0.373731 0.339167 0.342982
v -0.378861 0.548612 -0.292139
v 0.381280 0.529783 -0.321891
v 0.386519 0.320574 0.316916
v -0.461987 0.349860 0.427908
v -0.468917 0.543118 -0.392258
v 0.468571 0.519947 -0.424266
v 0.475850 0.326928 0.402076
v -0.268721 0.368233 0.293486
v -0.267716 0.662675 -0.073241
v 0.292179 0.643781 -0.108961
v 0.291263 0.349488 0.259513
v -0.368257 0.376065 0.373252
v -0.371128 0.681055 -0.199188
v 0.387908 0.659462 -0.237326
v 0.391008 0.354787 0.338347
v -0.170138 0.359327 0.299938
v -0.160616 0.671907 0.164254
v 0.219292 0.653458 0.123036
v 0.210372 0.338677 0.262656
v -0.261961 0.361136 0.338628
v -0.254632 0.733374 0.053184
v 0.303195 0.710431 0.006379
v 0.296342 0.336770 0.295348
v -0.161065 0.342608 0.353975
v -0.147957 0.686079 0.254695
v 0.228639 0.666847 0.206280
v 0.216931 0.319286 0.309203
v -0.551340 0.184159 -0.549444
v -0.537134 0.043501 0.478586
v 0.530749 0.149339 -0.567381
v 0.544076 0.009368 0.451113
v -0.505336 0.081972 -0.517450
v -0.491695 -0.014418 0.443823
v 0.484811 0.043667 -0.525066
v 0.496430 -0.051379 0.414305
vt 0.660914 0.600881
vt 0.305602 0.571073
vt 0.660914 0.571073
vt 0.649076 0.600209
vt 0.294476 0.570461
vt 0.649076 0.570461
vt 0.653515 0.599960
vt 0.288630 0.569349
vt 0.653515 0.569349
vt 0.649263 0.598581
vt 0.284351 0.567968
vt 0.649263 0.567968
vt 0.309794 0.570461
vt 0.633758 0.559083
vt 0.633758 0.570461
vt 0.892670 0.588599
vt 0.579634 0.623252
vt 0.579634 0.589268
vt 0.025624 0.652803
vt 0.010485 0.557782
vt 0.025624 0.564405
vt 0.227675 0.652803
vt 0.010485 0.659426
vt 0.227675 0.564405
vt 0.242814 0.659426
vt 0.242814 0.557782
vt 0.599867 0.622026
vt 0.342278 0.638641
vt 0.342278 0.622026
vt 0.625970 0.600209
vt 0.317582 0.621653
vt 0.317582 0.600209
vt 0.629738 0.599960
vt 0.312406 0.622026
vt 0.312406 0.599960
vt 0.637762 0.600881
vt 0.328755 0.622368
vt 0.328755 0.600881
vt 0.044643 0.644482
vt 0.025624 0.564405
vt 0.044643 0.572726
vt 0.208656 0.644482
vt 0.025624 0.652803
vt 0.208656 0.572726
vt 0.227675 0.652803
vt 0.227675 0.564405
vt 0.566193 0.638641
vt 0.375951 0.651729
vt 0.375951 0.638641
vt 0.608674 0.622368
vt 0.357843 0.638547
vt 0.357843 0.622368
vt 0.595611 0.620649
vt 0.338002 0.637265
vt 0.338002 0.620649
vt 0.596940 0.621653
vt 0.346612 0.637800
vt 0.346612 0.621653
vt 0.066084 0.635101
vt 0.044643 0.572726
vt 0.066084 0.582106
vt 0.187215 0.635101
vt 0.044643 0.644482
vt 0.187215 0.582106
vt 0.208656 0.644482
vt 0.208656 0.572726
vt 0.531893 0.650354
vt 0.401721 0.658578
vt 0.401721 0.650354
vt 0.575884 0.638547
vt 0.390633 0.651291
vt 0.390633 0.638547
vt 0.561935 0.637265
vt 0.371678 0.650354
vt 0.371678 0.637265
vt 0.564216 0.637800
vt 0.379336 0.650518
vt 0.379336 0.637800
vt 0.085211 0.626733
vt 0.066084 0.582106
vt 0.085211 0.590475
vt 0.168088 0.626733
vt 0.066084 0.635101
vt 0.168088 0.590475
vt 0.187215 0.635101
vt 0.187215 0.582106
vt 0.085211 0.626733
vt 0.168088 0.590475
vt 0.168088 0.626733
vt 0.535022 0.650518
vt 0.408530 0.658511
vt 0.408530 0.650518
vt 0.536153 0.651729
vt 0.405992 0.659953
vt 0.405992 0.651729
vt 0.546632 0.651291
vt 0.419885 0.659299
vt 0.419885 0.651291
vt 0.399251 0.559577
vt 0.398373 0.568088
vt 0.398373 0.559192
vt 0.417827 0.559577
vt 0.418705 0.559192
vt 0.417827 0.567703
vt 0.418705 0.568088
vt 0.399251 0.567703
vt 0.417827 0.559577
vt 0.399251 0.567703
vt 0.399251 0.559577
vt 0.304393 0.569349
vt 0.637752 0.557642
vt 0.637752 0.569349
vt 0.320951 0.571073
vt 0.645566 0.559673
vt 0.645566 0.571073
vt 0.300114 0.567968
vt 0.633499 0.556260
vt 0.633499 0.567968
vt 0.305602 0.600881
vt 0.294476 0.600209
vt 0.288630 0.599960
vt 0.284351 0.598581
vt 0.309794 0.559083
vt 0.892670 0.622584
vt 0.599867 0.638641
vt 0.625970 0.621653
vt 0.629738 0.622026
vt 0.637762 0.622368
vt 0.566193 0.651729
vt 0.608674 0.638547
vt 0.595611 0.637265
vt 0.596940 0.637800
vt 0.531893 0.658578
vt 0.575884 0.651291
vt 0.561935 0.650354
vt 0.564216 0.650518
vt 0.085211 0.590475
vt 0.535022 0.658511
vt 0.536153 0.659953
vt 0.546632 0.659299
vt 0.417827 0.567703
vt 0.304393 0.557642
vt 0.320951 0.559673
vt 0.300114 0.556260
vn -0.9998 0.0096 0.0151
vn -0.0104 0.1842 -0.9828
vn 0.9997 -0.0194 -0.0157
vn 0.0228 -0.0805 0.9965
vn -0.0113 0.1163 -0.9932
vn 0.0181 -0.0951 0.9953
vn 0.0941 0.9847 0.1465
vn 0.0240 0.9965 0.0795
vn 0.1185 0.9823 0.1449
vn 0.0238 0.9936 0.1104
vn 0.9937 -0.1040 -0.0422
vn -0.0169 0.2516 -0.9677
vn 0.9998 -0.0171 -0.0125
vn -0.9996 0.0249 0.0135
vn 0.3822 0.8785 0.2866
vn 0.0218 0.9970 -0.0743
vn 0.4240 0.8617 0.2787
vn 0.0210 0.9951 -0.0963
vn 0.9238 -0.3003 -0.2375
vn -0.9988 0.0428 0.0222
vn 0.0109 -0.6352 0.7723
vn -0.0192 0.5468 -0.8370
vn 0.4911 0.6786 0.5462
vn 0.0406 0.9929 0.1115
vn 0.5791 0.6363 0.5096
vn 0.0272 0.9945 -0.1012
vn -0.0796 -0.9560 -0.2824
vn -0.9952 0.0776 0.0596
vn -0.0421 -0.9879 -0.1490
vn -0.0027 0.8659 -0.5001
vn 0.3682 0.3608 0.8569
vn 0.0897 0.9017 0.4231
vn 0.7164 0.2658 0.6451
vn 0.0475 0.9966 -0.0669
vn 0.1364 0.2771 0.9511
vn 0.0303 0.9863 -0.1620
vn 0.9771 -0.1089 -0.1830
vn -0.9885 0.0844 0.1251
vn -0.1564 -0.9789 -0.1318
vn -0.0355 -0.9618 -0.2716
vn -0.0934 -0.9865 -0.1344
vn -0.0364 -0.9749 -0.2197
vn -0.0392 -0.9943 -0.0991
vn 0.9999 0.0003 -0.0132
vn -0.9997 0.0163 0.0161
vn 0.0260 0.0160 0.9995
vn -0.9995 0.0282 0.0141
vn -0.0186 0.1471 -0.9890
vn 0.9999 -0.0073 -0.0115
vn 0.0175 -0.0467 0.9988
vn -0.0065 0.0306 -0.9995
vn 0.0267 -0.0325 0.9991
vn -0.0322 0.9898 0.1389
vn 0.0253 0.9984 0.0513
vn -0.0032 0.9904 0.1381
vn 0.0255 0.9966 0.0788
vn 0.9991 -0.0354 -0.0241
vn -0.0251 0.3016 -0.9531
vn 0.9998 -0.0156 -0.0124
vn -0.9994 0.0311 0.0158
vn -0.3023 0.9272 0.2210
vn 0.0220 0.9968 -0.0770
vn -0.2771 0.9351 0.2209
vn 0.0215 0.9945 -0.1029
vn 0.9963 -0.0635 -0.0585
vn -0.9933 0.0997 0.0581
vn 0.0239 -0.5330 0.8458
vn -0.0247 0.5753 -0.8176
vn -0.3856 0.8135 0.4354
vn 0.0355 0.9885 0.1472
vn -0.3857 0.8146 0.4332
vn 0.0249 0.9974 -0.0669
vn -0.1008 -0.9234 -0.3704
vn -0.9742 0.1490 0.1693
vn -0.0664 -0.9433 -0.3254
vn -0.0050 0.8730 -0.4877
vn -0.4679 0.5436 0.6969
vn 0.0763 0.8732 0.4813
vn -0.2752 0.5913 0.7581
vn 0.0489 0.9964 0.0694
vn 0.1297 0.2708 0.9539
vn 0.0300 0.9869 -0.1588
vn 0.9928 -0.0634 -0.1013
vn -0.9768 0.0930 0.1928
vn 0.0469 -0.9909 -0.1265
vn -0.0358 -0.9644 -0.2620
vn 0.1124 -0.9855 -0.1272
vn -0.0367 -0.9786 -0.2024
vn -0.0402 -0.9942 -0.1001
vn 0.9999 -0.0107 -0.0134
vn -0.9998 0.0132 0.0155
vn 0.0328 0.0826 0.9960
s off
f 9/1/1 41/2/1 42/3/1
f 10/4/2 43/5/2 41/6/2
f 11/7/3 44/8/3 43/9/3
f 12/10/4 42/11/4 44/12/4
f 7/13/5 45/14/5 3/15/5
f 6/16/6 17/17/6 2/18/6
f 4/19/7 9/20/7 2/21/7
f 8/22/8 10/23/8 4/19/8
f 6/24/9 11/25/9 8/22/9
f 2/21/10 12/26/10 6/24/10
f 15/27/11 28/28/11 16/29/11
f 4/30/12 19/31/12 8/32/12
f 8/33/13 20/34/13 6/35/13
f 2/36/14 18/37/14 4/38/14
f 14/39/15 17/40/15 13/41/15
f 15/42/16 18/43/16 14/39/16
f 16/44/17 19/45/17 15/42/17
f 13/41/18 20/46/18 16/44/18
f 23/47/19 36/48/19 24/49/19
f 13/50/20 26/51/20 14/52/20
f 16/53/21 25/54/21 13/55/21
f 14/56/22 27/57/22 15/58/22
f 22/59/23 25/60/23 21/61/23
f 23/62/24 26/63/24 22/59/24
f 24/64/25 27/65/25 23/62/25
f 21/61/26 28/66/26 24/64/26
f 32/67/27 37/68/27 29/69/27
f 21/70/28 34/71/28 22/72/28
f 24/73/29 33/74/29 21/75/29
f 22/76/30 35/77/30 23/78/30
f 30/79/31 33/80/31 29/81/31
f 31/82/32 34/83/32 30/79/32
f 32/84/33 35/85/33 31/82/33
f 29/81/34 36/86/34 32/84/34
f 38/87/35 40/88/35 39/89/35
f 30/90/36 39/91/36 31/92/36
f 31/93/37 40/94/37 32/95/37
f 29/96/38 38/97/38 30/98/38
f 3/99/39 42/100/39 41/101/39
f 7/102/40 41/101/40 43/103/40
f 5/104/41 43/103/41 44/105/41
f 1/106/42 44/105/42 42/100/42
f 47/107/43 46/108/43 45/109/43
f 5/110/44 47/111/44 7/112/44
f 3/113/45 46/114/45 1/115/45
f 1/116/46 48/117/46 5/118/46
f 9/1/47 10/119/47 41/2/47
f 10/4/48 11/120/48 43/5/48
f 11/7/49 12/121/49 44/8/49
f 12/10/50 9/122/50 42/11/50
f 7/13/51 47/123/51 45/14/51
f 6/16/52 20/124/52 17/17/52
f 4/19/53 10/23/53 9/20/53
f 8/22/54 11/25/54 10/23/54
f 6/24/55 12/26/55 11/25/55
f 2/21/56 9/20/56 12/26/56
f 15/27/57 27/125/57 28/28/57
f 4/30/58 18/126/58 19/31/58
f 8/33/59 19/127/59 20/34/59
f 2/36/60 17/128/60 18/37/60
f 14/39/61 18/43/61 17/40/61
f 15/42/62 19/45/62 18/43/62
f 16/44/63 20/46/63 19/45/63
f 13/41/64 17/40/64 20/46/64
f 23/47/65 35/129/65 36/48/65
f 13/50/66 25/130/66 26/51/66
f 16/53/67 28/131/67 25/54/67
f 14/56/68 26/132/68 27/57/68
f 22/59/69 26/63/69 25/60/69
f 23/62/70 27/65/70 26/63/70
f 24/64/71 28/66/71 27/65/71
f 21/61/72 25/60/72 28/66/72
f 32/67/73 40/133/73 37/68/73
f 21/70/74 33/134/74 34/71/74
f 24/73/75 36/135/75 33/74/75
f 22/76/76 34/136/76 35/77/76
f 30/79/77 34/83/77 33/80/77
f 31/82/78 35/85/78 34/83/78
f 32/84/79 36/86/79 35/85/79
f 29/81/80 33/80/80 36/86/80
f 38/87/81 37/137/81 40/88/81
f 30/90/82 38/138/82 39/91/82
f 31/93/83 39/139/83 40/94/83
f 29/96/84 37/140/84 38/97/84
f 3/99/85 1/106/85 42/100/85
f 7/102/86 3/99/86 41/101/86
f 5/104/87 7/102/87 43/103/87
f 1/106/88 5/104/88 44/105/88
f 47/107/89 48/141/89 46/108/89
f 5/110/90 48/142/90 47/111/90
f 3/113/91 45/143/91 46/114/91
f 1/116/92 46/144/92 48/117/92
