# Blender v3.2.1 OBJ File: 'Modeling.blend'
# www.blender.org
o Slime_Cube.009
v -0.493448 0.081270 0.477019
v -0.470062 0.287555 0.455058
v -0.493274 0.089388 -0.506287
v -0.469361 0.295860 -0.481036
v 0.493235 0.081292 0.476999
v 0.469148 0.287497 0.455680
v 0.493412 0.089372 -0.506031
v 0.469868 0.295805 -0.480284
v -0.540414 0.287340 0.525218
v -0.539748 0.295971 -0.551150
v 0.540248 0.296025 -0.550434
v 0.539581 0.287388 0.525775
v -0.381837 0.428640 0.370973
v -0.380252 0.453084 -0.389154
v 0.380961 0.451952 -0.387749
v 0.379504 0.427504 0.372290
v -0.470119 0.431578 0.457602
v -0.468792 0.450144 -0.478761
v 0.469564 0.449176 -0.477589
v 0.468277 0.430596 0.458787
v -0.282835 0.529538 0.286861
v -0.280414 0.576169 -0.273543
v 0.281552 0.573819 -0.271434
v 0.279191 0.527186 0.288903
v -0.382051 0.529597 0.381123
v -0.379775 0.576136 -0.378403
v 0.381155 0.574195 -0.376363
v 0.378943 0.527651 0.383021
v -0.193539 0.619657 0.215442
v -0.190372 0.662928 -0.168608
v 0.192733 0.658907 -0.166188
v 0.189487 0.615609 0.218362
v -0.282735 0.614471 0.298189
v -0.279230 0.668229 -0.262647
v 0.281849 0.664522 -0.259781
v 0.278293 0.610742 0.301404
v -0.191451 0.673607 0.226282
v -0.188093 0.721070 -0.159438
v 0.193139 0.715033 -0.157016
v 0.189321 0.667525 0.229359
v -0.539888 0.091343 -0.553362
v -0.540157 0.079350 0.522802
v 0.540106 0.091335 -0.553023
v 0.539834 0.079378 0.522885
v -0.493312 0.005833 -0.504366
v -0.493384 0.006787 0.479337
v 0.493372 0.005785 -0.504183
v 0.493297 0.006814 0.479146
vt 0.661625 0.483720
vt 0.316519 0.454769
vt 0.661625 0.454769
vt 0.661227 0.484999
vt 0.323755 0.456688
vt 0.661227 0.456688
vt 0.897196 0.472493
vt 0.590571 0.446770
vt 0.897196 0.446770
vt 0.659105 0.482249
vt 0.298417 0.451990
vt 0.659105 0.451990
vt 0.338333 0.456688
vt 0.646648 0.445860
vt 0.646648 0.456688
vt 0.635603 0.482249
vt 0.321920 0.504062
vt 0.321920 0.482249
vt 0.034197 0.536342
vt 0.019814 0.446066
vt 0.034197 0.452358
vt 0.226160 0.536342
vt 0.019814 0.542634
vt 0.226160 0.452358
vt 0.240543 0.542634
vt 0.240543 0.446066
vt 0.871651 0.508301
vt 0.614542 0.524885
vt 0.614542 0.508301
vt 0.639237 0.484999
vt 0.345744 0.505407
vt 0.345744 0.484999
vt 0.946364 0.475620
vt 0.556364 0.508278
vt 0.556364 0.476123
vt 0.639137 0.483720
vt 0.339006 0.504590
vt 0.339006 0.483720
vt 0.052267 0.528436
vt 0.034197 0.452358
vt 0.052267 0.460264
vt 0.208090 0.528436
vt 0.034197 0.536342
vt 0.208090 0.460264
vt 0.226160 0.536342
vt 0.226160 0.452358
vt 0.838040 0.524885
vt 0.648153 0.537948
vt 0.648153 0.524885
vt 0.610885 0.504590
vt 0.367259 0.520305
vt 0.367259 0.504590
vt 0.606075 0.504062
vt 0.351447 0.520485
vt 0.351447 0.504062
vt 0.611609 0.505407
vt 0.373372 0.520774
vt 0.373372 0.505407
vt 0.072637 0.519524
vt 0.052267 0.460264
vt 0.072637 0.469176
vt 0.187720 0.519524
vt 0.052267 0.528436
vt 0.187720 0.469176
vt 0.208090 0.528436
vt 0.208090 0.460264
vt 0.543094 0.533422
vt 0.414429 0.541552
vt 0.414429 0.533422
vt 0.579037 0.520305
vt 0.399107 0.532683
vt 0.399107 0.520305
vt 0.572789 0.520485
vt 0.384734 0.533422
vt 0.384734 0.520485
vt 0.580466 0.520774
vt 0.404516 0.532878
vt 0.404516 0.520774
vt 0.090809 0.511574
vt 0.072637 0.469176
vt 0.090809 0.477126
vt 0.169548 0.511574
vt 0.072637 0.519524
vt 0.169548 0.477126
vt 0.187720 0.519524
vt 0.187720 0.469176
vt 0.090809 0.511574
vt 0.169548 0.477126
vt 0.169548 0.511574
vt 0.552682 0.532878
vt 0.432299 0.540484
vt 0.432299 0.532878
vt 0.808056 0.537948
vt 0.678137 0.546157
vt 0.678137 0.537948
vt 0.550625 0.532683
vt 0.427519 0.540461
vt 0.427519 0.532683
vt 0.406997 0.449262
vt 0.406476 0.454315
vt 0.406476 0.449034
vt 0.418026 0.449262
vt 0.418547 0.449034
vt 0.418026 0.454087
vt 0.418547 0.454315
vt 0.406997 0.454087
vt 0.418026 0.449262
vt 0.406997 0.454087
vt 0.406997 0.449262
vt 0.576727 0.455722
vt 0.909465 0.444037
vt 0.909465 0.455722
vt 0.331427 0.454769
vt 0.646717 0.443696
vt 0.646717 0.454769
vt 0.313998 0.451990
vt 0.643524 0.440417
vt 0.643524 0.451990
vt 0.316519 0.483720
vt 0.323755 0.484999
vt 0.590571 0.472493
vt 0.298417 0.482249
vt 0.338333 0.445860
vt 0.635603 0.504062
vt 0.871651 0.524885
vt 0.639237 0.505407
vt 0.946364 0.507775
vt 0.639137 0.504590
vt 0.838040 0.537948
vt 0.610885 0.520305
vt 0.606075 0.520485
vt 0.611609 0.520774
vt 0.543094 0.541552
vt 0.579037 0.532683
vt 0.572789 0.533422
vt 0.580466 0.532878
vt 0.090809 0.477126
vt 0.552682 0.540484
vt 0.808056 0.546157
vt 0.550625 0.540461
vt 0.418026 0.454087
vt 0.576727 0.444037
vt 0.331427 0.443696
vt 0.313998 0.440417
vn -1.0000 -0.0012 -0.0003
vn 0.0003 0.0108 -0.9999
vn 1.0000 -0.0007 0.0002
vn -0.0001 -0.0139 0.9999
vn 0.0003 -0.0230 -0.9997
vn -0.0007 -0.0177 0.9998
vn 0.0058 0.9999 0.0089
vn 0.0001 1.0000 0.0015
vn 0.0057 0.9999 0.0089
vn 1.0000 0.0054 0.0021
vn 0.0008 0.0176 -0.9998
vn 1.0000 0.0061 0.0008
vn -1.0000 0.0037 -0.0007
vn 0.0648 0.9974 0.0322
vn 0.0016 0.9994 -0.0343
vn 0.0639 0.9974 0.0322
vn 0.0016 0.9993 -0.0373
vn 0.9999 0.0100 0.0050
vn -1.0000 0.0040 -0.0020
vn -0.0019 -0.1000 0.9950
vn 0.0020 0.0927 -0.9957
vn 0.0794 0.9934 0.0830
vn 0.0042 1.0000 -0.0043
vn 0.0837 0.9930 0.0830
vn 0.0042 0.9999 -0.0094
vn -0.0096 -0.1966 0.9804
vn -0.9999 0.0132 -0.0032
vn -0.0042 -0.1322 0.9912
vn 0.0043 0.1274 -0.9918
vn 0.0464 0.9926 0.1122
vn 0.0102 0.9989 0.0467
vn 0.0553 0.9921 0.1122
vn 0.0102 0.9988 0.0476
vn 0.0149 0.9924 0.1222
vn 0.0079 0.1612 -0.9869
vn 1.0000 0.0014 0.0086
vn -0.9992 0.0398 -0.0038
vn -0.0307 -0.9995 -0.0111
vn 0.0000 -0.9991 -0.0417
vn -0.0301 -0.9995 -0.0111
vn 0.0000 -0.9991 -0.0419
vn -0.0000 -1.0000 0.0010
vn 1.0000 -0.0005 0.0002
vn -1.0000 -0.0009 -0.0002
vn 0.0000 0.0288 0.9996
vn -1.0000 0.0007 -0.0006
vn 0.0007 0.0126 -0.9999
vn 1.0000 0.0012 0.0006
vn -0.0005 -0.0116 0.9999
vn 0.0002 -0.0221 -0.9998
vn -0.0013 -0.0217 0.9998
vn -0.0064 0.9999 0.0080
vn -0.0001 1.0000 0.0031
vn -0.0000 1.0000 0.0030
vn 1.0000 -0.0018 0.0028
vn 0.0013 0.0147 -0.9999
vn 1.0000 0.0020 0.0014
vn -1.0000 -0.0004 -0.0014
vn -0.0531 0.9984 0.0197
vn 0.0011 0.9996 -0.0298
vn -0.0540 0.9983 0.0197
vn 0.0011 0.9995 -0.0328
vn 1.0000 -0.0040 0.0059
vn -1.0000 -0.0018 -0.0031
vn -0.0028 -0.1066 0.9943
vn 0.0029 0.0870 -0.9962
vn -0.0645 0.9961 0.0608
vn 0.0025 1.0000 0.0060
vn -0.0621 0.9962 0.0609
vn 0.0026 1.0000 0.0021
vn -0.0112 -0.2072 0.9782
vn -1.0000 0.0020 -0.0061
vn -0.0067 -0.1480 0.9890
vn 0.0058 0.1175 -0.9931
vn -0.0413 0.9946 0.0951
vn 0.0063 0.9978 0.0658
vn -0.0344 0.9949 0.0951
vn 0.0062 0.9976 0.0692
vn 0.0087 0.1555 -0.9878
vn 0.9999 -0.0087 0.0088
vn -0.9992 0.0394 -0.0038
vn 0.0330 -0.9994 -0.0082
vn -0.0000 -0.9991 -0.0415
vn 0.0338 -0.9994 -0.0082
vn 1.0000 0.0008 0.0001
vn -1.0000 0.0005 -0.0001
vn 0.0002 0.0311 0.9995
s off
f 9/1/1 41/2/1 42/3/1
f 10/4/2 43/5/2 41/6/2
f 11/7/3 44/8/3 43/9/3
f 12/10/4 42/11/4 44/12/4
f 7/13/5 45/14/5 3/15/5
f 6/16/6 17/17/6 2/18/6
f 4/19/7 9/20/7 2/21/7
f 8/22/8 10/23/8 4/19/8
f 6/24/9 11/25/9 8/22/9
f 2/21/8 12/26/8 6/24/8
f 15/27/10 28/28/10 16/29/10
f 4/30/11 19/31/11 8/32/11
f 8/33/12 20/34/12 6/35/12
f 2/36/13 18/37/13 4/38/13
f 14/39/14 17/40/14 13/41/14
f 15/42/15 18/43/15 14/39/15
f 16/44/16 19/45/16 15/42/16
f 13/41/17 20/46/17 16/44/17
f 23/47/18 36/48/18 24/49/18
f 13/50/19 26/51/19 14/52/19
f 16/53/20 25/54/20 13/55/20
f 14/56/21 27/57/21 15/58/21
f 22/59/22 25/60/22 21/61/22
f 23/62/23 26/63/23 22/59/23
f 24/64/24 27/65/24 23/62/24
f 21/61/25 28/66/25 24/64/25
f 32/67/26 37/68/26 29/69/26
f 21/70/27 34/71/27 22/72/27
f 24/73/28 33/74/28 21/75/28
f 22/76/29 35/77/29 23/78/29
f 30/79/30 33/80/30 29/81/30
f 31/82/31 34/83/31 30/79/31
f 32/84/32 35/85/32 31/82/32
f 29/81/33 36/86/33 32/84/33
f 38/87/34 40/88/34 39/89/34
f 30/90/35 39/91/35 31/92/35
f 31/93/36 40/94/36 32/95/36
f 29/96/37 38/97/37 30/98/37
f 3/99/38 42/100/38 41/101/38
f 7/102/39 41/101/39 43/103/39
f 5/104/40 43/103/40 44/105/40
f 1/106/41 44/105/41 42/100/41
f 47/107/42 46/108/42 45/109/42
f 5/110/43 47/111/43 7/112/43
f 3/113/44 46/114/44 1/115/44
f 1/116/45 48/117/45 5/118/45
f 9/1/46 10/119/46 41/2/46
f 10/4/47 11/120/47 43/5/47
f 11/7/48 12/121/48 44/8/48
f 12/10/49 9/122/49 42/11/49
f 7/13/50 47/123/50 45/14/50
f 6/16/51 20/124/51 17/17/51
f 4/19/52 10/23/52 9/20/52
f 8/22/53 11/25/53 10/23/53
f 6/24/52 12/26/52 11/25/52
f 2/21/54 9/20/54 12/26/54
f 15/27/55 27/125/55 28/28/55
f 4/30/56 18/126/56 19/31/56
f 8/33/57 19/127/57 20/34/57
f 2/36/58 17/128/58 18/37/58
f 14/39/59 18/43/59 17/40/59
f 15/42/60 19/45/60 18/43/60
f 16/44/61 20/46/61 19/45/61
f 13/41/62 17/40/62 20/46/62
f 23/47/63 35/129/63 36/48/63
f 13/50/64 25/130/64 26/51/64
f 16/53/65 28/131/65 25/54/65
f 14/56/66 26/132/66 27/57/66
f 22/59/67 26/63/67 25/60/67
f 23/62/68 27/65/68 26/63/68
f 24/64/69 28/66/69 27/65/69
f 21/61/70 25/60/70 28/66/70
f 32/67/71 40/133/71 37/68/71
f 21/70/72 33/134/72 34/71/72
f 24/73/73 36/135/73 33/74/73
f 22/76/74 34/136/74 35/77/74
f 30/79/75 34/83/75 33/80/75
f 31/82/76 35/85/76 34/83/76
f 32/84/77 36/86/77 35/85/77
f 29/81/78 33/80/78 36/86/78
f 38/87/34 37/137/34 40/88/34
f 30/90/79 38/138/79 39/91/79
f 31/93/80 39/139/80 40/94/80
f 29/96/81 37/140/81 38/97/81
f 3/99/82 1/106/82 42/100/82
f 7/102/83 3/99/83 41/101/83
f 5/104/84 7/102/84 43/103/84
f 1/106/39 5/104/39 44/105/39
f 47/107/42 48/141/42 46/108/42
f 5/110/85 48/142/85 47/111/85
f 3/113/86 45/143/86 46/114/86
f 1/116/87 46/144/87 48/117/87
