# Blender v3.2.1 OBJ File: 'Modeling.blend'
# www.blender.org
o PurpleSlime_Cube.010
v -0.493449 0.361968 0.491800
v -0.470065 0.556684 0.447870
v -0.493273 0.305402 -0.490785
v -0.469358 0.520426 -0.482784
v 0.493235 0.355915 0.490499
v 0.469145 0.553792 0.448811
v 0.493413 0.299273 -0.489234
v 0.469870 0.517446 -0.482536
v -0.540416 0.562368 0.518793
v -0.539745 0.515466 -0.551774
v 0.540251 0.511547 -0.551823
v 0.539579 0.558459 0.520136
v -0.381843 0.682132 0.348986
v -0.380247 0.691428 -0.398999
v 0.380967 0.688942 -0.398635
v 0.379498 0.679640 0.350353
v -0.470124 0.692231 0.439099
v -0.468787 0.682404 -0.486769
v 0.469568 0.678389 -0.486859
v 0.468272 0.688295 0.440341
v -0.282844 0.767363 0.246683
v -0.280406 0.823376 -0.292868
v 0.281560 0.820597 -0.292025
v 0.279182 0.764569 0.248097
v -0.382060 0.779097 0.345370
v -0.379768 0.813116 -0.394808
v 0.381163 0.810640 -0.394072
v 0.378935 0.776619 0.347175
v -0.193552 0.816759 0.192594
v -0.190361 0.934245 -0.162161
v 0.192745 0.929457 -0.161872
v 0.189475 0.811726 0.194213
v -0.282749 0.822444 0.265147
v -0.279217 0.934539 -0.265133
v 0.281862 0.929888 -0.264222
v 0.278279 0.817636 0.267139
v -0.191465 0.851867 0.219072
v -0.188079 0.996192 -0.129532
v 0.193153 0.989491 -0.130332
v 0.189309 0.844764 0.220354
v -0.539887 0.303007 -0.537551
v -0.540158 0.364975 0.537084
v 0.540107 0.296651 -0.535994
v 0.539834 0.358688 0.535967
v -0.493312 0.229274 -0.488001
v -0.493384 0.281595 0.497523
v 0.493372 0.221211 -0.484815
v 0.493297 0.273662 0.494345
vt 0.660914 0.600881
vt 0.305602 0.571073
vt 0.660914 0.571073
vt 0.649076 0.600209
vt 0.294476 0.570461
vt 0.649076 0.570461
vt 0.653515 0.599960
vt 0.288630 0.569349
vt 0.653515 0.569349
vt 0.649263 0.598581
vt 0.284351 0.567968
vt 0.649263 0.567968
vt 0.309794 0.570461
vt 0.633758 0.559083
vt 0.633758 0.570461
vt 0.892670 0.588599
vt 0.579634 0.623252
vt 0.579634 0.589268
vt 0.025624 0.652803
vt 0.010485 0.557782
vt 0.025624 0.564405
vt 0.227675 0.652803
vt 0.010485 0.659426
vt 0.227675 0.564405
vt 0.242814 0.659426
vt 0.242814 0.557782
vt 0.599867 0.622026
vt 0.342278 0.638641
vt 0.342278 0.622026
vt 0.625970 0.600209
vt 0.317582 0.621653
vt 0.317582 0.600209
vt 0.629738 0.599960
vt 0.312406 0.622026
vt 0.312406 0.599960
vt 0.637762 0.600881
vt 0.328755 0.622368
vt 0.328755 0.600881
vt 0.044643 0.644482
vt 0.025624 0.564405
vt 0.044643 0.572726
vt 0.208656 0.644482
vt 0.025624 0.652803
vt 0.208656 0.572726
vt 0.227675 0.652803
vt 0.227675 0.564405
vt 0.566193 0.638641
vt 0.375951 0.651729
vt 0.375951 0.638641
vt 0.608674 0.622368
vt 0.357843 0.638547
vt 0.357843 0.622368
vt 0.595611 0.620649
vt 0.338002 0.637265
vt 0.338002 0.620649
vt 0.596940 0.621653
vt 0.346612 0.637800
vt 0.346612 0.621653
vt 0.066084 0.635101
vt 0.044643 0.572726
vt 0.066084 0.582106
vt 0.187215 0.635101
vt 0.044643 0.644482
vt 0.187215 0.582106
vt 0.208656 0.644482
vt 0.208656 0.572726
vt 0.531893 0.650354
vt 0.401721 0.658578
vt 0.401721 0.650354
vt 0.575884 0.638547
vt 0.390633 0.651291
vt 0.390633 0.638547
vt 0.561935 0.637265
vt 0.371678 0.650354
vt 0.371678 0.637265
vt 0.564216 0.637800
vt 0.379336 0.650518
vt 0.379336 0.637800
vt 0.085211 0.626733
vt 0.066084 0.582106
vt 0.085211 0.590475
vt 0.168088 0.626733
vt 0.066084 0.635101
vt 0.168088 0.590475
vt 0.187215 0.635101
vt 0.187215 0.582106
vt 0.085211 0.626733
vt 0.168088 0.590475
vt 0.168088 0.626733
vt 0.535022 0.650518
vt 0.408530 0.658511
vt 0.408530 0.650518
vt 0.536153 0.651729
vt 0.405992 0.659953
vt 0.405992 0.651729
vt 0.546632 0.651291
vt 0.419885 0.659299
vt 0.419885 0.651291
vt 0.399251 0.559577
vt 0.398373 0.568088
vt 0.398373 0.559192
vt 0.417827 0.559577
vt 0.418705 0.559192
vt 0.417827 0.567703
vt 0.418705 0.568088
vt 0.399251 0.567703
vt 0.417827 0.559577
vt 0.399251 0.567703
vt 0.399251 0.559577
vt 0.304393 0.569349
vt 0.637752 0.557642
vt 0.637752 0.569349
vt 0.320951 0.571073
vt 0.645566 0.559673
vt 0.645566 0.571073
vt 0.300114 0.567968
vt 0.633499 0.556260
vt 0.633499 0.567968
vt 0.305602 0.600881
vt 0.294476 0.600209
vt 0.288630 0.599960
vt 0.284351 0.598581
vt 0.309794 0.559083
vt 0.892670 0.622584
vt 0.599867 0.638641
vt 0.625970 0.621653
vt 0.629738 0.622026
vt 0.637762 0.622368
vt 0.566193 0.651729
vt 0.608674 0.638547
vt 0.595611 0.637265
vt 0.596940 0.637800
vt 0.531893 0.658578
vt 0.575884 0.651291
vt 0.561935 0.650354
vt 0.564216 0.650518
vt 0.085211 0.590475
vt 0.535022 0.658511
vt 0.536153 0.659953
vt 0.546632 0.659299
vt 0.417827 0.567703
vt 0.304393 0.557642
vt 0.320951 0.559673
vt 0.300114 0.556260
vn -1.0000 -0.0013 -0.0002
vn 0.0010 -0.0668 -0.9978
vn 1.0000 -0.0006 0.0003
vn 0.0015 0.0790 0.9969
vn 0.0013 -0.0365 -0.9993
vn -0.0008 0.0646 0.9979
vn 0.0415 0.9984 -0.0389
vn 0.0032 0.9972 -0.0749
vn 0.0453 0.9982 -0.0389
vn 0.0031 0.9977 -0.0684
vn 1.0000 0.0059 0.0020
vn 0.0002 -0.0269 -0.9996
vn 1.0000 0.0065 0.0005
vn -1.0000 0.0035 -0.0009
vn 0.1263 0.9919 0.0126
vn 0.0033 0.9944 -0.1056
vn 0.1306 0.9914 0.0126
vn 0.0034 0.9951 -0.0991
vn 0.9999 0.0149 0.0059
vn -1.0000 0.0040 -0.0021
vn -0.0017 0.0373 0.9993
vn 0.0006 0.0375 -0.9993
vn 0.2161 0.9711 0.1018
vn 0.0051 0.9945 -0.1050
vn 0.2018 0.9741 0.1019
vn 0.0052 0.9920 -0.1259
vn -0.0113 -0.6017 0.7987
vn -0.9999 0.0115 -0.0033
vn -0.0040 -0.3178 0.9481
vn 0.0027 0.2465 -0.9691
vn 0.3033 0.9038 0.3020
vn 0.0125 0.9999 -0.0079
vn 0.3382 0.8926 0.2982
vn 0.0135 0.9952 -0.0971
vn 0.0170 0.9242 0.3816
vn 0.0065 0.4650 -0.8853
vn 1.0000 -0.0018 0.0086
vn -0.9994 0.0354 0.0027
vn -0.0065 -0.9983 0.0576
vn -0.0059 -0.9987 0.0501
vn 0.0030 -0.9983 0.0578
vn -0.0057 -0.9982 0.0604
vn -0.0083 -0.9986 0.0530
vn 1.0000 -0.0005 0.0002
vn -1.0000 -0.0008 -0.0001
vn 0.0016 0.0467 0.9989
vn -1.0000 0.0006 -0.0007
vn -0.0003 -0.0735 -0.9973
vn 1.0000 0.0013 0.0006
vn -0.0009 0.0923 0.9957
vn 0.0028 -0.0565 -0.9984
vn -0.0011 0.0628 0.9980
vn -0.0275 0.9987 -0.0438
vn 0.0036 0.9967 -0.0812
vn -0.0219 0.9988 -0.0437
vn 0.0037 0.9971 -0.0762
vn 1.0000 -0.0017 0.0029
vn -0.0002 -0.0246 -0.9997
vn 1.0000 0.0019 0.0014
vn -1.0000 -0.0005 -0.0014
vn -0.0909 0.9958 -0.0107
vn 0.0042 0.9934 -0.1146
vn -0.0862 0.9962 -0.0108
vn 0.0043 0.9942 -0.1072
vn 1.0000 -0.0042 0.0058
vn -1.0000 -0.0024 -0.0032
vn -0.0023 0.0327 0.9995
vn 0.0011 0.0344 -0.9994
vn -0.1481 0.9879 0.0449
vn 0.0033 0.9956 -0.0939
vn -0.1635 0.9855 0.0447
vn 0.0035 0.9934 -0.1146
vn -0.0142 -0.6205 0.7841
vn -1.0000 0.0037 -0.0059
vn -0.0062 -0.3378 0.9412
vn 0.0036 0.2420 -0.9703
vn -0.2285 0.9528 0.1999
vn 0.0083 0.9999 0.0114
vn -0.2275 0.9531 0.1998
vn 0.0088 0.9977 -0.0674
vn 0.0159 0.9238 0.3826
vn 0.0063 0.4658 -0.8848
vn 0.9999 -0.0103 0.0067
vn -0.9986 0.0508 0.0113
vn -0.0086 -0.9983 0.0575
vn -0.0063 -0.9983 0.0574
vn 0.0017 -0.9983 0.0577
vn -0.0060 -0.9977 0.0670
vn -0.0079 -0.9985 0.0535
vn 1.0000 0.0008 0.0000
vn -1.0000 0.0005 -0.0001
vn 0.0038 0.0710 0.9975
s off
f 9/1/1 41/2/1 42/3/1
f 10/4/2 43/5/2 41/6/2
f 11/7/3 44/8/3 43/9/3
f 12/10/4 42/11/4 44/12/4
f 7/13/5 45/14/5 3/15/5
f 6/16/6 17/17/6 2/18/6
f 4/19/7 9/20/7 2/21/7
f 8/22/8 10/23/8 4/19/8
f 6/24/9 11/25/9 8/22/9
f 2/21/10 12/26/10 6/24/10
f 15/27/11 28/28/11 16/29/11
f 4/30/12 19/31/12 8/32/12
f 8/33/13 20/34/13 6/35/13
f 2/36/14 18/37/14 4/38/14
f 14/39/15 17/40/15 13/41/15
f 15/42/16 18/43/16 14/39/16
f 16/44/17 19/45/17 15/42/17
f 13/41/18 20/46/18 16/44/18
f 23/47/19 36/48/19 24/49/19
f 13/50/20 26/51/20 14/52/20
f 16/53/21 25/54/21 13/55/21
f 14/56/22 27/57/22 15/58/22
f 22/59/23 25/60/23 21/61/23
f 23/62/24 26/63/24 22/59/24
f 24/64/25 27/65/25 23/62/25
f 21/61/26 28/66/26 24/64/26
f 32/67/27 37/68/27 29/69/27
f 21/70/28 34/71/28 22/72/28
f 24/73/29 33/74/29 21/75/29
f 22/76/30 35/77/30 23/78/30
f 30/79/31 33/80/31 29/81/31
f 31/82/32 34/83/32 30/79/32
f 32/84/33 35/85/33 31/82/33
f 29/81/34 36/86/34 32/84/34
f 38/87/35 40/88/35 39/89/35
f 30/90/36 39/91/36 31/92/36
f 31/93/37 40/94/37 32/95/37
f 29/96/38 38/97/38 30/98/38
f 3/99/39 42/100/39 41/101/39
f 7/102/40 41/101/40 43/103/40
f 5/104/41 43/103/41 44/105/41
f 1/106/42 44/105/42 42/100/42
f 47/107/43 46/108/43 45/109/43
f 5/110/44 47/111/44 7/112/44
f 3/113/45 46/114/45 1/115/45
f 1/116/46 48/117/46 5/118/46
f 9/1/47 10/119/47 41/2/47
f 10/4/48 11/120/48 43/5/48
f 11/7/49 12/121/49 44/8/49
f 12/10/50 9/122/50 42/11/50
f 7/13/51 47/123/51 45/14/51
f 6/16/52 20/124/52 17/17/52
f 4/19/53 10/23/53 9/20/53
f 8/22/54 11/25/54 10/23/54
f 6/24/55 12/26/55 11/25/55
f 2/21/56 9/20/56 12/26/56
f 15/27/57 27/125/57 28/28/57
f 4/30/58 18/126/58 19/31/58
f 8/33/59 19/127/59 20/34/59
f 2/36/60 17/128/60 18/37/60
f 14/39/61 18/43/61 17/40/61
f 15/42/62 19/45/62 18/43/62
f 16/44/63 20/46/63 19/45/63
f 13/41/64 17/40/64 20/46/64
f 23/47/65 35/129/65 36/48/65
f 13/50/66 25/130/66 26/51/66
f 16/53/67 28/131/67 25/54/67
f 14/56/68 26/132/68 27/57/68
f 22/59/69 26/63/69 25/60/69
f 23/62/70 27/65/70 26/63/70
f 24/64/71 28/66/71 27/65/71
f 21/61/72 25/60/72 28/66/72
f 32/67/73 40/133/73 37/68/73
f 21/70/74 33/134/74 34/71/74
f 24/73/75 36/135/75 33/74/75
f 22/76/76 34/136/76 35/77/76
f 30/79/77 34/83/77 33/80/77
f 31/82/78 35/85/78 34/83/78
f 32/84/79 36/86/79 35/85/79
f 29/81/80 33/80/80 36/86/80
f 38/87/81 37/137/81 40/88/81
f 30/90/82 38/138/82 39/91/82
f 31/93/83 39/139/83 40/94/83
f 29/96/84 37/140/84 38/97/84
f 3/99/85 1/106/85 42/100/85
f 7/102/86 3/99/86 41/101/86
f 5/104/87 7/102/87 43/103/87
f 1/106/88 5/104/88 44/105/88
f 47/107/89 48/141/89 46/108/89
f 5/110/90 48/142/90 47/111/90
f 3/113/91 45/143/91 46/114/91
f 1/116/92 46/144/92 48/117/92
