# Blender v3.2.1 OBJ File: 'Modeling.blend'
# www.blender.org
o GreenSLime_Cube
v -0.493449 0.527063 0.492506
v -0.470067 0.728314 0.430770
v -0.493273 0.341809 -0.466970
v -0.469356 0.547885 -0.483366
v 0.493234 0.533958 0.493528
v 0.469143 0.731672 0.430584
v 0.493413 0.348222 -0.469335
v 0.469872 0.551169 -0.482898
v -0.540418 0.740092 0.499564
v -0.539743 0.534748 -0.552474
v 0.540253 0.539302 -0.551776
v 0.539577 0.744519 0.499006
v -0.381846 0.874566 0.307129
v -0.380243 0.690518 -0.422405
v 0.380970 0.694148 -0.424037
v 0.379494 0.880083 0.307179
v -0.470127 0.883264 0.398084
v -0.468784 0.681216 -0.509061
v 0.469572 0.686142 -0.510048
v 0.468268 0.889327 0.397096
v -0.282851 0.982944 0.157226
v -0.280400 0.790771 -0.363820
v 0.281567 0.793359 -0.363117
v 0.279175 0.986231 0.158423
v -0.382065 1.000298 0.263765
v -0.379761 0.775265 -0.454282
v 0.381169 0.779407 -0.454419
v 0.378928 1.005102 0.263644
v -0.193561 1.047303 0.020938
v -0.190353 0.876474 -0.323146
v 0.192752 0.883252 -0.321491
v 0.189465 1.052165 0.019063
v -0.282759 1.073309 0.116046
v -0.279208 0.856614 -0.398099
v 0.281870 0.863079 -0.396438
v 0.278269 1.078509 0.115101
v -0.191475 1.102134 -0.012847
v -0.188070 0.907852 -0.353559
v 0.193161 0.922777 -0.350529
v 0.189297 1.108571 -0.022366
v -0.539886 0.330738 -0.510952
v -0.540158 0.538370 0.538327
v 0.540108 0.337452 -0.513169
v 0.539833 0.545539 0.539310
v -0.493312 0.269467 -0.456499
v -0.493385 0.441052 0.504314
v 0.493372 0.277649 -0.461145
v 0.493296 0.450225 0.506912
vt 0.575926 0.712596
vt 0.217006 0.682485
vt 0.575926 0.682485
vt 0.585252 0.713073
vt 0.217603 0.682230
vt 0.585252 0.682230
vt 0.904546 0.697994
vt 0.550798 0.668317
vt 0.904546 0.668317
vt 0.545584 0.713178
vt 0.182270 0.682699
vt 0.545584 0.682699
vt 0.233484 0.682230
vt 0.569370 0.670434
vt 0.569370 0.682230
vt 0.521910 0.713178
vt 0.205944 0.735149
vt 0.205944 0.713178
vt 0.031760 0.876302
vt 0.017305 0.785572
vt 0.031760 0.791896
vt 0.224688 0.876302
vt 0.017305 0.882626
vt 0.224688 0.791896
vt 0.239144 0.882626
vt 0.239144 0.785572
vt 0.869627 0.735662
vt 0.605716 0.752685
vt 0.605716 0.735662
vt 0.561296 0.713073
vt 0.241559 0.735306
vt 0.241559 0.713073
vt 0.914470 0.704375
vt 0.573047 0.738163
vt 0.573047 0.707273
vt 0.552539 0.712596
vt 0.240393 0.734301
vt 0.240393 0.712596
vt 0.049921 0.868357
vt 0.031760 0.791896
vt 0.049921 0.799841
vt 0.206528 0.868357
vt 0.031760 0.876302
vt 0.206528 0.799841
vt 0.224688 0.876302
vt 0.224688 0.791896
vt 0.835127 0.752685
vt 0.640216 0.766094
vt 0.640216 0.752685
vt 0.523156 0.734301
vt 0.269776 0.750644
vt 0.269776 0.734301
vt 0.492167 0.735149
vt 0.235687 0.751693
vt 0.235687 0.735149
vt 0.531198 0.735306
vt 0.271657 0.752047
vt 0.271657 0.735306
vt 0.070393 0.859400
vt 0.049921 0.799841
vt 0.070393 0.808798
vt 0.186055 0.859400
vt 0.049921 0.868357
vt 0.186055 0.808798
vt 0.206528 0.868357
vt 0.206528 0.799841
vt 0.428728 0.764724
vt 0.299126 0.772912
vt 0.299126 0.764724
vt 0.490032 0.750644
vt 0.302900 0.763518
vt 0.302900 0.750644
vt 0.458639 0.751693
vt 0.269215 0.764724
vt 0.269215 0.751693
vt 0.497269 0.752047
vt 0.305585 0.765234
vt 0.305585 0.752047
vt 0.088657 0.851410
vt 0.070393 0.808798
vt 0.088657 0.816789
vt 0.167791 0.851410
vt 0.070393 0.859400
vt 0.167791 0.816789
vt 0.186055 0.859400
vt 0.186055 0.808798
vt 0.088657 0.851410
vt 0.167791 0.816789
vt 0.167791 0.851410
vt 0.467001 0.765234
vt 0.335853 0.773520
vt 0.335853 0.765234
vt 0.804349 0.766094
vt 0.670993 0.774519
vt 0.670993 0.766094
vt 0.460483 0.763518
vt 0.332449 0.771608
vt 0.332449 0.763518
vt 0.143393 0.671153
vt 0.142016 0.684499
vt 0.142016 0.670551
vt 0.172519 0.671153
vt 0.173897 0.670551
vt 0.172519 0.683896
vt 0.173897 0.684499
vt 0.143393 0.683896
vt 0.172519 0.671153
vt 0.143393 0.683896
vt 0.143393 0.671153
vt 0.566901 0.681693
vt 0.908442 0.669698
vt 0.908442 0.681693
vt 0.232510 0.682485
vt 0.560421 0.670969
vt 0.560421 0.682485
vt 0.197965 0.682699
vt 0.529889 0.671042
vt 0.529889 0.682699
vt 0.217006 0.712596
vt 0.217603 0.713073
vt 0.550798 0.697994
vt 0.182270 0.713178
vt 0.233484 0.670434
vt 0.521910 0.735149
vt 0.869627 0.752685
vt 0.561296 0.735306
vt 0.914470 0.735265
vt 0.552539 0.734301
vt 0.835127 0.766094
vt 0.523156 0.750644
vt 0.492167 0.751693
vt 0.531198 0.752047
vt 0.428728 0.772912
vt 0.490032 0.763518
vt 0.458639 0.764724
vt 0.497269 0.765234
vt 0.088657 0.816789
vt 0.467001 0.773520
vt 0.804349 0.774519
vt 0.460483 0.771608
vt 0.172519 0.683896
vt 0.566901 0.669698
vt 0.232510 0.670969
vt 0.197965 0.671042
vn -1.0000 -0.0013 -0.0000
vn -0.0008 -0.1994 -0.9799
vn 1.0000 -0.0006 0.0004
vn -0.0022 0.1985 0.9801
vn -0.0014 -0.1432 -0.9897
vn -0.0005 0.2064 0.9785
vn -0.0251 0.9808 -0.1936
vn -0.0033 0.9830 -0.1835
vn -0.0243 0.9807 -0.1938
vn -0.0036 0.9835 -0.1810
vn 1.0000 0.0048 0.0008
vn 0.0012 -0.1972 -0.9804
vn 1.0000 0.0055 -0.0003
vn -1.0000 0.0040 -0.0016
vn -0.1549 0.9578 -0.2420
vn -0.0050 0.9948 -0.1017
vn -0.1502 0.9581 -0.2439
vn -0.0072 0.9954 -0.0952
vn 0.9999 0.0102 0.0008
vn -1.0000 0.0044 -0.0033
vn -0.0024 0.3260 0.9454
vn -0.0004 -0.3357 -0.9420
vn -0.2041 0.9182 -0.3396
vn -0.0043 0.9864 -0.1643
vn -0.1841 0.9216 -0.3417
vn -0.0054 0.9852 -0.1716
vn -0.0025 0.5246 0.8513
vn -0.9999 0.0131 -0.0095
vn -0.0044 0.4147 0.9100
vn 0.0031 -0.4312 -0.9022
vn -0.2102 0.8749 -0.4363
vn -0.0162 0.9711 -0.2381
vn -0.1697 0.8822 -0.4392
vn -0.0135 0.9674 -0.2529
vn -0.0301 0.8697 -0.4927
vn 0.0140 -0.5921 -0.8057
vn 1.0000 0.0074 0.0060
vn -0.9986 0.0429 -0.0306
vn 0.0498 -0.9798 0.1939
vn 0.0065 -0.9695 0.2452
vn 0.0531 -0.9796 0.1937
vn 0.0062 -0.9694 0.2455
vn 0.0090 -0.9844 0.1758
vn 1.0000 -0.0005 0.0003
vn -1.0000 -0.0008 -0.0000
vn -0.0021 0.1578 0.9875
vn -1.0000 0.0006 -0.0007
vn 0.0014 -0.1879 -0.9822
vn 1.0000 0.0014 0.0004
vn -0.0003 0.1887 0.9820
vn -0.0037 -0.1153 -0.9933
vn -0.0003 0.2078 0.9782
vn 0.0049 0.9815 -0.1916
vn -0.0040 0.9848 -0.1738
vn 0.0072 0.9814 -0.1917
vn -0.0041 0.9849 -0.1728
vn 1.0000 -0.0011 0.0035
vn -0.0000 -0.1892 -0.9819
vn 1.0000 0.0024 0.0009
vn -1.0000 -0.0007 -0.0013
vn 0.1094 0.9703 -0.2159
vn -0.0053 0.9952 -0.0981
vn 0.1188 0.9690 -0.2169
vn -0.0065 0.9948 -0.1015
vn 1.0000 -0.0008 0.0074
vn -1.0000 -0.0026 -0.0024
vn -0.0019 0.3288 0.9444
vn 0.0017 -0.3521 -0.9360
vn 0.1221 0.9472 -0.2965
vn -0.0054 0.9876 -0.1568
vn 0.1342 0.9455 -0.2968
vn -0.0063 0.9860 -0.1664
vn 0.0101 0.5920 0.8059
vn -1.0000 -0.0018 -0.0062
vn -0.0024 0.4250 0.9052
vn 0.0079 -0.4619 -0.8869
vn 0.1201 0.9151 -0.3849
vn -0.0103 0.9624 -0.2713
vn 0.1438 0.9124 -0.3832
vn -0.0094 0.9623 -0.2719
vn -0.0271 0.8683 -0.4954
vn 0.0330 -0.6968 -0.7165
vn 0.9999 -0.0012 0.0124
vn -0.9994 0.0236 -0.0234
vn -0.0517 -0.9806 0.1893
vn 0.0069 -0.9714 0.2372
vn -0.0486 -0.9807 0.1892
vn 0.0065 -0.9710 0.2390
vn 0.0087 -0.9844 0.1755
vn 1.0000 0.0007 -0.0001
vn -1.0000 0.0005 -0.0002
vn -0.0039 0.1360 0.9907
s off
f 9/1/1 41/2/1 42/3/1
f 10/4/2 43/5/2 41/6/2
f 11/7/3 44/8/3 43/9/3
f 12/10/4 42/11/4 44/12/4
f 7/13/5 45/14/5 3/15/5
f 6/16/6 17/17/6 2/18/6
f 4/19/7 9/20/7 2/21/7
f 8/22/8 10/23/8 4/19/8
f 6/24/9 11/25/9 8/22/9
f 2/21/10 12/26/10 6/24/10
f 15/27/11 28/28/11 16/29/11
f 4/30/12 19/31/12 8/32/12
f 8/33/13 20/34/13 6/35/13
f 2/36/14 18/37/14 4/38/14
f 14/39/15 17/40/15 13/41/15
f 15/42/16 18/43/16 14/39/16
f 16/44/17 19/45/17 15/42/17
f 13/41/18 20/46/18 16/44/18
f 23/47/19 36/48/19 24/49/19
f 13/50/20 26/51/20 14/52/20
f 16/53/21 25/54/21 13/55/21
f 14/56/22 27/57/22 15/58/22
f 22/59/23 25/60/23 21/61/23
f 23/62/24 26/63/24 22/59/24
f 24/64/25 27/65/25 23/62/25
f 21/61/26 28/66/26 24/64/26
f 32/67/27 37/68/27 29/69/27
f 21/70/28 34/71/28 22/72/28
f 24/73/29 33/74/29 21/75/29
f 22/76/30 35/77/30 23/78/30
f 30/79/31 33/80/31 29/81/31
f 31/82/32 34/83/32 30/79/32
f 32/84/33 35/85/33 31/82/33
f 29/81/34 36/86/34 32/84/34
f 38/87/35 40/88/35 39/89/35
f 30/90/36 39/91/36 31/92/36
f 31/93/37 40/94/37 32/95/37
f 29/96/38 38/97/38 30/98/38
f 3/99/39 42/100/39 41/101/39
f 7/102/40 41/101/40 43/103/40
f 5/104/41 43/103/41 44/105/41
f 1/106/42 44/105/42 42/100/42
f 47/107/43 46/108/43 45/109/43
f 5/110/44 47/111/44 7/112/44
f 3/113/45 46/114/45 1/115/45
f 1/116/46 48/117/46 5/118/46
f 9/1/47 10/119/47 41/2/47
f 10/4/48 11/120/48 43/5/48
f 11/7/49 12/121/49 44/8/49
f 12/10/50 9/122/50 42/11/50
f 7/13/51 47/123/51 45/14/51
f 6/16/52 20/124/52 17/17/52
f 4/19/53 10/23/53 9/20/53
f 8/22/54 11/25/54 10/23/54
f 6/24/55 12/26/55 11/25/55
f 2/21/56 9/20/56 12/26/56
f 15/27/57 27/125/57 28/28/57
f 4/30/58 18/126/58 19/31/58
f 8/33/59 19/127/59 20/34/59
f 2/36/60 17/128/60 18/37/60
f 14/39/61 18/43/61 17/40/61
f 15/42/62 19/45/62 18/43/62
f 16/44/63 20/46/63 19/45/63
f 13/41/64 17/40/64 20/46/64
f 23/47/65 35/129/65 36/48/65
f 13/50/66 25/130/66 26/51/66
f 16/53/67 28/131/67 25/54/67
f 14/56/68 26/132/68 27/57/68
f 22/59/69 26/63/69 25/60/69
f 23/62/70 27/65/70 26/63/70
f 24/64/71 28/66/71 27/65/71
f 21/61/72 25/60/72 28/66/72
f 32/67/73 40/133/73 37/68/73
f 21/70/74 33/134/74 34/71/74
f 24/73/75 36/135/75 33/74/75
f 22/76/76 34/136/76 35/77/76
f 30/79/77 34/83/77 33/80/77
f 31/82/78 35/85/78 34/83/78
f 32/84/79 36/86/79 35/85/79
f 29/81/80 33/80/80 36/86/80
f 38/87/81 37/137/81 40/88/81
f 30/90/82 38/138/82 39/91/82
f 31/93/83 39/139/83 40/94/83
f 29/96/84 37/140/84 38/97/84
f 3/99/85 1/106/85 42/100/85
f 7/102/86 3/99/86 41/101/86
f 5/104/87 7/102/87 43/103/87
f 1/106/88 5/104/88 44/105/88
f 47/107/89 48/141/89 46/108/89
f 5/110/90 48/142/90 47/111/90
f 3/113/91 45/143/91 46/114/91
f 1/116/92 46/144/92 48/117/92
