# Blender v3.2.1 OBJ File: 'Modeling.blend'
# www.blender.org
o SlimeNew_Cube
v -0.490635 0.046945 0.432839
v -0.465308 0.239340 0.412269
v -0.504944 0.181793 -0.504533
v -0.473807 0.380285 -0.437640
v 0.497287 0.011982 0.404261
v 0.474118 0.217233 0.390591
v 0.484026 0.145823 -0.521944
v 0.465379 0.357717 -0.462524
v -0.534892 0.234865 0.481943
v -0.545335 0.388345 -0.504009
v 0.535089 0.359882 -0.531561
v 0.545963 0.206436 0.458954
v -0.373490 0.331727 0.336806
v -0.377644 0.553913 -0.274800
v 0.382208 0.534419 -0.308535
v 0.386479 0.312445 0.307235
v -0.461680 0.342445 0.421749
v -0.467968 0.549211 -0.376507
v 0.469237 0.524888 -0.412881
v 0.475924 0.318310 0.392319
v -0.268339 0.353303 0.286134
v -0.264751 0.659206 -0.044719
v 0.294689 0.640475 -0.085140
v 0.291198 0.334721 0.247689
v -0.367834 0.361954 0.365302
v -0.368668 0.681802 -0.172237
v 0.389936 0.659864 -0.215391
v 0.391025 0.340342 0.325802
v -0.169451 0.330242 0.291500
v -0.155663 0.648823 0.200911
v 0.223610 0.631691 0.154461
v 0.210490 0.310518 0.249140
v -0.261618 0.335591 0.327037
v -0.249919 0.718093 0.092099
v 0.307232 0.696030 0.039199
v 0.296062 0.311841 0.277871
v -0.160134 0.303679 0.343507
v -0.141874 0.651365 0.295550
v 0.233886 0.634435 0.241314
v 0.217203 0.282032 0.292741
v -0.552284 0.196212 -0.545774
v -0.537065 0.039322 0.472226
v 0.529939 0.157875 -0.566382
v 0.544169 0.001890 0.441075
v -0.506527 0.092789 -0.517209
v -0.491684 -0.017710 0.438542
v 0.483933 0.050343 -0.526327
v 0.496498 -0.058350 0.405166
vt 0.448337 0.295300
vt 0.074340 0.213996
vt 0.448337 0.213996
vt 0.441282 0.293935
vt 0.076565 0.214649
vt 0.441282 0.214649
vt 0.463627 0.293063
vt 0.086638 0.211109
vt 0.463627 0.211109
vt 0.958525 0.294402
vt 0.582872 0.212738
vt 0.958525 0.212738
vt 0.054417 0.265994
vt 0.532659 0.227921
vt 0.532659 0.265994
vt 0.959813 0.304873
vt 0.581585 0.364873
vt 0.581585 0.304873
vt 0.026286 0.713763
vt 0.010172 0.484494
vt 0.026286 0.500474
vt 0.241351 0.713763
vt 0.010172 0.729743
vt 0.241351 0.500474
vt 0.257465 0.729743
vt 0.257465 0.484494
vt 0.408200 0.352237
vt 0.142066 0.396434
vt 0.142066 0.352237
vt 0.417517 0.293935
vt 0.100330 0.351183
vt 0.100330 0.293935
vt 0.439062 0.293063
vt 0.111203 0.352237
vt 0.111203 0.293063
vt 0.423967 0.295300
vt 0.098709 0.354004
vt 0.098709 0.295300
vt 0.046530 0.693685
vt 0.026286 0.500474
vt 0.046530 0.520552
vt 0.221106 0.693685
vt 0.026286 0.713763
vt 0.221106 0.520552
vt 0.241351 0.713763
vt 0.241351 0.500474
vt 0.373409 0.396434
vt 0.176856 0.436748
vt 0.176856 0.396434
vt 0.393349 0.354004
vt 0.129327 0.397850
vt 0.129327 0.354004
vt 0.924209 0.364873
vt 0.617189 0.415860
vt 0.617189 0.364873
vt 0.387659 0.351183
vt 0.130188 0.393941
vt 0.130188 0.351183
vt 0.069352 0.671052
vt 0.046530 0.520552
vt 0.069352 0.543185
vt 0.198285 0.671052
vt 0.046530 0.693685
vt 0.198285 0.543185
vt 0.221106 0.693685
vt 0.221106 0.520552
vt 0.837700 0.437577
vt 0.703697 0.462819
vt 0.703697 0.437577
vt 0.358835 0.397850
vt 0.163841 0.437844
vt 0.163841 0.397850
vt 0.868627 0.397406
vt 0.672770 0.437577
vt 0.672770 0.397406
vt 0.354001 0.393941
vt 0.163846 0.432943
vt 0.163846 0.393941
vt 0.089711 0.650861
vt 0.069352 0.543185
vt 0.089711 0.563376
vt 0.177926 0.650861
vt 0.069352 0.671052
vt 0.177926 0.563376
vt 0.198285 0.671052
vt 0.198285 0.543185
vt 0.089711 0.650861
vt 0.177926 0.563376
vt 0.177926 0.650861
vt 0.323974 0.432943
vt 0.193872 0.457450
vt 0.193872 0.432943
vt 0.342372 0.436748
vt 0.207893 0.462080
vt 0.207893 0.436748
vt 0.328044 0.437844
vt 0.194632 0.462975
vt 0.194632 0.437844
vt 0.042385 0.513340
vt 0.009507 0.730462
vt 0.009507 0.480462
vt 0.226630 0.513340
vt 0.259507 0.480462
vt 0.226630 0.697585
vt 0.259507 0.730462
vt 0.042385 0.697585
vt 0.226630 0.513340
vt 0.042385 0.697585
vt 0.042385 0.513340
vt 0.086498 0.264693
vt 0.564740 0.226619
vt 0.564740 0.264693
vt 0.111093 0.256883
vt 0.589335 0.218810
vt 0.589335 0.256883
vt 0.023744 0.256883
vt 0.501985 0.218810
vt 0.501985 0.256883
vt 0.074340 0.295300
vt 0.076565 0.293935
vt 0.086638 0.293063
vt 0.582872 0.294402
vt 0.054417 0.227921
vt 0.959813 0.364873
vt 0.408200 0.396434
vt 0.417517 0.351183
vt 0.439062 0.352237
vt 0.423967 0.354004
vt 0.373409 0.436748
vt 0.393349 0.397850
vt 0.924209 0.415860
vt 0.387659 0.393941
vt 0.837700 0.462819
vt 0.358835 0.437844
vt 0.868627 0.437577
vt 0.354001 0.432943
vt 0.089711 0.563376
vt 0.323974 0.457450
vt 0.342372 0.462080
vt 0.328044 0.462975
vt 0.226630 0.697585
vt 0.086498 0.226619
vt 0.111093 0.218810
vt 0.023744 0.218810
vn -0.9998 0.0103 0.0165
vn -0.0111 0.2128 -0.9770
vn 0.9996 -0.0225 -0.0176
vn 0.0257 -0.0873 0.9959
vn -0.0123 0.1412 -0.9899
vn 0.0208 -0.0923 0.9955
vn 0.0989 0.9818 0.1618
vn 0.0264 0.9954 0.0925
vn 0.1279 0.9788 0.1599
vn 0.0263 0.9913 0.1289
vn 0.9906 -0.1265 -0.0525
vn -0.0185 0.2850 -0.9583
vn 0.9998 -0.0176 -0.0131
vn -0.9995 0.0292 0.0148
vn 0.4033 0.8610 0.3100
vn 0.0227 0.9975 -0.0662
vn 0.4515 0.8404 0.2998
vn 0.0217 0.9956 -0.0914
vn 0.5692 -0.6084 -0.5530
vn -0.9984 0.0501 0.0250
vn 0.0108 -0.6870 0.7266
vn -0.0203 0.5968 -0.8021
vn 0.5186 0.6250 0.5835
vn 0.0432 0.9892 0.1400
vn 0.6161 0.5768 0.5364
vn 0.0258 0.9942 -0.1046
vn -0.0953 -0.8933 -0.4392
vn -0.9937 0.0875 0.0701
vn -0.0573 -0.9195 -0.3888
vn 0.0011 0.9130 -0.4080
vn 0.3613 0.2405 0.9009
vn 0.0975 0.8757 0.4730
vn 0.7559 0.1565 0.6357
vn 0.0347 0.9882 -0.1489
vn 0.1475 0.1360 0.9797
vn 0.0407 0.9985 -0.0363
vn 0.9706 -0.1037 -0.2172
vn -0.9865 0.0829 0.1415
vn -0.1682 -0.9746 -0.1477
vn -0.0395 -0.9533 -0.2994
vn -0.0932 -0.9841 -0.1511
vn -0.0404 -0.9710 -0.2356
vn -0.0436 -0.9925 -0.1141
vn 0.9999 -0.0003 -0.0144
vn -0.9997 0.0178 0.0178
vn 0.0294 0.0125 0.9995
vn -0.9993 0.0327 0.0157
vn -0.0206 0.1703 -0.9852
vn 0.9999 -0.0077 -0.0122
vn 0.0199 -0.0498 0.9986
vn -0.0072 0.0459 -0.9989
vn 0.0309 -0.0176 0.9994
vn -0.0317 0.9876 0.1541
vn 0.0278 0.9978 0.0594
vn 0.0029 0.9882 0.1531
vn 0.0281 0.9954 0.0920
vn 0.9988 -0.0417 -0.0267
vn -0.0276 0.3410 -0.9397
vn 0.9997 -0.0191 -0.0132
vn -0.9993 0.0336 0.0166
vn -0.3181 0.9172 0.2401
vn 0.0231 0.9972 -0.0718
vn -0.2892 0.9267 0.2401
vn 0.0224 0.9945 -0.1022
vn 0.9951 -0.0715 -0.0685
vn -0.9904 0.1178 0.0716
vn 0.0273 -0.5569 0.8301
vn -0.0262 0.6265 -0.7790
vn -0.4037 0.7859 0.4683
vn 0.0384 0.9839 0.1745
vn -0.4079 0.7858 0.4648
vn 0.0243 0.9966 -0.0784
vn -0.1195 -0.8395 -0.5301
vn -0.9576 0.1715 0.2316
vn -0.0864 -0.8006 -0.5930
vn -0.0012 0.9186 -0.3952
vn -0.5020 0.4638 0.7300
vn 0.0838 0.8430 0.5314
vn -0.2804 0.5124 0.8117
vn 0.0379 0.9979 -0.0518
vn 0.1395 0.1281 0.9819
vn 0.0403 0.9987 -0.0327
vn 0.9913 -0.0637 -0.1153
vn -0.9731 0.0808 0.2156
vn 0.0411 -0.9889 -0.1429
vn -0.0399 -0.9566 -0.2887
vn 0.1189 -0.9825 -0.1437
vn -0.0408 -0.9756 -0.2155
vn -0.0447 -0.9923 -0.1152
vn 0.9998 -0.0114 -0.0148
vn -0.9997 0.0153 0.0173
vn 0.0372 0.0872 0.9955
s off
f 9/1/1 41/2/1 42/3/1
f 10/4/2 43/5/2 41/6/2
f 11/7/3 44/8/3 43/9/3
f 12/10/4 42/11/4 44/12/4
f 7/13/5 45/14/5 3/15/5
f 6/16/6 17/17/6 2/18/6
f 4/19/7 9/20/7 2/21/7
f 8/22/8 10/23/8 4/19/8
f 6/24/9 11/25/9 8/22/9
f 2/21/10 12/26/10 6/24/10
f 15/27/11 28/28/11 16/29/11
f 4/30/12 19/31/12 8/32/12
f 8/33/13 20/34/13 6/35/13
f 2/36/14 18/37/14 4/38/14
f 14/39/15 17/40/15 13/41/15
f 15/42/16 18/43/16 14/39/16
f 16/44/17 19/45/17 15/42/17
f 13/41/18 20/46/18 16/44/18
f 23/47/19 36/48/19 24/49/19
f 13/50/20 26/51/20 14/52/20
f 16/53/21 25/54/21 13/55/21
f 14/56/22 27/57/22 15/58/22
f 22/59/23 25/60/23 21/61/23
f 23/62/24 26/63/24 22/59/24
f 24/64/25 27/65/25 23/62/25
f 21/61/26 28/66/26 24/64/26
f 32/67/27 37/68/27 29/69/27
f 21/70/28 34/71/28 22/72/28
f 24/73/29 33/74/29 21/75/29
f 22/76/30 35/77/30 23/78/30
f 30/79/31 33/80/31 29/81/31
f 31/82/32 34/83/32 30/79/32
f 32/84/33 35/85/33 31/82/33
f 29/81/34 36/86/34 32/84/34
f 38/87/35 40/88/35 39/89/35
f 30/90/36 39/91/36 31/92/36
f 31/93/37 40/94/37 32/95/37
f 29/96/38 38/97/38 30/98/38
f 3/99/39 42/100/39 41/101/39
f 7/102/40 41/101/40 43/103/40
f 5/104/41 43/103/41 44/105/41
f 1/106/42 44/105/42 42/100/42
f 47/107/43 46/108/43 45/109/43
f 5/110/44 47/111/44 7/112/44
f 3/113/45 46/114/45 1/115/45
f 1/116/46 48/117/46 5/118/46
f 9/1/47 10/119/47 41/2/47
f 10/4/48 11/120/48 43/5/48
f 11/7/49 12/121/49 44/8/49
f 12/10/50 9/122/50 42/11/50
f 7/13/51 47/123/51 45/14/51
f 6/16/52 20/124/52 17/17/52
f 4/19/53 10/23/53 9/20/53
f 8/22/54 11/25/54 10/23/54
f 6/24/55 12/26/55 11/25/55
f 2/21/56 9/20/56 12/26/56
f 15/27/57 27/125/57 28/28/57
f 4/30/58 18/126/58 19/31/58
f 8/33/59 19/127/59 20/34/59
f 2/36/60 17/128/60 18/37/60
f 14/39/61 18/43/61 17/40/61
f 15/42/62 19/45/62 18/43/62
f 16/44/63 20/46/63 19/45/63
f 13/41/64 17/40/64 20/46/64
f 23/47/65 35/129/65 36/48/65
f 13/50/66 25/130/66 26/51/66
f 16/53/67 28/131/67 25/54/67
f 14/56/68 26/132/68 27/57/68
f 22/59/69 26/63/69 25/60/69
f 23/62/70 27/65/70 26/63/70
f 24/64/71 28/66/71 27/65/71
f 21/61/72 25/60/72 28/66/72
f 32/67/73 40/133/73 37/68/73
f 21/70/74 33/134/74 34/71/74
f 24/73/75 36/135/75 33/74/75
f 22/76/76 34/136/76 35/77/76
f 30/79/77 34/83/77 33/80/77
f 31/82/78 35/85/78 34/83/78
f 32/84/79 36/86/79 35/85/79
f 29/81/80 33/80/80 36/86/80
f 38/87/81 37/137/81 40/88/81
f 30/90/82 38/138/82 39/91/82
f 31/93/83 39/139/83 40/94/83
f 29/96/84 37/140/84 38/97/84
f 3/99/85 1/106/85 42/100/85
f 7/102/86 3/99/86 41/101/86
f 5/104/87 7/102/87 43/103/87
f 1/106/88 5/104/88 44/105/88
f 47/107/89 48/141/89 46/108/89
f 5/110/90 48/142/90 47/111/90
f 3/113/91 45/143/91 46/114/91
f 1/116/92 46/144/92 48/117/92
