# Blender v3.2.1 OBJ File: 'Modeling.blend'
# www.blender.org
o SlimeNew_Cube
v -0.493448 0.069682 0.494579
v -0.470062 0.279015 0.477273
v -0.493274 0.089637 -0.487775
v -0.469362 0.301810 -0.461905
v 0.493235 0.083151 0.497903
v 0.469149 0.284686 0.476949
v 0.493412 0.103159 -0.490522
v 0.469868 0.307458 -0.460075
v -0.540414 0.275683 0.547783
v -0.539748 0.302092 -0.532383
v 0.540248 0.310787 -0.530114
v 0.539581 0.284402 0.546992
v -0.381822 0.437417 0.389929
v -0.380291 0.444841 -0.373331
v 0.380949 0.447305 -0.371212
v 0.379548 0.439974 0.390686
v -0.470112 0.431628 0.480287
v -0.468820 0.448563 -0.460204
v 0.469558 0.453035 -0.457350
v 0.468308 0.436182 0.479944
v -0.282789 0.554294 0.289464
v -0.280487 0.555438 -0.274416
v 0.281506 0.555246 -0.271659
v 0.279264 0.554140 0.291336
v -0.382017 0.551511 0.390247
v -0.379843 0.556530 -0.373743
v 0.381121 0.557912 -0.370549
v 0.379011 0.552941 0.391332
v -0.193479 0.647101 0.197936
v -0.190507 0.639893 -0.189712
v 0.192654 0.639501 -0.185702
v 0.189600 0.646662 0.199992
v -0.282677 0.644796 0.288697
v -0.279351 0.641807 -0.276497
v 0.281779 0.641731 -0.272179
v 0.278400 0.644696 0.291125
v -0.191380 0.705471 0.196383
v -0.188320 0.692016 -0.194642
v 0.193020 0.692296 -0.188812
v 0.189491 0.705466 0.197016
v -0.539888 0.090732 -0.534735
v -0.540157 0.068057 0.541001
v 0.540106 0.104772 -0.537225
v 0.539834 0.082046 0.544267
v -0.493312 0.007765 -0.486730
v -0.493384 -0.010819 0.491726
v 0.493372 0.025540 -0.493340
v 0.493297 0.006839 0.498780
vt 0.448337 0.295300
vt 0.074340 0.213996
vt 0.448337 0.213996
vt 0.441282 0.293935
vt 0.076565 0.214649
vt 0.441282 0.214649
vt 0.463627 0.293063
vt 0.086638 0.211109
vt 0.463627 0.211109
vt 0.958525 0.294402
vt 0.582872 0.212738
vt 0.958525 0.212738
vt 0.054417 0.265994
vt 0.532659 0.227921
vt 0.532659 0.265994
vt 0.959813 0.304873
vt 0.581585 0.364873
vt 0.581585 0.304873
vt 0.026286 0.713763
vt 0.010172 0.484494
vt 0.026286 0.500474
vt 0.241351 0.713763
vt 0.010172 0.729743
vt 0.241351 0.500474
vt 0.257465 0.729743
vt 0.257465 0.484494
vt 0.408200 0.352237
vt 0.142066 0.396434
vt 0.142066 0.352237
vt 0.417517 0.293935
vt 0.100330 0.351183
vt 0.100330 0.293935
vt 0.439062 0.293063
vt 0.111203 0.352237
vt 0.111203 0.293063
vt 0.423967 0.295300
vt 0.098709 0.354004
vt 0.098709 0.295300
vt 0.046530 0.693685
vt 0.026286 0.500474
vt 0.046530 0.520552
vt 0.221106 0.693685
vt 0.026286 0.713763
vt 0.221106 0.520552
vt 0.241351 0.713763
vt 0.241351 0.500474
vt 0.373409 0.396434
vt 0.176856 0.436748
vt 0.176856 0.396434
vt 0.393349 0.354004
vt 0.129327 0.397850
vt 0.129327 0.354004
vt 0.924209 0.364873
vt 0.617189 0.415860
vt 0.617189 0.364873
vt 0.387659 0.351183
vt 0.130188 0.393941
vt 0.130188 0.351183
vt 0.069352 0.671052
vt 0.046530 0.520552
vt 0.069352 0.543185
vt 0.198285 0.671052
vt 0.046530 0.693685
vt 0.198285 0.543185
vt 0.221106 0.693685
vt 0.221106 0.520552
vt 0.837700 0.437577
vt 0.703697 0.462819
vt 0.703697 0.437577
vt 0.358835 0.397850
vt 0.163841 0.437844
vt 0.163841 0.397850
vt 0.868627 0.397406
vt 0.672770 0.437577
vt 0.672770 0.397406
vt 0.354001 0.393941
vt 0.163846 0.432943
vt 0.163846 0.393941
vt 0.089711 0.650861
vt 0.069352 0.543185
vt 0.089711 0.563376
vt 0.177926 0.650861
vt 0.069352 0.671052
vt 0.177926 0.563376
vt 0.198285 0.671052
vt 0.198285 0.543185
vt 0.089711 0.650861
vt 0.177926 0.563376
vt 0.177926 0.650861
vt 0.323974 0.432943
vt 0.193872 0.457450
vt 0.193872 0.432943
vt 0.342372 0.436748
vt 0.207893 0.462080
vt 0.207893 0.436748
vt 0.328044 0.437844
vt 0.194632 0.462975
vt 0.194632 0.437844
vt 0.042385 0.513340
vt 0.009507 0.730462
vt 0.009507 0.480462
vt 0.226630 0.513340
vt 0.259507 0.480462
vt 0.226630 0.697585
vt 0.259507 0.730462
vt 0.042385 0.697585
vt 0.226630 0.513340
vt 0.042385 0.697585
vt 0.042385 0.513340
vt 0.086498 0.264693
vt 0.564740 0.226619
vt 0.564740 0.264693
vt 0.111093 0.256883
vt 0.589335 0.218810
vt 0.589335 0.256883
vt 0.023744 0.256883
vt 0.501985 0.218810
vt 0.501985 0.256883
vt 0.074340 0.295300
vt 0.076565 0.293935
vt 0.086638 0.293063
vt 0.582872 0.294402
vt 0.054417 0.227921
vt 0.959813 0.364873
vt 0.408200 0.396434
vt 0.417517 0.351183
vt 0.439062 0.352237
vt 0.423967 0.354004
vt 0.373409 0.436748
vt 0.393349 0.397850
vt 0.924209 0.415860
vt 0.387659 0.393941
vt 0.837700 0.462819
vt 0.358835 0.437844
vt 0.868627 0.437577
vt 0.354001 0.432943
vt 0.089711 0.563376
vt 0.323974 0.457450
vt 0.342372 0.462080
vt 0.328044 0.462975
vt 0.226630 0.697585
vt 0.086498 0.226619
vt 0.111093 0.218810
vt 0.023744 0.218810
vn -1.0000 -0.0012 -0.0003
vn -0.0025 0.0111 -0.9999
vn 1.0000 -0.0007 0.0002
vn -0.0028 -0.0135 0.9999
vn -0.0026 -0.0128 -0.9999
vn 0.0005 -0.0197 0.9998
vn -0.0230 0.9994 0.0242
vn -0.0060 0.9999 0.0100
vn -0.0231 0.9994 0.0243
vn -0.0060 0.9999 0.0101
vn 1.0000 0.0047 0.0019
vn 0.0018 0.0187 -0.9998
vn 1.0000 0.0055 0.0009
vn -1.0000 0.0037 -0.0007
vn -0.0556 0.9984 0.0096
vn -0.0034 0.9989 0.0462
vn -0.0553 0.9984 0.0095
vn -0.0034 0.9989 0.0458
vn 0.9999 0.0095 0.0040
vn -1.0000 0.0040 -0.0020
vn -0.0010 -0.0028 1.0000
vn 0.0028 0.0060 -1.0000
vn -0.0261 0.9997 0.0019
vn 0.0003 0.9999 0.0107
vn -0.0249 0.9997 0.0019
vn 0.0002 0.9999 0.0118
vn -0.0053 0.0268 0.9996
vn -0.9999 0.0130 -0.0041
vn -0.0033 0.0085 1.0000
vn 0.0049 -0.0060 -1.0000
vn -0.0451 0.9988 -0.0189
vn 0.0008 0.9998 0.0212
vn -0.0433 0.9989 -0.0189
vn 0.0010 0.9998 0.0206
vn -0.0002 0.9994 -0.0341
vn 0.0104 -0.0589 -0.9982
vn 1.0000 0.0023 0.0079
vn -0.9991 0.0411 -0.0084
vn -0.0023 -0.9998 -0.0211
vn 0.0129 -0.9997 -0.0216
vn -0.0028 -0.9998 -0.0210
vn 0.0130 -0.9997 -0.0219
vn 0.0179 -0.9997 -0.0190
vn 1.0000 -0.0005 0.0002
vn -1.0000 -0.0008 -0.0002
vn -0.0035 0.0115 0.9999
vn -1.0000 0.0007 -0.0006
vn 0.0018 0.0345 -0.9994
vn 1.0000 0.0012 0.0006
vn 0.0010 -0.0326 0.9995
vn -0.0073 0.0363 -0.9993
vn 0.0005 -0.0198 0.9998
vn -0.0204 0.9995 0.0244
vn -0.0081 0.9992 0.0393
vn -0.0203 0.9995 0.0245
vn -0.0080 0.9992 0.0392
vn 1.0000 -0.0016 0.0028
vn 0.0030 0.0116 -0.9999
vn 1.0000 0.0021 0.0014
vn -1.0000 -0.0003 -0.0014
vn 0.0243 0.9995 0.0180
vn -0.0049 0.9981 0.0613
vn 0.0246 0.9995 0.0180
vn -0.0048 0.9982 0.0592
vn 1.0000 -0.0031 0.0060
vn -1.0000 -0.0017 -0.0029
vn -0.0014 -0.0057 1.0000
vn 0.0042 -0.0037 -1.0000
vn 0.0044 1.0000 0.0066
vn -0.0019 0.9997 0.0250
vn 0.0055 1.0000 0.0065
vn -0.0019 0.9997 0.0257
vn -0.0017 0.0505 0.9987
vn -1.0000 0.0012 -0.0059
vn -0.0043 0.0023 1.0000
vn 0.0077 -0.0242 -0.9997
vn 0.0266 0.9996 -0.0051
vn -0.0001 0.9997 0.0257
vn 0.0274 0.9996 -0.0051
vn 0.0001 0.9997 0.0255
vn 0.0001 0.9994 -0.0344
vn 0.0153 -0.0948 -0.9954
vn 0.9999 -0.0064 0.0094
vn -0.9993 0.0357 -0.0090
vn 0.0146 -0.9997 -0.0203
vn 0.0136 -0.9992 -0.0368
vn 0.0143 -0.9997 -0.0202
vn 0.0138 -0.9992 -0.0376
vn 0.0180 -0.9997 -0.0188
vn 1.0000 0.0008 0.0001
vn -1.0000 0.0005 -0.0001
vn -0.0065 -0.0354 0.9994
s off
f 9/1/1 41/2/1 42/3/1
f 10/4/2 43/5/2 41/6/2
f 11/7/3 44/8/3 43/9/3
f 12/10/4 42/11/4 44/12/4
f 7/13/5 45/14/5 3/15/5
f 6/16/6 17/17/6 2/18/6
f 4/19/7 9/20/7 2/21/7
f 8/22/8 10/23/8 4/19/8
f 6/24/9 11/25/9 8/22/9
f 2/21/10 12/26/10 6/24/10
f 15/27/11 28/28/11 16/29/11
f 4/30/12 19/31/12 8/32/12
f 8/33/13 20/34/13 6/35/13
f 2/36/14 18/37/14 4/38/14
f 14/39/15 17/40/15 13/41/15
f 15/42/16 18/43/16 14/39/16
f 16/44/17 19/45/17 15/42/17
f 13/41/18 20/46/18 16/44/18
f 23/47/19 36/48/19 24/49/19
f 13/50/20 26/51/20 14/52/20
f 16/53/21 25/54/21 13/55/21
f 14/56/22 27/57/22 15/58/22
f 22/59/23 25/60/23 21/61/23
f 23/62/24 26/63/24 22/59/24
f 24/64/25 27/65/25 23/62/25
f 21/61/26 28/66/26 24/64/26
f 32/67/27 37/68/27 29/69/27
f 21/70/28 34/71/28 22/72/28
f 24/73/29 33/74/29 21/75/29
f 22/76/30 35/77/30 23/78/30
f 30/79/31 33/80/31 29/81/31
f 31/82/32 34/83/32 30/79/32
f 32/84/33 35/85/33 31/82/33
f 29/81/34 36/86/34 32/84/34
f 38/87/35 40/88/35 39/89/35
f 30/90/36 39/91/36 31/92/36
f 31/93/37 40/94/37 32/95/37
f 29/96/38 38/97/38 30/98/38
f 3/99/39 42/100/39 41/101/39
f 7/102/40 41/101/40 43/103/40
f 5/104/41 43/103/41 44/105/41
f 1/106/42 44/105/42 42/100/42
f 47/107/43 46/108/43 45/109/43
f 5/110/44 47/111/44 7/112/44
f 3/113/45 46/114/45 1/115/45
f 1/116/46 48/117/46 5/118/46
f 9/1/47 10/119/47 41/2/47
f 10/4/48 11/120/48 43/5/48
f 11/7/49 12/121/49 44/8/49
f 12/10/50 9/122/50 42/11/50
f 7/13/51 47/123/51 45/14/51
f 6/16/52 20/124/52 17/17/52
f 4/19/53 10/23/53 9/20/53
f 8/22/54 11/25/54 10/23/54
f 6/24/55 12/26/55 11/25/55
f 2/21/56 9/20/56 12/26/56
f 15/27/57 27/125/57 28/28/57
f 4/30/58 18/126/58 19/31/58
f 8/33/59 19/127/59 20/34/59
f 2/36/60 17/128/60 18/37/60
f 14/39/61 18/43/61 17/40/61
f 15/42/62 19/45/62 18/43/62
f 16/44/63 20/46/63 19/45/63
f 13/41/64 17/40/64 20/46/64
f 23/47/65 35/129/65 36/48/65
f 13/50/66 25/130/66 26/51/66
f 16/53/67 28/131/67 25/54/67
f 14/56/68 26/132/68 27/57/68
f 22/59/69 26/63/69 25/60/69
f 23/62/70 27/65/70 26/63/70
f 24/64/71 28/66/71 27/65/71
f 21/61/72 25/60/72 28/66/72
f 32/67/73 40/133/73 37/68/73
f 21/70/74 33/134/74 34/71/74
f 24/73/75 36/135/75 33/74/75
f 22/76/76 34/136/76 35/77/76
f 30/79/77 34/83/77 33/80/77
f 31/82/78 35/85/78 34/83/78
f 32/84/79 36/86/79 35/85/79
f 29/81/80 33/80/80 36/86/80
f 38/87/81 37/137/81 40/88/81
f 30/90/82 38/138/82 39/91/82
f 31/93/83 39/139/83 40/94/83
f 29/96/84 37/140/84 38/97/84
f 3/99/85 1/106/85 42/100/85
f 7/102/86 3/99/86 41/101/86
f 5/104/87 7/102/87 43/103/87
f 1/106/88 5/104/88 44/105/88
f 47/107/89 48/141/89 46/108/89
f 5/110/90 48/142/90 47/111/90
f 3/113/91 45/143/91 46/114/91
f 1/116/92 46/144/92 48/117/92
