# Blender v3.2.1 OBJ File: 'Modeling.blend'
# www.blender.org
o Slime_Cube.009
v -0.493448 0.191111 0.493972
v -0.470062 0.395875 0.471512
v -0.493274 0.221638 -0.492255
v -0.469361 0.426013 -0.464056
v 0.493235 0.183806 0.491884
v 0.469148 0.393029 0.472777
v 0.493412 0.214062 -0.490967
v 0.469868 0.423225 -0.464411
v -0.540414 0.395435 0.542063
v -0.539748 0.428298 -0.534027
v 0.540248 0.423608 -0.534566
v 0.539581 0.390617 0.543219
v -0.381837 0.540818 0.392223
v -0.380252 0.571964 -0.363692
v 0.380961 0.575598 -0.366131
v 0.379504 0.545021 0.396090
v -0.470119 0.539383 0.478332
v -0.468792 0.575209 -0.454726
v 0.469564 0.577202 -0.456994
v 0.468277 0.541638 0.481690
v -0.282835 0.658387 0.300630
v -0.280414 0.678119 -0.256292
v 0.281552 0.681134 -0.255743
v 0.279191 0.661610 0.303711
v -0.382051 0.654188 0.397950
v -0.379775 0.680988 -0.358379
v 0.381155 0.685693 -0.358638
v 0.378943 0.659055 0.400891
v -0.193539 0.744926 0.227610
v -0.190372 0.759340 -0.153881
v 0.192733 0.767473 -0.150250
v 0.189487 0.752464 0.227895
v -0.282735 0.739982 0.310154
v -0.279230 0.766311 -0.247349
v 0.281849 0.773633 -0.244079
v 0.278293 0.746900 0.311622
v -0.191451 0.804582 0.231579
v -0.188093 0.799019 -0.159249
v 0.193139 0.817430 -0.148414
v 0.189321 0.820253 0.222778
v -0.539888 0.222494 -0.538843
v -0.540157 0.190612 0.540327
v 0.540106 0.214647 -0.537573
v 0.539834 0.183020 0.538407
v -0.493312 0.146097 -0.496535
v -0.493384 0.110865 0.491810
v 0.493372 0.136017 -0.493422
v 0.493297 0.101387 0.487326
vt 0.661625 0.483720
vt 0.316519 0.454769
vt 0.661625 0.454769
vt 0.661227 0.484999
vt 0.323755 0.456688
vt 0.661227 0.456688
vt 0.897196 0.472493
vt 0.590571 0.446770
vt 0.897196 0.446770
vt 0.659105 0.482249
vt 0.298417 0.451990
vt 0.659105 0.451990
vt 0.338333 0.456688
vt 0.646648 0.445860
vt 0.646648 0.456688
vt 0.635603 0.482249
vt 0.321920 0.504062
vt 0.321920 0.482249
vt 0.034197 0.536342
vt 0.019814 0.446066
vt 0.034197 0.452358
vt 0.226160 0.536342
vt 0.019814 0.542634
vt 0.226160 0.452358
vt 0.240543 0.542634
vt 0.240543 0.446066
vt 0.871651 0.508301
vt 0.614542 0.524885
vt 0.614542 0.508301
vt 0.639237 0.484999
vt 0.345744 0.505407
vt 0.345744 0.484999
vt 0.946364 0.475620
vt 0.556364 0.508278
vt 0.556364 0.476123
vt 0.639137 0.483720
vt 0.339006 0.504590
vt 0.339006 0.483720
vt 0.052267 0.528436
vt 0.034197 0.452358
vt 0.052267 0.460264
vt 0.208090 0.528436
vt 0.034197 0.536342
vt 0.208090 0.460264
vt 0.226160 0.536342
vt 0.226160 0.452358
vt 0.838040 0.524885
vt 0.648153 0.537948
vt 0.648153 0.524885
vt 0.610885 0.504590
vt 0.367259 0.520305
vt 0.367259 0.504590
vt 0.606075 0.504062
vt 0.351447 0.520485
vt 0.351447 0.504062
vt 0.611609 0.505407
vt 0.373372 0.520774
vt 0.373372 0.505407
vt 0.072637 0.519524
vt 0.052267 0.460264
vt 0.072637 0.469176
vt 0.187720 0.519524
vt 0.052267 0.528436
vt 0.187720 0.469176
vt 0.208090 0.528436
vt 0.208090 0.460264
vt 0.543094 0.533422
vt 0.414429 0.541552
vt 0.414429 0.533422
vt 0.579037 0.520305
vt 0.399107 0.532683
vt 0.399107 0.520305
vt 0.572789 0.520485
vt 0.384734 0.533422
vt 0.384734 0.520485
vt 0.580466 0.520774
vt 0.404516 0.532878
vt 0.404516 0.520774
vt 0.090809 0.511574
vt 0.072637 0.469176
vt 0.090809 0.477126
vt 0.169548 0.511574
vt 0.072637 0.519524
vt 0.169548 0.477126
vt 0.187720 0.519524
vt 0.187720 0.469176
vt 0.090809 0.511574
vt 0.169548 0.477126
vt 0.169548 0.511574
vt 0.552682 0.532878
vt 0.432299 0.540484
vt 0.432299 0.532878
vt 0.808056 0.537948
vt 0.678137 0.546157
vt 0.678137 0.537948
vt 0.550625 0.532683
vt 0.427519 0.540461
vt 0.427519 0.532683
vt 0.406997 0.449262
vt 0.406476 0.454315
vt 0.406476 0.449034
vt 0.418026 0.449262
vt 0.418547 0.449034
vt 0.418026 0.454087
vt 0.418547 0.454315
vt 0.406997 0.454087
vt 0.418026 0.449262
vt 0.406997 0.454087
vt 0.406997 0.449262
vt 0.576727 0.455722
vt 0.909465 0.444037
vt 0.909465 0.455722
vt 0.331427 0.454769
vt 0.646717 0.443696
vt 0.646717 0.454769
vt 0.313998 0.451990
vt 0.643524 0.440417
vt 0.643524 0.451990
vt 0.316519 0.483720
vt 0.323755 0.484999
vt 0.590571 0.472493
vt 0.298417 0.482249
vt 0.338333 0.445860
vt 0.635603 0.504062
vt 0.871651 0.524885
vt 0.639237 0.505407
vt 0.946364 0.507775
vt 0.639137 0.504590
vt 0.838040 0.537948
vt 0.610885 0.520305
vt 0.606075 0.520485
vt 0.611609 0.520774
vt 0.543094 0.541552
vt 0.579037 0.532683
vt 0.572789 0.533422
vt 0.580466 0.532878
vt 0.090809 0.477126
vt 0.552682 0.540484
vt 0.808056 0.546157
vt 0.550625 0.540461
vt 0.418026 0.454087
vt 0.576727 0.444037
vt 0.331427 0.443696
vt 0.313998 0.440417
vn -1.0000 -0.0013 -0.0003
vn 0.0013 0.0234 -0.9997
vn 1.0000 -0.0007 0.0002
vn 0.0016 -0.0232 0.9997
vn 0.0017 0.0566 -0.9984
vn -0.0015 -0.0475 0.9989
vn 0.0260 0.9991 0.0322
vn 0.0030 0.9996 0.0296
vn 0.0267 0.9991 0.0322
vn 0.0030 0.9995 0.0312
vn 1.0000 0.0048 0.0021
vn -0.0002 0.0481 -0.9988
vn 1.0000 0.0058 0.0010
vn -1.0000 0.0039 -0.0006
vn 0.0240 0.9989 0.0412
vn -0.0046 0.9992 0.0401
vn 0.0231 0.9989 0.0401
vn -0.0057 0.9990 0.0454
vn 0.9999 0.0101 0.0046
vn -1.0000 0.0045 -0.0019
vn -0.0048 -0.0505 0.9987
vn -0.0035 0.0679 -0.9977
vn -0.0076 0.9993 0.0354
vn -0.0054 0.9994 0.0333
vn -0.0098 0.9993 0.0348
vn -0.0059 0.9995 0.0323
vn 0.0006 -0.0664 0.9978
vn -0.9999 0.0138 -0.0039
vn -0.0048 -0.1159 0.9932
vn 0.0003 0.1251 -0.9921
vn -0.0206 0.9991 0.0376
vn -0.0220 0.9952 0.0952
vn -0.0276 0.9988 0.0394
vn -0.0197 0.9960 0.0870
vn -0.0480 0.9988 -0.0081
vn 0.0087 0.0367 -0.9993
vn 1.0000 0.0031 0.0087
vn -0.9984 0.0565 -0.0062
vn 0.0112 -0.9995 -0.0295
vn -0.0072 -0.9998 -0.0198
vn 0.0125 -0.9995 -0.0294
vn -0.0071 -0.9998 -0.0179
vn -0.0101 -0.9993 -0.0356
vn 1.0000 -0.0005 0.0002
vn -1.0000 -0.0008 -0.0002
vn 0.0017 -0.0552 0.9985
vn -1.0000 0.0007 -0.0006
vn -0.0004 0.0144 -0.9999
vn 1.0000 0.0012 0.0007
vn -0.0011 -0.0085 1.0000
vn 0.0035 0.0314 -0.9995
vn -0.0034 -0.0599 0.9982
vn 0.0021 0.9995 0.0305
vn 0.0043 0.9999 0.0098
vn 0.0036 0.9995 0.0306
vn 0.0044 0.9999 0.0107
vn 1.0000 -0.0020 0.0028
vn -0.0025 0.0624 -0.9980
vn 1.0000 0.0019 0.0014
vn -1.0000 -0.0003 -0.0014
vn -0.0028 0.9993 0.0384
vn -0.0021 0.9999 0.0156
vn 0.0016 0.9993 0.0379
vn -0.0025 0.9999 0.0142
vn 1.0000 -0.0040 0.0062
vn -1.0000 -0.0017 -0.0031
vn -0.0036 -0.0421 0.9991
vn -0.0006 0.0487 -0.9988
vn -0.0075 0.9993 0.0354
vn -0.0062 0.9992 0.0383
vn -0.0085 0.9994 0.0350
vn -0.0065 0.9993 0.0365
vn 0.0199 0.0753 0.9970
vn -1.0000 0.0019 -0.0062
vn -0.0015 -0.0924 0.9957
vn 0.0045 0.1008 -0.9949
vn 0.0285 0.9985 0.0473
vn -0.0133 0.9985 0.0529
vn 0.0172 0.9987 0.0482
vn -0.0124 0.9988 0.0464
vn -0.0415 0.9990 -0.0146
vn 0.0347 -0.1359 -0.9901
vn 0.9999 -0.0085 0.0104
vn -0.9993 0.0356 -0.0091
vn -0.0200 -0.9993 -0.0309
vn -0.0077 -0.9999 -0.0107
vn -0.0182 -0.9994 -0.0308
vn -0.0074 -0.9999 -0.0094
vn -0.0098 -0.9993 -0.0353
vn 1.0000 0.0007 0.0001
vn -1.0000 0.0005 -0.0001
vn 0.0043 -0.0269 0.9996
s off
f 9/1/1 41/2/1 42/3/1
f 10/4/2 43/5/2 41/6/2
f 11/7/3 44/8/3 43/9/3
f 12/10/4 42/11/4 44/12/4
f 7/13/5 45/14/5 3/15/5
f 6/16/6 17/17/6 2/18/6
f 4/19/7 9/20/7 2/21/7
f 8/22/8 10/23/8 4/19/8
f 6/24/9 11/25/9 8/22/9
f 2/21/10 12/26/10 6/24/10
f 15/27/11 28/28/11 16/29/11
f 4/30/12 19/31/12 8/32/12
f 8/33/13 20/34/13 6/35/13
f 2/36/14 18/37/14 4/38/14
f 14/39/15 17/40/15 13/41/15
f 15/42/16 18/43/16 14/39/16
f 16/44/17 19/45/17 15/42/17
f 13/41/18 20/46/18 16/44/18
f 23/47/19 36/48/19 24/49/19
f 13/50/20 26/51/20 14/52/20
f 16/53/21 25/54/21 13/55/21
f 14/56/22 27/57/22 15/58/22
f 22/59/23 25/60/23 21/61/23
f 23/62/24 26/63/24 22/59/24
f 24/64/25 27/65/25 23/62/25
f 21/61/26 28/66/26 24/64/26
f 32/67/27 37/68/27 29/69/27
f 21/70/28 34/71/28 22/72/28
f 24/73/29 33/74/29 21/75/29
f 22/76/30 35/77/30 23/78/30
f 30/79/31 33/80/31 29/81/31
f 31/82/32 34/83/32 30/79/32
f 32/84/33 35/85/33 31/82/33
f 29/81/34 36/86/34 32/84/34
f 38/87/35 40/88/35 39/89/35
f 30/90/36 39/91/36 31/92/36
f 31/93/37 40/94/37 32/95/37
f 29/96/38 38/97/38 30/98/38
f 3/99/39 42/100/39 41/101/39
f 7/102/40 41/101/40 43/103/40
f 5/104/41 43/103/41 44/105/41
f 1/106/42 44/105/42 42/100/42
f 47/107/43 46/108/43 45/109/43
f 5/110/44 47/111/44 7/112/44
f 3/113/45 46/114/45 1/115/45
f 1/116/46 48/117/46 5/118/46
f 9/1/47 10/119/47 41/2/47
f 10/4/48 11/120/48 43/5/48
f 11/7/49 12/121/49 44/8/49
f 12/10/50 9/122/50 42/11/50
f 7/13/51 47/123/51 45/14/51
f 6/16/52 20/124/52 17/17/52
f 4/19/53 10/23/53 9/20/53
f 8/22/54 11/25/54 10/23/54
f 6/24/55 12/26/55 11/25/55
f 2/21/56 9/20/56 12/26/56
f 15/27/57 27/125/57 28/28/57
f 4/30/58 18/126/58 19/31/58
f 8/33/59 19/127/59 20/34/59
f 2/36/60 17/128/60 18/37/60
f 14/39/61 18/43/61 17/40/61
f 15/42/62 19/45/62 18/43/62
f 16/44/63 20/46/63 19/45/63
f 13/41/64 17/40/64 20/46/64
f 23/47/65 35/129/65 36/48/65
f 13/50/66 25/130/66 26/51/66
f 16/53/67 28/131/67 25/54/67
f 14/56/68 26/132/68 27/57/68
f 22/59/69 26/63/69 25/60/69
f 23/62/70 27/65/70 26/63/70
f 24/64/71 28/66/71 27/65/71
f 21/61/72 25/60/72 28/66/72
f 32/67/73 40/133/73 37/68/73
f 21/70/74 33/134/74 34/71/74
f 24/73/75 36/135/75 33/74/75
f 22/76/76 34/136/76 35/77/76
f 30/79/77 34/83/77 33/80/77
f 31/82/78 35/85/78 34/83/78
f 32/84/79 36/86/79 35/85/79
f 29/81/80 33/80/80 36/86/80
f 38/87/81 37/137/81 40/88/81
f 30/90/82 38/138/82 39/91/82
f 31/93/83 39/139/83 40/94/83
f 29/96/84 37/140/84 38/97/84
f 3/99/85 1/106/85 42/100/85
f 7/102/86 3/99/86 41/101/86
f 5/104/87 7/102/87 43/103/87
f 1/106/88 5/104/88 44/105/88
f 47/107/89 48/141/89 46/108/89
f 5/110/90 48/142/90 47/111/90
f 3/113/91 45/143/91 46/114/91
f 1/116/92 46/144/92 48/117/92
