# Blender v3.2.1 OBJ File: 'Modeling.blend'
# www.blender.org
o GreenSLime_Cube
v -0.491372 0.323277 0.492579
v -0.468381 0.534453 0.442247
v -0.495770 0.208085 -0.483695
v -0.470047 0.403451 -0.478791
v 0.496347 0.317113 0.487187
v 0.471271 0.534778 0.439043
v 0.492308 0.201921 -0.487102
v 0.469511 0.402637 -0.483404
v -0.538623 0.542653 0.511643
v -0.540957 0.396357 -0.549820
v 0.539670 0.393997 -0.554049
v 0.542205 0.540380 0.508757
v -0.381374 0.692948 0.321483
v -0.379331 0.544151 -0.382658
v 0.381661 0.543914 -0.398744
v 0.379248 0.703791 0.306585
v -0.469141 0.694843 0.414502
v -0.468510 0.537129 -0.478788
v 0.469653 0.537997 -0.494632
v 0.468874 0.703561 0.400728
v -0.286198 0.814034 0.157334
v -0.278024 0.621076 -0.297155
v 0.283338 0.630299 -0.308883
v 0.275063 0.827400 0.146175
v -0.383886 0.821427 0.272616
v -0.377845 0.617915 -0.392507
v 0.382461 0.624806 -0.409700
v 0.376407 0.832586 0.256609
v -0.201830 0.877370 -0.019969
v -0.187283 0.651004 -0.243870
v 0.194213 0.673527 -0.265769
v 0.180114 0.889989 -0.043216
v -0.289782 0.904435 0.089507
v -0.275717 0.648548 -0.315224
v 0.283902 0.669880 -0.336193
v 0.270161 0.919510 0.067917
v -0.202653 0.916349 -0.092808
v -0.182690 0.627544 -0.252378
v 0.194964 0.672660 -0.296375
v 0.177147 0.914909 -0.139926
v -0.542378 0.200209 -0.527755
v -0.537929 0.331760 0.539531
v 0.539039 0.194195 -0.531436
v 0.543146 0.325737 0.533943
v -0.496591 0.135514 -0.479473
v -0.491532 0.239804 0.499886
v 0.492117 0.127026 -0.481651
v 0.496352 0.231242 0.492949
vt 0.575926 0.712596
vt 0.217006 0.682485
vt 0.575926 0.682485
vt 0.585252 0.713073
vt 0.217603 0.682230
vt 0.585252 0.682230
vt 0.904546 0.697994
vt 0.550798 0.668317
vt 0.904546 0.668317
vt 0.545584 0.713178
vt 0.182270 0.682699
vt 0.545584 0.682699
vt 0.233484 0.682230
vt 0.569370 0.670434
vt 0.569370 0.682230
vt 0.521910 0.713178
vt 0.205944 0.735149
vt 0.205944 0.713178
vt 0.031760 0.876302
vt 0.017305 0.785572
vt 0.031760 0.791896
vt 0.224688 0.876302
vt 0.017305 0.882626
vt 0.224688 0.791896
vt 0.239144 0.882626
vt 0.239144 0.785572
vt 0.869627 0.735662
vt 0.605716 0.752685
vt 0.605716 0.735662
vt 0.561296 0.713073
vt 0.241559 0.735306
vt 0.241559 0.713073
vt 0.914470 0.704375
vt 0.573047 0.738163
vt 0.573047 0.707273
vt 0.552539 0.712596
vt 0.240393 0.734301
vt 0.240393 0.712596
vt 0.049921 0.868357
vt 0.031760 0.791896
vt 0.049921 0.799841
vt 0.206528 0.868357
vt 0.031760 0.876302
vt 0.206528 0.799841
vt 0.224688 0.876302
vt 0.224688 0.791896
vt 0.835127 0.752685
vt 0.640216 0.766094
vt 0.640216 0.752685
vt 0.523156 0.734301
vt 0.269776 0.750644
vt 0.269776 0.734301
vt 0.492167 0.735149
vt 0.235687 0.751693
vt 0.235687 0.735149
vt 0.531198 0.735306
vt 0.271657 0.752047
vt 0.271657 0.735306
vt 0.070393 0.859400
vt 0.049921 0.799841
vt 0.070393 0.808798
vt 0.186055 0.859400
vt 0.049921 0.868357
vt 0.186055 0.808798
vt 0.206528 0.868357
vt 0.206528 0.799841
vt 0.428728 0.764724
vt 0.299126 0.772912
vt 0.299126 0.764724
vt 0.490032 0.750644
vt 0.302900 0.763518
vt 0.302900 0.750644
vt 0.458639 0.751693
vt 0.269215 0.764724
vt 0.269215 0.751693
vt 0.497269 0.752047
vt 0.305585 0.765234
vt 0.305585 0.752047
vt 0.088657 0.851410
vt 0.070393 0.808798
vt 0.088657 0.816789
vt 0.167791 0.851410
vt 0.070393 0.859400
vt 0.167791 0.816789
vt 0.186055 0.859400
vt 0.186055 0.808798
vt 0.088657 0.851410
vt 0.167791 0.816789
vt 0.167791 0.851410
vt 0.467001 0.765234
vt 0.335853 0.773520
vt 0.335853 0.765234
vt 0.804349 0.766094
vt 0.670993 0.774519
vt 0.670993 0.766094
vt 0.460483 0.763518
vt 0.332449 0.771608
vt 0.332449 0.763518
vt 0.143393 0.671153
vt 0.142016 0.684499
vt 0.142016 0.670551
vt 0.172519 0.671153
vt 0.173897 0.670551
vt 0.172519 0.683896
vt 0.173897 0.684499
vt 0.143393 0.683896
vt 0.172519 0.671153
vt 0.143393 0.683896
vt 0.143393 0.671153
vt 0.566901 0.681693
vt 0.908442 0.669698
vt 0.908442 0.681693
vt 0.232510 0.682485
vt 0.560421 0.670969
vt 0.560421 0.682485
vt 0.197965 0.682699
vt 0.529889 0.671042
vt 0.529889 0.682699
vt 0.217006 0.712596
vt 0.217603 0.713073
vt 0.550798 0.697994
vt 0.182270 0.713178
vt 0.233484 0.670434
vt 0.521910 0.735149
vt 0.869627 0.752685
vt 0.561296 0.735306
vt 0.914470 0.735265
vt 0.552539 0.734301
vt 0.835127 0.766094
vt 0.523156 0.750644
vt 0.492167 0.751693
vt 0.531198 0.752047
vt 0.428728 0.772912
vt 0.490032 0.763518
vt 0.458639 0.764724
vt 0.497269 0.765234
vt 0.088657 0.816789
vt 0.467001 0.773520
vt 0.804349 0.774519
vt 0.460483 0.771608
vt 0.172519 0.683896
vt 0.566901 0.669698
vt 0.232510 0.670969
vt 0.197965 0.671042
vn -1.0000 -0.0027 0.0045
vn -0.0040 -0.1118 -0.9937
vn 1.0000 -0.0035 -0.0034
vn 0.0058 0.1166 0.9932
vn -0.0038 -0.0580 -0.9983
vn 0.0033 0.1705 0.9854
vn -0.0235 0.9898 -0.1407
vn 0.0004 0.9950 -0.0998
vn -0.0208 0.9897 -0.1417
vn -0.0006 0.9968 -0.0795
vn 0.9998 0.0215 -0.0015
vn -0.0050 -0.0827 -0.9966
vn 0.9999 0.0133 -0.0038
vn -0.9999 0.0115 0.0002
vn -0.1948 0.9595 -0.2033
vn -0.0012 0.9974 -0.0717
vn -0.1733 0.9604 -0.2183
vn -0.0139 0.9998 0.0157
vn 0.9987 0.0501 -0.0036
vn -0.9998 0.0192 -0.0070
vn 0.0132 0.3557 0.9345
vn -0.0210 -0.1340 -0.9908
vn -0.3705 0.8526 -0.3686
vn -0.0168 0.9997 -0.0156
vn -0.3380 0.8614 -0.3792
vn -0.0243 0.9994 -0.0246
vn -0.0004 0.8817 0.4718
vn -0.9975 0.0563 -0.0418
vn 0.0016 0.6002 0.7999
vn -0.0079 -0.5678 -0.8231
vn -0.5753 0.5562 -0.5997
vn -0.0568 0.9977 0.0361
vn -0.4700 0.6177 -0.6305
vn -0.0457 0.9740 -0.2217
vn -0.1602 0.5272 -0.8345
vn 0.0606 -0.9977 0.0297
vn 0.9970 0.0762 -0.0110
vn 0.9458 0.2571 -0.1985
vn 0.0522 -0.9912 0.1220
vn -0.0049 -0.9860 0.1667
vn 0.0606 -0.9907 0.1221
vn -0.0046 -0.9848 0.1734
vn -0.0083 -0.9943 0.1059
vn 1.0000 -0.0028 -0.0038
vn -1.0000 0.0023 0.0042
vn 0.0059 0.0669 0.9977
vn -1.0000 0.0074 0.0012
vn -0.0041 -0.1124 -0.9936
vn 1.0000 0.0040 -0.0029
vn 0.0029 0.1311 0.9914
vn -0.0028 -0.0726 -0.9974
vn 0.0123 0.2215 0.9751
vn 0.0377 0.9899 -0.1365
vn 0.0017 0.9928 -0.1197
vn 0.0559 0.9891 -0.1364
vn 0.0018 0.9933 -0.1156
vn 0.9999 -0.0083 0.0117
vn -0.0169 0.0002 -0.9999
vn 1.0000 -0.0010 0.0010
vn -1.0000 -0.0047 0.0001
vn 0.1091 0.9789 -0.1728
vn -0.0020 0.9980 -0.0634
vn 0.1898 0.9655 -0.1784
vn -0.0097 0.9995 -0.0295
vn 0.9995 0.0065 0.0300
vn -0.9998 -0.0206 -0.0028
vn 0.0143 0.3620 0.9321
vn -0.0212 -0.1319 -0.9910
vn 0.2400 0.9289 -0.2820
vn -0.0105 0.9978 -0.0647
vn 0.2634 0.9216 -0.2850
vn -0.0163 0.9968 -0.0777
vn 0.0345 0.9680 0.2484
vn -0.9990 -0.0445 -0.0066
vn 0.0119 0.6478 0.7617
vn -0.0104 -0.5489 -0.8358
vn 0.3710 0.7907 -0.4870
vn -0.0418 0.9936 -0.1047
vn 0.3363 0.8063 -0.4866
vn -0.0362 0.9630 -0.2672
vn -0.1066 0.4752 -0.8734
vn 0.1466 -0.3118 0.9388
vn 0.9980 0.0586 0.0228
vn -0.9981 -0.0581 -0.0198
vn -0.0624 -0.9911 0.1172
vn -0.0055 -0.9834 0.1816
vn -0.0525 -0.9917 0.1175
vn -0.0051 -0.9825 0.1863
vn -0.0079 -0.9943 0.1064
vn 1.0000 -0.0002 -0.0043
vn -0.9999 0.0115 0.0039
vn 0.0078 0.0872 0.9962
s off
f 9/1/1 41/2/1 42/3/1
f 10/4/2 43/5/2 41/6/2
f 11/7/3 44/8/3 43/9/3
f 12/10/4 42/11/4 44/12/4
f 7/13/5 45/14/5 3/15/5
f 6/16/6 17/17/6 2/18/6
f 4/19/7 9/20/7 2/21/7
f 8/22/8 10/23/8 4/19/8
f 6/24/9 11/25/9 8/22/9
f 2/21/10 12/26/10 6/24/10
f 15/27/11 28/28/11 16/29/11
f 4/30/12 19/31/12 8/32/12
f 8/33/13 20/34/13 6/35/13
f 2/36/14 18/37/14 4/38/14
f 14/39/15 17/40/15 13/41/15
f 15/42/16 18/43/16 14/39/16
f 16/44/17 19/45/17 15/42/17
f 13/41/18 20/46/18 16/44/18
f 23/47/19 36/48/19 24/49/19
f 13/50/20 26/51/20 14/52/20
f 16/53/21 25/54/21 13/55/21
f 14/56/22 27/57/22 15/58/22
f 22/59/23 25/60/23 21/61/23
f 23/62/24 26/63/24 22/59/24
f 24/64/25 27/65/25 23/62/25
f 21/61/26 28/66/26 24/64/26
f 32/67/27 37/68/27 29/69/27
f 21/70/28 34/71/28 22/72/28
f 24/73/29 33/74/29 21/75/29
f 22/76/30 35/77/30 23/78/30
f 30/79/31 33/80/31 29/81/31
f 31/82/32 34/83/32 30/79/32
f 32/84/33 35/85/33 31/82/33
f 29/81/34 36/86/34 32/84/34
f 38/87/35 40/88/35 39/89/35
f 30/90/36 39/91/36 31/92/36
f 31/93/37 40/94/37 32/95/37
f 29/96/38 38/97/38 30/98/38
f 3/99/39 42/100/39 41/101/39
f 7/102/40 41/101/40 43/103/40
f 5/104/41 43/103/41 44/105/41
f 1/106/42 44/105/42 42/100/42
f 47/107/43 46/108/43 45/109/43
f 5/110/44 47/111/44 7/112/44
f 3/113/45 46/114/45 1/115/45
f 1/116/46 48/117/46 5/118/46
f 9/1/47 10/119/47 41/2/47
f 10/4/48 11/120/48 43/5/48
f 11/7/49 12/121/49 44/8/49
f 12/10/50 9/122/50 42/11/50
f 7/13/51 47/123/51 45/14/51
f 6/16/52 20/124/52 17/17/52
f 4/19/53 10/23/53 9/20/53
f 8/22/54 11/25/54 10/23/54
f 6/24/55 12/26/55 11/25/55
f 2/21/56 9/20/56 12/26/56
f 15/27/57 27/125/57 28/28/57
f 4/30/58 18/126/58 19/31/58
f 8/33/59 19/127/59 20/34/59
f 2/36/60 17/128/60 18/37/60
f 14/39/61 18/43/61 17/40/61
f 15/42/62 19/45/62 18/43/62
f 16/44/63 20/46/63 19/45/63
f 13/41/64 17/40/64 20/46/64
f 23/47/65 35/129/65 36/48/65
f 13/50/66 25/130/66 26/51/66
f 16/53/67 28/131/67 25/54/67
f 14/56/68 26/132/68 27/57/68
f 22/59/69 26/63/69 25/60/69
f 23/62/70 27/65/70 26/63/70
f 24/64/71 28/66/71 27/65/71
f 21/61/72 25/60/72 28/66/72
f 32/67/73 40/133/73 37/68/73
f 21/70/74 33/134/74 34/71/74
f 24/73/75 36/135/75 33/74/75
f 22/76/76 34/136/76 35/77/76
f 30/79/77 34/83/77 33/80/77
f 31/82/78 35/85/78 34/83/78
f 32/84/79 36/86/79 35/85/79
f 29/81/80 33/80/80 36/86/80
f 38/87/81 37/137/81 40/88/81
f 30/90/82 38/138/82 39/91/82
f 31/93/83 39/139/83 40/94/83
f 29/96/84 37/140/84 38/97/84
f 3/99/85 1/106/85 42/100/85
f 7/102/86 3/99/86 41/101/86
f 5/104/87 7/102/87 43/103/87
f 1/106/88 5/104/88 44/105/88
f 47/107/89 48/141/89 46/108/89
f 5/110/90 48/142/90 47/111/90
f 3/113/91 45/143/91 46/114/91
f 1/116/92 46/144/92 48/117/92
