# Blender v3.2.1 OBJ File: 'Modeling.blend'
# www.blender.org
o SlimeNew_Cube
v -0.493448 0.565243 0.488409
v -0.470062 0.773019 0.405572
v -0.493274 0.322797 -0.440101
v -0.469361 0.520260 -0.454063
v 0.493235 0.576396 0.489314
v 0.469148 0.778494 0.403624
v 0.493412 0.332599 -0.444656
v 0.469868 0.525173 -0.454740
v -0.540414 0.786528 0.473055
v -0.539748 0.502808 -0.523245
v 0.540248 0.509961 -0.523177
v 0.539581 0.793472 0.471193
v -0.381837 0.925812 0.241686
v -0.380252 0.643813 -0.383415
v 0.380961 0.643929 -0.388456
v 0.379504 0.931108 0.234159
v -0.470119 0.933063 0.341731
v -0.468792 0.633789 -0.472634
v 0.469564 0.637449 -0.478031
v 0.468277 0.940058 0.332770
v -0.282835 1.018212 0.020815
v -0.280414 0.692997 -0.328336
v 0.281552 0.694104 -0.331559
v 0.279191 1.021297 0.016519
v -0.382051 1.047986 0.143830
v -0.379775 0.685344 -0.411521
v 0.381155 0.686314 -0.416446
v 0.378943 1.051000 0.137178
v -0.193539 1.014590 -0.204072
v -0.190372 0.694210 -0.319449
v 0.192733 0.700354 -0.328228
v 0.189487 1.014288 -0.215157
v -0.282735 1.080407 -0.097778
v -0.279230 0.685830 -0.363699
v 0.281849 0.691374 -0.371843
v 0.278293 1.081770 -0.107945
v -0.191451 1.024660 -0.290588
v -0.188093 0.668174 -0.353066
v 0.193139 0.682659 -0.373243
v 0.189321 1.014096 -0.311107
v -0.539888 0.308136 -0.479012
v -0.540157 0.582950 0.531659
v 0.540106 0.318440 -0.483432
v 0.539834 0.594497 0.532379
v -0.493312 0.253838 -0.431429
v -0.493384 0.473196 0.505342
v 0.493372 0.266186 -0.439707
v 0.493297 0.488188 0.508673
vt 0.448337 0.295300
vt 0.074340 0.213996
vt 0.448337 0.213996
vt 0.441282 0.293935
vt 0.076565 0.214649
vt 0.441282 0.214649
vt 0.463627 0.293063
vt 0.086638 0.211109
vt 0.463627 0.211109
vt 0.958525 0.294402
vt 0.582872 0.212738
vt 0.958525 0.212738
vt 0.054417 0.265994
vt 0.532659 0.227921
vt 0.532659 0.265994
vt 0.959813 0.304873
vt 0.581585 0.364873
vt 0.581585 0.304873
vt 0.026286 0.713763
vt 0.010172 0.484494
vt 0.026286 0.500474
vt 0.241351 0.713763
vt 0.010172 0.729743
vt 0.241351 0.500474
vt 0.257465 0.729743
vt 0.257465 0.484494
vt 0.408200 0.352237
vt 0.142066 0.396434
vt 0.142066 0.352237
vt 0.417517 0.293935
vt 0.100330 0.351183
vt 0.100330 0.293935
vt 0.439062 0.293063
vt 0.111203 0.352237
vt 0.111203 0.293063
vt 0.423967 0.295300
vt 0.098709 0.354004
vt 0.098709 0.295300
vt 0.046530 0.693685
vt 0.026286 0.500474
vt 0.046530 0.520552
vt 0.221106 0.693685
vt 0.026286 0.713763
vt 0.221106 0.520552
vt 0.241351 0.713763
vt 0.241351 0.500474
vt 0.373409 0.396434
vt 0.176856 0.436748
vt 0.176856 0.396434
vt 0.393349 0.354004
vt 0.129327 0.397850
vt 0.129327 0.354004
vt 0.924209 0.364873
vt 0.617189 0.415860
vt 0.617189 0.364873
vt 0.387659 0.351183
vt 0.130188 0.393941
vt 0.130188 0.351183
vt 0.069352 0.671052
vt 0.046530 0.520552
vt 0.069352 0.543185
vt 0.198285 0.671052
vt 0.046530 0.693685
vt 0.198285 0.543185
vt 0.221106 0.693685
vt 0.221106 0.520552
vt 0.837700 0.437577
vt 0.703697 0.462819
vt 0.703697 0.437577
vt 0.358835 0.397850
vt 0.163841 0.437844
vt 0.163841 0.397850
vt 0.868627 0.397406
vt 0.672770 0.437577
vt 0.672770 0.397406
vt 0.354001 0.393941
vt 0.163846 0.432943
vt 0.163846 0.393941
vt 0.089711 0.650861
vt 0.069352 0.543185
vt 0.089711 0.563376
vt 0.177926 0.650861
vt 0.069352 0.671052
vt 0.177926 0.563376
vt 0.198285 0.671052
vt 0.198285 0.543185
vt 0.089711 0.650861
vt 0.177926 0.563376
vt 0.177926 0.650861
vt 0.323974 0.432943
vt 0.193872 0.457450
vt 0.193872 0.432943
vt 0.342372 0.436748
vt 0.207893 0.462080
vt 0.207893 0.436748
vt 0.328044 0.437844
vt 0.194632 0.462975
vt 0.194632 0.437844
vt 0.042385 0.513340
vt 0.009507 0.730462
vt 0.009507 0.480462
vt 0.226630 0.513340
vt 0.259507 0.480462
vt 0.226630 0.697585
vt 0.259507 0.730462
vt 0.042385 0.697585
vt 0.226630 0.513340
vt 0.042385 0.697585
vt 0.042385 0.513340
vt 0.086498 0.264693
vt 0.564740 0.226619
vt 0.564740 0.264693
vt 0.111093 0.256883
vt 0.589335 0.218810
vt 0.589335 0.256883
vt 0.023744 0.256883
vt 0.501985 0.218810
vt 0.501985 0.256883
vt 0.074340 0.295300
vt 0.076565 0.293935
vt 0.086638 0.293063
vt 0.582872 0.294402
vt 0.054417 0.227921
vt 0.959813 0.364873
vt 0.408200 0.396434
vt 0.417517 0.351183
vt 0.439062 0.352237
vt 0.423967 0.354004
vt 0.373409 0.436748
vt 0.393349 0.397850
vt 0.924209 0.415860
vt 0.387659 0.393941
vt 0.837700 0.462819
vt 0.358835 0.437844
vt 0.868627 0.437577
vt 0.354001 0.432943
vt 0.089711 0.563376
vt 0.323974 0.457450
vt 0.342372 0.462080
vt 0.328044 0.462975
vt 0.226630 0.697585
vt 0.086498 0.226619
vt 0.111093 0.218810
vt 0.023744 0.218810
vn -1.0000 -0.0012 0.0001
vn -0.0019 -0.2216 -0.9751
vn 1.0000 -0.0007 0.0004
vn -0.0038 0.2939 0.9558
vn -0.0033 -0.1248 -0.9922
vn -0.0002 0.3705 0.9288
vn -0.0861 0.9558 -0.2811
vn -0.0053 0.9709 -0.2396
vn -0.0678 0.9569 -0.2825
vn -0.0061 0.9776 -0.2103
vn 1.0000 0.0048 0.0001
vn 0.0004 -0.2031 -0.9792
vn 1.0000 0.0051 -0.0007
vn -1.0000 0.0047 -0.0022
vn -0.3651 0.8483 -0.3836
vn -0.0009 0.9938 -0.1108
vn -0.3368 0.8547 -0.3950
vn -0.0078 0.9965 -0.0835
vn 0.9999 0.0098 -0.0024
vn -1.0000 0.0075 -0.0059
vn 0.0034 0.6252 0.7805
vn -0.0054 -0.5510 -0.8345
vn -0.5324 0.6176 -0.5789
vn -0.0025 0.9961 -0.0887
vn -0.4673 0.6426 -0.6072
vn -0.0071 0.9723 -0.2335
vn 0.0041 0.9933 0.1157
vn -0.9985 0.0364 -0.0408
vn -0.0013 0.8856 0.4644
vn 0.0024 -0.9977 0.0676
vn -0.6607 0.2486 -0.7083
vn -0.0193 0.9887 -0.1486
vn -0.3930 0.3080 -0.8664
vn -0.0145 0.8516 -0.5240
vn -0.0589 0.1833 -0.9813
vn 0.0233 -0.9304 0.3659
vn 0.9999 0.0110 -0.0018
vn -0.9963 0.0201 -0.0831
vn 0.0842 -0.9615 0.2615
vn 0.0104 -0.9352 0.3540
vn 0.1313 -0.9566 0.2600
vn 0.0096 -0.9217 0.3877
vn 0.0141 -0.9736 0.2280
vn 1.0000 -0.0006 0.0003
vn -1.0000 -0.0007 -0.0000
vn -0.0033 0.2144 0.9767
vn -1.0000 0.0005 -0.0008
vn 0.0014 -0.2032 -0.9791
vn 1.0000 0.0014 0.0003
vn -0.0001 0.2766 0.9610
vn -0.0074 -0.0743 -0.9972
vn 0.0058 0.4016 0.9158
vn 0.0307 0.9613 -0.2737
vn -0.0064 0.9747 -0.2233
vn 0.0584 0.9600 -0.2737
vn -0.0066 0.9792 -0.2029
vn 1.0000 -0.0013 0.0049
vn -0.0050 -0.1614 -0.9869
vn 1.0000 0.0028 0.0005
vn -1.0000 -0.0009 -0.0013
vn 0.2343 0.9126 -0.3350
vn -0.0043 0.9971 -0.0764
vn 0.2816 0.8991 -0.3351
vn -0.0082 0.9968 -0.0795
vn 1.0000 0.0043 0.0071
vn -1.0000 -0.0033 -0.0019
vn 0.0043 0.6289 0.7775
vn -0.0046 -0.5604 -0.8282
vn 0.3652 0.7802 -0.5079
vn -0.0019 0.9956 -0.0936
vn 0.3834 0.7720 -0.5070
vn -0.0059 0.9708 -0.2398
vn 0.0276 0.9996 -0.0021
vn -1.0000 -0.0061 -0.0041
vn 0.0057 0.8995 0.4370
vn 0.0126 -0.9799 0.1990
vn 0.3381 0.5280 -0.7790
vn -0.0129 0.9738 -0.2269
vn 0.4946 0.4898 -0.7180
vn -0.0117 0.8457 -0.5335
vn -0.0482 0.1720 -0.9839
vn 0.0624 -0.7870 0.6138
vn 0.9999 0.0106 0.0048
vn -0.9997 -0.0051 -0.0247
vn -0.1317 -0.9591 0.2504
vn 0.0109 -0.9400 0.3411
vn -0.0834 -0.9642 0.2517
vn 0.0101 -0.9257 0.3781
vn 0.0140 -0.9736 0.2279
vn 1.0000 0.0007 -0.0001
vn -1.0000 0.0005 -0.0002
vn -0.0061 0.1809 0.9835
s off
f 9/1/1 41/2/1 42/3/1
f 10/4/2 43/5/2 41/6/2
f 11/7/3 44/8/3 43/9/3
f 12/10/4 42/11/4 44/12/4
f 7/13/5 45/14/5 3/15/5
f 6/16/6 17/17/6 2/18/6
f 4/19/7 9/20/7 2/21/7
f 8/22/8 10/23/8 4/19/8
f 6/24/9 11/25/9 8/22/9
f 2/21/10 12/26/10 6/24/10
f 15/27/11 28/28/11 16/29/11
f 4/30/12 19/31/12 8/32/12
f 8/33/13 20/34/13 6/35/13
f 2/36/14 18/37/14 4/38/14
f 14/39/15 17/40/15 13/41/15
f 15/42/16 18/43/16 14/39/16
f 16/44/17 19/45/17 15/42/17
f 13/41/18 20/46/18 16/44/18
f 23/47/19 36/48/19 24/49/19
f 13/50/20 26/51/20 14/52/20
f 16/53/21 25/54/21 13/55/21
f 14/56/22 27/57/22 15/58/22
f 22/59/23 25/60/23 21/61/23
f 23/62/24 26/63/24 22/59/24
f 24/64/25 27/65/25 23/62/25
f 21/61/26 28/66/26 24/64/26
f 32/67/27 37/68/27 29/69/27
f 21/70/28 34/71/28 22/72/28
f 24/73/29 33/74/29 21/75/29
f 22/76/30 35/77/30 23/78/30
f 30/79/31 33/80/31 29/81/31
f 31/82/32 34/83/32 30/79/32
f 32/84/33 35/85/33 31/82/33
f 29/81/34 36/86/34 32/84/34
f 38/87/35 40/88/35 39/89/35
f 30/90/36 39/91/36 31/92/36
f 31/93/37 40/94/37 32/95/37
f 29/96/38 38/97/38 30/98/38
f 3/99/39 42/100/39 41/101/39
f 7/102/40 41/101/40 43/103/40
f 5/104/41 43/103/41 44/105/41
f 1/106/42 44/105/42 42/100/42
f 47/107/43 46/108/43 45/109/43
f 5/110/44 47/111/44 7/112/44
f 3/113/45 46/114/45 1/115/45
f 1/116/46 48/117/46 5/118/46
f 9/1/47 10/119/47 41/2/47
f 10/4/48 11/120/48 43/5/48
f 11/7/49 12/121/49 44/8/49
f 12/10/50 9/122/50 42/11/50
f 7/13/51 47/123/51 45/14/51
f 6/16/52 20/124/52 17/17/52
f 4/19/53 10/23/53 9/20/53
f 8/22/54 11/25/54 10/23/54
f 6/24/55 12/26/55 11/25/55
f 2/21/56 9/20/56 12/26/56
f 15/27/57 27/125/57 28/28/57
f 4/30/58 18/126/58 19/31/58
f 8/33/59 19/127/59 20/34/59
f 2/36/60 17/128/60 18/37/60
f 14/39/61 18/43/61 17/40/61
f 15/42/62 19/45/62 18/43/62
f 16/44/63 20/46/63 19/45/63
f 13/41/64 17/40/64 20/46/64
f 23/47/65 35/129/65 36/48/65
f 13/50/66 25/130/66 26/51/66
f 16/53/67 28/131/67 25/54/67
f 14/56/68 26/132/68 27/57/68
f 22/59/69 26/63/69 25/60/69
f 23/62/70 27/65/70 26/63/70
f 24/64/71 28/66/71 27/65/71
f 21/61/72 25/60/72 28/66/72
f 32/67/73 40/133/73 37/68/73
f 21/70/74 33/134/74 34/71/74
f 24/73/75 36/135/75 33/74/75
f 22/76/76 34/136/76 35/77/76
f 30/79/77 34/83/77 33/80/77
f 31/82/78 35/85/78 34/83/78
f 32/84/79 36/86/79 35/85/79
f 29/81/80 33/80/80 36/86/80
f 38/87/81 37/137/81 40/88/81
f 30/90/82 38/138/82 39/91/82
f 31/93/83 39/139/83 40/94/83
f 29/96/84 37/140/84 38/97/84
f 3/99/85 1/106/85 42/100/85
f 7/102/86 3/99/86 41/101/86
f 5/104/87 7/102/87 43/103/87
f 1/106/88 5/104/88 44/105/88
f 47/107/89 48/141/89 46/108/89
f 5/110/90 48/142/90 47/111/90
f 3/113/91 45/143/91 46/114/91
f 1/116/92 46/144/92 48/117/92
