# Blender v3.2.1 OBJ File: 'Modeling.blend'
# www.blender.org
o SlimeNew_Cube
v -0.491116 0.057888 0.450545
v -0.466171 0.252277 0.430928
v -0.501452 0.148051 -0.510466
v -0.473486 0.354120 -0.461838
v 0.496602 0.034130 0.432827
v 0.473414 0.236468 0.417919
v 0.486923 0.123911 -0.520702
v 0.465967 0.338014 -0.476775
v -0.535990 0.249745 0.501221
v -0.544632 0.359229 -0.529494
v 0.535901 0.339377 -0.546182
v 0.544809 0.229980 0.487434
v -0.374969 0.358669 0.357392
v -0.380806 0.531244 -0.327843
v 0.379905 0.515195 -0.348095
v 0.385841 0.342830 0.339716
v -0.463326 0.368187 0.442207
v -0.470305 0.525260 -0.424347
v 0.467717 0.506134 -0.446114
v 0.474938 0.349290 0.424827
v -0.270957 0.407901 0.306918
v -0.273585 0.658952 -0.137448
v 0.287253 0.641317 -0.161617
v 0.289956 0.390384 0.283969
v -0.370476 0.413035 0.388972
v -0.375780 0.669472 -0.258417
v 0.384141 0.650273 -0.284385
v 0.389619 0.394070 0.365258
v -0.174166 0.433282 0.306882
v -0.171598 0.706638 0.071933
v 0.209669 0.687335 0.044030
v 0.207524 0.412639 0.282298
v -0.265096 0.428239 0.355367
v -0.264582 0.750129 -0.040424
v 0.294669 0.727489 -0.071993
v 0.294489 0.404742 0.326658
v -0.166419 0.440380 0.359401
v -0.161987 0.743994 0.146207
v 0.216445 0.722205 0.113029
v 0.212938 0.416000 0.329768
v -0.548705 0.158471 -0.555051
v -0.537528 0.051438 0.492622
v 0.532972 0.132610 -0.567238
v 0.543529 0.025915 0.473379
v -0.502291 0.060055 -0.516497
v -0.491872 -0.009290 0.454887
v 0.487029 0.031983 -0.521262
v 0.496024 -0.036738 0.434001
vt 0.448337 0.295300
vt 0.074340 0.213996
vt 0.448337 0.213996
vt 0.441282 0.293935
vt 0.076565 0.214649
vt 0.441282 0.214649
vt 0.463627 0.293063
vt 0.086638 0.211109
vt 0.463627 0.211109
vt 0.958525 0.294402
vt 0.582872 0.212738
vt 0.958525 0.212738
vt 0.054417 0.265994
vt 0.532659 0.227921
vt 0.532659 0.265994
vt 0.959813 0.304873
vt 0.581585 0.364873
vt 0.581585 0.304873
vt 0.026286 0.713763
vt 0.010172 0.484494
vt 0.026286 0.500474
vt 0.241351 0.713763
vt 0.010172 0.729743
vt 0.241351 0.500474
vt 0.257465 0.729743
vt 0.257465 0.484494
vt 0.408200 0.352237
vt 0.142066 0.396434
vt 0.142066 0.352237
vt 0.417517 0.293935
vt 0.100330 0.351183
vt 0.100330 0.293935
vt 0.439062 0.293063
vt 0.111203 0.352237
vt 0.111203 0.293063
vt 0.423967 0.295300
vt 0.098709 0.354004
vt 0.098709 0.295300
vt 0.046530 0.693685
vt 0.026286 0.500474
vt 0.046530 0.520552
vt 0.221106 0.693685
vt 0.026286 0.713763
vt 0.221106 0.520552
vt 0.241351 0.713763
vt 0.241351 0.500474
vt 0.373409 0.396434
vt 0.176856 0.436748
vt 0.176856 0.396434
vt 0.393349 0.354004
vt 0.129327 0.397850
vt 0.129327 0.354004
vt 0.924209 0.364873
vt 0.617189 0.415860
vt 0.617189 0.364873
vt 0.387659 0.351183
vt 0.130188 0.393941
vt 0.130188 0.351183
vt 0.069352 0.671052
vt 0.046530 0.520552
vt 0.069352 0.543185
vt 0.198285 0.671052
vt 0.046530 0.693685
vt 0.198285 0.543185
vt 0.221106 0.693685
vt 0.221106 0.520552
vt 0.837700 0.437577
vt 0.703697 0.462819
vt 0.703697 0.437577
vt 0.358835 0.397850
vt 0.163841 0.437844
vt 0.163841 0.397850
vt 0.868627 0.397406
vt 0.672770 0.437577
vt 0.672770 0.397406
vt 0.354001 0.393941
vt 0.163846 0.432943
vt 0.163846 0.393941
vt 0.089711 0.650861
vt 0.069352 0.543185
vt 0.089711 0.563376
vt 0.177926 0.650861
vt 0.069352 0.671052
vt 0.177926 0.563376
vt 0.198285 0.671052
vt 0.198285 0.543185
vt 0.089711 0.650861
vt 0.177926 0.563376
vt 0.177926 0.650861
vt 0.323974 0.432943
vt 0.193872 0.457450
vt 0.193872 0.432943
vt 0.342372 0.436748
vt 0.207893 0.462080
vt 0.207893 0.436748
vt 0.328044 0.437844
vt 0.194632 0.462975
vt 0.194632 0.437844
vt 0.042385 0.513340
vt 0.009507 0.730462
vt 0.009507 0.480462
vt 0.226630 0.513340
vt 0.259507 0.480462
vt 0.226630 0.697585
vt 0.259507 0.730462
vt 0.042385 0.697585
vt 0.226630 0.513340
vt 0.042385 0.697585
vt 0.042385 0.513340
vt 0.086498 0.264693
vt 0.564740 0.226619
vt 0.564740 0.264693
vt 0.111093 0.256883
vt 0.589335 0.218810
vt 0.589335 0.256883
vt 0.023744 0.256883
vt 0.501985 0.218810
vt 0.501985 0.256883
vt 0.074340 0.295300
vt 0.076565 0.293935
vt 0.086638 0.293063
vt 0.582872 0.294402
vt 0.054417 0.227921
vt 0.959813 0.364873
vt 0.408200 0.396434
vt 0.417517 0.351183
vt 0.439062 0.352237
vt 0.423967 0.354004
vt 0.373409 0.436748
vt 0.393349 0.397850
vt 0.924209 0.415860
vt 0.387659 0.393941
vt 0.837700 0.462819
vt 0.358835 0.437844
vt 0.868627 0.437577
vt 0.354001 0.432943
vt 0.089711 0.563376
vt 0.323974 0.457450
vt 0.342372 0.462080
vt 0.328044 0.462975
vt 0.226630 0.697585
vt 0.086498 0.226619
vt 0.111093 0.218810
vt 0.023744 0.218810
vn -0.9999 0.0073 0.0114
vn -0.0082 0.1264 -0.9919
vn 0.9998 -0.0130 -0.0115
vn 0.0161 -0.0688 0.9975
vn -0.0087 0.0685 -0.9976
vn 0.0121 -0.0971 0.9952
vn 0.0772 0.9907 0.1124
vn 0.0180 0.9982 0.0565
vn 0.0914 0.9895 0.1116
vn 0.0178 0.9970 0.0748
vn 0.9978 -0.0616 -0.0240
vn -0.0126 0.1795 -0.9837
vn 0.9999 -0.0129 -0.0098
vn -0.9998 0.0164 0.0101
vn 0.3188 0.9198 0.2289
vn 0.0189 0.9967 -0.0793
vn 0.3455 0.9110 0.2253
vn 0.0185 0.9953 -0.0949
vn 0.9916 -0.1103 -0.0682
vn -0.9995 0.0285 0.0157
vn 0.0096 -0.5029 0.8643
vn -0.0151 0.4269 -0.9042
vn 0.4095 0.7953 0.4469
vn 0.0339 0.9977 0.0581
vn 0.4738 0.7686 0.4300
vn 0.0279 0.9965 -0.0794
vn -0.0445 -0.9891 0.1402
vn -0.9976 0.0576 0.0384
vn -0.0129 -0.9214 0.3884
vn -0.0072 0.7211 -0.6928
vn 0.3464 0.6096 0.7130
vn 0.0706 0.9485 0.3087
vn 0.5880 0.5274 0.6133
vn 0.0580 0.9963 0.0637
vn 0.1043 0.5738 0.8123
vn 0.0121 0.8920 -0.4519
vn 0.9894 -0.0995 -0.1058
vn -0.9927 0.0836 0.0864
vn -0.1238 -0.9873 -0.0995
vn -0.0257 -0.9777 -0.2082
vn -0.0865 -0.9911 -0.1007
vn -0.0264 -0.9833 -0.1799
vn -0.0286 -0.9971 -0.0709
vn 0.9999 0.0012 -0.0100
vn -0.9999 0.0120 0.0119
vn 0.0183 0.0164 0.9997
vn -0.9998 0.0190 0.0104
vn -0.0135 0.1015 -0.9947
vn 0.9999 -0.0056 -0.0092
vn 0.0119 -0.0434 0.9990
vn -0.0046 0.0061 -1.0000
vn 0.0173 -0.0613 0.9980
vn -0.0292 0.9940 0.1058
vn 0.0190 0.9991 0.0387
vn -0.0122 0.9944 0.1053
vn 0.0190 0.9983 0.0548
vn 0.9996 -0.0231 -0.0175
vn -0.0183 0.2143 -0.9766
vn 0.9999 -0.0086 -0.0098
vn -0.9997 0.0233 0.0123
vn -0.2519 0.9519 0.1746
vn 0.0186 0.9970 -0.0755
vn -0.2357 0.9561 0.1741
vn 0.0183 0.9955 -0.0926
vn 0.9982 -0.0469 -0.0375
vn -0.9975 0.0632 0.0332
vn 0.0167 -0.4470 0.8944
vn -0.0192 0.4493 -0.8932
vn -0.3246 0.8785 0.3506
vn 0.0284 0.9951 0.0950
vn -0.3182 0.8810 0.3501
vn 0.0239 0.9992 -0.0336
vn -0.0579 -0.9953 0.0771
vn -0.9920 0.0984 0.0787
vn -0.0233 -0.9468 0.3209
vn -0.0091 0.7291 -0.6843
vn -0.3706 0.7208 0.5857
vn 0.0582 0.9295 0.3643
vn -0.2429 0.7540 0.6103
vn 0.0513 0.9789 0.1979
vn 0.1003 0.5708 0.8149
vn 0.0119 0.8927 -0.4505
vn 0.9959 -0.0594 -0.0678
vn -0.9857 0.1064 0.1310
vn 0.0531 -0.9942 -0.0938
vn -0.0260 -0.9792 -0.2013
vn 0.0920 -0.9913 -0.0943
vn -0.0267 -0.9853 -0.1687
vn -0.0292 -0.9970 -0.0714
vn 0.9999 -0.0083 -0.0100
vn -0.9999 0.0088 0.0114
vn 0.0229 0.0642 0.9977
s off
f 9/1/1 41/2/1 42/3/1
f 10/4/2 43/5/2 41/6/2
f 11/7/3 44/8/3 43/9/3
f 12/10/4 42/11/4 44/12/4
f 7/13/5 45/14/5 3/15/5
f 6/16/6 17/17/6 2/18/6
f 4/19/7 9/20/7 2/21/7
f 8/22/8 10/23/8 4/19/8
f 6/24/9 11/25/9 8/22/9
f 2/21/10 12/26/10 6/24/10
f 15/27/11 28/28/11 16/29/11
f 4/30/12 19/31/12 8/32/12
f 8/33/13 20/34/13 6/35/13
f 2/36/14 18/37/14 4/38/14
f 14/39/15 17/40/15 13/41/15
f 15/42/16 18/43/16 14/39/16
f 16/44/17 19/45/17 15/42/17
f 13/41/18 20/46/18 16/44/18
f 23/47/19 36/48/19 24/49/19
f 13/50/20 26/51/20 14/52/20
f 16/53/21 25/54/21 13/55/21
f 14/56/22 27/57/22 15/58/22
f 22/59/23 25/60/23 21/61/23
f 23/62/24 26/63/24 22/59/24
f 24/64/25 27/65/25 23/62/25
f 21/61/26 28/66/26 24/64/26
f 32/67/27 37/68/27 29/69/27
f 21/70/28 34/71/28 22/72/28
f 24/73/29 33/74/29 21/75/29
f 22/76/30 35/77/30 23/78/30
f 30/79/31 33/80/31 29/81/31
f 31/82/32 34/83/32 30/79/32
f 32/84/33 35/85/33 31/82/33
f 29/81/34 36/86/34 32/84/34
f 38/87/35 40/88/35 39/89/35
f 30/90/36 39/91/36 31/92/36
f 31/93/37 40/94/37 32/95/37
f 29/96/38 38/97/38 30/98/38
f 3/99/39 42/100/39 41/101/39
f 7/102/40 41/101/40 43/103/40
f 5/104/41 43/103/41 44/105/41
f 1/106/42 44/105/42 42/100/42
f 47/107/43 46/108/43 45/109/43
f 5/110/44 47/111/44 7/112/44
f 3/113/45 46/114/45 1/115/45
f 1/116/46 48/117/46 5/118/46
f 9/1/47 10/119/47 41/2/47
f 10/4/48 11/120/48 43/5/48
f 11/7/49 12/121/49 44/8/49
f 12/10/50 9/122/50 42/11/50
f 7/13/51 47/123/51 45/14/51
f 6/16/52 20/124/52 17/17/52
f 4/19/53 10/23/53 9/20/53
f 8/22/54 11/25/54 10/23/54
f 6/24/55 12/26/55 11/25/55
f 2/21/56 9/20/56 12/26/56
f 15/27/57 27/125/57 28/28/57
f 4/30/58 18/126/58 19/31/58
f 8/33/59 19/127/59 20/34/59
f 2/36/60 17/128/60 18/37/60
f 14/39/61 18/43/61 17/40/61
f 15/42/62 19/45/62 18/43/62
f 16/44/63 20/46/63 19/45/63
f 13/41/64 17/40/64 20/46/64
f 23/47/65 35/129/65 36/48/65
f 13/50/66 25/130/66 26/51/66
f 16/53/67 28/131/67 25/54/67
f 14/56/68 26/132/68 27/57/68
f 22/59/69 26/63/69 25/60/69
f 23/62/70 27/65/70 26/63/70
f 24/64/71 28/66/71 27/65/71
f 21/61/72 25/60/72 28/66/72
f 32/67/73 40/133/73 37/68/73
f 21/70/74 33/134/74 34/71/74
f 24/73/75 36/135/75 33/74/75
f 22/76/76 34/136/76 35/77/76
f 30/79/77 34/83/77 33/80/77
f 31/82/78 35/85/78 34/83/78
f 32/84/79 36/86/79 35/85/79
f 29/81/80 33/80/80 36/86/80
f 38/87/81 37/137/81 40/88/81
f 30/90/82 38/138/82 39/91/82
f 31/93/83 39/139/83 40/94/83
f 29/96/84 37/140/84 38/97/84
f 3/99/85 1/106/85 42/100/85
f 7/102/86 3/99/86 41/101/86
f 5/104/87 7/102/87 43/103/87
f 1/106/88 5/104/88 44/105/88
f 47/107/89 48/141/89 46/108/89
f 5/110/90 48/142/90 47/111/90
f 3/113/91 45/143/91 46/114/91
f 1/116/92 46/144/92 48/117/92
