# Blender v3.2.1 OBJ File: 'Modeling.blend'
# www.blender.org
o Flower_Cube.024
v 0.021141 1.226032 -0.034123
v 0.145537 1.309915 -0.029659
v 0.156001 1.303363 -0.050380
v 0.252933 1.066878 0.048936
v 0.032251 0.974453 -0.042819
v 0.261457 1.057528 0.030196
v 0.010741 1.205142 -0.057076
v 0.182111 0.990640 -0.006875
v 0.173900 1.004873 0.038763
v 0.304624 1.219323 0.123002
v 0.233782 1.153482 -0.045878
v 0.038686 0.981801 0.011285
v 0.216991 1.178464 -0.009456
v 0.155368 1.110178 -0.041922
v 0.127249 1.081317 -0.073089
v 0.337040 1.278069 0.072602
v 0.313787 1.312363 0.120273
v 0.145918 0.570845 -0.000868
v 0.272254 0.575374 -0.023871
v 0.257762 0.285364 -0.125828
v -0.010612 0.395826 -0.022331
v 0.222241 0.278774 -0.150763
v 0.112305 0.569372 -0.015391
v 0.137875 0.279281 -0.053656
v 0.277239 0.579975 -0.046212
v 0.430883 0.352538 -0.048384
v 0.251376 0.429281 -0.151606
v 0.012908 0.372239 0.030797
v 0.271281 0.431374 -0.112447
v 0.158182 0.420179 -0.118378
v 0.102790 0.428931 -0.120270
v 0.451174 0.451617 -0.036598
v 0.480308 0.438363 0.023248
v -0.070885 0.155053 0.019304
v -0.199175 0.404987 0.118515
v 0.002209 0.272943 -0.032797
v -0.210490 0.417229 0.100314
v -0.196686 0.085364 -0.000638
v -0.143856 0.114881 -0.035798
v -0.108504 0.401192 0.033039
v -0.094617 0.379039 0.073927
v -0.280580 0.118226 0.039868
v -0.240818 0.344515 0.257174
v -0.272908 0.304802 0.047680
v 0.000885 0.273318 0.031798
v -0.254614 0.276055 0.087616
v -0.188372 0.287293 -0.004236
v -0.148657 0.290442 -0.043687
v -0.283627 0.275854 0.276337
v -0.251841 0.264195 0.326172
v -0.166207 0.706796 0.152496
v -0.217496 0.697043 -0.040556
v -0.267597 1.073333 -0.046255
v 0.197312 0.753698 0.053549
v 0.147211 1.129988 0.047851
v 0.146023 0.743946 -0.139503
v 0.095922 1.120236 -0.145201
v 0.001107 -0.001489 -0.056216
v -0.011265 0.752275 -0.058571
v 0.059205 -0.001489 0.020081
v 0.042643 0.759169 0.007991
v -0.013454 -0.001489 0.053286
v -0.015775 0.754422 0.051116
v -0.081381 0.746464 -0.018089
v -0.216308 1.083085 0.146798
v -0.230021 0.791116 -0.041981
v 0.133498 0.838018 -0.140928
v 0.184787 0.847771 0.052125
v -0.178732 0.800868 0.151072
v 0.156960 0.856605 0.015257
v 0.296810 0.890229 -0.039082
v 0.295604 0.670682 -0.042303
v 0.222212 0.903376 -0.014544
v 0.193991 0.894912 -0.033891
v 0.186218 0.662937 -0.033394
v 0.422598 0.815133 0.058399
v 0.388423 0.770464 0.055304
v 0.123305 0.853863 -0.028391
v 0.288600 0.783016 -0.077251
v 0.094932 0.794975 0.026823
v 0.219615 0.769680 -0.056160
v 0.171281 0.774286 -0.071817
v 0.428540 0.839341 0.084776
v -0.167290 0.651695 0.076289
v -0.234119 0.620145 0.144917
v -0.110627 0.830723 0.043007
v -0.271821 0.839431 0.194399
v -0.172733 0.661059 0.048595
v -0.234051 0.892576 0.094621
v -0.219780 0.885739 0.132494
v -0.254030 0.789962 0.285820
v -0.256696 0.770428 0.060363
v -0.105836 0.842745 0.092732
v -0.259373 0.743176 0.165079
v -0.250207 0.778877 0.087496
v -0.309836 0.811111 0.298259
v -0.298737 1.137941 0.023352
v -0.290834 1.272308 0.015365
v -0.040769 1.278816 -0.074096
v -0.099149 1.014424 -0.026807
v -0.041674 1.269847 -0.095800
v -0.029385 1.152465 -0.048157
v -0.030272 1.166433 -0.002427
v -0.110781 1.435672 -0.077914
v -0.183725 1.034035 -0.018045
v -0.166183 1.257332 -0.106726
v -0.111752 1.040191 0.034021
v -0.157863 1.189451 -0.052681
v -0.153923 1.138810 -0.076284
v -0.217060 1.442463 -0.064500
v -0.204578 1.490322 -0.026729
v -0.263739 0.870266 0.171660
v -0.298084 0.903659 0.278250
v -0.237973 1.130474 0.203122
v -0.172485 0.955560 0.086692
v -0.271600 1.139679 0.209703
v -0.284749 0.875318 0.155116
v -0.208781 1.106017 0.141206
v -0.227879 1.123974 0.304493
v -0.319747 1.046868 0.228190
v -0.128934 0.990612 0.122863
v -0.286666 1.031695 0.248159
v -0.279139 1.021829 0.158941
v -0.262946 1.017295 0.116858
v -0.218055 1.071754 0.359939
v -0.164497 1.080275 0.358417
v -0.062154 -0.001489 -0.019847
v 0.052679 0.526330 0.026310
v -0.017367 0.525370 0.053072
v -0.062632 0.524191 -0.028654
v 0.010942 0.525218 -0.053704
vt 0.446739 0.643213
vt 0.486696 0.642128
vt 0.447524 0.642927
vt 0.458723 0.633839
vt 0.426246 0.638062
vt 0.441397 0.628312
vt 0.421909 0.622872
vt 0.453927 0.585760
vt 0.449030 0.575218
vt 0.430804 0.585882
vt 0.453691 0.575643
vt 0.431809 0.575327
vt 0.456648 0.596307
vt 0.493782 0.586149
vt 0.485931 0.587115
vt 0.455549 0.585883
vt 0.455503 0.595986
vt 0.376762 0.561841
vt 0.362204 0.564149
vt 0.386668 0.563925
vt 0.395735 0.566761
vt 0.362885 0.577255
vt 0.330733 0.575221
vt 0.361245 0.575235
vt 0.322939 0.574402
vt 0.005353 0.251611
vt 0.247503 0.331066
vt 0.005353 0.331066
vt 0.446734 0.607237
vt 0.485197 0.599045
vt 0.458664 0.616614
vt 0.446305 0.598459
vt 0.432458 0.602549
vt 0.383340 0.601315
vt 0.366056 0.598824
vt 0.386045 0.602023
vt 0.351897 0.614835
vt 0.371280 0.617529
vt 0.372188 0.618036
vt 0.330977 0.602643
vt 0.372009 0.609493
vt 0.359185 0.607339
vt 0.394518 0.614074
vt 0.405954 0.641249
vt 0.411663 0.662498
vt 0.383813 0.649653
vt 0.393052 0.631465
vt 0.402343 0.630051
vt 0.378857 0.640864
vt 0.426954 0.644971
vt 0.422005 0.636638
vt 0.361108 0.618881
vt 0.342653 0.621328
vt 0.360304 0.618879
vt 0.356680 0.637738
vt 0.360087 0.637282
vt 0.374032 0.635088
vt 0.382015 0.623878
vt 0.348951 0.630063
vt 0.319561 0.633292
vt 0.385213 0.627007
vt 0.362295 0.629059
vt 0.447663 0.620809
vt 0.460070 0.632438
vt 0.466486 0.624906
vt 0.446839 0.621799
vt 0.465751 0.625411
vt 0.428241 0.639174
vt 0.422782 0.623292
vt 0.484857 0.635607
vt 0.446725 0.629766
vt 0.481972 0.640411
vt 0.427333 0.595724
vt 0.438540 0.585211
vt 0.406844 0.583664
vt 0.482749 0.580178
vt 0.409678 0.581973
vt 0.431616 0.595793
vt 0.388671 0.584037
vt 0.365664 0.585152
vt 0.386997 0.582482
vt 0.365136 0.584292
vt 0.407473 0.575039
vt 0.378323 0.576027
vt 0.334441 0.580044
vt 0.385896 0.576246
vt 0.408959 0.575018
vt 0.438413 0.606750
vt 0.377458 0.606750
vt 0.438413 0.606750
vt 0.438413 0.633418
vt 0.377458 0.633418
vt 0.377458 0.633418
vt 0.405919 0.592740
vt 0.398977 0.608766
vt 0.398834 0.592740
vt 0.417368 0.608766
vt 0.406492 0.608766
vt 0.410703 0.592740
vt 0.398503 0.555740
vt 0.416894 0.555740
vt 0.409379 0.555740
vt 0.438413 0.613417
vt 0.438413 0.633418
vt 0.377458 0.613417
vt 0.377458 0.613417
vt 0.377458 0.606750
vt 0.438413 0.613417
vt 0.005353 0.225125
vt 0.247503 0.251611
vt 0.440065 0.608557
vt 0.455474 0.604257
vt 0.468300 0.612646
vt 0.452840 0.616922
vt 0.440074 0.615712
vt 0.433979 0.615314
vt 0.481026 0.599664
vt 0.472155 0.596725
vt 0.425074 0.611622
vt 0.371320 0.610039
vt 0.392131 0.614816
vt 0.334842 0.607628
vt 0.427742 0.644695
vt 0.404741 0.637870
vt 0.409348 0.646708
vt 0.423097 0.635865
vt 0.404915 0.628221
vt 0.423877 0.656122
vt 0.410314 0.659394
vt 0.350587 0.630831
vt 0.332606 0.636783
vt 0.367937 0.628193
vt 0.325346 0.632451
vt 0.417225 0.592740
vt 0.411276 0.608766
vt 0.404595 0.555740
vt 0.247503 0.225125
vn 0.1770 0.9606 -0.2144
vn -0.6442 -0.2385 0.7268
vn -0.2192 -0.0805 -0.9723
vn -0.2063 0.0345 -0.9779
vn 0.1117 -0.9885 0.1022
vn 0.5940 0.7965 -0.1128
vn 0.3970 0.4793 -0.7827
vn -0.4728 -0.4593 0.7520
vn -0.4806 -0.1656 -0.8612
vn 0.4852 -0.8744 -0.0050
vn -0.9982 0.0428 -0.0414
vn 0.9572 0.2893 0.0033
vn 0.2565 0.0488 0.9653
vn -0.4821 -0.2518 0.8391
vn 0.0665 0.1882 0.9799
vn 0.0973 -0.9369 -0.3359
vn -0.4020 0.8625 0.3072
vn -0.9553 -0.2404 -0.1723
vn 0.9475 0.1480 0.2835
vn -0.1230 0.0123 -0.9923
vn 0.4522 -0.0067 0.8919
vn -0.3908 -0.6798 0.6206
vn -0.2352 0.5069 0.8293
vn -0.3567 -0.9181 0.1727
vn 0.2033 0.9396 -0.2753
vn 0.2389 -0.8016 -0.5481
vn 0.7004 -0.2219 -0.6783
vn 0.6537 -0.7547 -0.0556
vn 0.9111 -0.3942 0.1205
vn 0.6282 -0.3640 -0.6877
vn 0.4677 -0.6874 0.5557
vn -0.1011 0.0972 0.9901
vn 0.0978 -0.9449 0.3123
vn 0.6704 -0.4956 0.5522
vn 0.2226 0.1936 0.9555
vn -0.9014 0.1011 0.4210
vn 0.2537 -0.4656 -0.8478
vn 0.3904 0.8270 -0.4045
vn 0.8280 -0.1818 -0.5305
vn -0.9911 -0.0481 0.1244
vn 0.8750 -0.0721 0.4787
vn -0.2557 0.5592 0.7886
vn -0.6195 0.1979 0.7596
vn 0.0995 0.2191 -0.9706
vn -0.0264 0.9802 0.1960
vn 0.0072 -0.5239 0.8517
vn -0.4778 0.7390 -0.4750
vn -0.5943 -0.6193 -0.5131
vn 0.5031 -0.6764 -0.5379
vn 0.7192 -0.3900 0.5751
vn -0.4974 -0.3689 0.7852
vn -0.5719 -0.2999 -0.7635
vn 0.4833 0.8299 0.2788
vn 0.5048 -0.1025 -0.8571
vn -0.6639 0.5289 0.5287
vn 0.8807 -0.1260 -0.4566
vn -0.6488 0.4830 -0.5880
vn 0.6579 0.2340 0.7159
vn -0.0436 -0.0872 0.9952
vn -0.1688 0.5842 -0.7939
vn -0.3932 0.5598 -0.7294
vn 0.3644 0.8617 0.3530
vn -0.1852 0.0251 0.9824
vn 0.8122 -0.0231 0.5829
vn 0.2225 0.8674 0.4451
vn 0.7570 0.6467 0.0933
vn 0.9882 -0.1520 -0.0190
vn 0.1224 0.5348 -0.8360
vn -0.7577 -0.5475 0.3552
vn -0.1221 -0.8792 0.4605
vn -0.8447 0.5345 0.0281
vn 0.6790 -0.3435 -0.6488
vn -0.6404 0.5491 0.5369
vn 0.0670 -0.0430 -0.9968
vn -0.1970 -0.5113 0.8365
vn 0.2959 -0.3410 0.8923
vn -0.5871 0.0579 -0.8075
vn 0.1320 -0.9911 0.0150
vn -0.1320 0.9911 -0.0150
vn -0.8701 -0.0964 0.4833
vn -0.0973 0.9950 -0.0222
vn -0.3221 -0.0162 -0.9466
vn 0.0000 -1.0000 -0.0000
vn 0.9575 0.1235 -0.2606
vn -0.2565 -0.0488 -0.9653
vn -0.9575 -0.1235 0.2606
vn -0.0220 -0.2982 -0.9542
vn 0.0198 0.9051 -0.4248
vn 0.5483 -0.2582 0.7954
vn -0.8523 -0.2691 -0.4485
vn -0.4601 0.8333 0.3066
vn 0.4921 0.5833 -0.6462
vn -0.5261 -0.2920 0.7988
vn 0.7908 -0.5950 -0.1437
vn 0.6724 0.2020 -0.7121
vn -0.0687 0.3393 -0.9382
vn 0.7255 -0.5806 0.3695
vn -0.2645 0.3342 -0.9046
vn 0.5546 0.0040 0.8321
vn -0.5993 0.6819 0.4193
vn 0.5983 0.3255 0.7322
vn -0.9434 0.2393 -0.2297
vn 0.3625 0.9315 0.0316
vn 0.0021 -0.0864 0.9963
vn 0.9817 0.1589 -0.1050
vn -0.2347 0.3026 -0.9238
vn -0.9202 0.2959 -0.2562
vn 0.9390 -0.3439 -0.0073
vn 0.1535 -0.4203 0.8943
vn 0.7922 -0.0818 0.6048
vn 0.1085 -0.2368 -0.9655
vn -0.6600 -0.4413 -0.6080
vn 0.9946 0.0748 -0.0724
vn 0.8917 -0.4278 0.1480
vn 0.4677 0.0250 0.8835
vn -0.1765 -0.9189 0.3527
vn 0.8964 0.3952 -0.2007
vn 0.2372 0.5417 0.8064
vn 0.2400 -0.2657 -0.9337
vn 0.1213 0.0782 0.9895
vn -0.9304 0.3435 -0.1277
vn -0.1108 0.1920 -0.9751
vn -0.6932 -0.2457 -0.6776
vn -0.0579 0.6277 -0.7763
vn -0.5421 -0.2852 -0.7904
vn -0.2654 0.4216 0.8670
vn -0.6691 0.2048 -0.7143
vn 0.9506 -0.0119 0.3100
vn 0.8225 0.5415 0.1739
vn 0.2702 0.9622 0.0348
vn 0.2531 0.1064 0.9616
vn 0.8685 -0.4816 -0.1174
vn -0.0973 0.3182 -0.9430
vn 0.1586 -0.9853 0.0637
vn -0.7605 0.4000 0.5115
vn -0.9828 -0.1720 -0.0668
vn -0.0943 0.7163 0.6914
vn -0.4175 -0.1761 -0.8915
vn 0.1299 -0.4154 0.9003
vn 0.5938 0.0027 0.8046
vn 0.8866 -0.0144 -0.4623
vn 0.7725 0.0620 -0.6320
vn 0.3569 0.0030 0.9342
vn -0.4999 -0.0010 -0.8661
vn -0.8748 0.0073 0.4844
vn 0.4419 -0.3391 -0.8305
vn 0.5090 -0.7914 0.3384
vn -0.1865 -0.2795 0.9419
vn 0.0768 -0.9892 0.1252
vn -0.8186 0.0363 0.5733
vn 0.5665 0.2706 -0.7783
vn 0.9187 -0.3500 0.1829
vn -0.8897 -0.0550 0.4532
vn -0.4730 0.4819 0.7376
vn 0.0491 -0.0045 -0.9988
vn -0.0382 0.9992 -0.0130
vn 0.1642 -0.5983 0.7843
vn -0.4858 0.7447 -0.4576
vn -0.6249 -0.7777 -0.0686
vn -0.3923 -0.0479 0.9186
vn 0.4353 0.0179 -0.9001
vn -0.3937 0.2434 0.8865
vn 0.4791 0.3084 0.8218
vn -0.1844 0.5961 -0.7815
vn -0.4199 0.6148 -0.6676
vn 0.3638 0.8652 0.3452
vn -0.1489 -0.0141 0.9887
vn 0.7599 0.6499 0.0118
vn 0.9065 -0.4120 0.0926
vn -0.8824 0.4682 0.0464
vn 0.7341 -0.6788 0.0190
vn 0.5355 -0.7935 0.2891
vn -0.4845 -0.0525 -0.8732
vn -0.7263 0.0109 0.6873
vn -0.0967 0.9950 -0.0247
vn -0.4984 0.0134 -0.8669
vn -0.0532 -0.3321 -0.9417
vn 0.4768 -0.3268 0.8160
vn -0.7447 -0.2290 -0.6269
vn -0.4602 0.8347 0.3024
vn 0.2713 0.8994 0.3428
vn -0.5505 -0.0362 0.8340
vn 0.7209 -0.1645 -0.6732
vn -0.0341 0.3056 -0.9515
vn 0.9672 0.1672 0.1912
vn 0.3474 0.9033 -0.2518
vn -0.2598 -0.8965 0.3589
vn 0.4004 0.8363 0.3746
vn 0.9223 -0.2731 -0.2736
vn 0.9629 -0.2698 -0.0104
vn 0.2426 -0.3429 -0.9075
vn 0.9961 0.0882 -0.0076
vn 0.8288 -0.4325 0.3549
vn -0.1919 -0.4345 -0.8800
vn 0.4784 -0.0015 0.8782
vn -0.7013 -0.0303 -0.7123
vn 0.0729 0.1369 -0.9879
vn -0.5667 -0.0156 -0.8238
vn -0.6771 0.5481 -0.4910
vn 0.9917 0.1068 0.0719
vn 0.3780 0.3946 -0.8375
vn 0.6617 0.0356 -0.7489
vn -0.6544 0.1594 0.7392
vn -0.7627 0.4816 0.4316
vn -0.8892 0.0134 -0.4572
vn 0.3544 0.0885 0.9309
vn 0.7955 0.0170 -0.6057
vn 0.8866 0.0018 -0.4625
vn 0.4156 -0.0056 0.9095
vn -0.3212 -0.0517 -0.9456
vn -0.8323 -0.0060 0.5543
s off
f 2/1/1 17/2/1 3/3/1
f 13/4/2 17/2/2 2/1/2
f 7/5/3 15/6/3 5/7/3
f 27/8/4 22/9/4 31/10/4
f 22/9/5 20/11/5 24/12/5
f 25/13/6 33/14/6 32/15/6
f 27/8/7 25/13/7 32/15/7
f 29/16/8 33/14/8 19/17/8
f 38/18/9 42/19/9 39/20/9
f 38/18/10 39/20/10 34/21/10
f 44/22/11 42/19/11 49/23/11
f 46/24/12 50/25/12 38/18/12
f 69/26/13 55/27/13 65/28/13
f 81/29/14 83/30/14 73/31/14
f 72/32/15 81/29/15 75/33/15
f 84/34/16 85/35/16 88/36/16
f 87/37/17 90/38/17 89/39/17
f 85/35/18 96/40/18 92/41/18
f 94/42/19 96/40/19 85/35/19
f 88/36/20 92/41/20 86/43/20
f 108/44/21 111/45/21 98/46/21
f 105/47/22 107/48/22 97/49/22
f 99/50/23 108/44/23 103/51/23
f 112/52/24 113/53/24 117/54/24
f 116/55/25 114/56/25 118/57/25
f 112/52/26 117/54/26 115/58/26
f 122/59/27 126/60/27 113/53/27
f 115/58/28 121/61/28 112/52/28
f 114/56/29 122/59/29 123/62/29
f 8/63/30 11/64/30 6/65/30
f 9/66/31 6/65/31 4/67/31
f 1/68/32 13/4/32 2/1/32
f 12/69/33 8/63/33 9/66/33
f 4/67/34 6/65/34 10/70/34
f 12/69/35 14/71/35 1/68/35
f 17/2/36 4/67/36 10/70/36
f 15/6/37 8/63/37 5/7/37
f 16/72/38 3/3/38 17/2/38
f 16/72/39 6/65/39 11/64/39
f 1/68/40 5/7/40 12/69/40
f 10/70/41 16/72/41 17/2/41
f 12/69/42 9/66/42 14/71/42
f 14/71/43 4/67/43 13/4/43
f 7/5/44 11/64/44 15/6/44
f 23/73/45 19/17/45 25/13/45
f 19/17/46 30/74/46 29/16/46
f 7/5/47 2/1/47 3/3/47
f 24/12/48 21/75/48 22/9/48
f 20/11/49 22/9/49 26/76/49
f 28/77/50 30/74/50 18/78/50
f 29/16/51 26/76/51 33/14/51
f 31/10/52 22/9/52 21/75/52
f 25/13/53 19/17/53 33/14/53
f 32/15/54 22/9/54 27/8/54
f 18/78/55 21/75/55 28/77/55
f 26/76/56 32/15/56 33/14/56
f 23/73/57 31/10/57 21/75/57
f 28/77/58 24/12/58 30/74/58
f 30/74/59 20/11/59 29/16/59
f 31/10/60 25/13/60 27/8/60
f 40/79/61 44/22/61 37/80/61
f 41/81/62 37/80/62 35/82/62
f 38/18/63 45/83/63 47/84/63
f 47/84/64 46/24/64 38/18/64
f 35/82/65 37/80/65 43/85/65
f 45/83/66 40/79/66 41/81/66
f 46/24/67 43/85/67 50/25/67
f 48/86/68 40/79/68 36/87/68
f 49/23/69 42/19/69 50/25/69
f 38/18/70 50/25/70 42/19/70
f 43/85/71 44/22/71 49/23/71
f 39/20/72 45/83/72 34/21/72
f 43/85/73 49/23/73 50/25/73
f 39/20/74 48/86/74 36/87/74
f 45/83/75 41/81/75 47/84/75
f 46/24/76 41/81/76 35/82/76
f 48/86/77 42/19/77 44/22/77
f 54/88/78 52/89/78 56/90/78
f 55/91/79 53/92/79 65/93/79
f 129/94/80 64/95/80 130/96/80
f 61/97/81 64/95/81 63/98/81
f 131/99/82 127/100/82 130/96/82
f 60/101/83 127/100/83 58/102/83
f 68/103/84 57/104/84 55/91/84
f 57/104/85 66/105/85 53/92/85
f 53/92/86 69/106/86 65/93/86
f 66/105/86 51/107/86 69/106/86
f 67/108/85 52/89/85 66/105/85
f 54/88/84 67/108/84 68/103/84
f 51/109/13 68/110/13 69/26/13
f 66/105/78 68/103/78 69/106/78
f 72/32/87 82/111/87 79/112/87
f 73/31/88 71/113/88 74/114/88
f 70/115/89 81/29/89 73/31/89
f 75/33/90 78/116/90 82/111/90
f 78/116/91 73/31/91 74/114/91
f 76/117/92 73/31/92 83/30/92
f 77/118/93 81/29/93 72/32/93
f 72/32/94 76/117/94 77/118/94
f 79/112/95 71/113/95 76/117/95
f 82/111/96 71/113/96 79/112/96
f 77/118/97 76/117/97 83/30/97
f 78/116/98 74/114/98 82/111/98
f 75/33/99 81/29/99 80/119/99
f 78/116/100 80/119/100 70/115/100
f 95/120/101 85/35/101 84/34/101
f 92/41/102 87/37/102 89/39/102
f 93/121/103 89/39/103 90/38/103
f 93/121/104 95/120/104 84/34/104
f 91/122/105 94/42/105 87/37/105
f 92/41/106 89/39/106 86/43/106
f 96/40/107 87/37/107 92/41/107
f 93/121/108 88/36/108 86/43/108
f 93/121/109 90/38/109 95/120/109
f 94/42/110 90/38/110 87/37/110
f 101/123/111 109/124/111 106/125/111
f 88/36/112 85/35/112 92/41/112
f 99/50/113 102/126/113 101/123/113
f 103/51/114 100/127/114 102/126/114
f 108/44/115 98/46/115 97/49/115
f 105/47/116 100/127/116 107/48/116
f 99/50/117 101/123/117 104/128/117
f 107/48/118 108/44/118 97/49/118
f 100/127/119 109/124/119 102/126/119
f 104/128/120 108/44/120 99/50/120
f 110/129/121 98/46/121 111/45/121
f 104/128/122 106/125/122 110/129/122
f 109/124/123 98/46/123 106/125/123
f 110/129/124 111/45/124 104/128/124
f 105/47/125 97/49/125 109/124/125
f 103/51/126 108/44/126 107/48/126
f 118/57/127 120/130/127 116/55/127
f 112/52/128 122/59/128 113/53/128
f 121/61/129 118/57/129 114/56/129
f 114/56/130 116/55/130 119/131/130
f 121/61/131 123/62/131 112/52/131
f 119/131/132 122/59/132 114/56/132
f 115/58/133 124/132/133 118/57/133
f 120/130/134 126/60/134 125/133/134
f 119/131/135 120/130/135 125/133/135
f 120/130/136 117/54/136 113/53/136
f 125/133/137 126/60/137 119/131/137
f 115/58/138 117/54/138 124/132/138
f 121/61/139 114/56/139 123/62/139
f 129/94/140 61/97/140 63/98/140
f 128/134/141 58/102/141 131/99/141
f 61/97/142 131/99/142 59/135/142
f 62/136/143 128/134/143 129/94/143
f 59/135/144 130/96/144 64/95/144
f 127/100/145 129/94/145 130/96/145
f 69/26/13 68/110/13 55/27/13
f 8/63/146 15/6/146 11/64/146
f 9/66/147 8/63/147 6/65/147
f 1/68/148 14/71/148 13/4/148
f 12/69/149 5/7/149 8/63/149
f 17/2/150 13/4/150 4/67/150
f 16/72/151 11/64/151 3/3/151
f 16/72/152 10/70/152 6/65/152
f 1/68/153 7/5/153 5/7/153
f 14/71/154 9/66/154 4/67/154
f 7/5/155 3/3/155 11/64/155
f 23/73/156 18/78/156 19/17/156
f 19/17/157 18/78/157 30/74/157
f 7/5/158 1/68/158 2/1/158
f 24/12/159 28/77/159 21/75/159
f 29/16/160 20/11/160 26/76/160
f 32/15/161 26/76/161 22/9/161
f 18/78/162 23/73/162 21/75/162
f 30/74/163 24/12/163 20/11/163
f 31/10/164 23/73/164 25/13/164
f 40/79/165 48/86/165 44/22/165
f 41/81/166 40/79/166 37/80/166
f 38/18/167 34/21/167 45/83/167
f 45/83/168 36/87/168 40/79/168
f 46/24/169 35/82/169 43/85/169
f 43/85/170 37/80/170 44/22/170
f 39/20/171 36/87/171 45/83/171
f 46/24/172 47/84/172 41/81/172
f 48/86/173 39/20/173 42/19/173
f 54/88/78 51/107/78 52/89/78
f 55/91/79 57/104/79 53/92/79
f 129/94/174 63/98/174 64/95/174
f 61/97/175 59/135/175 64/95/175
f 131/99/176 58/102/176 127/100/176
f 60/101/83 62/136/83 127/100/83
f 68/103/84 67/108/84 57/104/84
f 57/104/85 67/108/85 66/105/85
f 53/92/86 66/105/86 69/106/86
f 66/105/86 52/89/86 51/107/86
f 67/108/85 56/90/85 52/89/85
f 54/88/84 56/90/84 67/108/84
f 51/109/13 54/137/13 68/110/13
f 66/105/78 67/108/78 68/103/78
f 72/32/177 75/33/177 82/111/177
f 70/115/178 80/119/178 81/29/178
f 75/33/179 80/119/179 78/116/179
f 78/116/180 70/115/180 73/31/180
f 76/117/181 71/113/181 73/31/181
f 77/118/182 83/30/182 81/29/182
f 72/32/183 79/112/183 76/117/183
f 82/111/184 74/114/184 71/113/184
f 95/120/185 94/42/185 85/35/185
f 93/121/186 86/43/186 89/39/186
f 91/122/187 96/40/187 94/42/187
f 96/40/188 91/122/188 87/37/188
f 93/121/189 84/34/189 88/36/189
f 94/42/190 95/120/190 90/38/190
f 101/123/191 102/126/191 109/124/191
f 99/50/192 103/51/192 102/126/192
f 103/51/193 107/48/193 100/127/193
f 100/127/194 105/47/194 109/124/194
f 104/128/195 111/45/195 108/44/195
f 110/129/196 106/125/196 98/46/196
f 104/128/197 101/123/197 106/125/197
f 109/124/198 97/49/198 98/46/198
f 118/57/199 124/132/199 120/130/199
f 112/52/200 123/62/200 122/59/200
f 121/61/201 115/58/201 118/57/201
f 119/131/202 126/60/202 122/59/202
f 120/130/203 113/53/203 126/60/203
f 119/131/204 116/55/204 120/130/204
f 120/130/205 124/132/205 117/54/205
f 129/94/206 128/134/206 61/97/206
f 128/134/207 60/101/207 58/102/207
f 61/97/208 128/134/208 131/99/208
f 62/136/209 60/101/209 128/134/209
f 59/135/210 131/99/210 130/96/210
f 127/100/211 62/136/211 129/94/211
