# Blender v3.2.1 OBJ File: 'Modeling.blend'
# www.blender.org
o Flower_Cube.024
v 0.042979 1.218463 -0.028245
v 0.157429 1.300033 -0.021273
v 0.164865 1.294682 -0.043070
v 0.289638 1.060142 0.037060
v 0.049774 0.972381 -0.043882
v 0.296651 1.051746 0.016412
v 0.032610 1.198593 -0.052543
v 0.206133 0.981020 -0.011153
v 0.199682 0.994980 0.035047
v 0.388361 1.212575 0.078760
v 0.256170 1.149073 -0.055379
v 0.057466 0.979581 0.010077
v 0.241772 1.171905 -0.016597
v 0.178455 1.102835 -0.045567
v 0.148608 1.075103 -0.076146
v 0.378216 1.275246 0.019400
v 0.395295 1.305586 0.072098
v 0.148413 0.570432 0.018429
v 0.280447 0.574629 0.002298
v 0.269286 0.284684 -0.100575
v -0.009064 0.395989 -0.022528
v 0.235749 0.278219 -0.127509
v 0.116405 0.569036 -0.000326
v 0.143171 0.278762 -0.038631
v 0.286441 0.579219 -0.020350
v 0.443797 0.351332 -0.029529
v 0.264982 0.428629 -0.128340
v 0.011697 0.372166 0.031490
v 0.282045 0.430643 -0.086329
v 0.170662 0.419814 -0.098040
v 0.116136 0.428739 -0.106764
v 0.464143 0.450338 -0.021971
v 0.496529 0.437043 0.036169
v -0.070516 0.155131 0.023985
v -0.218018 0.404987 0.124746
v 0.003851 0.272946 -0.032634
v -0.226527 0.417229 0.104174
v -0.198402 0.085364 0.009676
v -0.144425 0.114914 -0.026636
v -0.108440 0.401227 0.043271
v -0.098951 0.379079 0.087865
v -0.286138 0.118226 0.040307
v -0.335083 0.344515 0.245945
v -0.281734 0.304802 0.040148
v -0.000725 0.273305 0.031806
v -0.269936 0.276055 0.081979
v -0.188694 0.287299 0.008120
v -0.151354 0.290442 -0.033156
v -0.388889 0.275854 0.232200
v -0.384474 0.264195 0.295987
v -0.172567 0.711486 0.138079
v -0.205543 0.705039 -0.059066
v -0.241369 1.082944 -0.065433
v 0.200172 0.745753 0.074611
v 0.164346 1.123659 0.068244
v 0.167196 0.739306 -0.122533
v 0.131370 1.117211 -0.128900
v 0.004222 -0.001489 -0.056068
v 0.002403 0.752829 -0.057188
v 0.058001 -0.001489 0.023332
v 0.050788 0.757307 0.014365
v -0.016387 -0.001489 0.052458
v -0.011536 0.754312 0.051955
v -0.070844 0.749180 -0.023075
v -0.208393 1.089392 0.131712
v -0.214499 0.799515 -0.060658
v 0.158240 0.833782 -0.124125
v 0.191215 0.840230 0.073020
v -0.181524 0.805963 0.136487
v 0.170254 0.861150 0.029640
v 0.335883 0.860545 0.003533
v 0.265267 0.638419 -0.002436
v 0.256786 0.897650 0.007433
v 0.228085 0.894206 -0.015679
v 0.166812 0.662321 -0.012836
v 0.395355 0.725064 0.133335
v 0.354180 0.692242 0.110928
v 0.140166 0.855695 -0.015458
v 0.302136 0.744374 -0.036409
v 0.099951 0.797657 0.036672
v 0.230021 0.756908 -0.030216
v 0.186959 0.768201 -0.052431
v 0.397811 0.741975 0.164908
v -0.164983 0.652817 0.053615
v -0.246778 0.620355 0.106105
v -0.103339 0.831780 0.029459
v -0.296682 0.843751 0.145922
v -0.164231 0.662461 0.025198
v -0.233899 0.893943 0.059322
v -0.226887 0.886707 0.099355
v -0.308614 0.784254 0.246063
v -0.250608 0.772318 0.019962
v -0.107457 0.843241 0.079295
v -0.277785 0.744178 0.120080
v -0.248966 0.780432 0.047911
v -0.368329 0.783808 0.259968
v -0.239531 1.178317 0.031922
v -0.211865 1.295188 0.058321
v 0.049945 1.273528 -0.010015
v -0.060266 1.026369 -0.017141
v 0.050299 1.272684 -0.032689
v 0.035968 1.149423 -0.021132
v 0.034333 1.157564 0.026116
v 0.023335 1.413843 0.054382
v -0.139922 1.061347 -0.010362
v -0.072368 1.292358 -0.048128
v -0.071822 1.048080 0.045452
v -0.082490 1.211213 -0.026629
v -0.086717 1.163330 -0.055378
v -0.074196 1.450534 0.065000
v -0.056438 1.472829 0.120322
v -0.278389 0.877012 0.128529
v -0.345463 0.909064 0.219619
v -0.255365 1.135477 0.174167
v -0.170205 0.960120 0.062826
v -0.289077 1.145704 0.170045
v -0.295564 0.883026 0.107644
v -0.208917 1.111227 0.115442
v -0.295340 1.125550 0.288533
v -0.346128 1.054003 0.167412
v -0.132746 0.993123 0.106885
v -0.322209 1.037195 0.196748
v -0.285809 1.029200 0.115679
v -0.262368 1.024653 0.077414
v -0.322918 1.070490 0.336129
v -0.278294 1.077021 0.366285
v -0.060959 -0.001489 -0.023261
v 0.054718 0.525480 0.028135
v -0.016048 0.525479 0.052946
v -0.059045 0.525100 -0.030004
v 0.015202 0.525114 -0.053006
vt 0.446739 0.643213
vt 0.486696 0.642128
vt 0.447524 0.642927
vt 0.458723 0.633839
vt 0.426246 0.638062
vt 0.441397 0.628312
vt 0.421909 0.622872
vt 0.453927 0.585760
vt 0.449030 0.575218
vt 0.430804 0.585882
vt 0.453691 0.575643
vt 0.431809 0.575327
vt 0.456648 0.596307
vt 0.493782 0.586149
vt 0.485931 0.587115
vt 0.455549 0.585883
vt 0.455503 0.595986
vt 0.376762 0.561841
vt 0.362204 0.564149
vt 0.386668 0.563925
vt 0.395735 0.566761
vt 0.362885 0.577255
vt 0.330733 0.575221
vt 0.361245 0.575235
vt 0.322939 0.574402
vt 0.005353 0.251611
vt 0.247503 0.331066
vt 0.005353 0.331066
vt 0.446734 0.607237
vt 0.485197 0.599045
vt 0.458664 0.616614
vt 0.446305 0.598459
vt 0.432458 0.602549
vt 0.383340 0.601315
vt 0.366056 0.598824
vt 0.386045 0.602023
vt 0.351897 0.614835
vt 0.371280 0.617529
vt 0.372188 0.618036
vt 0.330977 0.602643
vt 0.372009 0.609493
vt 0.359185 0.607339
vt 0.394518 0.614074
vt 0.405954 0.641249
vt 0.411663 0.662498
vt 0.383813 0.649653
vt 0.393052 0.631465
vt 0.402343 0.630051
vt 0.378857 0.640864
vt 0.426954 0.644971
vt 0.422005 0.636638
vt 0.361108 0.618881
vt 0.342653 0.621328
vt 0.360304 0.618879
vt 0.356680 0.637738
vt 0.360087 0.637282
vt 0.374032 0.635088
vt 0.382015 0.623878
vt 0.348951 0.630063
vt 0.319561 0.633292
vt 0.385213 0.627007
vt 0.362295 0.629059
vt 0.466486 0.624906
vt 0.460070 0.632438
vt 0.465751 0.625411
vt 0.447663 0.620809
vt 0.428241 0.639174
vt 0.446839 0.621799
vt 0.422782 0.623292
vt 0.484857 0.635607
vt 0.446725 0.629766
vt 0.481972 0.640411
vt 0.427333 0.595724
vt 0.438540 0.585211
vt 0.406844 0.583664
vt 0.482749 0.580178
vt 0.409678 0.581973
vt 0.431616 0.595793
vt 0.388671 0.584037
vt 0.365664 0.585152
vt 0.386997 0.582482
vt 0.365136 0.584292
vt 0.407473 0.575039
vt 0.378323 0.576027
vt 0.334441 0.580044
vt 0.385896 0.576246
vt 0.408959 0.575018
vt 0.438413 0.606750
vt 0.377458 0.606750
vt 0.438413 0.606750
vt 0.438413 0.633418
vt 0.377458 0.633418
vt 0.377458 0.633418
vt 0.405919 0.592740
vt 0.398977 0.608766
vt 0.398834 0.592740
vt 0.417368 0.608766
vt 0.406492 0.608766
vt 0.410703 0.592740
vt 0.398503 0.555740
vt 0.416894 0.555740
vt 0.409379 0.555740
vt 0.438413 0.613417
vt 0.438413 0.633418
vt 0.377458 0.613417
vt 0.377458 0.613417
vt 0.377458 0.606750
vt 0.438413 0.613417
vt 0.005353 0.225125
vt 0.247503 0.251611
vt 0.455474 0.604257
vt 0.468300 0.612646
vt 0.452840 0.616922
vt 0.440074 0.615712
vt 0.433979 0.615314
vt 0.440065 0.608557
vt 0.481026 0.599664
vt 0.472155 0.596725
vt 0.425074 0.611622
vt 0.371320 0.610039
vt 0.392131 0.614816
vt 0.334842 0.607628
vt 0.427742 0.644695
vt 0.404741 0.637870
vt 0.409348 0.646708
vt 0.423097 0.635865
vt 0.404915 0.628221
vt 0.423877 0.656122
vt 0.410314 0.659394
vt 0.350587 0.630831
vt 0.332606 0.636783
vt 0.367937 0.628193
vt 0.325346 0.632451
vt 0.417225 0.592740
vt 0.411276 0.608766
vt 0.404595 0.555740
vt 0.247503 0.225125
vn 0.0627 0.9740 -0.2177
vn -0.3540 -0.1997 0.9137
vn -0.2564 -0.0564 -0.9649
vn -0.1434 0.0224 -0.9894
vn 0.1011 -0.9886 0.1114
vn 0.5805 0.8022 -0.1399
vn 0.3618 0.5087 -0.7812
vn -0.4248 -0.4779 0.7688
vn -0.4130 -0.3016 -0.8593
vn 0.4791 -0.8778 -0.0021
vn -0.8744 0.0202 -0.4848
vn 0.8688 0.1465 0.4731
vn 0.1649 0.0322 0.9858
vn -0.7590 -0.0296 0.6504
vn -0.0512 0.2135 0.9756
vn 0.1702 -0.9345 -0.3126
vn -0.3942 0.8898 0.2299
vn -0.8723 -0.2576 -0.4156
vn 0.8488 0.1555 0.5053
vn 0.0634 0.0023 -0.9980
vn 0.2300 -0.4939 0.8385
vn -0.5509 -0.6557 0.5163
vn -0.2643 0.3191 0.9101
vn -0.3793 -0.9241 0.0459
vn 0.3037 0.9411 -0.1485
vn 0.3196 -0.8077 -0.4954
vn 0.9574 -0.2093 -0.1988
vn 0.6271 -0.7774 0.0492
vn 0.7973 -0.4498 0.4024
vn 0.4363 -0.4095 -0.8012
vn 0.4536 -0.7612 0.4635
vn -0.0591 -0.0025 0.9983
vn 0.0861 -0.9891 0.1197
vn 0.6813 -0.5677 0.4622
vn 0.2651 0.1684 0.9494
vn -0.5676 0.1459 0.8103
vn 0.2058 -0.4679 -0.8595
vn 0.2320 0.8086 -0.5407
vn 0.6735 -0.2364 -0.7003
vn -0.9886 -0.0366 0.1458
vn 0.9615 -0.0903 -0.2596
vn -0.2017 0.5606 0.8031
vn -0.5489 0.1589 0.8207
vn 0.0365 0.2206 -0.9747
vn -0.0365 0.9813 0.1892
vn -0.0385 -0.5241 0.8508
vn -0.5291 0.7645 -0.3681
vn -0.5417 -0.6265 -0.5604
vn 0.4614 -0.8006 -0.3824
vn 0.6476 -0.4040 0.6461
vn -0.4574 -0.3464 0.8190
vn -0.4870 -0.2726 -0.8298
vn 0.4800 0.8264 0.2945
vn 0.4771 -0.0976 -0.8734
vn -0.6993 0.5149 0.4958
vn 0.8518 -0.1365 -0.5057
vn -0.5701 0.4973 -0.6540
vn 0.5759 0.2194 0.7875
vn 0.4421 -0.1253 0.8882
vn -0.1154 0.5897 -0.7993
vn -0.3096 0.5808 -0.7529
vn 0.3092 0.8680 0.3886
vn -0.1240 0.0136 0.9922
vn 0.6745 -0.0267 0.7378
vn 0.0605 0.8686 0.4918
vn 0.7629 0.6289 0.1500
vn 0.8593 -0.2505 0.4460
vn 0.0647 0.5495 -0.8330
vn -0.8562 -0.5155 -0.0350
vn -0.1786 -0.8825 0.4351
vn -0.7552 0.5625 -0.3366
vn 0.6502 -0.3390 -0.6800
vn -0.7922 0.5883 0.1624
vn -0.0008 -0.0372 -0.9993
vn -0.1444 -0.5648 0.8125
vn 0.1975 -0.3793 0.9039
vn -0.4892 0.0108 -0.8721
vn 0.0944 -0.9954 0.0168
vn -0.0944 0.9954 -0.0168
vn -0.8861 -0.0609 0.4596
vn -0.0604 0.9980 -0.0205
vn -0.2959 -0.0112 -0.9552
vn 0.0000 -1.0000 0.0000
vn 0.9818 0.0903 -0.1672
vn -0.1649 -0.0322 -0.9858
vn -0.9818 -0.0903 0.1672
vn 0.0243 -0.3129 -0.9495
vn 0.3373 0.7751 -0.5343
vn 0.3551 -0.3040 0.8840
vn -0.7350 -0.1103 -0.6691
vn -0.3767 0.8619 0.3393
vn 0.8388 0.4501 -0.3063
vn -0.7661 -0.0783 0.6380
vn 0.6936 -0.5662 -0.4453
vn 0.8692 -0.0851 -0.4870
vn 0.1873 0.2703 -0.9444
vn 0.4278 -0.8102 0.4007
vn -0.1424 0.3197 -0.9368
vn 0.4244 -0.1187 0.8976
vn -0.6160 0.7180 0.3241
vn 0.4209 0.3150 0.8507
vn -0.8471 0.2654 -0.4604
vn 0.3557 0.9286 0.1055
vn -0.1833 -0.0768 0.9801
vn 0.9716 0.1337 0.1952
vn -0.0663 0.3155 -0.9466
vn -0.8738 0.2099 -0.4386
vn 0.9411 -0.3042 0.1477
vn -0.0069 -0.4345 0.9006
vn 0.5924 -0.0952 0.8000
vn 0.1313 0.0411 -0.9905
vn -0.5076 -0.4345 -0.7440
vn 0.9933 -0.1136 0.0197
vn 0.7829 -0.6080 0.1318
vn 0.3870 -0.2894 0.8755
vn -0.3728 -0.8958 0.2419
vn 0.9832 0.1825 0.0085
vn 0.2436 0.4053 0.8811
vn 0.1859 -0.4763 -0.8594
vn 0.0757 -0.4040 0.9116
vn -0.7475 0.6637 -0.0275
vn 0.1296 0.5778 -0.8058
vn -0.5733 0.3073 -0.7595
vn 0.2754 0.8577 -0.4341
vn -0.5013 -0.1169 -0.8574
vn -0.2296 0.3808 0.8957
vn -0.4450 0.3011 -0.8434
vn 0.7983 -0.0376 0.6011
vn 0.7763 0.4703 0.4198
vn 0.2661 0.9479 0.1753
vn 0.0777 0.0876 0.9931
vn 0.8269 -0.5061 0.2451
vn 0.0971 0.3494 -0.9319
vn -0.4401 -0.4843 0.7562
vn -0.8660 0.4950 0.0708
vn -0.9161 -0.1396 -0.3758
vn -0.4672 0.7004 0.5396
vn -0.2529 -0.1449 -0.9566
vn -0.0597 -0.4681 0.8817
vn 0.5167 -0.0065 0.8562
vn 0.8990 -0.0162 -0.4377
vn 0.8268 0.0362 -0.5613
vn 0.3309 -0.0011 0.9437
vn -0.4224 0.0058 -0.9064
vn -0.8878 0.0091 0.4601
vn 0.4756 -0.2843 -0.8325
vn 0.5530 -0.7730 0.3108
vn -0.1227 -0.2861 0.9503
vn -0.0074 -0.9575 0.2883
vn -0.5620 0.1007 0.8210
vn 0.2931 0.2615 -0.9196
vn 0.8366 -0.2992 -0.4589
vn -0.9024 -0.0521 0.4277
vn -0.3823 0.5038 0.7747
vn 0.0070 0.0886 -0.9960
vn -0.0338 0.9993 -0.0167
vn 0.1160 -0.5968 0.7940
vn -0.5158 0.7578 -0.3996
vn -0.6137 -0.7820 -0.1090
vn -0.3567 -0.0598 0.9323
vn 0.4317 -0.0199 -0.9018
vn -0.4972 0.2541 0.8296
vn -0.1346 0.4068 0.9036
vn -0.1289 0.5995 -0.7899
vn -0.3318 0.6194 -0.7115
vn 0.3093 0.8763 0.3694
vn -0.1111 -0.0002 0.9938
vn 0.7662 0.6406 0.0508
vn 0.7421 -0.4604 0.4871
vn -0.7391 0.6280 -0.2438
vn 0.7292 -0.6821 0.0556
vn 0.4652 -0.7943 0.3907
vn -0.4275 -0.0504 -0.9026
vn -0.7850 0.0182 0.6193
vn -0.0599 0.9980 -0.0219
vn -0.4495 0.0146 -0.8931
vn 0.0553 -0.3590 -0.9317
vn 0.3599 -0.3007 0.8832
vn -0.7246 -0.1091 -0.6804
vn -0.3577 0.9252 0.1268
vn 0.3678 0.7224 0.5855
vn -0.7591 -0.0393 0.6498
vn 0.8008 -0.4166 -0.4303
vn 0.2325 0.2016 -0.9515
vn 0.8823 0.1715 0.4384
vn 0.3902 0.9038 -0.1756
vn 0.0816 -0.9438 0.3202
vn 0.1141 0.8481 0.5175
vn 0.9380 -0.3351 -0.0889
vn 0.9283 -0.2995 0.2203
vn 0.2543 -0.1195 -0.9597
vn 0.9917 -0.1166 0.0544
vn 0.7035 -0.6211 0.3453
vn -0.0737 0.0253 -0.9970
vn 0.3121 -0.4887 0.8147
vn -0.5217 0.4923 -0.6968
vn 0.1899 0.5415 -0.8190
vn -0.4858 0.1028 -0.8680
vn -0.4891 0.5858 -0.6462
vn 0.9123 0.0784 0.4019
vn 0.5311 0.3968 -0.7487
vn 0.9696 -0.0449 -0.2406
vn -0.9903 0.0430 0.1320
vn -0.8488 0.5268 0.0447
vn -0.7278 0.0243 -0.6853
vn 0.3302 0.0615 0.9419
vn 0.8279 0.0103 -0.5608
vn 0.8990 -0.0108 -0.4378
vn 0.3646 -0.0062 0.9311
vn -0.2958 -0.0342 -0.9547
vn -0.8618 0.0001 0.5073
s off
f 2/1/1 17/2/1 3/3/1
f 13/4/2 17/2/2 2/1/2
f 7/5/3 15/6/3 5/7/3
f 27/8/4 22/9/4 31/10/4
f 22/9/5 20/11/5 24/12/5
f 25/13/6 33/14/6 32/15/6
f 27/8/7 25/13/7 32/15/7
f 29/16/8 33/14/8 19/17/8
f 38/18/9 42/19/9 39/20/9
f 38/18/10 39/20/10 34/21/10
f 44/22/11 42/19/11 49/23/11
f 46/24/12 50/25/12 38/18/12
f 69/26/13 55/27/13 65/28/13
f 81/29/14 83/30/14 73/31/14
f 72/32/15 81/29/15 75/33/15
f 84/34/16 85/35/16 88/36/16
f 87/37/17 90/38/17 89/39/17
f 85/35/18 96/40/18 92/41/18
f 94/42/19 96/40/19 85/35/19
f 88/36/20 92/41/20 86/43/20
f 108/44/21 111/45/21 98/46/21
f 105/47/22 107/48/22 97/49/22
f 99/50/23 108/44/23 103/51/23
f 112/52/24 113/53/24 117/54/24
f 116/55/25 114/56/25 118/57/25
f 112/52/26 117/54/26 115/58/26
f 122/59/27 126/60/27 113/53/27
f 115/58/28 121/61/28 112/52/28
f 114/56/29 122/59/29 123/62/29
f 6/63/30 15/6/30 11/64/30
f 4/65/31 8/66/31 6/63/31
f 1/67/32 13/4/32 2/1/32
f 5/7/33 9/68/33 12/69/33
f 4/65/34 6/63/34 10/70/34
f 12/69/35 14/71/35 1/67/35
f 10/70/36 13/4/36 4/65/36
f 15/6/37 8/66/37 5/7/37
f 16/72/38 3/3/38 17/2/38
f 16/72/39 6/63/39 11/64/39
f 1/67/40 5/7/40 12/69/40
f 10/70/41 16/72/41 17/2/41
f 12/69/42 9/68/42 14/71/42
f 14/71/43 4/65/43 13/4/43
f 7/5/44 11/64/44 15/6/44
f 23/73/45 19/17/45 25/13/45
f 19/17/46 30/74/46 29/16/46
f 7/5/47 2/1/47 3/3/47
f 24/12/48 21/75/48 22/9/48
f 20/11/49 22/9/49 26/76/49
f 28/77/50 30/74/50 18/78/50
f 29/16/51 26/76/51 33/14/51
f 31/10/52 22/9/52 21/75/52
f 25/13/53 19/17/53 33/14/53
f 32/15/54 22/9/54 27/8/54
f 18/78/55 21/75/55 28/77/55
f 26/76/56 32/15/56 33/14/56
f 23/73/57 31/10/57 21/75/57
f 28/77/58 24/12/58 30/74/58
f 29/16/59 24/12/59 20/11/59
f 31/10/60 25/13/60 27/8/60
f 40/79/61 44/22/61 37/80/61
f 41/81/62 37/80/62 35/82/62
f 38/18/63 45/83/63 47/84/63
f 47/84/64 46/24/64 38/18/64
f 35/82/65 37/80/65 43/85/65
f 45/83/66 40/79/66 41/81/66
f 46/24/67 43/85/67 50/25/67
f 48/86/68 40/79/68 36/87/68
f 49/23/69 42/19/69 50/25/69
f 38/18/70 50/25/70 42/19/70
f 49/23/71 37/80/71 44/22/71
f 39/20/72 45/83/72 34/21/72
f 43/85/73 49/23/73 50/25/73
f 39/20/74 48/86/74 36/87/74
f 45/83/75 41/81/75 47/84/75
f 46/24/76 41/81/76 35/82/76
f 48/86/77 42/19/77 44/22/77
f 54/88/78 52/89/78 56/90/78
f 55/91/79 53/92/79 65/93/79
f 129/94/80 64/95/80 130/96/80
f 61/97/81 64/95/81 63/98/81
f 131/99/82 127/100/82 130/96/82
f 60/101/83 127/100/83 58/102/83
f 68/103/84 57/104/84 55/91/84
f 57/104/85 66/105/85 53/92/85
f 53/92/86 69/106/86 65/93/86
f 66/105/86 51/107/86 69/106/86
f 67/108/85 52/89/85 66/105/85
f 54/88/84 67/108/84 68/103/84
f 51/109/13 68/110/13 69/26/13
f 66/105/78 68/103/78 69/106/78
f 75/33/87 79/111/87 72/32/87
f 73/31/88 71/112/88 74/113/88
f 70/114/89 81/29/89 73/31/89
f 75/33/90 78/115/90 82/116/90
f 78/115/91 73/31/91 74/113/91
f 76/117/92 73/31/92 83/30/92
f 77/118/93 81/29/93 72/32/93
f 77/118/94 79/111/94 76/117/94
f 79/111/95 71/112/95 76/117/95
f 82/116/96 71/112/96 79/111/96
f 77/118/97 76/117/97 83/30/97
f 78/115/98 74/113/98 82/116/98
f 75/33/99 81/29/99 80/119/99
f 78/115/100 80/119/100 70/114/100
f 95/120/101 85/35/101 84/34/101
f 92/41/102 87/37/102 89/39/102
f 93/121/103 89/39/103 90/38/103
f 93/121/104 95/120/104 84/34/104
f 91/122/105 94/42/105 87/37/105
f 92/41/106 89/39/106 86/43/106
f 96/40/107 87/37/107 92/41/107
f 84/34/108 86/43/108 93/121/108
f 93/121/109 90/38/109 95/120/109
f 94/42/110 90/38/110 87/37/110
f 101/123/111 109/124/111 106/125/111
f 88/36/112 85/35/112 92/41/112
f 99/50/113 102/126/113 101/123/113
f 103/51/114 100/127/114 102/126/114
f 108/44/115 98/46/115 97/49/115
f 105/47/116 100/127/116 107/48/116
f 99/50/117 101/123/117 104/128/117
f 107/48/118 108/44/118 97/49/118
f 102/126/119 105/47/119 109/124/119
f 104/128/120 108/44/120 99/50/120
f 110/129/121 98/46/121 111/45/121
f 104/128/122 106/125/122 110/129/122
f 106/125/123 97/49/123 98/46/123
f 110/129/124 111/45/124 104/128/124
f 105/47/125 97/49/125 109/124/125
f 103/51/126 108/44/126 107/48/126
f 118/57/127 120/130/127 116/55/127
f 112/52/128 122/59/128 113/53/128
f 121/61/129 118/57/129 114/56/129
f 114/56/130 116/55/130 119/131/130
f 121/61/131 123/62/131 112/52/131
f 119/131/132 122/59/132 114/56/132
f 115/58/133 124/132/133 118/57/133
f 125/133/134 113/53/134 126/60/134
f 119/131/135 120/130/135 125/133/135
f 120/130/136 117/54/136 113/53/136
f 125/133/137 126/60/137 119/131/137
f 115/58/138 117/54/138 124/132/138
f 121/61/139 114/56/139 123/62/139
f 129/94/140 61/97/140 63/98/140
f 128/134/141 58/102/141 131/99/141
f 61/97/142 131/99/142 59/135/142
f 62/136/143 128/134/143 129/94/143
f 59/135/144 130/96/144 64/95/144
f 127/100/145 129/94/145 130/96/145
f 69/26/13 68/110/13 55/27/13
f 6/63/146 8/66/146 15/6/146
f 4/65/147 9/68/147 8/66/147
f 1/67/148 14/71/148 13/4/148
f 5/7/149 8/66/149 9/68/149
f 10/70/150 17/2/150 13/4/150
f 16/72/151 11/64/151 3/3/151
f 16/72/152 10/70/152 6/63/152
f 1/67/153 7/5/153 5/7/153
f 14/71/154 9/68/154 4/65/154
f 7/5/155 3/3/155 11/64/155
f 23/73/156 18/78/156 19/17/156
f 19/17/157 18/78/157 30/74/157
f 7/5/158 1/67/158 2/1/158
f 24/12/159 28/77/159 21/75/159
f 29/16/160 20/11/160 26/76/160
f 32/15/161 26/76/161 22/9/161
f 18/78/162 23/73/162 21/75/162
f 29/16/163 30/74/163 24/12/163
f 31/10/164 23/73/164 25/13/164
f 40/79/165 48/86/165 44/22/165
f 41/81/166 40/79/166 37/80/166
f 38/18/167 34/21/167 45/83/167
f 45/83/168 36/87/168 40/79/168
f 46/24/169 35/82/169 43/85/169
f 49/23/170 43/85/170 37/80/170
f 39/20/171 36/87/171 45/83/171
f 46/24/172 47/84/172 41/81/172
f 48/86/173 39/20/173 42/19/173
f 54/88/78 51/107/78 52/89/78
f 55/91/79 57/104/79 53/92/79
f 129/94/174 63/98/174 64/95/174
f 61/97/175 59/135/175 64/95/175
f 131/99/176 58/102/176 127/100/176
f 60/101/83 62/136/83 127/100/83
f 68/103/84 67/108/84 57/104/84
f 57/104/85 67/108/85 66/105/85
f 53/92/86 66/105/86 69/106/86
f 66/105/86 52/89/86 51/107/86
f 67/108/85 56/90/85 52/89/85
f 54/88/84 56/90/84 67/108/84
f 51/109/13 54/137/13 68/110/13
f 66/105/78 67/108/78 68/103/78
f 75/33/177 82/116/177 79/111/177
f 70/114/178 80/119/178 81/29/178
f 75/33/179 80/119/179 78/115/179
f 78/115/180 70/114/180 73/31/180
f 76/117/181 71/112/181 73/31/181
f 77/118/182 83/30/182 81/29/182
f 77/118/183 72/32/183 79/111/183
f 82/116/184 74/113/184 71/112/184
f 95/120/185 94/42/185 85/35/185
f 93/121/186 86/43/186 89/39/186
f 91/122/187 96/40/187 94/42/187
f 96/40/188 91/122/188 87/37/188
f 84/34/189 88/36/189 86/43/189
f 94/42/190 95/120/190 90/38/190
f 101/123/191 102/126/191 109/124/191
f 99/50/192 103/51/192 102/126/192
f 103/51/193 107/48/193 100/127/193
f 102/126/194 100/127/194 105/47/194
f 104/128/195 111/45/195 108/44/195
f 110/129/196 106/125/196 98/46/196
f 104/128/197 101/123/197 106/125/197
f 106/125/198 109/124/198 97/49/198
f 118/57/199 124/132/199 120/130/199
f 112/52/200 123/62/200 122/59/200
f 121/61/201 115/58/201 118/57/201
f 119/131/202 126/60/202 122/59/202
f 125/133/203 120/130/203 113/53/203
f 119/131/204 116/55/204 120/130/204
f 120/130/205 124/132/205 117/54/205
f 129/94/206 128/134/206 61/97/206
f 128/134/207 60/101/207 58/102/207
f 61/97/208 128/134/208 131/99/208
f 62/136/209 60/101/209 128/134/209
f 59/135/210 131/99/210 130/96/210
f 127/100/211 62/136/211 129/94/211
