# Blender v3.2.1 OBJ File: 'Modeling.blend'
# www.blender.org
o Flower_Cube.024
v 0.083389 1.209327 -0.018993
v 0.198241 1.282573 -0.006019
v 0.204336 1.277543 -0.027640
v 0.325861 1.037273 0.041235
v 0.073267 0.966881 -0.039745
v 0.331761 1.029147 0.019892
v 0.072184 1.190829 -0.044582
v 0.232161 0.962044 -0.005017
v 0.226337 0.975998 0.041355
v 0.444823 1.185672 0.052075
v 0.292044 1.129739 -0.049641
v 0.080665 0.973328 0.014351
v 0.279374 1.151972 -0.009919
v 0.212110 1.086473 -0.039005
v 0.180599 1.061312 -0.070135
v 0.415255 1.251042 0.001026
v 0.453843 1.278470 0.042835
v 0.149788 0.569907 0.036289
v 0.287615 0.573675 0.024208
v 0.276694 0.283821 -0.078953
v -0.008037 0.396179 -0.022359
v 0.244648 0.277498 -0.106928
v 0.119397 0.568598 0.013867
v 0.146306 0.278116 -0.025405
v 0.294020 0.578254 0.001096
v 0.454590 0.349805 -0.022186
v 0.274132 0.427796 -0.108932
v 0.011351 0.372077 0.031861
v 0.289029 0.429720 -0.064144
v 0.179445 0.419313 -0.078712
v 0.126424 0.428443 -0.093457
v 0.475126 0.448724 -0.020408
v 0.513229 0.435327 0.034130
v -0.070631 0.155224 0.025354
v -0.226320 0.404987 0.124643
v 0.004683 0.272950 -0.032519
v -0.233282 0.417229 0.103235
v -0.198829 0.085364 0.012233
v -0.144327 0.114953 -0.023970
v -0.108693 0.401269 0.046480
v -0.101445 0.379127 0.092405
v -0.287549 0.118226 0.038278
v -0.371647 0.344515 0.226490
v -0.284495 0.304802 0.034580
v -0.001497 0.273290 0.031783
v -0.275726 0.276055 0.076950
v -0.188642 0.287307 0.011622
v -0.152003 0.290442 -0.030043
v -0.424028 0.275854 0.197801
v -0.432850 0.264195 0.262777
v -0.173714 0.717475 0.126640
v -0.191558 0.714218 -0.072524
v -0.210709 1.093361 -0.077009
v 0.203940 0.736147 0.092498
v 0.184790 1.115290 0.088012
v 0.186096 0.732889 -0.106665
v 0.166945 1.112032 -0.111151
v 0.005902 -0.001489 -0.055917
v 0.016385 0.753001 -0.054489
v 0.057275 -0.001489 0.025061
v 0.060236 0.754788 0.020752
v -0.017953 -0.001489 0.051943
v -0.004805 0.754063 0.053698
v -0.058705 0.752069 -0.025529
v -0.192864 1.096619 0.122154
v -0.196346 0.809004 -0.073645
v 0.181308 0.827675 -0.107787
v 0.199152 0.830932 0.091376
v -0.178501 0.812261 0.125518
v 0.185066 0.856997 0.045338
v 0.355583 0.835660 0.039109
v 0.252321 0.622747 0.020872
v 0.280231 0.884918 0.031644
v 0.252931 0.884650 0.005797
v 0.163957 0.660421 0.000504
v 0.369907 0.681832 0.174456
v 0.329851 0.655839 0.142409
v 0.157540 0.851669 -0.001435
v 0.309442 0.720638 -0.006525
v 0.109180 0.795535 0.046641
v 0.240317 0.745438 -0.008966
v 0.201575 0.760277 -0.034901
v 0.368344 0.696108 0.207151
v -0.157411 0.654378 0.033754
v -0.250341 0.622092 0.066235
v -0.091147 0.832940 0.017666
v -0.311587 0.850674 0.091846
v -0.150209 0.664099 0.005970
v -0.224794 0.896054 0.024809
v -0.225424 0.888691 0.065670
v -0.353025 0.776033 0.193219
v -0.235064 0.774780 -0.017900
v -0.103904 0.844168 0.065961
v -0.285608 0.746625 0.071495
v -0.238253 0.782726 0.009963
v -0.408261 0.745719 0.207656
v -0.200749 1.193146 0.043361
v -0.167920 1.298587 0.085881
v 0.097470 1.261767 0.033413
v -0.031368 1.030191 -0.006411
v 0.099774 1.264437 0.011442
v 0.075182 1.144159 0.004382
v 0.071256 1.148358 0.051970
v 0.079501 1.383444 0.122523
v -0.108000 1.071585 -0.001061
v -0.019187 1.297962 -0.007092
v -0.044770 1.048017 0.057035
v -0.037074 1.216469 -0.002011
v -0.043646 1.171495 -0.034742
v -0.012225 1.430548 0.133970
v 0.002591 1.439576 0.193736
v -0.276620 0.887230 0.098625
v -0.359962 0.920992 0.174829
v -0.252212 1.143970 0.152646
v -0.157591 0.966289 0.047981
v -0.284000 1.155653 0.142371
v -0.290514 0.894179 0.075428
v -0.195628 1.118419 0.099336
v -0.327043 1.134214 0.260857
v -0.344304 1.066413 0.125110
v -0.124536 0.997224 0.096808
v -0.327837 1.048272 0.158429
v -0.275805 1.039720 0.087064
v -0.248013 1.034557 0.052088
v -0.373189 1.079563 0.293588
v -0.341972 1.083809 0.337756
v -0.060233 -0.001489 -0.025079
v 0.058056 0.524418 0.028529
v -0.012632 0.525528 0.053539
v -0.055856 0.526136 -0.029291
v 0.018316 0.524973 -0.052502
vt 0.446739 0.643213
vt 0.486696 0.642128
vt 0.447524 0.642927
vt 0.458723 0.633839
vt 0.426246 0.638062
vt 0.441397 0.628312
vt 0.421909 0.622872
vt 0.453927 0.585760
vt 0.449030 0.575218
vt 0.430804 0.585882
vt 0.453691 0.575643
vt 0.431809 0.575327
vt 0.456648 0.596307
vt 0.493782 0.586149
vt 0.485931 0.587115
vt 0.455549 0.585883
vt 0.455503 0.595986
vt 0.376762 0.561841
vt 0.362204 0.564149
vt 0.386668 0.563925
vt 0.395735 0.566761
vt 0.362885 0.577255
vt 0.330733 0.575221
vt 0.361245 0.575235
vt 0.322939 0.574402
vt 0.005353 0.251611
vt 0.247503 0.331066
vt 0.005353 0.331066
vt 0.446734 0.607237
vt 0.485197 0.599045
vt 0.458664 0.616614
vt 0.446305 0.598459
vt 0.432458 0.602549
vt 0.383340 0.601315
vt 0.366056 0.598824
vt 0.386045 0.602023
vt 0.351897 0.614835
vt 0.371280 0.617529
vt 0.372188 0.618036
vt 0.330977 0.602643
vt 0.372009 0.609493
vt 0.359185 0.607339
vt 0.394518 0.614074
vt 0.405954 0.641249
vt 0.411663 0.662498
vt 0.383813 0.649653
vt 0.393052 0.631465
vt 0.402343 0.630051
vt 0.378857 0.640864
vt 0.426954 0.644971
vt 0.422005 0.636638
vt 0.361108 0.618881
vt 0.342653 0.621328
vt 0.360304 0.618879
vt 0.356680 0.637738
vt 0.360087 0.637282
vt 0.374032 0.635088
vt 0.382015 0.623878
vt 0.348951 0.630063
vt 0.319561 0.633292
vt 0.385213 0.627007
vt 0.362295 0.629059
vt 0.466486 0.624906
vt 0.460070 0.632438
vt 0.465751 0.625411
vt 0.447663 0.620809
vt 0.428241 0.639174
vt 0.446839 0.621799
vt 0.422782 0.623292
vt 0.484857 0.635607
vt 0.446725 0.629766
vt 0.481972 0.640411
vt 0.427333 0.595724
vt 0.438540 0.585211
vt 0.406844 0.583664
vt 0.482749 0.580178
vt 0.409678 0.581973
vt 0.431616 0.595793
vt 0.388671 0.584037
vt 0.365664 0.585152
vt 0.386997 0.582482
vt 0.365136 0.584292
vt 0.407473 0.575039
vt 0.378323 0.576027
vt 0.334441 0.580044
vt 0.385896 0.576246
vt 0.408959 0.575018
vt 0.438413 0.606750
vt 0.377458 0.606750
vt 0.438413 0.606750
vt 0.438413 0.633418
vt 0.377458 0.633418
vt 0.377458 0.633418
vt 0.398834 0.592740
vt 0.406492 0.608766
vt 0.398977 0.608766
vt 0.417368 0.608766
vt 0.410703 0.592740
vt 0.398503 0.555740
vt 0.416894 0.555740
vt 0.409379 0.555740
vt 0.438413 0.613417
vt 0.438413 0.633418
vt 0.377458 0.613417
vt 0.377458 0.613417
vt 0.377458 0.606750
vt 0.438413 0.613417
vt 0.005353 0.225125
vt 0.247503 0.251611
vt 0.455474 0.604257
vt 0.468300 0.612646
vt 0.452840 0.616922
vt 0.440074 0.615712
vt 0.433979 0.615314
vt 0.440065 0.608557
vt 0.481026 0.599664
vt 0.472155 0.596725
vt 0.425074 0.611622
vt 0.371320 0.610039
vt 0.392131 0.614816
vt 0.334842 0.607628
vt 0.427742 0.644695
vt 0.404741 0.637870
vt 0.409348 0.646708
vt 0.423097 0.635865
vt 0.404915 0.628221
vt 0.423877 0.656122
vt 0.410314 0.659394
vt 0.350587 0.630831
vt 0.332606 0.636783
vt 0.367937 0.628193
vt 0.325346 0.632451
vt 0.405919 0.592740
vt 0.417225 0.592740
vt 0.411276 0.608766
vt 0.404595 0.555740
vt 0.247503 0.225125
vn 0.0560 0.9758 -0.2112
vn -0.1880 -0.1458 0.9713
vn -0.2543 -0.0221 -0.9669
vn -0.1042 0.0072 -0.9945
vn 0.0918 -0.9887 0.1183
vn 0.5562 0.8091 -0.1898
vn 0.2918 0.5392 -0.7900
vn -0.3385 -0.4946 0.8005
vn -0.3804 -0.3478 -0.8569
vn 0.4783 -0.8782 0.0023
vn -0.7601 -0.0004 -0.6498
vn 0.7580 0.0863 0.6465
vn 0.0892 0.0163 0.9959
vn -0.8477 0.0904 0.5228
vn -0.1279 0.2225 0.9665
vn 0.2316 -0.9354 -0.2673
vn -0.3573 0.9201 0.1603
vn -0.7492 -0.2606 -0.6089
vn 0.7304 0.1790 0.6591
vn 0.2472 -0.0194 -0.9688
vn 0.0808 -0.6654 0.7421
vn -0.6348 -0.6416 0.4305
vn -0.3180 0.2242 0.9212
vn -0.4015 -0.9152 -0.0337
vn 0.3618 0.9302 -0.0618
vn 0.3502 -0.8187 -0.4550
vn 0.9660 -0.2282 0.1214
vn 0.5831 -0.8043 0.1148
vn 0.6715 -0.4975 0.5492
vn 0.4014 -0.4082 -0.8199
vn 0.4313 -0.7971 0.4227
vn -0.0669 -0.0713 0.9952
vn -0.0038 -0.9929 0.1189
vn 0.6946 -0.5872 0.4156
vn 0.2736 0.1315 0.9528
vn -0.3833 0.2422 0.8913
vn 0.1740 -0.4753 -0.8624
vn 0.1811 0.7373 -0.6508
vn 0.5921 -0.2868 -0.7531
vn -0.9908 0.0301 0.1319
vn 0.7711 -0.1369 -0.6219
vn -0.1602 0.5671 0.8079
vn -0.5208 0.1627 0.8380
vn 0.0665 0.1854 -0.9804
vn -0.0409 0.9822 0.1833
vn -0.0634 -0.5225 0.8503
vn -0.4891 0.8090 -0.3261
vn -0.4962 -0.6334 -0.5938
vn 0.4099 -0.8704 -0.2728
vn 0.5782 -0.4202 0.6994
vn -0.3740 -0.3174 0.8714
vn -0.4079 -0.2409 -0.8807
vn 0.4894 0.8195 0.2980
vn 0.4094 -0.0924 -0.9077
vn -0.7241 0.4960 0.4794
vn 0.7919 -0.1538 -0.5910
vn -0.4942 0.5128 -0.7020
vn 0.4981 0.2015 0.8434
vn 0.3816 -0.1252 0.9158
vn -0.0811 0.5953 -0.7994
vn -0.2715 0.5886 -0.7614
vn 0.2844 0.8692 0.4045
vn -0.1065 0.0084 0.9943
vn 0.6022 -0.0280 0.7979
vn -0.0108 0.8665 0.4990
vn 0.7643 0.6197 0.1782
vn 0.7399 -0.2895 0.6072
vn 0.0488 0.5545 -0.8307
vn -0.8331 -0.5136 -0.2053
vn -0.1939 -0.8751 0.4434
vn -0.6643 0.5860 -0.4640
vn 0.6443 -0.3400 -0.6851
vn -0.7952 0.6063 0.0008
vn -0.0197 -0.0354 -0.9992
vn -0.1301 -0.5824 0.8024
vn 0.1525 -0.3937 0.9065
vn -0.4393 -0.0106 -0.8983
vn 0.0504 -0.9987 0.0118
vn -0.0504 0.9987 -0.0118
vn -0.8264 -0.0198 0.5627
vn -0.0178 0.9998 -0.0131
vn -0.2987 -0.0051 -0.9543
vn 0.0000 -1.0000 -0.0000
vn 0.9947 0.0492 -0.0899
vn -0.0892 -0.0163 -0.9959
vn -0.9947 -0.0492 0.0899
vn 0.0842 -0.3138 -0.9457
vn 0.4990 0.6824 -0.5341
vn 0.2291 -0.3320 0.9151
vn -0.6427 -0.0293 -0.7656
vn -0.3302 0.8807 0.3396
vn 0.9348 0.3398 -0.1037
vn -0.8478 0.0456 0.5284
vn 0.6944 -0.6201 -0.3650
vn 0.9086 -0.2249 -0.3518
vn 0.3265 0.2325 -0.9162
vn 0.2544 -0.8818 0.3972
vn -0.0411 0.3260 -0.9445
vn 0.3224 -0.1862 0.9281
vn -0.6033 0.7506 0.2695
vn 0.2167 0.3082 0.9263
vn -0.6759 0.2951 -0.6753
vn 0.3385 0.9251 0.1719
vn -0.3623 -0.0557 0.9304
vn 0.8803 0.1306 0.4560
vn 0.1021 0.3227 -0.9410
vn -0.5178 0.8034 -0.2941
vn 0.9004 -0.3063 0.3090
vn -0.1645 -0.4433 0.8811
vn 0.3298 -0.1012 0.9386
vn 0.1989 0.1725 -0.9647
vn -0.3256 -0.4311 -0.8415
vn 0.9759 -0.2041 0.0775
vn 0.7195 -0.6841 0.1197
vn 0.2976 -0.4353 0.8497
vn -0.4620 -0.8744 0.1481
vn 0.9916 0.0645 0.1118
vn 0.2117 0.3147 0.9253
vn 0.1940 -0.4233 -0.8850
vn -0.0128 -0.5920 0.8058
vn -0.6544 0.7546 0.0483
vn 0.2734 0.6941 -0.6659
vn -0.4714 0.4521 -0.7572
vn 0.4203 0.8760 -0.2365
vn -0.4467 -0.0139 -0.8946
vn -0.2461 0.3306 0.9111
vn -0.2806 0.3616 -0.8891
vn 0.6577 -0.0694 0.7501
vn 0.7168 0.4087 0.5649
vn 0.2573 0.9302 0.2618
vn -0.0429 0.0758 0.9962
vn 0.7151 -0.5382 0.4460
vn 0.2329 0.3628 -0.9023
vn -0.7020 -0.4635 0.5407
vn -0.8023 0.5685 -0.1819
vn -0.8281 -0.0995 -0.5517
vn -0.5990 0.7180 0.3544
vn -0.1368 -0.1220 -0.9831
vn -0.1926 -0.4909 0.8496
vn 0.4520 -0.0161 0.8919
vn 0.8976 -0.0183 -0.4404
vn 0.8639 0.0029 -0.5036
vn 0.3335 -0.0062 0.9427
vn -0.3599 0.0110 -0.9329
vn -0.8865 0.0110 0.4627
vn 0.4310 -0.3277 -0.8408
vn 0.4993 -0.8104 0.3066
vn -0.1286 -0.2892 0.9486
vn -0.0896 -0.9568 0.2767
vn -0.3707 0.1276 0.9199
vn 0.1601 0.2376 -0.9581
vn 0.6148 -0.2936 -0.7320
vn -0.9171 0.0042 0.3986
vn -0.3246 0.5287 0.7843
vn -0.0008 0.1929 -0.9812
vn -0.0290 0.9994 -0.0190
vn 0.0863 -0.5939 0.7999
vn -0.4684 0.8006 -0.3737
vn -0.6038 -0.7859 -0.1334
vn -0.2783 -0.0737 0.9577
vn 0.3927 -0.0650 -0.9174
vn -0.5796 0.2666 0.7701
vn -0.1573 0.3809 0.9111
vn -0.0913 0.6025 -0.7928
vn -0.2896 0.6179 -0.7310
vn 0.2855 0.8801 0.3793
vn -0.1061 0.0080 0.9943
vn 0.7687 0.6357 0.0705
vn 0.6293 -0.4701 0.6189
vn -0.6640 0.6563 -0.3583
vn 0.7275 -0.6821 0.0735
vn 0.4292 -0.7911 0.4359
vn -0.3991 -0.0491 -0.9156
vn -0.8861 0.0300 0.4626
vn -0.0176 0.9998 -0.0135
vn -0.4225 0.0158 -0.9062
vn 0.1077 -0.3680 -0.9236
vn 0.2678 -0.3112 0.9118
vn -0.6867 -0.0304 -0.7263
vn -0.2743 0.9603 0.0520
vn 0.3485 0.6372 0.6874
vn -0.8601 0.0022 0.5100
vn 0.7671 -0.5432 -0.3414
vn 0.3685 0.1481 -0.9177
vn 0.7267 0.1778 0.6636
vn 0.4206 0.9019 -0.0986
vn 0.5165 -0.7219 0.4605
vn -0.8601 -0.1738 -0.4796
vn 0.9338 -0.3353 0.1247
vn 0.8315 -0.3340 0.4439
vn 0.3111 -0.0078 -0.9503
vn 0.9730 -0.2088 0.0987
vn 0.6256 -0.7066 0.3307
vn -0.0123 0.1057 -0.9943
vn 0.1827 -0.6666 0.7227
vn -0.3858 0.6817 -0.6217
vn 0.2959 0.6782 -0.6726
vn -0.3988 0.2688 -0.8767
vn -0.3383 0.6134 -0.7137
vn 0.8097 0.0401 0.5855
vn 0.6325 0.3850 -0.6721
vn 0.9856 -0.1331 0.1041
vn -0.9839 0.0470 -0.1724
vn -0.7971 0.5746 -0.1856
vn -0.5938 0.0462 -0.8033
vn 0.3338 0.0286 0.9422
vn 0.8444 0.0023 -0.5357
vn 0.8975 -0.0234 -0.4403
vn 0.3365 -0.0067 0.9417
vn -0.2988 -0.0108 -0.9543
vn -0.8766 0.0074 0.4812
s off
f 2/1/1 17/2/1 3/3/1
f 13/4/2 17/2/2 2/1/2
f 7/5/3 15/6/3 5/7/3
f 27/8/4 22/9/4 31/10/4
f 22/9/5 20/11/5 24/12/5
f 25/13/6 33/14/6 32/15/6
f 27/8/7 25/13/7 32/15/7
f 29/16/8 33/14/8 19/17/8
f 38/18/9 42/19/9 39/20/9
f 38/18/10 39/20/10 34/21/10
f 44/22/11 42/19/11 49/23/11
f 46/24/12 50/25/12 38/18/12
f 69/26/13 55/27/13 65/28/13
f 81/29/14 83/30/14 73/31/14
f 72/32/15 81/29/15 75/33/15
f 84/34/16 85/35/16 88/36/16
f 87/37/17 90/38/17 89/39/17
f 85/35/18 96/40/18 92/41/18
f 94/42/19 96/40/19 85/35/19
f 88/36/20 92/41/20 86/43/20
f 108/44/21 111/45/21 98/46/21
f 105/47/22 107/48/22 97/49/22
f 99/50/23 108/44/23 103/51/23
f 112/52/24 113/53/24 117/54/24
f 116/55/25 114/56/25 118/57/25
f 112/52/26 117/54/26 115/58/26
f 122/59/27 126/60/27 113/53/27
f 115/58/28 121/61/28 112/52/28
f 114/56/29 122/59/29 123/62/29
f 6/63/30 15/6/30 11/64/30
f 4/65/31 8/66/31 6/63/31
f 1/67/32 13/4/32 2/1/32
f 5/7/33 9/68/33 12/69/33
f 4/65/34 6/63/34 10/70/34
f 12/69/35 14/71/35 1/67/35
f 10/70/36 13/4/36 4/65/36
f 15/6/37 8/66/37 5/7/37
f 16/72/38 3/3/38 17/2/38
f 16/72/39 6/63/39 11/64/39
f 1/67/40 5/7/40 12/69/40
f 10/70/41 16/72/41 17/2/41
f 12/69/42 9/68/42 14/71/42
f 14/71/43 4/65/43 13/4/43
f 15/6/44 3/3/44 11/64/44
f 23/73/45 19/17/45 25/13/45
f 19/17/46 30/74/46 29/16/46
f 7/5/47 2/1/47 3/3/47
f 24/12/48 21/75/48 22/9/48
f 20/11/49 22/9/49 26/76/49
f 28/77/50 30/74/50 18/78/50
f 29/16/51 26/76/51 33/14/51
f 31/10/52 22/9/52 21/75/52
f 25/13/53 19/17/53 33/14/53
f 32/15/54 22/9/54 27/8/54
f 18/78/55 21/75/55 28/77/55
f 26/76/56 32/15/56 33/14/56
f 23/73/57 31/10/57 21/75/57
f 28/77/58 24/12/58 30/74/58
f 29/16/59 24/12/59 20/11/59
f 31/10/60 25/13/60 27/8/60
f 40/79/61 44/22/61 37/80/61
f 41/81/62 37/80/62 35/82/62
f 38/18/63 45/83/63 47/84/63
f 47/84/64 46/24/64 38/18/64
f 35/82/65 37/80/65 43/85/65
f 45/83/66 40/79/66 41/81/66
f 46/24/67 43/85/67 50/25/67
f 48/86/68 40/79/68 36/87/68
f 49/23/69 42/19/69 50/25/69
f 38/18/70 50/25/70 42/19/70
f 49/23/71 37/80/71 44/22/71
f 39/20/72 45/83/72 34/21/72
f 43/85/73 49/23/73 50/25/73
f 39/20/74 48/86/74 36/87/74
f 45/83/75 41/81/75 47/84/75
f 46/24/76 41/81/76 35/82/76
f 48/86/77 42/19/77 44/22/77
f 54/88/78 52/89/78 56/90/78
f 55/91/79 53/92/79 65/93/79
f 130/94/80 63/95/80 64/96/80
f 61/97/81 64/96/81 63/95/81
f 131/98/82 127/99/82 130/94/82
f 60/100/83 127/99/83 58/101/83
f 68/102/84 57/103/84 55/91/84
f 57/103/85 66/104/85 53/92/85
f 53/92/86 69/105/86 65/93/86
f 66/104/86 51/106/86 69/105/86
f 67/107/85 52/89/85 66/104/85
f 54/88/84 67/107/84 68/102/84
f 51/108/13 68/109/13 69/26/13
f 66/104/78 68/102/78 69/105/78
f 75/33/87 79/110/87 72/32/87
f 73/31/88 71/111/88 74/112/88
f 70/113/89 81/29/89 73/31/89
f 75/33/90 78/114/90 82/115/90
f 78/114/91 73/31/91 74/112/91
f 76/116/92 73/31/92 83/30/92
f 77/117/93 81/29/93 72/32/93
f 77/117/94 79/110/94 76/116/94
f 79/110/95 71/111/95 76/116/95
f 82/115/96 71/111/96 79/110/96
f 77/117/97 76/116/97 83/30/97
f 78/114/98 74/112/98 82/115/98
f 75/33/99 81/29/99 80/118/99
f 78/114/100 80/118/100 70/113/100
f 95/119/101 85/35/101 84/34/101
f 92/41/102 87/37/102 89/39/102
f 93/120/103 89/39/103 90/38/103
f 93/120/104 95/119/104 84/34/104
f 91/121/105 94/42/105 87/37/105
f 92/41/106 89/39/106 86/43/106
f 91/121/107 92/41/107 96/40/107
f 84/34/108 86/43/108 93/120/108
f 93/120/109 90/38/109 95/119/109
f 94/42/110 90/38/110 87/37/110
f 101/122/111 109/123/111 106/124/111
f 88/36/112 85/35/112 92/41/112
f 99/50/113 102/125/113 101/122/113
f 103/51/114 100/126/114 102/125/114
f 108/44/115 98/46/115 97/49/115
f 105/47/116 100/126/116 107/48/116
f 99/50/117 101/122/117 104/127/117
f 107/48/118 108/44/118 97/49/118
f 102/125/119 105/47/119 109/123/119
f 104/127/120 108/44/120 99/50/120
f 110/128/121 98/46/121 111/45/121
f 104/127/122 106/124/122 110/128/122
f 106/124/123 97/49/123 98/46/123
f 110/128/124 111/45/124 104/127/124
f 105/47/125 97/49/125 109/123/125
f 103/51/126 108/44/126 107/48/126
f 118/57/127 120/129/127 116/55/127
f 112/52/128 122/59/128 113/53/128
f 121/61/129 118/57/129 114/56/129
f 114/56/130 116/55/130 119/130/130
f 121/61/131 123/62/131 112/52/131
f 119/130/132 122/59/132 114/56/132
f 115/58/133 124/131/133 118/57/133
f 125/132/134 113/53/134 126/60/134
f 119/130/135 120/129/135 125/132/135
f 120/129/136 117/54/136 113/53/136
f 125/132/137 126/60/137 119/130/137
f 115/58/138 117/54/138 124/131/138
f 121/61/139 114/56/139 123/62/139
f 129/133/140 61/97/140 63/95/140
f 128/134/141 58/101/141 131/98/141
f 61/97/142 131/98/142 59/135/142
f 62/136/143 128/134/143 129/133/143
f 59/135/144 130/94/144 64/96/144
f 127/99/145 129/133/145 130/94/145
f 69/26/13 68/109/13 55/27/13
f 6/63/146 8/66/146 15/6/146
f 4/65/147 9/68/147 8/66/147
f 1/67/148 14/71/148 13/4/148
f 5/7/149 8/66/149 9/68/149
f 10/70/150 17/2/150 13/4/150
f 16/72/151 11/64/151 3/3/151
f 16/72/152 10/70/152 6/63/152
f 1/67/153 7/5/153 5/7/153
f 14/71/154 9/68/154 4/65/154
f 15/6/155 7/5/155 3/3/155
f 23/73/156 18/78/156 19/17/156
f 19/17/157 18/78/157 30/74/157
f 7/5/158 1/67/158 2/1/158
f 24/12/159 28/77/159 21/75/159
f 29/16/160 20/11/160 26/76/160
f 32/15/161 26/76/161 22/9/161
f 18/78/162 23/73/162 21/75/162
f 29/16/163 30/74/163 24/12/163
f 31/10/164 23/73/164 25/13/164
f 40/79/165 48/86/165 44/22/165
f 41/81/166 40/79/166 37/80/166
f 38/18/167 34/21/167 45/83/167
f 45/83/168 36/87/168 40/79/168
f 46/24/169 35/82/169 43/85/169
f 49/23/170 43/85/170 37/80/170
f 39/20/171 36/87/171 45/83/171
f 46/24/172 47/84/172 41/81/172
f 48/86/173 39/20/173 42/19/173
f 54/88/78 51/106/78 52/89/78
f 55/91/79 57/103/79 53/92/79
f 130/94/174 129/133/174 63/95/174
f 61/97/175 59/135/175 64/96/175
f 131/98/176 58/101/176 127/99/176
f 60/100/83 62/136/83 127/99/83
f 68/102/84 67/107/84 57/103/84
f 57/103/85 67/107/85 66/104/85
f 53/92/86 66/104/86 69/105/86
f 66/104/86 52/89/86 51/106/86
f 67/107/85 56/90/85 52/89/85
f 54/88/84 56/90/84 67/107/84
f 51/108/13 54/137/13 68/109/13
f 66/104/78 67/107/78 68/102/78
f 75/33/177 82/115/177 79/110/177
f 70/113/178 80/118/178 81/29/178
f 75/33/179 80/118/179 78/114/179
f 78/114/180 70/113/180 73/31/180
f 76/116/181 71/111/181 73/31/181
f 77/117/182 83/30/182 81/29/182
f 77/117/183 72/32/183 79/110/183
f 82/115/184 74/112/184 71/111/184
f 95/119/185 94/42/185 85/35/185
f 93/120/186 86/43/186 89/39/186
f 91/121/187 96/40/187 94/42/187
f 91/121/188 87/37/188 92/41/188
f 84/34/189 88/36/189 86/43/189
f 94/42/190 95/119/190 90/38/190
f 101/122/191 102/125/191 109/123/191
f 99/50/192 103/51/192 102/125/192
f 103/51/193 107/48/193 100/126/193
f 102/125/194 100/126/194 105/47/194
f 104/127/195 111/45/195 108/44/195
f 110/128/196 106/124/196 98/46/196
f 104/127/197 101/122/197 106/124/197
f 106/124/198 109/123/198 97/49/198
f 118/57/199 124/131/199 120/129/199
f 112/52/200 123/62/200 122/59/200
f 121/61/201 115/58/201 118/57/201
f 119/130/202 126/60/202 122/59/202
f 125/132/203 120/129/203 113/53/203
f 119/130/204 116/55/204 120/129/204
f 120/129/205 124/131/205 117/54/205
f 129/133/206 128/134/206 61/97/206
f 128/134/207 60/100/207 58/101/207
f 61/97/208 128/134/208 131/98/208
f 62/136/209 60/100/209 128/134/209
f 59/135/210 131/98/210 130/94/210
f 127/99/211 62/136/211 129/133/211
