# Blender v3.2.1 OBJ File: 'Modeling.blend'
# www.blender.org
o Flower_Cube.024
v 0.195710 1.165810 0.005936
v 0.318798 1.207132 0.031202
v 0.322960 1.202422 0.010441
v 0.398370 0.940460 0.056509
v 0.124667 0.941650 -0.027219
v 0.401467 0.932840 0.034471
v 0.181037 1.152236 -0.022116
v 0.279303 0.890228 0.012381
v 0.275912 0.904145 0.059123
v 0.536919 1.069409 0.012794
v 0.378948 1.044079 -0.029538
v 0.131319 0.945424 0.027225
v 0.371584 1.065525 0.011916
v 0.291153 1.017783 -0.019075
v 0.255203 1.002609 -0.051822
v 0.496888 1.145898 -0.006390
v 0.557728 1.160688 0.001924
v 0.147493 0.568723 0.072147
v 0.296270 0.571475 0.068867
v 0.284981 0.281857 -0.033672
v -0.006065 0.396566 -0.021835
v 0.255950 0.275815 -0.063342
v 0.121046 0.567582 0.043011
v 0.148205 0.276694 0.001650
v 0.303403 0.576038 0.045092
v 0.465970 0.346426 -0.008676
v 0.286451 0.425890 -0.068372
v 0.010803 0.371878 0.032533
v 0.296555 0.427638 -0.017733
v 0.190619 0.418074 -0.037643
v 0.142435 0.427623 -0.063912
v 0.485784 0.445185 -0.018856
v 0.534686 0.431425 0.026141
v -0.071025 0.155418 0.027381
v -0.240450 0.404987 0.122027
v 0.006189 0.272959 -0.032250
v -0.244391 0.417229 0.099578
v -0.199241 0.085364 0.015794
v -0.143983 0.115035 -0.019857
v -0.109358 0.401355 0.051407
v -0.106290 0.379225 0.099225
v -0.288727 0.118226 0.033959
v -0.423600 0.344515 0.177099
v -0.287667 0.304802 0.023614
v -0.002881 0.273256 0.031698
v -0.284311 0.276055 0.066413
v -0.188397 0.287321 0.016894
v -0.152872 0.290442 -0.025251
v -0.465252 0.275854 0.124526
v -0.496529 0.264195 0.184683
v -0.171422 0.731147 0.103283
v -0.158671 0.731887 -0.096296
v -0.143577 1.111233 -0.093925
v 0.207158 0.715933 0.127415
v 0.222251 1.095279 0.129786
v 0.219909 0.716673 -0.072164
v 0.235003 1.096019 -0.069793
v 0.008992 -0.001489 -0.055504
v 0.044440 0.751686 -0.046862
v 0.055798 -0.001489 0.028197
v 0.078280 0.748585 0.034509
v -0.020805 -0.001489 0.050868
v 0.009274 0.753154 0.057801
v -0.032670 0.756819 -0.028325
v -0.156329 1.110493 0.105654
v -0.154897 0.826724 -0.095704
v 0.223683 0.811510 -0.071571
v 0.210931 0.810770 0.128008
v -0.167649 0.825984 0.103876
v 0.212703 0.843706 0.079862
v 0.376254 0.782921 0.110877
v 0.225163 0.600931 0.057161
v 0.317340 0.852355 0.085282
v 0.294807 0.857835 0.054689
v 0.162180 0.658525 0.023468
v 0.301968 0.617193 0.233858
v 0.271421 0.602627 0.186917
v 0.190123 0.839243 0.029868
v 0.311413 0.676751 0.049094
v 0.127627 0.788895 0.067864
v 0.255376 0.721541 0.033144
v 0.226521 0.741691 0.001797
v 0.291471 0.629068 0.265457
v -0.134998 0.657518 -0.002472
v -0.235160 0.629128 -0.016672
v -0.058834 0.834266 -0.003591
v -0.307003 0.862846 -0.032780
v -0.115731 0.666471 -0.024665
v -0.185752 0.900108 -0.044175
v -0.202096 0.893678 -0.006068
v -0.387545 0.764879 0.050548
v -0.182767 0.778370 -0.087007
v -0.087385 0.846489 0.036791
v -0.268890 0.753202 -0.034399
v -0.195260 0.786806 -0.062058
v -0.406612 0.694872 0.072810
v -0.132723 1.206547 0.078987
v -0.100160 1.286291 0.147858
v 0.166579 1.222986 0.124589
v 0.021168 1.030391 0.021914
v 0.173188 1.231150 0.105971
v 0.139068 1.124548 0.064105
v 0.129203 1.120737 0.110693
v 0.145525 1.299026 0.245868
v -0.049711 1.081085 0.026478
v 0.063252 1.285958 0.085131
v 0.001922 1.039245 0.085742
v 0.038317 1.212180 0.059464
v 0.030501 1.174689 0.018592
v 0.063778 1.357545 0.263763
v 0.067576 1.342548 0.324043
v -0.258004 0.910389 0.039828
v -0.361392 0.951759 0.079548
v -0.232318 1.164058 0.106218
v -0.123600 0.978655 0.020975
v -0.257365 1.178489 0.086090
v -0.264520 0.918645 0.013636
v -0.159483 1.133264 0.069213
v -0.366693 1.163140 0.172814
v -0.315230 1.094972 0.041405
v -0.100539 1.006196 0.077040
v -0.314792 1.075642 0.077836
v -0.240653 1.062202 0.032792
v -0.206004 1.054762 0.005545
v -0.429615 1.113336 0.165632
v -0.432689 1.116085 0.219728
v -0.058751 -0.001489 -0.028379
v 0.065056 0.522017 0.029222
v -0.005235 0.525358 0.055136
v -0.049438 0.528150 -0.027131
v 0.024356 0.524620 -0.051290
vt 0.446739 0.643213
vt 0.486696 0.642128
vt 0.447524 0.642927
vt 0.458723 0.633839
vt 0.426246 0.638062
vt 0.441397 0.628312
vt 0.421909 0.622872
vt 0.453927 0.585760
vt 0.449030 0.575218
vt 0.430804 0.585882
vt 0.453691 0.575643
vt 0.431809 0.575327
vt 0.456648 0.596307
vt 0.493782 0.586149
vt 0.485931 0.587115
vt 0.455549 0.585883
vt 0.455503 0.595986
vt 0.376762 0.561841
vt 0.362204 0.564149
vt 0.386668 0.563925
vt 0.395735 0.566761
vt 0.362885 0.577255
vt 0.330733 0.575221
vt 0.361245 0.575235
vt 0.322939 0.574402
vt 0.005353 0.251611
vt 0.247503 0.331066
vt 0.005353 0.331066
vt 0.446734 0.607237
vt 0.485197 0.599045
vt 0.458664 0.616614
vt 0.446305 0.598459
vt 0.432458 0.602549
vt 0.383340 0.601315
vt 0.366056 0.598824
vt 0.386045 0.602023
vt 0.351897 0.614835
vt 0.371280 0.617529
vt 0.372188 0.618036
vt 0.330977 0.602643
vt 0.372009 0.609493
vt 0.359185 0.607339
vt 0.394518 0.614074
vt 0.405954 0.641249
vt 0.411663 0.662498
vt 0.383813 0.649653
vt 0.393052 0.631465
vt 0.402343 0.630051
vt 0.378857 0.640864
vt 0.426954 0.644971
vt 0.422005 0.636638
vt 0.361108 0.618881
vt 0.342653 0.621328
vt 0.360304 0.618879
vt 0.356680 0.637738
vt 0.360087 0.637282
vt 0.374032 0.635088
vt 0.382015 0.623878
vt 0.348951 0.630063
vt 0.319561 0.633292
vt 0.385213 0.627007
vt 0.362295 0.629059
vt 0.447663 0.620809
vt 0.460070 0.632438
vt 0.466486 0.624906
vt 0.465751 0.625411
vt 0.428241 0.639174
vt 0.422782 0.623292
vt 0.446839 0.621799
vt 0.484857 0.635607
vt 0.446725 0.629766
vt 0.481972 0.640411
vt 0.427333 0.595724
vt 0.438540 0.585211
vt 0.406844 0.583664
vt 0.482749 0.580178
vt 0.409678 0.581973
vt 0.431616 0.595793
vt 0.388671 0.584037
vt 0.365664 0.585152
vt 0.386997 0.582482
vt 0.365136 0.584292
vt 0.378323 0.576027
vt 0.334441 0.580044
vt 0.407473 0.575039
vt 0.385896 0.576246
vt 0.408959 0.575018
vt 0.438413 0.606750
vt 0.377458 0.606750
vt 0.438413 0.606750
vt 0.438413 0.633418
vt 0.377458 0.633418
vt 0.377458 0.633418
vt 0.398834 0.592740
vt 0.406492 0.608766
vt 0.398977 0.608766
vt 0.417368 0.608766
vt 0.410703 0.592740
vt 0.398503 0.555740
vt 0.416894 0.555740
vt 0.409379 0.555740
vt 0.438413 0.613417
vt 0.438413 0.633418
vt 0.377458 0.613417
vt 0.377458 0.613417
vt 0.377458 0.606750
vt 0.438413 0.613417
vt 0.005353 0.225125
vt 0.247503 0.251611
vt 0.455474 0.604257
vt 0.468300 0.612646
vt 0.452840 0.616922
vt 0.425074 0.611622
vt 0.433979 0.615314
vt 0.440065 0.608557
vt 0.481026 0.599664
vt 0.472155 0.596725
vt 0.440074 0.615712
vt 0.392131 0.614816
vt 0.371320 0.610039
vt 0.334842 0.607628
vt 0.427742 0.644695
vt 0.404741 0.637870
vt 0.409348 0.646708
vt 0.423097 0.635865
vt 0.404915 0.628221
vt 0.423877 0.656122
vt 0.410314 0.659394
vt 0.350587 0.630831
vt 0.332606 0.636783
vt 0.367937 0.628193
vt 0.325346 0.632451
vt 0.405919 0.592740
vt 0.417225 0.592740
vt 0.411276 0.608766
vt 0.404595 0.555740
vt 0.247503 0.225125
vn 0.1654 0.9684 -0.1865
vn 0.1025 -0.0966 0.9900
vn -0.2218 0.0829 -0.9715
vn -0.0313 -0.0271 -0.9991
vn 0.0713 -0.9887 0.1316
vn 0.4918 0.8236 -0.2826
vn 0.1413 0.5866 -0.7974
vn -0.1480 -0.5103 0.8471
vn -0.3250 -0.4155 -0.8496
vn 0.4787 -0.8779 0.0112
vn -0.4879 -0.0456 -0.8717
vn 0.4874 -0.0143 0.8731
vn -0.0638 -0.0037 0.9980
vn -0.9074 0.3225 0.2694
vn -0.2670 0.2521 0.9301
vn 0.2877 -0.9485 -0.1329
vn -0.2904 0.9562 0.0368
vn -0.5146 -0.2110 -0.8310
vn 0.5230 0.2582 0.8123
vn 0.5856 -0.0975 -0.8047
vn -0.1802 -0.8743 0.4507
vn -0.7614 -0.6032 0.2375
vn -0.4553 0.0456 0.8892
vn -0.4230 -0.8891 -0.1750
vn 0.4320 0.8958 0.1047
vn 0.3810 -0.8504 -0.3629
vn 0.7062 -0.2565 0.6599
vn 0.4662 -0.8548 0.2282
vn 0.3505 -0.5664 0.7459
vn 0.3033 -0.4284 -0.8512
vn 0.2521 -0.9031 0.3477
vn -0.1380 -0.1840 0.9732
vn -0.3163 -0.9152 0.2496
vn 0.6976 -0.6412 0.3197
vn 0.2727 0.0133 0.9620
vn -0.0128 0.3334 0.9427
vn 0.0621 -0.4850 -0.8723
vn 0.0340 0.3798 -0.9244
vn 0.2722 -0.0976 -0.9573
vn -0.9528 0.2877 0.0965
vn 0.1706 -0.1548 -0.9731
vn -0.0191 0.5685 0.8225
vn -0.0749 0.3206 0.9442
vn 0.0819 0.2711 -0.9591
vn -0.0476 0.9835 0.1745
vn -0.1137 -0.5126 0.8511
vn -0.2526 0.9162 -0.3112
vn -0.3997 -0.6424 -0.6539
vn 0.3509 -0.9235 -0.1553
vn 0.4227 -0.4516 0.7857
vn 0.0104 -0.3862 0.9224
vn -0.2336 -0.1782 -0.9559
vn 0.5223 0.7947 0.3092
vn 0.2478 -0.0827 -0.9653
vn -0.7930 0.4232 0.4382
vn 0.6312 -0.2038 -0.7483
vn -0.3321 0.5401 -0.7733
vn 0.3222 0.1625 0.9326
vn 0.2525 -0.1250 0.9595
vn -0.0174 0.6041 -0.7968
vn -0.2050 0.6009 -0.7726
vn 0.2403 0.8693 0.4319
vn -0.0897 -0.0006 0.9960
vn 0.4613 -0.0296 0.8868
vn -0.1357 0.8596 0.4926
vn 0.7656 0.6011 0.2291
vn 0.3495 -0.2316 0.9079
vn 0.0253 0.5616 -0.8270
vn -0.7097 -0.5244 -0.4706
vn -0.1956 -0.8253 0.5297
vn -0.4639 0.6116 -0.6409
vn 0.6369 -0.3430 -0.6904
vn -0.7277 0.6367 -0.2550
vn -0.0476 -0.0331 -0.9983
vn -0.1088 -0.6076 0.7868
vn 0.0741 -0.4161 0.9063
vn -0.3451 -0.0500 -0.9372
vn -0.0398 -0.9992 -0.0062
vn 0.0398 0.9992 0.0062
vn -0.8958 0.0680 0.4392
vn 0.0690 0.9976 0.0088
vn -0.3108 0.0077 -0.9504
vn 0.0000 -1.0000 0.0000
vn 0.9972 -0.0401 0.0636
vn 0.0638 0.0037 -0.9980
vn -0.9972 0.0401 -0.0636
vn 0.1984 -0.3241 -0.9250
vn 0.7509 0.4639 -0.4700
vn 0.0454 -0.3883 0.9204
vn -0.4293 0.0982 -0.8978
vn -0.2422 0.9083 0.3411
vn 0.9549 0.1115 0.2753
vn -0.9028 0.2895 0.3181
vn 0.6558 -0.7276 -0.2010
vn 0.8751 -0.4719 -0.1074
vn 0.5283 0.0746 -0.8458
vn -0.0627 -0.9409 0.3328
vn 0.1623 0.3283 -0.9305
vn 0.1018 -0.2964 0.9496
vn -0.5506 0.8161 0.1758
vn -0.1661 0.0951 0.9815
vn -0.1862 0.3220 -0.9282
vn 0.3832 0.9236 -0.0087
vn -0.6813 0.0196 0.7317
vn 0.5837 0.1913 0.7891
vn 0.4313 0.3088 -0.8477
vn -0.5488 -0.1139 -0.8282
vn 0.7294 -0.3104 0.6096
vn -0.4664 -0.4337 0.7709
vn -0.2205 -0.0910 0.9711
vn 0.3589 0.3990 -0.8438
vn 0.0805 -0.4479 -0.8905
vn 0.9181 -0.3585 0.1687
vn 0.5326 -0.8452 0.0436
vn 0.1056 -0.6743 0.7308
vn -0.5833 -0.8098 -0.0635
vn 0.9502 -0.1618 0.2664
vn 0.1084 0.1270 0.9860
vn 0.2513 -0.2931 -0.9225
vn -0.1822 -0.8470 0.4994
vn -0.5232 0.8187 0.2367
vn 0.5032 0.8016 -0.3227
vn -0.2583 0.6897 -0.6765
vn 0.5974 0.7862 0.1580
vn -0.3088 0.1860 -0.9327
vn -0.3141 0.2069 0.9266
vn 0.0507 0.4436 -0.8948
vn 0.3594 0.0022 0.9332
vn 0.5289 0.2944 0.7960
vn 0.1930 0.8952 0.4017
vn -0.2727 0.0756 0.9591
vn 0.3661 -0.5761 0.7308
vn 0.4828 0.3610 -0.7979
vn -0.9270 -0.3735 -0.0337
vn -0.5069 0.6526 -0.5632
vn -0.5703 -0.0348 -0.8207
vn -0.6136 0.7860 -0.0748
vn 0.0938 -0.0992 -0.9906
vn -0.4365 -0.5023 0.7464
vn 0.3178 -0.0313 0.9476
vn 0.8919 -0.0224 -0.4516
vn 0.9198 -0.0738 -0.3853
vn 0.3451 -0.0178 0.9384
vn -0.2330 0.0120 -0.9724
vn -0.8806 0.0144 0.4736
vn 0.2965 -0.4250 -0.8553
vn 0.2776 -0.9151 0.2926
vn -0.1936 -0.2835 0.9392
vn -0.3381 -0.9351 0.1061
vn -0.0081 0.1201 0.9927
vn -0.0161 0.2394 -0.9708
vn 0.2974 -0.4302 -0.8523
vn -0.9035 0.2331 0.3598
vn -0.5579 0.5199 0.6469
vn 0.1298 0.2546 -0.9583
vn -0.0190 0.9996 -0.0219
vn 0.0287 -0.5833 0.8117
vn -0.2582 0.9297 -0.2627
vn -0.5870 -0.7901 -0.1766
vn -0.1790 -0.0929 0.9795
vn 0.2978 -0.1568 -0.9417
vn -0.6978 0.3599 0.6193
vn -0.2028 0.3182 0.9261
vn -0.0190 0.6051 -0.7959
vn -0.2116 0.6105 -0.7632
vn 0.2448 0.8858 0.3942
vn -0.0789 0.0091 0.9968
vn 0.7726 0.6258 0.1067
vn 0.4478 -0.4782 0.7555
vn -0.5037 0.6967 -0.5109
vn 0.7247 -0.6808 0.1059
vn 0.3571 -0.7797 0.5143
vn -0.3490 -0.0465 -0.9360
vn -0.8791 0.0504 0.4740
vn 0.0687 0.9976 0.0094
vn -0.3716 0.0183 -0.9282
vn 0.2019 -0.3903 -0.8983
vn -0.0382 -0.1568 0.9869
vn -0.5839 0.1187 -0.8031
vn -0.0795 0.9954 -0.0529
vn 0.2385 0.5075 0.8280
vn -0.9702 0.1319 0.2033
vn 0.6332 -0.7433 -0.2160
vn 0.6152 0.0806 -0.7842
vn 0.1199 0.4611 0.8792
vn 0.3605 0.8820 0.3035
vn 0.5857 0.0964 0.8048
vn -0.5274 -0.2556 -0.8103
vn 0.7746 -0.3304 0.5392
vn 0.4733 -0.3849 0.7924
vn 0.4547 0.1957 -0.8689
vn 0.9186 -0.3589 0.1652
vn 0.5388 -0.7970 0.2730
vn 0.1290 0.2664 -0.9552
vn -0.0516 -0.8935 0.4460
vn -0.1394 0.9193 -0.3680
vn 0.4706 0.8268 -0.3081
vn -0.1953 0.5451 -0.8153
vn -0.0188 0.6365 -0.7710
vn 0.4886 -0.1720 0.8554
vn 0.7991 0.3401 -0.4958
vn 0.6871 -0.3072 0.6584
vn -0.7306 0.0542 -0.6807
vn -0.4995 0.7039 -0.5051
vn -0.2887 0.0674 -0.9550
vn 0.3438 -0.0420 0.9381
vn 0.8727 -0.0145 -0.4880
vn 0.8911 -0.0415 -0.4518
vn 0.2838 -0.0069 0.9589
vn -0.3088 0.0458 -0.9500
vn -0.9017 0.0232 0.4318
s off
f 2/1/1 17/2/1 3/3/1
f 13/4/2 17/2/2 2/1/2
f 7/5/3 15/6/3 5/7/3
f 27/8/4 22/9/4 31/10/4
f 22/9/5 20/11/5 24/12/5
f 25/13/6 33/14/6 32/15/6
f 27/8/7 25/13/7 32/15/7
f 29/16/8 33/14/8 19/17/8
f 38/18/9 42/19/9 39/20/9
f 38/18/10 39/20/10 34/21/10
f 44/22/11 42/19/11 49/23/11
f 46/24/12 50/25/12 38/18/12
f 69/26/13 55/27/13 65/28/13
f 81/29/14 83/30/14 73/31/14
f 72/32/15 81/29/15 75/33/15
f 84/34/16 85/35/16 88/36/16
f 87/37/17 90/38/17 89/39/17
f 85/35/18 96/40/18 92/41/18
f 94/42/19 96/40/19 85/35/19
f 88/36/20 92/41/20 86/43/20
f 108/44/21 111/45/21 98/46/21
f 105/47/22 107/48/22 97/49/22
f 99/50/23 108/44/23 103/51/23
f 112/52/24 113/53/24 117/54/24
f 116/55/25 114/56/25 118/57/25
f 112/52/26 117/54/26 115/58/26
f 122/59/27 126/60/27 113/53/27
f 115/58/28 121/61/28 112/52/28
f 114/56/29 122/59/29 123/62/29
f 8/63/30 11/64/30 6/65/30
f 4/66/31 8/63/31 6/65/31
f 1/67/32 13/4/32 2/1/32
f 12/68/33 8/63/33 9/69/33
f 4/66/34 6/65/34 10/70/34
f 12/68/35 14/71/35 1/67/35
f 10/70/36 13/4/36 4/66/36
f 15/6/37 8/63/37 5/7/37
f 16/72/38 3/3/38 17/2/38
f 10/70/39 11/64/39 16/72/39
f 1/67/40 5/7/40 12/68/40
f 10/70/41 16/72/41 17/2/41
f 12/68/42 9/69/42 14/71/42
f 13/4/43 9/69/43 4/66/43
f 15/6/44 3/3/44 11/64/44
f 23/73/45 19/17/45 25/13/45
f 19/17/46 30/74/46 29/16/46
f 1/67/47 3/3/47 7/5/47
f 24/12/48 21/75/48 22/9/48
f 20/11/49 22/9/49 26/76/49
f 28/77/50 30/74/50 18/78/50
f 33/14/51 20/11/51 26/76/51
f 31/10/52 22/9/52 21/75/52
f 25/13/53 19/17/53 33/14/53
f 32/15/54 22/9/54 27/8/54
f 28/77/55 23/73/55 21/75/55
f 26/76/56 32/15/56 33/14/56
f 23/73/57 31/10/57 21/75/57
f 28/77/58 24/12/58 30/74/58
f 29/16/59 24/12/59 20/11/59
f 31/10/60 25/13/60 27/8/60
f 40/79/61 44/22/61 37/80/61
f 41/81/62 37/80/62 35/82/62
f 34/21/63 47/83/63 38/18/63
f 47/83/64 46/24/64 38/18/64
f 35/82/65 37/80/65 43/84/65
f 45/85/66 40/79/66 41/81/66
f 50/25/67 35/82/67 43/84/67
f 48/86/68 40/79/68 36/87/68
f 49/23/69 42/19/69 50/25/69
f 38/18/70 50/25/70 42/19/70
f 49/23/71 37/80/71 44/22/71
f 39/20/72 45/85/72 34/21/72
f 43/84/73 49/23/73 50/25/73
f 39/20/74 48/86/74 36/87/74
f 45/85/75 41/81/75 47/83/75
f 46/24/76 41/81/76 35/82/76
f 48/86/77 42/19/77 44/22/77
f 54/88/78 52/89/78 56/90/78
f 55/91/79 53/92/79 65/93/79
f 130/94/80 63/95/80 64/96/80
f 61/97/81 64/96/81 63/95/81
f 131/98/82 127/99/82 130/94/82
f 60/100/83 127/99/83 58/101/83
f 68/102/84 57/103/84 55/91/84
f 57/103/85 66/104/85 53/92/85
f 53/92/86 69/105/86 65/93/86
f 66/104/86 51/106/86 69/105/86
f 67/107/85 52/89/85 66/104/85
f 54/88/84 67/107/84 68/102/84
f 51/108/13 68/109/13 69/26/13
f 66/104/78 68/102/78 69/105/78
f 75/33/87 79/110/87 72/32/87
f 73/31/88 71/111/88 74/112/88
f 73/31/89 80/113/89 81/29/89
f 75/33/90 78/114/90 82/115/90
f 78/114/91 73/31/91 74/112/91
f 76/116/92 73/31/92 83/30/92
f 77/117/93 81/29/93 72/32/93
f 77/117/94 79/110/94 76/116/94
f 79/110/95 71/111/95 76/116/95
f 74/112/96 79/110/96 82/115/96
f 77/117/97 76/116/97 83/30/97
f 78/114/98 74/112/98 82/115/98
f 75/33/99 81/29/99 80/113/99
f 78/114/100 80/113/100 70/118/100
f 84/34/101 94/42/101 85/35/101
f 92/41/102 87/37/102 89/39/102
f 86/43/103 90/38/103 93/119/103
f 93/119/104 95/120/104 84/34/104
f 91/121/105 94/42/105 87/37/105
f 92/41/106 89/39/106 86/43/106
f 91/121/107 92/41/107 96/40/107
f 84/34/108 86/43/108 93/119/108
f 93/119/109 90/38/109 95/120/109
f 94/42/110 90/38/110 87/37/110
f 101/122/111 109/123/111 106/124/111
f 88/36/112 85/35/112 92/41/112
f 103/51/113 101/122/113 99/50/113
f 107/48/114 102/125/114 103/51/114
f 108/44/115 98/46/115 97/49/115
f 105/47/116 100/126/116 107/48/116
f 99/50/117 101/122/117 104/127/117
f 107/48/118 108/44/118 97/49/118
f 102/125/119 105/47/119 109/123/119
f 104/127/120 108/44/120 99/50/120
f 110/128/121 98/46/121 111/45/121
f 104/127/122 106/124/122 110/128/122
f 106/124/123 97/49/123 98/46/123
f 110/128/124 111/45/124 104/127/124
f 105/47/125 97/49/125 109/123/125
f 103/51/126 108/44/126 107/48/126
f 118/57/127 120/129/127 116/55/127
f 123/62/128 113/53/128 112/52/128
f 121/61/129 118/57/129 114/56/129
f 114/56/130 116/55/130 119/130/130
f 121/61/131 123/62/131 112/52/131
f 119/130/132 122/59/132 114/56/132
f 115/58/133 124/131/133 118/57/133
f 125/132/134 113/53/134 126/60/134
f 125/132/135 116/55/135 120/129/135
f 120/129/136 117/54/136 113/53/136
f 125/132/137 126/60/137 119/130/137
f 115/58/138 117/54/138 124/131/138
f 121/61/139 114/56/139 123/62/139
f 129/133/140 61/97/140 63/95/140
f 128/134/141 58/101/141 131/98/141
f 61/97/142 131/98/142 59/135/142
f 62/136/143 128/134/143 129/133/143
f 59/135/144 130/94/144 64/96/144
f 127/99/145 129/133/145 130/94/145
f 69/26/13 68/109/13 55/27/13
f 8/63/146 15/6/146 11/64/146
f 4/66/147 9/69/147 8/63/147
f 1/67/148 14/71/148 13/4/148
f 12/68/149 5/7/149 8/63/149
f 10/70/150 17/2/150 13/4/150
f 16/72/151 11/64/151 3/3/151
f 10/70/152 6/65/152 11/64/152
f 1/67/153 7/5/153 5/7/153
f 13/4/154 14/71/154 9/69/154
f 15/6/155 7/5/155 3/3/155
f 23/73/156 18/78/156 19/17/156
f 19/17/157 18/78/157 30/74/157
f 1/67/158 2/1/158 3/3/158
f 24/12/159 28/77/159 21/75/159
f 33/14/160 29/16/160 20/11/160
f 32/15/161 26/76/161 22/9/161
f 28/77/162 18/78/162 23/73/162
f 29/16/163 30/74/163 24/12/163
f 31/10/164 23/73/164 25/13/164
f 40/79/165 48/86/165 44/22/165
f 41/81/166 40/79/166 37/80/166
f 34/21/167 45/85/167 47/83/167
f 45/85/168 36/87/168 40/79/168
f 50/25/169 46/24/169 35/82/169
f 49/23/170 43/84/170 37/80/170
f 39/20/171 36/87/171 45/85/171
f 46/24/172 47/83/172 41/81/172
f 48/86/173 39/20/173 42/19/173
f 54/88/78 51/106/78 52/89/78
f 55/91/79 57/103/79 53/92/79
f 130/94/174 129/133/174 63/95/174
f 61/97/175 59/135/175 64/96/175
f 131/98/176 58/101/176 127/99/176
f 60/100/83 62/136/83 127/99/83
f 68/102/84 67/107/84 57/103/84
f 57/103/85 67/107/85 66/104/85
f 53/92/86 66/104/86 69/105/86
f 66/104/86 52/89/86 51/106/86
f 67/107/85 56/90/85 52/89/85
f 54/88/84 56/90/84 67/107/84
f 51/108/13 54/137/13 68/109/13
f 66/104/78 67/107/78 68/102/78
f 75/33/177 82/115/177 79/110/177
f 73/31/178 70/118/178 80/113/178
f 75/33/179 80/113/179 78/114/179
f 78/114/180 70/118/180 73/31/180
f 76/116/181 71/111/181 73/31/181
f 77/117/182 83/30/182 81/29/182
f 77/117/183 72/32/183 79/110/183
f 74/112/184 71/111/184 79/110/184
f 84/34/185 95/120/185 94/42/185
f 86/43/186 89/39/186 90/38/186
f 91/121/187 96/40/187 94/42/187
f 91/121/188 87/37/188 92/41/188
f 84/34/189 88/36/189 86/43/189
f 94/42/190 95/120/190 90/38/190
f 101/122/191 102/125/191 109/123/191
f 103/51/192 102/125/192 101/122/192
f 107/48/193 100/126/193 102/125/193
f 102/125/194 100/126/194 105/47/194
f 104/127/195 111/45/195 108/44/195
f 110/128/196 106/124/196 98/46/196
f 104/127/197 101/122/197 106/124/197
f 106/124/198 109/123/198 97/49/198
f 118/57/199 124/131/199 120/129/199
f 123/62/200 122/59/200 113/53/200
f 121/61/201 115/58/201 118/57/201
f 119/130/202 126/60/202 122/59/202
f 125/132/203 120/129/203 113/53/203
f 125/132/204 119/130/204 116/55/204
f 120/129/205 124/131/205 117/54/205
f 129/133/206 128/134/206 61/97/206
f 128/134/207 60/100/207 58/101/207
f 61/97/208 128/134/208 131/98/208
f 62/136/209 60/100/209 128/134/209
f 59/135/210 131/98/210 130/94/210
f 127/99/211 62/136/211 129/133/211
