# Blender v3.2.1 OBJ File: 'Modeling.blend'
# www.blender.org
o Flower_Cube.024
v 0.121514 1.200943 -0.017279
v 0.244911 1.262265 -0.002048
v 0.251878 1.256051 -0.023458
v 0.338501 1.004635 0.057039
v 0.087684 0.958834 -0.035331
v 0.344758 0.995416 0.036348
v 0.109418 1.183200 -0.042682
v 0.242538 0.939693 0.005754
v 0.236209 0.954681 0.051693
v 0.466999 1.138853 0.089183
v 0.321688 1.098383 -0.036210
v 0.093582 0.964949 0.018987
v 0.309532 1.122830 0.002354
v 0.237121 1.064743 -0.029638
v 0.204580 1.042451 -0.061876
v 0.458205 1.204518 0.031933
v 0.488060 1.229717 0.081563
v 0.151021 0.569664 0.039954
v 0.290976 0.573229 0.025848
v 0.277230 0.283420 -0.076977
v -0.008210 0.396262 -0.022047
v 0.245068 0.277159 -0.104488
v 0.120760 0.568393 0.016821
v 0.146626 0.277821 -0.023618
v 0.296905 0.577804 0.002387
v 0.457569 0.349104 -0.031742
v 0.274630 0.427409 -0.107892
v 0.012093 0.372036 0.031694
v 0.289797 0.429293 -0.062263
v 0.180614 0.419070 -0.075029
v 0.127982 0.428291 -0.090904
v 0.478052 0.447985 -0.033098
v 0.520038 0.434525 0.018494
v -0.071536 0.155265 0.020307
v -0.215919 0.404987 0.115994
v 0.004197 0.272952 -0.032595
v -0.224783 0.417229 0.095836
v -0.198087 0.085364 -0.000174
v -0.143361 0.114970 -0.034307
v -0.109631 0.401287 0.036503
v -0.100054 0.379148 0.080336
v -0.285953 0.118226 0.030784
v -0.313224 0.344515 0.244193
v -0.280531 0.304802 0.033518
v -0.000940 0.273283 0.031807
v -0.267954 0.276055 0.075282
v -0.188731 0.287310 -0.002088
v -0.149273 0.290442 -0.041535
v -0.365444 0.275854 0.240245
v -0.353238 0.264195 0.301512
v -0.170335 0.720260 0.126345
v -0.187042 0.718156 -0.072933
v -0.198928 1.097611 -0.075944
v 0.207805 0.731852 0.094519
v 0.195919 1.111308 0.091508
v 0.191097 0.729748 -0.104758
v 0.179211 1.109203 -0.107769
v 0.005062 -0.001489 -0.055999
v 0.021008 0.752910 -0.053674
v 0.057644 -0.001489 0.024199
v 0.064881 0.753572 0.021863
v -0.017172 -0.001489 0.052206
v -0.000316 0.753914 0.054555
v -0.053949 0.753227 -0.024898
v -0.182221 1.099716 0.123334
v -0.190014 0.813020 -0.073685
v 0.188126 0.824612 -0.105511
v 0.204833 0.826716 0.093766
v -0.173306 0.815124 0.125592
v 0.187206 0.846082 0.050338
v 0.349872 0.846148 0.032632
v 0.286419 0.626268 0.019725
v 0.272358 0.880907 0.035104
v 0.245973 0.878173 0.010061
v 0.185292 0.648141 0.003901
v 0.411489 0.720259 0.160728
v 0.370798 0.686481 0.139561
v 0.161231 0.844380 0.002353
v 0.321151 0.734364 -0.010785
v 0.114802 0.788063 0.050019
v 0.248373 0.743682 -0.007805
v 0.206666 0.756542 -0.032789
v 0.413714 0.738684 0.191624
v -0.152576 0.655093 0.029679
v -0.248168 0.623327 0.055204
v -0.084641 0.833378 0.015054
v -0.313047 0.853829 0.074974
v -0.143344 0.664755 0.002359
v -0.218372 0.897044 0.015639
v -0.221298 0.889747 0.056512
v -0.362615 0.772472 0.175694
v -0.226915 0.775813 -0.027642
v -0.099751 0.844653 0.062601
v -0.284391 0.747992 0.056965
v -0.231437 0.783768 0.000033
v -0.411693 0.729845 0.191618
v -0.235710 1.164054 0.001631
v -0.214024 1.296369 0.005439
v 0.047446 1.281586 -0.041727
v -0.043320 1.022859 -0.023876
v 0.049360 1.274240 -0.063936
v 0.042141 1.153524 -0.024485
v 0.035013 1.165098 0.021389
v -0.004693 1.444206 -0.042177
v -0.125858 1.050950 -0.027464
v -0.072216 1.276136 -0.095405
v -0.063288 1.046713 0.035748
v -0.079584 1.204254 -0.046939
v -0.076728 1.154743 -0.072972
v -0.110276 1.462346 -0.045706
v -0.099683 1.505628 -0.002261
v -0.267287 0.892124 0.104665
v -0.345203 0.927214 0.185648
v -0.235261 1.148115 0.158219
v -0.147747 0.969073 0.052277
v -0.267339 1.160461 0.149608
v -0.281595 0.899436 0.081962
v -0.182247 1.121691 0.104031
v -0.297895 1.139380 0.268096
v -0.329532 1.072504 0.136207
v -0.113266 0.999164 0.100642
v -0.311381 1.053907 0.168417
v -0.263873 1.044616 0.093756
v -0.236795 1.039058 0.058198
v -0.339411 1.085554 0.306802
v -0.302391 1.088981 0.346313
v -0.060603 -0.001489 -0.024173
v 0.060308 0.523928 0.027042
v -0.009602 0.525523 0.054127
v -0.055244 0.526581 -0.027392
v 0.018201 0.524905 -0.052781
vt 0.446739 0.643213
vt 0.486696 0.642128
vt 0.447524 0.642927
vt 0.458723 0.633839
vt 0.426246 0.638062
vt 0.441397 0.628312
vt 0.421909 0.622872
vt 0.453927 0.585760
vt 0.449030 0.575218
vt 0.430804 0.585882
vt 0.453691 0.575643
vt 0.431809 0.575327
vt 0.456648 0.596307
vt 0.493782 0.586149
vt 0.485931 0.587115
vt 0.455549 0.585883
vt 0.455503 0.595986
vt 0.376762 0.561841
vt 0.362204 0.564149
vt 0.386668 0.563925
vt 0.395735 0.566761
vt 0.362885 0.577255
vt 0.330733 0.575221
vt 0.361245 0.575235
vt 0.322939 0.574402
vt 0.005353 0.251611
vt 0.247503 0.331066
vt 0.005353 0.331066
vt 0.446734 0.607237
vt 0.485197 0.599045
vt 0.458664 0.616614
vt 0.446305 0.598459
vt 0.432458 0.602549
vt 0.383340 0.601315
vt 0.366056 0.598824
vt 0.386045 0.602023
vt 0.351897 0.614835
vt 0.371280 0.617529
vt 0.372188 0.618036
vt 0.330977 0.602643
vt 0.372009 0.609493
vt 0.359185 0.607339
vt 0.394518 0.614074
vt 0.405954 0.641249
vt 0.411663 0.662498
vt 0.383813 0.649653
vt 0.393052 0.631465
vt 0.402343 0.630051
vt 0.378857 0.640864
vt 0.426954 0.644971
vt 0.422005 0.636638
vt 0.361108 0.618881
vt 0.342653 0.621328
vt 0.360304 0.618879
vt 0.356680 0.637738
vt 0.360087 0.637282
vt 0.374032 0.635088
vt 0.382015 0.623878
vt 0.348951 0.630063
vt 0.319561 0.633292
vt 0.385213 0.627007
vt 0.362295 0.629059
vt 0.447663 0.620809
vt 0.460070 0.632438
vt 0.466486 0.624906
vt 0.465751 0.625411
vt 0.428241 0.639174
vt 0.422782 0.623292
vt 0.446839 0.621799
vt 0.484857 0.635607
vt 0.446725 0.629766
vt 0.481972 0.640411
vt 0.427333 0.595724
vt 0.438540 0.585211
vt 0.406844 0.583664
vt 0.482749 0.580178
vt 0.409678 0.581973
vt 0.431616 0.595793
vt 0.388671 0.584037
vt 0.365664 0.585152
vt 0.386997 0.582482
vt 0.365136 0.584292
vt 0.407473 0.575039
vt 0.378323 0.576027
vt 0.334441 0.580044
vt 0.385896 0.576246
vt 0.408959 0.575018
vt 0.438413 0.606750
vt 0.377458 0.606750
vt 0.438413 0.606750
vt 0.438413 0.633418
vt 0.377458 0.633418
vt 0.377458 0.633418
vt 0.398834 0.592740
vt 0.406492 0.608766
vt 0.398977 0.608766
vt 0.417368 0.608766
vt 0.410703 0.592740
vt 0.398503 0.555740
vt 0.416894 0.555740
vt 0.409379 0.555740
vt 0.438413 0.613417
vt 0.438413 0.633418
vt 0.377458 0.613417
vt 0.377458 0.613417
vt 0.377458 0.606750
vt 0.438413 0.613417
vt 0.005353 0.225125
vt 0.247503 0.251611
vt 0.455474 0.604257
vt 0.468300 0.612646
vt 0.452840 0.616922
vt 0.425074 0.611622
vt 0.433979 0.615314
vt 0.440065 0.608557
vt 0.481026 0.599664
vt 0.472155 0.596725
vt 0.440074 0.615712
vt 0.371320 0.610039
vt 0.392131 0.614816
vt 0.334842 0.607628
vt 0.427742 0.644695
vt 0.404741 0.637870
vt 0.409348 0.646708
vt 0.423097 0.635865
vt 0.404915 0.628221
vt 0.423877 0.656122
vt 0.410314 0.659394
vt 0.350587 0.630831
vt 0.332606 0.636783
vt 0.367937 0.628193
vt 0.325346 0.632451
vt 0.405919 0.592740
vt 0.417225 0.592740
vt 0.411276 0.608766
vt 0.404595 0.555740
vt 0.247503 0.225125
vn 0.2010 0.9564 -0.2121
vn -0.3377 -0.1271 0.9326
vn -0.2137 -0.0113 -0.9768
vn -0.1151 0.0001 -0.9934
vn 0.0909 -0.9888 0.1187
vn 0.5379 0.8122 -0.2258
vn 0.2383 0.5511 -0.7997
vn -0.2765 -0.5001 0.8206
vn -0.4059 -0.2599 -0.8762
vn 0.4819 -0.8761 0.0127
vn -0.9261 0.0324 -0.3759
vn 0.9144 0.1946 0.3549
vn 0.0835 0.0105 0.9964
vn -0.7690 -0.0644 0.6360
vn -0.1109 0.1927 0.9750
vn 0.2450 -0.9371 -0.2486
vn -0.3359 0.9311 0.1422
vn -0.7121 -0.2559 -0.6538
vn 0.6998 0.1936 0.6876
vn 0.2993 -0.0324 -0.9536
vn 0.2868 -0.1217 0.9502
vn -0.5523 -0.6655 0.5021
vn -0.3240 0.4772 0.8169
vn -0.4285 -0.9033 -0.0209
vn 0.3769 0.9227 -0.0812
vn 0.3237 -0.8219 -0.4687
vn 0.9662 -0.2577 0.0020
vn 0.5695 -0.8157 0.1015
vn 0.6966 -0.5081 0.5065
vn 0.4680 -0.4366 -0.7684
vn 0.3129 -0.8288 0.4639
vn -0.1123 -0.0207 0.9935
vn -0.1348 -0.9473 0.2905
vn 0.5778 -0.6661 0.4716
vn 0.2433 0.1191 0.9626
vn -0.4861 0.2660 0.8324
vn 0.1640 -0.4993 -0.8507
vn 0.3406 0.7397 -0.5804
vn 0.6228 -0.3526 -0.6984
vn -0.9871 0.1310 0.0924
vn 0.8809 -0.2385 -0.4088
vn -0.1401 0.5892 0.7958
vn -0.5458 0.2379 0.8034
vn 0.1459 0.1437 -0.9788
vn -0.0376 0.9826 0.1821
vn -0.0508 -0.5211 0.8520
vn -0.3829 0.8464 -0.3702
vn -0.4925 -0.6359 -0.5943
vn 0.3860 -0.8882 -0.2491
vn 0.5658 -0.4272 0.7052
vn -0.3092 -0.3039 0.9012
vn -0.3963 -0.2271 -0.8896
vn 0.5030 0.8155 0.2861
vn 0.3517 -0.0903 -0.9317
vn -0.7217 0.4868 0.4921
vn 0.7440 -0.1630 -0.6480
vn -0.4797 0.5192 -0.7073
vn 0.4859 0.1933 0.8524
vn 0.3798 -0.1252 0.9165
vn -0.0887 0.5975 -0.7969
vn -0.3109 0.5740 -0.7575
vn 0.3129 0.8666 0.3887
vn -0.1763 0.0175 0.9842
vn 0.7003 -0.0257 0.7134
vn 0.0983 0.8692 0.4846
vn 0.7557 0.6360 0.1561
vn 0.9169 -0.2183 0.3342
vn 0.1106 0.5454 -0.8309
vn -0.8502 -0.5218 0.0701
vn -0.1783 -0.8839 0.4323
vn -0.8029 0.5391 -0.2543
vn 0.6831 -0.3460 -0.6431
vn -0.7750 0.5743 0.2637
vn 0.0536 -0.0393 -0.9978
vn -0.1880 -0.5493 0.8142
vn 0.1979 -0.3669 0.9090
vn -0.4940 0.0271 -0.8691
vn 0.0313 -0.9995 0.0079
vn -0.0313 0.9995 -0.0079
vn -0.8288 -0.0014 0.5595
vn 0.0007 1.0000 -0.0091
vn -0.3268 -0.0024 -0.9451
vn 0.0000 -1.0000 0.0000
vn 0.9960 0.0305 -0.0838
vn -0.0835 -0.0105 -0.9964
vn -0.9960 -0.0305 0.0838
vn 0.0849 -0.2958 -0.9515
vn 0.3512 0.8160 -0.4592
vn 0.2802 -0.3308 0.9012
vn -0.7156 -0.0932 -0.6922
vn -0.3767 0.8760 0.3013
vn 0.8259 0.4561 -0.3315
vn -0.7853 -0.1117 0.6090
vn 0.6991 -0.5815 -0.4161
vn 0.8824 -0.0448 -0.4684
vn 0.2356 0.2987 -0.9248
vn 0.4267 -0.7900 0.4404
vn -0.0532 0.3471 -0.9363
vn 0.3593 -0.1239 0.9250
vn -0.5979 0.7445 0.2972
vn 0.1487 0.3077 0.9398
vn -0.6019 0.3058 -0.7377
vn 0.3333 0.9237 0.1888
vn -0.4124 -0.0431 0.9100
vn 0.8399 0.1381 0.5249
vn 0.1497 0.3231 -0.9345
vn -0.6667 0.6051 -0.4350
vn 0.8834 -0.3076 0.3537
vn -0.2085 -0.4444 0.8712
vn 0.2342 -0.1011 0.9669
vn 0.2436 -0.1850 -0.9521
vn -0.2642 -0.4318 -0.8624
vn 0.9951 -0.0284 0.0952
vn 0.8089 -0.5279 0.2589
vn 0.3146 -0.0788 0.9460
vn -0.3214 -0.9114 0.2570
vn 0.9521 0.3052 -0.0189
vn 0.1490 0.4716 0.8691
vn 0.3218 -0.5038 -0.8016
vn -0.0357 -0.0087 0.9993
vn -0.8540 0.4575 -0.2476
vn 0.0788 0.2721 -0.9590
vn -0.5868 -0.1260 -0.7999
vn 0.1414 0.6839 -0.7158
vn -0.4263 -0.1863 -0.8852
vn -0.3630 0.4033 0.8400
vn -0.3110 0.3542 -0.8819
vn 0.6980 -0.0897 0.7105
vn 0.7445 0.4045 0.5311
vn 0.2919 0.9258 0.2400
vn -0.0239 0.0719 0.9971
vn 0.7398 -0.5569 0.3775
vn 0.2207 0.3576 -0.9074
vn -0.6285 -0.4580 0.6286
vn -0.8191 0.5665 -0.0908
vn -0.8590 -0.0794 -0.5057
vn -0.5329 0.7249 0.4365
vn -0.1568 -0.1166 -0.9807
vn -0.1847 -0.4823 0.8563
vn 0.4481 -0.0199 0.8938
vn 0.8842 -0.0192 -0.4667
vn 0.8647 -0.0126 -0.5021
vn 0.3611 -0.0086 0.9325
vn -0.3583 0.0123 -0.9335
vn -0.8724 0.0118 0.4886
vn 0.3771 -0.4080 -0.8315
vn 0.3995 -0.8539 0.3336
vn -0.2070 -0.2612 0.9428
vn -0.1548 -0.9797 0.1271
vn -0.4889 0.1848 0.8525
vn 0.3019 0.2089 -0.9302
vn 0.7170 -0.4011 -0.5701
vn -0.9239 0.1016 0.3690
vn -0.3160 0.5655 0.7618
vn 0.0477 0.1666 -0.9849
vn -0.0274 0.9994 -0.0191
vn 0.0957 -0.5921 0.8001
vn -0.3648 0.8359 -0.4102
vn -0.6035 -0.7872 -0.1269
vn -0.2151 -0.0796 0.9733
vn 0.3483 -0.0850 -0.9335
vn -0.5916 0.2719 0.7590
vn -0.1419 0.3685 0.9187
vn -0.0971 0.6035 -0.7914
vn -0.3374 0.6196 -0.7087
vn 0.3130 0.8735 0.3728
vn -0.1593 -0.0009 0.9872
vn 0.7620 0.6450 0.0575
vn 0.8011 -0.4485 0.3965
vn -0.7797 0.6028 -0.1694
vn 0.7291 -0.6816 0.0617
vn 0.4773 -0.7956 0.3730
vn -0.4157 -0.0514 -0.9081
vn -0.8718 0.0345 0.4886
vn 0.0007 1.0000 -0.0092
vn -0.4361 0.0164 -0.8998
vn 0.1139 -0.3386 -0.9340
vn 0.3178 -0.4013 0.8590
vn -0.6604 -0.0869 -0.7459
vn -0.3497 0.9237 0.1566
vn 0.3528 0.7466 0.5640
vn -0.7699 -0.0036 0.6382
vn 0.8353 -0.3804 -0.3970
vn 0.2759 0.2388 -0.9310
vn 0.6605 0.1816 0.7285
vn 0.4283 0.9003 -0.0774
vn 0.6456 -0.5427 0.5373
vn -0.8167 -0.1809 -0.5480
vn 0.9221 -0.3355 0.1929
vn 0.7854 -0.3479 0.5119
vn 0.3564 -0.3094 -0.8816
vn 0.9872 -0.0196 0.1583
vn 0.7121 -0.5363 0.4531
vn 0.0342 -0.0270 -0.9990
vn 0.3188 -0.1182 0.9404
vn -0.5668 0.1024 -0.8175
vn 0.2484 0.2003 -0.9477
vn -0.4184 0.0946 -0.9033
vn -0.3598 0.6228 -0.6947
vn 0.8446 0.0194 0.5350
vn 0.6297 0.3734 -0.6812
vn 0.9916 -0.1273 -0.0250
vn -0.9943 0.0854 -0.0641
vn -0.8046 0.5847 -0.1035
vn -0.6274 0.0693 -0.7756
vn 0.3615 0.0138 0.9323
vn 0.8363 -0.0013 -0.5483
vn 0.8840 -0.0281 -0.4666
vn 0.3506 -0.0068 0.9365
vn -0.3267 0.0003 -0.9451
vn -0.8692 0.0107 0.4943
s off
f 2/1/1 17/2/1 3/3/1
f 13/4/2 17/2/2 2/1/2
f 7/5/3 15/6/3 5/7/3
f 27/8/4 22/9/4 31/10/4
f 22/9/5 20/11/5 24/12/5
f 25/13/6 33/14/6 32/15/6
f 27/8/7 25/13/7 32/15/7
f 29/16/8 33/14/8 19/17/8
f 38/18/9 42/19/9 39/20/9
f 38/18/10 39/20/10 34/21/10
f 44/22/11 42/19/11 49/23/11
f 46/24/12 50/25/12 38/18/12
f 69/26/13 55/27/13 65/28/13
f 81/29/14 83/30/14 73/31/14
f 72/32/15 81/29/15 75/33/15
f 84/34/16 85/35/16 88/36/16
f 87/37/17 90/38/17 89/39/17
f 85/35/18 96/40/18 92/41/18
f 94/42/19 96/40/19 85/35/19
f 88/36/20 92/41/20 86/43/20
f 108/44/21 111/45/21 98/46/21
f 105/47/22 107/48/22 97/49/22
f 99/50/23 108/44/23 103/51/23
f 112/52/24 113/53/24 117/54/24
f 116/55/25 114/56/25 118/57/25
f 112/52/26 117/54/26 115/58/26
f 122/59/27 126/60/27 113/53/27
f 115/58/28 121/61/28 112/52/28
f 114/56/29 122/59/29 123/62/29
f 8/63/30 11/64/30 6/65/30
f 4/66/31 8/63/31 6/65/31
f 1/67/32 13/4/32 2/1/32
f 12/68/33 8/63/33 9/69/33
f 4/66/34 6/65/34 10/70/34
f 12/68/35 14/71/35 1/67/35
f 10/70/36 13/4/36 4/66/36
f 15/6/37 8/63/37 5/7/37
f 16/72/38 3/3/38 17/2/38
f 16/72/39 6/65/39 11/64/39
f 1/67/40 5/7/40 12/68/40
f 10/70/41 16/72/41 17/2/41
f 12/68/42 9/69/42 14/71/42
f 14/71/43 4/66/43 13/4/43
f 15/6/44 3/3/44 11/64/44
f 23/73/45 19/17/45 25/13/45
f 19/17/46 30/74/46 29/16/46
f 7/5/47 2/1/47 3/3/47
f 24/12/48 21/75/48 22/9/48
f 20/11/49 22/9/49 26/76/49
f 28/77/50 30/74/50 18/78/50
f 29/16/51 26/76/51 33/14/51
f 31/10/52 22/9/52 21/75/52
f 25/13/53 19/17/53 33/14/53
f 32/15/54 22/9/54 27/8/54
f 18/78/55 21/75/55 28/77/55
f 26/76/56 32/15/56 33/14/56
f 23/73/57 31/10/57 21/75/57
f 28/77/58 24/12/58 30/74/58
f 29/16/59 24/12/59 20/11/59
f 31/10/60 25/13/60 27/8/60
f 40/79/61 44/22/61 37/80/61
f 41/81/62 37/80/62 35/82/62
f 38/18/63 45/83/63 47/84/63
f 47/84/64 46/24/64 38/18/64
f 35/82/65 37/80/65 43/85/65
f 45/83/66 40/79/66 41/81/66
f 46/24/67 43/85/67 50/25/67
f 48/86/68 40/79/68 36/87/68
f 49/23/69 42/19/69 50/25/69
f 38/18/70 50/25/70 42/19/70
f 49/23/71 37/80/71 44/22/71
f 39/20/72 45/83/72 34/21/72
f 43/85/73 49/23/73 50/25/73
f 39/20/74 48/86/74 36/87/74
f 45/83/75 41/81/75 47/84/75
f 46/24/76 41/81/76 35/82/76
f 48/86/77 42/19/77 44/22/77
f 54/88/78 52/89/78 56/90/78
f 55/91/79 53/92/79 65/93/79
f 130/94/80 63/95/80 64/96/80
f 61/97/81 64/96/81 63/95/81
f 131/98/82 127/99/82 130/94/82
f 60/100/83 127/99/83 58/101/83
f 68/102/84 57/103/84 55/91/84
f 57/103/85 66/104/85 53/92/85
f 53/92/86 69/105/86 65/93/86
f 66/104/86 51/106/86 69/105/86
f 67/107/85 52/89/85 66/104/85
f 54/88/84 67/107/84 68/102/84
f 51/108/13 68/109/13 69/26/13
f 66/104/78 68/102/78 69/105/78
f 75/33/87 79/110/87 72/32/87
f 73/31/88 71/111/88 74/112/88
f 73/31/89 80/113/89 81/29/89
f 75/33/90 78/114/90 82/115/90
f 78/114/91 73/31/91 74/112/91
f 76/116/92 73/31/92 83/30/92
f 77/117/93 81/29/93 72/32/93
f 77/117/94 79/110/94 76/116/94
f 79/110/95 71/111/95 76/116/95
f 82/115/96 71/111/96 79/110/96
f 77/117/97 76/116/97 83/30/97
f 78/114/98 74/112/98 82/115/98
f 75/33/99 81/29/99 80/113/99
f 78/114/100 80/113/100 70/118/100
f 95/119/101 85/35/101 84/34/101
f 92/41/102 87/37/102 89/39/102
f 93/120/103 89/39/103 90/38/103
f 93/120/104 95/119/104 84/34/104
f 91/121/105 94/42/105 87/37/105
f 92/41/106 89/39/106 86/43/106
f 91/121/107 92/41/107 96/40/107
f 84/34/108 86/43/108 93/120/108
f 93/120/109 90/38/109 95/119/109
f 94/42/110 90/38/110 87/37/110
f 101/122/111 109/123/111 106/124/111
f 88/36/112 85/35/112 92/41/112
f 99/50/113 102/125/113 101/122/113
f 103/51/114 100/126/114 102/125/114
f 108/44/115 98/46/115 97/49/115
f 105/47/116 100/126/116 107/48/116
f 99/50/117 101/122/117 104/127/117
f 107/48/118 108/44/118 97/49/118
f 102/125/119 105/47/119 109/123/119
f 104/127/120 108/44/120 99/50/120
f 110/128/121 98/46/121 111/45/121
f 104/127/122 106/124/122 110/128/122
f 109/123/123 98/46/123 106/124/123
f 110/128/124 111/45/124 104/127/124
f 105/47/125 97/49/125 109/123/125
f 103/51/126 108/44/126 107/48/126
f 118/57/127 120/129/127 116/55/127
f 112/52/128 122/59/128 113/53/128
f 121/61/129 118/57/129 114/56/129
f 114/56/130 116/55/130 119/130/130
f 121/61/131 123/62/131 112/52/131
f 119/130/132 122/59/132 114/56/132
f 115/58/133 124/131/133 118/57/133
f 125/132/134 113/53/134 126/60/134
f 119/130/135 120/129/135 125/132/135
f 120/129/136 117/54/136 113/53/136
f 125/132/137 126/60/137 119/130/137
f 115/58/138 117/54/138 124/131/138
f 121/61/139 114/56/139 123/62/139
f 129/133/140 61/97/140 63/95/140
f 128/134/141 58/101/141 131/98/141
f 61/97/142 131/98/142 59/135/142
f 62/136/143 128/134/143 129/133/143
f 59/135/144 130/94/144 64/96/144
f 127/99/145 129/133/145 130/94/145
f 69/26/13 68/109/13 55/27/13
f 8/63/146 15/6/146 11/64/146
f 4/66/147 9/69/147 8/63/147
f 1/67/148 14/71/148 13/4/148
f 12/68/149 5/7/149 8/63/149
f 10/70/150 17/2/150 13/4/150
f 16/72/151 11/64/151 3/3/151
f 16/72/152 10/70/152 6/65/152
f 1/67/153 7/5/153 5/7/153
f 14/71/154 9/69/154 4/66/154
f 15/6/155 7/5/155 3/3/155
f 23/73/156 18/78/156 19/17/156
f 19/17/157 18/78/157 30/74/157
f 7/5/158 1/67/158 2/1/158
f 24/12/159 28/77/159 21/75/159
f 29/16/160 20/11/160 26/76/160
f 32/15/161 26/76/161 22/9/161
f 18/78/162 23/73/162 21/75/162
f 29/16/163 30/74/163 24/12/163
f 31/10/164 23/73/164 25/13/164
f 40/79/165 48/86/165 44/22/165
f 41/81/166 40/79/166 37/80/166
f 38/18/167 34/21/167 45/83/167
f 45/83/168 36/87/168 40/79/168
f 46/24/169 35/82/169 43/85/169
f 49/23/170 43/85/170 37/80/170
f 39/20/171 36/87/171 45/83/171
f 46/24/172 47/84/172 41/81/172
f 48/86/173 39/20/173 42/19/173
f 54/88/78 51/106/78 52/89/78
f 55/91/79 57/103/79 53/92/79
f 130/94/174 129/133/174 63/95/174
f 61/97/175 59/135/175 64/96/175
f 131/98/176 58/101/176 127/99/176
f 60/100/83 62/136/83 127/99/83
f 68/102/84 67/107/84 57/103/84
f 57/103/85 67/107/85 66/104/85
f 53/92/86 66/104/86 69/105/86
f 66/104/86 52/89/86 51/106/86
f 67/107/85 56/90/85 52/89/85
f 54/88/84 56/90/84 67/107/84
f 51/108/13 54/137/13 68/109/13
f 66/104/78 67/107/78 68/102/78
f 75/33/177 82/115/177 79/110/177
f 73/31/178 70/118/178 80/113/178
f 75/33/179 80/113/179 78/114/179
f 78/114/180 70/118/180 73/31/180
f 76/116/181 71/111/181 73/31/181
f 77/117/182 83/30/182 81/29/182
f 77/117/183 72/32/183 79/110/183
f 82/115/184 74/112/184 71/111/184
f 95/119/185 94/42/185 85/35/185
f 93/120/186 86/43/186 89/39/186
f 91/121/187 96/40/187 94/42/187
f 91/121/188 87/37/188 92/41/188
f 84/34/189 88/36/189 86/43/189
f 94/42/190 95/119/190 90/38/190
f 101/122/191 102/125/191 109/123/191
f 99/50/192 103/51/192 102/125/192
f 103/51/193 107/48/193 100/126/193
f 102/125/194 100/126/194 105/47/194
f 104/127/195 111/45/195 108/44/195
f 110/128/196 106/124/196 98/46/196
f 104/127/197 101/122/197 106/124/197
f 109/123/198 97/49/198 98/46/198
f 118/57/199 124/131/199 120/129/199
f 112/52/200 123/62/200 122/59/200
f 121/61/201 115/58/201 118/57/201
f 119/130/202 126/60/202 122/59/202
f 125/132/203 120/129/203 113/53/203
f 119/130/204 116/55/204 120/129/204
f 120/129/205 124/131/205 117/54/205
f 129/133/206 128/134/206 61/97/206
f 128/134/207 60/100/207 58/101/207
f 61/97/208 128/134/208 131/98/208
f 62/136/209 60/100/209 128/134/209
f 59/135/210 131/98/210 130/94/210
f 127/99/211 62/136/211 129/133/211
