# Blender v3.2.1 OBJ File: 'Modeling.blend'
# www.blender.org
o Flower_Cube.024
v 0.020464 1.222764 -0.034906
v 0.138299 1.307482 -0.032027
v 0.147050 1.301584 -0.053583
v 0.263606 1.067980 0.036554
v 0.033322 0.973949 -0.045926
v 0.271320 1.059128 0.016747
v 0.010119 1.202090 -0.058180
v 0.186797 0.988871 -0.013965
v 0.179954 1.003078 0.032011
v 0.339440 1.221171 0.098440
v 0.234502 1.154951 -0.057270
v 0.041116 0.981597 0.007958
v 0.219082 1.178799 -0.019506
v 0.157155 1.108993 -0.048889
v 0.128128 1.080095 -0.079179
v 0.350394 1.282071 0.039478
v 0.346449 1.314250 0.093684
v 0.146182 0.570809 0.004219
v 0.273535 0.575308 -0.015278
v 0.261684 0.285304 -0.117631
v -0.009957 0.395841 -0.022587
v 0.226922 0.278725 -0.143556
v 0.113048 0.569342 -0.011459
v 0.139591 0.279234 -0.049133
v 0.279121 0.579908 -0.037530
v 0.433141 0.352431 -0.036818
v 0.256071 0.429224 -0.143727
v 0.012090 0.372232 0.031147
v 0.274823 0.431309 -0.103866
v 0.162047 0.420148 -0.112908
v 0.106773 0.428916 -0.116692
v 0.453170 0.451503 -0.024955
v 0.481232 0.438248 0.035400
v -0.070504 0.155060 0.022438
v -0.209868 0.404987 0.123695
v 0.003070 0.272944 -0.032723
v -0.219724 0.417229 0.104073
v -0.197833 0.085364 0.006591
v -0.144409 0.114884 -0.029614
v -0.108302 0.401195 0.039738
v -0.096765 0.379043 0.082867
v -0.284180 0.118226 0.041656
v -0.296273 0.344515 0.257283
v -0.278393 0.304802 0.044812
v 0.000011 0.273317 0.031811
v -0.263718 0.276055 0.085925
v -0.188663 0.287294 0.004141
v -0.150552 0.290442 -0.036627
v -0.347919 0.275854 0.258015
v -0.331134 0.264195 0.317806
v -0.170261 0.707210 0.147351
v -0.215464 0.697782 -0.047233
v -0.264117 1.074241 -0.054170
v 0.196353 0.752980 0.059966
v 0.147700 1.129439 0.053029
v 0.151150 0.743552 -0.134618
v 0.102497 1.120011 -0.141554
v 0.002677 -0.001489 -0.056163
v -0.008671 0.752341 -0.058713
v 0.058621 -0.001489 0.021726
v 0.043211 0.759009 0.009530
v -0.014937 -0.001489 0.052889
v -0.016546 0.754416 0.050810
v -0.079993 0.746722 -0.020421
v -0.218913 1.083669 0.140414
v -0.227627 0.791897 -0.048967
v 0.138986 0.837667 -0.136352
v 0.184190 0.847094 0.058232
v -0.182424 0.801324 0.145617
v 0.158439 0.862627 0.017938
v 0.314420 0.879635 -0.024643
v 0.276088 0.654679 -0.024954
v 0.235383 0.905409 -0.010207
v 0.206197 0.899206 -0.030962
v 0.171215 0.664432 -0.025259
v 0.410070 0.768050 0.092943
v 0.370666 0.729194 0.079724
v 0.126103 0.857460 -0.025794
v 0.292591 0.765176 -0.061765
v 0.093090 0.798458 0.028980
v 0.220555 0.765929 -0.047569
v 0.174359 0.773754 -0.066141
v 0.415137 0.788028 0.122548
v -0.168857 0.651786 0.070341
v -0.238726 0.620117 0.136080
v -0.110982 0.830820 0.039223
v -0.278698 0.839738 0.183944
v -0.173109 0.661183 0.042422
v -0.236318 0.892678 0.086073
v -0.223562 0.885793 0.124499
v -0.265680 0.789501 0.276817
v -0.257661 0.770584 0.050781
v -0.108141 0.842777 0.089106
v -0.265005 0.743218 0.155176
v -0.252232 0.778995 0.078157
v -0.322268 0.808933 0.288239
v -0.273555 1.160514 0.027842
v -0.253812 1.286015 0.039366
v 0.002730 1.278660 -0.043044
v -0.085085 1.021041 -0.023268
v 0.001788 1.274424 -0.065701
v -0.000552 1.151511 -0.038220
v -0.000763 1.162684 0.008423
v -0.038876 1.430339 -0.004347
v -0.167184 1.049284 -0.014516
v -0.122922 1.280114 -0.077363
v -0.095787 1.045282 0.038543
v -0.124200 1.202375 -0.041684
v -0.125369 1.152709 -0.067550
v -0.141024 1.454952 0.007666
v -0.123189 1.488866 0.056704
v -0.275111 0.870022 0.153542
v -0.325380 0.902078 0.254498
v -0.253395 1.129855 0.191095
v -0.177424 0.955533 0.075951
v -0.287653 1.139025 0.192750
v -0.294723 0.875208 0.135015
v -0.216243 1.105940 0.129566
v -0.264557 1.121687 0.302119
v -0.339644 1.045887 0.202289
v -0.136609 0.990291 0.115443
v -0.310114 1.030395 0.226934
v -0.289002 1.021698 0.140231
v -0.269662 1.017349 0.099593
v -0.272352 1.067817 0.356907
v -0.220686 1.076312 0.371115
v -0.061576 -0.001489 -0.021574
v 0.052250 0.526254 0.027669
v -0.018453 0.525382 0.052645
v -0.061631 0.524276 -0.030205
v 0.012556 0.525209 -0.053379
vt 0.446739 0.643213
vt 0.486696 0.642128
vt 0.447524 0.642927
vt 0.458723 0.633839
vt 0.426246 0.638062
vt 0.441397 0.628312
vt 0.421909 0.622872
vt 0.453927 0.585760
vt 0.449030 0.575218
vt 0.430804 0.585882
vt 0.453691 0.575643
vt 0.431809 0.575327
vt 0.456648 0.596307
vt 0.493782 0.586149
vt 0.485931 0.587115
vt 0.455549 0.585883
vt 0.455503 0.595986
vt 0.376762 0.561841
vt 0.362204 0.564149
vt 0.386668 0.563925
vt 0.395735 0.566761
vt 0.362885 0.577255
vt 0.330733 0.575221
vt 0.361245 0.575235
vt 0.322939 0.574402
vt 0.005353 0.251611
vt 0.247503 0.331066
vt 0.005353 0.331066
vt 0.446734 0.607237
vt 0.485197 0.599045
vt 0.458664 0.616614
vt 0.446305 0.598459
vt 0.432458 0.602549
vt 0.383340 0.601315
vt 0.366056 0.598824
vt 0.386045 0.602023
vt 0.351897 0.614835
vt 0.371280 0.617529
vt 0.372188 0.618036
vt 0.330977 0.602643
vt 0.372009 0.609493
vt 0.359185 0.607339
vt 0.394518 0.614074
vt 0.405954 0.641249
vt 0.411663 0.662498
vt 0.383813 0.649653
vt 0.393052 0.631465
vt 0.402343 0.630051
vt 0.378857 0.640864
vt 0.426954 0.644971
vt 0.422005 0.636638
vt 0.361108 0.618881
vt 0.342653 0.621328
vt 0.360304 0.618879
vt 0.356680 0.637738
vt 0.360087 0.637282
vt 0.374032 0.635088
vt 0.382015 0.623878
vt 0.348951 0.630063
vt 0.319561 0.633292
vt 0.385213 0.627007
vt 0.362295 0.629059
vt 0.447663 0.620809
vt 0.460070 0.632438
vt 0.466486 0.624906
vt 0.446839 0.621799
vt 0.465751 0.625411
vt 0.428241 0.639174
vt 0.422782 0.623292
vt 0.484857 0.635607
vt 0.446725 0.629766
vt 0.481972 0.640411
vt 0.427333 0.595724
vt 0.438540 0.585211
vt 0.406844 0.583664
vt 0.482749 0.580178
vt 0.409678 0.581973
vt 0.431616 0.595793
vt 0.388671 0.584037
vt 0.365664 0.585152
vt 0.386997 0.582482
vt 0.365136 0.584292
vt 0.407473 0.575039
vt 0.378323 0.576027
vt 0.334441 0.580044
vt 0.385896 0.576246
vt 0.408959 0.575018
vt 0.438413 0.606750
vt 0.377458 0.606750
vt 0.438413 0.606750
vt 0.438413 0.633418
vt 0.377458 0.633418
vt 0.377458 0.633418
vt 0.405919 0.592740
vt 0.398977 0.608766
vt 0.398834 0.592740
vt 0.417368 0.608766
vt 0.406492 0.608766
vt 0.410703 0.592740
vt 0.398503 0.555740
vt 0.416894 0.555740
vt 0.409379 0.555740
vt 0.438413 0.613417
vt 0.438413 0.633418
vt 0.377458 0.613417
vt 0.377458 0.613417
vt 0.377458 0.606750
vt 0.438413 0.613417
vt 0.005353 0.225125
vt 0.247503 0.251611
vt 0.440065 0.608557
vt 0.455474 0.604257
vt 0.468300 0.612646
vt 0.452840 0.616922
vt 0.440074 0.615712
vt 0.433979 0.615314
vt 0.481026 0.599664
vt 0.472155 0.596725
vt 0.425074 0.611622
vt 0.371320 0.610039
vt 0.392131 0.614816
vt 0.334842 0.607628
vt 0.427742 0.644695
vt 0.404741 0.637870
vt 0.409348 0.646708
vt 0.423097 0.635865
vt 0.404915 0.628221
vt 0.423877 0.656122
vt 0.410314 0.659394
vt 0.350587 0.630831
vt 0.332606 0.636783
vt 0.367937 0.628193
vt 0.325346 0.632451
vt 0.417225 0.592740
vt 0.411276 0.608766
vt 0.404595 0.555740
vt 0.247503 0.225125
vn 0.1033 0.9693 -0.2233
vn -0.4975 -0.2309 0.8362
vn -0.2517 -0.0774 -0.9647
vn -0.1782 0.0334 -0.9834
vn 0.1083 -0.9885 0.1055
vn 0.5953 0.7970 -0.1018
vn 0.4116 0.4821 -0.7734
vn -0.4856 -0.4612 0.7426
vn -0.4445 -0.2503 -0.8601
vn 0.4807 -0.8769 -0.0057
vn -0.9515 0.0347 -0.3056
vn 0.9368 0.2060 0.2829
vn 0.2260 0.0471 0.9730
vn -0.6437 -0.1334 0.7536
vn 0.0164 0.2070 0.9782
vn 0.1119 -0.9365 -0.3323
vn -0.4090 0.8650 0.2908
vn -0.9453 -0.2426 -0.2180
vn 0.9329 0.1482 0.3283
vn -0.0833 0.0117 -0.9965
vn 0.3559 -0.3047 0.8835
vn -0.4677 -0.6678 0.5790
vn -0.2312 0.4004 0.8867
vn -0.3559 -0.9272 0.1172
vn 0.2422 0.9447 -0.2209
vn 0.2845 -0.8018 -0.5255
vn 0.8598 -0.2030 -0.4686
vn 0.6540 -0.7564 -0.0102
vn 0.8767 -0.4083 0.2544
vn 0.5663 -0.3564 -0.7431
vn 0.5104 -0.6934 0.5086
vn -0.0648 0.0563 0.9963
vn 0.1313 -0.9840 0.1206
vn 0.6759 -0.5381 0.5037
vn 0.2554 0.1903 0.9479
vn -0.7105 0.0688 0.7003
vn 0.2236 -0.4676 -0.8552
vn 0.2956 0.8308 -0.4717
vn 0.7482 -0.2009 -0.6323
vn -0.9869 -0.0577 0.1509
vn 0.9912 -0.0689 0.1130
vn -0.2248 0.5604 0.7971
vn -0.5750 0.1735 0.7996
vn 0.0492 0.2155 -0.9753
vn -0.0318 0.9803 0.1947
vn -0.0164 -0.5240 0.8515
vn -0.5253 0.7421 -0.4163
vn -0.5777 -0.6200 -0.5309
vn 0.5112 -0.6919 -0.5099
vn 0.6995 -0.3913 0.5980
vn -0.5118 -0.3669 0.7768
vn -0.5467 -0.2974 -0.7827
vn 0.4764 0.8296 0.2911
vn 0.5163 -0.0018 -0.8564
vn -0.6790 0.5277 0.5104
vn 0.8885 -0.1268 -0.4410
vn -0.6282 0.4844 -0.6089
vn 0.6341 0.2327 0.7374
vn 0.4902 -0.1254 0.8626
vn -0.1457 0.5847 -0.7980
vn -0.3466 0.5725 -0.7430
vn 0.3332 0.8660 0.3729
vn -0.1437 0.0185 0.9894
vn 0.7383 -0.0253 0.6740
vn 0.1295 0.8692 0.4772
vn 0.7610 0.6369 0.1236
vn 0.9416 -0.2105 0.2630
vn 0.0832 0.5440 -0.8350
vn -0.8411 -0.5240 0.1340
vn -0.1575 -0.8839 0.4404
vn -0.8231 0.5329 -0.1961
vn 0.6579 -0.3390 -0.6725
vn -0.7546 0.5711 0.3232
vn 0.0209 -0.0392 -0.9990
vn -0.1610 -0.5448 0.8229
vn 0.2412 -0.3642 0.8995
vn -0.5346 0.0309 -0.8446
vn 0.1281 -0.9916 0.0183
vn -0.1281 0.9916 -0.0183
vn -0.8824 -0.0931 0.4611
vn -0.0933 0.9953 -0.0244
vn -0.2980 -0.0157 -0.9545
vn 0.0000 -1.0000 -0.0000
vn 0.9657 0.1206 -0.2302
vn -0.2260 -0.0471 -0.9730
vn -0.9657 -0.1206 0.2302
vn 0.0120 -0.3177 -0.9481
vn 0.1819 0.8422 -0.5075
vn 0.4614 -0.2750 0.8435
vn -0.8018 -0.1890 -0.5669
vn -0.4182 0.8440 0.3359
vn 0.6997 0.5309 -0.4780
vn -0.6615 -0.1823 0.7275
vn 0.7204 -0.6718 -0.1726
vn 0.7952 0.0445 -0.6047
vn 0.0569 0.2982 -0.9528
vn 0.5790 -0.7184 0.3857
vn -0.2239 0.3154 -0.9222
vn 0.5036 -0.0553 0.8621
vn -0.6168 0.6925 0.3742
vn 0.5660 0.3244 0.7579
vn -0.9313 0.2416 -0.2726
vn 0.3614 0.9312 0.0469
vn -0.0377 -0.0858 0.9956
vn 0.9863 0.1560 -0.0539
vn -0.1983 0.3040 -0.9318
vn -0.9105 0.2903 -0.2946
vn 0.9388 -0.3433 0.0288
vn 0.1184 -0.4218 0.8989
vn 0.7620 -0.0833 0.6422
vn 0.0893 -0.0782 -0.9929
vn -0.6330 -0.4405 -0.6366
vn 0.9990 -0.0272 -0.0364
vn 0.8388 -0.5285 0.1304
vn 0.4518 -0.1518 0.8791
vn -0.2799 -0.9092 0.3081
vn 0.9539 0.2854 -0.0930
vn 0.2580 0.4760 0.8407
vn 0.2192 -0.2501 -0.9431
vn 0.1364 -0.2096 0.9682
vn -0.8357 0.5443 -0.0725
vn -0.0004 0.4373 -0.8993
vn -0.6516 0.1704 -0.7392
vn 0.1217 0.7951 -0.5941
vn -0.5376 -0.2024 -0.8186
vn -0.2267 0.4101 0.8834
vn -0.5774 0.2425 -0.7796
vn 0.8938 -0.0100 0.4483
vn 0.8055 0.5199 0.2843
vn 0.2617 0.9603 0.0970
vn 0.1802 0.1024 0.9783
vn 0.8755 -0.4803 0.0527
vn -0.0199 0.3312 -0.9434
vn -0.1577 -0.4820 0.8618
vn -0.8467 0.4346 0.3069
vn -0.9629 -0.1712 -0.2086
vn -0.2938 0.7022 0.6486
vn -0.3490 -0.1682 -0.9219
vn 0.0552 -0.4397 0.8964
vn 0.5683 0.0019 0.8228
vn 0.8981 -0.0145 -0.4396
vn 0.7918 0.0597 -0.6078
vn 0.3330 0.0027 0.9429
vn -0.4730 -0.0003 -0.8811
vn -0.8868 0.0075 0.4621
vn 0.4127 -0.3390 -0.8454
vn 0.5336 -0.7824 0.3212
vn -0.1356 -0.2798 0.9504
vn 0.0304 -0.9537 0.2992
vn -0.7130 0.0892 0.6955
vn 0.4219 0.2733 -0.8645
vn 0.9362 -0.3165 -0.1529
vn -0.8887 -0.0660 0.4537
vn -0.4224 0.4910 0.7619
vn 0.0107 0.0315 -0.9994
vn -0.0375 0.9992 -0.0143
vn 0.1419 -0.5982 0.7887
vn -0.5214 0.7397 -0.4253
vn -0.6221 -0.7781 -0.0866
vn -0.4101 -0.0490 0.9107
vn 0.4841 -0.0948 -0.8699
vn -0.4236 0.2443 0.8723
vn -0.1140 0.4247 0.8981
vn -0.1614 0.5964 -0.7863
vn -0.3714 0.6189 -0.6921
vn 0.3327 0.8721 0.3589
vn -0.1195 -0.0074 0.9928
vn 0.7637 0.6448 0.0325
vn 0.8303 -0.4451 0.3355
vn -0.7945 0.5964 -0.1139
vn 0.7310 -0.6813 0.0386
vn 0.4970 -0.7954 0.3468
vn -0.4546 -0.0514 -0.8892
vn -0.7473 0.0115 0.6644
vn -0.0928 0.9953 -0.0267
vn -0.4740 0.0135 -0.8804
vn -0.0298 -0.3494 -0.9365
vn 0.4349 -0.2966 0.8502
vn -0.7474 -0.1764 -0.6405
vn -0.4176 0.8854 0.2042
vn 0.3500 0.8049 0.4791
vn -0.6536 -0.0554 0.7548
vn 0.7613 -0.3044 -0.5725
vn 0.1006 0.2449 -0.9643
vn 0.9570 0.1676 0.2366
vn 0.3573 0.9034 -0.2369
vn -0.2421 -0.9073 0.3439
vn 0.3689 0.8382 0.4017
vn 0.9329 -0.2736 -0.2342
vn 0.9616 -0.2724 0.0329
vn 0.2213 -0.2168 -0.9508
vn 0.9996 -0.0254 0.0106
vn 0.7711 -0.5360 0.3437
vn -0.2239 -0.3715 -0.9010
vn 0.4164 -0.2966 0.8594
vn -0.6306 0.2856 -0.7216
vn 0.1033 0.3874 -0.9161
vn -0.5425 -0.0541 -0.8383
vn -0.6058 0.5574 -0.5677
vn 0.9683 0.1084 0.2249
vn 0.4382 0.4000 -0.8050
vn 0.8478 0.0135 -0.5302
vn -0.9184 0.0514 0.3924
vn -0.8333 0.4911 0.2538
vn -0.8257 0.0050 -0.5641
vn 0.3309 0.0861 0.9397
vn 0.8121 0.0164 -0.5833
vn 0.8981 0.0006 -0.4398
vn 0.3901 -0.0057 0.9208
vn -0.2972 -0.0502 -0.9535
vn -0.8475 -0.0054 0.5308
s off
f 2/1/1 17/2/1 3/3/1
f 13/4/2 17/2/2 2/1/2
f 7/5/3 15/6/3 5/7/3
f 27/8/4 22/9/4 31/10/4
f 22/9/5 20/11/5 24/12/5
f 25/13/6 33/14/6 32/15/6
f 27/8/7 25/13/7 32/15/7
f 29/16/8 33/14/8 19/17/8
f 38/18/9 42/19/9 39/20/9
f 38/18/10 39/20/10 34/21/10
f 44/22/11 42/19/11 49/23/11
f 46/24/12 50/25/12 38/18/12
f 69/26/13 55/27/13 65/28/13
f 81/29/14 83/30/14 73/31/14
f 72/32/15 81/29/15 75/33/15
f 84/34/16 85/35/16 88/36/16
f 87/37/17 90/38/17 89/39/17
f 85/35/18 96/40/18 92/41/18
f 94/42/19 96/40/19 85/35/19
f 88/36/20 92/41/20 86/43/20
f 108/44/21 111/45/21 98/46/21
f 105/47/22 107/48/22 97/49/22
f 99/50/23 108/44/23 103/51/23
f 112/52/24 113/53/24 117/54/24
f 116/55/25 114/56/25 118/57/25
f 112/52/26 117/54/26 115/58/26
f 122/59/27 126/60/27 113/53/27
f 115/58/28 121/61/28 112/52/28
f 114/56/29 122/59/29 123/62/29
f 8/63/30 11/64/30 6/65/30
f 9/66/31 6/65/31 4/67/31
f 1/68/32 13/4/32 2/1/32
f 5/7/33 9/66/33 12/69/33
f 4/67/34 6/65/34 10/70/34
f 12/69/35 14/71/35 1/68/35
f 10/70/36 13/4/36 4/67/36
f 15/6/37 8/63/37 5/7/37
f 16/72/38 3/3/38 17/2/38
f 16/72/39 6/65/39 11/64/39
f 1/68/40 5/7/40 12/69/40
f 10/70/41 16/72/41 17/2/41
f 12/69/42 9/66/42 14/71/42
f 14/71/43 4/67/43 13/4/43
f 7/5/44 11/64/44 15/6/44
f 23/73/45 19/17/45 25/13/45
f 19/17/46 30/74/46 29/16/46
f 7/5/47 2/1/47 3/3/47
f 24/12/48 21/75/48 22/9/48
f 20/11/49 22/9/49 26/76/49
f 28/77/50 30/74/50 18/78/50
f 29/16/51 26/76/51 33/14/51
f 31/10/52 22/9/52 21/75/52
f 25/13/53 19/17/53 33/14/53
f 26/76/54 27/8/54 32/15/54
f 18/78/55 21/75/55 28/77/55
f 26/76/56 32/15/56 33/14/56
f 23/73/57 31/10/57 21/75/57
f 28/77/58 24/12/58 30/74/58
f 29/16/59 24/12/59 20/11/59
f 31/10/60 25/13/60 27/8/60
f 40/79/61 44/22/61 37/80/61
f 41/81/62 37/80/62 35/82/62
f 38/18/63 45/83/63 47/84/63
f 47/84/64 46/24/64 38/18/64
f 35/82/65 37/80/65 43/85/65
f 45/83/66 40/79/66 41/81/66
f 46/24/67 43/85/67 50/25/67
f 48/86/68 40/79/68 36/87/68
f 49/23/69 42/19/69 50/25/69
f 38/18/70 50/25/70 42/19/70
f 49/23/71 37/80/71 44/22/71
f 39/20/72 45/83/72 34/21/72
f 43/85/73 49/23/73 50/25/73
f 39/20/74 48/86/74 36/87/74
f 45/83/75 41/81/75 47/84/75
f 46/24/76 41/81/76 35/82/76
f 48/86/77 42/19/77 44/22/77
f 54/88/78 52/89/78 56/90/78
f 55/91/79 53/92/79 65/93/79
f 129/94/80 64/95/80 130/96/80
f 61/97/81 64/95/81 63/98/81
f 131/99/82 127/100/82 130/96/82
f 60/101/83 127/100/83 58/102/83
f 68/103/84 57/104/84 55/91/84
f 57/104/85 66/105/85 53/92/85
f 53/92/86 69/106/86 65/93/86
f 66/105/86 51/107/86 69/106/86
f 67/108/85 52/89/85 66/105/85
f 54/88/84 67/108/84 68/103/84
f 51/109/13 68/110/13 69/26/13
f 66/105/78 68/103/78 69/106/78
f 72/32/87 82/111/87 79/112/87
f 73/31/88 71/113/88 74/114/88
f 70/115/89 81/29/89 73/31/89
f 75/33/90 78/116/90 82/111/90
f 78/116/91 73/31/91 74/114/91
f 76/117/92 73/31/92 83/30/92
f 77/118/93 81/29/93 72/32/93
f 72/32/94 76/117/94 77/118/94
f 79/112/95 71/113/95 76/117/95
f 82/111/96 71/113/96 79/112/96
f 77/118/97 76/117/97 83/30/97
f 78/116/98 74/114/98 82/111/98
f 75/33/99 81/29/99 80/119/99
f 78/116/100 80/119/100 70/115/100
f 95/120/101 85/35/101 84/34/101
f 92/41/102 87/37/102 89/39/102
f 93/121/103 89/39/103 90/38/103
f 93/121/104 95/120/104 84/34/104
f 91/122/105 94/42/105 87/37/105
f 92/41/106 89/39/106 86/43/106
f 96/40/107 87/37/107 92/41/107
f 93/121/108 88/36/108 86/43/108
f 93/121/109 90/38/109 95/120/109
f 94/42/110 90/38/110 87/37/110
f 101/123/111 109/124/111 106/125/111
f 88/36/112 85/35/112 92/41/112
f 99/50/113 102/126/113 101/123/113
f 103/51/114 100/127/114 102/126/114
f 108/44/115 98/46/115 97/49/115
f 105/47/116 100/127/116 107/48/116
f 99/50/117 101/123/117 104/128/117
f 107/48/118 108/44/118 97/49/118
f 100/127/119 109/124/119 102/126/119
f 104/128/120 108/44/120 99/50/120
f 110/129/121 98/46/121 111/45/121
f 104/128/122 106/125/122 110/129/122
f 106/125/123 97/49/123 98/46/123
f 110/129/124 111/45/124 104/128/124
f 105/47/125 97/49/125 109/124/125
f 103/51/126 108/44/126 107/48/126
f 118/57/127 120/130/127 116/55/127
f 112/52/128 122/59/128 113/53/128
f 121/61/129 118/57/129 114/56/129
f 114/56/130 116/55/130 119/131/130
f 121/61/131 123/62/131 112/52/131
f 119/131/132 122/59/132 114/56/132
f 115/58/133 124/132/133 118/57/133
f 125/133/134 113/53/134 126/60/134
f 119/131/135 120/130/135 125/133/135
f 120/130/136 117/54/136 113/53/136
f 125/133/137 126/60/137 119/131/137
f 115/58/138 117/54/138 124/132/138
f 121/61/139 114/56/139 123/62/139
f 129/94/140 61/97/140 63/98/140
f 128/134/141 58/102/141 131/99/141
f 61/97/142 131/99/142 59/135/142
f 62/136/143 128/134/143 129/94/143
f 59/135/144 130/96/144 64/95/144
f 127/100/145 129/94/145 130/96/145
f 69/26/13 68/110/13 55/27/13
f 8/63/146 15/6/146 11/64/146
f 9/66/147 8/63/147 6/65/147
f 1/68/148 14/71/148 13/4/148
f 5/7/149 8/63/149 9/66/149
f 10/70/150 17/2/150 13/4/150
f 16/72/151 11/64/151 3/3/151
f 16/72/152 10/70/152 6/65/152
f 1/68/153 7/5/153 5/7/153
f 14/71/154 9/66/154 4/67/154
f 7/5/155 3/3/155 11/64/155
f 23/73/156 18/78/156 19/17/156
f 19/17/157 18/78/157 30/74/157
f 7/5/158 1/68/158 2/1/158
f 24/12/159 28/77/159 21/75/159
f 29/16/160 20/11/160 26/76/160
f 26/76/161 22/9/161 27/8/161
f 18/78/162 23/73/162 21/75/162
f 29/16/163 30/74/163 24/12/163
f 31/10/164 23/73/164 25/13/164
f 40/79/165 48/86/165 44/22/165
f 41/81/166 40/79/166 37/80/166
f 38/18/167 34/21/167 45/83/167
f 45/83/168 36/87/168 40/79/168
f 46/24/169 35/82/169 43/85/169
f 49/23/170 43/85/170 37/80/170
f 39/20/171 36/87/171 45/83/171
f 46/24/172 47/84/172 41/81/172
f 48/86/173 39/20/173 42/19/173
f 54/88/78 51/107/78 52/89/78
f 55/91/79 57/104/79 53/92/79
f 129/94/174 63/98/174 64/95/174
f 61/97/175 59/135/175 64/95/175
f 131/99/176 58/102/176 127/100/176
f 60/101/83 62/136/83 127/100/83
f 68/103/84 67/108/84 57/104/84
f 57/104/85 67/108/85 66/105/85
f 53/92/86 66/105/86 69/106/86
f 66/105/86 52/89/86 51/107/86
f 67/108/85 56/90/85 52/89/85
f 54/88/84 56/90/84 67/108/84
f 51/109/13 54/137/13 68/110/13
f 66/105/78 67/108/78 68/103/78
f 72/32/177 75/33/177 82/111/177
f 70/115/178 80/119/178 81/29/178
f 75/33/179 80/119/179 78/116/179
f 78/116/180 70/115/180 73/31/180
f 76/117/181 71/113/181 73/31/181
f 77/118/182 83/30/182 81/29/182
f 72/32/183 79/112/183 76/117/183
f 82/111/184 74/114/184 71/113/184
f 95/120/185 94/42/185 85/35/185
f 93/121/186 86/43/186 89/39/186
f 91/122/187 96/40/187 94/42/187
f 96/40/188 91/122/188 87/37/188
f 93/121/189 84/34/189 88/36/189
f 94/42/190 95/120/190 90/38/190
f 101/123/191 102/126/191 109/124/191
f 99/50/192 103/51/192 102/126/192
f 103/51/193 107/48/193 100/127/193
f 100/127/194 105/47/194 109/124/194
f 104/128/195 111/45/195 108/44/195
f 110/129/196 106/125/196 98/46/196
f 104/128/197 101/123/197 106/125/197
f 106/125/198 109/124/198 97/49/198
f 118/57/199 124/132/199 120/130/199
f 112/52/200 123/62/200 122/59/200
f 121/61/201 115/58/201 118/57/201
f 119/131/202 126/60/202 122/59/202
f 125/133/203 120/130/203 113/53/203
f 119/131/204 116/55/204 120/130/204
f 120/130/205 124/132/205 117/54/205
f 129/94/206 128/134/206 61/97/206
f 128/134/207 60/101/207 58/102/207
f 61/97/208 128/134/208 131/99/208
f 62/136/209 60/101/209 128/134/209
f 59/135/210 131/99/210 130/96/210
f 127/100/211 62/136/211 129/94/211
