# Blender v3.2.1 OBJ File: 'Modeling.blend'
# www.blender.org
o BatModel_Cube.011
v 0.079077 0.843566 -0.231536
v 0.054726 0.887553 0.013443
v 0.090318 0.793265 -0.046030
v 0.380571 0.665578 -0.086954
v 0.181733 0.803993 0.180926
v 0.396418 0.708663 -0.164291
v 0.499833 0.580754 -0.002814
v 0.573857 0.565155 0.270341
v 0.472199 0.494810 -0.156981
v 0.488245 0.527225 -0.200243
v 0.616403 0.439000 -0.173707
v 0.662034 0.501392 -0.061639
v 0.632411 0.471404 -0.216974
v 0.034737 0.795252 0.126960
v 0.032498 0.739453 0.078542
v 0.061252 0.858614 -0.097550
v -0.066987 0.854936 -0.099021
v -0.080817 0.849398 -0.231821
v -0.056966 0.889248 0.012307
v -0.094829 0.798187 -0.046970
v -0.390351 0.675935 -0.094240
v -0.188221 0.808732 0.177132
v -0.402532 0.720655 -0.171423
v -0.516835 0.602206 -0.009828
v -0.590469 0.592702 0.263300
v -0.498503 0.514000 -0.164107
v -0.511467 0.547828 -0.207303
v -0.647571 0.472604 -0.180119
v -0.686316 0.539139 -0.067846
v -0.660535 0.506432 -0.223315
v -0.038809 0.796069 0.125365
v -0.038224 0.740823 0.078013
v 0.083363 0.900798 0.062877
v 0.191024 0.829197 0.178829
v 0.413355 0.725498 -0.132206
v 0.533616 0.640506 -0.047866
v 0.591598 0.592490 0.268550
v 0.506037 0.554578 -0.202027
v 0.650180 0.498743 -0.218763
v 0.679800 0.528728 -0.063429
v -0.086246 0.903432 0.061391
v -0.196415 0.833921 0.174771
v -0.417526 0.738356 -0.139536
v -0.544811 0.664983 -0.054733
v -0.605641 0.621401 0.261506
v -0.526478 0.576778 -0.209012
v -0.675546 0.535381 -0.225024
v -0.701328 0.568089 -0.069555
v 0.043325 0.844315 0.105736
v 0.061625 0.752440 0.025902
v -0.046223 0.843199 0.102135
v -0.064509 0.753621 0.022816
v -0.005499 0.892627 0.015805
v 0.049425 0.864112 0.057717
v -0.051917 0.863147 0.052898
v -0.001820 0.845525 0.105206
v -0.003141 0.870210 0.059593
v 0.059003 0.899002 0.038437
v 0.022325 0.904955 0.039679
v 0.022785 0.893807 0.058068
v 0.057819 0.889954 0.053746
v -0.026857 0.905148 0.043495
v -0.062256 0.898832 0.041019
v -0.060446 0.885534 0.053260
v -0.025999 0.889428 0.058084
v 0.111885 0.932517 0.045177
v 0.041798 0.964442 0.059346
v 0.108265 0.922762 0.055733
v 0.040839 0.949420 0.076729
v -0.047404 0.955728 0.079941
v -0.116505 0.926474 0.057807
v -0.044933 0.936550 0.092389
v -0.111810 0.914371 0.065196
v 0.115066 0.963990 0.102638
v 0.090835 0.975028 0.107536
v 0.114113 0.956395 0.115311
v 0.090802 0.965612 0.122570
v -0.095566 0.949975 0.129730
v -0.119456 0.939862 0.122077
v -0.094666 0.936700 0.141463
v -0.117787 0.929032 0.132062
vt 0.658840 0.508697
vt 0.656793 0.494646
vt 0.665803 0.494487
vt 0.522666 0.471700
vt 0.630218 0.464603
vt 0.529002 0.464399
vt 0.504695 0.479156
vt 0.485397 0.471469
vt 0.666474 0.461286
vt 0.672136 0.444459
vt 0.717429 0.444124
vt 0.533572 0.467432
vt 0.627834 0.461871
vt 0.553671 0.478507
vt 0.519363 0.479156
vt 0.720263 0.457513
vt 0.680084 0.473311
vt 0.289240 0.457513
vt 0.287547 0.450679
vt 0.289690 0.446855
vt 0.682227 0.477134
vt 0.554705 0.481615
vt 0.674520 0.447191
vt 0.719813 0.446855
vt 0.455825 0.478507
vt 0.484492 0.482723
vt 0.454790 0.481615
vt 0.632361 0.468427
vt 0.259506 0.431502
vt 0.488357 0.337973
vt 0.491416 0.431502
vt 0.646120 0.508697
vt 0.635529 0.503336
vt 0.657077 0.503336
vt 0.635813 0.494646
vt 0.633399 0.508697
vt 0.626492 0.494487
vt 0.379285 0.464603
vt 0.480368 0.464399
vt 0.343029 0.461286
vt 0.337366 0.444459
vt 0.381669 0.461871
vt 0.475931 0.467432
vt 0.490027 0.479156
vt 0.329419 0.473311
vt 0.332840 0.451015
vt 0.377142 0.468427
vt 0.292074 0.444124
vt 0.334983 0.447191
vt 0.327276 0.477134
vt 0.674813 0.498602
vt 0.525003 0.482723
vt 0.671000 0.467842
vt 0.722406 0.461337
vt 0.721956 0.450679
vt 0.676663 0.451015
vt 0.338503 0.467842
vt 0.287097 0.461337
vt 0.485251 0.463317
vt 0.492157 0.477527
vt 0.491092 0.478341
vt 0.467336 0.498149
vt 0.434665 0.496042
vt 0.467573 0.496042
vt 0.518481 0.478341
vt 0.517599 0.477527
vt 0.524562 0.463317
vt 0.500480 0.496042
vt 0.502761 0.498149
vt 0.519444 0.482045
vt 0.530558 0.487427
vt 0.519135 0.481760
vt 0.512488 0.509367
vt 0.483786 0.529287
vt 0.484288 0.507521
vt 0.509028 0.481443
vt 0.504787 0.478341
vt 0.478406 0.505287
vt 0.500415 0.481443
vt 0.490380 0.481760
vt 0.490007 0.482045
vt 0.431910 0.498149
vt 0.456126 0.505287
vt 0.430066 0.506992
vt 0.500453 0.481101
vt 0.531299 0.488110
vt 0.519483 0.495162
vt 0.527263 0.494615
vt 0.508887 0.488872
vt 0.508795 0.489692
vt 0.479001 0.487427
vt 0.478107 0.488110
vt 0.500590 0.489692
vt 0.431951 0.509367
vt 0.460806 0.529287
vt 0.400082 0.525238
vt 0.500682 0.488872
vt 0.527007 0.494379
vt 0.489959 0.495160
vt 0.482495 0.494376
vt 0.489991 0.494876
vt 0.430862 0.546102
vt 0.409869 0.544702
vt 0.544481 0.525238
vt 0.513552 0.546109
vt 0.482186 0.494613
vt 0.262565 0.337973
vt 0.617172 0.498602
vt 0.509066 0.481101
vt 0.504453 0.506992
vt 0.519515 0.494879
vt 0.460165 0.507521
vt 0.534536 0.544710
vn 0.8771 -0.2034 0.4351
vn 0.3996 0.9153 -0.0496
vn -0.0239 0.9536 -0.3002
vn -0.2599 -0.8229 0.5053
vn -0.4060 -0.7604 -0.5068
vn -0.7877 -0.5128 0.3415
vn -0.4203 -0.9052 0.0622
vn -0.5337 -0.8401 0.0967
vn -0.8854 -0.4621 -0.0496
vn -0.1408 0.1335 0.9810
vn -0.3405 -0.6875 -0.6414
vn 0.8575 -0.5104 -0.0650
vn -0.8345 -0.2454 -0.4934
vn 0.6042 0.2669 0.7508
vn 0.1642 0.8352 -0.5249
vn -0.0237 -0.6547 0.7556
vn -0.0157 0.3874 0.9218
vn -0.9049 -0.1633 0.3930
vn -0.3715 0.9284 -0.0000
vn 0.6519 -0.6223 0.4333
vn 0.3241 -0.9177 -0.2297
vn 0.7658 -0.5428 0.3447
vn 0.3311 -0.9419 0.0565
vn 0.5190 -0.8542 0.0315
vn 0.8064 -0.5030 0.3108
vn -0.5303 0.6105 -0.5883
vn 0.2683 -0.7177 -0.6426
vn -0.9037 -0.4238 -0.0607
vn 0.8158 -0.4352 -0.3809
vn 0.1381 0.1343 0.9813
vn -0.2129 0.8975 -0.3863
vn -0.0282 0.9989 -0.0387
vn -0.0346 -0.9624 -0.2693
vn -0.0243 -0.9652 -0.2603
vn 0.1203 -0.9530 -0.2782
vn -0.0169 -0.9685 -0.2483
vn 0.5182 0.8475 0.1151
vn 0.4947 0.8658 0.0753
vn 0.5691 0.7804 -0.2592
vn 0.7031 0.5602 -0.4380
vn -0.4714 0.8803 0.0541
vn -0.4370 0.8912 0.1217
vn -0.5274 0.8495 0.0156
vn -0.6492 0.6245 -0.4342
vn -0.2213 0.0806 -0.9719
vn -0.8258 -0.1928 0.5300
vn 0.1076 -0.0029 -0.9942
vn 0.8356 -0.5466 -0.0538
vn -0.8503 -0.4224 0.3138
vn -0.1123 0.0080 -0.9936
vn -0.9868 0.0739 0.1440
vn -0.0788 0.8758 0.4762
vn 0.9863 0.0645 0.1519
vn 0.1198 0.9124 0.3914
vn 0.5089 -0.7577 -0.4085
vn 0.0782 -0.3399 0.9372
vn 0.1303 0.8928 -0.4313
vn -0.6278 0.6786 0.3812
vn 0.0383 0.0225 0.9990
vn 0.9472 -0.3159 -0.0539
vn -0.0299 0.9019 -0.4309
vn -0.9686 -0.2265 -0.1029
vn -0.1311 -0.0659 0.9892
vn 0.5914 0.7303 0.3420
vn 0.2844 0.8341 -0.4726
vn -0.6178 0.6115 0.4944
vn -0.4964 -0.5844 -0.6419
vn -0.0448 0.5720 -0.8190
vn -0.9519 0.2559 0.1686
vn -0.1364 -0.5765 0.8057
vn -0.0615 0.2891 -0.9553
vn 0.9509 0.2369 0.1994
vn 0.4418 0.7545 0.4854
vn -0.4646 0.5685 0.6789
vn 0.2218 -0.9481 0.2277
vn 0.5828 0.5600 0.5889
vn -0.1808 -0.8488 0.4969
vn 0.9890 -0.1473 -0.0139
vn -0.9378 -0.3460 0.0290
vn -0.3244 0.9230 -0.2072
vn 0.9864 -0.1284 0.1023
vn 0.3628 0.9067 -0.2151
vn -0.0430 0.9558 -0.2907
vn 0.0717 0.9662 -0.2477
vn -0.7053 -0.5578 0.4374
vn -0.3399 -0.9127 -0.2269
vn -0.3722 -0.9079 0.1928
vn -0.2047 -0.8174 0.5384
vn -0.5768 -0.8169 -0.0060
vn -0.8855 -0.4621 -0.0496
vn -0.1321 0.1499 0.9798
vn -0.3407 -0.6877 -0.6411
vn -0.8550 -0.3584 -0.3749
vn 0.8122 -0.2087 0.5448
vn 0.2473 0.8905 -0.3819
vn -0.0183 -0.6508 0.7590
vn -0.0001 0.3971 0.9178
vn -0.0847 0.4298 0.8990
vn -0.9889 -0.1026 0.1075
vn -0.3116 0.9156 -0.2541
vn 0.1804 -0.8445 0.5043
vn 0.3976 -0.7653 -0.5062
vn 0.3494 -0.9177 0.1888
vn 0.1262 -0.8337 0.5376
vn 0.4875 -0.8673 0.1012
vn 0.8061 -0.5036 0.3109
vn 0.2257 0.0596 -0.9724
vn 0.8057 -0.3242 -0.4957
vn 0.1370 0.1365 0.9811
vn -0.1295 0.8399 -0.5271
vn 0.0364 0.9936 -0.1068
vn -0.0198 -0.8465 -0.5320
vn -0.1864 -0.8207 -0.5401
vn 0.5071 0.8611 0.0377
vn 0.6080 0.7939 0.0091
vn 0.2601 0.8229 -0.5052
vn -0.4674 0.8834 0.0318
vn -0.4911 0.8325 -0.2566
vn -0.1804 0.8445 -0.5043
vn 0.5774 0.5570 -0.5970
vn -0.6079 0.2857 0.7408
vn -0.8472 -0.4282 0.3145
vn -0.1122 0.0082 -0.9937
vn -0.9399 0.2219 0.2596
vn -0.9180 -0.0034 0.3966
vn -0.1840 0.9034 0.3873
vn 0.9295 -0.0035 0.3688
vn 0.9497 0.2150 0.2275
vn 0.0180 0.8796 0.4755
vn 0.5121 -0.7112 -0.4816
vn 0.1671 -0.3136 0.9348
vn 0.0527 0.8609 -0.5060
vn -0.5946 0.6809 0.4276
vn 0.1334 0.1081 0.9852
vn 0.9713 -0.2300 -0.0608
vn -0.1425 0.9307 -0.3369
vn -0.9293 -0.3522 -0.1109
vn -0.1255 -0.0715 0.9895
vn 0.7978 0.4329 0.4196
vn -0.6055 0.6751 0.4215
vn -0.4918 -0.6250 -0.6063
vn 0.0286 0.5593 -0.8285
vn -0.9521 0.2502 0.1755
vn -0.0442 -0.5995 0.7991
vn 0.0179 0.3086 -0.9510
vn 0.9497 0.2472 0.1923
vn 0.4475 0.7575 0.4754
vn -0.4586 0.5631 0.6874
vn 0.5980 0.4892 0.6349
vn 0.9614 -0.2602 0.0893
vn -0.9802 -0.1929 -0.0453
s off
f 49/1/1 15/2/1 50/3/1
f 16/4/2 6/5/2 1/6/2
f 53/7/3 16/4/3 17/8/3
f 7/9/4 9/10/4 11/11/4
f 3/12/5 6/5/5 4/13/5
f 3/12/6 5/14/6 2/15/6
f 7/9/7 12/16/7 8/17/7
f 5/14/8 7/9/8 8/17/8
f 29/18/9 47/19/9 30/20/9
f 5/14/10 37/21/10 34/22/10
f 10/23/11 11/11/11 9/10/11
f 12/16/12 11/11/12 13/24/12
f 4/13/13 10/23/13 9/10/13
f 22/25/14 41/26/14 42/27/14
f 2/15/15 35/28/15 6/5/15
f 31/29/16 15/30/16 14/31/16
f 56/32/17 31/33/17 14/34/17
f 32/35/18 51/36/18 52/37/18
f 23/38/19 17/8/19 18/39/19
f 24/40/20 26/41/20 21/42/20
f 20/43/21 23/38/21 18/39/21
f 22/25/22 20/43/22 19/44/22
f 29/18/23 24/40/23 25/45/23
f 22/25/24 24/40/24 21/42/24
f 12/16/25 37/21/25 8/17/25
f 23/38/26 46/46/26 43/47/26
f 28/48/27 27/49/27 26/41/27
f 29/18/28 30/20/28 28/48/28
f 21/42/29 27/49/29 23/38/29
f 22/25/30 45/50/30 25/45/30
f 19/44/31 43/47/31 41/26/31
f 16/4/32 18/39/32 17/8/32
f 20/43/33 18/39/33 1/6/33
f 20/43/34 1/6/34 3/12/34
f 52/37/35 3/51/35 32/35/35
f 32/35/36 50/3/36 15/2/36
f 33/52/37 36/53/37 35/28/37
f 33/52/38 34/22/38 37/21/38
f 36/53/39 40/54/39 39/55/39
f 36/53/40 38/56/40 35/28/40
f 44/57/41 41/26/41 43/47/41
f 41/26/42 45/50/42 42/27/42
f 44/57/43 48/58/43 45/50/43
f 46/46/44 44/57/44 43/47/44
f 6/5/45 38/56/45 10/23/45
f 5/14/46 33/52/46 2/15/46
f 30/20/47 46/46/47 27/49/47
f 12/16/48 39/55/48 40/54/48
f 29/18/49 45/50/49 48/58/49
f 13/24/50 38/56/50 39/55/50
f 52/59/51 51/60/51 55/61/51
f 57/62/52 51/63/52 56/64/52
f 54/65/53 49/66/53 50/67/53
f 57/62/54 49/68/54 54/69/54
f 58/70/55 68/71/55 61/72/55
f 61/73/56 69/74/56 60/75/56
f 2/15/57 59/76/57 58/70/57
f 57/77/58 59/76/58 53/7/58
f 54/69/59 60/78/59 57/62/59
f 2/15/60 61/72/60 54/65/60
f 19/44/61 62/79/61 53/7/61
f 19/44/62 64/80/62 63/81/62
f 55/82/63 65/83/63 64/84/63
f 53/7/64 65/85/64 57/77/64
f 66/86/65 75/87/65 74/88/65
f 69/89/66 75/87/66 67/90/66
f 63/81/67 73/91/67 71/92/67
f 63/81/68 70/93/68 62/79/68
f 59/76/69 69/89/69 67/90/69
f 64/94/70 72/95/70 73/96/70
f 58/70/71 67/90/71 66/86/71
f 62/79/72 72/97/72 65/85/72
f 75/87/73 76/98/73 74/88/73
f 78/99/74 81/100/74 80/101/74
f 73/96/75 80/102/75 81/103/75
f 72/97/76 78/99/76 80/101/76
f 68/104/77 77/105/77 69/74/77
f 68/71/78 74/88/78 76/98/78
f 73/91/79 79/106/79 71/92/79
f 71/92/80 78/99/80 70/93/80
f 49/1/81 14/34/81 15/2/81
f 16/4/82 2/15/82 6/5/82
f 17/8/83 19/44/83 53/7/83
f 53/7/84 2/15/84 16/4/84
f 7/9/85 4/13/85 9/10/85
f 3/12/86 1/6/86 6/5/86
f 3/12/87 4/13/87 5/14/87
f 7/9/88 11/11/88 12/16/88
f 5/14/89 4/13/89 7/9/89
f 29/18/90 48/58/90 47/19/90
f 5/14/91 8/17/91 37/21/91
f 10/23/92 13/24/92 11/11/92
f 4/13/93 6/5/93 10/23/93
f 22/25/94 19/44/94 41/26/94
f 2/15/95 33/52/95 35/28/95
f 31/29/96 32/107/96 15/30/96
f 14/34/97 49/1/97 56/32/97
f 56/32/98 51/36/98 31/33/98
f 32/35/99 31/33/99 51/36/99
f 23/38/100 19/44/100 17/8/100
f 24/40/101 28/48/101 26/41/101
f 20/43/102 21/42/102 23/38/102
f 22/25/103 21/42/103 20/43/103
f 29/18/104 28/48/104 24/40/104
f 22/25/105 25/45/105 24/40/105
f 12/16/106 40/54/106 37/21/106
f 23/38/107 27/49/107 46/46/107
f 28/48/27 30/20/27 27/49/27
f 21/42/108 26/41/108 27/49/108
f 22/25/109 42/27/109 45/50/109
f 19/44/110 23/38/110 43/47/110
f 16/4/111 1/6/111 18/39/111
f 52/37/112 20/108/112 3/51/112
f 32/35/113 3/51/113 50/3/113
f 33/52/114 37/21/114 36/53/114
f 36/53/115 37/21/115 40/54/115
f 36/53/116 39/55/116 38/56/116
f 44/57/117 45/50/117 41/26/117
f 44/57/118 47/19/118 48/58/118
f 46/46/119 47/19/119 44/57/119
f 6/5/120 35/28/120 38/56/120
f 5/14/121 34/22/121 33/52/121
f 30/20/47 47/19/47 46/46/47
f 12/16/48 13/24/48 39/55/48
f 29/18/122 25/45/122 45/50/122
f 13/24/123 10/23/123 38/56/123
f 19/44/124 20/43/124 55/61/124
f 20/43/125 52/59/125 55/61/125
f 57/62/126 55/82/126 51/63/126
f 50/67/127 3/12/127 54/65/127
f 3/12/128 2/15/128 54/65/128
f 57/62/129 56/64/129 49/68/129
f 58/70/130 66/86/130 68/71/130
f 61/73/131 68/104/131 69/74/131
f 2/15/132 53/7/132 59/76/132
f 57/77/133 60/109/133 59/76/133
f 54/69/134 61/110/134 60/78/134
f 2/15/135 58/70/135 61/72/135
f 19/44/136 63/81/136 62/79/136
f 19/44/137 55/61/137 64/80/137
f 55/82/138 57/62/138 65/83/138
f 53/7/139 62/79/139 65/85/139
f 66/86/65 67/90/65 75/87/65
f 69/89/140 77/111/140 75/87/140
f 63/81/141 64/80/141 73/91/141
f 63/81/142 71/92/142 70/93/142
f 59/76/143 60/109/143 69/89/143
f 64/94/144 65/112/144 72/95/144
f 58/70/145 59/76/145 67/90/145
f 62/79/146 70/93/146 72/97/146
f 75/87/147 77/111/147 76/98/147
f 78/99/148 79/106/148 81/100/148
f 73/96/75 72/95/75 80/102/75
f 72/97/149 70/93/149 78/99/149
f 68/104/77 76/113/77 77/105/77
f 68/71/150 66/86/150 74/88/150
f 73/91/151 81/100/151 79/106/151
f 71/92/80 79/106/80 78/99/80
