# Blender v3.2.1 OBJ File: 'Modeling.blend'
# www.blender.org
o BatModel_Cube.011
v 0.078349 0.915212 -0.234373
v 0.057840 0.933742 0.022031
v 0.086468 0.835576 -0.053108
v 0.321152 0.671928 -0.126594
v 0.221985 0.822654 0.182821
v 0.346420 0.704573 -0.210071
v 0.360452 0.513951 -0.079477
v 0.481679 0.408869 0.173491
v 0.246467 0.500621 -0.223007
v 0.276880 0.521982 -0.271023
v 0.305912 0.365762 -0.284342
v 0.408457 0.358114 -0.187973
v 0.330564 0.388714 -0.331742
v 0.034218 0.827270 0.128571
v 0.031404 0.775602 0.072523
v 0.062283 0.914469 -0.095843
v -0.068585 0.908997 -0.099337
v -0.081213 0.923368 -0.233924
v -0.061370 0.936393 0.020574
v -0.093567 0.841888 -0.053940
v -0.325480 0.680339 -0.136179
v -0.231838 0.834475 0.178492
v -0.345107 0.723266 -0.215834
v -0.391135 0.525088 -0.089988
v -0.506114 0.425654 0.160670
v -0.285735 0.492893 -0.237676
v -0.307858 0.519932 -0.284159
v -0.371115 0.370385 -0.296314
v -0.469019 0.380031 -0.196119
v -0.393238 0.397424 -0.342797
v -0.041346 0.828759 0.126378
v -0.040689 0.777509 0.071903
v 0.099827 0.942491 0.075041
v 0.236307 0.844316 0.181599
v 0.372613 0.706676 -0.180341
v 0.418308 0.546610 -0.133706
v 0.509560 0.419586 0.167019
v 0.312632 0.531012 -0.278112
v 0.362210 0.397743 -0.338917
v 0.439472 0.366978 -0.195237
v -0.113479 0.951586 0.074773
v -0.245492 0.856539 0.176847
v -0.373037 0.722842 -0.188462
v -0.443114 0.566529 -0.142442
v -0.535974 0.440821 0.155054
v -0.337715 0.534335 -0.290129
v -0.423095 0.411826 -0.348767
v -0.498876 0.394433 -0.202089
v 0.043844 0.879404 0.111931
v 0.060077 0.793677 0.019585
v -0.048644 0.878886 0.106474
v -0.064320 0.795463 0.015353
v -0.007941 0.940539 0.026139
v 0.051158 0.904556 0.064172
v -0.055066 0.904647 0.057051
v -0.002901 0.881322 0.111273
v -0.004636 0.912773 0.067753
v 0.063144 0.941265 0.048403
v 0.025765 0.950286 0.052639
v 0.026134 0.936111 0.069765
v 0.061718 0.929815 0.062700
v -0.032876 0.949290 0.057720
v -0.068301 0.940443 0.051117
v -0.065630 0.924167 0.060205
v -0.031017 0.930100 0.068556
v 0.121006 0.969432 0.057214
v 0.052897 1.005957 0.080687
v 0.116812 0.958194 0.066693
v 0.051224 0.988058 0.096157
v -0.061466 0.988296 0.105412
v -0.127873 0.958228 0.070806
v -0.057390 0.966265 0.113204
v -0.122068 0.944748 0.075493
v 0.129969 0.992068 0.120337
v 0.106422 1.004696 0.128452
v 0.128819 0.982450 0.132143
v 0.106144 0.992775 0.142330
v -0.112575 0.965109 0.150027
v -0.135534 0.954714 0.138063
v -0.110735 0.948979 0.158469
v -0.133096 0.941540 0.145432
vt 0.658840 0.508697
vt 0.656793 0.494646
vt 0.665803 0.494487
vt 0.522666 0.471700
vt 0.630218 0.464603
vt 0.529002 0.464399
vt 0.504695 0.479156
vt 0.485397 0.471469
vt 0.666474 0.461286
vt 0.672136 0.444459
vt 0.717429 0.444124
vt 0.533572 0.467432
vt 0.627834 0.461871
vt 0.553671 0.478507
vt 0.519363 0.479156
vt 0.720263 0.457513
vt 0.680084 0.473311
vt 0.289240 0.457513
vt 0.287547 0.450679
vt 0.289690 0.446855
vt 0.682227 0.477134
vt 0.554705 0.481615
vt 0.674520 0.447191
vt 0.719813 0.446855
vt 0.455825 0.478507
vt 0.484492 0.482723
vt 0.454790 0.481615
vt 0.632361 0.468427
vt 0.259506 0.431502
vt 0.488357 0.337973
vt 0.491416 0.431502
vt 0.646120 0.508697
vt 0.635529 0.503336
vt 0.657077 0.503336
vt 0.635813 0.494646
vt 0.633399 0.508697
vt 0.626492 0.494487
vt 0.379285 0.464603
vt 0.480368 0.464399
vt 0.343029 0.461286
vt 0.337366 0.444459
vt 0.381669 0.461871
vt 0.475931 0.467432
vt 0.490027 0.479156
vt 0.329419 0.473311
vt 0.722406 0.461337
vt 0.332840 0.451015
vt 0.377142 0.468427
vt 0.292074 0.444124
vt 0.334983 0.447191
vt 0.327276 0.477134
vt 0.674813 0.498602
vt 0.525003 0.482723
vt 0.671000 0.467842
vt 0.721956 0.450679
vt 0.676663 0.451015
vt 0.338503 0.467842
vt 0.287097 0.461337
vt 0.485251 0.463317
vt 0.492157 0.477527
vt 0.491092 0.478341
vt 0.467336 0.498149
vt 0.434665 0.496042
vt 0.467573 0.496042
vt 0.518481 0.478341
vt 0.517599 0.477527
vt 0.524562 0.463317
vt 0.500480 0.496042
vt 0.502761 0.498149
vt 0.519444 0.482045
vt 0.530558 0.487427
vt 0.519135 0.481760
vt 0.512488 0.509367
vt 0.483786 0.529287
vt 0.484288 0.507521
vt 0.509028 0.481443
vt 0.504787 0.478341
vt 0.478406 0.505287
vt 0.500415 0.481443
vt 0.490380 0.481760
vt 0.490007 0.482045
vt 0.431910 0.498149
vt 0.456126 0.505287
vt 0.430066 0.506992
vt 0.500453 0.481101
vt 0.531299 0.488110
vt 0.519483 0.495162
vt 0.527263 0.494615
vt 0.508887 0.488872
vt 0.508795 0.489692
vt 0.479001 0.487427
vt 0.478107 0.488110
vt 0.500590 0.489692
vt 0.431951 0.509367
vt 0.460806 0.529287
vt 0.400082 0.525238
vt 0.500682 0.488872
vt 0.527007 0.494379
vt 0.489959 0.495160
vt 0.482495 0.494376
vt 0.489991 0.494876
vt 0.430862 0.546102
vt 0.409869 0.544702
vt 0.544481 0.525238
vt 0.513552 0.546109
vt 0.482186 0.494613
vt 0.262565 0.337973
vt 0.617172 0.498602
vt 0.509066 0.481101
vt 0.504453 0.506992
vt 0.519515 0.494879
vt 0.460165 0.507521
vt 0.534536 0.544710
vn 0.8841 -0.2547 0.3919
vn 0.6119 0.7874 0.0752
vn -0.0346 0.9731 -0.2279
vn -0.6374 -0.5337 0.5558
vn -0.6021 -0.6648 -0.4422
vn -0.7496 -0.5261 0.4017
vn -0.8697 -0.4329 0.2370
vn -0.8313 -0.5258 0.1800
vn -0.3669 -0.8825 -0.2942
vn 0.0694 0.0104 0.9975
vn -0.8187 -0.1040 -0.5648
vn 0.2344 -0.9172 -0.3222
vn -0.8097 0.5132 -0.2846
vn 0.4215 0.3240 0.8469
vn 0.3661 0.8483 -0.3825
vn -0.0342 -0.7340 0.6783
vn -0.0220 0.2910 0.9565
vn -0.9263 -0.1847 0.3284
vn -0.5921 0.7936 0.1403
vn 0.7877 -0.1557 0.5961
vn 0.5611 -0.7679 -0.3091
vn 0.7164 -0.5659 0.4081
vn 0.8182 -0.5533 0.1558
vn 0.9108 -0.4066 -0.0719
vn 0.3707 -0.9266 0.0628
vn -0.6805 0.2449 -0.6906
vn 0.7881 -0.2892 -0.5433
vn -0.4020 -0.8616 -0.3099
vn 0.9684 0.2181 -0.1211
vn -0.1546 0.0607 0.9861
vn -0.2539 0.8400 -0.4796
vn -0.0418 0.9991 0.0005
vn -0.0476 -0.9087 -0.4147
vn -0.0302 -0.9156 -0.4009
vn 0.0959 -0.9365 -0.3374
vn -0.0221 -0.9424 -0.3337
vn 0.7849 0.3691 0.4976
vn 0.7276 0.4848 -0.4853
vn 0.8746 0.2461 -0.4176
vn 0.8028 0.0562 -0.5936
vn -0.7449 0.6437 0.1752
vn -0.7236 0.5289 -0.4434
vn -0.9263 0.3492 -0.1416
vn -0.7829 0.1752 -0.5969
vn -0.2739 0.3968 -0.8761
vn -0.7515 -0.2009 0.6284
vn 0.2983 0.2349 -0.9251
vn 0.1951 -0.9323 -0.3045
vn -0.4447 -0.8930 0.0698
vn -0.2924 0.3048 -0.9064
vn -0.9892 0.0290 0.1436
vn -0.1042 0.8041 0.5853
vn 0.9871 0.0154 0.1593
vn 0.1579 0.8635 0.4790
vn 0.4153 -0.7298 -0.5431
vn 0.0871 -0.4844 0.8705
vn 0.1907 0.9332 -0.3046
vn -0.5729 0.6601 0.4859
vn 0.0426 -0.1415 0.9890
vn 0.9128 -0.3889 -0.1246
vn -0.0429 0.9536 -0.2981
vn -0.9492 -0.2570 -0.1813
vn -0.1855 -0.2538 0.9493
vn 0.4989 0.7387 0.4532
vn 0.3416 0.8682 -0.3599
vn -0.5344 0.5807 0.6141
vn -0.3984 -0.4496 -0.7994
vn -0.0659 0.7527 -0.6551
vn -0.9128 0.3125 0.2628
vn -0.1104 -0.7698 0.6286
vn -0.0755 0.4357 -0.8969
vn 0.9088 0.2684 0.3194
vn 0.5326 0.6300 0.5651
vn -0.5553 0.3351 0.7612
vn 0.3127 -0.9498 0.0057
vn 0.4899 0.4475 0.7482
vn -0.2389 -0.8954 0.3757
vn 0.9689 -0.2296 -0.0927
vn -0.8949 -0.4286 -0.1243
vn -0.4127 0.9109 0.0006
vn 0.9841 -0.1526 0.0913
vn 0.5606 0.8204 -0.1130
vn -0.0527 0.9742 -0.2194
vn 0.0918 0.9833 -0.1573
vn -0.7827 -0.0091 0.6224
vn -0.5702 -0.7612 -0.3089
vn -0.5024 -0.8297 0.2432
vn -0.5814 -0.5779 0.5728
vn -0.9446 -0.2840 -0.1644
vn 0.1895 0.0969 0.9771
vn -0.8570 -0.1165 -0.5021
vn -0.9128 0.3891 -0.1241
vn 0.7052 -0.0899 0.7032
vn 0.3440 0.8439 -0.4118
vn -0.0252 -0.7283 0.6848
vn -0.0009 0.3042 0.9526
vn -0.1162 0.3519 0.9288
vn -0.9900 -0.1084 0.0900
vn -0.5015 0.8495 -0.1639
vn 0.5523 -0.6404 0.5337
vn 0.6088 -0.6259 -0.4873
vn 0.4869 -0.8329 0.2631
vn 0.4976 -0.6701 0.5507
vn 0.8173 -0.5551 0.1547
vn 0.2902 -0.9540 0.0752
vn 0.3450 0.3551 -0.8688
vn 0.9131 0.3262 -0.2448
vn -0.0959 0.0149 0.9953
vn -0.3574 0.8654 -0.3513
vn 0.0511 0.9935 0.1013
vn -0.0268 -0.8357 -0.5486
vn -0.1427 -0.8342 -0.5326
vn 0.7849 0.6192 0.0233
vn 0.9593 0.1858 -0.2126
vn 0.6726 0.4994 -0.5461
vn -0.9185 0.3739 -0.1287
vn -0.8320 0.4021 -0.3822
vn -0.5523 0.6404 -0.5337
vn 0.7413 0.1149 -0.6612
vn -0.4236 0.3277 0.8445
vn 0.1967 -0.9318 -0.3049
vn -0.4616 -0.8847 0.0651
vn -0.2599 0.3117 -0.9139
vn -0.9569 0.1160 0.2663
vn -0.9329 -0.0568 0.3557
vn -0.2371 0.8485 0.4731
vn 0.9477 -0.0504 0.3150
vn 0.9677 0.1077 0.2280
vn 0.0250 0.8107 0.5849
vn 0.4199 -0.6716 -0.6104
vn 0.1772 -0.4660 0.8668
vn 0.0674 0.9056 -0.4188
vn -0.5279 0.6487 0.5483
vn 0.1909 -0.0226 0.9814
vn 0.9571 -0.2651 -0.1169
vn -0.2078 0.9624 -0.1748
vn -0.8713 -0.4348 -0.2278
vn -0.1557 -0.2809 0.9470
vn 0.7773 0.3648 0.5126
vn -0.5193 0.6534 0.5509
vn -0.3910 -0.4968 -0.7748
vn 0.0052 0.7499 -0.6616
vn -0.9135 0.3036 0.2709
vn -0.0164 -0.7817 0.6235
vn 0.0066 0.4474 -0.8943
vn 0.9070 0.2793 0.3153
vn 0.5382 0.6340 0.5554
vn -0.5491 0.3283 0.7685
vn 0.5105 0.3691 0.7766
vn 0.9352 -0.3540 -0.0059
vn -0.9501 -0.2665 -0.1620
s off
f 49/1/1 15/2/1 50/3/1
f 16/4/2 6/5/2 1/6/2
f 53/7/3 16/4/3 17/8/3
f 7/9/4 9/10/4 11/11/4
f 3/12/5 6/5/5 4/13/5
f 3/12/6 5/14/6 2/15/6
f 7/9/7 12/16/7 8/17/7
f 5/14/8 7/9/8 8/17/8
f 29/18/9 47/19/9 30/20/9
f 5/14/10 37/21/10 34/22/10
f 10/23/11 11/11/11 9/10/11
f 12/16/12 11/11/12 13/24/12
f 4/13/13 10/23/13 9/10/13
f 22/25/14 41/26/14 42/27/14
f 2/15/15 35/28/15 6/5/15
f 31/29/16 15/30/16 14/31/16
f 56/32/17 31/33/17 14/34/17
f 32/35/18 51/36/18 52/37/18
f 23/38/19 17/8/19 18/39/19
f 24/40/20 26/41/20 21/42/20
f 20/43/21 23/38/21 18/39/21
f 22/25/22 20/43/22 19/44/22
f 29/18/23 24/40/23 25/45/23
f 22/25/24 24/40/24 21/42/24
f 8/17/25 40/46/25 37/21/25
f 23/38/26 46/47/26 43/48/26
f 28/49/27 27/50/27 26/41/27
f 29/18/28 30/20/28 28/49/28
f 21/42/29 27/50/29 23/38/29
f 22/25/30 45/51/30 25/45/30
f 19/44/31 43/48/31 41/26/31
f 1/6/32 17/8/32 16/4/32
f 20/43/33 18/39/33 1/6/33
f 20/43/34 1/6/34 3/12/34
f 52/37/35 3/52/35 32/35/35
f 32/35/36 50/3/36 15/2/36
f 33/53/37 36/54/37 35/28/37
f 33/53/38 34/22/38 37/21/38
f 36/54/39 40/46/39 39/55/39
f 36/54/40 38/56/40 35/28/40
f 43/48/41 45/51/41 41/26/41
f 41/26/42 45/51/42 42/27/42
f 44/57/43 48/58/43 45/51/43
f 46/47/44 44/57/44 43/48/44
f 6/5/45 38/56/45 10/23/45
f 5/14/46 33/53/46 2/15/46
f 30/20/47 46/47/47 27/50/47
f 12/16/48 39/55/48 40/46/48
f 29/18/49 45/51/49 48/58/49
f 13/24/50 38/56/50 39/55/50
f 52/59/51 51/60/51 55/61/51
f 57/62/52 51/63/52 56/64/52
f 54/65/53 49/66/53 50/67/53
f 57/62/54 49/68/54 54/69/54
f 58/70/55 68/71/55 61/72/55
f 61/73/56 69/74/56 60/75/56
f 2/15/57 59/76/57 58/70/57
f 57/77/58 59/76/58 53/7/58
f 54/69/59 60/78/59 57/62/59
f 2/15/60 61/72/60 54/65/60
f 19/44/61 62/79/61 53/7/61
f 19/44/62 64/80/62 63/81/62
f 55/82/63 65/83/63 64/84/63
f 53/7/64 65/85/64 57/77/64
f 66/86/65 75/87/65 74/88/65
f 69/89/66 75/87/66 67/90/66
f 63/81/67 73/91/67 71/92/67
f 63/81/68 70/93/68 62/79/68
f 59/76/69 69/89/69 67/90/69
f 64/94/70 72/95/70 73/96/70
f 58/70/71 67/90/71 66/86/71
f 62/79/72 72/97/72 65/85/72
f 75/87/73 76/98/73 74/88/73
f 78/99/74 81/100/74 80/101/74
f 73/96/75 80/102/75 81/103/75
f 72/97/76 78/99/76 80/101/76
f 68/104/77 77/105/77 69/74/77
f 68/71/78 74/88/78 76/98/78
f 73/91/79 79/106/79 71/92/79
f 71/92/80 78/99/80 70/93/80
f 49/1/81 14/34/81 15/2/81
f 16/4/82 2/15/82 6/5/82
f 17/8/83 19/44/83 53/7/83
f 53/7/84 2/15/84 16/4/84
f 7/9/85 4/13/85 9/10/85
f 3/12/86 1/6/86 6/5/86
f 3/12/87 4/13/87 5/14/87
f 7/9/88 11/11/88 12/16/88
f 5/14/89 4/13/89 7/9/89
f 29/18/9 48/58/9 47/19/9
f 5/14/90 8/17/90 37/21/90
f 10/23/91 13/24/91 11/11/91
f 4/13/92 6/5/92 10/23/92
f 22/25/93 19/44/93 41/26/93
f 2/15/94 33/53/94 35/28/94
f 31/29/95 32/107/95 15/30/95
f 14/34/96 49/1/96 56/32/96
f 56/32/97 51/36/97 31/33/97
f 32/35/98 31/33/98 51/36/98
f 23/38/99 19/44/99 17/8/99
f 24/40/100 28/49/100 26/41/100
f 20/43/101 21/42/101 23/38/101
f 22/25/102 21/42/102 20/43/102
f 29/18/103 28/49/103 24/40/103
f 22/25/104 25/45/104 24/40/104
f 8/17/105 12/16/105 40/46/105
f 23/38/106 27/50/106 46/47/106
f 28/49/27 30/20/27 27/50/27
f 21/42/107 26/41/107 27/50/107
f 22/25/108 42/27/108 45/51/108
f 19/44/109 23/38/109 43/48/109
f 1/6/110 18/39/110 17/8/110
f 52/37/111 20/108/111 3/52/111
f 32/35/112 3/52/112 50/3/112
f 33/53/113 37/21/113 36/54/113
f 36/54/114 37/21/114 40/46/114
f 36/54/115 39/55/115 38/56/115
f 43/48/116 44/57/116 45/51/116
f 44/57/117 47/19/117 48/58/117
f 46/47/118 47/19/118 44/57/118
f 6/5/119 35/28/119 38/56/119
f 5/14/120 34/22/120 33/53/120
f 30/20/47 47/19/47 46/47/47
f 12/16/121 13/24/121 39/55/121
f 29/18/122 25/45/122 45/51/122
f 13/24/123 10/23/123 38/56/123
f 19/44/124 20/43/124 55/61/124
f 20/43/125 52/59/125 55/61/125
f 57/62/126 55/82/126 51/63/126
f 50/67/127 3/12/127 54/65/127
f 3/12/128 2/15/128 54/65/128
f 57/62/129 56/64/129 49/68/129
f 58/70/130 66/86/130 68/71/130
f 61/73/131 68/104/131 69/74/131
f 2/15/132 53/7/132 59/76/132
f 57/77/133 60/109/133 59/76/133
f 54/69/134 61/110/134 60/78/134
f 2/15/135 58/70/135 61/72/135
f 19/44/136 63/81/136 62/79/136
f 19/44/137 55/61/137 64/80/137
f 55/82/138 57/62/138 65/83/138
f 53/7/139 62/79/139 65/85/139
f 66/86/65 67/90/65 75/87/65
f 69/89/140 77/111/140 75/87/140
f 63/81/141 64/80/141 73/91/141
f 63/81/142 71/92/142 70/93/142
f 59/76/143 60/109/143 69/89/143
f 64/94/144 65/112/144 72/95/144
f 58/70/145 59/76/145 67/90/145
f 62/79/146 70/93/146 72/97/146
f 75/87/147 77/111/147 76/98/147
f 78/99/148 79/106/148 81/100/148
f 73/96/75 72/95/75 80/102/75
f 72/97/149 70/93/149 78/99/149
f 68/104/77 76/113/77 77/105/77
f 68/71/150 66/86/150 74/88/150
f 73/91/151 81/100/151 79/106/151
f 71/92/80 79/106/80 78/99/80
