# Blender v3.2.1 OBJ File: 'Modeling.blend'
# www.blender.org
o Snake_Cube.014
v 0.412818 0.287001 0.114339
v 0.348683 0.668983 0.070555
v 0.329553 0.298894 0.471624
v 0.283851 0.683232 0.449506
v 0.087154 0.217160 0.018860
v -0.012488 0.588888 -0.026989
v -0.040980 0.227542 0.381493
v -0.135393 0.601333 0.348224
v 0.093199 0.255826 0.048004
v 0.006495 0.571185 0.014653
v -0.033900 0.250183 0.344852
v -0.133281 0.561735 0.319200
v -0.230761 0.419197 -0.154592
v -0.274804 0.112346 0.182701
v -0.462741 0.343526 0.053862
v -0.061002 0.207511 -0.019446
v -0.218630 0.406594 -0.125258
v -0.422735 0.336313 0.047342
v -0.137043 -0.037258 -0.006584
v -0.164663 0.220907 -0.260694
v -0.241539 -0.000811 -0.233997
v 0.067302 -0.040406 -0.066963
v 0.070895 -0.045498 -0.293855
v 0.058450 0.179518 -0.085512
v 0.063363 0.167095 -0.285093
v 0.195990 -0.013455 -0.038321
v 0.199344 0.170857 -0.062768
v 0.281322 0.158435 -0.208336
v 0.278091 -0.009638 -0.195574
v 0.281308 0.016414 0.014040
v 0.308276 0.171014 -0.009368
v 0.431893 0.146523 -0.077153
v 0.417179 0.006477 -0.056608
v 0.304493 0.178890 0.057045
v 0.421832 0.153869 0.134371
v 0.280357 0.037623 0.048207
v 0.399566 0.012670 0.122027
v 0.251406 0.167893 0.134941
v 0.233961 0.049412 0.124865
v 0.310722 0.037029 0.226201
v 0.318268 0.145055 0.213670
v 0.221655 0.156154 0.264672
v 0.172642 0.056045 0.174855
v 0.211778 0.054384 0.268298
v 0.188706 0.150376 0.180630
v 0.112554 0.068676 0.193314
v 0.121875 0.064749 0.277559
v 0.120445 0.149033 0.203516
v 0.129125 0.142604 0.275081
v 0.044930 0.067958 0.252496
v 0.064815 0.139982 0.193436
v 0.043415 0.133584 0.250758
v 0.069861 0.078875 0.189406
v 0.024658 0.149556 0.172628
v 0.023445 0.089539 0.158080
v -0.013056 0.080561 0.204859
v -0.007125 0.135008 0.217227
v -0.001804 0.118206 0.134324
v -0.047692 0.116462 0.154312
v 0.003367 0.160197 0.161234
v -0.036630 0.156649 0.178175
v -0.035091 0.183883 0.139403
v -0.005618 0.145955 0.116903
v 0.019871 0.187890 0.119383
v -0.022148 0.182128 0.088859
vt 0.498068 0.336800
vt 0.263763 0.439310
vt 0.263763 0.336800
vt 0.042571 0.428046
vt 0.220545 0.337551
vt 0.042571 0.337551
vt 0.220545 0.428046
vt 0.220545 0.337551
vt 0.042571 0.428046
vt 0.042571 0.337551
vt 0.042764 0.342091
vt 0.211546 0.427912
vt 0.042764 0.427912
vt 0.212402 0.425764
vt 0.042478 0.339363
vt 0.212402 0.339363
vt 0.498068 0.439310
vt 0.263763 0.336800
vt 0.498068 0.336800
vt 0.042571 0.428046
vt 0.220545 0.337551
vt 0.042571 0.337551
vt 0.220545 0.428046
vt 0.220545 0.337551
vt 0.042571 0.428046
vt 0.042571 0.337551
vt 0.042764 0.342091
vt 0.211546 0.427912
vt 0.042764 0.427912
vt 0.042478 0.425764
vt 0.212402 0.339363
vt 0.212402 0.425764
vt 0.498068 0.336800
vt 0.263763 0.439310
vt 0.263763 0.336800
vt 0.042571 0.337551
vt 0.220545 0.428046
vt 0.220545 0.337551
vt 0.220545 0.428046
vt 0.042571 0.428046
vt 0.042764 0.342091
vt 0.211546 0.342091
vt 0.042764 0.427912
vt 0.042478 0.425764
vt 0.212402 0.339363
vt 0.212402 0.425764
vt 0.042571 0.428046
vt 0.220545 0.337551
vt 0.042571 0.337551
vt 0.220545 0.428046
vt 0.220545 0.337551
vt 0.042571 0.428046
vt 0.042571 0.337551
vt 0.211546 0.342091
vt 0.042764 0.342091
vt 0.042478 0.425764
vt 0.212402 0.339363
vt 0.212402 0.425764
vt 0.042571 0.337551
vt 0.220545 0.428046
vt 0.220545 0.337551
vt 0.220545 0.337551
vt 0.042571 0.428046
vt 0.042571 0.337551
vt 0.211546 0.342091
vt 0.042764 0.427912
vt 0.042764 0.342091
vt 0.212402 0.425764
vt 0.042478 0.339363
vt 0.212402 0.339363
vt 0.042571 0.428046
vt 0.220545 0.337551
vt 0.042571 0.337551
vt 0.220545 0.428046
vt 0.220545 0.337551
vt 0.042571 0.428046
vt 0.042571 0.337551
vt 0.211546 0.342091
vt 0.042764 0.427912
vt 0.042764 0.342091
vt 0.042478 0.425764
vt 0.212402 0.339363
vt 0.212402 0.425764
vt 0.042571 0.337551
vt 0.220545 0.428046
vt 0.220545 0.337551
vt 0.220545 0.337551
vt 0.220545 0.428046
vt 0.042571 0.337551
vt 0.211546 0.342091
vt 0.042764 0.427912
vt 0.042764 0.342091
vt 0.042478 0.425764
vt 0.212402 0.339363
vt 0.212402 0.425764
vt 0.042571 0.428046
vt 0.220545 0.337551
vt 0.042571 0.337551
vt 0.220545 0.428046
vt 0.220545 0.337551
vt 0.042571 0.337551
vt 0.042764 0.342091
vt 0.211546 0.427912
vt 0.042764 0.427912
vt 0.042478 0.425764
vt 0.212402 0.339363
vt 0.212402 0.425764
vt 0.042571 0.428046
vt 0.220545 0.337551
vt 0.042571 0.337551
vt 0.220545 0.428046
vt 0.220545 0.337551
vt 0.042571 0.428046
vt 0.042571 0.337551
vt 0.042764 0.342091
vt 0.211546 0.427912
vt 0.042764 0.427912
vt 0.212402 0.425764
vt 0.042478 0.339363
vt 0.212402 0.339363
vt 0.042571 0.337551
vt 0.220545 0.428046
vt 0.220545 0.337551
vt 0.220545 0.428046
vt 0.220545 0.337551
vt 0.042571 0.337551
vt 0.042764 0.342091
vt 0.211546 0.427912
vt 0.042764 0.427912
vt 0.042478 0.425764
vt 0.212402 0.339363
vt 0.212402 0.425764
vt 0.042571 0.337551
vt 0.220545 0.428046
vt 0.220545 0.337551
vt 0.220545 0.428046
vt 0.220545 0.337551
vt 0.042571 0.337551
vt 0.211546 0.342091
vt 0.042764 0.427912
vt 0.042764 0.342091
vt 0.042478 0.425764
vt 0.212402 0.339363
vt 0.212402 0.425764
vt 0.042571 0.337551
vt 0.220545 0.428046
vt 0.220545 0.337551
vt 0.220545 0.428046
vt 0.220545 0.337551
vt 0.042571 0.337551
vt 0.211546 0.342091
vt 0.042764 0.427912
vt 0.042764 0.342091
vt 0.212402 0.425764
vt 0.042478 0.339363
vt 0.212402 0.339363
vt 0.042571 0.337551
vt 0.220545 0.428046
vt 0.220545 0.337551
vt 0.220545 0.337551
vt 0.042571 0.428046
vt 0.042571 0.337551
vt 0.211546 0.342091
vt 0.042764 0.427912
vt 0.042764 0.342091
vt 0.212402 0.425764
vt 0.042478 0.339363
vt 0.212402 0.339363
vt 0.042571 0.428046
vt 0.220545 0.337551
vt 0.042571 0.337551
vt 0.220545 0.428046
vt 0.220545 0.337551
vt 0.042571 0.337551
vt 0.211546 0.342091
vt 0.042764 0.427912
vt 0.042764 0.342091
vt 0.042478 0.425764
vt 0.212402 0.339363
vt 0.212402 0.425764
vt 0.498068 0.336800
vt 0.498068 0.439310
vt 0.263763 0.439310
vt 0.042571 0.428046
vt 0.042571 0.337551
vt 0.042764 0.342091
vt 0.211546 0.342091
vt 0.211546 0.427912
vt 0.498068 0.439310
vt 0.220545 0.428046
vt 0.211546 0.342091
vt 0.042478 0.425764
vt 0.263763 0.439310
vt 0.220545 0.428046
vt 0.211546 0.342091
vt 0.042478 0.339363
vt 0.498068 0.439310
vt 0.042571 0.428046
vt 0.042478 0.339363
vt 0.220545 0.428046
vt 0.211546 0.427912
vt 0.042478 0.339363
vt 0.042571 0.428046
vt 0.220545 0.428046
vt 0.211546 0.427912
vt 0.042478 0.425764
vt 0.220545 0.428046
vt 0.211546 0.427912
vt 0.042478 0.339363
vt 0.042571 0.428046
vt 0.042571 0.428046
vt 0.211546 0.427912
vt 0.042478 0.339363
vt 0.220545 0.428046
vt 0.042571 0.428046
vt 0.211546 0.342091
vt 0.042478 0.339363
vt 0.220545 0.428046
vt 0.211546 0.342091
vt 0.042478 0.425764
vt 0.042571 0.428046
vt 0.042571 0.428046
vt 0.211546 0.342091
vt 0.042478 0.339363
vt 0.042571 0.428046
vt 0.042571 0.428046
vt 0.211546 0.427912
vt 0.042478 0.339363
vt 0.042571 0.428046
vt 0.042571 0.428046
vt 0.211546 0.427912
vt 0.042478 0.425764
vt 0.042571 0.428046
vt 0.220545 0.428046
vt 0.211546 0.427912
vt 0.042478 0.425764
vt 0.220545 0.428046
vt 0.042571 0.428046
vt 0.042478 0.339363
vn 0.9669 0.1277 0.2211
vn -0.2412 0.0271 0.9701
vn -0.9072 -0.2817 -0.3125
vn 0.2927 -0.0602 -0.9543
vn 0.1876 -0.9793 0.0763
vn -0.1910 0.9770 -0.0950
vn 0.8799 0.2823 0.3821
vn -0.5178 -0.0952 0.8502
vn -0.3445 -0.6549 -0.6726
vn 0.3975 0.0123 -0.9175
vn 0.2603 -0.9610 0.0932
vn -0.4429 0.8796 -0.1735
vn 0.3545 0.6439 0.6780
vn -0.6170 -0.7706 0.1600
vn 0.8519 -0.2877 -0.4376
vn 0.8179 0.4748 -0.3251
vn 0.7176 -0.1877 0.6706
vn -0.7231 0.1701 -0.6695
vn -0.0547 -0.9895 -0.1335
vn 0.9989 0.0421 0.0220
vn 0.2093 0.9772 -0.0357
vn 0.2826 -0.0374 0.9585
vn -0.1834 0.0340 -0.9825
vn 0.1885 -0.9792 0.0746
vn 0.8851 0.0453 0.4632
vn 0.0709 0.9957 -0.0602
vn -0.2311 0.0725 0.9702
vn 0.3284 -0.0778 -0.9413
vn 0.2647 -0.9575 0.1149
vn 0.4637 0.0530 0.8844
vn 0.0316 0.9972 -0.0673
vn -0.5494 0.1197 0.8269
vn 0.7060 -0.1749 -0.6863
vn -0.4468 -0.7656 0.4628
vn -0.5207 0.0356 0.8530
vn 0.2691 0.9581 -0.0983
vn -0.9807 0.1526 -0.1220
vn 0.9812 -0.1637 0.1024
vn -0.2162 -0.9761 0.0192
vn -0.7531 0.0551 0.6556
vn 0.0948 0.9747 0.2022
vn -0.8250 0.1746 -0.5376
vn 0.7632 0.0216 0.6458
vn -0.1274 -0.9915 -0.0247
vn -0.9135 0.1320 0.3849
vn -0.0399 0.9501 0.3095
vn -0.6098 0.1559 -0.7771
vn 0.4656 -0.0137 0.8849
vn -0.2121 -0.9770 -0.0221
vn -0.9886 0.0809 0.1272
vn 0.0100 0.9960 0.0883
vn -0.3179 0.1118 -0.9415
vn 0.1049 0.0219 0.9942
vn -0.2040 -0.9479 -0.2446
vn -0.9335 -0.0537 -0.3545
vn -0.1687 0.9846 0.0469
vn 0.1175 0.1137 -0.9865
vn -0.3090 0.0180 0.9509
vn -0.0637 -0.9697 -0.2358
vn -0.8276 0.1480 -0.5415
vn 0.0476 0.9391 0.3403
vn 0.5724 0.1009 -0.8137
vn -0.5508 -0.1274 0.8248
vn -0.2459 -0.7377 -0.6288
vn -0.3544 0.5351 -0.7669
vn 0.2065 0.8772 0.4333
vn 0.7578 0.1392 -0.6375
vn -0.8209 -0.1071 0.5609
vn -0.3203 -0.5349 -0.7819
vn -0.3470 0.2642 -0.8999
vn 0.1559 0.7943 0.5871
vn 0.9795 0.0083 -0.2012
vn -0.9602 0.1241 -0.2502
vn -0.8270 -0.5279 -0.1934
vn 0.3470 -0.2642 0.8999
vn 0.5860 -0.3120 -0.7478
vn 0.9705 0.1812 0.1592
vn -0.2395 0.0259 0.9705
vn -0.9205 -0.2586 -0.2929
vn 0.2700 -0.0462 -0.9617
vn 0.1678 -0.9819 0.0874
vn -0.1757 0.9822 -0.0670
vn 0.8610 0.3080 0.4047
vn -0.6060 -0.0503 0.7938
vn -0.3489 -0.6868 -0.6376
vn 0.5952 -0.0352 -0.8028
vn 0.4598 -0.8853 0.0695
vn -0.4398 0.8810 -0.1745
vn 0.3541 0.6419 0.6801
vn -0.8519 -0.5186 0.0728
vn 0.8559 -0.3433 -0.3868
vn -0.6741 0.2972 -0.6762
vn -0.1378 -0.9903 0.0200
vn 0.9993 0.0348 0.0150
vn 0.2237 0.9731 -0.0551
vn 0.4985 0.0928 0.8619
vn -0.1238 -0.0762 -0.9894
vn 0.1591 -0.9870 0.0247
vn 0.8719 0.0204 0.4893
vn 0.0581 0.9969 -0.0524
vn -0.1500 0.1327 0.9797
vn 0.4206 0.0522 -0.9057
vn -0.0084 -0.9923 0.1235
vn 0.4909 0.0757 0.8679
vn 0.1499 0.9852 -0.0826
vn -0.4308 0.2081 0.8781
vn 0.6521 -0.0699 -0.7549
vn -0.0580 -0.9979 0.0289
vn -0.5482 0.0133 0.8362
vn 0.1808 0.9832 -0.0255
vn -0.9820 0.1726 -0.0764
vn 0.9940 -0.0970 0.0506
vn -0.2157 -0.9755 0.0442
vn -0.7834 0.1253 0.6087
vn 0.0734 0.9761 0.2044
vn -0.8318 0.1675 -0.5292
vn 0.6085 -0.1638 0.7765
vn -0.1533 -0.9871 0.0467
vn -0.9285 0.1028 0.3569
vn 0.0647 0.9935 -0.0937
vn -0.6146 0.1520 -0.7741
vn 0.4018 0.0778 0.9124
vn -0.1115 -0.9933 0.0291
vn -0.9889 0.0957 0.1139
vn -0.1461 0.9892 -0.0107
vn -0.2621 0.1468 -0.9538
vn 0.1081 0.0249 0.9938
vn -0.0275 -0.9987 -0.0435
vn -0.9277 -0.0313 -0.3720
vn -0.1334 0.9855 0.1047
vn 0.1654 0.0785 -0.9831
vn -0.2781 0.0564 0.9589
vn -0.0556 -0.9799 -0.1915
vn -0.7894 0.2165 -0.5744
vn -0.0366 0.9946 0.0974
vn 0.4876 0.1964 -0.8507
vn -0.6340 0.0058 0.7733
vn -0.3051 -0.8626 -0.4036
vn -0.3671 0.5476 -0.7520
vn 0.0996 0.9003 0.4237
vn 0.5781 0.3886 -0.7175
vn -0.8354 -0.0336 0.5486
vn -0.1915 -0.6545 -0.7314
vn 0.8270 0.5279 0.1934
vn 0.1706 0.8031 0.5709
vn 0.8547 -0.5191 -0.0065
vn -0.9730 0.2052 0.1055
vn -0.0938 0.9939 -0.0585
s off
f 1/1/1 4/2/1 3/3/1
f 4/4/2 7/5/2 3/6/2
f 7/5/3 6/7/3 5/8/3
f 5/8/4 2/9/4 1/10/4
f 3/11/5 5/12/5 1/13/5
f 8/14/6 2/15/6 6/16/6
f 10/17/7 11/18/7 9/19/7
f 12/20/8 14/21/8 11/22/8
f 15/23/9 16/24/9 14/21/9
f 16/24/10 10/25/10 9/26/10
f 11/27/11 16/28/11 9/29/11
f 12/30/12 13/31/12 15/32/12
f 16/33/13 18/34/13 14/35/13
f 14/36/14 21/37/14 19/38/14
f 21/37/15 16/24/15 19/38/15
f 16/24/16 20/39/16 17/40/16
f 14/41/17 19/42/17 16/43/17
f 18/44/18 20/45/18 21/46/18
f 21/47/19 22/48/19 19/49/19
f 22/48/20 25/50/20 24/51/20
f 24/51/21 20/52/21 16/53/21
f 22/54/22 16/43/22 19/55/22
f 21/56/23 25/57/23 23/58/23
f 22/59/24 29/60/24 26/61/24
f 29/60/25 27/62/25 26/61/25
f 27/62/26 25/63/26 24/64/26
f 26/65/27 24/66/27 22/67/27
f 29/68/28 25/69/28 28/70/28
f 29/71/29 30/72/29 26/73/29
f 33/74/30 31/75/30 30/72/30
f 31/75/31 28/76/31 27/77/31
f 30/78/32 27/79/32 26/80/32
f 29/81/33 32/82/33 33/83/33
f 30/84/34 37/85/34 36/86/34
f 37/85/35 34/87/35 36/86/35
f 35/88/36 31/89/36 34/87/36
f 36/90/37 31/91/37 30/92/37
f 33/93/38 35/94/38 37/95/38
f 37/96/39 39/97/39 36/98/39
f 39/97/40 41/99/40 38/100/40
f 41/99/41 34/101/41 38/100/41
f 36/102/42 38/103/42 34/104/42
f 37/105/43 41/106/43 40/107/43
f 40/108/44 43/109/44 39/110/44
f 44/111/45 45/112/45 43/109/45
f 45/112/46 41/113/46 38/114/46
f 39/115/47 45/116/47 38/117/47
f 44/118/48 41/119/48 42/120/48
f 43/121/49 47/122/49 46/123/49
f 46/123/50 49/124/50 48/125/50
f 49/124/51 45/126/51 48/125/51
f 43/127/52 48/128/52 45/129/52
f 44/130/53 49/131/53 47/132/53
f 46/133/54 50/134/54 53/135/54
f 53/135/55 52/136/55 51/137/55
f 52/136/56 48/138/56 51/137/56
f 53/139/57 48/140/57 46/141/57
f 47/142/58 52/143/58 50/144/58
f 53/145/59 56/146/59 55/147/59
f 55/147/60 57/148/60 54/149/60
f 57/148/61 51/150/61 54/149/61
f 55/151/62 51/152/62 53/153/62
f 56/154/63 52/155/63 57/156/63
f 55/157/64 59/158/64 58/159/64
f 59/158/65 60/160/65 58/159/65
f 60/160/66 57/161/66 54/162/66
f 58/163/67 54/164/67 55/165/67
f 59/166/68 57/167/68 61/168/68
f 59/169/69 63/170/69 58/171/69
f 63/170/70 62/172/70 64/173/70
f 62/172/71 60/174/71 64/173/71
f 63/175/72 60/176/72 58/177/72
f 59/178/73 62/179/73 65/180/73
f 63/181/74 62/182/74 65/183/74
f 64/173/75 62/184/75 63/185/75
f 63/186/76 65/187/76 64/188/76
f 1/1/77 2/189/77 4/2/77
f 4/4/78 8/190/78 7/5/78
f 7/5/79 8/190/79 6/7/79
f 5/8/80 6/7/80 2/9/80
f 3/11/81 7/191/81 5/12/81
f 8/14/82 4/192/82 2/15/82
f 10/17/83 12/193/83 11/18/83
f 12/20/84 15/23/84 14/21/84
f 15/23/85 13/194/85 16/24/85
f 16/24/86 13/194/86 10/25/86
f 11/27/87 14/195/87 16/28/87
f 12/30/88 10/196/88 13/31/88
f 16/33/89 17/197/89 18/34/89
f 14/36/90 18/198/90 21/37/90
f 21/37/91 20/39/91 16/24/91
f 18/44/92 17/199/92 20/45/92
f 21/47/93 23/200/93 22/48/93
f 22/48/94 23/200/94 25/50/94
f 24/51/95 25/50/95 20/52/95
f 22/54/96 24/201/96 16/43/96
f 21/56/97 20/202/97 25/57/97
f 22/59/98 23/203/98 29/60/98
f 29/60/99 28/204/99 27/62/99
f 27/62/100 28/204/100 25/63/100
f 26/65/101 27/205/101 24/66/101
f 29/68/102 23/206/102 25/69/102
f 29/71/103 33/74/103 30/72/103
f 33/74/104 32/207/104 31/75/104
f 31/75/105 32/207/105 28/76/105
f 30/78/106 31/208/106 27/79/106
f 29/81/107 28/209/107 32/82/107
f 30/84/108 33/210/108 37/85/108
f 37/85/109 35/88/109 34/87/109
f 35/88/110 32/211/110 31/89/110
f 36/90/111 34/212/111 31/91/111
f 33/93/112 32/213/112 35/94/112
f 37/96/113 40/214/113 39/97/113
f 39/97/114 40/214/114 41/99/114
f 41/99/115 35/215/115 34/101/115
f 36/102/116 39/216/116 38/103/116
f 37/105/117 35/217/117 41/106/117
f 40/108/118 44/111/118 43/109/118
f 44/111/119 42/218/119 45/112/119
f 45/112/120 42/218/120 41/113/120
f 39/115/121 43/219/121 45/116/121
f 44/118/122 40/220/122 41/119/122
f 43/121/123 44/221/123 47/122/123
f 46/123/124 47/122/124 49/124/124
f 49/124/125 42/222/125 45/126/125
f 43/127/126 46/223/126 48/128/126
f 44/130/127 42/224/127 49/131/127
f 46/133/128 47/225/128 50/134/128
f 53/135/129 50/134/129 52/136/129
f 52/136/130 49/226/130 48/138/130
f 53/139/131 51/227/131 48/140/131
f 47/142/132 49/228/132 52/143/132
f 53/145/133 50/229/133 56/146/133
f 55/147/134 56/146/134 57/148/134
f 57/148/135 52/230/135 51/150/135
f 55/151/136 54/231/136 51/152/136
f 56/154/137 50/232/137 52/155/137
f 55/157/138 56/233/138 59/158/138
f 59/158/139 61/234/139 60/160/139
f 60/160/140 61/234/140 57/161/140
f 58/163/141 60/235/141 54/164/141
f 59/166/142 56/236/142 57/167/142
f 59/169/143 65/237/143 63/170/143
f 63/170/144 65/237/144 62/172/144
f 62/172/145 61/238/145 60/174/145
f 63/175/146 64/188/146 60/176/146
f 59/178/147 61/239/147 62/179/147
f 64/173/148 65/237/148 62/184/148
