# Blender v3.2.1 OBJ File: 'Modeling.blend'
# www.blender.org
o Snake_Cube.014
v 0.399774 0.283820 0.097445
v 0.347789 0.667428 0.066007
v 0.330256 0.299084 0.470664
v 0.285887 0.683546 0.447422
v 0.065323 0.219136 0.024934
v -0.031834 0.592456 -0.013328
v -0.035401 0.231239 0.398130
v -0.129613 0.605541 0.364884
v 0.066739 0.258482 0.051620
v -0.016930 0.575208 0.029187
v -0.026738 0.254945 0.363488
v -0.118922 0.570254 0.345503
v -0.285338 0.424023 -0.108495
v -0.279131 0.122489 0.240717
v -0.485346 0.355341 0.138370
v -0.106011 0.210970 -0.000170
v -0.279818 0.411145 -0.076502
v -0.447063 0.347060 0.134066
v -0.181664 -0.032568 0.029535
v -0.260324 0.222891 -0.216874
v -0.333576 0.002784 -0.169496
v 0.005385 -0.044302 -0.085717
v -0.050165 -0.048742 -0.305858
v -0.003449 0.176117 -0.100636
v -0.049282 0.164091 -0.296078
v 0.139457 -0.018426 -0.088918
v 0.135021 0.166189 -0.116983
v 0.178554 0.151029 -0.278297
v 0.180032 -0.016656 -0.261480
v 0.235540 0.008519 -0.060185
v 0.253730 0.163752 -0.086918
v 0.356613 0.142542 -0.185493
v 0.346804 0.001720 -0.167497
v 0.274667 0.168742 -0.017018
v 0.415452 0.145828 0.006104
v 0.250359 0.027660 -0.020703
v 0.393402 0.004666 0.001001
v 0.261369 0.158336 0.079699
v 0.239563 0.039948 0.071259
v 0.350702 0.019233 0.125809
v 0.360793 0.127839 0.122309
v 0.301533 0.132310 0.215906
v 0.206860 0.048763 0.146798
v 0.285517 0.031552 0.209142
v 0.231395 0.141154 0.157535
v 0.164830 0.059021 0.193883
v 0.212775 0.041032 0.261702
v 0.182488 0.136530 0.211112
v 0.223579 0.118294 0.267859
v 0.134350 0.047126 0.277257
v 0.127827 0.129549 0.229498
v 0.136961 0.112083 0.287881
v 0.125832 0.070232 0.212980
v 0.075748 0.134358 0.232250
v 0.072924 0.075412 0.212970
v 0.067238 0.056804 0.270325
v 0.073225 0.110869 0.284580
v 0.036985 0.089964 0.211071
v 0.012890 0.074650 0.253195
v 0.039113 0.134230 0.232686
v 0.019126 0.119196 0.269000
v -0.016399 0.131744 0.237020
v 0.012915 0.106440 0.200674
v 0.000704 0.151652 0.186364
v -0.033326 0.111389 0.189694
vt 0.498068 0.336800
vt 0.263763 0.439310
vt 0.263763 0.336800
vt 0.042571 0.428046
vt 0.220545 0.337551
vt 0.042571 0.337551
vt 0.220545 0.428046
vt 0.220545 0.337551
vt 0.042571 0.428046
vt 0.042571 0.337551
vt 0.042764 0.342091
vt 0.211546 0.427912
vt 0.042764 0.427912
vt 0.212402 0.425764
vt 0.042478 0.339363
vt 0.212402 0.339363
vt 0.498068 0.439310
vt 0.263763 0.336800
vt 0.498068 0.336800
vt 0.042571 0.428046
vt 0.220545 0.337551
vt 0.042571 0.337551
vt 0.220545 0.428046
vt 0.220545 0.337551
vt 0.042571 0.428046
vt 0.042571 0.337551
vt 0.042764 0.342091
vt 0.211546 0.427912
vt 0.042764 0.427912
vt 0.042478 0.425764
vt 0.212402 0.339363
vt 0.212402 0.425764
vt 0.498068 0.336800
vt 0.263763 0.439310
vt 0.263763 0.336800
vt 0.042571 0.337551
vt 0.220545 0.428046
vt 0.220545 0.337551
vt 0.220545 0.428046
vt 0.042571 0.428046
vt 0.042764 0.342091
vt 0.211546 0.342091
vt 0.042764 0.427912
vt 0.042478 0.425764
vt 0.212402 0.339363
vt 0.212402 0.425764
vt 0.042571 0.428046
vt 0.220545 0.337551
vt 0.042571 0.337551
vt 0.220545 0.428046
vt 0.220545 0.337551
vt 0.042571 0.428046
vt 0.042571 0.337551
vt 0.211546 0.342091
vt 0.042764 0.342091
vt 0.042478 0.425764
vt 0.212402 0.339363
vt 0.212402 0.425764
vt 0.042571 0.337551
vt 0.220545 0.428046
vt 0.220545 0.337551
vt 0.220545 0.337551
vt 0.042571 0.428046
vt 0.042571 0.337551
vt 0.211546 0.342091
vt 0.042764 0.427912
vt 0.042764 0.342091
vt 0.212402 0.425764
vt 0.042478 0.339363
vt 0.212402 0.339363
vt 0.042571 0.428046
vt 0.220545 0.337551
vt 0.042571 0.337551
vt 0.220545 0.428046
vt 0.220545 0.337551
vt 0.042571 0.428046
vt 0.042571 0.337551
vt 0.211546 0.342091
vt 0.042764 0.427912
vt 0.042764 0.342091
vt 0.042478 0.425764
vt 0.212402 0.339363
vt 0.212402 0.425764
vt 0.042571 0.337551
vt 0.220545 0.428046
vt 0.220545 0.337551
vt 0.220545 0.337551
vt 0.220545 0.428046
vt 0.042571 0.337551
vt 0.211546 0.342091
vt 0.042764 0.427912
vt 0.042764 0.342091
vt 0.212402 0.425764
vt 0.042478 0.339363
vt 0.212402 0.339363
vt 0.042571 0.428046
vt 0.220545 0.337551
vt 0.042571 0.337551
vt 0.220545 0.428046
vt 0.220545 0.337551
vt 0.042571 0.428046
vt 0.042571 0.337551
vt 0.211546 0.342091
vt 0.042764 0.427912
vt 0.042764 0.342091
vt 0.042478 0.425764
vt 0.212402 0.339363
vt 0.212402 0.425764
vt 0.042571 0.428046
vt 0.220545 0.337551
vt 0.042571 0.337551
vt 0.220545 0.428046
vt 0.220545 0.337551
vt 0.042571 0.428046
vt 0.042571 0.337551
vt 0.042764 0.342091
vt 0.211546 0.427912
vt 0.042764 0.427912
vt 0.212402 0.425764
vt 0.042478 0.339363
vt 0.212402 0.339363
vt 0.042571 0.337551
vt 0.220545 0.428046
vt 0.220545 0.337551
vt 0.220545 0.428046
vt 0.220545 0.337551
vt 0.042571 0.337551
vt 0.211546 0.342091
vt 0.042764 0.427912
vt 0.042764 0.342091
vt 0.042478 0.425764
vt 0.212402 0.339363
vt 0.212402 0.425764
vt 0.042571 0.337551
vt 0.220545 0.428046
vt 0.220545 0.337551
vt 0.220545 0.428046
vt 0.220545 0.337551
vt 0.042571 0.337551
vt 0.211546 0.342091
vt 0.042764 0.427912
vt 0.042764 0.342091
vt 0.042478 0.425764
vt 0.212402 0.339363
vt 0.212402 0.425764
vt 0.042571 0.337551
vt 0.220545 0.428046
vt 0.220545 0.337551
vt 0.220545 0.428046
vt 0.220545 0.337551
vt 0.042571 0.337551
vt 0.211546 0.342091
vt 0.042764 0.427912
vt 0.042764 0.342091
vt 0.042478 0.425764
vt 0.212402 0.339363
vt 0.212402 0.425764
vt 0.042571 0.428046
vt 0.220545 0.337551
vt 0.042571 0.337551
vt 0.220545 0.428046
vt 0.220545 0.337551
vt 0.042571 0.428046
vt 0.042571 0.337551
vt 0.211546 0.342091
vt 0.042764 0.427912
vt 0.042764 0.342091
vt 0.212402 0.425764
vt 0.042478 0.339363
vt 0.212402 0.339363
vt 0.042571 0.428046
vt 0.220545 0.337551
vt 0.042571 0.337551
vt 0.220545 0.428046
vt 0.220545 0.337551
vt 0.042571 0.337551
vt 0.211546 0.342091
vt 0.042764 0.427912
vt 0.042764 0.342091
vt 0.042478 0.425764
vt 0.212402 0.339363
vt 0.212402 0.425764
vt 0.498068 0.336800
vt 0.498068 0.439310
vt 0.263763 0.439310
vt 0.042571 0.428046
vt 0.042571 0.337551
vt 0.042764 0.342091
vt 0.211546 0.342091
vt 0.211546 0.427912
vt 0.498068 0.439310
vt 0.220545 0.428046
vt 0.211546 0.342091
vt 0.042478 0.425764
vt 0.263763 0.439310
vt 0.220545 0.428046
vt 0.211546 0.342091
vt 0.042478 0.339363
vt 0.498068 0.439310
vt 0.042571 0.428046
vt 0.042478 0.339363
vt 0.220545 0.428046
vt 0.211546 0.427912
vt 0.042478 0.339363
vt 0.042571 0.428046
vt 0.220545 0.428046
vt 0.211546 0.427912
vt 0.042478 0.425764
vt 0.220545 0.428046
vt 0.211546 0.427912
vt 0.042478 0.339363
vt 0.042571 0.428046
vt 0.042571 0.428046
vt 0.211546 0.427912
vt 0.042478 0.425764
vt 0.220545 0.428046
vt 0.211546 0.427912
vt 0.042478 0.339363
vt 0.220545 0.428046
vt 0.211546 0.342091
vt 0.042478 0.425764
vt 0.042571 0.428046
vt 0.042571 0.428046
vt 0.211546 0.427912
vt 0.042478 0.339363
vt 0.042571 0.428046
vt 0.042571 0.428046
vt 0.211546 0.427912
vt 0.042478 0.339363
vt 0.042571 0.428046
vt 0.042571 0.428046
vt 0.211546 0.427912
vt 0.042478 0.339363
vt 0.220545 0.428046
vt 0.211546 0.427912
vt 0.042478 0.425764
vt 0.220545 0.428046
vt 0.042571 0.428046
vt 0.042478 0.339363
vn 0.9765 0.1234 0.1768
vn -0.2009 0.0360 0.9790
vn -0.9324 -0.2676 -0.2430
vn 0.2208 -0.0499 -0.9740
vn 0.1742 -0.9820 0.0726
vn -0.1771 0.9810 -0.0797
vn 0.9232 0.2637 0.2797
vn -0.4077 -0.0672 0.9106
vn -0.4661 -0.6678 -0.5803
vn 0.2853 0.0075 -0.9584
vn 0.2470 -0.9670 0.0631
vn -0.4512 0.8844 -0.1195
vn 0.4886 0.6446 0.5880
vn -0.5699 -0.7654 0.2990
vn 0.7312 -0.3018 -0.6117
vn 0.7388 0.4503 -0.5013
vn 0.8290 -0.1935 0.5247
vn -0.8434 0.1711 -0.5093
vn -0.1159 -0.9894 -0.0873
vn 0.9730 0.0235 -0.2296
vn 0.2246 0.9686 -0.1067
vn 0.5211 -0.0580 0.8516
vn -0.4268 0.0433 -0.9033
vn 0.1902 -0.9811 0.0347
vn 0.9717 0.0582 0.2291
vn 0.0624 0.9952 -0.0759
vn 0.0107 0.0680 0.9976
vn 0.0718 -0.0989 -0.9925
vn 0.2557 -0.9654 0.0502
vn 0.6949 0.0422 0.7178
vn 0.0413 0.9957 -0.0824
vn -0.3184 0.1350 0.9383
vn 0.4978 -0.1440 -0.8552
vn -0.2103 -0.8464 0.4893
vn -0.1500 0.0000 0.9887
vn 0.1791 0.9761 -0.1233
vn -0.9472 0.1589 0.2785
vn 0.9475 -0.1376 -0.2886
vn -0.1740 -0.9785 0.1103
vn -0.3922 0.0067 0.9199
vn 0.1394 0.9823 0.1248
vn -0.9755 0.1717 -0.1375
vn 0.9406 -0.0767 0.3308
vn -0.1969 -0.9800 0.0291
vn -0.6101 0.0703 0.7892
vn 0.1722 0.9459 0.2751
vn -0.9291 0.1936 -0.3151
vn 0.8293 -0.1676 0.5331
vn -0.2888 -0.9561 -0.0495
vn -0.8012 0.0500 0.5963
vn 0.1390 0.9677 0.2104
vn -0.6910 0.2618 -0.6738
vn 0.5672 -0.1439 0.8109
vn -0.3846 -0.8837 -0.2667
vn -0.9884 -0.0091 0.1519
vn -0.0246 0.9567 0.2901
vn -0.3563 0.2794 -0.8916
vn 0.1795 -0.1658 0.9697
vn -0.0924 -0.9444 -0.3156
vn -0.9982 0.0554 -0.0233
vn 0.1053 0.9053 0.4114
vn 0.0264 0.2673 -0.9632
vn -0.1338 -0.2388 0.9618
vn -0.3409 -0.8838 -0.3205
vn -0.8894 0.2344 -0.3925
vn 0.0017 0.9123 0.4096
vn 0.1706 0.2989 -0.9389
vn -0.3052 -0.2802 0.9101
vn -0.3402 -0.8044 -0.4870
vn -0.8327 -0.3585 -0.4220
vn -0.0135 0.9322 0.3618
vn 0.5599 0.3417 -0.7548
vn -0.8450 -0.3101 0.4356
vn -0.1994 -0.8723 0.4465
vn 0.8327 0.3585 0.4220
vn 0.1988 -0.2465 -0.9485
vn 0.9776 0.1450 0.1525
vn -0.2013 0.0363 0.9789
vn -0.9378 -0.2568 -0.2336
vn 0.2128 -0.0447 -0.9761
vn 0.1671 -0.9829 0.0770
vn -0.1708 0.9829 -0.0693
vn 0.9114 0.2835 0.2983
vn -0.4760 -0.0353 0.8787
vn -0.4657 -0.6799 -0.5664
vn 0.4762 -0.0457 -0.8782
vn 0.4622 -0.8867 0.0065
vn -0.4366 0.8907 -0.1268
vn 0.4886 0.6473 0.5851
vn -0.8285 -0.4983 0.2554
vn 0.7478 -0.3678 -0.5527
vn -0.7877 0.3137 -0.5302
vn -0.1514 -0.9868 0.0581
vn 0.9695 0.0072 -0.2448
vn 0.2272 0.9673 -0.1128
vn 0.7108 0.0758 0.6993
vn -0.3690 -0.0766 -0.9263
vn 0.1410 -0.9899 -0.0156
vn 0.9657 0.0343 0.2574
vn 0.0630 0.9951 -0.0765
vn 0.1266 0.1521 0.9802
vn 0.1831 0.0444 -0.9821
vn 0.0467 -0.9927 0.1113
vn 0.6958 0.0432 0.7169
vn 0.1024 0.9891 -0.1060
vn -0.2373 0.1918 0.9523
vn 0.4573 -0.0847 -0.8852
vn -0.0349 -0.9990 0.0271
vn -0.1637 -0.0101 0.9865
vn 0.1448 0.9876 -0.0614
vn -0.9492 0.1564 0.2731
vn 0.9594 -0.1005 -0.2636
vn -0.2040 -0.9780 0.0443
vn -0.4292 0.0689 0.9006
vn 0.1906 0.9526 0.2371
vn -0.9756 0.1878 -0.1139
vn 0.9029 -0.1555 0.4006
vn -0.2031 -0.9791 -0.0141
vn -0.6352 0.0492 0.7707
vn 0.1080 0.9939 0.0209
vn -0.8692 0.2783 -0.4088
vn 0.7828 -0.0527 0.6201
vn -0.1697 -0.9838 -0.0575
vn -0.8064 0.0659 0.5876
vn -0.0428 0.9789 0.1998
vn -0.7167 0.3029 -0.6281
vn 0.5666 -0.1445 0.8112
vn -0.1117 -0.9773 -0.1803
vn -0.9904 0.0173 0.1375
vn 0.0021 0.9525 0.3046
vn -0.3376 0.2630 -0.9038
vn 0.2313 -0.1094 0.9667
vn -0.1021 -0.9404 -0.3245
vn -0.9905 0.1249 -0.0577
vn -0.0333 0.9561 0.2912
vn -0.0214 0.3117 -0.9499
vn -0.0480 -0.1593 0.9861
vn -0.1619 -0.8941 -0.4177
vn -0.8753 0.2659 -0.4040
vn 0.0275 0.9182 0.3952
vn -0.0122 0.4392 -0.8983
vn -0.3540 -0.2016 0.9132
vn 0.0314 -0.8551 -0.5176
vn 0.1994 0.8723 -0.4465
vn -0.0120 0.9262 0.3768
vn 0.7710 0.0067 -0.6368
vn -0.6906 -0.1541 0.7067
vn -0.7639 0.6453 -0.0043
s off
f 1/1/1 4/2/1 3/3/1
f 4/4/2 7/5/2 3/6/2
f 7/5/3 6/7/3 5/8/3
f 5/8/4 2/9/4 1/10/4
f 3/11/5 5/12/5 1/13/5
f 8/14/6 2/15/6 6/16/6
f 10/17/7 11/18/7 9/19/7
f 12/20/8 14/21/8 11/22/8
f 15/23/9 16/24/9 14/21/9
f 16/24/10 10/25/10 9/26/10
f 11/27/11 16/28/11 9/29/11
f 12/30/12 13/31/12 15/32/12
f 16/33/13 18/34/13 14/35/13
f 14/36/14 21/37/14 19/38/14
f 21/37/15 16/24/15 19/38/15
f 16/24/16 20/39/16 17/40/16
f 14/41/17 19/42/17 16/43/17
f 18/44/18 20/45/18 21/46/18
f 21/47/19 22/48/19 19/49/19
f 22/48/20 25/50/20 24/51/20
f 24/51/21 20/52/21 16/53/21
f 22/54/22 16/43/22 19/55/22
f 21/56/23 25/57/23 23/58/23
f 22/59/24 29/60/24 26/61/24
f 29/60/25 27/62/25 26/61/25
f 27/62/26 25/63/26 24/64/26
f 26/65/27 24/66/27 22/67/27
f 29/68/28 25/69/28 28/70/28
f 29/71/29 30/72/29 26/73/29
f 33/74/30 31/75/30 30/72/30
f 31/75/31 28/76/31 27/77/31
f 30/78/32 27/79/32 26/80/32
f 29/81/33 32/82/33 33/83/33
f 30/84/34 37/85/34 36/86/34
f 37/85/35 34/87/35 36/86/35
f 35/88/36 31/89/36 34/87/36
f 36/90/37 31/91/37 30/92/37
f 37/93/38 32/94/38 35/95/38
f 37/96/39 39/97/39 36/98/39
f 39/97/40 41/99/40 38/100/40
f 38/100/41 35/101/41 34/102/41
f 39/103/42 34/104/42 36/105/42
f 37/106/43 41/107/43 40/108/43
f 40/109/44 43/110/44 39/111/44
f 44/112/45 45/113/45 43/110/45
f 45/113/46 41/114/46 38/115/46
f 39/116/47 45/117/47 38/118/47
f 44/119/48 41/120/48 42/121/48
f 43/122/49 47/123/49 46/124/49
f 46/124/50 49/125/50 48/126/50
f 49/125/51 45/127/51 48/126/51
f 46/128/52 45/129/52 43/130/52
f 44/131/53 49/132/53 47/133/53
f 46/134/54 50/135/54 53/136/54
f 53/136/55 52/137/55 51/138/55
f 52/137/56 48/139/56 51/138/56
f 53/140/57 48/141/57 46/142/57
f 47/143/58 52/144/58 50/145/58
f 53/146/59 56/147/59 55/148/59
f 55/148/60 57/149/60 54/150/60
f 57/149/61 51/151/61 54/150/61
f 55/152/62 51/153/62 53/154/62
f 50/155/63 57/156/63 56/157/63
f 56/158/64 58/159/64 55/160/64
f 58/159/65 61/161/65 60/162/65
f 60/162/66 57/163/66 54/164/66
f 58/165/67 54/166/67 55/167/67
f 59/168/68 57/169/68 61/170/68
f 59/171/69 63/172/69 58/173/69
f 63/172/70 62/174/70 64/175/70
f 62/174/71 60/176/71 64/175/71
f 63/177/72 60/178/72 58/179/72
f 59/180/73 62/181/73 65/182/73
f 63/183/74 62/184/74 65/185/74
f 64/175/75 62/186/75 63/187/75
f 63/188/76 65/189/76 64/190/76
f 1/1/77 2/191/77 4/2/77
f 4/4/78 8/192/78 7/5/78
f 7/5/79 8/192/79 6/7/79
f 5/8/80 6/7/80 2/9/80
f 3/11/81 7/193/81 5/12/81
f 8/14/82 4/194/82 2/15/82
f 10/17/83 12/195/83 11/18/83
f 12/20/84 15/23/84 14/21/84
f 15/23/85 13/196/85 16/24/85
f 16/24/86 13/196/86 10/25/86
f 11/27/87 14/197/87 16/28/87
f 12/30/88 10/198/88 13/31/88
f 16/33/89 17/199/89 18/34/89
f 14/36/90 18/200/90 21/37/90
f 21/37/91 20/39/91 16/24/91
f 18/44/92 17/201/92 20/45/92
f 21/47/93 23/202/93 22/48/93
f 22/48/94 23/202/94 25/50/94
f 24/51/95 25/50/95 20/52/95
f 22/54/96 24/203/96 16/43/96
f 21/56/97 20/204/97 25/57/97
f 22/59/98 23/205/98 29/60/98
f 29/60/99 28/206/99 27/62/99
f 27/62/100 28/206/100 25/63/100
f 26/65/101 27/207/101 24/66/101
f 29/68/102 23/208/102 25/69/102
f 29/71/103 33/74/103 30/72/103
f 33/74/104 32/209/104 31/75/104
f 31/75/105 32/209/105 28/76/105
f 30/78/106 31/210/106 27/79/106
f 29/81/107 28/211/107 32/82/107
f 30/84/108 33/212/108 37/85/108
f 37/85/109 35/88/109 34/87/109
f 35/88/110 32/213/110 31/89/110
f 36/90/111 34/214/111 31/91/111
f 37/93/112 33/215/112 32/94/112
f 37/96/113 40/216/113 39/97/113
f 39/97/114 40/216/114 41/99/114
f 38/100/115 41/99/115 35/101/115
f 39/103/116 38/217/116 34/104/116
f 37/106/117 35/218/117 41/107/117
f 40/109/118 44/112/118 43/110/118
f 44/112/119 42/219/119 45/113/119
f 45/113/120 42/219/120 41/114/120
f 39/116/121 43/220/121 45/117/121
f 44/119/122 40/221/122 41/120/122
f 43/122/123 44/222/123 47/123/123
f 46/124/124 47/123/124 49/125/124
f 49/125/125 42/223/125 45/127/125
f 46/128/126 48/224/126 45/129/126
f 44/131/127 42/225/127 49/132/127
f 46/134/128 47/226/128 50/135/128
f 53/136/129 50/135/129 52/137/129
f 52/137/130 49/227/130 48/139/130
f 53/140/131 51/228/131 48/141/131
f 47/143/132 49/229/132 52/144/132
f 53/146/133 50/230/133 56/147/133
f 55/148/134 56/147/134 57/149/134
f 57/149/135 52/231/135 51/151/135
f 55/152/136 54/232/136 51/153/136
f 50/155/137 52/233/137 57/156/137
f 56/158/138 59/234/138 58/159/138
f 58/159/139 59/234/139 61/161/139
f 60/162/140 61/161/140 57/163/140
f 58/165/141 60/235/141 54/166/141
f 59/168/142 56/236/142 57/169/142
f 59/171/143 65/237/143 63/172/143
f 63/172/144 65/237/144 62/174/144
f 62/174/145 61/238/145 60/176/145
f 63/177/146 64/190/146 60/178/146
f 59/180/147 61/239/147 62/181/147
f 64/175/148 65/237/148 62/186/148
