# Blender v3.2.1 OBJ File: 'Modeling.blend'
# www.blender.org
o Snake_Cube.014
v 0.409855 0.287038 0.115015
v 0.342676 0.668629 0.069576
v 0.333716 0.299250 0.471232
v 0.287547 0.683548 0.449567
v 0.083507 0.216298 0.024190
v -0.017404 0.587693 -0.021377
v -0.039974 0.227340 0.387925
v -0.134919 0.601038 0.356241
v 0.091118 0.254900 0.053574
v 0.003389 0.569996 0.019667
v -0.034173 0.249665 0.350598
v -0.135264 0.560503 0.325283
v -0.232228 0.417754 -0.148317
v -0.276723 0.110664 0.187778
v -0.464062 0.341451 0.058779
v -0.061297 0.206462 -0.012205
v -0.217963 0.405310 -0.119497
v -0.423748 0.334416 0.050824
v -0.136997 -0.038424 0.000023
v -0.161367 0.219813 -0.254272
v -0.237951 -0.002054 -0.228999
v 0.067463 -0.040323 -0.055130
v 0.076345 -0.045922 -0.281839
v 0.058543 0.179477 -0.074610
v 0.067788 0.166629 -0.273801
v 0.195105 -0.013359 -0.023776
v 0.199415 0.170906 -0.048092
v 0.284362 0.158656 -0.191905
v 0.280560 -0.009454 -0.179678
v 0.279331 0.016953 0.031062
v 0.307211 0.171421 0.006827
v 0.432356 0.146122 -0.058147
v 0.416741 0.006306 -0.036730
v 0.302175 0.179823 0.073799
v 0.419522 0.155912 0.151635
v 0.278155 0.038373 0.066278
v 0.397538 0.014467 0.140795
v 0.249113 0.168909 0.151409
v 0.232267 0.050297 0.143547
v 0.308686 0.041082 0.246101
v 0.314934 0.148684 0.230006
v 0.217520 0.160539 0.278841
v 0.170928 0.056408 0.192629
v 0.208628 0.058893 0.286518
v 0.186046 0.150973 0.194835
v 0.110338 0.069047 0.209509
v 0.118348 0.068642 0.293952
v 0.117517 0.149819 0.216519
v 0.125115 0.146377 0.288407
v 0.041654 0.070366 0.267526
v 0.062353 0.139746 0.205747
v 0.039854 0.135789 0.262840
v 0.067761 0.078590 0.204535
v 0.023763 0.149572 0.184421
v 0.021944 0.089489 0.171024
v -0.015900 0.082388 0.216926
v -0.009363 0.136857 0.228403
v -0.001518 0.120214 0.145677
v -0.048060 0.120801 0.163769
v 0.004838 0.161350 0.173815
v -0.035903 0.159874 0.188952
v -0.029986 0.188228 0.151951
v -0.002454 0.149136 0.129051
v 0.026799 0.187991 0.136093
v -0.013318 0.188884 0.102812
vt 0.498068 0.336800
vt 0.263763 0.439310
vt 0.263763 0.336800
vt 0.042571 0.428046
vt 0.220545 0.337551
vt 0.042571 0.337551
vt 0.220545 0.428046
vt 0.220545 0.337551
vt 0.042571 0.428046
vt 0.042571 0.337551
vt 0.042764 0.342091
vt 0.211546 0.427912
vt 0.042764 0.427912
vt 0.212402 0.425764
vt 0.042478 0.339363
vt 0.212402 0.339363
vt 0.498068 0.439310
vt 0.263763 0.336800
vt 0.498068 0.336800
vt 0.042571 0.428046
vt 0.220545 0.337551
vt 0.042571 0.337551
vt 0.220545 0.428046
vt 0.220545 0.337551
vt 0.042571 0.428046
vt 0.042571 0.337551
vt 0.042764 0.342091
vt 0.211546 0.427912
vt 0.042764 0.427912
vt 0.042478 0.425764
vt 0.212402 0.339363
vt 0.212402 0.425764
vt 0.498068 0.336800
vt 0.263763 0.439310
vt 0.263763 0.336800
vt 0.042571 0.337551
vt 0.220545 0.428046
vt 0.220545 0.337551
vt 0.220545 0.428046
vt 0.042571 0.428046
vt 0.042764 0.342091
vt 0.211546 0.342091
vt 0.042764 0.427912
vt 0.042478 0.425764
vt 0.212402 0.339363
vt 0.212402 0.425764
vt 0.042571 0.428046
vt 0.220545 0.337551
vt 0.042571 0.337551
vt 0.220545 0.428046
vt 0.220545 0.337551
vt 0.042571 0.428046
vt 0.042571 0.337551
vt 0.211546 0.342091
vt 0.042764 0.342091
vt 0.042478 0.425764
vt 0.212402 0.339363
vt 0.212402 0.425764
vt 0.042571 0.337551
vt 0.220545 0.428046
vt 0.220545 0.337551
vt 0.220545 0.337551
vt 0.042571 0.428046
vt 0.042571 0.337551
vt 0.211546 0.342091
vt 0.042764 0.427912
vt 0.042764 0.342091
vt 0.212402 0.425764
vt 0.042478 0.339363
vt 0.212402 0.339363
vt 0.042571 0.428046
vt 0.220545 0.337551
vt 0.042571 0.337551
vt 0.220545 0.428046
vt 0.220545 0.337551
vt 0.042571 0.428046
vt 0.042571 0.337551
vt 0.211546 0.342091
vt 0.042764 0.427912
vt 0.042764 0.342091
vt 0.042478 0.425764
vt 0.212402 0.339363
vt 0.212402 0.425764
vt 0.042571 0.337551
vt 0.220545 0.428046
vt 0.220545 0.337551
vt 0.220545 0.337551
vt 0.220545 0.428046
vt 0.042571 0.337551
vt 0.211546 0.342091
vt 0.042764 0.427912
vt 0.042764 0.342091
vt 0.042478 0.425764
vt 0.212402 0.339363
vt 0.212402 0.425764
vt 0.042571 0.428046
vt 0.220545 0.337551
vt 0.042571 0.337551
vt 0.220545 0.428046
vt 0.220545 0.337551
vt 0.042571 0.337551
vt 0.042764 0.342091
vt 0.211546 0.427912
vt 0.042764 0.427912
vt 0.042478 0.425764
vt 0.212402 0.339363
vt 0.212402 0.425764
vt 0.042571 0.428046
vt 0.220545 0.337551
vt 0.042571 0.337551
vt 0.220545 0.428046
vt 0.220545 0.337551
vt 0.042571 0.428046
vt 0.042571 0.337551
vt 0.042764 0.342091
vt 0.211546 0.427912
vt 0.042764 0.427912
vt 0.212402 0.425764
vt 0.042478 0.339363
vt 0.212402 0.339363
vt 0.042571 0.337551
vt 0.220545 0.428046
vt 0.220545 0.337551
vt 0.220545 0.428046
vt 0.220545 0.337551
vt 0.042571 0.337551
vt 0.042764 0.342091
vt 0.211546 0.427912
vt 0.042764 0.427912
vt 0.042478 0.425764
vt 0.212402 0.339363
vt 0.212402 0.425764
vt 0.042571 0.337551
vt 0.220545 0.428046
vt 0.220545 0.337551
vt 0.220545 0.428046
vt 0.220545 0.337551
vt 0.042571 0.337551
vt 0.211546 0.342091
vt 0.042764 0.427912
vt 0.042764 0.342091
vt 0.042478 0.425764
vt 0.212402 0.339363
vt 0.212402 0.425764
vt 0.042571 0.337551
vt 0.220545 0.428046
vt 0.220545 0.337551
vt 0.220545 0.428046
vt 0.220545 0.337551
vt 0.042571 0.337551
vt 0.211546 0.342091
vt 0.042764 0.427912
vt 0.042764 0.342091
vt 0.212402 0.425764
vt 0.042478 0.339363
vt 0.212402 0.339363
vt 0.042571 0.337551
vt 0.220545 0.428046
vt 0.220545 0.337551
vt 0.220545 0.337551
vt 0.042571 0.428046
vt 0.042571 0.337551
vt 0.211546 0.342091
vt 0.042764 0.427912
vt 0.042764 0.342091
vt 0.212402 0.425764
vt 0.042478 0.339363
vt 0.212402 0.339363
vt 0.042571 0.428046
vt 0.220545 0.337551
vt 0.042571 0.337551
vt 0.220545 0.428046
vt 0.220545 0.337551
vt 0.042571 0.337551
vt 0.211546 0.342091
vt 0.042764 0.427912
vt 0.042764 0.342091
vt 0.042478 0.425764
vt 0.212402 0.339363
vt 0.212402 0.425764
vt 0.498068 0.336800
vt 0.498068 0.439310
vt 0.263763 0.439310
vt 0.042571 0.428046
vt 0.042571 0.337551
vt 0.042764 0.342091
vt 0.211546 0.342091
vt 0.211546 0.427912
vt 0.498068 0.439310
vt 0.220545 0.428046
vt 0.211546 0.342091
vt 0.042478 0.425764
vt 0.263763 0.439310
vt 0.220545 0.428046
vt 0.211546 0.342091
vt 0.042478 0.339363
vt 0.498068 0.439310
vt 0.042571 0.428046
vt 0.042478 0.339363
vt 0.220545 0.428046
vt 0.211546 0.427912
vt 0.042478 0.339363
vt 0.042571 0.428046
vt 0.220545 0.428046
vt 0.211546 0.427912
vt 0.042478 0.425764
vt 0.220545 0.428046
vt 0.211546 0.427912
vt 0.042478 0.339363
vt 0.042571 0.428046
vt 0.042571 0.428046
vt 0.211546 0.427912
vt 0.042478 0.339363
vt 0.220545 0.428046
vt 0.042571 0.428046
vt 0.211546 0.342091
vt 0.042478 0.339363
vt 0.220545 0.428046
vt 0.211546 0.342091
vt 0.042478 0.425764
vt 0.042571 0.428046
vt 0.042571 0.428046
vt 0.211546 0.342091
vt 0.042478 0.339363
vt 0.042571 0.428046
vt 0.042571 0.428046
vt 0.211546 0.427912
vt 0.042478 0.339363
vt 0.042571 0.428046
vt 0.042571 0.428046
vt 0.211546 0.427912
vt 0.042478 0.425764
vt 0.042571 0.428046
vt 0.220545 0.428046
vt 0.211546 0.427912
vt 0.042478 0.425764
vt 0.220545 0.428046
vt 0.042571 0.428046
vt 0.042478 0.339363
vn 0.9707 0.1281 0.2031
vn -0.2227 0.0282 0.9745
vn -0.9105 -0.2842 -0.3005
vn 0.2805 -0.0646 -0.9577
vn 0.1914 -0.9787 0.0745
vn -0.1953 0.9761 -0.0953
vn 0.8811 0.2859 0.3767
vn -0.5152 -0.0982 0.8514
vn -0.3383 -0.6532 -0.6774
vn 0.3934 0.0106 -0.9193
vn 0.2642 -0.9598 0.0945
vn -0.4445 0.8787 -0.1739
vn 0.3461 0.6446 0.6816
vn -0.6195 -0.7704 0.1507
vn 0.8590 -0.2867 -0.4242
vn 0.8208 0.4778 -0.3130
vn 0.7116 -0.1862 0.6774
vn -0.7149 0.1695 -0.6784
vn -0.0461 -0.9895 -0.1368
vn 0.9981 0.0444 0.0435
vn 0.2044 0.9784 -0.0305
vn 0.2600 -0.0322 0.9651
vn -0.1615 0.0308 -0.9864
vn 0.1876 -0.9791 0.0783
vn 0.8756 0.0430 0.4810
vn 0.0720 0.9955 -0.0609
vn -0.2528 0.0752 0.9646
vn 0.3502 -0.0758 -0.9336
vn 0.2652 -0.9565 0.1214
vn 0.4454 0.0598 0.8933
vn 0.0296 0.9973 -0.0675
vn -0.5717 0.1205 0.8115
vn 0.7218 -0.1829 -0.6675
vn -0.4396 -0.7738 0.4560
vn -0.5227 0.0435 0.8514
vn 0.2623 0.9597 -0.1007
vn -0.9793 0.1567 -0.1280
vn 0.9804 -0.1611 0.1135
vn -0.2114 -0.9771 0.0252
vn -0.7569 0.0644 0.6504
vn 0.0751 0.9791 0.1890
vn -0.8246 0.1687 -0.5400
vn 0.7696 0.0505 0.6366
vn -0.1068 -0.9942 -0.0097
vn -0.9203 0.1386 0.3659
vn -0.0647 0.9520 0.2992
vn -0.5879 0.1363 -0.7974
vn 0.4507 0.0280 0.8922
vn -0.2004 -0.9796 0.0143
vn -0.9910 0.0787 0.1085
vn -0.0016 0.9988 0.0480
vn -0.3020 0.0705 -0.9507
vn 0.0887 0.0632 0.9941
vn -0.1913 -0.9600 -0.2046
vn -0.9260 -0.0745 -0.3701
vn -0.1792 0.9838 -0.0024
vn 0.1321 0.0740 -0.9885
vn -0.3240 0.0587 0.9442
vn -0.0758 -0.9741 -0.2132
vn -0.8101 0.1508 -0.5665
vn 0.0633 0.9450 0.3209
vn 0.5996 0.0688 -0.7974
vn -0.5718 -0.1029 0.8139
vn -0.2577 -0.7243 -0.6395
vn -0.2913 0.5703 -0.7680
vn 0.2747 0.8486 0.4522
vn 0.7923 0.1098 -0.6002
vn -0.8472 -0.0754 0.5259
vn -0.3232 -0.4795 -0.8159
vn -0.2504 0.3520 -0.9019
vn 0.1806 0.7508 0.6354
vn 0.9878 -0.0523 -0.1467
vn -0.9297 0.1944 -0.3128
vn -0.8540 -0.4284 -0.2954
vn 0.2504 -0.3520 0.9019
vn 0.6008 -0.3195 -0.7328
vn 0.9732 0.1873 0.1338
vn -0.2206 0.0266 0.9750
vn -0.9249 -0.2586 -0.2787
vn 0.2550 -0.0492 -0.9657
vn 0.1694 -0.9817 0.0873
vn -0.1776 0.9820 -0.0643
vn 0.8613 0.3127 0.4005
vn -0.6082 -0.0509 0.7922
vn -0.3434 -0.6890 -0.6383
vn 0.5953 -0.0355 -0.8027
vn 0.4596 -0.8853 0.0711
vn -0.4439 0.8790 -0.1741
vn 0.3456 0.6417 0.6847
vn -0.8511 -0.5214 0.0618
vn 0.8622 -0.3404 -0.3752
vn -0.6675 0.2935 -0.6843
vn -0.1350 -0.9907 0.0192
vn 0.9985 0.0388 0.0382
vn 0.2215 0.9737 -0.0525
vn 0.4768 0.0968 0.8737
vn -0.1025 -0.0776 -0.9917
vn 0.1608 -0.9865 0.0307
vn 0.8615 0.0174 0.5074
vn 0.0563 0.9971 -0.0517
vn -0.1755 0.1328 0.9755
vn 0.4394 0.0516 -0.8968
vn -0.0156 -0.9921 0.1242
vn 0.4722 0.0817 0.8777
vn 0.1568 0.9843 -0.0813
vn -0.4440 0.2166 0.8695
vn 0.6657 -0.0691 -0.7430
vn -0.0578 -0.9975 0.0396
vn -0.5496 0.0214 0.8352
vn 0.1806 0.9829 -0.0348
vn -0.9806 0.1716 -0.0953
vn 0.9927 -0.1008 0.0654
vn -0.2103 -0.9752 0.0691
vn -0.7886 0.1355 0.5998
vn 0.0741 0.9792 0.1891
vn -0.8390 0.1538 -0.5220
vn 0.5993 -0.1534 0.7857
vn -0.1420 -0.9864 0.0831
vn -0.9350 0.1073 0.3381
vn 0.0538 0.9897 -0.1329
vn -0.6135 0.1163 -0.7811
vn 0.3895 0.1141 0.9139
vn -0.1017 -0.9926 0.0671
vn -0.9912 0.0930 0.0945
vn -0.1567 0.9862 -0.0536
vn -0.2464 0.1055 -0.9634
vn 0.0926 0.0669 0.9935
vn -0.0215 -0.9998 -0.0027
vn -0.9200 -0.0531 -0.3882
vn -0.1414 0.9880 0.0622
vn 0.1852 0.0358 -0.9820
vn -0.2966 0.0936 0.9504
vn -0.0680 -0.9853 -0.1568
vn -0.7692 0.2188 -0.6003
vn -0.0210 0.9979 0.0609
vn 0.5097 0.1725 -0.8429
vn -0.6556 0.0360 0.7543
vn -0.3369 -0.8481 -0.4090
vn -0.3019 0.5810 -0.7558
vn 0.1288 0.8918 0.4337
vn 0.6199 0.3755 -0.6890
vn -0.8574 -0.0056 0.5147
vn -0.2343 -0.5794 -0.7807
vn 0.8540 0.4284 0.2954
vn 0.2012 0.7617 0.6159
vn 0.7953 -0.6052 0.0356
vn -0.9624 0.2668 0.0506
vn 0.0087 0.9998 0.0163
s off
f 1/1/1 4/2/1 3/3/1
f 4/4/2 7/5/2 3/6/2
f 7/5/3 6/7/3 5/8/3
f 5/8/4 2/9/4 1/10/4
f 3/11/5 5/12/5 1/13/5
f 8/14/6 2/15/6 6/16/6
f 10/17/7 11/18/7 9/19/7
f 12/20/8 14/21/8 11/22/8
f 15/23/9 16/24/9 14/21/9
f 16/24/10 10/25/10 9/26/10
f 11/27/11 16/28/11 9/29/11
f 12/30/12 13/31/12 15/32/12
f 16/33/13 18/34/13 14/35/13
f 14/36/14 21/37/14 19/38/14
f 21/37/15 16/24/15 19/38/15
f 16/24/16 20/39/16 17/40/16
f 14/41/17 19/42/17 16/43/17
f 18/44/18 20/45/18 21/46/18
f 21/47/19 22/48/19 19/49/19
f 22/48/20 25/50/20 24/51/20
f 24/51/21 20/52/21 16/53/21
f 22/54/22 16/43/22 19/55/22
f 21/56/23 25/57/23 23/58/23
f 22/59/24 29/60/24 26/61/24
f 29/60/25 27/62/25 26/61/25
f 27/62/26 25/63/26 24/64/26
f 26/65/27 24/66/27 22/67/27
f 29/68/28 25/69/28 28/70/28
f 29/71/29 30/72/29 26/73/29
f 33/74/30 31/75/30 30/72/30
f 31/75/31 28/76/31 27/77/31
f 30/78/32 27/79/32 26/80/32
f 29/81/33 32/82/33 33/83/33
f 30/84/34 37/85/34 36/86/34
f 37/85/35 34/87/35 36/86/35
f 35/88/36 31/89/36 34/87/36
f 36/90/37 31/91/37 30/92/37
f 33/93/38 35/94/38 37/95/38
f 37/96/39 39/97/39 36/98/39
f 39/97/40 41/99/40 38/100/40
f 41/99/41 34/101/41 38/100/41
f 36/102/42 38/103/42 34/104/42
f 37/105/43 41/106/43 40/107/43
f 40/108/44 43/109/44 39/110/44
f 44/111/45 45/112/45 43/109/45
f 45/112/46 41/113/46 38/114/46
f 39/115/47 45/116/47 38/117/47
f 44/118/48 41/119/48 42/120/48
f 43/121/49 47/122/49 46/123/49
f 46/123/50 49/124/50 48/125/50
f 49/124/51 45/126/51 48/125/51
f 43/127/52 48/128/52 45/129/52
f 44/130/53 49/131/53 47/132/53
f 46/133/54 50/134/54 53/135/54
f 53/135/55 52/136/55 51/137/55
f 52/136/56 48/138/56 51/137/56
f 53/139/57 48/140/57 46/141/57
f 47/142/58 52/143/58 50/144/58
f 53/145/59 56/146/59 55/147/59
f 55/147/60 57/148/60 54/149/60
f 57/148/61 51/150/61 54/149/61
f 55/151/62 51/152/62 53/153/62
f 56/154/63 52/155/63 57/156/63
f 55/157/64 59/158/64 58/159/64
f 59/158/65 60/160/65 58/159/65
f 60/160/66 57/161/66 54/162/66
f 58/163/67 54/164/67 55/165/67
f 59/166/68 57/167/68 61/168/68
f 59/169/69 63/170/69 58/171/69
f 63/170/70 62/172/70 64/173/70
f 62/172/71 60/174/71 64/173/71
f 63/175/72 60/176/72 58/177/72
f 59/178/73 62/179/73 65/180/73
f 63/181/74 62/182/74 65/183/74
f 64/173/75 62/184/75 63/185/75
f 63/186/76 65/187/76 64/188/76
f 1/1/77 2/189/77 4/2/77
f 4/4/78 8/190/78 7/5/78
f 7/5/79 8/190/79 6/7/79
f 5/8/80 6/7/80 2/9/80
f 3/11/81 7/191/81 5/12/81
f 8/14/82 4/192/82 2/15/82
f 10/17/83 12/193/83 11/18/83
f 12/20/84 15/23/84 14/21/84
f 15/23/85 13/194/85 16/24/85
f 16/24/86 13/194/86 10/25/86
f 11/27/87 14/195/87 16/28/87
f 12/30/88 10/196/88 13/31/88
f 16/33/89 17/197/89 18/34/89
f 14/36/90 18/198/90 21/37/90
f 21/37/91 20/39/91 16/24/91
f 18/44/92 17/199/92 20/45/92
f 21/47/93 23/200/93 22/48/93
f 22/48/94 23/200/94 25/50/94
f 24/51/95 25/50/95 20/52/95
f 22/54/96 24/201/96 16/43/96
f 21/56/97 20/202/97 25/57/97
f 22/59/98 23/203/98 29/60/98
f 29/60/99 28/204/99 27/62/99
f 27/62/100 28/204/100 25/63/100
f 26/65/101 27/205/101 24/66/101
f 29/68/102 23/206/102 25/69/102
f 29/71/103 33/74/103 30/72/103
f 33/74/104 32/207/104 31/75/104
f 31/75/105 32/207/105 28/76/105
f 30/78/106 31/208/106 27/79/106
f 29/81/107 28/209/107 32/82/107
f 30/84/108 33/210/108 37/85/108
f 37/85/109 35/88/109 34/87/109
f 35/88/110 32/211/110 31/89/110
f 36/90/111 34/212/111 31/91/111
f 33/93/112 32/213/112 35/94/112
f 37/96/113 40/214/113 39/97/113
f 39/97/114 40/214/114 41/99/114
f 41/99/115 35/215/115 34/101/115
f 36/102/116 39/216/116 38/103/116
f 37/105/117 35/217/117 41/106/117
f 40/108/118 44/111/118 43/109/118
f 44/111/119 42/218/119 45/112/119
f 45/112/120 42/218/120 41/113/120
f 39/115/121 43/219/121 45/116/121
f 44/118/122 40/220/122 41/119/122
f 43/121/123 44/221/123 47/122/123
f 46/123/124 47/122/124 49/124/124
f 49/124/125 42/222/125 45/126/125
f 43/127/126 46/223/126 48/128/126
f 44/130/127 42/224/127 49/131/127
f 46/133/128 47/225/128 50/134/128
f 53/135/129 50/134/129 52/136/129
f 52/136/130 49/226/130 48/138/130
f 53/139/131 51/227/131 48/140/131
f 47/142/132 49/228/132 52/143/132
f 53/145/133 50/229/133 56/146/133
f 55/147/134 56/146/134 57/148/134
f 57/148/135 52/230/135 51/150/135
f 55/151/136 54/231/136 51/152/136
f 56/154/137 50/232/137 52/155/137
f 55/157/138 56/233/138 59/158/138
f 59/158/139 61/234/139 60/160/139
f 60/160/140 61/234/140 57/161/140
f 58/163/141 60/235/141 54/164/141
f 59/166/142 56/236/142 57/167/142
f 59/169/143 65/237/143 63/170/143
f 63/170/144 65/237/144 62/172/144
f 62/172/145 61/238/145 60/174/145
f 63/175/146 64/188/146 60/176/146
f 59/178/147 61/239/147 62/179/147
f 64/173/148 65/237/148 62/184/148
