# Blender v3.2.1 OBJ File: 'Modeling.blend'
# www.blender.org
o Snake_Cube.014
v 0.412169 0.285837 0.109082
v 0.354187 0.668610 0.070082
v 0.325804 0.298781 0.471779
v 0.281081 0.683186 0.448535
v 0.084489 0.218274 0.015583
v -0.013231 0.590739 -0.028771
v -0.040526 0.228968 0.380350
v -0.134205 0.602990 0.345212
v 0.087858 0.257216 0.043675
v 0.002905 0.573189 0.013588
v -0.031841 0.252158 0.344942
v -0.127601 0.565430 0.320904
v -0.244982 0.421521 -0.148429
v -0.275028 0.116778 0.194388
v -0.468884 0.348685 0.072482
v -0.073337 0.209200 -0.021286
v -0.236754 0.408708 -0.118042
v -0.429737 0.340979 0.067896
v -0.149945 -0.035090 -0.002886
v -0.194781 0.221940 -0.255860
v -0.271371 0.000849 -0.221797
v 0.050546 -0.041888 -0.083659
v 0.032666 -0.046635 -0.309936
v 0.041741 0.178268 -0.100566
v 0.028461 0.166085 -0.300276
v 0.182244 -0.015187 -0.066476
v 0.182716 0.169180 -0.092250
v 0.251544 0.155630 -0.244507
v 0.250015 -0.012287 -0.229817
v 0.271844 0.013570 -0.023077
v 0.295884 0.168380 -0.046723
v 0.412817 0.145397 -0.125855
v 0.400437 0.004949 -0.106560
v 0.299046 0.175149 0.020061
v 0.423293 0.148916 0.085700
v 0.274182 0.034208 0.011048
v 0.399939 0.008101 0.073360
v 0.253787 0.164346 0.103869
v 0.234235 0.046165 0.091429
v 0.320596 0.027875 0.182162
v 0.330243 0.136355 0.176062
v 0.241158 0.145217 0.240477
v 0.178227 0.054074 0.149214
v 0.228903 0.043743 0.236637
v 0.197323 0.147471 0.160742
v 0.121638 0.066258 0.176587
v 0.141595 0.054834 0.258325
v 0.132432 0.145305 0.192573
v 0.150048 0.132550 0.261614
v 0.062496 0.060672 0.243845
v 0.075326 0.138106 0.189669
v 0.061883 0.126272 0.248581
v 0.078754 0.077569 0.179195
v 0.029718 0.146458 0.174093
v 0.029005 0.086769 0.157184
v 0.000455 0.073353 0.208521
v 0.005657 0.127681 0.222259
v -0.001623 0.109783 0.139773
v -0.042818 0.102135 0.167855
v 0.001561 0.153411 0.163622
v -0.033885 0.144749 0.187870
v -0.046465 0.167295 0.146979
v -0.013861 0.133571 0.122119
v -0.001248 0.180164 0.113218
v -0.045166 0.158036 0.094759
vt 0.498068 0.336800
vt 0.263763 0.439310
vt 0.263763 0.336800
vt 0.042571 0.428046
vt 0.220545 0.337551
vt 0.042571 0.337551
vt 0.220545 0.428046
vt 0.220545 0.337551
vt 0.042571 0.428046
vt 0.042571 0.337551
vt 0.042764 0.342091
vt 0.211546 0.427912
vt 0.042764 0.427912
vt 0.212402 0.425764
vt 0.042478 0.339363
vt 0.212402 0.339363
vt 0.498068 0.439310
vt 0.263763 0.336800
vt 0.498068 0.336800
vt 0.042571 0.428046
vt 0.220545 0.337551
vt 0.042571 0.337551
vt 0.220545 0.428046
vt 0.220545 0.337551
vt 0.042571 0.428046
vt 0.042571 0.337551
vt 0.042764 0.342091
vt 0.211546 0.427912
vt 0.042764 0.427912
vt 0.042478 0.425764
vt 0.212402 0.339363
vt 0.212402 0.425764
vt 0.498068 0.336800
vt 0.263763 0.439310
vt 0.263763 0.336800
vt 0.042571 0.337551
vt 0.220545 0.428046
vt 0.220545 0.337551
vt 0.220545 0.428046
vt 0.042571 0.428046
vt 0.042764 0.342091
vt 0.211546 0.342091
vt 0.042764 0.427912
vt 0.042478 0.425764
vt 0.212402 0.339363
vt 0.212402 0.425764
vt 0.042571 0.428046
vt 0.220545 0.337551
vt 0.042571 0.337551
vt 0.220545 0.428046
vt 0.220545 0.337551
vt 0.042571 0.428046
vt 0.042571 0.337551
vt 0.211546 0.342091
vt 0.042764 0.342091
vt 0.042478 0.425764
vt 0.212402 0.339363
vt 0.212402 0.425764
vt 0.042571 0.337551
vt 0.220545 0.428046
vt 0.220545 0.337551
vt 0.220545 0.337551
vt 0.042571 0.428046
vt 0.042571 0.337551
vt 0.211546 0.342091
vt 0.042764 0.427912
vt 0.042764 0.342091
vt 0.212402 0.425764
vt 0.042478 0.339363
vt 0.212402 0.339363
vt 0.042571 0.428046
vt 0.220545 0.337551
vt 0.042571 0.337551
vt 0.220545 0.428046
vt 0.220545 0.337551
vt 0.042571 0.428046
vt 0.042571 0.337551
vt 0.211546 0.342091
vt 0.042764 0.427912
vt 0.042764 0.342091
vt 0.042478 0.425764
vt 0.212402 0.339363
vt 0.212402 0.425764
vt 0.042571 0.337551
vt 0.220545 0.428046
vt 0.220545 0.337551
vt 0.220545 0.337551
vt 0.220545 0.428046
vt 0.042571 0.337551
vt 0.211546 0.342091
vt 0.042764 0.427912
vt 0.042764 0.342091
vt 0.042478 0.425764
vt 0.212402 0.339363
vt 0.212402 0.425764
vt 0.042571 0.428046
vt 0.220545 0.337551
vt 0.042571 0.337551
vt 0.220545 0.428046
vt 0.220545 0.337551
vt 0.042571 0.337551
vt 0.211546 0.342091
vt 0.042764 0.427912
vt 0.042764 0.342091
vt 0.042478 0.425764
vt 0.212402 0.339363
vt 0.212402 0.425764
vt 0.042571 0.428046
vt 0.220545 0.337551
vt 0.042571 0.337551
vt 0.220545 0.428046
vt 0.220545 0.337551
vt 0.042571 0.428046
vt 0.042571 0.337551
vt 0.042764 0.342091
vt 0.211546 0.427912
vt 0.042764 0.427912
vt 0.212402 0.425764
vt 0.042478 0.339363
vt 0.212402 0.339363
vt 0.042571 0.337551
vt 0.220545 0.428046
vt 0.220545 0.337551
vt 0.220545 0.428046
vt 0.220545 0.337551
vt 0.042571 0.337551
vt 0.042764 0.342091
vt 0.211546 0.427912
vt 0.042764 0.427912
vt 0.042478 0.425764
vt 0.212402 0.339363
vt 0.212402 0.425764
vt 0.042571 0.337551
vt 0.220545 0.428046
vt 0.220545 0.337551
vt 0.220545 0.428046
vt 0.220545 0.337551
vt 0.042571 0.337551
vt 0.211546 0.342091
vt 0.042764 0.427912
vt 0.042764 0.342091
vt 0.042478 0.425764
vt 0.212402 0.339363
vt 0.212402 0.425764
vt 0.042571 0.337551
vt 0.220545 0.428046
vt 0.220545 0.337551
vt 0.220545 0.428046
vt 0.220545 0.337551
vt 0.042571 0.337551
vt 0.211546 0.342091
vt 0.042764 0.427912
vt 0.042764 0.342091
vt 0.042478 0.425764
vt 0.212402 0.339363
vt 0.212402 0.425764
vt 0.042571 0.337551
vt 0.220545 0.428046
vt 0.220545 0.337551
vt 0.220545 0.428046
vt 0.220545 0.337551
vt 0.042571 0.428046
vt 0.042571 0.337551
vt 0.211546 0.342091
vt 0.042764 0.427912
vt 0.042764 0.342091
vt 0.212402 0.425764
vt 0.042478 0.339363
vt 0.212402 0.339363
vt 0.042571 0.428046
vt 0.220545 0.337551
vt 0.042571 0.337551
vt 0.220545 0.428046
vt 0.220545 0.337551
vt 0.042571 0.337551
vt 0.211546 0.342091
vt 0.042764 0.427912
vt 0.042764 0.342091
vt 0.042478 0.425764
vt 0.212402 0.339363
vt 0.212402 0.425764
vt 0.498068 0.336800
vt 0.498068 0.439310
vt 0.263763 0.439310
vt 0.042571 0.428046
vt 0.042571 0.337551
vt 0.042764 0.342091
vt 0.211546 0.342091
vt 0.211546 0.427912
vt 0.498068 0.439310
vt 0.220545 0.428046
vt 0.211546 0.342091
vt 0.042478 0.425764
vt 0.263763 0.439310
vt 0.220545 0.428046
vt 0.211546 0.342091
vt 0.042478 0.339363
vt 0.498068 0.439310
vt 0.042571 0.428046
vt 0.042478 0.339363
vt 0.220545 0.428046
vt 0.211546 0.427912
vt 0.042478 0.339363
vt 0.042571 0.428046
vt 0.220545 0.428046
vt 0.211546 0.427912
vt 0.042478 0.425764
vt 0.220545 0.428046
vt 0.211546 0.427912
vt 0.042478 0.339363
vt 0.042571 0.428046
vt 0.042571 0.428046
vt 0.211546 0.427912
vt 0.042478 0.339363
vt 0.220545 0.428046
vt 0.042571 0.428046
vt 0.211546 0.427912
vt 0.042478 0.339363
vt 0.220545 0.428046
vt 0.211546 0.342091
vt 0.042478 0.425764
vt 0.042571 0.428046
vt 0.042571 0.428046
vt 0.211546 0.342091
vt 0.042478 0.339363
vt 0.042571 0.428046
vt 0.042571 0.428046
vt 0.211546 0.427912
vt 0.042478 0.339363
vt 0.042571 0.428046
vt 0.042571 0.428046
vt 0.211546 0.427912
vt 0.042478 0.339363
vt 0.042571 0.428046
vt 0.211546 0.427912
vt 0.042478 0.425764
vt 0.220545 0.428046
vt 0.042571 0.428046
vt 0.042478 0.339363
vn 0.9660 0.1260 0.2255
vn -0.2474 0.0298 0.9685
vn -0.9118 -0.2755 -0.3044
vn 0.2843 -0.0545 -0.9572
vn 0.1800 -0.9806 0.0778
vn -0.1829 0.9789 -0.0912
vn 0.8922 0.2741 0.3591
vn -0.4906 -0.0834 0.8674
vn -0.3857 -0.6608 -0.6439
vn 0.3709 0.0113 -0.9286
vn 0.2531 -0.9638 0.0844
vn -0.4440 0.8817 -0.1593
vn 0.4011 0.6442 0.6512
vn -0.6042 -0.7690 0.2089
vn 0.8148 -0.2932 -0.5001
vn 0.7964 0.4646 -0.3871
vn 0.7564 -0.1901 0.6259
vn -0.7667 0.1702 -0.6190
vn -0.0809 -0.9898 -0.1176
vn 0.9971 0.0346 -0.0684
vn 0.2198 0.9737 -0.0609
vn 0.3719 -0.0468 0.9271
vn -0.2727 0.0383 -0.9613
vn 0.1906 -0.9797 0.0617
vn 0.9221 0.0513 0.3835
vn 0.0680 0.9955 -0.0653
vn -0.1430 0.0701 0.9872
vn 0.2378 -0.0868 -0.9674
vn 0.2635 -0.9602 0.0923
vn 0.5460 0.0430 0.8367
vn 0.0362 0.9967 -0.0724
vn -0.4645 0.1238 0.8769
vn 0.6366 -0.1598 -0.7545
vn -0.4044 -0.7701 0.4934
vn -0.4405 0.0203 0.8975
vn 0.2604 0.9593 -0.1096
vn -0.9884 0.1500 -0.0230
vn 0.9864 -0.1641 0.0056
vn -0.2200 -0.9748 0.0357
vn -0.6793 0.0352 0.7330
vn 0.1563 0.9654 0.2088
vn -0.8693 0.1827 -0.4592
vn 0.8041 -0.0381 0.5933
vn -0.1734 -0.9843 -0.0334
vn -0.8539 0.1119 0.5082
vn 0.0419 0.9457 0.3223
vn -0.7243 0.1896 -0.6629
vn 0.5764 -0.1003 0.8110
vn -0.2446 -0.9667 -0.0754
vn -0.9624 0.0788 0.2601
vn 0.0501 0.9843 0.1691
vn -0.4370 0.1977 -0.8775
vn 0.2326 -0.0664 0.9703
vn -0.2602 -0.9162 -0.3049
vn -0.9741 -0.0161 -0.2255
vn -0.1317 0.9773 0.1663
vn -0.0071 0.1991 -0.9799
vn -0.1848 -0.0725 0.9801
vn -0.0533 -0.9585 -0.2801
vn -0.9062 0.1252 -0.4039
vn 0.0395 0.9241 0.3800
vn 0.4255 0.1776 -0.8874
vn -0.5132 -0.1639 0.8425
vn -0.2519 -0.7744 -0.5804
vn -0.5798 0.4230 -0.6964
vn 0.0787 0.9149 0.3960
vn 0.5984 0.2118 -0.7727
vn -0.6891 -0.1846 0.7007
vn -0.3316 -0.6663 -0.6679
vn -0.6000 0.0096 -0.7999
vn 0.0945 0.8815 0.4626
vn 0.8985 0.1583 -0.4095
vn -0.9981 -0.0604 -0.0141
vn -0.6713 -0.7325 0.1132
vn 0.6000 -0.0096 0.7999
vn 0.4913 -0.2899 -0.8213
vn 0.9695 0.1653 0.1809
vn -0.2466 0.0292 0.9687
vn -0.9217 -0.2581 -0.2897
vn 0.2683 -0.0442 -0.9623
vn 0.1658 -0.9824 0.0856
vn -0.1721 0.9825 -0.0711
vn 0.8762 0.2970 0.3796
vn -0.5693 -0.0444 0.8209
vn -0.3877 -0.6837 -0.6183
vn 0.5633 -0.0389 -0.8254
vn 0.4611 -0.8858 0.0517
vn -0.4355 0.8854 -0.1626
vn 0.4012 0.6443 0.6511
vn -0.8495 -0.5102 0.1347
vn 0.8227 -0.3536 -0.4451
vn -0.7141 0.3046 -0.6303
vn -0.1451 -0.9889 0.0322
vn 0.9966 0.0233 -0.0792
vn 0.2281 0.9708 -0.0744
vn 0.5807 0.0854 0.8096
vn -0.2129 -0.0763 -0.9741
vn 0.1530 -0.9882 0.0086
vn 0.9118 0.0275 0.4097
vn 0.0619 0.9962 -0.0607
vn -0.0494 0.1384 0.9891
vn 0.3386 0.0494 -0.9396
vn 0.0131 -0.9924 0.1227
vn 0.5678 0.0627 0.8208
vn 0.1311 0.9870 -0.0930
vn -0.3648 0.1957 0.9103
vn 0.5878 -0.0758 -0.8055
vn -0.0557 -0.9983 0.0173
vn -0.4671 -0.0000 0.8842
vn 0.1764 0.9840 -0.0251
vn -0.9847 0.1718 0.0292
vn 0.9944 -0.0942 -0.0477
vn -0.2223 -0.9749 0.0151
vn -0.7102 0.1023 0.6966
vn 0.0866 0.9707 0.2241
vn -0.8737 0.1916 -0.4471
vn 0.6979 -0.1766 0.6941
vn -0.1780 -0.9839 -0.0131
vn -0.8719 0.0871 0.4818
vn 0.0855 0.9962 -0.0188
vn -0.6840 0.2255 -0.6938
vn 0.5111 0.0029 0.8595
vn -0.1353 -0.9900 -0.0385
vn -0.9640 0.0943 0.2486
vn -0.1162 0.9890 0.0918
vn -0.3823 0.2330 -0.8942
vn 0.2341 -0.0650 0.9700
vn -0.0500 -0.9907 -0.1263
vn -0.9703 0.0084 -0.2418
vn -0.0997 0.9736 0.2053
vn 0.0284 0.1720 -0.9847
vn -0.1444 -0.0262 0.9892
vn -0.0468 -0.9635 -0.2636
vn -0.8780 0.1947 -0.4374
vn -0.0611 0.9812 0.1831
vn 0.3537 0.2510 -0.9010
vn -0.4244 -0.0691 0.9028
vn -0.2467 -0.8952 -0.3711
vn -0.5593 0.4456 -0.6991
vn 0.0488 0.9159 0.3985
vn 0.4054 0.4155 -0.8142
vn -0.7173 -0.1055 0.6887
vn -0.0922 -0.7924 -0.6030
vn 0.6713 0.7325 -0.1132
vn 0.0970 0.8839 0.4575
vn 0.9336 -0.2923 -0.2072
vn -0.9467 0.0490 0.3183
vn -0.3853 0.9069 -0.1704
s off
f 1/1/1 4/2/1 3/3/1
f 4/4/2 7/5/2 3/6/2
f 7/5/3 6/7/3 5/8/3
f 5/8/4 2/9/4 1/10/4
f 3/11/5 5/12/5 1/13/5
f 8/14/6 2/15/6 6/16/6
f 10/17/7 11/18/7 9/19/7
f 12/20/8 14/21/8 11/22/8
f 15/23/9 16/24/9 14/21/9
f 16/24/10 10/25/10 9/26/10
f 11/27/11 16/28/11 9/29/11
f 12/30/12 13/31/12 15/32/12
f 16/33/13 18/34/13 14/35/13
f 14/36/14 21/37/14 19/38/14
f 21/37/15 16/24/15 19/38/15
f 16/24/16 20/39/16 17/40/16
f 14/41/17 19/42/17 16/43/17
f 18/44/18 20/45/18 21/46/18
f 21/47/19 22/48/19 19/49/19
f 22/48/20 25/50/20 24/51/20
f 24/51/21 20/52/21 16/53/21
f 22/54/22 16/43/22 19/55/22
f 21/56/23 25/57/23 23/58/23
f 22/59/24 29/60/24 26/61/24
f 29/60/25 27/62/25 26/61/25
f 27/62/26 25/63/26 24/64/26
f 26/65/27 24/66/27 22/67/27
f 29/68/28 25/69/28 28/70/28
f 29/71/29 30/72/29 26/73/29
f 33/74/30 31/75/30 30/72/30
f 31/75/31 28/76/31 27/77/31
f 30/78/32 27/79/32 26/80/32
f 29/81/33 32/82/33 33/83/33
f 30/84/34 37/85/34 36/86/34
f 37/85/35 34/87/35 36/86/35
f 35/88/36 31/89/36 34/87/36
f 36/90/37 31/91/37 30/92/37
f 33/93/38 35/94/38 37/95/38
f 37/96/39 39/97/39 36/98/39
f 39/97/40 41/99/40 38/100/40
f 41/99/41 34/101/41 38/100/41
f 39/102/42 34/103/42 36/104/42
f 37/105/43 41/106/43 40/107/43
f 40/108/44 43/109/44 39/110/44
f 44/111/45 45/112/45 43/109/45
f 45/112/46 41/113/46 38/114/46
f 39/115/47 45/116/47 38/117/47
f 44/118/48 41/119/48 42/120/48
f 43/121/49 47/122/49 46/123/49
f 46/123/50 49/124/50 48/125/50
f 49/124/51 45/126/51 48/125/51
f 43/127/52 48/128/52 45/129/52
f 44/130/53 49/131/53 47/132/53
f 46/133/54 50/134/54 53/135/54
f 53/135/55 52/136/55 51/137/55
f 52/136/56 48/138/56 51/137/56
f 53/139/57 48/140/57 46/141/57
f 47/142/58 52/143/58 50/144/58
f 53/145/59 56/146/59 55/147/59
f 55/147/60 57/148/60 54/149/60
f 57/148/61 51/150/61 54/149/61
f 55/151/62 51/152/62 53/153/62
f 50/154/63 57/155/63 56/156/63
f 55/157/64 59/158/64 58/159/64
f 58/159/65 61/160/65 60/161/65
f 60/161/66 57/162/66 54/163/66
f 58/164/67 54/165/67 55/166/67
f 59/167/68 57/168/68 61/169/68
f 59/170/69 63/171/69 58/172/69
f 63/171/70 62/173/70 64/174/70
f 62/173/71 60/175/71 64/174/71
f 63/176/72 60/177/72 58/178/72
f 59/179/73 62/180/73 65/181/73
f 63/182/74 62/183/74 65/184/74
f 64/174/75 62/185/75 63/186/75
f 63/187/76 65/188/76 64/189/76
f 1/1/77 2/190/77 4/2/77
f 4/4/78 8/191/78 7/5/78
f 7/5/79 8/191/79 6/7/79
f 5/8/80 6/7/80 2/9/80
f 3/11/81 7/192/81 5/12/81
f 8/14/82 4/193/82 2/15/82
f 10/17/83 12/194/83 11/18/83
f 12/20/84 15/23/84 14/21/84
f 15/23/85 13/195/85 16/24/85
f 16/24/86 13/195/86 10/25/86
f 11/27/87 14/196/87 16/28/87
f 12/30/88 10/197/88 13/31/88
f 16/33/89 17/198/89 18/34/89
f 14/36/90 18/199/90 21/37/90
f 21/37/91 20/39/91 16/24/91
f 18/44/92 17/200/92 20/45/92
f 21/47/93 23/201/93 22/48/93
f 22/48/94 23/201/94 25/50/94
f 24/51/95 25/50/95 20/52/95
f 22/54/96 24/202/96 16/43/96
f 21/56/97 20/203/97 25/57/97
f 22/59/98 23/204/98 29/60/98
f 29/60/99 28/205/99 27/62/99
f 27/62/100 28/205/100 25/63/100
f 26/65/101 27/206/101 24/66/101
f 29/68/102 23/207/102 25/69/102
f 29/71/103 33/74/103 30/72/103
f 33/74/104 32/208/104 31/75/104
f 31/75/105 32/208/105 28/76/105
f 30/78/106 31/209/106 27/79/106
f 29/81/107 28/210/107 32/82/107
f 30/84/108 33/211/108 37/85/108
f 37/85/109 35/88/109 34/87/109
f 35/88/110 32/212/110 31/89/110
f 36/90/111 34/213/111 31/91/111
f 33/93/112 32/214/112 35/94/112
f 37/96/113 40/215/113 39/97/113
f 39/97/114 40/215/114 41/99/114
f 41/99/115 35/216/115 34/101/115
f 39/102/116 38/217/116 34/103/116
f 37/105/117 35/218/117 41/106/117
f 40/108/118 44/111/118 43/109/118
f 44/111/119 42/219/119 45/112/119
f 45/112/120 42/219/120 41/113/120
f 39/115/121 43/220/121 45/116/121
f 44/118/122 40/221/122 41/119/122
f 43/121/123 44/222/123 47/122/123
f 46/123/124 47/122/124 49/124/124
f 49/124/125 42/223/125 45/126/125
f 43/127/126 46/224/126 48/128/126
f 44/130/127 42/225/127 49/131/127
f 46/133/128 47/226/128 50/134/128
f 53/135/129 50/134/129 52/136/129
f 52/136/130 49/227/130 48/138/130
f 53/139/131 51/228/131 48/140/131
f 47/142/132 49/229/132 52/143/132
f 53/145/133 50/230/133 56/146/133
f 55/147/134 56/146/134 57/148/134
f 57/148/135 52/231/135 51/150/135
f 55/151/136 54/232/136 51/152/136
f 50/154/137 52/233/137 57/155/137
f 55/157/138 56/234/138 59/158/138
f 58/159/139 59/158/139 61/160/139
f 60/161/140 61/160/140 57/162/140
f 58/164/141 60/235/141 54/165/141
f 59/167/142 56/236/142 57/168/142
f 59/170/143 65/237/143 63/171/143
f 63/171/144 65/237/144 62/173/144
f 62/173/145 61/238/145 60/175/145
f 63/176/146 64/189/146 60/177/146
f 59/179/147 61/239/147 62/180/147
f 64/174/148 65/237/148 62/185/148
