# Blender v3.2.1 OBJ File: 'Modeling.blend'
# www.blender.org
o Snake_Cube.014
v 0.396922 0.282684 0.091683
v 0.351206 0.666959 0.065096
v 0.327840 0.299030 0.470543
v 0.284381 0.683546 0.446369
v 0.060369 0.220355 0.024236
v -0.034883 0.594385 -0.011895
v -0.033806 0.232683 0.399820
v -0.127404 0.607215 0.365355
v 0.058819 0.259989 0.050058
v -0.022714 0.577333 0.031432
v -0.023887 0.256875 0.366051
v -0.112433 0.573809 0.350020
v -0.301736 0.426861 -0.094974
v -0.277494 0.127031 0.256734
v -0.489209 0.360896 0.164456
v -0.121135 0.213007 0.003691
v -0.299354 0.413961 -0.060811
v -0.451105 0.352222 0.161872
v -0.196161 -0.029996 0.039271
v -0.293369 0.224976 -0.201094
v -0.364274 0.005568 -0.146179
v -0.019771 -0.045531 -0.096545
v -0.097701 -0.048863 -0.309851
v -0.027699 0.175139 -0.109648
v -0.092865 0.163979 -0.300082
v 0.114365 -0.020187 -0.112937
v 0.106676 0.164526 -0.140850
v 0.134354 0.148611 -0.305661
v 0.138050 -0.018921 -0.288009
v 0.212553 0.005350 -0.094864
v 0.228197 0.160767 -0.120624
v 0.320552 0.141206 -0.229329
v 0.312047 0.000066 -0.213346
v 0.256919 0.164337 -0.053186
v 0.399365 0.140251 -0.044932
v 0.231409 0.023665 -0.057105
v 0.376066 -0.000472 -0.050168
v 0.254564 0.153464 0.045510
v 0.229195 0.035786 0.035855
v 0.343833 0.009581 0.075394
v 0.359627 0.117578 0.075993
v 0.314115 0.118415 0.177628
v 0.205936 0.045163 0.116395
v 0.291188 0.019467 0.166174
v 0.236989 0.135314 0.129987
v 0.171666 0.054099 0.169554
v 0.227211 0.028590 0.228676
v 0.195675 0.129085 0.189876
v 0.242905 0.104571 0.238972
v 0.152319 0.036607 0.255074
v 0.143608 0.123300 0.215873
v 0.159911 0.100215 0.270658
v 0.136106 0.065835 0.194854
v 0.089234 0.126159 0.226310
v 0.085231 0.068862 0.203275
v 0.088546 0.045332 0.259276
v 0.094908 0.098265 0.276503
v 0.050171 0.077176 0.208111
v 0.035705 0.055877 0.252447
v 0.048337 0.119812 0.231718
v 0.037026 0.099985 0.269715
v -0.006173 0.103553 0.244338
v 0.022279 0.087167 0.202606
v -0.006132 0.125552 0.192359
v -0.023757 0.076064 0.199660
vt 0.498068 0.336800
vt 0.263763 0.439310
vt 0.263763 0.336800
vt 0.042571 0.428046
vt 0.220545 0.337551
vt 0.042571 0.337551
vt 0.220545 0.428046
vt 0.220545 0.337551
vt 0.042571 0.428046
vt 0.042571 0.337551
vt 0.042764 0.342091
vt 0.211546 0.427912
vt 0.042764 0.427912
vt 0.042478 0.425764
vt 0.212402 0.339363
vt 0.212402 0.425764
vt 0.498068 0.439310
vt 0.263763 0.336800
vt 0.498068 0.336800
vt 0.042571 0.428046
vt 0.220545 0.337551
vt 0.042571 0.337551
vt 0.220545 0.428046
vt 0.220545 0.337551
vt 0.042571 0.428046
vt 0.042571 0.337551
vt 0.042764 0.342091
vt 0.211546 0.427912
vt 0.042764 0.427912
vt 0.042478 0.425764
vt 0.212402 0.339363
vt 0.212402 0.425764
vt 0.498068 0.336800
vt 0.263763 0.439310
vt 0.263763 0.336800
vt 0.042571 0.337551
vt 0.220545 0.428046
vt 0.220545 0.337551
vt 0.220545 0.428046
vt 0.042571 0.428046
vt 0.042764 0.342091
vt 0.211546 0.342091
vt 0.042764 0.427912
vt 0.042478 0.425764
vt 0.212402 0.339363
vt 0.212402 0.425764
vt 0.042571 0.428046
vt 0.220545 0.337551
vt 0.042571 0.337551
vt 0.220545 0.428046
vt 0.220545 0.337551
vt 0.042571 0.428046
vt 0.042571 0.337551
vt 0.211546 0.342091
vt 0.042764 0.342091
vt 0.042478 0.425764
vt 0.212402 0.339363
vt 0.212402 0.425764
vt 0.042571 0.337551
vt 0.220545 0.428046
vt 0.220545 0.337551
vt 0.220545 0.337551
vt 0.042571 0.428046
vt 0.042571 0.337551
vt 0.211546 0.342091
vt 0.042764 0.427912
vt 0.042764 0.342091
vt 0.212402 0.425764
vt 0.042478 0.339363
vt 0.212402 0.339363
vt 0.042571 0.428046
vt 0.220545 0.337551
vt 0.042571 0.337551
vt 0.220545 0.428046
vt 0.220545 0.337551
vt 0.042571 0.428046
vt 0.042571 0.337551
vt 0.211546 0.342091
vt 0.042764 0.427912
vt 0.042764 0.342091
vt 0.212402 0.425764
vt 0.042478 0.339363
vt 0.212402 0.339363
vt 0.042571 0.337551
vt 0.220545 0.428046
vt 0.220545 0.337551
vt 0.220545 0.337551
vt 0.220545 0.428046
vt 0.042571 0.337551
vt 0.211546 0.342091
vt 0.042764 0.427912
vt 0.042764 0.342091
vt 0.212402 0.425764
vt 0.042478 0.339363
vt 0.212402 0.339363
vt 0.042571 0.428046
vt 0.220545 0.337551
vt 0.042571 0.337551
vt 0.220545 0.428046
vt 0.220545 0.337551
vt 0.042571 0.428046
vt 0.042571 0.337551
vt 0.211546 0.342091
vt 0.042764 0.427912
vt 0.042764 0.342091
vt 0.042478 0.425764
vt 0.212402 0.339363
vt 0.212402 0.425764
vt 0.042571 0.428046
vt 0.220545 0.337551
vt 0.042571 0.337551
vt 0.220545 0.428046
vt 0.220545 0.337551
vt 0.042571 0.428046
vt 0.042571 0.337551
vt 0.042764 0.342091
vt 0.211546 0.427912
vt 0.042764 0.427912
vt 0.212402 0.425764
vt 0.042478 0.339363
vt 0.212402 0.339363
vt 0.042571 0.337551
vt 0.220545 0.428046
vt 0.220545 0.337551
vt 0.220545 0.428046
vt 0.220545 0.337551
vt 0.042571 0.337551
vt 0.211546 0.342091
vt 0.042764 0.427912
vt 0.042764 0.342091
vt 0.042478 0.425764
vt 0.212402 0.339363
vt 0.212402 0.425764
vt 0.042571 0.337551
vt 0.220545 0.428046
vt 0.220545 0.337551
vt 0.220545 0.428046
vt 0.220545 0.337551
vt 0.042571 0.337551
vt 0.211546 0.342091
vt 0.042764 0.427912
vt 0.042764 0.342091
vt 0.042478 0.425764
vt 0.212402 0.339363
vt 0.212402 0.425764
vt 0.042571 0.337551
vt 0.220545 0.428046
vt 0.220545 0.337551
vt 0.220545 0.428046
vt 0.220545 0.337551
vt 0.042571 0.337551
vt 0.211546 0.342091
vt 0.042764 0.427912
vt 0.042764 0.342091
vt 0.042478 0.425764
vt 0.212402 0.339363
vt 0.212402 0.425764
vt 0.042571 0.428046
vt 0.220545 0.337551
vt 0.042571 0.337551
vt 0.220545 0.428046
vt 0.220545 0.337551
vt 0.042571 0.428046
vt 0.042571 0.337551
vt 0.211546 0.342091
vt 0.042764 0.427912
vt 0.042764 0.342091
vt 0.042478 0.425764
vt 0.212402 0.339363
vt 0.212402 0.425764
vt 0.042571 0.428046
vt 0.220545 0.337551
vt 0.042571 0.337551
vt 0.220545 0.428046
vt 0.220545 0.337551
vt 0.042571 0.337551
vt 0.211546 0.342091
vt 0.042764 0.427912
vt 0.042764 0.342091
vt 0.042478 0.425764
vt 0.212402 0.339363
vt 0.212402 0.425764
vt 0.498068 0.336800
vt 0.498068 0.439310
vt 0.263763 0.439310
vt 0.042571 0.428046
vt 0.042571 0.337551
vt 0.042764 0.342091
vt 0.211546 0.342091
vt 0.211546 0.427912
vt 0.498068 0.439310
vt 0.220545 0.428046
vt 0.211546 0.342091
vt 0.042478 0.339363
vt 0.263763 0.439310
vt 0.220545 0.428046
vt 0.211546 0.342091
vt 0.042478 0.339363
vt 0.498068 0.439310
vt 0.042571 0.428046
vt 0.042478 0.339363
vt 0.220545 0.428046
vt 0.211546 0.427912
vt 0.042478 0.339363
vt 0.042571 0.428046
vt 0.220545 0.428046
vt 0.211546 0.427912
vt 0.042478 0.425764
vt 0.220545 0.428046
vt 0.211546 0.427912
vt 0.042478 0.425764
vt 0.042571 0.428046
vt 0.042571 0.428046
vt 0.211546 0.427912
vt 0.042478 0.425764
vt 0.220545 0.428046
vt 0.211546 0.427912
vt 0.042478 0.339363
vt 0.220545 0.428046
vt 0.211546 0.342091
vt 0.042478 0.425764
vt 0.042571 0.428046
vt 0.042571 0.428046
vt 0.211546 0.427912
vt 0.042478 0.339363
vt 0.042571 0.428046
vt 0.042571 0.428046
vt 0.211546 0.427912
vt 0.042478 0.339363
vt 0.042571 0.428046
vt 0.042571 0.428046
vt 0.211546 0.427912
vt 0.042478 0.339363
vt 0.220545 0.428046
vt 0.211546 0.427912
vt 0.042478 0.339363
vt 0.220545 0.428046
vt 0.042571 0.428046
vt 0.042478 0.339363
vn 0.9774 0.1213 0.1730
vn -0.1987 0.0391 0.9793
vn -0.9384 -0.2609 -0.2267
vn 0.2040 -0.0434 -0.9780
vn 0.1675 -0.9832 0.0730
vn -0.1676 0.9830 -0.0745
vn 0.9349 0.2547 0.2472
vn -0.3706 -0.0566 0.9271
vn -0.5062 -0.6717 -0.5410
vn 0.2478 0.0068 -0.9688
vn 0.2394 -0.9695 0.0531
vn -0.4514 0.8866 -0.1008
vn 0.5343 0.6430 0.5486
vn -0.5447 -0.7633 0.3474
vn 0.6752 -0.3067 -0.6709
vn 0.6998 0.4399 -0.5628
vn 0.8625 -0.1981 0.4656
vn -0.8796 0.1734 -0.4430
vn -0.1372 -0.9884 -0.0652
vn 0.9458 0.0147 -0.3245
vn 0.2273 0.9644 -0.1348
vn 0.6047 -0.0705 0.7934
vn -0.5150 0.0510 -0.8557
vn 0.1878 -0.9820 0.0183
vn 0.9890 0.0615 0.1343
vn 0.0603 0.9951 -0.0789
vn 0.1094 0.0628 0.9920
vn -0.0315 -0.1054 -0.9939
vn 0.2471 -0.9686 0.0264
vn 0.7661 0.0293 0.6420
vn 0.0455 0.9950 -0.0884
vn -0.2137 0.1373 0.9672
vn 0.3719 -0.1265 -0.9196
vn -0.1660 -0.8522 0.4962
vn -0.0510 -0.0186 0.9985
vn 0.1725 0.9770 -0.1252
vn -0.9118 0.1548 0.3803
vn 0.9107 -0.1363 -0.3899
vn -0.1691 -0.9778 0.1235
vn -0.2841 -0.0174 0.9586
vn 0.1594 0.9809 0.1119
vn -0.9826 0.1795 -0.0468
vn 0.9561 -0.1413 0.2567
vn -0.2372 -0.9704 0.0445
vn -0.4949 0.0396 0.8680
vn 0.2464 0.9357 0.2523
vn -0.9634 0.2202 -0.1531
vn 0.8828 -0.2506 0.3974
vn -0.3531 -0.9329 -0.0708
vn -0.7108 0.0372 0.7024
vn 0.2252 0.9409 0.2532
vn -0.7614 0.3450 -0.5488
vn 0.6623 -0.2333 0.7120
vn -0.4736 -0.8357 -0.2781
vn -0.9562 0.0180 0.2921
vn 0.0801 0.9269 0.3667
vn -0.4563 0.3659 -0.8111
vn 0.2960 -0.2605 0.9190
vn -0.1173 -0.9180 -0.3788
vn -0.9922 0.0198 0.1232
vn 0.1360 0.8724 0.4695
vn -0.1320 0.3557 -0.9252
vn 0.0200 -0.3116 0.9500
vn -0.2620 -0.8952 -0.3606
vn -0.9665 0.0913 -0.2400
vn -0.0699 0.8686 0.4906
vn -0.0388 0.3751 -0.9262
vn -0.1889 -0.3531 0.9163
vn -0.2109 -0.8525 -0.4783
vn -0.7408 -0.6184 -0.2623
vn -0.1814 0.9057 0.3832
vn 0.3295 0.4682 -0.8199
vn -0.6660 -0.4892 0.5631
vn 0.1797 -0.8678 0.4632
vn 0.7408 0.6184 0.2623
vn 0.1065 -0.1821 -0.9775
vn 0.9778 0.1278 0.1658
vn -0.2000 0.0401 0.9790
vn -0.9409 -0.2556 -0.2221
vn 0.2031 -0.0428 -0.9782
vn 0.1660 -0.9834 0.0739
vn -0.1703 0.9827 -0.0726
vn 0.9255 0.2719 0.2636
vn -0.4276 -0.0306 0.9034
vn -0.5058 -0.6750 -0.5372
vn 0.4338 -0.0487 -0.8997
vn 0.4613 -0.8871 -0.0164
vn -0.4320 0.8949 -0.1118
vn 0.5338 0.6479 0.5434
vn -0.8105 -0.4892 0.3221
vn 0.6976 -0.3778 -0.6088
vn -0.8213 0.3230 -0.4702
vn -0.1566 -0.9850 0.0726
vn 0.9393 -0.0056 -0.3431
vn 0.2272 0.9646 -0.1343
vn 0.7805 0.0650 0.6217
vn -0.4593 -0.0731 -0.8853
vn 0.1288 -0.9912 -0.0316
vn 0.9861 0.0388 0.1618
vn 0.0652 0.9942 -0.0851
vn 0.2350 0.1548 0.9596
vn 0.0867 0.0437 -0.9953
vn 0.0657 -0.9929 0.0994
vn 0.7642 0.0269 0.6444
vn 0.0834 0.9907 -0.1074
vn -0.1563 0.1768 0.9718
vn 0.4009 -0.0872 -0.9120
vn -0.0388 -0.9992 0.0119
vn -0.0623 -0.0268 0.9977
vn 0.1432 0.9881 -0.0561
vn -0.9119 0.1548 0.3802
vn 0.9264 -0.0970 -0.3638
vn -0.2291 -0.9732 0.0191
vn -0.3174 0.0412 0.9474
vn 0.2452 0.9351 0.2559
vn -0.9775 0.2107 -0.0001
vn 0.9455 -0.1670 0.2794
vn -0.2628 -0.9637 -0.0474
vn -0.5219 0.0222 0.8527
vn 0.1726 0.9826 0.0692
vn -0.8880 0.3507 -0.2973
vn 0.8519 -0.1274 0.5079
vn -0.2341 -0.9672 -0.0984
vn -0.7161 0.0536 0.6959
vn 0.0447 0.9621 0.2690
vn -0.7783 0.3839 -0.4970
vn 0.6602 -0.2355 0.7132
vn -0.1856 -0.9536 -0.2370
vn -0.9588 0.0458 0.2803
vn 0.0933 0.9238 0.3714
vn -0.4486 0.3581 -0.8188
vn 0.3587 -0.1977 0.9123
vn -0.1500 -0.9047 -0.3987
vn -0.9915 0.0880 0.0957
vn 0.0071 0.9223 0.3865
vn -0.1553 0.3778 -0.9128
vn 0.0941 -0.2475 0.9643
vn -0.1161 -0.8800 -0.4606
vn -0.9594 0.1273 -0.2518
vn -0.0271 0.8895 0.4561
vn -0.1870 0.4697 -0.8628
vn -0.1199 -0.2942 0.9482
vn 0.2278 -0.7958 -0.5610
vn -0.1797 0.8678 -0.4632
vn -0.1703 0.8935 0.4155
vn 0.5861 0.2261 -0.7781
vn -0.5012 -0.3024 0.8108
vn -0.9246 0.3511 0.1479
s off
f 1/1/1 4/2/1 3/3/1
f 4/4/2 7/5/2 3/6/2
f 7/5/3 6/7/3 5/8/3
f 5/8/4 2/9/4 1/10/4
f 3/11/5 5/12/5 1/13/5
f 4/14/6 6/15/6 8/16/6
f 10/17/7 11/18/7 9/19/7
f 12/20/8 14/21/8 11/22/8
f 15/23/9 16/24/9 14/21/9
f 16/24/10 10/25/10 9/26/10
f 11/27/11 16/28/11 9/29/11
f 12/30/12 13/31/12 15/32/12
f 16/33/13 18/34/13 14/35/13
f 14/36/14 21/37/14 19/38/14
f 21/37/15 16/24/15 19/38/15
f 16/24/16 20/39/16 17/40/16
f 14/41/17 19/42/17 16/43/17
f 18/44/18 20/45/18 21/46/18
f 21/47/19 22/48/19 19/49/19
f 22/48/20 25/50/20 24/51/20
f 24/51/21 20/52/21 16/53/21
f 22/54/22 16/43/22 19/55/22
f 21/56/23 25/57/23 23/58/23
f 22/59/24 29/60/24 26/61/24
f 29/60/25 27/62/25 26/61/25
f 27/62/26 25/63/26 24/64/26
f 26/65/27 24/66/27 22/67/27
f 29/68/28 25/69/28 28/70/28
f 29/71/29 30/72/29 26/73/29
f 33/74/30 31/75/30 30/72/30
f 31/75/31 28/76/31 27/77/31
f 30/78/32 27/79/32 26/80/32
f 33/81/33 28/82/33 32/83/33
f 30/84/34 37/85/34 36/86/34
f 37/85/35 34/87/35 36/86/35
f 35/88/36 31/89/36 34/87/36
f 36/90/37 31/91/37 30/92/37
f 37/93/38 32/94/38 35/95/38
f 37/96/39 39/97/39 36/98/39
f 39/97/40 41/99/40 38/100/40
f 38/100/41 35/101/41 34/102/41
f 39/103/42 34/104/42 36/105/42
f 37/106/43 41/107/43 40/108/43
f 40/109/44 43/110/44 39/111/44
f 44/112/45 45/113/45 43/110/45
f 45/113/46 41/114/46 38/115/46
f 39/116/47 45/117/47 38/118/47
f 44/119/48 41/120/48 42/121/48
f 43/122/49 47/123/49 46/124/49
f 46/124/50 49/125/50 48/126/50
f 49/125/51 45/127/51 48/126/51
f 46/128/52 45/129/52 43/130/52
f 44/131/53 49/132/53 47/133/53
f 46/134/54 50/135/54 53/136/54
f 53/136/55 52/137/55 51/138/55
f 52/137/56 48/139/56 51/138/56
f 53/140/57 48/141/57 46/142/57
f 47/143/58 52/144/58 50/145/58
f 53/146/59 56/147/59 55/148/59
f 55/148/60 57/149/60 54/150/60
f 57/149/61 51/151/61 54/150/61
f 55/152/62 51/153/62 53/154/62
f 50/155/63 57/156/63 56/157/63
f 56/158/64 58/159/64 55/160/64
f 58/159/65 61/161/65 60/162/65
f 60/162/66 57/163/66 54/164/66
f 58/165/67 54/166/67 55/167/67
f 56/168/68 61/169/68 59/170/68
f 59/171/69 63/172/69 58/173/69
f 63/172/70 62/174/70 64/175/70
f 62/174/71 60/176/71 64/175/71
f 63/177/72 60/178/72 58/179/72
f 59/180/73 62/181/73 65/182/73
f 63/183/74 62/184/74 65/185/74
f 64/175/75 62/186/75 63/187/75
f 63/188/76 65/189/76 64/190/76
f 1/1/77 2/191/77 4/2/77
f 4/4/78 8/192/78 7/5/78
f 7/5/79 8/192/79 6/7/79
f 5/8/80 6/7/80 2/9/80
f 3/11/81 7/193/81 5/12/81
f 4/14/82 2/194/82 6/15/82
f 10/17/83 12/195/83 11/18/83
f 12/20/84 15/23/84 14/21/84
f 15/23/85 13/196/85 16/24/85
f 16/24/86 13/196/86 10/25/86
f 11/27/87 14/197/87 16/28/87
f 12/30/88 10/198/88 13/31/88
f 16/33/89 17/199/89 18/34/89
f 14/36/90 18/200/90 21/37/90
f 21/37/91 20/39/91 16/24/91
f 18/44/92 17/201/92 20/45/92
f 21/47/93 23/202/93 22/48/93
f 22/48/94 23/202/94 25/50/94
f 24/51/95 25/50/95 20/52/95
f 22/54/96 24/203/96 16/43/96
f 21/56/97 20/204/97 25/57/97
f 22/59/98 23/205/98 29/60/98
f 29/60/99 28/206/99 27/62/99
f 27/62/100 28/206/100 25/63/100
f 26/65/101 27/207/101 24/66/101
f 29/68/102 23/208/102 25/69/102
f 29/71/103 33/74/103 30/72/103
f 33/74/104 32/209/104 31/75/104
f 31/75/105 32/209/105 28/76/105
f 30/78/106 31/210/106 27/79/106
f 33/81/107 29/211/107 28/82/107
f 30/84/108 33/212/108 37/85/108
f 37/85/109 35/88/109 34/87/109
f 35/88/110 32/213/110 31/89/110
f 36/90/111 34/214/111 31/91/111
f 37/93/112 33/215/112 32/94/112
f 37/96/113 40/216/113 39/97/113
f 39/97/114 40/216/114 41/99/114
f 38/100/115 41/99/115 35/101/115
f 39/103/116 38/217/116 34/104/116
f 37/106/117 35/218/117 41/107/117
f 40/109/118 44/112/118 43/110/118
f 44/112/119 42/219/119 45/113/119
f 45/113/120 42/219/120 41/114/120
f 39/116/121 43/220/121 45/117/121
f 44/119/122 40/221/122 41/120/122
f 43/122/123 44/222/123 47/123/123
f 46/124/124 47/123/124 49/125/124
f 49/125/125 42/223/125 45/127/125
f 46/128/126 48/224/126 45/129/126
f 44/131/127 42/225/127 49/132/127
f 46/134/128 47/226/128 50/135/128
f 53/136/129 50/135/129 52/137/129
f 52/137/130 49/227/130 48/139/130
f 53/140/131 51/228/131 48/141/131
f 47/143/132 49/229/132 52/144/132
f 53/146/133 50/230/133 56/147/133
f 55/148/134 56/147/134 57/149/134
f 57/149/135 52/231/135 51/151/135
f 55/152/136 54/232/136 51/153/136
f 50/155/137 52/233/137 57/156/137
f 56/158/138 59/234/138 58/159/138
f 58/159/139 59/234/139 61/161/139
f 60/162/140 61/161/140 57/163/140
f 58/165/141 60/235/141 54/166/141
f 56/168/142 57/236/142 61/169/142
f 59/171/143 65/237/143 63/172/143
f 63/172/144 65/237/144 62/174/144
f 62/174/145 61/238/145 60/176/145
f 63/177/146 64/190/146 60/178/146
f 59/180/147 61/239/147 62/181/147
f 64/175/148 65/237/148 62/186/148
